<?xml version="1.0" encoding="UTF-8" standalone="no"?>
<!-- Created with Inkscape (http://www.inkscape.org/) -->

<svg
   width="210mm"
   height="297mm"
   viewBox="0 0 210 297"
   version="1.1"
   id="svg4178"
   xmlns="http://www.w3.org/2000/svg"
   xmlns:svg="http://www.w3.org/2000/svg">
  <defs
     id="defs4175" />
  <g
     id="layer1">
    <path
       id="path4021-6"
       style="display:inline;fill:none;fill-opacity:1;stroke:#000000;stroke-width:0.199999;stroke-linejoin:miter;stroke-miterlimit:4;stroke-dasharray:none;stop-color:#000000"
       d="m 99.656043,72.818703 c -0.1398,0.979001 -0.70667,1.525472 -2,1.490207 H 82.656162 c -1.104569,0 -2,0.895431 -2,2 v 1.499921 c 0,1.10457 -0.895432,2 -2,1.99999 l -50.49951,-2.2e-4 c -1.104568,-10e-6 -2,0.89542 -2,1.99999 v 15.50011 c 0,1.10457 -0.895431,2 -2,2 h -0.05608 c -1.104569,0 -2,0.895429 -2,1.999999 v 15.7998 c 0,1.10457 0.895431,2 2,2 h 14.74666 c 1.104569,0 2,0.89543 2,2 v 15.00039 c 0,1.10457 0.895431,2 2,2 h 16.80958 c 1.104569,0 2,0.89543 2,2 v 14.99974 c 0,1.10457 0.895429,2 2,2.00001 l 18.79936,7e-5 c 1.104568,1e-5 2,-0.89542 2,-1.99999 v -1.00021 c 0,-1.10457 0.895431,-2 2,-2 h 14.999868 c 1.10457,0 1.86012,-0.59172 2,-1.57066 0.13988,-0.97895 0.77224,-1.48703 1.68705,-1.42915 l 11.51302,1e-4 c 1.10457,1e-5 2,0.89545 2,2.00002 v 2.49987 c 0,1.10457 0.89543,2 2,2 h 18.20827 c 0.58121,0 1.14431,0.34482 1.29171,1.05237 0.1474,0.70755 0.70184,0.979 1.46961,0.94749 l 21.33097,-1.9e-4 c 1.10457,-1e-5 2,-0.89545 2,-2.00002 v -17.55707 c 0.003,-0.356 -0.24838,-0.63916 -0.45928,-0.74396 -0.321,-0.15951 -0.54066,-0.45711 -0.54066,-0.771 V 80.308421 c 0,-1.10457 -0.89543,-1.99999 -2,-1.99998 l -19.18453,1.8e-4 c -0.68661,1e-5 -1.10332,-0.22245 -1.3213,-1.02959 -0.21798,-0.80714 -0.71878,-0.989057 -1.72381,-0.970258 l -15.27099,3.3e-5 c -1.10457,2e-6 -2,-0.895427 -2,-1.999996 v -1.000215 c 0,-1.10457 -0.89543,-2.000001 -2,-2.000002 l -18.80006,-1.5e-5 c -1.22609,-10e-7 -1.860197,0.531124 -1.999997,1.510125 z" />
  </g>
</svg>
