%TF.GenerationSoftware,KiCad,Pcbnew,(6.0.6)*%
%TF.CreationDate,2022-09-05T21:43:04-07:00*%
%TF.ProjectId,core-bb,636f7265-2d62-4622-9e6b-696361645f70,rev?*%
%TF.SameCoordinates,Original*%
%TF.FileFunction,Copper,L2,Bot*%
%TF.FilePolarity,Positive*%
%FSLAX46Y46*%
G04 Gerber Fmt 4.6, Leading zero omitted, Abs format (unit mm)*
G04 Created by KiCad (PCBNEW (6.0.6)) date 2022-09-05 21:43:04*
%MOMM*%
%LPD*%
G01*
G04 APERTURE LIST*
%TA.AperFunction,ComponentPad*%
%ADD10C,1.524000*%
%TD*%
%TA.AperFunction,ComponentPad*%
%ADD11R,1.700000X1.700000*%
%TD*%
%TA.AperFunction,ComponentPad*%
%ADD12O,1.700000X1.700000*%
%TD*%
%TA.AperFunction,ViaPad*%
%ADD13C,0.800000*%
%TD*%
%TA.AperFunction,Conductor*%
%ADD14C,0.250000*%
%TD*%
G04 APERTURE END LIST*
D10*
%TO.P,U1,1,KEY_COL2*%
%TO.N,/KEY_COL2*%
X172720000Y-130810000D03*
%TO.P,U1,2,KEY_COL4*%
%TO.N,/KEY_COL4*%
X172720000Y-128270000D03*
%TO.P,U1,3,KEY_ROW5*%
%TO.N,/KEY_ROW5*%
X172720000Y-125730000D03*
%TO.P,U1,4,KEY_ROW3*%
%TO.N,/KEY_ROW3*%
X172720000Y-123190000D03*
%TO.P,U1,5,KEY_ROW1*%
%TO.N,/KEY_ROW1*%
X172720000Y-120650000D03*
%TO.P,U1,6,LED_SW_RED1*%
%TO.N,/LED_SW_RED1*%
X172720000Y-118110000D03*
%TO.P,U1,7,LED_SW_GREEN2*%
%TO.N,/LED_SW_GREEN2*%
X172720000Y-115570000D03*
%TO.P,U1,8,LED_SW_BLUE2*%
%TO.N,/LED_SW_BLUE2*%
X172720000Y-113030000D03*
%TO.P,U1,9,LED_CS1*%
%TO.N,/LED_CS1*%
X172720000Y-110490000D03*
%TO.P,U1,10,LED_CS3*%
%TO.N,/LED_CS3*%
X172720000Y-107950000D03*
%TO.P,U1,11,LED_CS5*%
%TO.N,/LED_CS5*%
X172720000Y-105410000D03*
%TO.P,U1,12,LED_CS7*%
%TO.N,/LED_CS7*%
X172720000Y-102870000D03*
%TO.P,U1,13,LED_CS9*%
%TO.N,/LED_CS9*%
X172720000Y-100330000D03*
%TO.P,U1,14,LED_CS11*%
%TO.N,/LED_CS11*%
X172720000Y-97790000D03*
%TO.P,U1,15,LED_CS13*%
%TO.N,/LED_CS13*%
X172720000Y-95250000D03*
%TO.P,U1,16,LED_CS15*%
%TO.N,/LED_CS15*%
X172720000Y-92710000D03*
%TO.P,U1,17,LED_SW_BLUE3*%
%TO.N,/LED_SW_BLUE3*%
X172720000Y-90170000D03*
%TO.P,U1,18,LED_SW_GREEN3*%
%TO.N,/LED_SW_GREEN3*%
X172720000Y-87630000D03*
%TO.P,U1,19,LED_SW_RED4*%
%TO.N,/LED_SW_RED4*%
X172720000Y-85090000D03*
%TO.P,U1,20,KEY_ROW6*%
%TO.N,/KEY_ROW6*%
X172720000Y-82550000D03*
%TO.P,U1,21,KEY_ROW8*%
%TO.N,/KEY_ROW8*%
X172720000Y-80010000D03*
%TO.P,U1,22,KEY_ROW10*%
%TO.N,/KEY_ROW10*%
X172720000Y-77470000D03*
%TO.P,U1,23,KEY_COL7*%
%TO.N,/KEY_COL7*%
X172720000Y-74930000D03*
%TO.P,U1,24,KEY_COL9*%
%TO.N,/KEY_COL9*%
X172720000Y-72390000D03*
%TO.P,U1,25,KEY_COL10*%
%TO.N,/KEY_COL10*%
X175260000Y-72390000D03*
%TO.P,U1,26,KEY_COL8*%
%TO.N,/KEY_COL8*%
X175260000Y-74930000D03*
%TO.P,U1,27,KEY_COL6*%
%TO.N,/KEY_COL6*%
X175260000Y-77470000D03*
%TO.P,U1,28,KEY_ROW9*%
%TO.N,/KEY_ROW9*%
X175260000Y-80010000D03*
%TO.P,U1,29,KEY_ROW7*%
%TO.N,/KEY_ROW7*%
X175260000Y-82550000D03*
%TO.P,U1,30,LED_SW_BLUE4*%
%TO.N,/LED_SW_BLUE4*%
X175260000Y-85090000D03*
%TO.P,U1,31,LED_SW_GREEN4*%
%TO.N,/LED_SW_GREEN4*%
X175260000Y-87630000D03*
%TO.P,U1,32,LED_SW_RED3*%
%TO.N,/LED_SW_RED3*%
X175260000Y-90170000D03*
%TO.P,U1,33,LED_CS16*%
%TO.N,/LED_CS16*%
X175260000Y-92710000D03*
%TO.P,U1,34,LED_CS14*%
%TO.N,/LED_CS14*%
X175260000Y-95250000D03*
%TO.P,U1,35,LED_CS12*%
%TO.N,/LED_CS12*%
X175260000Y-97790000D03*
%TO.P,U1,36,LED_CS10*%
%TO.N,/LED_CS10*%
X175260000Y-100330000D03*
%TO.P,U1,37,LED_CS8*%
%TO.N,/LED_CS8*%
X175260000Y-102870000D03*
%TO.P,U1,38,LED_CS6*%
%TO.N,/LED_CS6*%
X175260000Y-105410000D03*
%TO.P,U1,39,LED_CS4*%
%TO.N,/LED_CS4*%
X175260000Y-107950000D03*
%TO.P,U1,40,LED_CS2*%
%TO.N,/LED_CS2*%
X175260000Y-110490000D03*
%TO.P,U1,41,LED_SW_RED2*%
%TO.N,/LED_SW_RED2*%
X175260000Y-113030000D03*
%TO.P,U1,42,LED_SW_GREEN1*%
%TO.N,/LED_SW_GREEN1*%
X175260000Y-115570000D03*
%TO.P,U1,43,LED_SW_BLUE1*%
%TO.N,/LED_SW_BLUE1*%
X175260000Y-118110000D03*
%TO.P,U1,44,KEY_ROW2*%
%TO.N,/KEY_ROW2*%
X175260000Y-120650000D03*
%TO.P,U1,45,KEY_ROW4*%
%TO.N,/KEY_ROW4*%
X175260000Y-123190000D03*
%TO.P,U1,46,KEY_COL5*%
%TO.N,/KEY_COL5*%
X175260000Y-125730000D03*
%TO.P,U1,47,KEY_COL3*%
%TO.N,/KEY_COL3*%
X175260000Y-128270000D03*
%TO.P,U1,48,KEY_COL1*%
%TO.N,/KEY_COL1*%
X175260000Y-130810000D03*
%TD*%
D11*
%TO.P,J2,1,Pin_1*%
%TO.N,/LED_CS8*%
X242570000Y-107950000D03*
D12*
%TO.P,J2,2,Pin_2*%
%TO.N,/LED_CS7*%
X240030000Y-107950000D03*
%TO.P,J2,3,Pin_3*%
%TO.N,/LED_CS6*%
X237490000Y-107950000D03*
%TO.P,J2,4,Pin_4*%
%TO.N,/LED_CS5*%
X234950000Y-107950000D03*
%TO.P,J2,5,Pin_5*%
%TO.N,/LED_CS4*%
X232410000Y-107950000D03*
%TO.P,J2,6,Pin_6*%
%TO.N,/LED_CS3*%
X229870000Y-107950000D03*
%TO.P,J2,7,Pin_7*%
%TO.N,/LED_CS2*%
X227330000Y-107950000D03*
%TO.P,J2,8,Pin_8*%
%TO.N,/LED_CS1*%
X224790000Y-107950000D03*
%TO.P,J2,9,Pin_9*%
%TO.N,/LED_SW_RED2*%
X222250000Y-107950000D03*
%TO.P,J2,10,Pin_10*%
%TO.N,/LED_SW_GREEN2*%
X219710000Y-107950000D03*
%TO.P,J2,11,Pin_11*%
%TO.N,/LED_SW_BLUE2*%
X217170000Y-107950000D03*
%TO.P,J2,12,Pin_12*%
%TO.N,/LED_SW_RED1*%
X214630000Y-107950000D03*
%TO.P,J2,13,Pin_13*%
%TO.N,/LED_SW_GREEN1*%
X212090000Y-107950000D03*
%TO.P,J2,14,Pin_14*%
%TO.N,/LED_SW_BLUE1*%
X209550000Y-107950000D03*
%TO.P,J2,15,Pin_15*%
%TO.N,/KEY_ROW1*%
X207010000Y-107950000D03*
%TO.P,J2,16,Pin_16*%
%TO.N,/KEY_ROW2*%
X204470000Y-107950000D03*
%TO.P,J2,17,Pin_17*%
%TO.N,/KEY_ROW3*%
X201930000Y-107950000D03*
%TO.P,J2,18,Pin_18*%
%TO.N,/KEY_ROW4*%
X199390000Y-107950000D03*
%TO.P,J2,19,Pin_19*%
%TO.N,/KEY_ROW5*%
X196850000Y-107950000D03*
%TO.P,J2,20,Pin_20*%
%TO.N,/KEY_COL5*%
X194310000Y-107950000D03*
%TO.P,J2,21,Pin_21*%
%TO.N,/KEY_COL4*%
X191770000Y-107950000D03*
%TO.P,J2,22,Pin_22*%
%TO.N,/KEY_COL3*%
X189230000Y-107950000D03*
%TO.P,J2,23,Pin_23*%
%TO.N,/KEY_COL2*%
X186690000Y-107950000D03*
%TO.P,J2,24,Pin_24*%
%TO.N,/KEY_COL1*%
X184150000Y-107950000D03*
%TD*%
%TO.P,J1,24,Pin_24*%
%TO.N,/KEY_COL10*%
X184150000Y-95250000D03*
%TO.P,J1,23,Pin_23*%
%TO.N,/KEY_COL9*%
X186690000Y-95250000D03*
%TO.P,J1,22,Pin_22*%
%TO.N,/KEY_COL8*%
X189230000Y-95250000D03*
%TO.P,J1,21,Pin_21*%
%TO.N,/KEY_COL7*%
X191770000Y-95250000D03*
%TO.P,J1,20,Pin_20*%
%TO.N,/KEY_COL6*%
X194310000Y-95250000D03*
%TO.P,J1,19,Pin_19*%
%TO.N,/KEY_ROW10*%
X196850000Y-95250000D03*
%TO.P,J1,18,Pin_18*%
%TO.N,/KEY_ROW9*%
X199390000Y-95250000D03*
%TO.P,J1,17,Pin_17*%
%TO.N,/KEY_ROW8*%
X201930000Y-95250000D03*
%TO.P,J1,16,Pin_16*%
%TO.N,/KEY_ROW7*%
X204470000Y-95250000D03*
%TO.P,J1,15,Pin_15*%
%TO.N,/KEY_ROW6*%
X207010000Y-95250000D03*
%TO.P,J1,14,Pin_14*%
%TO.N,/LED_SW_BLUE4*%
X209550000Y-95250000D03*
%TO.P,J1,13,Pin_13*%
%TO.N,/LED_SW_GREEN4*%
X212090000Y-95250000D03*
%TO.P,J1,12,Pin_12*%
%TO.N,/LED_SW_RED4*%
X214630000Y-95250000D03*
%TO.P,J1,11,Pin_11*%
%TO.N,/LED_SW_BLUE3*%
X217170000Y-95250000D03*
%TO.P,J1,10,Pin_10*%
%TO.N,/LED_SW_GREEN3*%
X219710000Y-95250000D03*
%TO.P,J1,9,Pin_9*%
%TO.N,/LED_SW_RED3*%
X222250000Y-95250000D03*
%TO.P,J1,8,Pin_8*%
%TO.N,/LED_CS16*%
X224790000Y-95250000D03*
%TO.P,J1,7,Pin_7*%
%TO.N,/LED_CS15*%
X227330000Y-95250000D03*
%TO.P,J1,6,Pin_6*%
%TO.N,/LED_CS14*%
X229870000Y-95250000D03*
%TO.P,J1,5,Pin_5*%
%TO.N,/LED_CS13*%
X232410000Y-95250000D03*
%TO.P,J1,4,Pin_4*%
%TO.N,/LED_CS12*%
X234950000Y-95250000D03*
%TO.P,J1,3,Pin_3*%
%TO.N,/LED_CS11*%
X237490000Y-95250000D03*
%TO.P,J1,2,Pin_2*%
%TO.N,/LED_CS10*%
X240030000Y-95250000D03*
D11*
%TO.P,J1,1,Pin_1*%
%TO.N,/LED_CS9*%
X242570000Y-95250000D03*
%TD*%
D13*
%TO.N,/LED_SW_BLUE3*%
X214122000Y-98298000D03*
%TO.N,/LED_SW_BLUE2*%
X214122000Y-104902000D03*
%TD*%
D14*
%TO.N,/LED_SW_GREEN2*%
X172593000Y-115570000D02*
X173863000Y-114300000D01*
X177419000Y-107188000D02*
X180467000Y-104140000D01*
X173863000Y-114300000D02*
X175641000Y-114300000D01*
X180467000Y-104140000D02*
X212090000Y-104140000D01*
X217805000Y-106045000D02*
X219710000Y-107950000D01*
X175641000Y-114300000D02*
X176403000Y-113538000D01*
X176403000Y-113538000D02*
X176403000Y-111760000D01*
X213995000Y-106045000D02*
X217805000Y-106045000D01*
X176403000Y-111760000D02*
X176911000Y-111252000D01*
X176911000Y-111252000D02*
X176911000Y-109474000D01*
X177419000Y-108966000D02*
X177419000Y-107188000D01*
X176911000Y-109474000D02*
X177419000Y-108966000D01*
X212090000Y-104140000D02*
X213995000Y-106045000D01*
%TO.N,/LED_SW_BLUE2*%
X172593000Y-113030000D02*
X173863000Y-111760000D01*
X180213000Y-103632000D02*
X212852000Y-103632000D01*
X212852000Y-103632000D02*
X214122000Y-104902000D01*
X173863000Y-111760000D02*
X175641000Y-111760000D01*
X175641000Y-111760000D02*
X176403000Y-110998000D01*
X176403000Y-110998000D02*
X176403000Y-109220000D01*
X176911000Y-106934000D02*
X180213000Y-103632000D01*
X176403000Y-109220000D02*
X176911000Y-108712000D01*
X176911000Y-108712000D02*
X176911000Y-106934000D01*
%TO.N,/LED_SW_BLUE3*%
X217170000Y-95250000D02*
X214122000Y-98298000D01*
%TO.N,/LED_CS7*%
X172593000Y-102870000D02*
X173863000Y-101600000D01*
X173863000Y-101600000D02*
X233680000Y-101600000D01*
X233680000Y-101600000D02*
X240030000Y-107950000D01*
%TO.N,/LED_CS5*%
X177673000Y-102108000D02*
X229108000Y-102108000D01*
X229108000Y-102108000D02*
X234950000Y-107950000D01*
%TO.N,/LED_CS3*%
X179705000Y-102616000D02*
X224536000Y-102616000D01*
X224536000Y-102616000D02*
X229870000Y-107950000D01*
%TO.N,/LED_CS1*%
X179959000Y-103124000D02*
X219964000Y-103124000D01*
X219964000Y-103124000D02*
X224790000Y-107950000D01*
%TO.N,/LED_SW_RED1*%
X180721000Y-104648000D02*
X211328000Y-104648000D01*
X211328000Y-104648000D02*
X214630000Y-107950000D01*
%TO.N,/KEY_ROW1*%
X180975000Y-105156000D02*
X204216000Y-105156000D01*
X204216000Y-105156000D02*
X207010000Y-107950000D01*
%TO.N,/KEY_ROW3*%
X181229000Y-105664000D02*
X199644000Y-105664000D01*
X199644000Y-105664000D02*
X201930000Y-107950000D01*
%TO.N,/KEY_ROW5*%
X181483000Y-106172000D02*
X195072000Y-106172000D01*
X195072000Y-106172000D02*
X196850000Y-107950000D01*
%TO.N,/KEY_COL4*%
X181737000Y-106680000D02*
X190500000Y-106680000D01*
X190500000Y-106680000D02*
X191770000Y-107950000D01*
%TO.N,/KEY_COL2*%
X177927000Y-122174000D02*
X177419000Y-122682000D01*
X178435000Y-117856000D02*
X178435000Y-119634000D01*
X178943000Y-117348000D02*
X178435000Y-117856000D01*
X179451000Y-115062000D02*
X178943000Y-115570000D01*
X177927000Y-120142000D02*
X177927000Y-122174000D01*
X179959000Y-112776000D02*
X179451000Y-113284000D01*
X175641000Y-129540000D02*
X173863000Y-129540000D01*
X178435000Y-119634000D02*
X177927000Y-120142000D01*
X179451000Y-113284000D02*
X179451000Y-115062000D01*
X177419000Y-122682000D02*
X177419000Y-124206000D01*
X176911000Y-124714000D02*
X176911000Y-126492000D01*
X179959000Y-110998000D02*
X179959000Y-112776000D01*
X181483000Y-109474000D02*
X179959000Y-110998000D01*
X178943000Y-115570000D02*
X178943000Y-117348000D01*
X185166000Y-109474000D02*
X181483000Y-109474000D01*
X186690000Y-107950000D02*
X185166000Y-109474000D01*
X177419000Y-124206000D02*
X176911000Y-124714000D01*
X176911000Y-126492000D02*
X176403000Y-127000000D01*
X176403000Y-127000000D02*
X176403000Y-128778000D01*
X176403000Y-128778000D02*
X175641000Y-129540000D01*
X173863000Y-129540000D02*
X172593000Y-130810000D01*
%TO.N,/LED_CS10*%
X175953000Y-101034000D02*
X175953000Y-101023000D01*
X175953000Y-101023000D02*
X175260000Y-100330000D01*
X175953000Y-101034000D02*
X234246000Y-101034000D01*
X234246000Y-101034000D02*
X240030000Y-95250000D01*
%TO.N,/LED_CS12*%
X175133000Y-97790000D02*
X177927000Y-100584000D01*
X177927000Y-100584000D02*
X229616000Y-100584000D01*
X229616000Y-100584000D02*
X234950000Y-95250000D01*
%TO.N,/LED_CS14*%
X175133000Y-95250000D02*
X180003000Y-100120000D01*
X180003000Y-100120000D02*
X225000000Y-100120000D01*
X225000000Y-100120000D02*
X229870000Y-95250000D01*
%TO.N,/LED_CS16*%
X175133000Y-92710000D02*
X176403000Y-93980000D01*
X176403000Y-93980000D02*
X176403000Y-95758000D01*
X176403000Y-95758000D02*
X180315000Y-99670000D01*
X180315000Y-99670000D02*
X220370000Y-99670000D01*
X220370000Y-99670000D02*
X224790000Y-95250000D01*
%TO.N,/LED_SW_RED3*%
X175133000Y-90170000D02*
X176403000Y-91440000D01*
X176403000Y-91440000D02*
X176403000Y-93218000D01*
X176403000Y-93218000D02*
X176911000Y-93726000D01*
X176911000Y-93726000D02*
X176911000Y-95504000D01*
X176911000Y-95504000D02*
X180627000Y-99220000D01*
X218280000Y-99220000D02*
X222250000Y-95250000D01*
X180627000Y-99220000D02*
X218280000Y-99220000D01*
%TO.N,/LED_SW_GREEN4*%
X175133000Y-87630000D02*
X176403000Y-88900000D01*
X176911000Y-92964000D02*
X177419000Y-93472000D01*
X176403000Y-88900000D02*
X176403000Y-90678000D01*
X180939000Y-98770000D02*
X208570000Y-98770000D01*
X176403000Y-90678000D02*
X176911000Y-91186000D01*
X177419000Y-93472000D02*
X177419000Y-95250000D01*
X176911000Y-91186000D02*
X176911000Y-92964000D01*
X177419000Y-95250000D02*
X180939000Y-98770000D01*
X208570000Y-98770000D02*
X212090000Y-95250000D01*
%TO.N,/LED_SW_BLUE4*%
X175133000Y-85090000D02*
X176403000Y-86360000D01*
X176403000Y-86360000D02*
X176403000Y-88138000D01*
X176403000Y-88138000D02*
X176911000Y-88646000D01*
X176911000Y-88646000D02*
X176911000Y-90424000D01*
X176911000Y-90424000D02*
X177419000Y-90932000D01*
X177419000Y-90932000D02*
X177419000Y-92710000D01*
X177927000Y-93218000D02*
X177927000Y-94996000D01*
X177419000Y-92710000D02*
X177927000Y-93218000D01*
X177927000Y-94996000D02*
X181251000Y-98320000D01*
X181251000Y-98320000D02*
X206480000Y-98320000D01*
X206480000Y-98320000D02*
X209550000Y-95250000D01*
%TO.N,/KEY_ROW7*%
X175133000Y-82550000D02*
X176403000Y-83820000D01*
X176403000Y-83820000D02*
X176403000Y-85598000D01*
X177927000Y-92456000D02*
X178435000Y-92964000D01*
X176403000Y-85598000D02*
X176911000Y-86106000D01*
X178435000Y-94742000D02*
X181563000Y-97870000D01*
X176911000Y-86106000D02*
X176911000Y-87884000D01*
X176911000Y-87884000D02*
X177419000Y-88392000D01*
X201850000Y-97870000D02*
X204470000Y-95250000D01*
X177419000Y-88392000D02*
X177419000Y-90170000D01*
X177419000Y-90170000D02*
X177927000Y-90678000D01*
X177927000Y-90678000D02*
X177927000Y-92456000D01*
X178435000Y-92964000D02*
X178435000Y-94742000D01*
X181563000Y-97870000D02*
X201850000Y-97870000D01*
%TO.N,/KEY_ROW9*%
X178435000Y-92202000D02*
X178943000Y-92710000D01*
X178435000Y-90424000D02*
X178435000Y-92202000D01*
X176403000Y-81280000D02*
X176403000Y-83058000D01*
X177927000Y-88138000D02*
X177927000Y-89916000D01*
X178943000Y-92710000D02*
X178943000Y-94488000D01*
X177419000Y-87630000D02*
X177927000Y-88138000D01*
X177419000Y-85852000D02*
X177419000Y-87630000D01*
X176911000Y-85344000D02*
X177419000Y-85852000D01*
X176911000Y-83566000D02*
X176911000Y-85344000D01*
X197220000Y-97420000D02*
X199390000Y-95250000D01*
X176403000Y-83058000D02*
X176911000Y-83566000D01*
X177927000Y-89916000D02*
X178435000Y-90424000D01*
X178943000Y-94488000D02*
X181875000Y-97420000D01*
X175133000Y-80010000D02*
X176403000Y-81280000D01*
X181875000Y-97420000D02*
X197220000Y-97420000D01*
%TO.N,/KEY_COL6*%
X178435000Y-87884000D02*
X178435000Y-89662000D01*
X192590000Y-96970000D02*
X194310000Y-95250000D01*
X178943000Y-91948000D02*
X179451000Y-92456000D01*
X177419000Y-83312000D02*
X177419000Y-85090000D01*
X175133000Y-77470000D02*
X176403000Y-78740000D01*
X177927000Y-87376000D02*
X178435000Y-87884000D01*
X177927000Y-85598000D02*
X177927000Y-87376000D01*
X177419000Y-85090000D02*
X177927000Y-85598000D01*
X176911000Y-81026000D02*
X176911000Y-82804000D01*
X176403000Y-78740000D02*
X176403000Y-80518000D01*
X178943000Y-90170000D02*
X178943000Y-91948000D01*
X179451000Y-94234000D02*
X182187000Y-96970000D01*
X176403000Y-80518000D02*
X176911000Y-81026000D01*
X176911000Y-82804000D02*
X177419000Y-83312000D01*
X178435000Y-89662000D02*
X178943000Y-90170000D01*
X179451000Y-92456000D02*
X179451000Y-94234000D01*
X182187000Y-96970000D02*
X192590000Y-96970000D01*
%TO.N,/KEY_COL8*%
X178435000Y-85344000D02*
X178435000Y-87122000D01*
X178943000Y-87630000D02*
X178943000Y-89408000D01*
X177927000Y-84836000D02*
X178435000Y-85344000D01*
X182499000Y-96520000D02*
X187960000Y-96520000D01*
X177927000Y-83058000D02*
X177927000Y-84836000D01*
X177419000Y-82550000D02*
X177927000Y-83058000D01*
X178943000Y-89408000D02*
X179451000Y-89916000D01*
X177419000Y-80772000D02*
X177419000Y-82550000D01*
X187960000Y-96520000D02*
X189230000Y-95250000D01*
X178435000Y-87122000D02*
X178943000Y-87630000D01*
X176911000Y-80264000D02*
X177419000Y-80772000D01*
X176403000Y-77978000D02*
X176911000Y-78486000D01*
X176403000Y-76200000D02*
X176403000Y-77978000D01*
X176911000Y-78486000D02*
X176911000Y-80264000D01*
X175133000Y-74930000D02*
X176403000Y-76200000D01*
X179451000Y-89916000D02*
X179451000Y-91694000D01*
X179451000Y-91694000D02*
X179959000Y-92202000D01*
X179959000Y-92202000D02*
X179959000Y-93980000D01*
X179959000Y-93980000D02*
X182499000Y-96520000D01*
%TO.N,/KEY_COL10*%
X178943000Y-85090000D02*
X178943000Y-86868000D01*
X178435000Y-82804000D02*
X178435000Y-84582000D01*
X177927000Y-82296000D02*
X178435000Y-82804000D01*
X178943000Y-86868000D02*
X179451000Y-87376000D01*
X178435000Y-84582000D02*
X178943000Y-85090000D01*
X176403000Y-73660000D02*
X176403000Y-75438000D01*
X177927000Y-80518000D02*
X177927000Y-82296000D01*
X175133000Y-72390000D02*
X176403000Y-73660000D01*
X176911000Y-77724000D02*
X177419000Y-78232000D01*
X177419000Y-78232000D02*
X177419000Y-80010000D01*
X179959000Y-91440000D02*
X183769000Y-95250000D01*
X177419000Y-80010000D02*
X177927000Y-80518000D01*
X179451000Y-89154000D02*
X179959000Y-89662000D01*
X176911000Y-75946000D02*
X176911000Y-77724000D01*
X179959000Y-89662000D02*
X179959000Y-91440000D01*
X176403000Y-75438000D02*
X176911000Y-75946000D01*
X179451000Y-87376000D02*
X179451000Y-89154000D01*
X183769000Y-95250000D02*
X184150000Y-95250000D01*
%TO.N,/KEY_COL4*%
X177419000Y-121920000D02*
X177419000Y-119888000D01*
%TO.N,/LED_SW_RED1*%
X172593000Y-118110000D02*
X173863000Y-116840000D01*
%TO.N,/LED_CS1*%
X176403000Y-106680000D02*
X179959000Y-103124000D01*
%TO.N,/LED_CS5*%
X173863000Y-104140000D02*
X175641000Y-104140000D01*
%TO.N,/KEY_COL4*%
X172593000Y-128270000D02*
X173863000Y-127000000D01*
%TO.N,/KEY_ROW5*%
X179451000Y-109982000D02*
X179451000Y-108204000D01*
X176403000Y-122174000D02*
X176911000Y-121666000D01*
%TO.N,/LED_CS1*%
X172593000Y-110490000D02*
X173863000Y-109220000D01*
%TO.N,/LED_CS5*%
X175641000Y-104140000D02*
X177673000Y-102108000D01*
%TO.N,/KEY_COL4*%
X178943000Y-113030000D02*
X179451000Y-112522000D01*
%TO.N,/KEY_ROW3*%
X178943000Y-109728000D02*
X178943000Y-107950000D01*
%TO.N,/KEY_COL4*%
X179451000Y-112522000D02*
X179451000Y-110744000D01*
%TO.N,/LED_CS3*%
X173863000Y-106680000D02*
X175641000Y-106680000D01*
%TO.N,/KEY_ROW3*%
X177927000Y-112522000D02*
X178435000Y-112014000D01*
%TO.N,/KEY_COL4*%
X176911000Y-123952000D02*
X176911000Y-122428000D01*
%TO.N,/KEY_ROW5*%
X178435000Y-112776000D02*
X178943000Y-112268000D01*
%TO.N,/KEY_COL4*%
X176911000Y-122428000D02*
X177419000Y-121920000D01*
%TO.N,/KEY_ROW5*%
X178435000Y-114554000D02*
X178435000Y-112776000D01*
X178943000Y-110490000D02*
X179451000Y-109982000D01*
%TO.N,/KEY_COL4*%
X176403000Y-124460000D02*
X176911000Y-123952000D01*
%TO.N,/KEY_ROW3*%
X178435000Y-110236000D02*
X178943000Y-109728000D01*
%TO.N,/KEY_ROW5*%
X179451000Y-108204000D02*
X181483000Y-106172000D01*
%TO.N,/KEY_COL4*%
X179959000Y-110236000D02*
X179959000Y-108458000D01*
%TO.N,/KEY_ROW5*%
X176911000Y-121666000D02*
X176911000Y-119634000D01*
%TO.N,/KEY_ROW1*%
X176403000Y-118618000D02*
X176403000Y-116840000D01*
%TO.N,/KEY_ROW3*%
X177927000Y-114300000D02*
X177927000Y-112522000D01*
%TO.N,/LED_CS1*%
X173863000Y-109220000D02*
X175641000Y-109220000D01*
%TO.N,/KEY_ROW3*%
X176403000Y-121412000D02*
X176403000Y-119380000D01*
%TO.N,/KEY_ROW5*%
X177419000Y-119126000D02*
X177419000Y-117348000D01*
%TO.N,/KEY_ROW1*%
X177419000Y-114046000D02*
X177419000Y-112268000D01*
%TO.N,/KEY_ROW3*%
X178943000Y-107950000D02*
X181229000Y-105664000D01*
%TO.N,/KEY_ROW1*%
X175641000Y-119380000D02*
X176403000Y-118618000D01*
%TO.N,/KEY_ROW5*%
X172593000Y-125730000D02*
X173863000Y-124460000D01*
%TO.N,/LED_CS5*%
X172593000Y-105410000D02*
X173863000Y-104140000D01*
%TO.N,/KEY_COL4*%
X179451000Y-110744000D02*
X179959000Y-110236000D01*
X177927000Y-119380000D02*
X177927000Y-117602000D01*
%TO.N,/KEY_ROW5*%
X175641000Y-124460000D02*
X176403000Y-123698000D01*
%TO.N,/KEY_ROW1*%
X176403000Y-116840000D02*
X176911000Y-116332000D01*
%TO.N,/KEY_ROW5*%
X176911000Y-119634000D02*
X177419000Y-119126000D01*
X177419000Y-117348000D02*
X177927000Y-116840000D01*
%TO.N,/LED_SW_RED1*%
X176403000Y-116078000D02*
X176403000Y-114300000D01*
X177419000Y-111506000D02*
X177419000Y-109728000D01*
%TO.N,/KEY_ROW3*%
X176911000Y-117094000D02*
X177419000Y-116586000D01*
%TO.N,/LED_CS1*%
X176403000Y-108458000D02*
X176403000Y-106680000D01*
%TO.N,/KEY_ROW3*%
X175895000Y-121920000D02*
X176403000Y-121412000D01*
%TO.N,/LED_CS3*%
X175641000Y-106680000D02*
X179705000Y-102616000D01*
%TO.N,/KEY_ROW5*%
X176403000Y-123698000D02*
X176403000Y-122174000D01*
%TO.N,/KEY_ROW3*%
X173863000Y-121920000D02*
X175895000Y-121920000D01*
%TO.N,/KEY_ROW1*%
X177927000Y-109982000D02*
X178435000Y-109474000D01*
%TO.N,/LED_SW_RED1*%
X177927000Y-107442000D02*
X180721000Y-104648000D01*
%TO.N,/KEY_ROW1*%
X178435000Y-109474000D02*
X178435000Y-107696000D01*
X176911000Y-114554000D02*
X177419000Y-114046000D01*
%TO.N,/KEY_COL4*%
X179959000Y-108458000D02*
X181737000Y-106680000D01*
%TO.N,/KEY_ROW3*%
X177419000Y-114808000D02*
X177927000Y-114300000D01*
%TO.N,/KEY_COL4*%
X173863000Y-127000000D02*
X175641000Y-127000000D01*
%TO.N,/KEY_ROW3*%
X176403000Y-119380000D02*
X176911000Y-118872000D01*
%TO.N,/KEY_ROW1*%
X172593000Y-120650000D02*
X173863000Y-119380000D01*
%TO.N,/KEY_COL4*%
X176403000Y-126238000D02*
X176403000Y-124460000D01*
X177419000Y-119888000D02*
X177927000Y-119380000D01*
%TO.N,/LED_SW_RED1*%
X173863000Y-116840000D02*
X175641000Y-116840000D01*
%TO.N,/KEY_ROW1*%
X178435000Y-107696000D02*
X180975000Y-105156000D01*
%TO.N,/KEY_ROW5*%
X177927000Y-116840000D02*
X177927000Y-115062000D01*
%TO.N,/LED_SW_RED1*%
X176403000Y-114300000D02*
X176911000Y-113792000D01*
%TO.N,/KEY_ROW5*%
X173863000Y-124460000D02*
X175641000Y-124460000D01*
%TO.N,/KEY_ROW1*%
X177927000Y-111760000D02*
X177927000Y-109982000D01*
%TO.N,/KEY_ROW3*%
X177419000Y-116586000D02*
X177419000Y-114808000D01*
%TO.N,/LED_SW_RED1*%
X176911000Y-113792000D02*
X176911000Y-112014000D01*
%TO.N,/KEY_ROW5*%
X178943000Y-112268000D02*
X178943000Y-110490000D01*
%TO.N,/KEY_ROW1*%
X173863000Y-119380000D02*
X175641000Y-119380000D01*
%TO.N,/KEY_ROW3*%
X176911000Y-118872000D02*
X176911000Y-117094000D01*
%TO.N,/KEY_ROW5*%
X177927000Y-115062000D02*
X178435000Y-114554000D01*
%TO.N,/KEY_ROW1*%
X177419000Y-112268000D02*
X177927000Y-111760000D01*
%TO.N,/KEY_COL4*%
X178435000Y-115316000D02*
X178943000Y-114808000D01*
X175641000Y-127000000D02*
X176403000Y-126238000D01*
%TO.N,/KEY_ROW1*%
X176911000Y-116332000D02*
X176911000Y-114554000D01*
%TO.N,/KEY_ROW3*%
X178435000Y-112014000D02*
X178435000Y-110236000D01*
%TO.N,/KEY_COL4*%
X178943000Y-114808000D02*
X178943000Y-113030000D01*
%TO.N,/LED_SW_RED1*%
X176911000Y-112014000D02*
X177419000Y-111506000D01*
X177927000Y-109220000D02*
X177927000Y-107442000D01*
%TO.N,/LED_CS3*%
X172593000Y-107950000D02*
X173863000Y-106680000D01*
%TO.N,/LED_CS1*%
X175641000Y-109220000D02*
X176403000Y-108458000D01*
%TO.N,/KEY_ROW3*%
X172593000Y-123190000D02*
X173863000Y-121920000D01*
%TO.N,/LED_SW_RED1*%
X177419000Y-109728000D02*
X177927000Y-109220000D01*
X175641000Y-116840000D02*
X176403000Y-116078000D01*
%TO.N,/KEY_COL4*%
X178435000Y-117094000D02*
X178435000Y-115316000D01*
X177927000Y-117602000D02*
X178435000Y-117094000D01*
%TD*%
M02*
