%TF.GenerationSoftware,KiCad,Pcbnew,(6.0.6)*%
%TF.CreationDate,2022-09-05T21:43:04-07:00*%
%TF.ProjectId,core-bb,636f7265-2d62-4622-9e6b-696361645f70,rev?*%
%TF.SameCoordinates,Original*%
%TF.FileFunction,Legend,Top*%
%TF.FilePolarity,Positive*%
%FSLAX46Y46*%
G04 Gerber Fmt 4.6, Leading zero omitted, Abs format (unit mm)*
G04 Created by KiCad (PCBNEW (6.0.6)) date 2022-09-05 21:43:04*
%MOMM*%
%LPD*%
G01*
G04 APERTURE LIST*
%ADD10C,0.150000*%
%ADD11C,0.120000*%
G04 APERTURE END LIST*
D10*
%TO.C,U1*%
X155448095Y-97242380D02*
X155448095Y-98051904D01*
X155495714Y-98147142D01*
X155543333Y-98194761D01*
X155638571Y-98242380D01*
X155829047Y-98242380D01*
X155924285Y-98194761D01*
X155971904Y-98147142D01*
X156019523Y-98051904D01*
X156019523Y-97242380D01*
X157019523Y-98242380D02*
X156448095Y-98242380D01*
X156733809Y-98242380D02*
X156733809Y-97242380D01*
X156638571Y-97385238D01*
X156543333Y-97480476D01*
X156448095Y-97528095D01*
%TO.C,J2*%
X181062380Y-108283333D02*
X181776666Y-108283333D01*
X181919523Y-108330952D01*
X182014761Y-108426190D01*
X182062380Y-108569047D01*
X182062380Y-108664285D01*
X181157619Y-107854761D02*
X181110000Y-107807142D01*
X181062380Y-107711904D01*
X181062380Y-107473809D01*
X181110000Y-107378571D01*
X181157619Y-107330952D01*
X181252857Y-107283333D01*
X181348095Y-107283333D01*
X181490952Y-107330952D01*
X182062380Y-107902380D01*
X182062380Y-107283333D01*
%TO.C,J1*%
X181062380Y-95583333D02*
X181776666Y-95583333D01*
X181919523Y-95630952D01*
X182014761Y-95726190D01*
X182062380Y-95869047D01*
X182062380Y-95964285D01*
X182062380Y-94583333D02*
X182062380Y-95154761D01*
X182062380Y-94869047D02*
X181062380Y-94869047D01*
X181205238Y-94964285D01*
X181300476Y-95059523D01*
X181348095Y-95154761D01*
D11*
%TO.C,U1*%
X135890000Y-73120000D02*
X135890000Y-71120000D01*
X135890000Y-71120000D02*
X137890000Y-71120000D01*
X176530000Y-71120000D02*
X171450000Y-71120000D01*
X135890000Y-132080000D02*
X135890000Y-130080000D01*
X137890000Y-132080000D02*
X135890000Y-132080000D01*
X176530000Y-132080000D02*
X171450000Y-132080000D01*
%TO.C,J2*%
X241300000Y-106620000D02*
X182820000Y-106620000D01*
X243900000Y-106620000D02*
X243900000Y-107950000D01*
X182820000Y-106620000D02*
X182820000Y-109280000D01*
X241300000Y-106620000D02*
X241300000Y-109280000D01*
X241300000Y-109280000D02*
X182820000Y-109280000D01*
X242570000Y-106620000D02*
X243900000Y-106620000D01*
%TO.C,J1*%
X242570000Y-93920000D02*
X243900000Y-93920000D01*
X241300000Y-96580000D02*
X182820000Y-96580000D01*
X241300000Y-93920000D02*
X241300000Y-96580000D01*
X182820000Y-93920000D02*
X182820000Y-96580000D01*
X243900000Y-93920000D02*
X243900000Y-95250000D01*
X241300000Y-93920000D02*
X182820000Y-93920000D01*
%TD*%
M02*
