%TF.GenerationSoftware,KiCad,Pcbnew,(6.0.6)*%
%TF.CreationDate,2022-09-05T21:43:04-07:00*%
%TF.ProjectId,core-bb,636f7265-2d62-4622-9e6b-696361645f70,rev?*%
%TF.SameCoordinates,Original*%
%TF.FileFunction,Legend,Bot*%
%TF.FilePolarity,Positive*%
%FSLAX46Y46*%
G04 Gerber Fmt 4.6, Leading zero omitted, Abs format (unit mm)*
G04 Created by KiCad (PCBNEW (6.0.6)) date 2022-09-05 21:43:04*
%MOMM*%
%LPD*%
G01*
G04 APERTURE LIST*
%ADD10C,0.100000*%
%ADD11C,0.150000*%
G04 APERTURE END LIST*
D10*
X178661190Y-94814285D02*
X178161190Y-94814285D01*
X178661190Y-95100000D01*
X178161190Y-95100000D01*
X178661190Y-95409523D02*
X178637380Y-95361904D01*
X178613571Y-95338095D01*
X178565952Y-95314285D01*
X178423095Y-95314285D01*
X178375476Y-95338095D01*
X178351666Y-95361904D01*
X178327857Y-95409523D01*
X178327857Y-95480952D01*
X178351666Y-95528571D01*
X178375476Y-95552380D01*
X178423095Y-95576190D01*
X178565952Y-95576190D01*
X178613571Y-95552380D01*
X178637380Y-95528571D01*
X178661190Y-95480952D01*
X178661190Y-95409523D01*
X178327857Y-96004761D02*
X178661190Y-96004761D01*
X178327857Y-95790476D02*
X178589761Y-95790476D01*
X178637380Y-95814285D01*
X178661190Y-95861904D01*
X178661190Y-95933333D01*
X178637380Y-95980952D01*
X178613571Y-96004761D01*
X178661190Y-96242857D02*
X178327857Y-96242857D01*
X178423095Y-96242857D02*
X178375476Y-96266666D01*
X178351666Y-96290476D01*
X178327857Y-96338095D01*
X178327857Y-96385714D01*
X178161190Y-96861904D02*
X178661190Y-97028571D01*
X178161190Y-97195238D01*
X178661190Y-97576190D02*
X178399285Y-97576190D01*
X178351666Y-97552380D01*
X178327857Y-97504761D01*
X178327857Y-97409523D01*
X178351666Y-97361904D01*
X178637380Y-97576190D02*
X178661190Y-97528571D01*
X178661190Y-97409523D01*
X178637380Y-97361904D01*
X178589761Y-97338095D01*
X178542142Y-97338095D01*
X178494523Y-97361904D01*
X178470714Y-97409523D01*
X178470714Y-97528571D01*
X178446904Y-97576190D01*
X178661190Y-97885714D02*
X178637380Y-97838095D01*
X178589761Y-97814285D01*
X178161190Y-97814285D01*
X178661190Y-98076190D02*
X178161190Y-98076190D01*
X178470714Y-98123809D02*
X178661190Y-98266666D01*
X178327857Y-98266666D02*
X178518333Y-98076190D01*
X178327857Y-98433333D02*
X178661190Y-98552380D01*
X178327857Y-98671428D02*
X178661190Y-98552380D01*
X178780238Y-98504761D01*
X178804047Y-98480952D01*
X178827857Y-98433333D01*
X178661190Y-98861904D02*
X178327857Y-98861904D01*
X178423095Y-98861904D02*
X178375476Y-98885714D01*
X178351666Y-98909523D01*
X178327857Y-98957142D01*
X178327857Y-99004761D01*
X178661190Y-99171428D02*
X178327857Y-99171428D01*
X178161190Y-99171428D02*
X178185000Y-99147619D01*
X178208809Y-99171428D01*
X178185000Y-99195238D01*
X178161190Y-99171428D01*
X178208809Y-99171428D01*
X178637380Y-99600000D02*
X178661190Y-99552380D01*
X178661190Y-99457142D01*
X178637380Y-99409523D01*
X178589761Y-99385714D01*
X178399285Y-99385714D01*
X178351666Y-99409523D01*
X178327857Y-99457142D01*
X178327857Y-99552380D01*
X178351666Y-99600000D01*
X178399285Y-99623809D01*
X178446904Y-99623809D01*
X178494523Y-99385714D01*
X178399285Y-100385714D02*
X178423095Y-100457142D01*
X178446904Y-100480952D01*
X178494523Y-100504761D01*
X178565952Y-100504761D01*
X178613571Y-100480952D01*
X178637380Y-100457142D01*
X178661190Y-100409523D01*
X178661190Y-100219047D01*
X178161190Y-100219047D01*
X178161190Y-100385714D01*
X178185000Y-100433333D01*
X178208809Y-100457142D01*
X178256428Y-100480952D01*
X178304047Y-100480952D01*
X178351666Y-100457142D01*
X178375476Y-100433333D01*
X178399285Y-100385714D01*
X178399285Y-100219047D01*
X178661190Y-100719047D02*
X178327857Y-100719047D01*
X178423095Y-100719047D02*
X178375476Y-100742857D01*
X178351666Y-100766666D01*
X178327857Y-100814285D01*
X178327857Y-100861904D01*
X178637380Y-101219047D02*
X178661190Y-101171428D01*
X178661190Y-101076190D01*
X178637380Y-101028571D01*
X178589761Y-101004761D01*
X178399285Y-101004761D01*
X178351666Y-101028571D01*
X178327857Y-101076190D01*
X178327857Y-101171428D01*
X178351666Y-101219047D01*
X178399285Y-101242857D01*
X178446904Y-101242857D01*
X178494523Y-101004761D01*
X178661190Y-101671428D02*
X178399285Y-101671428D01*
X178351666Y-101647619D01*
X178327857Y-101600000D01*
X178327857Y-101504761D01*
X178351666Y-101457142D01*
X178637380Y-101671428D02*
X178661190Y-101623809D01*
X178661190Y-101504761D01*
X178637380Y-101457142D01*
X178589761Y-101433333D01*
X178542142Y-101433333D01*
X178494523Y-101457142D01*
X178470714Y-101504761D01*
X178470714Y-101623809D01*
X178446904Y-101671428D01*
X178661190Y-102123809D02*
X178161190Y-102123809D01*
X178637380Y-102123809D02*
X178661190Y-102076190D01*
X178661190Y-101980952D01*
X178637380Y-101933333D01*
X178613571Y-101909523D01*
X178565952Y-101885714D01*
X178423095Y-101885714D01*
X178375476Y-101909523D01*
X178351666Y-101933333D01*
X178327857Y-101980952D01*
X178327857Y-102076190D01*
X178351666Y-102123809D01*
X178661190Y-102361904D02*
X178161190Y-102361904D01*
X178351666Y-102361904D02*
X178327857Y-102409523D01*
X178327857Y-102504761D01*
X178351666Y-102552380D01*
X178375476Y-102576190D01*
X178423095Y-102600000D01*
X178565952Y-102600000D01*
X178613571Y-102576190D01*
X178637380Y-102552380D01*
X178661190Y-102504761D01*
X178661190Y-102409523D01*
X178637380Y-102361904D01*
X178661190Y-102885714D02*
X178637380Y-102838095D01*
X178613571Y-102814285D01*
X178565952Y-102790476D01*
X178423095Y-102790476D01*
X178375476Y-102814285D01*
X178351666Y-102838095D01*
X178327857Y-102885714D01*
X178327857Y-102957142D01*
X178351666Y-103004761D01*
X178375476Y-103028571D01*
X178423095Y-103052380D01*
X178565952Y-103052380D01*
X178613571Y-103028571D01*
X178637380Y-103004761D01*
X178661190Y-102957142D01*
X178661190Y-102885714D01*
X178661190Y-103480952D02*
X178399285Y-103480952D01*
X178351666Y-103457142D01*
X178327857Y-103409523D01*
X178327857Y-103314285D01*
X178351666Y-103266666D01*
X178637380Y-103480952D02*
X178661190Y-103433333D01*
X178661190Y-103314285D01*
X178637380Y-103266666D01*
X178589761Y-103242857D01*
X178542142Y-103242857D01*
X178494523Y-103266666D01*
X178470714Y-103314285D01*
X178470714Y-103433333D01*
X178446904Y-103480952D01*
X178661190Y-103719047D02*
X178327857Y-103719047D01*
X178423095Y-103719047D02*
X178375476Y-103742857D01*
X178351666Y-103766666D01*
X178327857Y-103814285D01*
X178327857Y-103861904D01*
X178661190Y-104242857D02*
X178161190Y-104242857D01*
X178637380Y-104242857D02*
X178661190Y-104195238D01*
X178661190Y-104100000D01*
X178637380Y-104052380D01*
X178613571Y-104028571D01*
X178565952Y-104004761D01*
X178423095Y-104004761D01*
X178375476Y-104028571D01*
X178351666Y-104052380D01*
X178327857Y-104100000D01*
X178327857Y-104195238D01*
X178351666Y-104242857D01*
X178613571Y-105147619D02*
X178637380Y-105123809D01*
X178661190Y-105052380D01*
X178661190Y-105004761D01*
X178637380Y-104933333D01*
X178589761Y-104885714D01*
X178542142Y-104861904D01*
X178446904Y-104838095D01*
X178375476Y-104838095D01*
X178280238Y-104861904D01*
X178232619Y-104885714D01*
X178185000Y-104933333D01*
X178161190Y-105004761D01*
X178161190Y-105052380D01*
X178185000Y-105123809D01*
X178208809Y-105147619D01*
X178661190Y-105433333D02*
X178637380Y-105385714D01*
X178613571Y-105361904D01*
X178565952Y-105338095D01*
X178423095Y-105338095D01*
X178375476Y-105361904D01*
X178351666Y-105385714D01*
X178327857Y-105433333D01*
X178327857Y-105504761D01*
X178351666Y-105552380D01*
X178375476Y-105576190D01*
X178423095Y-105600000D01*
X178565952Y-105600000D01*
X178613571Y-105576190D01*
X178637380Y-105552380D01*
X178661190Y-105504761D01*
X178661190Y-105433333D01*
X178327857Y-105814285D02*
X178661190Y-105814285D01*
X178375476Y-105814285D02*
X178351666Y-105838095D01*
X178327857Y-105885714D01*
X178327857Y-105957142D01*
X178351666Y-106004761D01*
X178399285Y-106028571D01*
X178661190Y-106028571D01*
X178327857Y-106266666D02*
X178661190Y-106266666D01*
X178375476Y-106266666D02*
X178351666Y-106290476D01*
X178327857Y-106338095D01*
X178327857Y-106409523D01*
X178351666Y-106457142D01*
X178399285Y-106480952D01*
X178661190Y-106480952D01*
X178637380Y-106909523D02*
X178661190Y-106861904D01*
X178661190Y-106766666D01*
X178637380Y-106719047D01*
X178589761Y-106695238D01*
X178399285Y-106695238D01*
X178351666Y-106719047D01*
X178327857Y-106766666D01*
X178327857Y-106861904D01*
X178351666Y-106909523D01*
X178399285Y-106933333D01*
X178446904Y-106933333D01*
X178494523Y-106695238D01*
X178637380Y-107361904D02*
X178661190Y-107314285D01*
X178661190Y-107219047D01*
X178637380Y-107171428D01*
X178613571Y-107147619D01*
X178565952Y-107123809D01*
X178423095Y-107123809D01*
X178375476Y-107147619D01*
X178351666Y-107171428D01*
X178327857Y-107219047D01*
X178327857Y-107314285D01*
X178351666Y-107361904D01*
X178327857Y-107504761D02*
X178327857Y-107695238D01*
X178161190Y-107576190D02*
X178589761Y-107576190D01*
X178637380Y-107600000D01*
X178661190Y-107647619D01*
X178661190Y-107695238D01*
X178661190Y-107933333D02*
X178637380Y-107885714D01*
X178613571Y-107861904D01*
X178565952Y-107838095D01*
X178423095Y-107838095D01*
X178375476Y-107861904D01*
X178351666Y-107885714D01*
X178327857Y-107933333D01*
X178327857Y-108004761D01*
X178351666Y-108052380D01*
X178375476Y-108076190D01*
X178423095Y-108100000D01*
X178565952Y-108100000D01*
X178613571Y-108076190D01*
X178637380Y-108052380D01*
X178661190Y-108004761D01*
X178661190Y-107933333D01*
X178661190Y-108314285D02*
X178327857Y-108314285D01*
X178423095Y-108314285D02*
X178375476Y-108338095D01*
X178351666Y-108361904D01*
X178327857Y-108409523D01*
X178327857Y-108457142D01*
X240370476Y-101826190D02*
X240608571Y-101826190D01*
X240608571Y-101326190D01*
X240203809Y-101564285D02*
X240037142Y-101564285D01*
X239965714Y-101826190D02*
X240203809Y-101826190D01*
X240203809Y-101326190D01*
X239965714Y-101326190D01*
X239751428Y-101826190D02*
X239751428Y-101326190D01*
X239632380Y-101326190D01*
X239560952Y-101350000D01*
X239513333Y-101397619D01*
X239489523Y-101445238D01*
X239465714Y-101540476D01*
X239465714Y-101611904D01*
X239489523Y-101707142D01*
X239513333Y-101754761D01*
X239560952Y-101802380D01*
X239632380Y-101826190D01*
X239751428Y-101826190D01*
X238870476Y-101826190D02*
X238870476Y-101492857D01*
X238870476Y-101540476D02*
X238846666Y-101516666D01*
X238799047Y-101492857D01*
X238727619Y-101492857D01*
X238680000Y-101516666D01*
X238656190Y-101564285D01*
X238656190Y-101826190D01*
X238656190Y-101564285D02*
X238632380Y-101516666D01*
X238584761Y-101492857D01*
X238513333Y-101492857D01*
X238465714Y-101516666D01*
X238441904Y-101564285D01*
X238441904Y-101826190D01*
X237989523Y-101826190D02*
X237989523Y-101564285D01*
X238013333Y-101516666D01*
X238060952Y-101492857D01*
X238156190Y-101492857D01*
X238203809Y-101516666D01*
X237989523Y-101802380D02*
X238037142Y-101826190D01*
X238156190Y-101826190D01*
X238203809Y-101802380D01*
X238227619Y-101754761D01*
X238227619Y-101707142D01*
X238203809Y-101659523D01*
X238156190Y-101635714D01*
X238037142Y-101635714D01*
X237989523Y-101611904D01*
X237822857Y-101492857D02*
X237632380Y-101492857D01*
X237751428Y-101326190D02*
X237751428Y-101754761D01*
X237727619Y-101802380D01*
X237680000Y-101826190D01*
X237632380Y-101826190D01*
X237465714Y-101826190D02*
X237465714Y-101492857D01*
X237465714Y-101588095D02*
X237441904Y-101540476D01*
X237418095Y-101516666D01*
X237370476Y-101492857D01*
X237322857Y-101492857D01*
X237156190Y-101826190D02*
X237156190Y-101492857D01*
X237156190Y-101326190D02*
X237180000Y-101350000D01*
X237156190Y-101373809D01*
X237132380Y-101350000D01*
X237156190Y-101326190D01*
X237156190Y-101373809D01*
X236965714Y-101826190D02*
X236703809Y-101492857D01*
X236965714Y-101492857D02*
X236703809Y-101826190D01*
X235918095Y-101802380D02*
X235965714Y-101826190D01*
X236060952Y-101826190D01*
X236108571Y-101802380D01*
X236132380Y-101778571D01*
X236156190Y-101730952D01*
X236156190Y-101588095D01*
X236132380Y-101540476D01*
X236108571Y-101516666D01*
X236060952Y-101492857D01*
X235965714Y-101492857D01*
X235918095Y-101516666D01*
X235489523Y-101492857D02*
X235489523Y-101826190D01*
X235703809Y-101492857D02*
X235703809Y-101754761D01*
X235680000Y-101802380D01*
X235632380Y-101826190D01*
X235560952Y-101826190D01*
X235513333Y-101802380D01*
X235489523Y-101778571D01*
X235251428Y-101826190D02*
X235251428Y-101492857D01*
X235251428Y-101588095D02*
X235227619Y-101540476D01*
X235203809Y-101516666D01*
X235156190Y-101492857D01*
X235108571Y-101492857D01*
X234941904Y-101826190D02*
X234941904Y-101492857D01*
X234941904Y-101588095D02*
X234918095Y-101540476D01*
X234894285Y-101516666D01*
X234846666Y-101492857D01*
X234799047Y-101492857D01*
X234441904Y-101802380D02*
X234489523Y-101826190D01*
X234584761Y-101826190D01*
X234632380Y-101802380D01*
X234656190Y-101754761D01*
X234656190Y-101564285D01*
X234632380Y-101516666D01*
X234584761Y-101492857D01*
X234489523Y-101492857D01*
X234441904Y-101516666D01*
X234418095Y-101564285D01*
X234418095Y-101611904D01*
X234656190Y-101659523D01*
X234203809Y-101492857D02*
X234203809Y-101826190D01*
X234203809Y-101540476D02*
X234180000Y-101516666D01*
X234132380Y-101492857D01*
X234060952Y-101492857D01*
X234013333Y-101516666D01*
X233989523Y-101564285D01*
X233989523Y-101826190D01*
X233822857Y-101492857D02*
X233632380Y-101492857D01*
X233751428Y-101326190D02*
X233751428Y-101754761D01*
X233727619Y-101802380D01*
X233680000Y-101826190D01*
X233632380Y-101826190D01*
X233108571Y-101802380D02*
X233060952Y-101826190D01*
X232965714Y-101826190D01*
X232918095Y-101802380D01*
X232894285Y-101754761D01*
X232894285Y-101730952D01*
X232918095Y-101683333D01*
X232965714Y-101659523D01*
X233037142Y-101659523D01*
X233084761Y-101635714D01*
X233108571Y-101588095D01*
X233108571Y-101564285D01*
X233084761Y-101516666D01*
X233037142Y-101492857D01*
X232965714Y-101492857D01*
X232918095Y-101516666D01*
X232608571Y-101826190D02*
X232656190Y-101802380D01*
X232680000Y-101778571D01*
X232703809Y-101730952D01*
X232703809Y-101588095D01*
X232680000Y-101540476D01*
X232656190Y-101516666D01*
X232608571Y-101492857D01*
X232537142Y-101492857D01*
X232489523Y-101516666D01*
X232465714Y-101540476D01*
X232441904Y-101588095D01*
X232441904Y-101730952D01*
X232465714Y-101778571D01*
X232489523Y-101802380D01*
X232537142Y-101826190D01*
X232608571Y-101826190D01*
X232013333Y-101492857D02*
X232013333Y-101826190D01*
X232227619Y-101492857D02*
X232227619Y-101754761D01*
X232203809Y-101802380D01*
X232156190Y-101826190D01*
X232084761Y-101826190D01*
X232037142Y-101802380D01*
X232013333Y-101778571D01*
X231775238Y-101826190D02*
X231775238Y-101492857D01*
X231775238Y-101588095D02*
X231751428Y-101540476D01*
X231727619Y-101516666D01*
X231680000Y-101492857D01*
X231632380Y-101492857D01*
X231251428Y-101802380D02*
X231299047Y-101826190D01*
X231394285Y-101826190D01*
X231441904Y-101802380D01*
X231465714Y-101778571D01*
X231489523Y-101730952D01*
X231489523Y-101588095D01*
X231465714Y-101540476D01*
X231441904Y-101516666D01*
X231394285Y-101492857D01*
X231299047Y-101492857D01*
X231251428Y-101516666D01*
X230846666Y-101802380D02*
X230894285Y-101826190D01*
X230989523Y-101826190D01*
X231037142Y-101802380D01*
X231060952Y-101754761D01*
X231060952Y-101564285D01*
X231037142Y-101516666D01*
X230989523Y-101492857D01*
X230894285Y-101492857D01*
X230846666Y-101516666D01*
X230822857Y-101564285D01*
X230822857Y-101611904D01*
X231060952Y-101659523D01*
X230632380Y-101802380D02*
X230584761Y-101826190D01*
X230489523Y-101826190D01*
X230441904Y-101802380D01*
X230418095Y-101754761D01*
X230418095Y-101730952D01*
X230441904Y-101683333D01*
X230489523Y-101659523D01*
X230560952Y-101659523D01*
X230608571Y-101635714D01*
X230632380Y-101588095D01*
X230632380Y-101564285D01*
X230608571Y-101516666D01*
X230560952Y-101492857D01*
X230489523Y-101492857D01*
X230441904Y-101516666D01*
X229680000Y-102016666D02*
X229703809Y-101992857D01*
X229751428Y-101921428D01*
X229775238Y-101873809D01*
X229799047Y-101802380D01*
X229822857Y-101683333D01*
X229822857Y-101588095D01*
X229799047Y-101469047D01*
X229775238Y-101397619D01*
X229751428Y-101350000D01*
X229703809Y-101278571D01*
X229680000Y-101254761D01*
X229275238Y-101826190D02*
X229275238Y-101564285D01*
X229299047Y-101516666D01*
X229346666Y-101492857D01*
X229441904Y-101492857D01*
X229489523Y-101516666D01*
X229275238Y-101802380D02*
X229322857Y-101826190D01*
X229441904Y-101826190D01*
X229489523Y-101802380D01*
X229513333Y-101754761D01*
X229513333Y-101707142D01*
X229489523Y-101659523D01*
X229441904Y-101635714D01*
X229322857Y-101635714D01*
X229275238Y-101611904D01*
X229037142Y-101492857D02*
X229037142Y-101826190D01*
X229037142Y-101540476D02*
X229013333Y-101516666D01*
X228965714Y-101492857D01*
X228894285Y-101492857D01*
X228846666Y-101516666D01*
X228822857Y-101564285D01*
X228822857Y-101826190D01*
X228513333Y-101826190D02*
X228560952Y-101802380D01*
X228584761Y-101778571D01*
X228608571Y-101730952D01*
X228608571Y-101588095D01*
X228584761Y-101540476D01*
X228560952Y-101516666D01*
X228513333Y-101492857D01*
X228441904Y-101492857D01*
X228394285Y-101516666D01*
X228370476Y-101540476D01*
X228346666Y-101588095D01*
X228346666Y-101730952D01*
X228370476Y-101778571D01*
X228394285Y-101802380D01*
X228441904Y-101826190D01*
X228513333Y-101826190D01*
X227918095Y-101826190D02*
X227918095Y-101326190D01*
X227918095Y-101802380D02*
X227965714Y-101826190D01*
X228060952Y-101826190D01*
X228108571Y-101802380D01*
X228132380Y-101778571D01*
X228156190Y-101730952D01*
X228156190Y-101588095D01*
X228132380Y-101540476D01*
X228108571Y-101516666D01*
X228060952Y-101492857D01*
X227965714Y-101492857D01*
X227918095Y-101516666D01*
X227489523Y-101802380D02*
X227537142Y-101826190D01*
X227632380Y-101826190D01*
X227680000Y-101802380D01*
X227703809Y-101754761D01*
X227703809Y-101564285D01*
X227680000Y-101516666D01*
X227632380Y-101492857D01*
X227537142Y-101492857D01*
X227489523Y-101516666D01*
X227465714Y-101564285D01*
X227465714Y-101611904D01*
X227703809Y-101659523D01*
X227275238Y-101802380D02*
X227227619Y-101826190D01*
X227132380Y-101826190D01*
X227084761Y-101802380D01*
X227060952Y-101754761D01*
X227060952Y-101730952D01*
X227084761Y-101683333D01*
X227132380Y-101659523D01*
X227203809Y-101659523D01*
X227251428Y-101635714D01*
X227275238Y-101588095D01*
X227275238Y-101564285D01*
X227251428Y-101516666D01*
X227203809Y-101492857D01*
X227132380Y-101492857D01*
X227084761Y-101516666D01*
X226894285Y-102016666D02*
X226870476Y-101992857D01*
X226822857Y-101921428D01*
X226799047Y-101873809D01*
X226775238Y-101802380D01*
X226751428Y-101683333D01*
X226751428Y-101588095D01*
X226775238Y-101469047D01*
X226799047Y-101397619D01*
X226822857Y-101350000D01*
X226870476Y-101278571D01*
X226894285Y-101254761D01*
X221566666Y-101826190D02*
X221804761Y-101826190D01*
X221804761Y-101326190D01*
X221400000Y-101564285D02*
X221233333Y-101564285D01*
X221161904Y-101826190D02*
X221400000Y-101826190D01*
X221400000Y-101326190D01*
X221161904Y-101326190D01*
X220947619Y-101826190D02*
X220947619Y-101326190D01*
X220828571Y-101326190D01*
X220757142Y-101350000D01*
X220709523Y-101397619D01*
X220685714Y-101445238D01*
X220661904Y-101540476D01*
X220661904Y-101611904D01*
X220685714Y-101707142D01*
X220709523Y-101754761D01*
X220757142Y-101802380D01*
X220828571Y-101826190D01*
X220947619Y-101826190D01*
X220066666Y-101826190D02*
X220066666Y-101492857D01*
X220066666Y-101540476D02*
X220042857Y-101516666D01*
X219995238Y-101492857D01*
X219923809Y-101492857D01*
X219876190Y-101516666D01*
X219852380Y-101564285D01*
X219852380Y-101826190D01*
X219852380Y-101564285D02*
X219828571Y-101516666D01*
X219780952Y-101492857D01*
X219709523Y-101492857D01*
X219661904Y-101516666D01*
X219638095Y-101564285D01*
X219638095Y-101826190D01*
X219185714Y-101826190D02*
X219185714Y-101564285D01*
X219209523Y-101516666D01*
X219257142Y-101492857D01*
X219352380Y-101492857D01*
X219400000Y-101516666D01*
X219185714Y-101802380D02*
X219233333Y-101826190D01*
X219352380Y-101826190D01*
X219400000Y-101802380D01*
X219423809Y-101754761D01*
X219423809Y-101707142D01*
X219400000Y-101659523D01*
X219352380Y-101635714D01*
X219233333Y-101635714D01*
X219185714Y-101611904D01*
X219019047Y-101492857D02*
X218828571Y-101492857D01*
X218947619Y-101326190D02*
X218947619Y-101754761D01*
X218923809Y-101802380D01*
X218876190Y-101826190D01*
X218828571Y-101826190D01*
X218661904Y-101826190D02*
X218661904Y-101492857D01*
X218661904Y-101588095D02*
X218638095Y-101540476D01*
X218614285Y-101516666D01*
X218566666Y-101492857D01*
X218519047Y-101492857D01*
X218352380Y-101826190D02*
X218352380Y-101492857D01*
X218352380Y-101326190D02*
X218376190Y-101350000D01*
X218352380Y-101373809D01*
X218328571Y-101350000D01*
X218352380Y-101326190D01*
X218352380Y-101373809D01*
X218161904Y-101826190D02*
X217900000Y-101492857D01*
X218161904Y-101492857D02*
X217900000Y-101826190D01*
X217352380Y-101802380D02*
X217304761Y-101826190D01*
X217209523Y-101826190D01*
X217161904Y-101802380D01*
X217138095Y-101754761D01*
X217138095Y-101730952D01*
X217161904Y-101683333D01*
X217209523Y-101659523D01*
X217280952Y-101659523D01*
X217328571Y-101635714D01*
X217352380Y-101588095D01*
X217352380Y-101564285D01*
X217328571Y-101516666D01*
X217280952Y-101492857D01*
X217209523Y-101492857D01*
X217161904Y-101516666D01*
X216971428Y-101492857D02*
X216876190Y-101826190D01*
X216780952Y-101588095D01*
X216685714Y-101826190D01*
X216590476Y-101492857D01*
X216400000Y-101826190D02*
X216400000Y-101492857D01*
X216400000Y-101326190D02*
X216423809Y-101350000D01*
X216400000Y-101373809D01*
X216376190Y-101350000D01*
X216400000Y-101326190D01*
X216400000Y-101373809D01*
X216233333Y-101492857D02*
X216042857Y-101492857D01*
X216161904Y-101326190D02*
X216161904Y-101754761D01*
X216138095Y-101802380D01*
X216090476Y-101826190D01*
X216042857Y-101826190D01*
X215661904Y-101802380D02*
X215709523Y-101826190D01*
X215804761Y-101826190D01*
X215852380Y-101802380D01*
X215876190Y-101778571D01*
X215900000Y-101730952D01*
X215900000Y-101588095D01*
X215876190Y-101540476D01*
X215852380Y-101516666D01*
X215804761Y-101492857D01*
X215709523Y-101492857D01*
X215661904Y-101516666D01*
X215447619Y-101826190D02*
X215447619Y-101326190D01*
X215233333Y-101826190D02*
X215233333Y-101564285D01*
X215257142Y-101516666D01*
X215304761Y-101492857D01*
X215376190Y-101492857D01*
X215423809Y-101516666D01*
X215447619Y-101540476D01*
X214804761Y-101802380D02*
X214852380Y-101826190D01*
X214947619Y-101826190D01*
X214995238Y-101802380D01*
X215019047Y-101754761D01*
X215019047Y-101564285D01*
X214995238Y-101516666D01*
X214947619Y-101492857D01*
X214852380Y-101492857D01*
X214804761Y-101516666D01*
X214780952Y-101564285D01*
X214780952Y-101611904D01*
X215019047Y-101659523D01*
X214590476Y-101802380D02*
X214542857Y-101826190D01*
X214447619Y-101826190D01*
X214400000Y-101802380D01*
X214376190Y-101754761D01*
X214376190Y-101730952D01*
X214400000Y-101683333D01*
X214447619Y-101659523D01*
X214519047Y-101659523D01*
X214566666Y-101635714D01*
X214590476Y-101588095D01*
X214590476Y-101564285D01*
X214566666Y-101516666D01*
X214519047Y-101492857D01*
X214447619Y-101492857D01*
X214400000Y-101516666D01*
X213638095Y-102016666D02*
X213661904Y-101992857D01*
X213709523Y-101921428D01*
X213733333Y-101873809D01*
X213757142Y-101802380D01*
X213780952Y-101683333D01*
X213780952Y-101588095D01*
X213757142Y-101469047D01*
X213733333Y-101397619D01*
X213709523Y-101350000D01*
X213661904Y-101278571D01*
X213638095Y-101254761D01*
X213233333Y-101802380D02*
X213280952Y-101826190D01*
X213376190Y-101826190D01*
X213423809Y-101802380D01*
X213447619Y-101778571D01*
X213471428Y-101730952D01*
X213471428Y-101588095D01*
X213447619Y-101540476D01*
X213423809Y-101516666D01*
X213376190Y-101492857D01*
X213280952Y-101492857D01*
X213233333Y-101516666D01*
X212804761Y-101826190D02*
X212804761Y-101564285D01*
X212828571Y-101516666D01*
X212876190Y-101492857D01*
X212971428Y-101492857D01*
X213019047Y-101516666D01*
X212804761Y-101802380D02*
X212852380Y-101826190D01*
X212971428Y-101826190D01*
X213019047Y-101802380D01*
X213042857Y-101754761D01*
X213042857Y-101707142D01*
X213019047Y-101659523D01*
X212971428Y-101635714D01*
X212852380Y-101635714D01*
X212804761Y-101611904D01*
X212638095Y-101492857D02*
X212447619Y-101492857D01*
X212566666Y-101326190D02*
X212566666Y-101754761D01*
X212542857Y-101802380D01*
X212495238Y-101826190D01*
X212447619Y-101826190D01*
X212280952Y-101826190D02*
X212280952Y-101326190D01*
X212066666Y-101826190D02*
X212066666Y-101564285D01*
X212090476Y-101516666D01*
X212138095Y-101492857D01*
X212209523Y-101492857D01*
X212257142Y-101516666D01*
X212280952Y-101540476D01*
X211757142Y-101826190D02*
X211804761Y-101802380D01*
X211828571Y-101778571D01*
X211852380Y-101730952D01*
X211852380Y-101588095D01*
X211828571Y-101540476D01*
X211804761Y-101516666D01*
X211757142Y-101492857D01*
X211685714Y-101492857D01*
X211638095Y-101516666D01*
X211614285Y-101540476D01*
X211590476Y-101588095D01*
X211590476Y-101730952D01*
X211614285Y-101778571D01*
X211638095Y-101802380D01*
X211685714Y-101826190D01*
X211757142Y-101826190D01*
X211161904Y-101826190D02*
X211161904Y-101326190D01*
X211161904Y-101802380D02*
X211209523Y-101826190D01*
X211304761Y-101826190D01*
X211352380Y-101802380D01*
X211376190Y-101778571D01*
X211400000Y-101730952D01*
X211400000Y-101588095D01*
X211376190Y-101540476D01*
X211352380Y-101516666D01*
X211304761Y-101492857D01*
X211209523Y-101492857D01*
X211161904Y-101516666D01*
X210733333Y-101802380D02*
X210780952Y-101826190D01*
X210876190Y-101826190D01*
X210923809Y-101802380D01*
X210947619Y-101754761D01*
X210947619Y-101564285D01*
X210923809Y-101516666D01*
X210876190Y-101492857D01*
X210780952Y-101492857D01*
X210733333Y-101516666D01*
X210709523Y-101564285D01*
X210709523Y-101611904D01*
X210947619Y-101659523D01*
X210519047Y-101802380D02*
X210471428Y-101826190D01*
X210376190Y-101826190D01*
X210328571Y-101802380D01*
X210304761Y-101754761D01*
X210304761Y-101730952D01*
X210328571Y-101683333D01*
X210376190Y-101659523D01*
X210447619Y-101659523D01*
X210495238Y-101635714D01*
X210519047Y-101588095D01*
X210519047Y-101564285D01*
X210495238Y-101516666D01*
X210447619Y-101492857D01*
X210376190Y-101492857D01*
X210328571Y-101516666D01*
X210138095Y-102016666D02*
X210114285Y-101992857D01*
X210066666Y-101921428D01*
X210042857Y-101873809D01*
X210019047Y-101802380D01*
X209995238Y-101683333D01*
X209995238Y-101588095D01*
X210019047Y-101469047D01*
X210042857Y-101397619D01*
X210066666Y-101350000D01*
X210114285Y-101278571D01*
X210138095Y-101254761D01*
X204870476Y-101826190D02*
X204870476Y-101326190D01*
X204584761Y-101826190D02*
X204799047Y-101540476D01*
X204584761Y-101326190D02*
X204870476Y-101611904D01*
X204180000Y-101802380D02*
X204227619Y-101826190D01*
X204322857Y-101826190D01*
X204370476Y-101802380D01*
X204394285Y-101754761D01*
X204394285Y-101564285D01*
X204370476Y-101516666D01*
X204322857Y-101492857D01*
X204227619Y-101492857D01*
X204180000Y-101516666D01*
X204156190Y-101564285D01*
X204156190Y-101611904D01*
X204394285Y-101659523D01*
X203989523Y-101492857D02*
X203870476Y-101826190D01*
X203751428Y-101492857D02*
X203870476Y-101826190D01*
X203918095Y-101945238D01*
X203941904Y-101969047D01*
X203989523Y-101992857D01*
X203180000Y-101826190D02*
X203180000Y-101492857D01*
X203180000Y-101540476D02*
X203156190Y-101516666D01*
X203108571Y-101492857D01*
X203037142Y-101492857D01*
X202989523Y-101516666D01*
X202965714Y-101564285D01*
X202965714Y-101826190D01*
X202965714Y-101564285D02*
X202941904Y-101516666D01*
X202894285Y-101492857D01*
X202822857Y-101492857D01*
X202775238Y-101516666D01*
X202751428Y-101564285D01*
X202751428Y-101826190D01*
X202299047Y-101826190D02*
X202299047Y-101564285D01*
X202322857Y-101516666D01*
X202370476Y-101492857D01*
X202465714Y-101492857D01*
X202513333Y-101516666D01*
X202299047Y-101802380D02*
X202346666Y-101826190D01*
X202465714Y-101826190D01*
X202513333Y-101802380D01*
X202537142Y-101754761D01*
X202537142Y-101707142D01*
X202513333Y-101659523D01*
X202465714Y-101635714D01*
X202346666Y-101635714D01*
X202299047Y-101611904D01*
X202132380Y-101492857D02*
X201941904Y-101492857D01*
X202060952Y-101326190D02*
X202060952Y-101754761D01*
X202037142Y-101802380D01*
X201989523Y-101826190D01*
X201941904Y-101826190D01*
X201775238Y-101826190D02*
X201775238Y-101492857D01*
X201775238Y-101588095D02*
X201751428Y-101540476D01*
X201727619Y-101516666D01*
X201680000Y-101492857D01*
X201632380Y-101492857D01*
X201465714Y-101826190D02*
X201465714Y-101492857D01*
X201465714Y-101326190D02*
X201489523Y-101350000D01*
X201465714Y-101373809D01*
X201441904Y-101350000D01*
X201465714Y-101326190D01*
X201465714Y-101373809D01*
X201275238Y-101826190D02*
X201013333Y-101492857D01*
X201275238Y-101492857D02*
X201013333Y-101826190D01*
X200441904Y-101826190D02*
X200441904Y-101492857D01*
X200441904Y-101588095D02*
X200418095Y-101540476D01*
X200394285Y-101516666D01*
X200346666Y-101492857D01*
X200299047Y-101492857D01*
X200060952Y-101826190D02*
X200108571Y-101802380D01*
X200132380Y-101778571D01*
X200156190Y-101730952D01*
X200156190Y-101588095D01*
X200132380Y-101540476D01*
X200108571Y-101516666D01*
X200060952Y-101492857D01*
X199989523Y-101492857D01*
X199941904Y-101516666D01*
X199918095Y-101540476D01*
X199894285Y-101588095D01*
X199894285Y-101730952D01*
X199918095Y-101778571D01*
X199941904Y-101802380D01*
X199989523Y-101826190D01*
X200060952Y-101826190D01*
X199727619Y-101492857D02*
X199632380Y-101826190D01*
X199537142Y-101588095D01*
X199441904Y-101826190D01*
X199346666Y-101492857D01*
X199180000Y-101802380D02*
X199132380Y-101826190D01*
X199037142Y-101826190D01*
X198989523Y-101802380D01*
X198965714Y-101754761D01*
X198965714Y-101730952D01*
X198989523Y-101683333D01*
X199037142Y-101659523D01*
X199108571Y-101659523D01*
X199156190Y-101635714D01*
X199180000Y-101588095D01*
X199180000Y-101564285D01*
X199156190Y-101516666D01*
X199108571Y-101492857D01*
X199037142Y-101492857D01*
X198989523Y-101516666D01*
X192884761Y-101826190D02*
X192884761Y-101326190D01*
X192599047Y-101826190D02*
X192813333Y-101540476D01*
X192599047Y-101326190D02*
X192884761Y-101611904D01*
X192194285Y-101802380D02*
X192241904Y-101826190D01*
X192337142Y-101826190D01*
X192384761Y-101802380D01*
X192408571Y-101754761D01*
X192408571Y-101564285D01*
X192384761Y-101516666D01*
X192337142Y-101492857D01*
X192241904Y-101492857D01*
X192194285Y-101516666D01*
X192170476Y-101564285D01*
X192170476Y-101611904D01*
X192408571Y-101659523D01*
X192003809Y-101492857D02*
X191884761Y-101826190D01*
X191765714Y-101492857D02*
X191884761Y-101826190D01*
X191932380Y-101945238D01*
X191956190Y-101969047D01*
X192003809Y-101992857D01*
X191194285Y-101826190D02*
X191194285Y-101492857D01*
X191194285Y-101540476D02*
X191170476Y-101516666D01*
X191122857Y-101492857D01*
X191051428Y-101492857D01*
X191003809Y-101516666D01*
X190980000Y-101564285D01*
X190980000Y-101826190D01*
X190980000Y-101564285D02*
X190956190Y-101516666D01*
X190908571Y-101492857D01*
X190837142Y-101492857D01*
X190789523Y-101516666D01*
X190765714Y-101564285D01*
X190765714Y-101826190D01*
X190313333Y-101826190D02*
X190313333Y-101564285D01*
X190337142Y-101516666D01*
X190384761Y-101492857D01*
X190480000Y-101492857D01*
X190527619Y-101516666D01*
X190313333Y-101802380D02*
X190360952Y-101826190D01*
X190480000Y-101826190D01*
X190527619Y-101802380D01*
X190551428Y-101754761D01*
X190551428Y-101707142D01*
X190527619Y-101659523D01*
X190480000Y-101635714D01*
X190360952Y-101635714D01*
X190313333Y-101611904D01*
X190146666Y-101492857D02*
X189956190Y-101492857D01*
X190075238Y-101326190D02*
X190075238Y-101754761D01*
X190051428Y-101802380D01*
X190003809Y-101826190D01*
X189956190Y-101826190D01*
X189789523Y-101826190D02*
X189789523Y-101492857D01*
X189789523Y-101588095D02*
X189765714Y-101540476D01*
X189741904Y-101516666D01*
X189694285Y-101492857D01*
X189646666Y-101492857D01*
X189480000Y-101826190D02*
X189480000Y-101492857D01*
X189480000Y-101326190D02*
X189503809Y-101350000D01*
X189480000Y-101373809D01*
X189456190Y-101350000D01*
X189480000Y-101326190D01*
X189480000Y-101373809D01*
X189289523Y-101826190D02*
X189027619Y-101492857D01*
X189289523Y-101492857D02*
X189027619Y-101826190D01*
X188241904Y-101802380D02*
X188289523Y-101826190D01*
X188384761Y-101826190D01*
X188432380Y-101802380D01*
X188456190Y-101778571D01*
X188480000Y-101730952D01*
X188480000Y-101588095D01*
X188456190Y-101540476D01*
X188432380Y-101516666D01*
X188384761Y-101492857D01*
X188289523Y-101492857D01*
X188241904Y-101516666D01*
X187956190Y-101826190D02*
X188003809Y-101802380D01*
X188027619Y-101778571D01*
X188051428Y-101730952D01*
X188051428Y-101588095D01*
X188027619Y-101540476D01*
X188003809Y-101516666D01*
X187956190Y-101492857D01*
X187884761Y-101492857D01*
X187837142Y-101516666D01*
X187813333Y-101540476D01*
X187789523Y-101588095D01*
X187789523Y-101730952D01*
X187813333Y-101778571D01*
X187837142Y-101802380D01*
X187884761Y-101826190D01*
X187956190Y-101826190D01*
X187503809Y-101826190D02*
X187551428Y-101802380D01*
X187575238Y-101754761D01*
X187575238Y-101326190D01*
X187099047Y-101492857D02*
X187099047Y-101826190D01*
X187313333Y-101492857D02*
X187313333Y-101754761D01*
X187289523Y-101802380D01*
X187241904Y-101826190D01*
X187170476Y-101826190D01*
X187122857Y-101802380D01*
X187099047Y-101778571D01*
X186860952Y-101826190D02*
X186860952Y-101492857D01*
X186860952Y-101540476D02*
X186837142Y-101516666D01*
X186789523Y-101492857D01*
X186718095Y-101492857D01*
X186670476Y-101516666D01*
X186646666Y-101564285D01*
X186646666Y-101826190D01*
X186646666Y-101564285D02*
X186622857Y-101516666D01*
X186575238Y-101492857D01*
X186503809Y-101492857D01*
X186456190Y-101516666D01*
X186432380Y-101564285D01*
X186432380Y-101826190D01*
X186194285Y-101492857D02*
X186194285Y-101826190D01*
X186194285Y-101540476D02*
X186170476Y-101516666D01*
X186122857Y-101492857D01*
X186051428Y-101492857D01*
X186003809Y-101516666D01*
X185980000Y-101564285D01*
X185980000Y-101826190D01*
X185765714Y-101802380D02*
X185718095Y-101826190D01*
X185622857Y-101826190D01*
X185575238Y-101802380D01*
X185551428Y-101754761D01*
X185551428Y-101730952D01*
X185575238Y-101683333D01*
X185622857Y-101659523D01*
X185694285Y-101659523D01*
X185741904Y-101635714D01*
X185765714Y-101588095D01*
X185765714Y-101564285D01*
X185741904Y-101516666D01*
X185694285Y-101492857D01*
X185622857Y-101492857D01*
X185575238Y-101516666D01*
D11*
X223520000Y-97790000D02*
X223520000Y-105410000D01*
X208280000Y-97790000D02*
X208280000Y-105410000D01*
X195580000Y-97790000D02*
X195580000Y-105410000D01*
X182880000Y-97790000D02*
X182880000Y-105410000D01*
D10*
X184328571Y-104480000D02*
X184352380Y-104456190D01*
X184376190Y-104384761D01*
X184376190Y-104337142D01*
X184352380Y-104265714D01*
X184304761Y-104218095D01*
X184257142Y-104194285D01*
X184161904Y-104170476D01*
X184090476Y-104170476D01*
X183995238Y-104194285D01*
X183947619Y-104218095D01*
X183900000Y-104265714D01*
X183876190Y-104337142D01*
X183876190Y-104384761D01*
X183900000Y-104456190D01*
X183923809Y-104480000D01*
X183876190Y-104789523D02*
X183876190Y-104884761D01*
X183900000Y-104932380D01*
X183947619Y-104980000D01*
X184042857Y-105003809D01*
X184209523Y-105003809D01*
X184304761Y-104980000D01*
X184352380Y-104932380D01*
X184376190Y-104884761D01*
X184376190Y-104789523D01*
X184352380Y-104741904D01*
X184304761Y-104694285D01*
X184209523Y-104670476D01*
X184042857Y-104670476D01*
X183947619Y-104694285D01*
X183900000Y-104741904D01*
X183876190Y-104789523D01*
X184376190Y-105456190D02*
X184376190Y-105218095D01*
X183876190Y-105218095D01*
X184376190Y-105884761D02*
X184376190Y-105599047D01*
X184376190Y-105741904D02*
X183876190Y-105741904D01*
X183947619Y-105694285D01*
X183995238Y-105646666D01*
X184019047Y-105599047D01*
X186868571Y-104480000D02*
X186892380Y-104456190D01*
X186916190Y-104384761D01*
X186916190Y-104337142D01*
X186892380Y-104265714D01*
X186844761Y-104218095D01*
X186797142Y-104194285D01*
X186701904Y-104170476D01*
X186630476Y-104170476D01*
X186535238Y-104194285D01*
X186487619Y-104218095D01*
X186440000Y-104265714D01*
X186416190Y-104337142D01*
X186416190Y-104384761D01*
X186440000Y-104456190D01*
X186463809Y-104480000D01*
X186416190Y-104789523D02*
X186416190Y-104884761D01*
X186440000Y-104932380D01*
X186487619Y-104980000D01*
X186582857Y-105003809D01*
X186749523Y-105003809D01*
X186844761Y-104980000D01*
X186892380Y-104932380D01*
X186916190Y-104884761D01*
X186916190Y-104789523D01*
X186892380Y-104741904D01*
X186844761Y-104694285D01*
X186749523Y-104670476D01*
X186582857Y-104670476D01*
X186487619Y-104694285D01*
X186440000Y-104741904D01*
X186416190Y-104789523D01*
X186916190Y-105456190D02*
X186916190Y-105218095D01*
X186416190Y-105218095D01*
X186463809Y-105599047D02*
X186440000Y-105622857D01*
X186416190Y-105670476D01*
X186416190Y-105789523D01*
X186440000Y-105837142D01*
X186463809Y-105860952D01*
X186511428Y-105884761D01*
X186559047Y-105884761D01*
X186630476Y-105860952D01*
X186916190Y-105575238D01*
X186916190Y-105884761D01*
X189408571Y-104480000D02*
X189432380Y-104456190D01*
X189456190Y-104384761D01*
X189456190Y-104337142D01*
X189432380Y-104265714D01*
X189384761Y-104218095D01*
X189337142Y-104194285D01*
X189241904Y-104170476D01*
X189170476Y-104170476D01*
X189075238Y-104194285D01*
X189027619Y-104218095D01*
X188980000Y-104265714D01*
X188956190Y-104337142D01*
X188956190Y-104384761D01*
X188980000Y-104456190D01*
X189003809Y-104480000D01*
X188956190Y-104789523D02*
X188956190Y-104884761D01*
X188980000Y-104932380D01*
X189027619Y-104980000D01*
X189122857Y-105003809D01*
X189289523Y-105003809D01*
X189384761Y-104980000D01*
X189432380Y-104932380D01*
X189456190Y-104884761D01*
X189456190Y-104789523D01*
X189432380Y-104741904D01*
X189384761Y-104694285D01*
X189289523Y-104670476D01*
X189122857Y-104670476D01*
X189027619Y-104694285D01*
X188980000Y-104741904D01*
X188956190Y-104789523D01*
X189456190Y-105456190D02*
X189456190Y-105218095D01*
X188956190Y-105218095D01*
X188956190Y-105575238D02*
X188956190Y-105884761D01*
X189146666Y-105718095D01*
X189146666Y-105789523D01*
X189170476Y-105837142D01*
X189194285Y-105860952D01*
X189241904Y-105884761D01*
X189360952Y-105884761D01*
X189408571Y-105860952D01*
X189432380Y-105837142D01*
X189456190Y-105789523D01*
X189456190Y-105646666D01*
X189432380Y-105599047D01*
X189408571Y-105575238D01*
X191948571Y-104480000D02*
X191972380Y-104456190D01*
X191996190Y-104384761D01*
X191996190Y-104337142D01*
X191972380Y-104265714D01*
X191924761Y-104218095D01*
X191877142Y-104194285D01*
X191781904Y-104170476D01*
X191710476Y-104170476D01*
X191615238Y-104194285D01*
X191567619Y-104218095D01*
X191520000Y-104265714D01*
X191496190Y-104337142D01*
X191496190Y-104384761D01*
X191520000Y-104456190D01*
X191543809Y-104480000D01*
X191496190Y-104789523D02*
X191496190Y-104884761D01*
X191520000Y-104932380D01*
X191567619Y-104980000D01*
X191662857Y-105003809D01*
X191829523Y-105003809D01*
X191924761Y-104980000D01*
X191972380Y-104932380D01*
X191996190Y-104884761D01*
X191996190Y-104789523D01*
X191972380Y-104741904D01*
X191924761Y-104694285D01*
X191829523Y-104670476D01*
X191662857Y-104670476D01*
X191567619Y-104694285D01*
X191520000Y-104741904D01*
X191496190Y-104789523D01*
X191996190Y-105456190D02*
X191996190Y-105218095D01*
X191496190Y-105218095D01*
X191662857Y-105837142D02*
X191996190Y-105837142D01*
X191472380Y-105718095D02*
X191829523Y-105599047D01*
X191829523Y-105908571D01*
X194488571Y-104480000D02*
X194512380Y-104456190D01*
X194536190Y-104384761D01*
X194536190Y-104337142D01*
X194512380Y-104265714D01*
X194464761Y-104218095D01*
X194417142Y-104194285D01*
X194321904Y-104170476D01*
X194250476Y-104170476D01*
X194155238Y-104194285D01*
X194107619Y-104218095D01*
X194060000Y-104265714D01*
X194036190Y-104337142D01*
X194036190Y-104384761D01*
X194060000Y-104456190D01*
X194083809Y-104480000D01*
X194036190Y-104789523D02*
X194036190Y-104884761D01*
X194060000Y-104932380D01*
X194107619Y-104980000D01*
X194202857Y-105003809D01*
X194369523Y-105003809D01*
X194464761Y-104980000D01*
X194512380Y-104932380D01*
X194536190Y-104884761D01*
X194536190Y-104789523D01*
X194512380Y-104741904D01*
X194464761Y-104694285D01*
X194369523Y-104670476D01*
X194202857Y-104670476D01*
X194107619Y-104694285D01*
X194060000Y-104741904D01*
X194036190Y-104789523D01*
X194536190Y-105456190D02*
X194536190Y-105218095D01*
X194036190Y-105218095D01*
X194036190Y-105860952D02*
X194036190Y-105622857D01*
X194274285Y-105599047D01*
X194250476Y-105622857D01*
X194226666Y-105670476D01*
X194226666Y-105789523D01*
X194250476Y-105837142D01*
X194274285Y-105860952D01*
X194321904Y-105884761D01*
X194440952Y-105884761D01*
X194488571Y-105860952D01*
X194512380Y-105837142D01*
X194536190Y-105789523D01*
X194536190Y-105670476D01*
X194512380Y-105622857D01*
X194488571Y-105599047D01*
X197076190Y-104313333D02*
X196838095Y-104146666D01*
X197076190Y-104027619D02*
X196576190Y-104027619D01*
X196576190Y-104218095D01*
X196600000Y-104265714D01*
X196623809Y-104289523D01*
X196671428Y-104313333D01*
X196742857Y-104313333D01*
X196790476Y-104289523D01*
X196814285Y-104265714D01*
X196838095Y-104218095D01*
X196838095Y-104027619D01*
X196576190Y-104622857D02*
X196576190Y-104718095D01*
X196600000Y-104765714D01*
X196647619Y-104813333D01*
X196742857Y-104837142D01*
X196909523Y-104837142D01*
X197004761Y-104813333D01*
X197052380Y-104765714D01*
X197076190Y-104718095D01*
X197076190Y-104622857D01*
X197052380Y-104575238D01*
X197004761Y-104527619D01*
X196909523Y-104503809D01*
X196742857Y-104503809D01*
X196647619Y-104527619D01*
X196600000Y-104575238D01*
X196576190Y-104622857D01*
X196576190Y-105003809D02*
X197076190Y-105122857D01*
X196719047Y-105218095D01*
X197076190Y-105313333D01*
X196576190Y-105432380D01*
X196576190Y-105860952D02*
X196576190Y-105622857D01*
X196814285Y-105599047D01*
X196790476Y-105622857D01*
X196766666Y-105670476D01*
X196766666Y-105789523D01*
X196790476Y-105837142D01*
X196814285Y-105860952D01*
X196861904Y-105884761D01*
X196980952Y-105884761D01*
X197028571Y-105860952D01*
X197052380Y-105837142D01*
X197076190Y-105789523D01*
X197076190Y-105670476D01*
X197052380Y-105622857D01*
X197028571Y-105599047D01*
X199616190Y-104313333D02*
X199378095Y-104146666D01*
X199616190Y-104027619D02*
X199116190Y-104027619D01*
X199116190Y-104218095D01*
X199140000Y-104265714D01*
X199163809Y-104289523D01*
X199211428Y-104313333D01*
X199282857Y-104313333D01*
X199330476Y-104289523D01*
X199354285Y-104265714D01*
X199378095Y-104218095D01*
X199378095Y-104027619D01*
X199116190Y-104622857D02*
X199116190Y-104718095D01*
X199140000Y-104765714D01*
X199187619Y-104813333D01*
X199282857Y-104837142D01*
X199449523Y-104837142D01*
X199544761Y-104813333D01*
X199592380Y-104765714D01*
X199616190Y-104718095D01*
X199616190Y-104622857D01*
X199592380Y-104575238D01*
X199544761Y-104527619D01*
X199449523Y-104503809D01*
X199282857Y-104503809D01*
X199187619Y-104527619D01*
X199140000Y-104575238D01*
X199116190Y-104622857D01*
X199116190Y-105003809D02*
X199616190Y-105122857D01*
X199259047Y-105218095D01*
X199616190Y-105313333D01*
X199116190Y-105432380D01*
X199282857Y-105837142D02*
X199616190Y-105837142D01*
X199092380Y-105718095D02*
X199449523Y-105599047D01*
X199449523Y-105908571D01*
X202156190Y-104313333D02*
X201918095Y-104146666D01*
X202156190Y-104027619D02*
X201656190Y-104027619D01*
X201656190Y-104218095D01*
X201680000Y-104265714D01*
X201703809Y-104289523D01*
X201751428Y-104313333D01*
X201822857Y-104313333D01*
X201870476Y-104289523D01*
X201894285Y-104265714D01*
X201918095Y-104218095D01*
X201918095Y-104027619D01*
X201656190Y-104622857D02*
X201656190Y-104718095D01*
X201680000Y-104765714D01*
X201727619Y-104813333D01*
X201822857Y-104837142D01*
X201989523Y-104837142D01*
X202084761Y-104813333D01*
X202132380Y-104765714D01*
X202156190Y-104718095D01*
X202156190Y-104622857D01*
X202132380Y-104575238D01*
X202084761Y-104527619D01*
X201989523Y-104503809D01*
X201822857Y-104503809D01*
X201727619Y-104527619D01*
X201680000Y-104575238D01*
X201656190Y-104622857D01*
X201656190Y-105003809D02*
X202156190Y-105122857D01*
X201799047Y-105218095D01*
X202156190Y-105313333D01*
X201656190Y-105432380D01*
X201656190Y-105575238D02*
X201656190Y-105884761D01*
X201846666Y-105718095D01*
X201846666Y-105789523D01*
X201870476Y-105837142D01*
X201894285Y-105860952D01*
X201941904Y-105884761D01*
X202060952Y-105884761D01*
X202108571Y-105860952D01*
X202132380Y-105837142D01*
X202156190Y-105789523D01*
X202156190Y-105646666D01*
X202132380Y-105599047D01*
X202108571Y-105575238D01*
X204696190Y-104313333D02*
X204458095Y-104146666D01*
X204696190Y-104027619D02*
X204196190Y-104027619D01*
X204196190Y-104218095D01*
X204220000Y-104265714D01*
X204243809Y-104289523D01*
X204291428Y-104313333D01*
X204362857Y-104313333D01*
X204410476Y-104289523D01*
X204434285Y-104265714D01*
X204458095Y-104218095D01*
X204458095Y-104027619D01*
X204196190Y-104622857D02*
X204196190Y-104718095D01*
X204220000Y-104765714D01*
X204267619Y-104813333D01*
X204362857Y-104837142D01*
X204529523Y-104837142D01*
X204624761Y-104813333D01*
X204672380Y-104765714D01*
X204696190Y-104718095D01*
X204696190Y-104622857D01*
X204672380Y-104575238D01*
X204624761Y-104527619D01*
X204529523Y-104503809D01*
X204362857Y-104503809D01*
X204267619Y-104527619D01*
X204220000Y-104575238D01*
X204196190Y-104622857D01*
X204196190Y-105003809D02*
X204696190Y-105122857D01*
X204339047Y-105218095D01*
X204696190Y-105313333D01*
X204196190Y-105432380D01*
X204243809Y-105599047D02*
X204220000Y-105622857D01*
X204196190Y-105670476D01*
X204196190Y-105789523D01*
X204220000Y-105837142D01*
X204243809Y-105860952D01*
X204291428Y-105884761D01*
X204339047Y-105884761D01*
X204410476Y-105860952D01*
X204696190Y-105575238D01*
X204696190Y-105884761D01*
X207236190Y-104313333D02*
X206998095Y-104146666D01*
X207236190Y-104027619D02*
X206736190Y-104027619D01*
X206736190Y-104218095D01*
X206760000Y-104265714D01*
X206783809Y-104289523D01*
X206831428Y-104313333D01*
X206902857Y-104313333D01*
X206950476Y-104289523D01*
X206974285Y-104265714D01*
X206998095Y-104218095D01*
X206998095Y-104027619D01*
X206736190Y-104622857D02*
X206736190Y-104718095D01*
X206760000Y-104765714D01*
X206807619Y-104813333D01*
X206902857Y-104837142D01*
X207069523Y-104837142D01*
X207164761Y-104813333D01*
X207212380Y-104765714D01*
X207236190Y-104718095D01*
X207236190Y-104622857D01*
X207212380Y-104575238D01*
X207164761Y-104527619D01*
X207069523Y-104503809D01*
X206902857Y-104503809D01*
X206807619Y-104527619D01*
X206760000Y-104575238D01*
X206736190Y-104622857D01*
X206736190Y-105003809D02*
X207236190Y-105122857D01*
X206879047Y-105218095D01*
X207236190Y-105313333D01*
X206736190Y-105432380D01*
X207236190Y-105884761D02*
X207236190Y-105599047D01*
X207236190Y-105741904D02*
X206736190Y-105741904D01*
X206807619Y-105694285D01*
X206855238Y-105646666D01*
X206879047Y-105599047D01*
X214856190Y-104456190D02*
X214618095Y-104289523D01*
X214856190Y-104170476D02*
X214356190Y-104170476D01*
X214356190Y-104360952D01*
X214380000Y-104408571D01*
X214403809Y-104432380D01*
X214451428Y-104456190D01*
X214522857Y-104456190D01*
X214570476Y-104432380D01*
X214594285Y-104408571D01*
X214618095Y-104360952D01*
X214618095Y-104170476D01*
X214594285Y-104670476D02*
X214594285Y-104837142D01*
X214856190Y-104908571D02*
X214856190Y-104670476D01*
X214356190Y-104670476D01*
X214356190Y-104908571D01*
X214856190Y-105122857D02*
X214356190Y-105122857D01*
X214356190Y-105241904D01*
X214380000Y-105313333D01*
X214427619Y-105360952D01*
X214475238Y-105384761D01*
X214570476Y-105408571D01*
X214641904Y-105408571D01*
X214737142Y-105384761D01*
X214784761Y-105360952D01*
X214832380Y-105313333D01*
X214856190Y-105241904D01*
X214856190Y-105122857D01*
X214856190Y-105884761D02*
X214856190Y-105599047D01*
X214856190Y-105741904D02*
X214356190Y-105741904D01*
X214427619Y-105694285D01*
X214475238Y-105646666D01*
X214499047Y-105599047D01*
X211840000Y-103456190D02*
X211816190Y-103408571D01*
X211816190Y-103337142D01*
X211840000Y-103265714D01*
X211887619Y-103218095D01*
X211935238Y-103194285D01*
X212030476Y-103170476D01*
X212101904Y-103170476D01*
X212197142Y-103194285D01*
X212244761Y-103218095D01*
X212292380Y-103265714D01*
X212316190Y-103337142D01*
X212316190Y-103384761D01*
X212292380Y-103456190D01*
X212268571Y-103480000D01*
X212101904Y-103480000D01*
X212101904Y-103384761D01*
X212316190Y-103980000D02*
X212078095Y-103813333D01*
X212316190Y-103694285D02*
X211816190Y-103694285D01*
X211816190Y-103884761D01*
X211840000Y-103932380D01*
X211863809Y-103956190D01*
X211911428Y-103980000D01*
X211982857Y-103980000D01*
X212030476Y-103956190D01*
X212054285Y-103932380D01*
X212078095Y-103884761D01*
X212078095Y-103694285D01*
X212054285Y-104194285D02*
X212054285Y-104360952D01*
X212316190Y-104432380D02*
X212316190Y-104194285D01*
X211816190Y-104194285D01*
X211816190Y-104432380D01*
X212054285Y-104646666D02*
X212054285Y-104813333D01*
X212316190Y-104884761D02*
X212316190Y-104646666D01*
X211816190Y-104646666D01*
X211816190Y-104884761D01*
X212316190Y-105099047D02*
X211816190Y-105099047D01*
X212316190Y-105384761D01*
X211816190Y-105384761D01*
X212316190Y-105884761D02*
X212316190Y-105599047D01*
X212316190Y-105741904D02*
X211816190Y-105741904D01*
X211887619Y-105694285D01*
X211935238Y-105646666D01*
X211959047Y-105599047D01*
X209514285Y-103908571D02*
X209538095Y-103980000D01*
X209561904Y-104003809D01*
X209609523Y-104027619D01*
X209680952Y-104027619D01*
X209728571Y-104003809D01*
X209752380Y-103980000D01*
X209776190Y-103932380D01*
X209776190Y-103741904D01*
X209276190Y-103741904D01*
X209276190Y-103908571D01*
X209300000Y-103956190D01*
X209323809Y-103980000D01*
X209371428Y-104003809D01*
X209419047Y-104003809D01*
X209466666Y-103980000D01*
X209490476Y-103956190D01*
X209514285Y-103908571D01*
X209514285Y-103741904D01*
X209776190Y-104480000D02*
X209776190Y-104241904D01*
X209276190Y-104241904D01*
X209276190Y-104646666D02*
X209680952Y-104646666D01*
X209728571Y-104670476D01*
X209752380Y-104694285D01*
X209776190Y-104741904D01*
X209776190Y-104837142D01*
X209752380Y-104884761D01*
X209728571Y-104908571D01*
X209680952Y-104932380D01*
X209276190Y-104932380D01*
X209514285Y-105170476D02*
X209514285Y-105337142D01*
X209776190Y-105408571D02*
X209776190Y-105170476D01*
X209276190Y-105170476D01*
X209276190Y-105408571D01*
X209776190Y-105884761D02*
X209776190Y-105599047D01*
X209776190Y-105741904D02*
X209276190Y-105741904D01*
X209347619Y-105694285D01*
X209395238Y-105646666D01*
X209419047Y-105599047D01*
X217134285Y-103908571D02*
X217158095Y-103980000D01*
X217181904Y-104003809D01*
X217229523Y-104027619D01*
X217300952Y-104027619D01*
X217348571Y-104003809D01*
X217372380Y-103980000D01*
X217396190Y-103932380D01*
X217396190Y-103741904D01*
X216896190Y-103741904D01*
X216896190Y-103908571D01*
X216920000Y-103956190D01*
X216943809Y-103980000D01*
X216991428Y-104003809D01*
X217039047Y-104003809D01*
X217086666Y-103980000D01*
X217110476Y-103956190D01*
X217134285Y-103908571D01*
X217134285Y-103741904D01*
X217396190Y-104480000D02*
X217396190Y-104241904D01*
X216896190Y-104241904D01*
X216896190Y-104646666D02*
X217300952Y-104646666D01*
X217348571Y-104670476D01*
X217372380Y-104694285D01*
X217396190Y-104741904D01*
X217396190Y-104837142D01*
X217372380Y-104884761D01*
X217348571Y-104908571D01*
X217300952Y-104932380D01*
X216896190Y-104932380D01*
X217134285Y-105170476D02*
X217134285Y-105337142D01*
X217396190Y-105408571D02*
X217396190Y-105170476D01*
X216896190Y-105170476D01*
X216896190Y-105408571D01*
X216943809Y-105599047D02*
X216920000Y-105622857D01*
X216896190Y-105670476D01*
X216896190Y-105789523D01*
X216920000Y-105837142D01*
X216943809Y-105860952D01*
X216991428Y-105884761D01*
X217039047Y-105884761D01*
X217110476Y-105860952D01*
X217396190Y-105575238D01*
X217396190Y-105884761D01*
X219460000Y-103456190D02*
X219436190Y-103408571D01*
X219436190Y-103337142D01*
X219460000Y-103265714D01*
X219507619Y-103218095D01*
X219555238Y-103194285D01*
X219650476Y-103170476D01*
X219721904Y-103170476D01*
X219817142Y-103194285D01*
X219864761Y-103218095D01*
X219912380Y-103265714D01*
X219936190Y-103337142D01*
X219936190Y-103384761D01*
X219912380Y-103456190D01*
X219888571Y-103480000D01*
X219721904Y-103480000D01*
X219721904Y-103384761D01*
X219936190Y-103980000D02*
X219698095Y-103813333D01*
X219936190Y-103694285D02*
X219436190Y-103694285D01*
X219436190Y-103884761D01*
X219460000Y-103932380D01*
X219483809Y-103956190D01*
X219531428Y-103980000D01*
X219602857Y-103980000D01*
X219650476Y-103956190D01*
X219674285Y-103932380D01*
X219698095Y-103884761D01*
X219698095Y-103694285D01*
X219674285Y-104194285D02*
X219674285Y-104360952D01*
X219936190Y-104432380D02*
X219936190Y-104194285D01*
X219436190Y-104194285D01*
X219436190Y-104432380D01*
X219674285Y-104646666D02*
X219674285Y-104813333D01*
X219936190Y-104884761D02*
X219936190Y-104646666D01*
X219436190Y-104646666D01*
X219436190Y-104884761D01*
X219936190Y-105099047D02*
X219436190Y-105099047D01*
X219936190Y-105384761D01*
X219436190Y-105384761D01*
X219483809Y-105599047D02*
X219460000Y-105622857D01*
X219436190Y-105670476D01*
X219436190Y-105789523D01*
X219460000Y-105837142D01*
X219483809Y-105860952D01*
X219531428Y-105884761D01*
X219579047Y-105884761D01*
X219650476Y-105860952D01*
X219936190Y-105575238D01*
X219936190Y-105884761D01*
X222476190Y-104456190D02*
X222238095Y-104289523D01*
X222476190Y-104170476D02*
X221976190Y-104170476D01*
X221976190Y-104360952D01*
X222000000Y-104408571D01*
X222023809Y-104432380D01*
X222071428Y-104456190D01*
X222142857Y-104456190D01*
X222190476Y-104432380D01*
X222214285Y-104408571D01*
X222238095Y-104360952D01*
X222238095Y-104170476D01*
X222214285Y-104670476D02*
X222214285Y-104837142D01*
X222476190Y-104908571D02*
X222476190Y-104670476D01*
X221976190Y-104670476D01*
X221976190Y-104908571D01*
X222476190Y-105122857D02*
X221976190Y-105122857D01*
X221976190Y-105241904D01*
X222000000Y-105313333D01*
X222047619Y-105360952D01*
X222095238Y-105384761D01*
X222190476Y-105408571D01*
X222261904Y-105408571D01*
X222357142Y-105384761D01*
X222404761Y-105360952D01*
X222452380Y-105313333D01*
X222476190Y-105241904D01*
X222476190Y-105122857D01*
X222023809Y-105599047D02*
X222000000Y-105622857D01*
X221976190Y-105670476D01*
X221976190Y-105789523D01*
X222000000Y-105837142D01*
X222023809Y-105860952D01*
X222071428Y-105884761D01*
X222119047Y-105884761D01*
X222190476Y-105860952D01*
X222476190Y-105575238D01*
X222476190Y-105884761D01*
X224968571Y-104932380D02*
X224992380Y-104908571D01*
X225016190Y-104837142D01*
X225016190Y-104789523D01*
X224992380Y-104718095D01*
X224944761Y-104670476D01*
X224897142Y-104646666D01*
X224801904Y-104622857D01*
X224730476Y-104622857D01*
X224635238Y-104646666D01*
X224587619Y-104670476D01*
X224540000Y-104718095D01*
X224516190Y-104789523D01*
X224516190Y-104837142D01*
X224540000Y-104908571D01*
X224563809Y-104932380D01*
X224992380Y-105122857D02*
X225016190Y-105194285D01*
X225016190Y-105313333D01*
X224992380Y-105360952D01*
X224968571Y-105384761D01*
X224920952Y-105408571D01*
X224873333Y-105408571D01*
X224825714Y-105384761D01*
X224801904Y-105360952D01*
X224778095Y-105313333D01*
X224754285Y-105218095D01*
X224730476Y-105170476D01*
X224706666Y-105146666D01*
X224659047Y-105122857D01*
X224611428Y-105122857D01*
X224563809Y-105146666D01*
X224540000Y-105170476D01*
X224516190Y-105218095D01*
X224516190Y-105337142D01*
X224540000Y-105408571D01*
X225016190Y-105884761D02*
X225016190Y-105599047D01*
X225016190Y-105741904D02*
X224516190Y-105741904D01*
X224587619Y-105694285D01*
X224635238Y-105646666D01*
X224659047Y-105599047D01*
X227508571Y-104932380D02*
X227532380Y-104908571D01*
X227556190Y-104837142D01*
X227556190Y-104789523D01*
X227532380Y-104718095D01*
X227484761Y-104670476D01*
X227437142Y-104646666D01*
X227341904Y-104622857D01*
X227270476Y-104622857D01*
X227175238Y-104646666D01*
X227127619Y-104670476D01*
X227080000Y-104718095D01*
X227056190Y-104789523D01*
X227056190Y-104837142D01*
X227080000Y-104908571D01*
X227103809Y-104932380D01*
X227532380Y-105122857D02*
X227556190Y-105194285D01*
X227556190Y-105313333D01*
X227532380Y-105360952D01*
X227508571Y-105384761D01*
X227460952Y-105408571D01*
X227413333Y-105408571D01*
X227365714Y-105384761D01*
X227341904Y-105360952D01*
X227318095Y-105313333D01*
X227294285Y-105218095D01*
X227270476Y-105170476D01*
X227246666Y-105146666D01*
X227199047Y-105122857D01*
X227151428Y-105122857D01*
X227103809Y-105146666D01*
X227080000Y-105170476D01*
X227056190Y-105218095D01*
X227056190Y-105337142D01*
X227080000Y-105408571D01*
X227103809Y-105599047D02*
X227080000Y-105622857D01*
X227056190Y-105670476D01*
X227056190Y-105789523D01*
X227080000Y-105837142D01*
X227103809Y-105860952D01*
X227151428Y-105884761D01*
X227199047Y-105884761D01*
X227270476Y-105860952D01*
X227556190Y-105575238D01*
X227556190Y-105884761D01*
X230048571Y-104932380D02*
X230072380Y-104908571D01*
X230096190Y-104837142D01*
X230096190Y-104789523D01*
X230072380Y-104718095D01*
X230024761Y-104670476D01*
X229977142Y-104646666D01*
X229881904Y-104622857D01*
X229810476Y-104622857D01*
X229715238Y-104646666D01*
X229667619Y-104670476D01*
X229620000Y-104718095D01*
X229596190Y-104789523D01*
X229596190Y-104837142D01*
X229620000Y-104908571D01*
X229643809Y-104932380D01*
X230072380Y-105122857D02*
X230096190Y-105194285D01*
X230096190Y-105313333D01*
X230072380Y-105360952D01*
X230048571Y-105384761D01*
X230000952Y-105408571D01*
X229953333Y-105408571D01*
X229905714Y-105384761D01*
X229881904Y-105360952D01*
X229858095Y-105313333D01*
X229834285Y-105218095D01*
X229810476Y-105170476D01*
X229786666Y-105146666D01*
X229739047Y-105122857D01*
X229691428Y-105122857D01*
X229643809Y-105146666D01*
X229620000Y-105170476D01*
X229596190Y-105218095D01*
X229596190Y-105337142D01*
X229620000Y-105408571D01*
X229596190Y-105575238D02*
X229596190Y-105884761D01*
X229786666Y-105718095D01*
X229786666Y-105789523D01*
X229810476Y-105837142D01*
X229834285Y-105860952D01*
X229881904Y-105884761D01*
X230000952Y-105884761D01*
X230048571Y-105860952D01*
X230072380Y-105837142D01*
X230096190Y-105789523D01*
X230096190Y-105646666D01*
X230072380Y-105599047D01*
X230048571Y-105575238D01*
X232588571Y-104932380D02*
X232612380Y-104908571D01*
X232636190Y-104837142D01*
X232636190Y-104789523D01*
X232612380Y-104718095D01*
X232564761Y-104670476D01*
X232517142Y-104646666D01*
X232421904Y-104622857D01*
X232350476Y-104622857D01*
X232255238Y-104646666D01*
X232207619Y-104670476D01*
X232160000Y-104718095D01*
X232136190Y-104789523D01*
X232136190Y-104837142D01*
X232160000Y-104908571D01*
X232183809Y-104932380D01*
X232612380Y-105122857D02*
X232636190Y-105194285D01*
X232636190Y-105313333D01*
X232612380Y-105360952D01*
X232588571Y-105384761D01*
X232540952Y-105408571D01*
X232493333Y-105408571D01*
X232445714Y-105384761D01*
X232421904Y-105360952D01*
X232398095Y-105313333D01*
X232374285Y-105218095D01*
X232350476Y-105170476D01*
X232326666Y-105146666D01*
X232279047Y-105122857D01*
X232231428Y-105122857D01*
X232183809Y-105146666D01*
X232160000Y-105170476D01*
X232136190Y-105218095D01*
X232136190Y-105337142D01*
X232160000Y-105408571D01*
X232302857Y-105837142D02*
X232636190Y-105837142D01*
X232112380Y-105718095D02*
X232469523Y-105599047D01*
X232469523Y-105908571D01*
X235128571Y-104932380D02*
X235152380Y-104908571D01*
X235176190Y-104837142D01*
X235176190Y-104789523D01*
X235152380Y-104718095D01*
X235104761Y-104670476D01*
X235057142Y-104646666D01*
X234961904Y-104622857D01*
X234890476Y-104622857D01*
X234795238Y-104646666D01*
X234747619Y-104670476D01*
X234700000Y-104718095D01*
X234676190Y-104789523D01*
X234676190Y-104837142D01*
X234700000Y-104908571D01*
X234723809Y-104932380D01*
X235152380Y-105122857D02*
X235176190Y-105194285D01*
X235176190Y-105313333D01*
X235152380Y-105360952D01*
X235128571Y-105384761D01*
X235080952Y-105408571D01*
X235033333Y-105408571D01*
X234985714Y-105384761D01*
X234961904Y-105360952D01*
X234938095Y-105313333D01*
X234914285Y-105218095D01*
X234890476Y-105170476D01*
X234866666Y-105146666D01*
X234819047Y-105122857D01*
X234771428Y-105122857D01*
X234723809Y-105146666D01*
X234700000Y-105170476D01*
X234676190Y-105218095D01*
X234676190Y-105337142D01*
X234700000Y-105408571D01*
X234676190Y-105860952D02*
X234676190Y-105622857D01*
X234914285Y-105599047D01*
X234890476Y-105622857D01*
X234866666Y-105670476D01*
X234866666Y-105789523D01*
X234890476Y-105837142D01*
X234914285Y-105860952D01*
X234961904Y-105884761D01*
X235080952Y-105884761D01*
X235128571Y-105860952D01*
X235152380Y-105837142D01*
X235176190Y-105789523D01*
X235176190Y-105670476D01*
X235152380Y-105622857D01*
X235128571Y-105599047D01*
X237668571Y-104932380D02*
X237692380Y-104908571D01*
X237716190Y-104837142D01*
X237716190Y-104789523D01*
X237692380Y-104718095D01*
X237644761Y-104670476D01*
X237597142Y-104646666D01*
X237501904Y-104622857D01*
X237430476Y-104622857D01*
X237335238Y-104646666D01*
X237287619Y-104670476D01*
X237240000Y-104718095D01*
X237216190Y-104789523D01*
X237216190Y-104837142D01*
X237240000Y-104908571D01*
X237263809Y-104932380D01*
X237692380Y-105122857D02*
X237716190Y-105194285D01*
X237716190Y-105313333D01*
X237692380Y-105360952D01*
X237668571Y-105384761D01*
X237620952Y-105408571D01*
X237573333Y-105408571D01*
X237525714Y-105384761D01*
X237501904Y-105360952D01*
X237478095Y-105313333D01*
X237454285Y-105218095D01*
X237430476Y-105170476D01*
X237406666Y-105146666D01*
X237359047Y-105122857D01*
X237311428Y-105122857D01*
X237263809Y-105146666D01*
X237240000Y-105170476D01*
X237216190Y-105218095D01*
X237216190Y-105337142D01*
X237240000Y-105408571D01*
X237216190Y-105837142D02*
X237216190Y-105741904D01*
X237240000Y-105694285D01*
X237263809Y-105670476D01*
X237335238Y-105622857D01*
X237430476Y-105599047D01*
X237620952Y-105599047D01*
X237668571Y-105622857D01*
X237692380Y-105646666D01*
X237716190Y-105694285D01*
X237716190Y-105789523D01*
X237692380Y-105837142D01*
X237668571Y-105860952D01*
X237620952Y-105884761D01*
X237501904Y-105884761D01*
X237454285Y-105860952D01*
X237430476Y-105837142D01*
X237406666Y-105789523D01*
X237406666Y-105694285D01*
X237430476Y-105646666D01*
X237454285Y-105622857D01*
X237501904Y-105599047D01*
X240208571Y-104932380D02*
X240232380Y-104908571D01*
X240256190Y-104837142D01*
X240256190Y-104789523D01*
X240232380Y-104718095D01*
X240184761Y-104670476D01*
X240137142Y-104646666D01*
X240041904Y-104622857D01*
X239970476Y-104622857D01*
X239875238Y-104646666D01*
X239827619Y-104670476D01*
X239780000Y-104718095D01*
X239756190Y-104789523D01*
X239756190Y-104837142D01*
X239780000Y-104908571D01*
X239803809Y-104932380D01*
X240232380Y-105122857D02*
X240256190Y-105194285D01*
X240256190Y-105313333D01*
X240232380Y-105360952D01*
X240208571Y-105384761D01*
X240160952Y-105408571D01*
X240113333Y-105408571D01*
X240065714Y-105384761D01*
X240041904Y-105360952D01*
X240018095Y-105313333D01*
X239994285Y-105218095D01*
X239970476Y-105170476D01*
X239946666Y-105146666D01*
X239899047Y-105122857D01*
X239851428Y-105122857D01*
X239803809Y-105146666D01*
X239780000Y-105170476D01*
X239756190Y-105218095D01*
X239756190Y-105337142D01*
X239780000Y-105408571D01*
X239756190Y-105575238D02*
X239756190Y-105908571D01*
X240256190Y-105694285D01*
X242748571Y-104932380D02*
X242772380Y-104908571D01*
X242796190Y-104837142D01*
X242796190Y-104789523D01*
X242772380Y-104718095D01*
X242724761Y-104670476D01*
X242677142Y-104646666D01*
X242581904Y-104622857D01*
X242510476Y-104622857D01*
X242415238Y-104646666D01*
X242367619Y-104670476D01*
X242320000Y-104718095D01*
X242296190Y-104789523D01*
X242296190Y-104837142D01*
X242320000Y-104908571D01*
X242343809Y-104932380D01*
X242772380Y-105122857D02*
X242796190Y-105194285D01*
X242796190Y-105313333D01*
X242772380Y-105360952D01*
X242748571Y-105384761D01*
X242700952Y-105408571D01*
X242653333Y-105408571D01*
X242605714Y-105384761D01*
X242581904Y-105360952D01*
X242558095Y-105313333D01*
X242534285Y-105218095D01*
X242510476Y-105170476D01*
X242486666Y-105146666D01*
X242439047Y-105122857D01*
X242391428Y-105122857D01*
X242343809Y-105146666D01*
X242320000Y-105170476D01*
X242296190Y-105218095D01*
X242296190Y-105337142D01*
X242320000Y-105408571D01*
X242510476Y-105694285D02*
X242486666Y-105646666D01*
X242462857Y-105622857D01*
X242415238Y-105599047D01*
X242391428Y-105599047D01*
X242343809Y-105622857D01*
X242320000Y-105646666D01*
X242296190Y-105694285D01*
X242296190Y-105789523D01*
X242320000Y-105837142D01*
X242343809Y-105860952D01*
X242391428Y-105884761D01*
X242415238Y-105884761D01*
X242462857Y-105860952D01*
X242486666Y-105837142D01*
X242510476Y-105789523D01*
X242510476Y-105694285D01*
X242534285Y-105646666D01*
X242558095Y-105622857D01*
X242605714Y-105599047D01*
X242700952Y-105599047D01*
X242748571Y-105622857D01*
X242772380Y-105646666D01*
X242796190Y-105694285D01*
X242796190Y-105789523D01*
X242772380Y-105837142D01*
X242748571Y-105860952D01*
X242700952Y-105884761D01*
X242605714Y-105884761D01*
X242558095Y-105860952D01*
X242534285Y-105837142D01*
X242510476Y-105789523D01*
X184328571Y-97624761D02*
X184352380Y-97600952D01*
X184376190Y-97529523D01*
X184376190Y-97481904D01*
X184352380Y-97410476D01*
X184304761Y-97362857D01*
X184257142Y-97339047D01*
X184161904Y-97315238D01*
X184090476Y-97315238D01*
X183995238Y-97339047D01*
X183947619Y-97362857D01*
X183900000Y-97410476D01*
X183876190Y-97481904D01*
X183876190Y-97529523D01*
X183900000Y-97600952D01*
X183923809Y-97624761D01*
X183876190Y-97934285D02*
X183876190Y-98029523D01*
X183900000Y-98077142D01*
X183947619Y-98124761D01*
X184042857Y-98148571D01*
X184209523Y-98148571D01*
X184304761Y-98124761D01*
X184352380Y-98077142D01*
X184376190Y-98029523D01*
X184376190Y-97934285D01*
X184352380Y-97886666D01*
X184304761Y-97839047D01*
X184209523Y-97815238D01*
X184042857Y-97815238D01*
X183947619Y-97839047D01*
X183900000Y-97886666D01*
X183876190Y-97934285D01*
X184376190Y-98600952D02*
X184376190Y-98362857D01*
X183876190Y-98362857D01*
X184376190Y-99029523D02*
X184376190Y-98743809D01*
X184376190Y-98886666D02*
X183876190Y-98886666D01*
X183947619Y-98839047D01*
X183995238Y-98791428D01*
X184019047Y-98743809D01*
X183876190Y-99339047D02*
X183876190Y-99386666D01*
X183900000Y-99434285D01*
X183923809Y-99458095D01*
X183971428Y-99481904D01*
X184066666Y-99505714D01*
X184185714Y-99505714D01*
X184280952Y-99481904D01*
X184328571Y-99458095D01*
X184352380Y-99434285D01*
X184376190Y-99386666D01*
X184376190Y-99339047D01*
X184352380Y-99291428D01*
X184328571Y-99267619D01*
X184280952Y-99243809D01*
X184185714Y-99220000D01*
X184066666Y-99220000D01*
X183971428Y-99243809D01*
X183923809Y-99267619D01*
X183900000Y-99291428D01*
X183876190Y-99339047D01*
X186868571Y-97624761D02*
X186892380Y-97600952D01*
X186916190Y-97529523D01*
X186916190Y-97481904D01*
X186892380Y-97410476D01*
X186844761Y-97362857D01*
X186797142Y-97339047D01*
X186701904Y-97315238D01*
X186630476Y-97315238D01*
X186535238Y-97339047D01*
X186487619Y-97362857D01*
X186440000Y-97410476D01*
X186416190Y-97481904D01*
X186416190Y-97529523D01*
X186440000Y-97600952D01*
X186463809Y-97624761D01*
X186416190Y-97934285D02*
X186416190Y-98029523D01*
X186440000Y-98077142D01*
X186487619Y-98124761D01*
X186582857Y-98148571D01*
X186749523Y-98148571D01*
X186844761Y-98124761D01*
X186892380Y-98077142D01*
X186916190Y-98029523D01*
X186916190Y-97934285D01*
X186892380Y-97886666D01*
X186844761Y-97839047D01*
X186749523Y-97815238D01*
X186582857Y-97815238D01*
X186487619Y-97839047D01*
X186440000Y-97886666D01*
X186416190Y-97934285D01*
X186916190Y-98600952D02*
X186916190Y-98362857D01*
X186416190Y-98362857D01*
X186916190Y-98791428D02*
X186916190Y-98886666D01*
X186892380Y-98934285D01*
X186868571Y-98958095D01*
X186797142Y-99005714D01*
X186701904Y-99029523D01*
X186511428Y-99029523D01*
X186463809Y-99005714D01*
X186440000Y-98981904D01*
X186416190Y-98934285D01*
X186416190Y-98839047D01*
X186440000Y-98791428D01*
X186463809Y-98767619D01*
X186511428Y-98743809D01*
X186630476Y-98743809D01*
X186678095Y-98767619D01*
X186701904Y-98791428D01*
X186725714Y-98839047D01*
X186725714Y-98934285D01*
X186701904Y-98981904D01*
X186678095Y-99005714D01*
X186630476Y-99029523D01*
X189408571Y-97624761D02*
X189432380Y-97600952D01*
X189456190Y-97529523D01*
X189456190Y-97481904D01*
X189432380Y-97410476D01*
X189384761Y-97362857D01*
X189337142Y-97339047D01*
X189241904Y-97315238D01*
X189170476Y-97315238D01*
X189075238Y-97339047D01*
X189027619Y-97362857D01*
X188980000Y-97410476D01*
X188956190Y-97481904D01*
X188956190Y-97529523D01*
X188980000Y-97600952D01*
X189003809Y-97624761D01*
X188956190Y-97934285D02*
X188956190Y-98029523D01*
X188980000Y-98077142D01*
X189027619Y-98124761D01*
X189122857Y-98148571D01*
X189289523Y-98148571D01*
X189384761Y-98124761D01*
X189432380Y-98077142D01*
X189456190Y-98029523D01*
X189456190Y-97934285D01*
X189432380Y-97886666D01*
X189384761Y-97839047D01*
X189289523Y-97815238D01*
X189122857Y-97815238D01*
X189027619Y-97839047D01*
X188980000Y-97886666D01*
X188956190Y-97934285D01*
X189456190Y-98600952D02*
X189456190Y-98362857D01*
X188956190Y-98362857D01*
X189170476Y-98839047D02*
X189146666Y-98791428D01*
X189122857Y-98767619D01*
X189075238Y-98743809D01*
X189051428Y-98743809D01*
X189003809Y-98767619D01*
X188980000Y-98791428D01*
X188956190Y-98839047D01*
X188956190Y-98934285D01*
X188980000Y-98981904D01*
X189003809Y-99005714D01*
X189051428Y-99029523D01*
X189075238Y-99029523D01*
X189122857Y-99005714D01*
X189146666Y-98981904D01*
X189170476Y-98934285D01*
X189170476Y-98839047D01*
X189194285Y-98791428D01*
X189218095Y-98767619D01*
X189265714Y-98743809D01*
X189360952Y-98743809D01*
X189408571Y-98767619D01*
X189432380Y-98791428D01*
X189456190Y-98839047D01*
X189456190Y-98934285D01*
X189432380Y-98981904D01*
X189408571Y-99005714D01*
X189360952Y-99029523D01*
X189265714Y-99029523D01*
X189218095Y-99005714D01*
X189194285Y-98981904D01*
X189170476Y-98934285D01*
X191927907Y-97618140D02*
X191951716Y-97594331D01*
X191975526Y-97522902D01*
X191975526Y-97475283D01*
X191951716Y-97403855D01*
X191904097Y-97356236D01*
X191856478Y-97332426D01*
X191761240Y-97308617D01*
X191689812Y-97308617D01*
X191594574Y-97332426D01*
X191546955Y-97356236D01*
X191499336Y-97403855D01*
X191475526Y-97475283D01*
X191475526Y-97522902D01*
X191499336Y-97594331D01*
X191523145Y-97618140D01*
X191475526Y-97927664D02*
X191475526Y-98022902D01*
X191499336Y-98070521D01*
X191546955Y-98118140D01*
X191642193Y-98141950D01*
X191808859Y-98141950D01*
X191904097Y-98118140D01*
X191951716Y-98070521D01*
X191975526Y-98022902D01*
X191975526Y-97927664D01*
X191951716Y-97880045D01*
X191904097Y-97832426D01*
X191808859Y-97808617D01*
X191642193Y-97808617D01*
X191546955Y-97832426D01*
X191499336Y-97880045D01*
X191475526Y-97927664D01*
X191975526Y-98594331D02*
X191975526Y-98356236D01*
X191475526Y-98356236D01*
X191475526Y-98713379D02*
X191475526Y-99046712D01*
X191975526Y-98832426D01*
X194488571Y-97624761D02*
X194512380Y-97600952D01*
X194536190Y-97529523D01*
X194536190Y-97481904D01*
X194512380Y-97410476D01*
X194464761Y-97362857D01*
X194417142Y-97339047D01*
X194321904Y-97315238D01*
X194250476Y-97315238D01*
X194155238Y-97339047D01*
X194107619Y-97362857D01*
X194060000Y-97410476D01*
X194036190Y-97481904D01*
X194036190Y-97529523D01*
X194060000Y-97600952D01*
X194083809Y-97624761D01*
X194036190Y-97934285D02*
X194036190Y-98029523D01*
X194060000Y-98077142D01*
X194107619Y-98124761D01*
X194202857Y-98148571D01*
X194369523Y-98148571D01*
X194464761Y-98124761D01*
X194512380Y-98077142D01*
X194536190Y-98029523D01*
X194536190Y-97934285D01*
X194512380Y-97886666D01*
X194464761Y-97839047D01*
X194369523Y-97815238D01*
X194202857Y-97815238D01*
X194107619Y-97839047D01*
X194060000Y-97886666D01*
X194036190Y-97934285D01*
X194536190Y-98600952D02*
X194536190Y-98362857D01*
X194036190Y-98362857D01*
X194036190Y-98981904D02*
X194036190Y-98886666D01*
X194060000Y-98839047D01*
X194083809Y-98815238D01*
X194155238Y-98767619D01*
X194250476Y-98743809D01*
X194440952Y-98743809D01*
X194488571Y-98767619D01*
X194512380Y-98791428D01*
X194536190Y-98839047D01*
X194536190Y-98934285D01*
X194512380Y-98981904D01*
X194488571Y-99005714D01*
X194440952Y-99029523D01*
X194321904Y-99029523D01*
X194274285Y-99005714D01*
X194250476Y-98981904D01*
X194226666Y-98934285D01*
X194226666Y-98839047D01*
X194250476Y-98791428D01*
X194274285Y-98767619D01*
X194321904Y-98743809D01*
X197076190Y-97624761D02*
X196838095Y-97458095D01*
X197076190Y-97339047D02*
X196576190Y-97339047D01*
X196576190Y-97529523D01*
X196600000Y-97577142D01*
X196623809Y-97600952D01*
X196671428Y-97624761D01*
X196742857Y-97624761D01*
X196790476Y-97600952D01*
X196814285Y-97577142D01*
X196838095Y-97529523D01*
X196838095Y-97339047D01*
X196576190Y-97934285D02*
X196576190Y-98029523D01*
X196600000Y-98077142D01*
X196647619Y-98124761D01*
X196742857Y-98148571D01*
X196909523Y-98148571D01*
X197004761Y-98124761D01*
X197052380Y-98077142D01*
X197076190Y-98029523D01*
X197076190Y-97934285D01*
X197052380Y-97886666D01*
X197004761Y-97839047D01*
X196909523Y-97815238D01*
X196742857Y-97815238D01*
X196647619Y-97839047D01*
X196600000Y-97886666D01*
X196576190Y-97934285D01*
X196576190Y-98315238D02*
X197076190Y-98434285D01*
X196719047Y-98529523D01*
X197076190Y-98624761D01*
X196576190Y-98743809D01*
X197076190Y-99196190D02*
X197076190Y-98910476D01*
X197076190Y-99053333D02*
X196576190Y-99053333D01*
X196647619Y-99005714D01*
X196695238Y-98958095D01*
X196719047Y-98910476D01*
X196576190Y-99505714D02*
X196576190Y-99553333D01*
X196600000Y-99600952D01*
X196623809Y-99624761D01*
X196671428Y-99648571D01*
X196766666Y-99672380D01*
X196885714Y-99672380D01*
X196980952Y-99648571D01*
X197028571Y-99624761D01*
X197052380Y-99600952D01*
X197076190Y-99553333D01*
X197076190Y-99505714D01*
X197052380Y-99458095D01*
X197028571Y-99434285D01*
X196980952Y-99410476D01*
X196885714Y-99386666D01*
X196766666Y-99386666D01*
X196671428Y-99410476D01*
X196623809Y-99434285D01*
X196600000Y-99458095D01*
X196576190Y-99505714D01*
X199616190Y-97624761D02*
X199378095Y-97458095D01*
X199616190Y-97339047D02*
X199116190Y-97339047D01*
X199116190Y-97529523D01*
X199140000Y-97577142D01*
X199163809Y-97600952D01*
X199211428Y-97624761D01*
X199282857Y-97624761D01*
X199330476Y-97600952D01*
X199354285Y-97577142D01*
X199378095Y-97529523D01*
X199378095Y-97339047D01*
X199116190Y-97934285D02*
X199116190Y-98029523D01*
X199140000Y-98077142D01*
X199187619Y-98124761D01*
X199282857Y-98148571D01*
X199449523Y-98148571D01*
X199544761Y-98124761D01*
X199592380Y-98077142D01*
X199616190Y-98029523D01*
X199616190Y-97934285D01*
X199592380Y-97886666D01*
X199544761Y-97839047D01*
X199449523Y-97815238D01*
X199282857Y-97815238D01*
X199187619Y-97839047D01*
X199140000Y-97886666D01*
X199116190Y-97934285D01*
X199116190Y-98315238D02*
X199616190Y-98434285D01*
X199259047Y-98529523D01*
X199616190Y-98624761D01*
X199116190Y-98743809D01*
X199616190Y-98958095D02*
X199616190Y-99053333D01*
X199592380Y-99100952D01*
X199568571Y-99124761D01*
X199497142Y-99172380D01*
X199401904Y-99196190D01*
X199211428Y-99196190D01*
X199163809Y-99172380D01*
X199140000Y-99148571D01*
X199116190Y-99100952D01*
X199116190Y-99005714D01*
X199140000Y-98958095D01*
X199163809Y-98934285D01*
X199211428Y-98910476D01*
X199330476Y-98910476D01*
X199378095Y-98934285D01*
X199401904Y-98958095D01*
X199425714Y-99005714D01*
X199425714Y-99100952D01*
X199401904Y-99148571D01*
X199378095Y-99172380D01*
X199330476Y-99196190D01*
X202156190Y-97624761D02*
X201918095Y-97458095D01*
X202156190Y-97339047D02*
X201656190Y-97339047D01*
X201656190Y-97529523D01*
X201680000Y-97577142D01*
X201703809Y-97600952D01*
X201751428Y-97624761D01*
X201822857Y-97624761D01*
X201870476Y-97600952D01*
X201894285Y-97577142D01*
X201918095Y-97529523D01*
X201918095Y-97339047D01*
X201656190Y-97934285D02*
X201656190Y-98029523D01*
X201680000Y-98077142D01*
X201727619Y-98124761D01*
X201822857Y-98148571D01*
X201989523Y-98148571D01*
X202084761Y-98124761D01*
X202132380Y-98077142D01*
X202156190Y-98029523D01*
X202156190Y-97934285D01*
X202132380Y-97886666D01*
X202084761Y-97839047D01*
X201989523Y-97815238D01*
X201822857Y-97815238D01*
X201727619Y-97839047D01*
X201680000Y-97886666D01*
X201656190Y-97934285D01*
X201656190Y-98315238D02*
X202156190Y-98434285D01*
X201799047Y-98529523D01*
X202156190Y-98624761D01*
X201656190Y-98743809D01*
X201870476Y-99005714D02*
X201846666Y-98958095D01*
X201822857Y-98934285D01*
X201775238Y-98910476D01*
X201751428Y-98910476D01*
X201703809Y-98934285D01*
X201680000Y-98958095D01*
X201656190Y-99005714D01*
X201656190Y-99100952D01*
X201680000Y-99148571D01*
X201703809Y-99172380D01*
X201751428Y-99196190D01*
X201775238Y-99196190D01*
X201822857Y-99172380D01*
X201846666Y-99148571D01*
X201870476Y-99100952D01*
X201870476Y-99005714D01*
X201894285Y-98958095D01*
X201918095Y-98934285D01*
X201965714Y-98910476D01*
X202060952Y-98910476D01*
X202108571Y-98934285D01*
X202132380Y-98958095D01*
X202156190Y-99005714D01*
X202156190Y-99100952D01*
X202132380Y-99148571D01*
X202108571Y-99172380D01*
X202060952Y-99196190D01*
X201965714Y-99196190D01*
X201918095Y-99172380D01*
X201894285Y-99148571D01*
X201870476Y-99100952D01*
X204696190Y-97624761D02*
X204458095Y-97458095D01*
X204696190Y-97339047D02*
X204196190Y-97339047D01*
X204196190Y-97529523D01*
X204220000Y-97577142D01*
X204243809Y-97600952D01*
X204291428Y-97624761D01*
X204362857Y-97624761D01*
X204410476Y-97600952D01*
X204434285Y-97577142D01*
X204458095Y-97529523D01*
X204458095Y-97339047D01*
X204196190Y-97934285D02*
X204196190Y-98029523D01*
X204220000Y-98077142D01*
X204267619Y-98124761D01*
X204362857Y-98148571D01*
X204529523Y-98148571D01*
X204624761Y-98124761D01*
X204672380Y-98077142D01*
X204696190Y-98029523D01*
X204696190Y-97934285D01*
X204672380Y-97886666D01*
X204624761Y-97839047D01*
X204529523Y-97815238D01*
X204362857Y-97815238D01*
X204267619Y-97839047D01*
X204220000Y-97886666D01*
X204196190Y-97934285D01*
X204196190Y-98315238D02*
X204696190Y-98434285D01*
X204339047Y-98529523D01*
X204696190Y-98624761D01*
X204196190Y-98743809D01*
X204196190Y-98886666D02*
X204196190Y-99220000D01*
X204696190Y-99005714D01*
X207236190Y-97624761D02*
X206998095Y-97458095D01*
X207236190Y-97339047D02*
X206736190Y-97339047D01*
X206736190Y-97529523D01*
X206760000Y-97577142D01*
X206783809Y-97600952D01*
X206831428Y-97624761D01*
X206902857Y-97624761D01*
X206950476Y-97600952D01*
X206974285Y-97577142D01*
X206998095Y-97529523D01*
X206998095Y-97339047D01*
X206736190Y-97934285D02*
X206736190Y-98029523D01*
X206760000Y-98077142D01*
X206807619Y-98124761D01*
X206902857Y-98148571D01*
X207069523Y-98148571D01*
X207164761Y-98124761D01*
X207212380Y-98077142D01*
X207236190Y-98029523D01*
X207236190Y-97934285D01*
X207212380Y-97886666D01*
X207164761Y-97839047D01*
X207069523Y-97815238D01*
X206902857Y-97815238D01*
X206807619Y-97839047D01*
X206760000Y-97886666D01*
X206736190Y-97934285D01*
X206736190Y-98315238D02*
X207236190Y-98434285D01*
X206879047Y-98529523D01*
X207236190Y-98624761D01*
X206736190Y-98743809D01*
X206736190Y-99148571D02*
X206736190Y-99053333D01*
X206760000Y-99005714D01*
X206783809Y-98981904D01*
X206855238Y-98934285D01*
X206950476Y-98910476D01*
X207140952Y-98910476D01*
X207188571Y-98934285D01*
X207212380Y-98958095D01*
X207236190Y-99005714D01*
X207236190Y-99100952D01*
X207212380Y-99148571D01*
X207188571Y-99172380D01*
X207140952Y-99196190D01*
X207021904Y-99196190D01*
X206974285Y-99172380D01*
X206950476Y-99148571D01*
X206926666Y-99100952D01*
X206926666Y-99005714D01*
X206950476Y-98958095D01*
X206974285Y-98934285D01*
X207021904Y-98910476D01*
X209514285Y-97505714D02*
X209538095Y-97577142D01*
X209561904Y-97600952D01*
X209609523Y-97624761D01*
X209680952Y-97624761D01*
X209728571Y-97600952D01*
X209752380Y-97577142D01*
X209776190Y-97529523D01*
X209776190Y-97339047D01*
X209276190Y-97339047D01*
X209276190Y-97505714D01*
X209300000Y-97553333D01*
X209323809Y-97577142D01*
X209371428Y-97600952D01*
X209419047Y-97600952D01*
X209466666Y-97577142D01*
X209490476Y-97553333D01*
X209514285Y-97505714D01*
X209514285Y-97339047D01*
X209776190Y-98077142D02*
X209776190Y-97839047D01*
X209276190Y-97839047D01*
X209276190Y-98243809D02*
X209680952Y-98243809D01*
X209728571Y-98267619D01*
X209752380Y-98291428D01*
X209776190Y-98339047D01*
X209776190Y-98434285D01*
X209752380Y-98481904D01*
X209728571Y-98505714D01*
X209680952Y-98529523D01*
X209276190Y-98529523D01*
X209514285Y-98767619D02*
X209514285Y-98934285D01*
X209776190Y-99005714D02*
X209776190Y-98767619D01*
X209276190Y-98767619D01*
X209276190Y-99005714D01*
X209442857Y-99434285D02*
X209776190Y-99434285D01*
X209252380Y-99315238D02*
X209609523Y-99196190D01*
X209609523Y-99505714D01*
X211840000Y-97600952D02*
X211816190Y-97553333D01*
X211816190Y-97481904D01*
X211840000Y-97410476D01*
X211887619Y-97362857D01*
X211935238Y-97339047D01*
X212030476Y-97315238D01*
X212101904Y-97315238D01*
X212197142Y-97339047D01*
X212244761Y-97362857D01*
X212292380Y-97410476D01*
X212316190Y-97481904D01*
X212316190Y-97529523D01*
X212292380Y-97600952D01*
X212268571Y-97624761D01*
X212101904Y-97624761D01*
X212101904Y-97529523D01*
X212316190Y-98124761D02*
X212078095Y-97958095D01*
X212316190Y-97839047D02*
X211816190Y-97839047D01*
X211816190Y-98029523D01*
X211840000Y-98077142D01*
X211863809Y-98100952D01*
X211911428Y-98124761D01*
X211982857Y-98124761D01*
X212030476Y-98100952D01*
X212054285Y-98077142D01*
X212078095Y-98029523D01*
X212078095Y-97839047D01*
X212054285Y-98339047D02*
X212054285Y-98505714D01*
X212316190Y-98577142D02*
X212316190Y-98339047D01*
X211816190Y-98339047D01*
X211816190Y-98577142D01*
X212054285Y-98791428D02*
X212054285Y-98958095D01*
X212316190Y-99029523D02*
X212316190Y-98791428D01*
X211816190Y-98791428D01*
X211816190Y-99029523D01*
X212316190Y-99243809D02*
X211816190Y-99243809D01*
X212316190Y-99529523D01*
X211816190Y-99529523D01*
X211982857Y-99981904D02*
X212316190Y-99981904D01*
X211792380Y-99862857D02*
X212149523Y-99743809D01*
X212149523Y-100053333D01*
X214856190Y-97624761D02*
X214618095Y-97458095D01*
X214856190Y-97339047D02*
X214356190Y-97339047D01*
X214356190Y-97529523D01*
X214380000Y-97577142D01*
X214403809Y-97600952D01*
X214451428Y-97624761D01*
X214522857Y-97624761D01*
X214570476Y-97600952D01*
X214594285Y-97577142D01*
X214618095Y-97529523D01*
X214618095Y-97339047D01*
X214594285Y-97839047D02*
X214594285Y-98005714D01*
X214856190Y-98077142D02*
X214856190Y-97839047D01*
X214356190Y-97839047D01*
X214356190Y-98077142D01*
X214856190Y-98291428D02*
X214356190Y-98291428D01*
X214356190Y-98410476D01*
X214380000Y-98481904D01*
X214427619Y-98529523D01*
X214475238Y-98553333D01*
X214570476Y-98577142D01*
X214641904Y-98577142D01*
X214737142Y-98553333D01*
X214784761Y-98529523D01*
X214832380Y-98481904D01*
X214856190Y-98410476D01*
X214856190Y-98291428D01*
X214522857Y-99005714D02*
X214856190Y-99005714D01*
X214332380Y-98886666D02*
X214689523Y-98767619D01*
X214689523Y-99077142D01*
X217134285Y-97505714D02*
X217158095Y-97577142D01*
X217181904Y-97600952D01*
X217229523Y-97624761D01*
X217300952Y-97624761D01*
X217348571Y-97600952D01*
X217372380Y-97577142D01*
X217396190Y-97529523D01*
X217396190Y-97339047D01*
X216896190Y-97339047D01*
X216896190Y-97505714D01*
X216920000Y-97553333D01*
X216943809Y-97577142D01*
X216991428Y-97600952D01*
X217039047Y-97600952D01*
X217086666Y-97577142D01*
X217110476Y-97553333D01*
X217134285Y-97505714D01*
X217134285Y-97339047D01*
X217396190Y-98077142D02*
X217396190Y-97839047D01*
X216896190Y-97839047D01*
X216896190Y-98243809D02*
X217300952Y-98243809D01*
X217348571Y-98267619D01*
X217372380Y-98291428D01*
X217396190Y-98339047D01*
X217396190Y-98434285D01*
X217372380Y-98481904D01*
X217348571Y-98505714D01*
X217300952Y-98529523D01*
X216896190Y-98529523D01*
X217134285Y-98767619D02*
X217134285Y-98934285D01*
X217396190Y-99005714D02*
X217396190Y-98767619D01*
X216896190Y-98767619D01*
X216896190Y-99005714D01*
X216896190Y-99172380D02*
X216896190Y-99481904D01*
X217086666Y-99315238D01*
X217086666Y-99386666D01*
X217110476Y-99434285D01*
X217134285Y-99458095D01*
X217181904Y-99481904D01*
X217300952Y-99481904D01*
X217348571Y-99458095D01*
X217372380Y-99434285D01*
X217396190Y-99386666D01*
X217396190Y-99243809D01*
X217372380Y-99196190D01*
X217348571Y-99172380D01*
X219460000Y-97600952D02*
X219436190Y-97553333D01*
X219436190Y-97481904D01*
X219460000Y-97410476D01*
X219507619Y-97362857D01*
X219555238Y-97339047D01*
X219650476Y-97315238D01*
X219721904Y-97315238D01*
X219817142Y-97339047D01*
X219864761Y-97362857D01*
X219912380Y-97410476D01*
X219936190Y-97481904D01*
X219936190Y-97529523D01*
X219912380Y-97600952D01*
X219888571Y-97624761D01*
X219721904Y-97624761D01*
X219721904Y-97529523D01*
X219936190Y-98124761D02*
X219698095Y-97958095D01*
X219936190Y-97839047D02*
X219436190Y-97839047D01*
X219436190Y-98029523D01*
X219460000Y-98077142D01*
X219483809Y-98100952D01*
X219531428Y-98124761D01*
X219602857Y-98124761D01*
X219650476Y-98100952D01*
X219674285Y-98077142D01*
X219698095Y-98029523D01*
X219698095Y-97839047D01*
X219674285Y-98339047D02*
X219674285Y-98505714D01*
X219936190Y-98577142D02*
X219936190Y-98339047D01*
X219436190Y-98339047D01*
X219436190Y-98577142D01*
X219674285Y-98791428D02*
X219674285Y-98958095D01*
X219936190Y-99029523D02*
X219936190Y-98791428D01*
X219436190Y-98791428D01*
X219436190Y-99029523D01*
X219936190Y-99243809D02*
X219436190Y-99243809D01*
X219936190Y-99529523D01*
X219436190Y-99529523D01*
X219436190Y-99720000D02*
X219436190Y-100029523D01*
X219626666Y-99862857D01*
X219626666Y-99934285D01*
X219650476Y-99981904D01*
X219674285Y-100005714D01*
X219721904Y-100029523D01*
X219840952Y-100029523D01*
X219888571Y-100005714D01*
X219912380Y-99981904D01*
X219936190Y-99934285D01*
X219936190Y-99791428D01*
X219912380Y-99743809D01*
X219888571Y-99720000D01*
X222476190Y-97624761D02*
X222238095Y-97458095D01*
X222476190Y-97339047D02*
X221976190Y-97339047D01*
X221976190Y-97529523D01*
X222000000Y-97577142D01*
X222023809Y-97600952D01*
X222071428Y-97624761D01*
X222142857Y-97624761D01*
X222190476Y-97600952D01*
X222214285Y-97577142D01*
X222238095Y-97529523D01*
X222238095Y-97339047D01*
X222214285Y-97839047D02*
X222214285Y-98005714D01*
X222476190Y-98077142D02*
X222476190Y-97839047D01*
X221976190Y-97839047D01*
X221976190Y-98077142D01*
X222476190Y-98291428D02*
X221976190Y-98291428D01*
X221976190Y-98410476D01*
X222000000Y-98481904D01*
X222047619Y-98529523D01*
X222095238Y-98553333D01*
X222190476Y-98577142D01*
X222261904Y-98577142D01*
X222357142Y-98553333D01*
X222404761Y-98529523D01*
X222452380Y-98481904D01*
X222476190Y-98410476D01*
X222476190Y-98291428D01*
X221976190Y-98743809D02*
X221976190Y-99053333D01*
X222166666Y-98886666D01*
X222166666Y-98958095D01*
X222190476Y-99005714D01*
X222214285Y-99029523D01*
X222261904Y-99053333D01*
X222380952Y-99053333D01*
X222428571Y-99029523D01*
X222452380Y-99005714D01*
X222476190Y-98958095D01*
X222476190Y-98815238D01*
X222452380Y-98767619D01*
X222428571Y-98743809D01*
X224968571Y-97624761D02*
X224992380Y-97600952D01*
X225016190Y-97529523D01*
X225016190Y-97481904D01*
X224992380Y-97410476D01*
X224944761Y-97362857D01*
X224897142Y-97339047D01*
X224801904Y-97315238D01*
X224730476Y-97315238D01*
X224635238Y-97339047D01*
X224587619Y-97362857D01*
X224540000Y-97410476D01*
X224516190Y-97481904D01*
X224516190Y-97529523D01*
X224540000Y-97600952D01*
X224563809Y-97624761D01*
X224992380Y-97815238D02*
X225016190Y-97886666D01*
X225016190Y-98005714D01*
X224992380Y-98053333D01*
X224968571Y-98077142D01*
X224920952Y-98100952D01*
X224873333Y-98100952D01*
X224825714Y-98077142D01*
X224801904Y-98053333D01*
X224778095Y-98005714D01*
X224754285Y-97910476D01*
X224730476Y-97862857D01*
X224706666Y-97839047D01*
X224659047Y-97815238D01*
X224611428Y-97815238D01*
X224563809Y-97839047D01*
X224540000Y-97862857D01*
X224516190Y-97910476D01*
X224516190Y-98029523D01*
X224540000Y-98100952D01*
X225016190Y-98577142D02*
X225016190Y-98291428D01*
X225016190Y-98434285D02*
X224516190Y-98434285D01*
X224587619Y-98386666D01*
X224635238Y-98339047D01*
X224659047Y-98291428D01*
X224516190Y-99005714D02*
X224516190Y-98910476D01*
X224540000Y-98862857D01*
X224563809Y-98839047D01*
X224635238Y-98791428D01*
X224730476Y-98767619D01*
X224920952Y-98767619D01*
X224968571Y-98791428D01*
X224992380Y-98815238D01*
X225016190Y-98862857D01*
X225016190Y-98958095D01*
X224992380Y-99005714D01*
X224968571Y-99029523D01*
X224920952Y-99053333D01*
X224801904Y-99053333D01*
X224754285Y-99029523D01*
X224730476Y-99005714D01*
X224706666Y-98958095D01*
X224706666Y-98862857D01*
X224730476Y-98815238D01*
X224754285Y-98791428D01*
X224801904Y-98767619D01*
X227508571Y-97624761D02*
X227532380Y-97600952D01*
X227556190Y-97529523D01*
X227556190Y-97481904D01*
X227532380Y-97410476D01*
X227484761Y-97362857D01*
X227437142Y-97339047D01*
X227341904Y-97315238D01*
X227270476Y-97315238D01*
X227175238Y-97339047D01*
X227127619Y-97362857D01*
X227080000Y-97410476D01*
X227056190Y-97481904D01*
X227056190Y-97529523D01*
X227080000Y-97600952D01*
X227103809Y-97624761D01*
X227532380Y-97815238D02*
X227556190Y-97886666D01*
X227556190Y-98005714D01*
X227532380Y-98053333D01*
X227508571Y-98077142D01*
X227460952Y-98100952D01*
X227413333Y-98100952D01*
X227365714Y-98077142D01*
X227341904Y-98053333D01*
X227318095Y-98005714D01*
X227294285Y-97910476D01*
X227270476Y-97862857D01*
X227246666Y-97839047D01*
X227199047Y-97815238D01*
X227151428Y-97815238D01*
X227103809Y-97839047D01*
X227080000Y-97862857D01*
X227056190Y-97910476D01*
X227056190Y-98029523D01*
X227080000Y-98100952D01*
X227556190Y-98577142D02*
X227556190Y-98291428D01*
X227556190Y-98434285D02*
X227056190Y-98434285D01*
X227127619Y-98386666D01*
X227175238Y-98339047D01*
X227199047Y-98291428D01*
X227056190Y-99029523D02*
X227056190Y-98791428D01*
X227294285Y-98767619D01*
X227270476Y-98791428D01*
X227246666Y-98839047D01*
X227246666Y-98958095D01*
X227270476Y-99005714D01*
X227294285Y-99029523D01*
X227341904Y-99053333D01*
X227460952Y-99053333D01*
X227508571Y-99029523D01*
X227532380Y-99005714D01*
X227556190Y-98958095D01*
X227556190Y-98839047D01*
X227532380Y-98791428D01*
X227508571Y-98767619D01*
X230048571Y-97624761D02*
X230072380Y-97600952D01*
X230096190Y-97529523D01*
X230096190Y-97481904D01*
X230072380Y-97410476D01*
X230024761Y-97362857D01*
X229977142Y-97339047D01*
X229881904Y-97315238D01*
X229810476Y-97315238D01*
X229715238Y-97339047D01*
X229667619Y-97362857D01*
X229620000Y-97410476D01*
X229596190Y-97481904D01*
X229596190Y-97529523D01*
X229620000Y-97600952D01*
X229643809Y-97624761D01*
X230072380Y-97815238D02*
X230096190Y-97886666D01*
X230096190Y-98005714D01*
X230072380Y-98053333D01*
X230048571Y-98077142D01*
X230000952Y-98100952D01*
X229953333Y-98100952D01*
X229905714Y-98077142D01*
X229881904Y-98053333D01*
X229858095Y-98005714D01*
X229834285Y-97910476D01*
X229810476Y-97862857D01*
X229786666Y-97839047D01*
X229739047Y-97815238D01*
X229691428Y-97815238D01*
X229643809Y-97839047D01*
X229620000Y-97862857D01*
X229596190Y-97910476D01*
X229596190Y-98029523D01*
X229620000Y-98100952D01*
X230096190Y-98577142D02*
X230096190Y-98291428D01*
X230096190Y-98434285D02*
X229596190Y-98434285D01*
X229667619Y-98386666D01*
X229715238Y-98339047D01*
X229739047Y-98291428D01*
X229762857Y-99005714D02*
X230096190Y-99005714D01*
X229572380Y-98886666D02*
X229929523Y-98767619D01*
X229929523Y-99077142D01*
X232588571Y-97624761D02*
X232612380Y-97600952D01*
X232636190Y-97529523D01*
X232636190Y-97481904D01*
X232612380Y-97410476D01*
X232564761Y-97362857D01*
X232517142Y-97339047D01*
X232421904Y-97315238D01*
X232350476Y-97315238D01*
X232255238Y-97339047D01*
X232207619Y-97362857D01*
X232160000Y-97410476D01*
X232136190Y-97481904D01*
X232136190Y-97529523D01*
X232160000Y-97600952D01*
X232183809Y-97624761D01*
X232612380Y-97815238D02*
X232636190Y-97886666D01*
X232636190Y-98005714D01*
X232612380Y-98053333D01*
X232588571Y-98077142D01*
X232540952Y-98100952D01*
X232493333Y-98100952D01*
X232445714Y-98077142D01*
X232421904Y-98053333D01*
X232398095Y-98005714D01*
X232374285Y-97910476D01*
X232350476Y-97862857D01*
X232326666Y-97839047D01*
X232279047Y-97815238D01*
X232231428Y-97815238D01*
X232183809Y-97839047D01*
X232160000Y-97862857D01*
X232136190Y-97910476D01*
X232136190Y-98029523D01*
X232160000Y-98100952D01*
X232636190Y-98577142D02*
X232636190Y-98291428D01*
X232636190Y-98434285D02*
X232136190Y-98434285D01*
X232207619Y-98386666D01*
X232255238Y-98339047D01*
X232279047Y-98291428D01*
X232136190Y-98743809D02*
X232136190Y-99053333D01*
X232326666Y-98886666D01*
X232326666Y-98958095D01*
X232350476Y-99005714D01*
X232374285Y-99029523D01*
X232421904Y-99053333D01*
X232540952Y-99053333D01*
X232588571Y-99029523D01*
X232612380Y-99005714D01*
X232636190Y-98958095D01*
X232636190Y-98815238D01*
X232612380Y-98767619D01*
X232588571Y-98743809D01*
X235128571Y-97624761D02*
X235152380Y-97600952D01*
X235176190Y-97529523D01*
X235176190Y-97481904D01*
X235152380Y-97410476D01*
X235104761Y-97362857D01*
X235057142Y-97339047D01*
X234961904Y-97315238D01*
X234890476Y-97315238D01*
X234795238Y-97339047D01*
X234747619Y-97362857D01*
X234700000Y-97410476D01*
X234676190Y-97481904D01*
X234676190Y-97529523D01*
X234700000Y-97600952D01*
X234723809Y-97624761D01*
X235152380Y-97815238D02*
X235176190Y-97886666D01*
X235176190Y-98005714D01*
X235152380Y-98053333D01*
X235128571Y-98077142D01*
X235080952Y-98100952D01*
X235033333Y-98100952D01*
X234985714Y-98077142D01*
X234961904Y-98053333D01*
X234938095Y-98005714D01*
X234914285Y-97910476D01*
X234890476Y-97862857D01*
X234866666Y-97839047D01*
X234819047Y-97815238D01*
X234771428Y-97815238D01*
X234723809Y-97839047D01*
X234700000Y-97862857D01*
X234676190Y-97910476D01*
X234676190Y-98029523D01*
X234700000Y-98100952D01*
X235176190Y-98577142D02*
X235176190Y-98291428D01*
X235176190Y-98434285D02*
X234676190Y-98434285D01*
X234747619Y-98386666D01*
X234795238Y-98339047D01*
X234819047Y-98291428D01*
X234723809Y-98767619D02*
X234700000Y-98791428D01*
X234676190Y-98839047D01*
X234676190Y-98958095D01*
X234700000Y-99005714D01*
X234723809Y-99029523D01*
X234771428Y-99053333D01*
X234819047Y-99053333D01*
X234890476Y-99029523D01*
X235176190Y-98743809D01*
X235176190Y-99053333D01*
X237668571Y-97624761D02*
X237692380Y-97600952D01*
X237716190Y-97529523D01*
X237716190Y-97481904D01*
X237692380Y-97410476D01*
X237644761Y-97362857D01*
X237597142Y-97339047D01*
X237501904Y-97315238D01*
X237430476Y-97315238D01*
X237335238Y-97339047D01*
X237287619Y-97362857D01*
X237240000Y-97410476D01*
X237216190Y-97481904D01*
X237216190Y-97529523D01*
X237240000Y-97600952D01*
X237263809Y-97624761D01*
X237692380Y-97815238D02*
X237716190Y-97886666D01*
X237716190Y-98005714D01*
X237692380Y-98053333D01*
X237668571Y-98077142D01*
X237620952Y-98100952D01*
X237573333Y-98100952D01*
X237525714Y-98077142D01*
X237501904Y-98053333D01*
X237478095Y-98005714D01*
X237454285Y-97910476D01*
X237430476Y-97862857D01*
X237406666Y-97839047D01*
X237359047Y-97815238D01*
X237311428Y-97815238D01*
X237263809Y-97839047D01*
X237240000Y-97862857D01*
X237216190Y-97910476D01*
X237216190Y-98029523D01*
X237240000Y-98100952D01*
X237716190Y-98577142D02*
X237716190Y-98291428D01*
X237716190Y-98434285D02*
X237216190Y-98434285D01*
X237287619Y-98386666D01*
X237335238Y-98339047D01*
X237359047Y-98291428D01*
X237716190Y-99053333D02*
X237716190Y-98767619D01*
X237716190Y-98910476D02*
X237216190Y-98910476D01*
X237287619Y-98862857D01*
X237335238Y-98815238D01*
X237359047Y-98767619D01*
X240208571Y-97624761D02*
X240232380Y-97600952D01*
X240256190Y-97529523D01*
X240256190Y-97481904D01*
X240232380Y-97410476D01*
X240184761Y-97362857D01*
X240137142Y-97339047D01*
X240041904Y-97315238D01*
X239970476Y-97315238D01*
X239875238Y-97339047D01*
X239827619Y-97362857D01*
X239780000Y-97410476D01*
X239756190Y-97481904D01*
X239756190Y-97529523D01*
X239780000Y-97600952D01*
X239803809Y-97624761D01*
X240232380Y-97815238D02*
X240256190Y-97886666D01*
X240256190Y-98005714D01*
X240232380Y-98053333D01*
X240208571Y-98077142D01*
X240160952Y-98100952D01*
X240113333Y-98100952D01*
X240065714Y-98077142D01*
X240041904Y-98053333D01*
X240018095Y-98005714D01*
X239994285Y-97910476D01*
X239970476Y-97862857D01*
X239946666Y-97839047D01*
X239899047Y-97815238D01*
X239851428Y-97815238D01*
X239803809Y-97839047D01*
X239780000Y-97862857D01*
X239756190Y-97910476D01*
X239756190Y-98029523D01*
X239780000Y-98100952D01*
X240256190Y-98577142D02*
X240256190Y-98291428D01*
X240256190Y-98434285D02*
X239756190Y-98434285D01*
X239827619Y-98386666D01*
X239875238Y-98339047D01*
X239899047Y-98291428D01*
X239756190Y-98886666D02*
X239756190Y-98934285D01*
X239780000Y-98981904D01*
X239803809Y-99005714D01*
X239851428Y-99029523D01*
X239946666Y-99053333D01*
X240065714Y-99053333D01*
X240160952Y-99029523D01*
X240208571Y-99005714D01*
X240232380Y-98981904D01*
X240256190Y-98934285D01*
X240256190Y-98886666D01*
X240232380Y-98839047D01*
X240208571Y-98815238D01*
X240160952Y-98791428D01*
X240065714Y-98767619D01*
X239946666Y-98767619D01*
X239851428Y-98791428D01*
X239803809Y-98815238D01*
X239780000Y-98839047D01*
X239756190Y-98886666D01*
X242748571Y-97624761D02*
X242772380Y-97600952D01*
X242796190Y-97529523D01*
X242796190Y-97481904D01*
X242772380Y-97410476D01*
X242724761Y-97362857D01*
X242677142Y-97339047D01*
X242581904Y-97315238D01*
X242510476Y-97315238D01*
X242415238Y-97339047D01*
X242367619Y-97362857D01*
X242320000Y-97410476D01*
X242296190Y-97481904D01*
X242296190Y-97529523D01*
X242320000Y-97600952D01*
X242343809Y-97624761D01*
X242772380Y-97815238D02*
X242796190Y-97886666D01*
X242796190Y-98005714D01*
X242772380Y-98053333D01*
X242748571Y-98077142D01*
X242700952Y-98100952D01*
X242653333Y-98100952D01*
X242605714Y-98077142D01*
X242581904Y-98053333D01*
X242558095Y-98005714D01*
X242534285Y-97910476D01*
X242510476Y-97862857D01*
X242486666Y-97839047D01*
X242439047Y-97815238D01*
X242391428Y-97815238D01*
X242343809Y-97839047D01*
X242320000Y-97862857D01*
X242296190Y-97910476D01*
X242296190Y-98029523D01*
X242320000Y-98100952D01*
X242796190Y-98339047D02*
X242796190Y-98434285D01*
X242772380Y-98481904D01*
X242748571Y-98505714D01*
X242677142Y-98553333D01*
X242581904Y-98577142D01*
X242391428Y-98577142D01*
X242343809Y-98553333D01*
X242320000Y-98529523D01*
X242296190Y-98481904D01*
X242296190Y-98386666D01*
X242320000Y-98339047D01*
X242343809Y-98315238D01*
X242391428Y-98291428D01*
X242510476Y-98291428D01*
X242558095Y-98315238D01*
X242581904Y-98339047D01*
X242605714Y-98386666D01*
X242605714Y-98481904D01*
X242581904Y-98529523D01*
X242558095Y-98553333D01*
X242510476Y-98577142D01*
M02*
