M48
; DRILL file {KiCad (6.0.6)} date Mon 05 Sep 2022 09:43:01 PM PDT
; FORMAT={-:-/ absolute / inch / decimal}
; #@! TF.CreationDate,2022-09-05T21:43:01-07:00
; #@! TF.GenerationSoftware,Kicad,Pcbnew,(6.0.6)
; #@! TF.FileFunction,Plated,1,2,PTH
FMAT,2
INCH
; #@! TA.AperFunction,Plated,PTH,ViaDrill
T1C0.0157
; #@! TA.AperFunction,Plated,PTH,ComponentDrill
T2C0.0300
; #@! TA.AperFunction,Plated,PTH,ComponentDrill
T3C0.0394
%
G90
G05
T1
X8.43Y-3.87
X8.43Y-4.13
T2
X6.8Y-2.85
X6.8Y-2.95
X6.8Y-3.05
X6.8Y-3.15
X6.8Y-3.25
X6.8Y-3.35
X6.8Y-3.45
X6.8Y-3.55
X6.8Y-3.65
X6.8Y-3.75
X6.8Y-3.85
X6.8Y-3.95
X6.8Y-4.05
X6.8Y-4.15
X6.8Y-4.25
X6.8Y-4.35
X6.8Y-4.45
X6.8Y-4.55
X6.8Y-4.65
X6.8Y-4.75
X6.8Y-4.85
X6.8Y-4.95
X6.8Y-5.05
X6.8Y-5.15
X6.9Y-2.85
X6.9Y-2.95
X6.9Y-3.05
X6.9Y-3.15
X6.9Y-3.25
X6.9Y-3.35
X6.9Y-3.45
X6.9Y-3.55
X6.9Y-3.65
X6.9Y-3.75
X6.9Y-3.85
X6.9Y-3.95
X6.9Y-4.05
X6.9Y-4.15
X6.9Y-4.25
X6.9Y-4.35
X6.9Y-4.45
X6.9Y-4.55
X6.9Y-4.65
X6.9Y-4.75
X6.9Y-4.85
X6.9Y-4.95
X6.9Y-5.05
X6.9Y-5.15
T3
X7.25Y-3.75
X7.25Y-4.25
X7.35Y-3.75
X7.35Y-4.25
X7.45Y-3.75
X7.45Y-4.25
X7.55Y-3.75
X7.55Y-4.25
X7.65Y-3.75
X7.65Y-4.25
X7.75Y-3.75
X7.75Y-4.25
X7.85Y-3.75
X7.85Y-4.25
X7.95Y-3.75
X7.95Y-4.25
X8.05Y-3.75
X8.05Y-4.25
X8.15Y-3.75
X8.15Y-4.25
X8.25Y-3.75
X8.25Y-4.25
X8.35Y-3.75
X8.35Y-4.25
X8.45Y-3.75
X8.45Y-4.25
X8.55Y-3.75
X8.55Y-4.25
X8.65Y-3.75
X8.65Y-4.25
X8.75Y-3.75
X8.75Y-4.25
X8.85Y-3.75
X8.85Y-4.25
X8.95Y-3.75
X8.95Y-4.25
X9.05Y-3.75
X9.05Y-4.25
X9.15Y-3.75
X9.15Y-4.25
X9.25Y-3.75
X9.25Y-4.25
X9.35Y-3.75
X9.35Y-4.25
X9.45Y-3.75
X9.45Y-4.25
X9.55Y-3.75
X9.55Y-4.25
T0
M30
