%TF.GenerationSoftware,KiCad,Pcbnew,(6.0.6)*%
%TF.CreationDate,2022-09-05T21:43:04-07:00*%
%TF.ProjectId,core-bb,636f7265-2d62-4622-9e6b-696361645f70,rev?*%
%TF.SameCoordinates,Original*%
%TF.FileFunction,Soldermask,Bot*%
%TF.FilePolarity,Negative*%
%FSLAX46Y46*%
G04 Gerber Fmt 4.6, Leading zero omitted, Abs format (unit mm)*
G04 Created by KiCad (PCBNEW (6.0.6)) date 2022-09-05 21:43:04*
%MOMM*%
%LPD*%
G01*
G04 APERTURE LIST*
%ADD10C,1.524000*%
%ADD11R,1.700000X1.700000*%
%ADD12O,1.700000X1.700000*%
G04 APERTURE END LIST*
D10*
%TO.C,U1*%
X172720000Y-130810000D03*
X172720000Y-128270000D03*
X172720000Y-125730000D03*
X172720000Y-123190000D03*
X172720000Y-120650000D03*
X172720000Y-118110000D03*
X172720000Y-115570000D03*
X172720000Y-113030000D03*
X172720000Y-110490000D03*
X172720000Y-107950000D03*
X172720000Y-105410000D03*
X172720000Y-102870000D03*
X172720000Y-100330000D03*
X172720000Y-97790000D03*
X172720000Y-95250000D03*
X172720000Y-92710000D03*
X172720000Y-90170000D03*
X172720000Y-87630000D03*
X172720000Y-85090000D03*
X172720000Y-82550000D03*
X172720000Y-80010000D03*
X172720000Y-77470000D03*
X172720000Y-74930000D03*
X172720000Y-72390000D03*
X175260000Y-72390000D03*
X175260000Y-74930000D03*
X175260000Y-77470000D03*
X175260000Y-80010000D03*
X175260000Y-82550000D03*
X175260000Y-85090000D03*
X175260000Y-87630000D03*
X175260000Y-90170000D03*
X175260000Y-92710000D03*
X175260000Y-95250000D03*
X175260000Y-97790000D03*
X175260000Y-100330000D03*
X175260000Y-102870000D03*
X175260000Y-105410000D03*
X175260000Y-107950000D03*
X175260000Y-110490000D03*
X175260000Y-113030000D03*
X175260000Y-115570000D03*
X175260000Y-118110000D03*
X175260000Y-120650000D03*
X175260000Y-123190000D03*
X175260000Y-125730000D03*
X175260000Y-128270000D03*
X175260000Y-130810000D03*
%TD*%
D11*
%TO.C,J2*%
X242570000Y-107950000D03*
D12*
X240030000Y-107950000D03*
X237490000Y-107950000D03*
X234950000Y-107950000D03*
X232410000Y-107950000D03*
X229870000Y-107950000D03*
X227330000Y-107950000D03*
X224790000Y-107950000D03*
X222250000Y-107950000D03*
X219710000Y-107950000D03*
X217170000Y-107950000D03*
X214630000Y-107950000D03*
X212090000Y-107950000D03*
X209550000Y-107950000D03*
X207010000Y-107950000D03*
X204470000Y-107950000D03*
X201930000Y-107950000D03*
X199390000Y-107950000D03*
X196850000Y-107950000D03*
X194310000Y-107950000D03*
X191770000Y-107950000D03*
X189230000Y-107950000D03*
X186690000Y-107950000D03*
X184150000Y-107950000D03*
%TD*%
%TO.C,J1*%
X184150000Y-95250000D03*
X186690000Y-95250000D03*
X189230000Y-95250000D03*
X191770000Y-95250000D03*
X194310000Y-95250000D03*
X196850000Y-95250000D03*
X199390000Y-95250000D03*
X201930000Y-95250000D03*
X204470000Y-95250000D03*
X207010000Y-95250000D03*
X209550000Y-95250000D03*
X212090000Y-95250000D03*
X214630000Y-95250000D03*
X217170000Y-95250000D03*
X219710000Y-95250000D03*
X222250000Y-95250000D03*
X224790000Y-95250000D03*
X227330000Y-95250000D03*
X229870000Y-95250000D03*
X232410000Y-95250000D03*
X234950000Y-95250000D03*
X237490000Y-95250000D03*
X240030000Y-95250000D03*
D11*
X242570000Y-95250000D03*
%TD*%
M02*
