%TF.GenerationSoftware,KiCad,Pcbnew,(6.0.6)*%
%TF.CreationDate,2022-09-03T22:19:59-07:00*%
%TF.ProjectId,NourK,4e6f7572-4b2e-46b6-9963-61645f706362,rev?*%
%TF.SameCoordinates,Original*%
%TF.FileFunction,Other,Comment*%
%FSLAX46Y46*%
G04 Gerber Fmt 4.6, Leading zero omitted, Abs format (unit mm)*
G04 Created by KiCad (PCBNEW (6.0.6)) date 2022-09-03 22:19:59*
%MOMM*%
%LPD*%
G01*
G04 APERTURE LIST*
%ADD10C,0.100000*%
%ADD11C,0.150000*%
G04 APERTURE END LIST*
D10*
%TO.C,SW53*%
X53083333Y-225726190D02*
X53083333Y-225226190D01*
X53202380Y-225226190D01*
X53273809Y-225250000D01*
X53321428Y-225297619D01*
X53345238Y-225345238D01*
X53369047Y-225440476D01*
X53369047Y-225511904D01*
X53345238Y-225607142D01*
X53321428Y-225654761D01*
X53273809Y-225702380D01*
X53202380Y-225726190D01*
X53083333Y-225726190D01*
X53583333Y-225726190D02*
X53583333Y-225392857D01*
X53583333Y-225226190D02*
X53559523Y-225250000D01*
X53583333Y-225273809D01*
X53607142Y-225250000D01*
X53583333Y-225226190D01*
X53583333Y-225273809D01*
X53892857Y-225726190D02*
X53845238Y-225702380D01*
X53821428Y-225678571D01*
X53797619Y-225630952D01*
X53797619Y-225488095D01*
X53821428Y-225440476D01*
X53845238Y-225416666D01*
X53892857Y-225392857D01*
X53964285Y-225392857D01*
X54011904Y-225416666D01*
X54035714Y-225440476D01*
X54059523Y-225488095D01*
X54059523Y-225630952D01*
X54035714Y-225678571D01*
X54011904Y-225702380D01*
X53964285Y-225726190D01*
X53892857Y-225726190D01*
X54488095Y-225726190D02*
X54488095Y-225226190D01*
X54488095Y-225702380D02*
X54440476Y-225726190D01*
X54345238Y-225726190D01*
X54297619Y-225702380D01*
X54273809Y-225678571D01*
X54250000Y-225630952D01*
X54250000Y-225488095D01*
X54273809Y-225440476D01*
X54297619Y-225416666D01*
X54345238Y-225392857D01*
X54440476Y-225392857D01*
X54488095Y-225416666D01*
X54916666Y-225702380D02*
X54869047Y-225726190D01*
X54773809Y-225726190D01*
X54726190Y-225702380D01*
X54702380Y-225654761D01*
X54702380Y-225464285D01*
X54726190Y-225416666D01*
X54773809Y-225392857D01*
X54869047Y-225392857D01*
X54916666Y-225416666D01*
X54940476Y-225464285D01*
X54940476Y-225511904D01*
X54702380Y-225559523D01*
%TO.C,SW36*%
X129083333Y-206726190D02*
X129083333Y-206226190D01*
X129202380Y-206226190D01*
X129273809Y-206250000D01*
X129321428Y-206297619D01*
X129345238Y-206345238D01*
X129369047Y-206440476D01*
X129369047Y-206511904D01*
X129345238Y-206607142D01*
X129321428Y-206654761D01*
X129273809Y-206702380D01*
X129202380Y-206726190D01*
X129083333Y-206726190D01*
X129583333Y-206726190D02*
X129583333Y-206392857D01*
X129583333Y-206226190D02*
X129559523Y-206250000D01*
X129583333Y-206273809D01*
X129607142Y-206250000D01*
X129583333Y-206226190D01*
X129583333Y-206273809D01*
X129892857Y-206726190D02*
X129845238Y-206702380D01*
X129821428Y-206678571D01*
X129797619Y-206630952D01*
X129797619Y-206488095D01*
X129821428Y-206440476D01*
X129845238Y-206416666D01*
X129892857Y-206392857D01*
X129964285Y-206392857D01*
X130011904Y-206416666D01*
X130035714Y-206440476D01*
X130059523Y-206488095D01*
X130059523Y-206630952D01*
X130035714Y-206678571D01*
X130011904Y-206702380D01*
X129964285Y-206726190D01*
X129892857Y-206726190D01*
X130488095Y-206726190D02*
X130488095Y-206226190D01*
X130488095Y-206702380D02*
X130440476Y-206726190D01*
X130345238Y-206726190D01*
X130297619Y-206702380D01*
X130273809Y-206678571D01*
X130250000Y-206630952D01*
X130250000Y-206488095D01*
X130273809Y-206440476D01*
X130297619Y-206416666D01*
X130345238Y-206392857D01*
X130440476Y-206392857D01*
X130488095Y-206416666D01*
X130916666Y-206702380D02*
X130869047Y-206726190D01*
X130773809Y-206726190D01*
X130726190Y-206702380D01*
X130702380Y-206654761D01*
X130702380Y-206464285D01*
X130726190Y-206416666D01*
X130773809Y-206392857D01*
X130869047Y-206392857D01*
X130916666Y-206416666D01*
X130940476Y-206464285D01*
X130940476Y-206511904D01*
X130702380Y-206559523D01*
%TO.C,SW33*%
X148083333Y-206726190D02*
X148083333Y-206226190D01*
X148202380Y-206226190D01*
X148273809Y-206250000D01*
X148321428Y-206297619D01*
X148345238Y-206345238D01*
X148369047Y-206440476D01*
X148369047Y-206511904D01*
X148345238Y-206607142D01*
X148321428Y-206654761D01*
X148273809Y-206702380D01*
X148202380Y-206726190D01*
X148083333Y-206726190D01*
X148583333Y-206726190D02*
X148583333Y-206392857D01*
X148583333Y-206226190D02*
X148559523Y-206250000D01*
X148583333Y-206273809D01*
X148607142Y-206250000D01*
X148583333Y-206226190D01*
X148583333Y-206273809D01*
X148892857Y-206726190D02*
X148845238Y-206702380D01*
X148821428Y-206678571D01*
X148797619Y-206630952D01*
X148797619Y-206488095D01*
X148821428Y-206440476D01*
X148845238Y-206416666D01*
X148892857Y-206392857D01*
X148964285Y-206392857D01*
X149011904Y-206416666D01*
X149035714Y-206440476D01*
X149059523Y-206488095D01*
X149059523Y-206630952D01*
X149035714Y-206678571D01*
X149011904Y-206702380D01*
X148964285Y-206726190D01*
X148892857Y-206726190D01*
X149488095Y-206726190D02*
X149488095Y-206226190D01*
X149488095Y-206702380D02*
X149440476Y-206726190D01*
X149345238Y-206726190D01*
X149297619Y-206702380D01*
X149273809Y-206678571D01*
X149250000Y-206630952D01*
X149250000Y-206488095D01*
X149273809Y-206440476D01*
X149297619Y-206416666D01*
X149345238Y-206392857D01*
X149440476Y-206392857D01*
X149488095Y-206416666D01*
X149916666Y-206702380D02*
X149869047Y-206726190D01*
X149773809Y-206726190D01*
X149726190Y-206702380D01*
X149702380Y-206654761D01*
X149702380Y-206464285D01*
X149726190Y-206416666D01*
X149773809Y-206392857D01*
X149869047Y-206392857D01*
X149916666Y-206416666D01*
X149940476Y-206464285D01*
X149940476Y-206511904D01*
X149702380Y-206559523D01*
%TO.C,SW13*%
X129083333Y-127726190D02*
X129083333Y-127226190D01*
X129202380Y-127226190D01*
X129273809Y-127250000D01*
X129321428Y-127297619D01*
X129345238Y-127345238D01*
X129369047Y-127440476D01*
X129369047Y-127511904D01*
X129345238Y-127607142D01*
X129321428Y-127654761D01*
X129273809Y-127702380D01*
X129202380Y-127726190D01*
X129083333Y-127726190D01*
X129583333Y-127726190D02*
X129583333Y-127392857D01*
X129583333Y-127226190D02*
X129559523Y-127250000D01*
X129583333Y-127273809D01*
X129607142Y-127250000D01*
X129583333Y-127226190D01*
X129583333Y-127273809D01*
X129892857Y-127726190D02*
X129845238Y-127702380D01*
X129821428Y-127678571D01*
X129797619Y-127630952D01*
X129797619Y-127488095D01*
X129821428Y-127440476D01*
X129845238Y-127416666D01*
X129892857Y-127392857D01*
X129964285Y-127392857D01*
X130011904Y-127416666D01*
X130035714Y-127440476D01*
X130059523Y-127488095D01*
X130059523Y-127630952D01*
X130035714Y-127678571D01*
X130011904Y-127702380D01*
X129964285Y-127726190D01*
X129892857Y-127726190D01*
X130488095Y-127726190D02*
X130488095Y-127226190D01*
X130488095Y-127702380D02*
X130440476Y-127726190D01*
X130345238Y-127726190D01*
X130297619Y-127702380D01*
X130273809Y-127678571D01*
X130250000Y-127630952D01*
X130250000Y-127488095D01*
X130273809Y-127440476D01*
X130297619Y-127416666D01*
X130345238Y-127392857D01*
X130440476Y-127392857D01*
X130488095Y-127416666D01*
X130916666Y-127702380D02*
X130869047Y-127726190D01*
X130773809Y-127726190D01*
X130726190Y-127702380D01*
X130702380Y-127654761D01*
X130702380Y-127464285D01*
X130726190Y-127416666D01*
X130773809Y-127392857D01*
X130869047Y-127392857D01*
X130916666Y-127416666D01*
X130940476Y-127464285D01*
X130940476Y-127511904D01*
X130702380Y-127559523D01*
%TO.C,SW49*%
X72083333Y-223726190D02*
X72083333Y-223226190D01*
X72202380Y-223226190D01*
X72273809Y-223250000D01*
X72321428Y-223297619D01*
X72345238Y-223345238D01*
X72369047Y-223440476D01*
X72369047Y-223511904D01*
X72345238Y-223607142D01*
X72321428Y-223654761D01*
X72273809Y-223702380D01*
X72202380Y-223726190D01*
X72083333Y-223726190D01*
X72583333Y-223726190D02*
X72583333Y-223392857D01*
X72583333Y-223226190D02*
X72559523Y-223250000D01*
X72583333Y-223273809D01*
X72607142Y-223250000D01*
X72583333Y-223226190D01*
X72583333Y-223273809D01*
X72892857Y-223726190D02*
X72845238Y-223702380D01*
X72821428Y-223678571D01*
X72797619Y-223630952D01*
X72797619Y-223488095D01*
X72821428Y-223440476D01*
X72845238Y-223416666D01*
X72892857Y-223392857D01*
X72964285Y-223392857D01*
X73011904Y-223416666D01*
X73035714Y-223440476D01*
X73059523Y-223488095D01*
X73059523Y-223630952D01*
X73035714Y-223678571D01*
X73011904Y-223702380D01*
X72964285Y-223726190D01*
X72892857Y-223726190D01*
X73488095Y-223726190D02*
X73488095Y-223226190D01*
X73488095Y-223702380D02*
X73440476Y-223726190D01*
X73345238Y-223726190D01*
X73297619Y-223702380D01*
X73273809Y-223678571D01*
X73250000Y-223630952D01*
X73250000Y-223488095D01*
X73273809Y-223440476D01*
X73297619Y-223416666D01*
X73345238Y-223392857D01*
X73440476Y-223392857D01*
X73488095Y-223416666D01*
X73916666Y-223702380D02*
X73869047Y-223726190D01*
X73773809Y-223726190D01*
X73726190Y-223702380D01*
X73702380Y-223654761D01*
X73702380Y-223464285D01*
X73726190Y-223416666D01*
X73773809Y-223392857D01*
X73869047Y-223392857D01*
X73916666Y-223416666D01*
X73940476Y-223464285D01*
X73940476Y-223511904D01*
X73702380Y-223559523D01*
%TO.C,SW8*%
X148083333Y-114726190D02*
X148083333Y-114226190D01*
X148202380Y-114226190D01*
X148273809Y-114250000D01*
X148321428Y-114297619D01*
X148345238Y-114345238D01*
X148369047Y-114440476D01*
X148369047Y-114511904D01*
X148345238Y-114607142D01*
X148321428Y-114654761D01*
X148273809Y-114702380D01*
X148202380Y-114726190D01*
X148083333Y-114726190D01*
X148583333Y-114726190D02*
X148583333Y-114392857D01*
X148583333Y-114226190D02*
X148559523Y-114250000D01*
X148583333Y-114273809D01*
X148607142Y-114250000D01*
X148583333Y-114226190D01*
X148583333Y-114273809D01*
X148892857Y-114726190D02*
X148845238Y-114702380D01*
X148821428Y-114678571D01*
X148797619Y-114630952D01*
X148797619Y-114488095D01*
X148821428Y-114440476D01*
X148845238Y-114416666D01*
X148892857Y-114392857D01*
X148964285Y-114392857D01*
X149011904Y-114416666D01*
X149035714Y-114440476D01*
X149059523Y-114488095D01*
X149059523Y-114630952D01*
X149035714Y-114678571D01*
X149011904Y-114702380D01*
X148964285Y-114726190D01*
X148892857Y-114726190D01*
X149488095Y-114726190D02*
X149488095Y-114226190D01*
X149488095Y-114702380D02*
X149440476Y-114726190D01*
X149345238Y-114726190D01*
X149297619Y-114702380D01*
X149273809Y-114678571D01*
X149250000Y-114630952D01*
X149250000Y-114488095D01*
X149273809Y-114440476D01*
X149297619Y-114416666D01*
X149345238Y-114392857D01*
X149440476Y-114392857D01*
X149488095Y-114416666D01*
X149916666Y-114702380D02*
X149869047Y-114726190D01*
X149773809Y-114726190D01*
X149726190Y-114702380D01*
X149702380Y-114654761D01*
X149702380Y-114464285D01*
X149726190Y-114416666D01*
X149773809Y-114392857D01*
X149869047Y-114392857D01*
X149916666Y-114416666D01*
X149940476Y-114464285D01*
X149940476Y-114511904D01*
X149702380Y-114559523D01*
%TO.C,SW26*%
X53083333Y-97726190D02*
X53083333Y-97226190D01*
X53202380Y-97226190D01*
X53273809Y-97250000D01*
X53321428Y-97297619D01*
X53345238Y-97345238D01*
X53369047Y-97440476D01*
X53369047Y-97511904D01*
X53345238Y-97607142D01*
X53321428Y-97654761D01*
X53273809Y-97702380D01*
X53202380Y-97726190D01*
X53083333Y-97726190D01*
X53583333Y-97726190D02*
X53583333Y-97392857D01*
X53583333Y-97226190D02*
X53559523Y-97250000D01*
X53583333Y-97273809D01*
X53607142Y-97250000D01*
X53583333Y-97226190D01*
X53583333Y-97273809D01*
X53892857Y-97726190D02*
X53845238Y-97702380D01*
X53821428Y-97678571D01*
X53797619Y-97630952D01*
X53797619Y-97488095D01*
X53821428Y-97440476D01*
X53845238Y-97416666D01*
X53892857Y-97392857D01*
X53964285Y-97392857D01*
X54011904Y-97416666D01*
X54035714Y-97440476D01*
X54059523Y-97488095D01*
X54059523Y-97630952D01*
X54035714Y-97678571D01*
X54011904Y-97702380D01*
X53964285Y-97726190D01*
X53892857Y-97726190D01*
X54488095Y-97726190D02*
X54488095Y-97226190D01*
X54488095Y-97702380D02*
X54440476Y-97726190D01*
X54345238Y-97726190D01*
X54297619Y-97702380D01*
X54273809Y-97678571D01*
X54250000Y-97630952D01*
X54250000Y-97488095D01*
X54273809Y-97440476D01*
X54297619Y-97416666D01*
X54345238Y-97392857D01*
X54440476Y-97392857D01*
X54488095Y-97416666D01*
X54916666Y-97702380D02*
X54869047Y-97726190D01*
X54773809Y-97726190D01*
X54726190Y-97702380D01*
X54702380Y-97654761D01*
X54702380Y-97464285D01*
X54726190Y-97416666D01*
X54773809Y-97392857D01*
X54869047Y-97392857D01*
X54916666Y-97416666D01*
X54940476Y-97464285D01*
X54940476Y-97511904D01*
X54702380Y-97559523D01*
%TO.C,SW23*%
X72083333Y-97726190D02*
X72083333Y-97226190D01*
X72202380Y-97226190D01*
X72273809Y-97250000D01*
X72321428Y-97297619D01*
X72345238Y-97345238D01*
X72369047Y-97440476D01*
X72369047Y-97511904D01*
X72345238Y-97607142D01*
X72321428Y-97654761D01*
X72273809Y-97702380D01*
X72202380Y-97726190D01*
X72083333Y-97726190D01*
X72583333Y-97726190D02*
X72583333Y-97392857D01*
X72583333Y-97226190D02*
X72559523Y-97250000D01*
X72583333Y-97273809D01*
X72607142Y-97250000D01*
X72583333Y-97226190D01*
X72583333Y-97273809D01*
X72892857Y-97726190D02*
X72845238Y-97702380D01*
X72821428Y-97678571D01*
X72797619Y-97630952D01*
X72797619Y-97488095D01*
X72821428Y-97440476D01*
X72845238Y-97416666D01*
X72892857Y-97392857D01*
X72964285Y-97392857D01*
X73011904Y-97416666D01*
X73035714Y-97440476D01*
X73059523Y-97488095D01*
X73059523Y-97630952D01*
X73035714Y-97678571D01*
X73011904Y-97702380D01*
X72964285Y-97726190D01*
X72892857Y-97726190D01*
X73488095Y-97726190D02*
X73488095Y-97226190D01*
X73488095Y-97702380D02*
X73440476Y-97726190D01*
X73345238Y-97726190D01*
X73297619Y-97702380D01*
X73273809Y-97678571D01*
X73250000Y-97630952D01*
X73250000Y-97488095D01*
X73273809Y-97440476D01*
X73297619Y-97416666D01*
X73345238Y-97392857D01*
X73440476Y-97392857D01*
X73488095Y-97416666D01*
X73916666Y-97702380D02*
X73869047Y-97726190D01*
X73773809Y-97726190D01*
X73726190Y-97702380D01*
X73702380Y-97654761D01*
X73702380Y-97464285D01*
X73726190Y-97416666D01*
X73773809Y-97392857D01*
X73869047Y-97392857D01*
X73916666Y-97416666D01*
X73940476Y-97464285D01*
X73940476Y-97511904D01*
X73702380Y-97559523D01*
%TO.C,SW18*%
X110083333Y-149726190D02*
X110083333Y-149226190D01*
X110202380Y-149226190D01*
X110273809Y-149250000D01*
X110321428Y-149297619D01*
X110345238Y-149345238D01*
X110369047Y-149440476D01*
X110369047Y-149511904D01*
X110345238Y-149607142D01*
X110321428Y-149654761D01*
X110273809Y-149702380D01*
X110202380Y-149726190D01*
X110083333Y-149726190D01*
X110583333Y-149726190D02*
X110583333Y-149392857D01*
X110583333Y-149226190D02*
X110559523Y-149250000D01*
X110583333Y-149273809D01*
X110607142Y-149250000D01*
X110583333Y-149226190D01*
X110583333Y-149273809D01*
X110892857Y-149726190D02*
X110845238Y-149702380D01*
X110821428Y-149678571D01*
X110797619Y-149630952D01*
X110797619Y-149488095D01*
X110821428Y-149440476D01*
X110845238Y-149416666D01*
X110892857Y-149392857D01*
X110964285Y-149392857D01*
X111011904Y-149416666D01*
X111035714Y-149440476D01*
X111059523Y-149488095D01*
X111059523Y-149630952D01*
X111035714Y-149678571D01*
X111011904Y-149702380D01*
X110964285Y-149726190D01*
X110892857Y-149726190D01*
X111488095Y-149726190D02*
X111488095Y-149226190D01*
X111488095Y-149702380D02*
X111440476Y-149726190D01*
X111345238Y-149726190D01*
X111297619Y-149702380D01*
X111273809Y-149678571D01*
X111250000Y-149630952D01*
X111250000Y-149488095D01*
X111273809Y-149440476D01*
X111297619Y-149416666D01*
X111345238Y-149392857D01*
X111440476Y-149392857D01*
X111488095Y-149416666D01*
X111916666Y-149702380D02*
X111869047Y-149726190D01*
X111773809Y-149726190D01*
X111726190Y-149702380D01*
X111702380Y-149654761D01*
X111702380Y-149464285D01*
X111726190Y-149416666D01*
X111773809Y-149392857D01*
X111869047Y-149392857D01*
X111916666Y-149416666D01*
X111940476Y-149464285D01*
X111940476Y-149511904D01*
X111702380Y-149559523D01*
%TO.C,SW21*%
X91083333Y-135726190D02*
X91083333Y-135226190D01*
X91202380Y-135226190D01*
X91273809Y-135250000D01*
X91321428Y-135297619D01*
X91345238Y-135345238D01*
X91369047Y-135440476D01*
X91369047Y-135511904D01*
X91345238Y-135607142D01*
X91321428Y-135654761D01*
X91273809Y-135702380D01*
X91202380Y-135726190D01*
X91083333Y-135726190D01*
X91583333Y-135726190D02*
X91583333Y-135392857D01*
X91583333Y-135226190D02*
X91559523Y-135250000D01*
X91583333Y-135273809D01*
X91607142Y-135250000D01*
X91583333Y-135226190D01*
X91583333Y-135273809D01*
X91892857Y-135726190D02*
X91845238Y-135702380D01*
X91821428Y-135678571D01*
X91797619Y-135630952D01*
X91797619Y-135488095D01*
X91821428Y-135440476D01*
X91845238Y-135416666D01*
X91892857Y-135392857D01*
X91964285Y-135392857D01*
X92011904Y-135416666D01*
X92035714Y-135440476D01*
X92059523Y-135488095D01*
X92059523Y-135630952D01*
X92035714Y-135678571D01*
X92011904Y-135702380D01*
X91964285Y-135726190D01*
X91892857Y-135726190D01*
X92488095Y-135726190D02*
X92488095Y-135226190D01*
X92488095Y-135702380D02*
X92440476Y-135726190D01*
X92345238Y-135726190D01*
X92297619Y-135702380D01*
X92273809Y-135678571D01*
X92250000Y-135630952D01*
X92250000Y-135488095D01*
X92273809Y-135440476D01*
X92297619Y-135416666D01*
X92345238Y-135392857D01*
X92440476Y-135392857D01*
X92488095Y-135416666D01*
X92916666Y-135702380D02*
X92869047Y-135726190D01*
X92773809Y-135726190D01*
X92726190Y-135702380D01*
X92702380Y-135654761D01*
X92702380Y-135464285D01*
X92726190Y-135416666D01*
X92773809Y-135392857D01*
X92869047Y-135392857D01*
X92916666Y-135416666D01*
X92940476Y-135464285D01*
X92940476Y-135511904D01*
X92702380Y-135559523D01*
%TO.C,SW11*%
X129083333Y-89726190D02*
X129083333Y-89226190D01*
X129202380Y-89226190D01*
X129273809Y-89250000D01*
X129321428Y-89297619D01*
X129345238Y-89345238D01*
X129369047Y-89440476D01*
X129369047Y-89511904D01*
X129345238Y-89607142D01*
X129321428Y-89654761D01*
X129273809Y-89702380D01*
X129202380Y-89726190D01*
X129083333Y-89726190D01*
X129583333Y-89726190D02*
X129583333Y-89392857D01*
X129583333Y-89226190D02*
X129559523Y-89250000D01*
X129583333Y-89273809D01*
X129607142Y-89250000D01*
X129583333Y-89226190D01*
X129583333Y-89273809D01*
X129892857Y-89726190D02*
X129845238Y-89702380D01*
X129821428Y-89678571D01*
X129797619Y-89630952D01*
X129797619Y-89488095D01*
X129821428Y-89440476D01*
X129845238Y-89416666D01*
X129892857Y-89392857D01*
X129964285Y-89392857D01*
X130011904Y-89416666D01*
X130035714Y-89440476D01*
X130059523Y-89488095D01*
X130059523Y-89630952D01*
X130035714Y-89678571D01*
X130011904Y-89702380D01*
X129964285Y-89726190D01*
X129892857Y-89726190D01*
X130488095Y-89726190D02*
X130488095Y-89226190D01*
X130488095Y-89702380D02*
X130440476Y-89726190D01*
X130345238Y-89726190D01*
X130297619Y-89702380D01*
X130273809Y-89678571D01*
X130250000Y-89630952D01*
X130250000Y-89488095D01*
X130273809Y-89440476D01*
X130297619Y-89416666D01*
X130345238Y-89392857D01*
X130440476Y-89392857D01*
X130488095Y-89416666D01*
X130916666Y-89702380D02*
X130869047Y-89726190D01*
X130773809Y-89726190D01*
X130726190Y-89702380D01*
X130702380Y-89654761D01*
X130702380Y-89464285D01*
X130726190Y-89416666D01*
X130773809Y-89392857D01*
X130869047Y-89392857D01*
X130916666Y-89416666D01*
X130940476Y-89464285D01*
X130940476Y-89511904D01*
X130702380Y-89559523D01*
%TO.C,SW4*%
X167083333Y-116726190D02*
X167083333Y-116226190D01*
X167202380Y-116226190D01*
X167273809Y-116250000D01*
X167321428Y-116297619D01*
X167345238Y-116345238D01*
X167369047Y-116440476D01*
X167369047Y-116511904D01*
X167345238Y-116607142D01*
X167321428Y-116654761D01*
X167273809Y-116702380D01*
X167202380Y-116726190D01*
X167083333Y-116726190D01*
X167583333Y-116726190D02*
X167583333Y-116392857D01*
X167583333Y-116226190D02*
X167559523Y-116250000D01*
X167583333Y-116273809D01*
X167607142Y-116250000D01*
X167583333Y-116226190D01*
X167583333Y-116273809D01*
X167892857Y-116726190D02*
X167845238Y-116702380D01*
X167821428Y-116678571D01*
X167797619Y-116630952D01*
X167797619Y-116488095D01*
X167821428Y-116440476D01*
X167845238Y-116416666D01*
X167892857Y-116392857D01*
X167964285Y-116392857D01*
X168011904Y-116416666D01*
X168035714Y-116440476D01*
X168059523Y-116488095D01*
X168059523Y-116630952D01*
X168035714Y-116678571D01*
X168011904Y-116702380D01*
X167964285Y-116726190D01*
X167892857Y-116726190D01*
X168488095Y-116726190D02*
X168488095Y-116226190D01*
X168488095Y-116702380D02*
X168440476Y-116726190D01*
X168345238Y-116726190D01*
X168297619Y-116702380D01*
X168273809Y-116678571D01*
X168250000Y-116630952D01*
X168250000Y-116488095D01*
X168273809Y-116440476D01*
X168297619Y-116416666D01*
X168345238Y-116392857D01*
X168440476Y-116392857D01*
X168488095Y-116416666D01*
X168916666Y-116702380D02*
X168869047Y-116726190D01*
X168773809Y-116726190D01*
X168726190Y-116702380D01*
X168702380Y-116654761D01*
X168702380Y-116464285D01*
X168726190Y-116416666D01*
X168773809Y-116392857D01*
X168869047Y-116392857D01*
X168916666Y-116416666D01*
X168940476Y-116464285D01*
X168940476Y-116511904D01*
X168702380Y-116559523D01*
%TO.C,SW45*%
X91083333Y-217726190D02*
X91083333Y-217226190D01*
X91202380Y-217226190D01*
X91273809Y-217250000D01*
X91321428Y-217297619D01*
X91345238Y-217345238D01*
X91369047Y-217440476D01*
X91369047Y-217511904D01*
X91345238Y-217607142D01*
X91321428Y-217654761D01*
X91273809Y-217702380D01*
X91202380Y-217726190D01*
X91083333Y-217726190D01*
X91583333Y-217726190D02*
X91583333Y-217392857D01*
X91583333Y-217226190D02*
X91559523Y-217250000D01*
X91583333Y-217273809D01*
X91607142Y-217250000D01*
X91583333Y-217226190D01*
X91583333Y-217273809D01*
X91892857Y-217726190D02*
X91845238Y-217702380D01*
X91821428Y-217678571D01*
X91797619Y-217630952D01*
X91797619Y-217488095D01*
X91821428Y-217440476D01*
X91845238Y-217416666D01*
X91892857Y-217392857D01*
X91964285Y-217392857D01*
X92011904Y-217416666D01*
X92035714Y-217440476D01*
X92059523Y-217488095D01*
X92059523Y-217630952D01*
X92035714Y-217678571D01*
X92011904Y-217702380D01*
X91964285Y-217726190D01*
X91892857Y-217726190D01*
X92488095Y-217726190D02*
X92488095Y-217226190D01*
X92488095Y-217702380D02*
X92440476Y-217726190D01*
X92345238Y-217726190D01*
X92297619Y-217702380D01*
X92273809Y-217678571D01*
X92250000Y-217630952D01*
X92250000Y-217488095D01*
X92273809Y-217440476D01*
X92297619Y-217416666D01*
X92345238Y-217392857D01*
X92440476Y-217392857D01*
X92488095Y-217416666D01*
X92916666Y-217702380D02*
X92869047Y-217726190D01*
X92773809Y-217726190D01*
X92726190Y-217702380D01*
X92702380Y-217654761D01*
X92702380Y-217464285D01*
X92726190Y-217416666D01*
X92773809Y-217392857D01*
X92869047Y-217392857D01*
X92916666Y-217416666D01*
X92940476Y-217464285D01*
X92940476Y-217511904D01*
X92702380Y-217559523D01*
%TO.C,SW41*%
X110083333Y-220726190D02*
X110083333Y-220226190D01*
X110202380Y-220226190D01*
X110273809Y-220250000D01*
X110321428Y-220297619D01*
X110345238Y-220345238D01*
X110369047Y-220440476D01*
X110369047Y-220511904D01*
X110345238Y-220607142D01*
X110321428Y-220654761D01*
X110273809Y-220702380D01*
X110202380Y-220726190D01*
X110083333Y-220726190D01*
X110583333Y-220726190D02*
X110583333Y-220392857D01*
X110583333Y-220226190D02*
X110559523Y-220250000D01*
X110583333Y-220273809D01*
X110607142Y-220250000D01*
X110583333Y-220226190D01*
X110583333Y-220273809D01*
X110892857Y-220726190D02*
X110845238Y-220702380D01*
X110821428Y-220678571D01*
X110797619Y-220630952D01*
X110797619Y-220488095D01*
X110821428Y-220440476D01*
X110845238Y-220416666D01*
X110892857Y-220392857D01*
X110964285Y-220392857D01*
X111011904Y-220416666D01*
X111035714Y-220440476D01*
X111059523Y-220488095D01*
X111059523Y-220630952D01*
X111035714Y-220678571D01*
X111011904Y-220702380D01*
X110964285Y-220726190D01*
X110892857Y-220726190D01*
X111488095Y-220726190D02*
X111488095Y-220226190D01*
X111488095Y-220702380D02*
X111440476Y-220726190D01*
X111345238Y-220726190D01*
X111297619Y-220702380D01*
X111273809Y-220678571D01*
X111250000Y-220630952D01*
X111250000Y-220488095D01*
X111273809Y-220440476D01*
X111297619Y-220416666D01*
X111345238Y-220392857D01*
X111440476Y-220392857D01*
X111488095Y-220416666D01*
X111916666Y-220702380D02*
X111869047Y-220726190D01*
X111773809Y-220726190D01*
X111726190Y-220702380D01*
X111702380Y-220654761D01*
X111702380Y-220464285D01*
X111726190Y-220416666D01*
X111773809Y-220392857D01*
X111869047Y-220392857D01*
X111916666Y-220416666D01*
X111940476Y-220464285D01*
X111940476Y-220511904D01*
X111702380Y-220559523D01*
%TO.C,SW42*%
X110083333Y-239726190D02*
X110083333Y-239226190D01*
X110202380Y-239226190D01*
X110273809Y-239250000D01*
X110321428Y-239297619D01*
X110345238Y-239345238D01*
X110369047Y-239440476D01*
X110369047Y-239511904D01*
X110345238Y-239607142D01*
X110321428Y-239654761D01*
X110273809Y-239702380D01*
X110202380Y-239726190D01*
X110083333Y-239726190D01*
X110583333Y-239726190D02*
X110583333Y-239392857D01*
X110583333Y-239226190D02*
X110559523Y-239250000D01*
X110583333Y-239273809D01*
X110607142Y-239250000D01*
X110583333Y-239226190D01*
X110583333Y-239273809D01*
X110892857Y-239726190D02*
X110845238Y-239702380D01*
X110821428Y-239678571D01*
X110797619Y-239630952D01*
X110797619Y-239488095D01*
X110821428Y-239440476D01*
X110845238Y-239416666D01*
X110892857Y-239392857D01*
X110964285Y-239392857D01*
X111011904Y-239416666D01*
X111035714Y-239440476D01*
X111059523Y-239488095D01*
X111059523Y-239630952D01*
X111035714Y-239678571D01*
X111011904Y-239702380D01*
X110964285Y-239726190D01*
X110892857Y-239726190D01*
X111488095Y-239726190D02*
X111488095Y-239226190D01*
X111488095Y-239702380D02*
X111440476Y-239726190D01*
X111345238Y-239726190D01*
X111297619Y-239702380D01*
X111273809Y-239678571D01*
X111250000Y-239630952D01*
X111250000Y-239488095D01*
X111273809Y-239440476D01*
X111297619Y-239416666D01*
X111345238Y-239392857D01*
X111440476Y-239392857D01*
X111488095Y-239416666D01*
X111916666Y-239702380D02*
X111869047Y-239726190D01*
X111773809Y-239726190D01*
X111726190Y-239702380D01*
X111702380Y-239654761D01*
X111702380Y-239464285D01*
X111726190Y-239416666D01*
X111773809Y-239392857D01*
X111869047Y-239392857D01*
X111916666Y-239416666D01*
X111940476Y-239464285D01*
X111940476Y-239511904D01*
X111702380Y-239559523D01*
%TO.C,SW20*%
X91083333Y-116726190D02*
X91083333Y-116226190D01*
X91202380Y-116226190D01*
X91273809Y-116250000D01*
X91321428Y-116297619D01*
X91345238Y-116345238D01*
X91369047Y-116440476D01*
X91369047Y-116511904D01*
X91345238Y-116607142D01*
X91321428Y-116654761D01*
X91273809Y-116702380D01*
X91202380Y-116726190D01*
X91083333Y-116726190D01*
X91583333Y-116726190D02*
X91583333Y-116392857D01*
X91583333Y-116226190D02*
X91559523Y-116250000D01*
X91583333Y-116273809D01*
X91607142Y-116250000D01*
X91583333Y-116226190D01*
X91583333Y-116273809D01*
X91892857Y-116726190D02*
X91845238Y-116702380D01*
X91821428Y-116678571D01*
X91797619Y-116630952D01*
X91797619Y-116488095D01*
X91821428Y-116440476D01*
X91845238Y-116416666D01*
X91892857Y-116392857D01*
X91964285Y-116392857D01*
X92011904Y-116416666D01*
X92035714Y-116440476D01*
X92059523Y-116488095D01*
X92059523Y-116630952D01*
X92035714Y-116678571D01*
X92011904Y-116702380D01*
X91964285Y-116726190D01*
X91892857Y-116726190D01*
X92488095Y-116726190D02*
X92488095Y-116226190D01*
X92488095Y-116702380D02*
X92440476Y-116726190D01*
X92345238Y-116726190D01*
X92297619Y-116702380D01*
X92273809Y-116678571D01*
X92250000Y-116630952D01*
X92250000Y-116488095D01*
X92273809Y-116440476D01*
X92297619Y-116416666D01*
X92345238Y-116392857D01*
X92440476Y-116392857D01*
X92488095Y-116416666D01*
X92916666Y-116702380D02*
X92869047Y-116726190D01*
X92773809Y-116726190D01*
X92726190Y-116702380D01*
X92702380Y-116654761D01*
X92702380Y-116464285D01*
X92726190Y-116416666D01*
X92773809Y-116392857D01*
X92869047Y-116392857D01*
X92916666Y-116416666D01*
X92940476Y-116464285D01*
X92940476Y-116511904D01*
X92702380Y-116559523D01*
%TO.C,SW40*%
X110083333Y-201726190D02*
X110083333Y-201226190D01*
X110202380Y-201226190D01*
X110273809Y-201250000D01*
X110321428Y-201297619D01*
X110345238Y-201345238D01*
X110369047Y-201440476D01*
X110369047Y-201511904D01*
X110345238Y-201607142D01*
X110321428Y-201654761D01*
X110273809Y-201702380D01*
X110202380Y-201726190D01*
X110083333Y-201726190D01*
X110583333Y-201726190D02*
X110583333Y-201392857D01*
X110583333Y-201226190D02*
X110559523Y-201250000D01*
X110583333Y-201273809D01*
X110607142Y-201250000D01*
X110583333Y-201226190D01*
X110583333Y-201273809D01*
X110892857Y-201726190D02*
X110845238Y-201702380D01*
X110821428Y-201678571D01*
X110797619Y-201630952D01*
X110797619Y-201488095D01*
X110821428Y-201440476D01*
X110845238Y-201416666D01*
X110892857Y-201392857D01*
X110964285Y-201392857D01*
X111011904Y-201416666D01*
X111035714Y-201440476D01*
X111059523Y-201488095D01*
X111059523Y-201630952D01*
X111035714Y-201678571D01*
X111011904Y-201702380D01*
X110964285Y-201726190D01*
X110892857Y-201726190D01*
X111488095Y-201726190D02*
X111488095Y-201226190D01*
X111488095Y-201702380D02*
X111440476Y-201726190D01*
X111345238Y-201726190D01*
X111297619Y-201702380D01*
X111273809Y-201678571D01*
X111250000Y-201630952D01*
X111250000Y-201488095D01*
X111273809Y-201440476D01*
X111297619Y-201416666D01*
X111345238Y-201392857D01*
X111440476Y-201392857D01*
X111488095Y-201416666D01*
X111916666Y-201702380D02*
X111869047Y-201726190D01*
X111773809Y-201726190D01*
X111726190Y-201702380D01*
X111702380Y-201654761D01*
X111702380Y-201464285D01*
X111726190Y-201416666D01*
X111773809Y-201392857D01*
X111869047Y-201392857D01*
X111916666Y-201416666D01*
X111940476Y-201464285D01*
X111940476Y-201511904D01*
X111702380Y-201559523D01*
%TO.C,SW51*%
X53083333Y-187726190D02*
X53083333Y-187226190D01*
X53202380Y-187226190D01*
X53273809Y-187250000D01*
X53321428Y-187297619D01*
X53345238Y-187345238D01*
X53369047Y-187440476D01*
X53369047Y-187511904D01*
X53345238Y-187607142D01*
X53321428Y-187654761D01*
X53273809Y-187702380D01*
X53202380Y-187726190D01*
X53083333Y-187726190D01*
X53583333Y-187726190D02*
X53583333Y-187392857D01*
X53583333Y-187226190D02*
X53559523Y-187250000D01*
X53583333Y-187273809D01*
X53607142Y-187250000D01*
X53583333Y-187226190D01*
X53583333Y-187273809D01*
X53892857Y-187726190D02*
X53845238Y-187702380D01*
X53821428Y-187678571D01*
X53797619Y-187630952D01*
X53797619Y-187488095D01*
X53821428Y-187440476D01*
X53845238Y-187416666D01*
X53892857Y-187392857D01*
X53964285Y-187392857D01*
X54011904Y-187416666D01*
X54035714Y-187440476D01*
X54059523Y-187488095D01*
X54059523Y-187630952D01*
X54035714Y-187678571D01*
X54011904Y-187702380D01*
X53964285Y-187726190D01*
X53892857Y-187726190D01*
X54488095Y-187726190D02*
X54488095Y-187226190D01*
X54488095Y-187702380D02*
X54440476Y-187726190D01*
X54345238Y-187726190D01*
X54297619Y-187702380D01*
X54273809Y-187678571D01*
X54250000Y-187630952D01*
X54250000Y-187488095D01*
X54273809Y-187440476D01*
X54297619Y-187416666D01*
X54345238Y-187392857D01*
X54440476Y-187392857D01*
X54488095Y-187416666D01*
X54916666Y-187702380D02*
X54869047Y-187726190D01*
X54773809Y-187726190D01*
X54726190Y-187702380D01*
X54702380Y-187654761D01*
X54702380Y-187464285D01*
X54726190Y-187416666D01*
X54773809Y-187392857D01*
X54869047Y-187392857D01*
X54916666Y-187416666D01*
X54940476Y-187464285D01*
X54940476Y-187511904D01*
X54702380Y-187559523D01*
%TO.C,SW12*%
X129083333Y-108726190D02*
X129083333Y-108226190D01*
X129202380Y-108226190D01*
X129273809Y-108250000D01*
X129321428Y-108297619D01*
X129345238Y-108345238D01*
X129369047Y-108440476D01*
X129369047Y-108511904D01*
X129345238Y-108607142D01*
X129321428Y-108654761D01*
X129273809Y-108702380D01*
X129202380Y-108726190D01*
X129083333Y-108726190D01*
X129583333Y-108726190D02*
X129583333Y-108392857D01*
X129583333Y-108226190D02*
X129559523Y-108250000D01*
X129583333Y-108273809D01*
X129607142Y-108250000D01*
X129583333Y-108226190D01*
X129583333Y-108273809D01*
X129892857Y-108726190D02*
X129845238Y-108702380D01*
X129821428Y-108678571D01*
X129797619Y-108630952D01*
X129797619Y-108488095D01*
X129821428Y-108440476D01*
X129845238Y-108416666D01*
X129892857Y-108392857D01*
X129964285Y-108392857D01*
X130011904Y-108416666D01*
X130035714Y-108440476D01*
X130059523Y-108488095D01*
X130059523Y-108630952D01*
X130035714Y-108678571D01*
X130011904Y-108702380D01*
X129964285Y-108726190D01*
X129892857Y-108726190D01*
X130488095Y-108726190D02*
X130488095Y-108226190D01*
X130488095Y-108702380D02*
X130440476Y-108726190D01*
X130345238Y-108726190D01*
X130297619Y-108702380D01*
X130273809Y-108678571D01*
X130250000Y-108630952D01*
X130250000Y-108488095D01*
X130273809Y-108440476D01*
X130297619Y-108416666D01*
X130345238Y-108392857D01*
X130440476Y-108392857D01*
X130488095Y-108416666D01*
X130916666Y-108702380D02*
X130869047Y-108726190D01*
X130773809Y-108726190D01*
X130726190Y-108702380D01*
X130702380Y-108654761D01*
X130702380Y-108464285D01*
X130726190Y-108416666D01*
X130773809Y-108392857D01*
X130869047Y-108392857D01*
X130916666Y-108416666D01*
X130940476Y-108464285D01*
X130940476Y-108511904D01*
X130702380Y-108559523D01*
%TO.C,SW37*%
X129083333Y-225726190D02*
X129083333Y-225226190D01*
X129202380Y-225226190D01*
X129273809Y-225250000D01*
X129321428Y-225297619D01*
X129345238Y-225345238D01*
X129369047Y-225440476D01*
X129369047Y-225511904D01*
X129345238Y-225607142D01*
X129321428Y-225654761D01*
X129273809Y-225702380D01*
X129202380Y-225726190D01*
X129083333Y-225726190D01*
X129583333Y-225726190D02*
X129583333Y-225392857D01*
X129583333Y-225226190D02*
X129559523Y-225250000D01*
X129583333Y-225273809D01*
X129607142Y-225250000D01*
X129583333Y-225226190D01*
X129583333Y-225273809D01*
X129892857Y-225726190D02*
X129845238Y-225702380D01*
X129821428Y-225678571D01*
X129797619Y-225630952D01*
X129797619Y-225488095D01*
X129821428Y-225440476D01*
X129845238Y-225416666D01*
X129892857Y-225392857D01*
X129964285Y-225392857D01*
X130011904Y-225416666D01*
X130035714Y-225440476D01*
X130059523Y-225488095D01*
X130059523Y-225630952D01*
X130035714Y-225678571D01*
X130011904Y-225702380D01*
X129964285Y-225726190D01*
X129892857Y-225726190D01*
X130488095Y-225726190D02*
X130488095Y-225226190D01*
X130488095Y-225702380D02*
X130440476Y-225726190D01*
X130345238Y-225726190D01*
X130297619Y-225702380D01*
X130273809Y-225678571D01*
X130250000Y-225630952D01*
X130250000Y-225488095D01*
X130273809Y-225440476D01*
X130297619Y-225416666D01*
X130345238Y-225392857D01*
X130440476Y-225392857D01*
X130488095Y-225416666D01*
X130916666Y-225702380D02*
X130869047Y-225726190D01*
X130773809Y-225726190D01*
X130726190Y-225702380D01*
X130702380Y-225654761D01*
X130702380Y-225464285D01*
X130726190Y-225416666D01*
X130773809Y-225392857D01*
X130869047Y-225392857D01*
X130916666Y-225416666D01*
X130940476Y-225464285D01*
X130940476Y-225511904D01*
X130702380Y-225559523D01*
%TO.C,SW30*%
X167083333Y-187726190D02*
X167083333Y-187226190D01*
X167202380Y-187226190D01*
X167273809Y-187250000D01*
X167321428Y-187297619D01*
X167345238Y-187345238D01*
X167369047Y-187440476D01*
X167369047Y-187511904D01*
X167345238Y-187607142D01*
X167321428Y-187654761D01*
X167273809Y-187702380D01*
X167202380Y-187726190D01*
X167083333Y-187726190D01*
X167583333Y-187726190D02*
X167583333Y-187392857D01*
X167583333Y-187226190D02*
X167559523Y-187250000D01*
X167583333Y-187273809D01*
X167607142Y-187250000D01*
X167583333Y-187226190D01*
X167583333Y-187273809D01*
X167892857Y-187726190D02*
X167845238Y-187702380D01*
X167821428Y-187678571D01*
X167797619Y-187630952D01*
X167797619Y-187488095D01*
X167821428Y-187440476D01*
X167845238Y-187416666D01*
X167892857Y-187392857D01*
X167964285Y-187392857D01*
X168011904Y-187416666D01*
X168035714Y-187440476D01*
X168059523Y-187488095D01*
X168059523Y-187630952D01*
X168035714Y-187678571D01*
X168011904Y-187702380D01*
X167964285Y-187726190D01*
X167892857Y-187726190D01*
X168488095Y-187726190D02*
X168488095Y-187226190D01*
X168488095Y-187702380D02*
X168440476Y-187726190D01*
X168345238Y-187726190D01*
X168297619Y-187702380D01*
X168273809Y-187678571D01*
X168250000Y-187630952D01*
X168250000Y-187488095D01*
X168273809Y-187440476D01*
X168297619Y-187416666D01*
X168345238Y-187392857D01*
X168440476Y-187392857D01*
X168488095Y-187416666D01*
X168916666Y-187702380D02*
X168869047Y-187726190D01*
X168773809Y-187726190D01*
X168726190Y-187702380D01*
X168702380Y-187654761D01*
X168702380Y-187464285D01*
X168726190Y-187416666D01*
X168773809Y-187392857D01*
X168869047Y-187392857D01*
X168916666Y-187416666D01*
X168940476Y-187464285D01*
X168940476Y-187511904D01*
X168702380Y-187559523D01*
%TO.C,SW25*%
X68583333Y-135726190D02*
X68583333Y-135226190D01*
X68702380Y-135226190D01*
X68773809Y-135250000D01*
X68821428Y-135297619D01*
X68845238Y-135345238D01*
X68869047Y-135440476D01*
X68869047Y-135511904D01*
X68845238Y-135607142D01*
X68821428Y-135654761D01*
X68773809Y-135702380D01*
X68702380Y-135726190D01*
X68583333Y-135726190D01*
X69083333Y-135726190D02*
X69083333Y-135392857D01*
X69083333Y-135226190D02*
X69059523Y-135250000D01*
X69083333Y-135273809D01*
X69107142Y-135250000D01*
X69083333Y-135226190D01*
X69083333Y-135273809D01*
X69392857Y-135726190D02*
X69345238Y-135702380D01*
X69321428Y-135678571D01*
X69297619Y-135630952D01*
X69297619Y-135488095D01*
X69321428Y-135440476D01*
X69345238Y-135416666D01*
X69392857Y-135392857D01*
X69464285Y-135392857D01*
X69511904Y-135416666D01*
X69535714Y-135440476D01*
X69559523Y-135488095D01*
X69559523Y-135630952D01*
X69535714Y-135678571D01*
X69511904Y-135702380D01*
X69464285Y-135726190D01*
X69392857Y-135726190D01*
X69988095Y-135726190D02*
X69988095Y-135226190D01*
X69988095Y-135702380D02*
X69940476Y-135726190D01*
X69845238Y-135726190D01*
X69797619Y-135702380D01*
X69773809Y-135678571D01*
X69750000Y-135630952D01*
X69750000Y-135488095D01*
X69773809Y-135440476D01*
X69797619Y-135416666D01*
X69845238Y-135392857D01*
X69940476Y-135392857D01*
X69988095Y-135416666D01*
X70416666Y-135702380D02*
X70369047Y-135726190D01*
X70273809Y-135726190D01*
X70226190Y-135702380D01*
X70202380Y-135654761D01*
X70202380Y-135464285D01*
X70226190Y-135416666D01*
X70273809Y-135392857D01*
X70369047Y-135392857D01*
X70416666Y-135416666D01*
X70440476Y-135464285D01*
X70440476Y-135511904D01*
X70202380Y-135559523D01*
%TO.C,SW19*%
X91083333Y-97726190D02*
X91083333Y-97226190D01*
X91202380Y-97226190D01*
X91273809Y-97250000D01*
X91321428Y-97297619D01*
X91345238Y-97345238D01*
X91369047Y-97440476D01*
X91369047Y-97511904D01*
X91345238Y-97607142D01*
X91321428Y-97654761D01*
X91273809Y-97702380D01*
X91202380Y-97726190D01*
X91083333Y-97726190D01*
X91583333Y-97726190D02*
X91583333Y-97392857D01*
X91583333Y-97226190D02*
X91559523Y-97250000D01*
X91583333Y-97273809D01*
X91607142Y-97250000D01*
X91583333Y-97226190D01*
X91583333Y-97273809D01*
X91892857Y-97726190D02*
X91845238Y-97702380D01*
X91821428Y-97678571D01*
X91797619Y-97630952D01*
X91797619Y-97488095D01*
X91821428Y-97440476D01*
X91845238Y-97416666D01*
X91892857Y-97392857D01*
X91964285Y-97392857D01*
X92011904Y-97416666D01*
X92035714Y-97440476D01*
X92059523Y-97488095D01*
X92059523Y-97630952D01*
X92035714Y-97678571D01*
X92011904Y-97702380D01*
X91964285Y-97726190D01*
X91892857Y-97726190D01*
X92488095Y-97726190D02*
X92488095Y-97226190D01*
X92488095Y-97702380D02*
X92440476Y-97726190D01*
X92345238Y-97726190D01*
X92297619Y-97702380D01*
X92273809Y-97678571D01*
X92250000Y-97630952D01*
X92250000Y-97488095D01*
X92273809Y-97440476D01*
X92297619Y-97416666D01*
X92345238Y-97392857D01*
X92440476Y-97392857D01*
X92488095Y-97416666D01*
X92916666Y-97702380D02*
X92869047Y-97726190D01*
X92773809Y-97726190D01*
X92726190Y-97702380D01*
X92702380Y-97654761D01*
X92702380Y-97464285D01*
X92726190Y-97416666D01*
X92773809Y-97392857D01*
X92869047Y-97392857D01*
X92916666Y-97416666D01*
X92940476Y-97464285D01*
X92940476Y-97511904D01*
X92702380Y-97559523D01*
%TO.C,SW52*%
X53083333Y-206726190D02*
X53083333Y-206226190D01*
X53202380Y-206226190D01*
X53273809Y-206250000D01*
X53321428Y-206297619D01*
X53345238Y-206345238D01*
X53369047Y-206440476D01*
X53369047Y-206511904D01*
X53345238Y-206607142D01*
X53321428Y-206654761D01*
X53273809Y-206702380D01*
X53202380Y-206726190D01*
X53083333Y-206726190D01*
X53583333Y-206726190D02*
X53583333Y-206392857D01*
X53583333Y-206226190D02*
X53559523Y-206250000D01*
X53583333Y-206273809D01*
X53607142Y-206250000D01*
X53583333Y-206226190D01*
X53583333Y-206273809D01*
X53892857Y-206726190D02*
X53845238Y-206702380D01*
X53821428Y-206678571D01*
X53797619Y-206630952D01*
X53797619Y-206488095D01*
X53821428Y-206440476D01*
X53845238Y-206416666D01*
X53892857Y-206392857D01*
X53964285Y-206392857D01*
X54011904Y-206416666D01*
X54035714Y-206440476D01*
X54059523Y-206488095D01*
X54059523Y-206630952D01*
X54035714Y-206678571D01*
X54011904Y-206702380D01*
X53964285Y-206726190D01*
X53892857Y-206726190D01*
X54488095Y-206726190D02*
X54488095Y-206226190D01*
X54488095Y-206702380D02*
X54440476Y-206726190D01*
X54345238Y-206726190D01*
X54297619Y-206702380D01*
X54273809Y-206678571D01*
X54250000Y-206630952D01*
X54250000Y-206488095D01*
X54273809Y-206440476D01*
X54297619Y-206416666D01*
X54345238Y-206392857D01*
X54440476Y-206392857D01*
X54488095Y-206416666D01*
X54916666Y-206702380D02*
X54869047Y-206726190D01*
X54773809Y-206726190D01*
X54726190Y-206702380D01*
X54702380Y-206654761D01*
X54702380Y-206464285D01*
X54726190Y-206416666D01*
X54773809Y-206392857D01*
X54869047Y-206392857D01*
X54916666Y-206416666D01*
X54940476Y-206464285D01*
X54940476Y-206511904D01*
X54702380Y-206559523D01*
%TO.C,SW38*%
X129083333Y-244726190D02*
X129083333Y-244226190D01*
X129202380Y-244226190D01*
X129273809Y-244250000D01*
X129321428Y-244297619D01*
X129345238Y-244345238D01*
X129369047Y-244440476D01*
X129369047Y-244511904D01*
X129345238Y-244607142D01*
X129321428Y-244654761D01*
X129273809Y-244702380D01*
X129202380Y-244726190D01*
X129083333Y-244726190D01*
X129583333Y-244726190D02*
X129583333Y-244392857D01*
X129583333Y-244226190D02*
X129559523Y-244250000D01*
X129583333Y-244273809D01*
X129607142Y-244250000D01*
X129583333Y-244226190D01*
X129583333Y-244273809D01*
X129892857Y-244726190D02*
X129845238Y-244702380D01*
X129821428Y-244678571D01*
X129797619Y-244630952D01*
X129797619Y-244488095D01*
X129821428Y-244440476D01*
X129845238Y-244416666D01*
X129892857Y-244392857D01*
X129964285Y-244392857D01*
X130011904Y-244416666D01*
X130035714Y-244440476D01*
X130059523Y-244488095D01*
X130059523Y-244630952D01*
X130035714Y-244678571D01*
X130011904Y-244702380D01*
X129964285Y-244726190D01*
X129892857Y-244726190D01*
X130488095Y-244726190D02*
X130488095Y-244226190D01*
X130488095Y-244702380D02*
X130440476Y-244726190D01*
X130345238Y-244726190D01*
X130297619Y-244702380D01*
X130273809Y-244678571D01*
X130250000Y-244630952D01*
X130250000Y-244488095D01*
X130273809Y-244440476D01*
X130297619Y-244416666D01*
X130345238Y-244392857D01*
X130440476Y-244392857D01*
X130488095Y-244416666D01*
X130916666Y-244702380D02*
X130869047Y-244726190D01*
X130773809Y-244726190D01*
X130726190Y-244702380D01*
X130702380Y-244654761D01*
X130702380Y-244464285D01*
X130726190Y-244416666D01*
X130773809Y-244392857D01*
X130869047Y-244392857D01*
X130916666Y-244416666D01*
X130940476Y-244464285D01*
X130940476Y-244511904D01*
X130702380Y-244559523D01*
%TO.C,SW35*%
X129083333Y-187726190D02*
X129083333Y-187226190D01*
X129202380Y-187226190D01*
X129273809Y-187250000D01*
X129321428Y-187297619D01*
X129345238Y-187345238D01*
X129369047Y-187440476D01*
X129369047Y-187511904D01*
X129345238Y-187607142D01*
X129321428Y-187654761D01*
X129273809Y-187702380D01*
X129202380Y-187726190D01*
X129083333Y-187726190D01*
X129583333Y-187726190D02*
X129583333Y-187392857D01*
X129583333Y-187226190D02*
X129559523Y-187250000D01*
X129583333Y-187273809D01*
X129607142Y-187250000D01*
X129583333Y-187226190D01*
X129583333Y-187273809D01*
X129892857Y-187726190D02*
X129845238Y-187702380D01*
X129821428Y-187678571D01*
X129797619Y-187630952D01*
X129797619Y-187488095D01*
X129821428Y-187440476D01*
X129845238Y-187416666D01*
X129892857Y-187392857D01*
X129964285Y-187392857D01*
X130011904Y-187416666D01*
X130035714Y-187440476D01*
X130059523Y-187488095D01*
X130059523Y-187630952D01*
X130035714Y-187678571D01*
X130011904Y-187702380D01*
X129964285Y-187726190D01*
X129892857Y-187726190D01*
X130488095Y-187726190D02*
X130488095Y-187226190D01*
X130488095Y-187702380D02*
X130440476Y-187726190D01*
X130345238Y-187726190D01*
X130297619Y-187702380D01*
X130273809Y-187678571D01*
X130250000Y-187630952D01*
X130250000Y-187488095D01*
X130273809Y-187440476D01*
X130297619Y-187416666D01*
X130345238Y-187392857D01*
X130440476Y-187392857D01*
X130488095Y-187416666D01*
X130916666Y-187702380D02*
X130869047Y-187726190D01*
X130773809Y-187726190D01*
X130726190Y-187702380D01*
X130702380Y-187654761D01*
X130702380Y-187464285D01*
X130726190Y-187416666D01*
X130773809Y-187392857D01*
X130869047Y-187392857D01*
X130916666Y-187416666D01*
X130940476Y-187464285D01*
X130940476Y-187511904D01*
X130702380Y-187559523D01*
%TO.C,SW5*%
X167083333Y-135726190D02*
X167083333Y-135226190D01*
X167202380Y-135226190D01*
X167273809Y-135250000D01*
X167321428Y-135297619D01*
X167345238Y-135345238D01*
X167369047Y-135440476D01*
X167369047Y-135511904D01*
X167345238Y-135607142D01*
X167321428Y-135654761D01*
X167273809Y-135702380D01*
X167202380Y-135726190D01*
X167083333Y-135726190D01*
X167583333Y-135726190D02*
X167583333Y-135392857D01*
X167583333Y-135226190D02*
X167559523Y-135250000D01*
X167583333Y-135273809D01*
X167607142Y-135250000D01*
X167583333Y-135226190D01*
X167583333Y-135273809D01*
X167892857Y-135726190D02*
X167845238Y-135702380D01*
X167821428Y-135678571D01*
X167797619Y-135630952D01*
X167797619Y-135488095D01*
X167821428Y-135440476D01*
X167845238Y-135416666D01*
X167892857Y-135392857D01*
X167964285Y-135392857D01*
X168011904Y-135416666D01*
X168035714Y-135440476D01*
X168059523Y-135488095D01*
X168059523Y-135630952D01*
X168035714Y-135678571D01*
X168011904Y-135702380D01*
X167964285Y-135726190D01*
X167892857Y-135726190D01*
X168488095Y-135726190D02*
X168488095Y-135226190D01*
X168488095Y-135702380D02*
X168440476Y-135726190D01*
X168345238Y-135726190D01*
X168297619Y-135702380D01*
X168273809Y-135678571D01*
X168250000Y-135630952D01*
X168250000Y-135488095D01*
X168273809Y-135440476D01*
X168297619Y-135416666D01*
X168345238Y-135392857D01*
X168440476Y-135392857D01*
X168488095Y-135416666D01*
X168916666Y-135702380D02*
X168869047Y-135726190D01*
X168773809Y-135726190D01*
X168726190Y-135702380D01*
X168702380Y-135654761D01*
X168702380Y-135464285D01*
X168726190Y-135416666D01*
X168773809Y-135392857D01*
X168869047Y-135392857D01*
X168916666Y-135416666D01*
X168940476Y-135464285D01*
X168940476Y-135511904D01*
X168702380Y-135559523D01*
%TO.C,SW47*%
X72083333Y-185726190D02*
X72083333Y-185226190D01*
X72202380Y-185226190D01*
X72273809Y-185250000D01*
X72321428Y-185297619D01*
X72345238Y-185345238D01*
X72369047Y-185440476D01*
X72369047Y-185511904D01*
X72345238Y-185607142D01*
X72321428Y-185654761D01*
X72273809Y-185702380D01*
X72202380Y-185726190D01*
X72083333Y-185726190D01*
X72583333Y-185726190D02*
X72583333Y-185392857D01*
X72583333Y-185226190D02*
X72559523Y-185250000D01*
X72583333Y-185273809D01*
X72607142Y-185250000D01*
X72583333Y-185226190D01*
X72583333Y-185273809D01*
X72892857Y-185726190D02*
X72845238Y-185702380D01*
X72821428Y-185678571D01*
X72797619Y-185630952D01*
X72797619Y-185488095D01*
X72821428Y-185440476D01*
X72845238Y-185416666D01*
X72892857Y-185392857D01*
X72964285Y-185392857D01*
X73011904Y-185416666D01*
X73035714Y-185440476D01*
X73059523Y-185488095D01*
X73059523Y-185630952D01*
X73035714Y-185678571D01*
X73011904Y-185702380D01*
X72964285Y-185726190D01*
X72892857Y-185726190D01*
X73488095Y-185726190D02*
X73488095Y-185226190D01*
X73488095Y-185702380D02*
X73440476Y-185726190D01*
X73345238Y-185726190D01*
X73297619Y-185702380D01*
X73273809Y-185678571D01*
X73250000Y-185630952D01*
X73250000Y-185488095D01*
X73273809Y-185440476D01*
X73297619Y-185416666D01*
X73345238Y-185392857D01*
X73440476Y-185392857D01*
X73488095Y-185416666D01*
X73916666Y-185702380D02*
X73869047Y-185726190D01*
X73773809Y-185726190D01*
X73726190Y-185702380D01*
X73702380Y-185654761D01*
X73702380Y-185464285D01*
X73726190Y-185416666D01*
X73773809Y-185392857D01*
X73869047Y-185392857D01*
X73916666Y-185416666D01*
X73940476Y-185464285D01*
X73940476Y-185511904D01*
X73702380Y-185559523D01*
%TO.C,SW50*%
X72083333Y-242726190D02*
X72083333Y-242226190D01*
X72202380Y-242226190D01*
X72273809Y-242250000D01*
X72321428Y-242297619D01*
X72345238Y-242345238D01*
X72369047Y-242440476D01*
X72369047Y-242511904D01*
X72345238Y-242607142D01*
X72321428Y-242654761D01*
X72273809Y-242702380D01*
X72202380Y-242726190D01*
X72083333Y-242726190D01*
X72583333Y-242726190D02*
X72583333Y-242392857D01*
X72583333Y-242226190D02*
X72559523Y-242250000D01*
X72583333Y-242273809D01*
X72607142Y-242250000D01*
X72583333Y-242226190D01*
X72583333Y-242273809D01*
X72892857Y-242726190D02*
X72845238Y-242702380D01*
X72821428Y-242678571D01*
X72797619Y-242630952D01*
X72797619Y-242488095D01*
X72821428Y-242440476D01*
X72845238Y-242416666D01*
X72892857Y-242392857D01*
X72964285Y-242392857D01*
X73011904Y-242416666D01*
X73035714Y-242440476D01*
X73059523Y-242488095D01*
X73059523Y-242630952D01*
X73035714Y-242678571D01*
X73011904Y-242702380D01*
X72964285Y-242726190D01*
X72892857Y-242726190D01*
X73488095Y-242726190D02*
X73488095Y-242226190D01*
X73488095Y-242702380D02*
X73440476Y-242726190D01*
X73345238Y-242726190D01*
X73297619Y-242702380D01*
X73273809Y-242678571D01*
X73250000Y-242630952D01*
X73250000Y-242488095D01*
X73273809Y-242440476D01*
X73297619Y-242416666D01*
X73345238Y-242392857D01*
X73440476Y-242392857D01*
X73488095Y-242416666D01*
X73916666Y-242702380D02*
X73869047Y-242726190D01*
X73773809Y-242726190D01*
X73726190Y-242702380D01*
X73702380Y-242654761D01*
X73702380Y-242464285D01*
X73726190Y-242416666D01*
X73773809Y-242392857D01*
X73869047Y-242392857D01*
X73916666Y-242416666D01*
X73940476Y-242464285D01*
X73940476Y-242511904D01*
X73702380Y-242559523D01*
%TO.C,SW14*%
X129083333Y-146726190D02*
X129083333Y-146226190D01*
X129202380Y-146226190D01*
X129273809Y-146250000D01*
X129321428Y-146297619D01*
X129345238Y-146345238D01*
X129369047Y-146440476D01*
X129369047Y-146511904D01*
X129345238Y-146607142D01*
X129321428Y-146654761D01*
X129273809Y-146702380D01*
X129202380Y-146726190D01*
X129083333Y-146726190D01*
X129583333Y-146726190D02*
X129583333Y-146392857D01*
X129583333Y-146226190D02*
X129559523Y-146250000D01*
X129583333Y-146273809D01*
X129607142Y-146250000D01*
X129583333Y-146226190D01*
X129583333Y-146273809D01*
X129892857Y-146726190D02*
X129845238Y-146702380D01*
X129821428Y-146678571D01*
X129797619Y-146630952D01*
X129797619Y-146488095D01*
X129821428Y-146440476D01*
X129845238Y-146416666D01*
X129892857Y-146392857D01*
X129964285Y-146392857D01*
X130011904Y-146416666D01*
X130035714Y-146440476D01*
X130059523Y-146488095D01*
X130059523Y-146630952D01*
X130035714Y-146678571D01*
X130011904Y-146702380D01*
X129964285Y-146726190D01*
X129892857Y-146726190D01*
X130488095Y-146726190D02*
X130488095Y-146226190D01*
X130488095Y-146702380D02*
X130440476Y-146726190D01*
X130345238Y-146726190D01*
X130297619Y-146702380D01*
X130273809Y-146678571D01*
X130250000Y-146630952D01*
X130250000Y-146488095D01*
X130273809Y-146440476D01*
X130297619Y-146416666D01*
X130345238Y-146392857D01*
X130440476Y-146392857D01*
X130488095Y-146416666D01*
X130916666Y-146702380D02*
X130869047Y-146726190D01*
X130773809Y-146726190D01*
X130726190Y-146702380D01*
X130702380Y-146654761D01*
X130702380Y-146464285D01*
X130726190Y-146416666D01*
X130773809Y-146392857D01*
X130869047Y-146392857D01*
X130916666Y-146416666D01*
X130940476Y-146464285D01*
X130940476Y-146511904D01*
X130702380Y-146559523D01*
%TO.C,SW9*%
X148083333Y-133726190D02*
X148083333Y-133226190D01*
X148202380Y-133226190D01*
X148273809Y-133250000D01*
X148321428Y-133297619D01*
X148345238Y-133345238D01*
X148369047Y-133440476D01*
X148369047Y-133511904D01*
X148345238Y-133607142D01*
X148321428Y-133654761D01*
X148273809Y-133702380D01*
X148202380Y-133726190D01*
X148083333Y-133726190D01*
X148583333Y-133726190D02*
X148583333Y-133392857D01*
X148583333Y-133226190D02*
X148559523Y-133250000D01*
X148583333Y-133273809D01*
X148607142Y-133250000D01*
X148583333Y-133226190D01*
X148583333Y-133273809D01*
X148892857Y-133726190D02*
X148845238Y-133702380D01*
X148821428Y-133678571D01*
X148797619Y-133630952D01*
X148797619Y-133488095D01*
X148821428Y-133440476D01*
X148845238Y-133416666D01*
X148892857Y-133392857D01*
X148964285Y-133392857D01*
X149011904Y-133416666D01*
X149035714Y-133440476D01*
X149059523Y-133488095D01*
X149059523Y-133630952D01*
X149035714Y-133678571D01*
X149011904Y-133702380D01*
X148964285Y-133726190D01*
X148892857Y-133726190D01*
X149488095Y-133726190D02*
X149488095Y-133226190D01*
X149488095Y-133702380D02*
X149440476Y-133726190D01*
X149345238Y-133726190D01*
X149297619Y-133702380D01*
X149273809Y-133678571D01*
X149250000Y-133630952D01*
X149250000Y-133488095D01*
X149273809Y-133440476D01*
X149297619Y-133416666D01*
X149345238Y-133392857D01*
X149440476Y-133392857D01*
X149488095Y-133416666D01*
X149916666Y-133702380D02*
X149869047Y-133726190D01*
X149773809Y-133726190D01*
X149726190Y-133702380D01*
X149702380Y-133654761D01*
X149702380Y-133464285D01*
X149726190Y-133416666D01*
X149773809Y-133392857D01*
X149869047Y-133392857D01*
X149916666Y-133416666D01*
X149940476Y-133464285D01*
X149940476Y-133511904D01*
X149702380Y-133559523D01*
%TO.C,SW17*%
X110083333Y-130726190D02*
X110083333Y-130226190D01*
X110202380Y-130226190D01*
X110273809Y-130250000D01*
X110321428Y-130297619D01*
X110345238Y-130345238D01*
X110369047Y-130440476D01*
X110369047Y-130511904D01*
X110345238Y-130607142D01*
X110321428Y-130654761D01*
X110273809Y-130702380D01*
X110202380Y-130726190D01*
X110083333Y-130726190D01*
X110583333Y-130726190D02*
X110583333Y-130392857D01*
X110583333Y-130226190D02*
X110559523Y-130250000D01*
X110583333Y-130273809D01*
X110607142Y-130250000D01*
X110583333Y-130226190D01*
X110583333Y-130273809D01*
X110892857Y-130726190D02*
X110845238Y-130702380D01*
X110821428Y-130678571D01*
X110797619Y-130630952D01*
X110797619Y-130488095D01*
X110821428Y-130440476D01*
X110845238Y-130416666D01*
X110892857Y-130392857D01*
X110964285Y-130392857D01*
X111011904Y-130416666D01*
X111035714Y-130440476D01*
X111059523Y-130488095D01*
X111059523Y-130630952D01*
X111035714Y-130678571D01*
X111011904Y-130702380D01*
X110964285Y-130726190D01*
X110892857Y-130726190D01*
X111488095Y-130726190D02*
X111488095Y-130226190D01*
X111488095Y-130702380D02*
X111440476Y-130726190D01*
X111345238Y-130726190D01*
X111297619Y-130702380D01*
X111273809Y-130678571D01*
X111250000Y-130630952D01*
X111250000Y-130488095D01*
X111273809Y-130440476D01*
X111297619Y-130416666D01*
X111345238Y-130392857D01*
X111440476Y-130392857D01*
X111488095Y-130416666D01*
X111916666Y-130702380D02*
X111869047Y-130726190D01*
X111773809Y-130726190D01*
X111726190Y-130702380D01*
X111702380Y-130654761D01*
X111702380Y-130464285D01*
X111726190Y-130416666D01*
X111773809Y-130392857D01*
X111869047Y-130392857D01*
X111916666Y-130416666D01*
X111940476Y-130464285D01*
X111940476Y-130511904D01*
X111702380Y-130559523D01*
%TO.C,SW43*%
X91083333Y-179726190D02*
X91083333Y-179226190D01*
X91202380Y-179226190D01*
X91273809Y-179250000D01*
X91321428Y-179297619D01*
X91345238Y-179345238D01*
X91369047Y-179440476D01*
X91369047Y-179511904D01*
X91345238Y-179607142D01*
X91321428Y-179654761D01*
X91273809Y-179702380D01*
X91202380Y-179726190D01*
X91083333Y-179726190D01*
X91583333Y-179726190D02*
X91583333Y-179392857D01*
X91583333Y-179226190D02*
X91559523Y-179250000D01*
X91583333Y-179273809D01*
X91607142Y-179250000D01*
X91583333Y-179226190D01*
X91583333Y-179273809D01*
X91892857Y-179726190D02*
X91845238Y-179702380D01*
X91821428Y-179678571D01*
X91797619Y-179630952D01*
X91797619Y-179488095D01*
X91821428Y-179440476D01*
X91845238Y-179416666D01*
X91892857Y-179392857D01*
X91964285Y-179392857D01*
X92011904Y-179416666D01*
X92035714Y-179440476D01*
X92059523Y-179488095D01*
X92059523Y-179630952D01*
X92035714Y-179678571D01*
X92011904Y-179702380D01*
X91964285Y-179726190D01*
X91892857Y-179726190D01*
X92488095Y-179726190D02*
X92488095Y-179226190D01*
X92488095Y-179702380D02*
X92440476Y-179726190D01*
X92345238Y-179726190D01*
X92297619Y-179702380D01*
X92273809Y-179678571D01*
X92250000Y-179630952D01*
X92250000Y-179488095D01*
X92273809Y-179440476D01*
X92297619Y-179416666D01*
X92345238Y-179392857D01*
X92440476Y-179392857D01*
X92488095Y-179416666D01*
X92916666Y-179702380D02*
X92869047Y-179726190D01*
X92773809Y-179726190D01*
X92726190Y-179702380D01*
X92702380Y-179654761D01*
X92702380Y-179464285D01*
X92726190Y-179416666D01*
X92773809Y-179392857D01*
X92869047Y-179392857D01*
X92916666Y-179416666D01*
X92940476Y-179464285D01*
X92940476Y-179511904D01*
X92702380Y-179559523D01*
%TO.C,SW32*%
X148083333Y-187726190D02*
X148083333Y-187226190D01*
X148202380Y-187226190D01*
X148273809Y-187250000D01*
X148321428Y-187297619D01*
X148345238Y-187345238D01*
X148369047Y-187440476D01*
X148369047Y-187511904D01*
X148345238Y-187607142D01*
X148321428Y-187654761D01*
X148273809Y-187702380D01*
X148202380Y-187726190D01*
X148083333Y-187726190D01*
X148583333Y-187726190D02*
X148583333Y-187392857D01*
X148583333Y-187226190D02*
X148559523Y-187250000D01*
X148583333Y-187273809D01*
X148607142Y-187250000D01*
X148583333Y-187226190D01*
X148583333Y-187273809D01*
X148892857Y-187726190D02*
X148845238Y-187702380D01*
X148821428Y-187678571D01*
X148797619Y-187630952D01*
X148797619Y-187488095D01*
X148821428Y-187440476D01*
X148845238Y-187416666D01*
X148892857Y-187392857D01*
X148964285Y-187392857D01*
X149011904Y-187416666D01*
X149035714Y-187440476D01*
X149059523Y-187488095D01*
X149059523Y-187630952D01*
X149035714Y-187678571D01*
X149011904Y-187702380D01*
X148964285Y-187726190D01*
X148892857Y-187726190D01*
X149488095Y-187726190D02*
X149488095Y-187226190D01*
X149488095Y-187702380D02*
X149440476Y-187726190D01*
X149345238Y-187726190D01*
X149297619Y-187702380D01*
X149273809Y-187678571D01*
X149250000Y-187630952D01*
X149250000Y-187488095D01*
X149273809Y-187440476D01*
X149297619Y-187416666D01*
X149345238Y-187392857D01*
X149440476Y-187392857D01*
X149488095Y-187416666D01*
X149916666Y-187702380D02*
X149869047Y-187726190D01*
X149773809Y-187726190D01*
X149726190Y-187702380D01*
X149702380Y-187654761D01*
X149702380Y-187464285D01*
X149726190Y-187416666D01*
X149773809Y-187392857D01*
X149869047Y-187392857D01*
X149916666Y-187416666D01*
X149940476Y-187464285D01*
X149940476Y-187511904D01*
X149702380Y-187559523D01*
%TO.C,SW44*%
X91083333Y-198726190D02*
X91083333Y-198226190D01*
X91202380Y-198226190D01*
X91273809Y-198250000D01*
X91321428Y-198297619D01*
X91345238Y-198345238D01*
X91369047Y-198440476D01*
X91369047Y-198511904D01*
X91345238Y-198607142D01*
X91321428Y-198654761D01*
X91273809Y-198702380D01*
X91202380Y-198726190D01*
X91083333Y-198726190D01*
X91583333Y-198726190D02*
X91583333Y-198392857D01*
X91583333Y-198226190D02*
X91559523Y-198250000D01*
X91583333Y-198273809D01*
X91607142Y-198250000D01*
X91583333Y-198226190D01*
X91583333Y-198273809D01*
X91892857Y-198726190D02*
X91845238Y-198702380D01*
X91821428Y-198678571D01*
X91797619Y-198630952D01*
X91797619Y-198488095D01*
X91821428Y-198440476D01*
X91845238Y-198416666D01*
X91892857Y-198392857D01*
X91964285Y-198392857D01*
X92011904Y-198416666D01*
X92035714Y-198440476D01*
X92059523Y-198488095D01*
X92059523Y-198630952D01*
X92035714Y-198678571D01*
X92011904Y-198702380D01*
X91964285Y-198726190D01*
X91892857Y-198726190D01*
X92488095Y-198726190D02*
X92488095Y-198226190D01*
X92488095Y-198702380D02*
X92440476Y-198726190D01*
X92345238Y-198726190D01*
X92297619Y-198702380D01*
X92273809Y-198678571D01*
X92250000Y-198630952D01*
X92250000Y-198488095D01*
X92273809Y-198440476D01*
X92297619Y-198416666D01*
X92345238Y-198392857D01*
X92440476Y-198392857D01*
X92488095Y-198416666D01*
X92916666Y-198702380D02*
X92869047Y-198726190D01*
X92773809Y-198726190D01*
X92726190Y-198702380D01*
X92702380Y-198654761D01*
X92702380Y-198464285D01*
X92726190Y-198416666D01*
X92773809Y-198392857D01*
X92869047Y-198392857D01*
X92916666Y-198416666D01*
X92940476Y-198464285D01*
X92940476Y-198511904D01*
X92702380Y-198559523D01*
%TO.C,SW24*%
X72083333Y-116726190D02*
X72083333Y-116226190D01*
X72202380Y-116226190D01*
X72273809Y-116250000D01*
X72321428Y-116297619D01*
X72345238Y-116345238D01*
X72369047Y-116440476D01*
X72369047Y-116511904D01*
X72345238Y-116607142D01*
X72321428Y-116654761D01*
X72273809Y-116702380D01*
X72202380Y-116726190D01*
X72083333Y-116726190D01*
X72583333Y-116726190D02*
X72583333Y-116392857D01*
X72583333Y-116226190D02*
X72559523Y-116250000D01*
X72583333Y-116273809D01*
X72607142Y-116250000D01*
X72583333Y-116226190D01*
X72583333Y-116273809D01*
X72892857Y-116726190D02*
X72845238Y-116702380D01*
X72821428Y-116678571D01*
X72797619Y-116630952D01*
X72797619Y-116488095D01*
X72821428Y-116440476D01*
X72845238Y-116416666D01*
X72892857Y-116392857D01*
X72964285Y-116392857D01*
X73011904Y-116416666D01*
X73035714Y-116440476D01*
X73059523Y-116488095D01*
X73059523Y-116630952D01*
X73035714Y-116678571D01*
X73011904Y-116702380D01*
X72964285Y-116726190D01*
X72892857Y-116726190D01*
X73488095Y-116726190D02*
X73488095Y-116226190D01*
X73488095Y-116702380D02*
X73440476Y-116726190D01*
X73345238Y-116726190D01*
X73297619Y-116702380D01*
X73273809Y-116678571D01*
X73250000Y-116630952D01*
X73250000Y-116488095D01*
X73273809Y-116440476D01*
X73297619Y-116416666D01*
X73345238Y-116392857D01*
X73440476Y-116392857D01*
X73488095Y-116416666D01*
X73916666Y-116702380D02*
X73869047Y-116726190D01*
X73773809Y-116726190D01*
X73726190Y-116702380D01*
X73702380Y-116654761D01*
X73702380Y-116464285D01*
X73726190Y-116416666D01*
X73773809Y-116392857D01*
X73869047Y-116392857D01*
X73916666Y-116416666D01*
X73940476Y-116464285D01*
X73940476Y-116511904D01*
X73702380Y-116559523D01*
%TO.C,SW31*%
X170583333Y-206726190D02*
X170583333Y-206226190D01*
X170702380Y-206226190D01*
X170773809Y-206250000D01*
X170821428Y-206297619D01*
X170845238Y-206345238D01*
X170869047Y-206440476D01*
X170869047Y-206511904D01*
X170845238Y-206607142D01*
X170821428Y-206654761D01*
X170773809Y-206702380D01*
X170702380Y-206726190D01*
X170583333Y-206726190D01*
X171083333Y-206726190D02*
X171083333Y-206392857D01*
X171083333Y-206226190D02*
X171059523Y-206250000D01*
X171083333Y-206273809D01*
X171107142Y-206250000D01*
X171083333Y-206226190D01*
X171083333Y-206273809D01*
X171392857Y-206726190D02*
X171345238Y-206702380D01*
X171321428Y-206678571D01*
X171297619Y-206630952D01*
X171297619Y-206488095D01*
X171321428Y-206440476D01*
X171345238Y-206416666D01*
X171392857Y-206392857D01*
X171464285Y-206392857D01*
X171511904Y-206416666D01*
X171535714Y-206440476D01*
X171559523Y-206488095D01*
X171559523Y-206630952D01*
X171535714Y-206678571D01*
X171511904Y-206702380D01*
X171464285Y-206726190D01*
X171392857Y-206726190D01*
X171988095Y-206726190D02*
X171988095Y-206226190D01*
X171988095Y-206702380D02*
X171940476Y-206726190D01*
X171845238Y-206726190D01*
X171797619Y-206702380D01*
X171773809Y-206678571D01*
X171750000Y-206630952D01*
X171750000Y-206488095D01*
X171773809Y-206440476D01*
X171797619Y-206416666D01*
X171845238Y-206392857D01*
X171940476Y-206392857D01*
X171988095Y-206416666D01*
X172416666Y-206702380D02*
X172369047Y-206726190D01*
X172273809Y-206726190D01*
X172226190Y-206702380D01*
X172202380Y-206654761D01*
X172202380Y-206464285D01*
X172226190Y-206416666D01*
X172273809Y-206392857D01*
X172369047Y-206392857D01*
X172416666Y-206416666D01*
X172440476Y-206464285D01*
X172440476Y-206511904D01*
X172202380Y-206559523D01*
%TO.C,SW22*%
X91083333Y-154726190D02*
X91083333Y-154226190D01*
X91202380Y-154226190D01*
X91273809Y-154250000D01*
X91321428Y-154297619D01*
X91345238Y-154345238D01*
X91369047Y-154440476D01*
X91369047Y-154511904D01*
X91345238Y-154607142D01*
X91321428Y-154654761D01*
X91273809Y-154702380D01*
X91202380Y-154726190D01*
X91083333Y-154726190D01*
X91583333Y-154726190D02*
X91583333Y-154392857D01*
X91583333Y-154226190D02*
X91559523Y-154250000D01*
X91583333Y-154273809D01*
X91607142Y-154250000D01*
X91583333Y-154226190D01*
X91583333Y-154273809D01*
X91892857Y-154726190D02*
X91845238Y-154702380D01*
X91821428Y-154678571D01*
X91797619Y-154630952D01*
X91797619Y-154488095D01*
X91821428Y-154440476D01*
X91845238Y-154416666D01*
X91892857Y-154392857D01*
X91964285Y-154392857D01*
X92011904Y-154416666D01*
X92035714Y-154440476D01*
X92059523Y-154488095D01*
X92059523Y-154630952D01*
X92035714Y-154678571D01*
X92011904Y-154702380D01*
X91964285Y-154726190D01*
X91892857Y-154726190D01*
X92488095Y-154726190D02*
X92488095Y-154226190D01*
X92488095Y-154702380D02*
X92440476Y-154726190D01*
X92345238Y-154726190D01*
X92297619Y-154702380D01*
X92273809Y-154678571D01*
X92250000Y-154630952D01*
X92250000Y-154488095D01*
X92273809Y-154440476D01*
X92297619Y-154416666D01*
X92345238Y-154392857D01*
X92440476Y-154392857D01*
X92488095Y-154416666D01*
X92916666Y-154702380D02*
X92869047Y-154726190D01*
X92773809Y-154726190D01*
X92726190Y-154702380D01*
X92702380Y-154654761D01*
X92702380Y-154464285D01*
X92726190Y-154416666D01*
X92773809Y-154392857D01*
X92869047Y-154392857D01*
X92916666Y-154416666D01*
X92940476Y-154464285D01*
X92940476Y-154511904D01*
X92702380Y-154559523D01*
%TO.C,SW48*%
X72083333Y-204726190D02*
X72083333Y-204226190D01*
X72202380Y-204226190D01*
X72273809Y-204250000D01*
X72321428Y-204297619D01*
X72345238Y-204345238D01*
X72369047Y-204440476D01*
X72369047Y-204511904D01*
X72345238Y-204607142D01*
X72321428Y-204654761D01*
X72273809Y-204702380D01*
X72202380Y-204726190D01*
X72083333Y-204726190D01*
X72583333Y-204726190D02*
X72583333Y-204392857D01*
X72583333Y-204226190D02*
X72559523Y-204250000D01*
X72583333Y-204273809D01*
X72607142Y-204250000D01*
X72583333Y-204226190D01*
X72583333Y-204273809D01*
X72892857Y-204726190D02*
X72845238Y-204702380D01*
X72821428Y-204678571D01*
X72797619Y-204630952D01*
X72797619Y-204488095D01*
X72821428Y-204440476D01*
X72845238Y-204416666D01*
X72892857Y-204392857D01*
X72964285Y-204392857D01*
X73011904Y-204416666D01*
X73035714Y-204440476D01*
X73059523Y-204488095D01*
X73059523Y-204630952D01*
X73035714Y-204678571D01*
X73011904Y-204702380D01*
X72964285Y-204726190D01*
X72892857Y-204726190D01*
X73488095Y-204726190D02*
X73488095Y-204226190D01*
X73488095Y-204702380D02*
X73440476Y-204726190D01*
X73345238Y-204726190D01*
X73297619Y-204702380D01*
X73273809Y-204678571D01*
X73250000Y-204630952D01*
X73250000Y-204488095D01*
X73273809Y-204440476D01*
X73297619Y-204416666D01*
X73345238Y-204392857D01*
X73440476Y-204392857D01*
X73488095Y-204416666D01*
X73916666Y-204702380D02*
X73869047Y-204726190D01*
X73773809Y-204726190D01*
X73726190Y-204702380D01*
X73702380Y-204654761D01*
X73702380Y-204464285D01*
X73726190Y-204416666D01*
X73773809Y-204392857D01*
X73869047Y-204392857D01*
X73916666Y-204416666D01*
X73940476Y-204464285D01*
X73940476Y-204511904D01*
X73702380Y-204559523D01*
%TO.C,SW10*%
X148083333Y-152726190D02*
X148083333Y-152226190D01*
X148202380Y-152226190D01*
X148273809Y-152250000D01*
X148321428Y-152297619D01*
X148345238Y-152345238D01*
X148369047Y-152440476D01*
X148369047Y-152511904D01*
X148345238Y-152607142D01*
X148321428Y-152654761D01*
X148273809Y-152702380D01*
X148202380Y-152726190D01*
X148083333Y-152726190D01*
X148583333Y-152726190D02*
X148583333Y-152392857D01*
X148583333Y-152226190D02*
X148559523Y-152250000D01*
X148583333Y-152273809D01*
X148607142Y-152250000D01*
X148583333Y-152226190D01*
X148583333Y-152273809D01*
X148892857Y-152726190D02*
X148845238Y-152702380D01*
X148821428Y-152678571D01*
X148797619Y-152630952D01*
X148797619Y-152488095D01*
X148821428Y-152440476D01*
X148845238Y-152416666D01*
X148892857Y-152392857D01*
X148964285Y-152392857D01*
X149011904Y-152416666D01*
X149035714Y-152440476D01*
X149059523Y-152488095D01*
X149059523Y-152630952D01*
X149035714Y-152678571D01*
X149011904Y-152702380D01*
X148964285Y-152726190D01*
X148892857Y-152726190D01*
X149488095Y-152726190D02*
X149488095Y-152226190D01*
X149488095Y-152702380D02*
X149440476Y-152726190D01*
X149345238Y-152726190D01*
X149297619Y-152702380D01*
X149273809Y-152678571D01*
X149250000Y-152630952D01*
X149250000Y-152488095D01*
X149273809Y-152440476D01*
X149297619Y-152416666D01*
X149345238Y-152392857D01*
X149440476Y-152392857D01*
X149488095Y-152416666D01*
X149916666Y-152702380D02*
X149869047Y-152726190D01*
X149773809Y-152726190D01*
X149726190Y-152702380D01*
X149702380Y-152654761D01*
X149702380Y-152464285D01*
X149726190Y-152416666D01*
X149773809Y-152392857D01*
X149869047Y-152392857D01*
X149916666Y-152416666D01*
X149940476Y-152464285D01*
X149940476Y-152511904D01*
X149702380Y-152559523D01*
%TO.C,SW46*%
X91083333Y-236726190D02*
X91083333Y-236226190D01*
X91202380Y-236226190D01*
X91273809Y-236250000D01*
X91321428Y-236297619D01*
X91345238Y-236345238D01*
X91369047Y-236440476D01*
X91369047Y-236511904D01*
X91345238Y-236607142D01*
X91321428Y-236654761D01*
X91273809Y-236702380D01*
X91202380Y-236726190D01*
X91083333Y-236726190D01*
X91583333Y-236726190D02*
X91583333Y-236392857D01*
X91583333Y-236226190D02*
X91559523Y-236250000D01*
X91583333Y-236273809D01*
X91607142Y-236250000D01*
X91583333Y-236226190D01*
X91583333Y-236273809D01*
X91892857Y-236726190D02*
X91845238Y-236702380D01*
X91821428Y-236678571D01*
X91797619Y-236630952D01*
X91797619Y-236488095D01*
X91821428Y-236440476D01*
X91845238Y-236416666D01*
X91892857Y-236392857D01*
X91964285Y-236392857D01*
X92011904Y-236416666D01*
X92035714Y-236440476D01*
X92059523Y-236488095D01*
X92059523Y-236630952D01*
X92035714Y-236678571D01*
X92011904Y-236702380D01*
X91964285Y-236726190D01*
X91892857Y-236726190D01*
X92488095Y-236726190D02*
X92488095Y-236226190D01*
X92488095Y-236702380D02*
X92440476Y-236726190D01*
X92345238Y-236726190D01*
X92297619Y-236702380D01*
X92273809Y-236678571D01*
X92250000Y-236630952D01*
X92250000Y-236488095D01*
X92273809Y-236440476D01*
X92297619Y-236416666D01*
X92345238Y-236392857D01*
X92440476Y-236392857D01*
X92488095Y-236416666D01*
X92916666Y-236702380D02*
X92869047Y-236726190D01*
X92773809Y-236726190D01*
X92726190Y-236702380D01*
X92702380Y-236654761D01*
X92702380Y-236464285D01*
X92726190Y-236416666D01*
X92773809Y-236392857D01*
X92869047Y-236392857D01*
X92916666Y-236416666D01*
X92940476Y-236464285D01*
X92940476Y-236511904D01*
X92702380Y-236559523D01*
%TO.C,SW34*%
X151583333Y-225726190D02*
X151583333Y-225226190D01*
X151702380Y-225226190D01*
X151773809Y-225250000D01*
X151821428Y-225297619D01*
X151845238Y-225345238D01*
X151869047Y-225440476D01*
X151869047Y-225511904D01*
X151845238Y-225607142D01*
X151821428Y-225654761D01*
X151773809Y-225702380D01*
X151702380Y-225726190D01*
X151583333Y-225726190D01*
X152083333Y-225726190D02*
X152083333Y-225392857D01*
X152083333Y-225226190D02*
X152059523Y-225250000D01*
X152083333Y-225273809D01*
X152107142Y-225250000D01*
X152083333Y-225226190D01*
X152083333Y-225273809D01*
X152392857Y-225726190D02*
X152345238Y-225702380D01*
X152321428Y-225678571D01*
X152297619Y-225630952D01*
X152297619Y-225488095D01*
X152321428Y-225440476D01*
X152345238Y-225416666D01*
X152392857Y-225392857D01*
X152464285Y-225392857D01*
X152511904Y-225416666D01*
X152535714Y-225440476D01*
X152559523Y-225488095D01*
X152559523Y-225630952D01*
X152535714Y-225678571D01*
X152511904Y-225702380D01*
X152464285Y-225726190D01*
X152392857Y-225726190D01*
X152988095Y-225726190D02*
X152988095Y-225226190D01*
X152988095Y-225702380D02*
X152940476Y-225726190D01*
X152845238Y-225726190D01*
X152797619Y-225702380D01*
X152773809Y-225678571D01*
X152750000Y-225630952D01*
X152750000Y-225488095D01*
X152773809Y-225440476D01*
X152797619Y-225416666D01*
X152845238Y-225392857D01*
X152940476Y-225392857D01*
X152988095Y-225416666D01*
X153416666Y-225702380D02*
X153369047Y-225726190D01*
X153273809Y-225726190D01*
X153226190Y-225702380D01*
X153202380Y-225654761D01*
X153202380Y-225464285D01*
X153226190Y-225416666D01*
X153273809Y-225392857D01*
X153369047Y-225392857D01*
X153416666Y-225416666D01*
X153440476Y-225464285D01*
X153440476Y-225511904D01*
X153202380Y-225559523D01*
%TO.C,SW16*%
X110083333Y-111726190D02*
X110083333Y-111226190D01*
X110202380Y-111226190D01*
X110273809Y-111250000D01*
X110321428Y-111297619D01*
X110345238Y-111345238D01*
X110369047Y-111440476D01*
X110369047Y-111511904D01*
X110345238Y-111607142D01*
X110321428Y-111654761D01*
X110273809Y-111702380D01*
X110202380Y-111726190D01*
X110083333Y-111726190D01*
X110583333Y-111726190D02*
X110583333Y-111392857D01*
X110583333Y-111226190D02*
X110559523Y-111250000D01*
X110583333Y-111273809D01*
X110607142Y-111250000D01*
X110583333Y-111226190D01*
X110583333Y-111273809D01*
X110892857Y-111726190D02*
X110845238Y-111702380D01*
X110821428Y-111678571D01*
X110797619Y-111630952D01*
X110797619Y-111488095D01*
X110821428Y-111440476D01*
X110845238Y-111416666D01*
X110892857Y-111392857D01*
X110964285Y-111392857D01*
X111011904Y-111416666D01*
X111035714Y-111440476D01*
X111059523Y-111488095D01*
X111059523Y-111630952D01*
X111035714Y-111678571D01*
X111011904Y-111702380D01*
X110964285Y-111726190D01*
X110892857Y-111726190D01*
X111488095Y-111726190D02*
X111488095Y-111226190D01*
X111488095Y-111702380D02*
X111440476Y-111726190D01*
X111345238Y-111726190D01*
X111297619Y-111702380D01*
X111273809Y-111678571D01*
X111250000Y-111630952D01*
X111250000Y-111488095D01*
X111273809Y-111440476D01*
X111297619Y-111416666D01*
X111345238Y-111392857D01*
X111440476Y-111392857D01*
X111488095Y-111416666D01*
X111916666Y-111702380D02*
X111869047Y-111726190D01*
X111773809Y-111726190D01*
X111726190Y-111702380D01*
X111702380Y-111654761D01*
X111702380Y-111464285D01*
X111726190Y-111416666D01*
X111773809Y-111392857D01*
X111869047Y-111392857D01*
X111916666Y-111416666D01*
X111940476Y-111464285D01*
X111940476Y-111511904D01*
X111702380Y-111559523D01*
%TO.C,SW15*%
X110083333Y-92726190D02*
X110083333Y-92226190D01*
X110202380Y-92226190D01*
X110273809Y-92250000D01*
X110321428Y-92297619D01*
X110345238Y-92345238D01*
X110369047Y-92440476D01*
X110369047Y-92511904D01*
X110345238Y-92607142D01*
X110321428Y-92654761D01*
X110273809Y-92702380D01*
X110202380Y-92726190D01*
X110083333Y-92726190D01*
X110583333Y-92726190D02*
X110583333Y-92392857D01*
X110583333Y-92226190D02*
X110559523Y-92250000D01*
X110583333Y-92273809D01*
X110607142Y-92250000D01*
X110583333Y-92226190D01*
X110583333Y-92273809D01*
X110892857Y-92726190D02*
X110845238Y-92702380D01*
X110821428Y-92678571D01*
X110797619Y-92630952D01*
X110797619Y-92488095D01*
X110821428Y-92440476D01*
X110845238Y-92416666D01*
X110892857Y-92392857D01*
X110964285Y-92392857D01*
X111011904Y-92416666D01*
X111035714Y-92440476D01*
X111059523Y-92488095D01*
X111059523Y-92630952D01*
X111035714Y-92678571D01*
X111011904Y-92702380D01*
X110964285Y-92726190D01*
X110892857Y-92726190D01*
X111488095Y-92726190D02*
X111488095Y-92226190D01*
X111488095Y-92702380D02*
X111440476Y-92726190D01*
X111345238Y-92726190D01*
X111297619Y-92702380D01*
X111273809Y-92678571D01*
X111250000Y-92630952D01*
X111250000Y-92488095D01*
X111273809Y-92440476D01*
X111297619Y-92416666D01*
X111345238Y-92392857D01*
X111440476Y-92392857D01*
X111488095Y-92416666D01*
X111916666Y-92702380D02*
X111869047Y-92726190D01*
X111773809Y-92726190D01*
X111726190Y-92702380D01*
X111702380Y-92654761D01*
X111702380Y-92464285D01*
X111726190Y-92416666D01*
X111773809Y-92392857D01*
X111869047Y-92392857D01*
X111916666Y-92416666D01*
X111940476Y-92464285D01*
X111940476Y-92511904D01*
X111702380Y-92559523D01*
%TO.C,SW54*%
X49583333Y-244726190D02*
X49583333Y-244226190D01*
X49702380Y-244226190D01*
X49773809Y-244250000D01*
X49821428Y-244297619D01*
X49845238Y-244345238D01*
X49869047Y-244440476D01*
X49869047Y-244511904D01*
X49845238Y-244607142D01*
X49821428Y-244654761D01*
X49773809Y-244702380D01*
X49702380Y-244726190D01*
X49583333Y-244726190D01*
X50083333Y-244726190D02*
X50083333Y-244392857D01*
X50083333Y-244226190D02*
X50059523Y-244250000D01*
X50083333Y-244273809D01*
X50107142Y-244250000D01*
X50083333Y-244226190D01*
X50083333Y-244273809D01*
X50392857Y-244726190D02*
X50345238Y-244702380D01*
X50321428Y-244678571D01*
X50297619Y-244630952D01*
X50297619Y-244488095D01*
X50321428Y-244440476D01*
X50345238Y-244416666D01*
X50392857Y-244392857D01*
X50464285Y-244392857D01*
X50511904Y-244416666D01*
X50535714Y-244440476D01*
X50559523Y-244488095D01*
X50559523Y-244630952D01*
X50535714Y-244678571D01*
X50511904Y-244702380D01*
X50464285Y-244726190D01*
X50392857Y-244726190D01*
X50988095Y-244726190D02*
X50988095Y-244226190D01*
X50988095Y-244702380D02*
X50940476Y-244726190D01*
X50845238Y-244726190D01*
X50797619Y-244702380D01*
X50773809Y-244678571D01*
X50750000Y-244630952D01*
X50750000Y-244488095D01*
X50773809Y-244440476D01*
X50797619Y-244416666D01*
X50845238Y-244392857D01*
X50940476Y-244392857D01*
X50988095Y-244416666D01*
X51416666Y-244702380D02*
X51369047Y-244726190D01*
X51273809Y-244726190D01*
X51226190Y-244702380D01*
X51202380Y-244654761D01*
X51202380Y-244464285D01*
X51226190Y-244416666D01*
X51273809Y-244392857D01*
X51369047Y-244392857D01*
X51416666Y-244416666D01*
X51440476Y-244464285D01*
X51440476Y-244511904D01*
X51202380Y-244559523D01*
%TO.C,SW39*%
X110083333Y-182726190D02*
X110083333Y-182226190D01*
X110202380Y-182226190D01*
X110273809Y-182250000D01*
X110321428Y-182297619D01*
X110345238Y-182345238D01*
X110369047Y-182440476D01*
X110369047Y-182511904D01*
X110345238Y-182607142D01*
X110321428Y-182654761D01*
X110273809Y-182702380D01*
X110202380Y-182726190D01*
X110083333Y-182726190D01*
X110583333Y-182726190D02*
X110583333Y-182392857D01*
X110583333Y-182226190D02*
X110559523Y-182250000D01*
X110583333Y-182273809D01*
X110607142Y-182250000D01*
X110583333Y-182226190D01*
X110583333Y-182273809D01*
X110892857Y-182726190D02*
X110845238Y-182702380D01*
X110821428Y-182678571D01*
X110797619Y-182630952D01*
X110797619Y-182488095D01*
X110821428Y-182440476D01*
X110845238Y-182416666D01*
X110892857Y-182392857D01*
X110964285Y-182392857D01*
X111011904Y-182416666D01*
X111035714Y-182440476D01*
X111059523Y-182488095D01*
X111059523Y-182630952D01*
X111035714Y-182678571D01*
X111011904Y-182702380D01*
X110964285Y-182726190D01*
X110892857Y-182726190D01*
X111488095Y-182726190D02*
X111488095Y-182226190D01*
X111488095Y-182702380D02*
X111440476Y-182726190D01*
X111345238Y-182726190D01*
X111297619Y-182702380D01*
X111273809Y-182678571D01*
X111250000Y-182630952D01*
X111250000Y-182488095D01*
X111273809Y-182440476D01*
X111297619Y-182416666D01*
X111345238Y-182392857D01*
X111440476Y-182392857D01*
X111488095Y-182416666D01*
X111916666Y-182702380D02*
X111869047Y-182726190D01*
X111773809Y-182726190D01*
X111726190Y-182702380D01*
X111702380Y-182654761D01*
X111702380Y-182464285D01*
X111726190Y-182416666D01*
X111773809Y-182392857D01*
X111869047Y-182392857D01*
X111916666Y-182416666D01*
X111940476Y-182464285D01*
X111940476Y-182511904D01*
X111702380Y-182559523D01*
%TO.C,SW7*%
X148083333Y-95726190D02*
X148083333Y-95226190D01*
X148202380Y-95226190D01*
X148273809Y-95250000D01*
X148321428Y-95297619D01*
X148345238Y-95345238D01*
X148369047Y-95440476D01*
X148369047Y-95511904D01*
X148345238Y-95607142D01*
X148321428Y-95654761D01*
X148273809Y-95702380D01*
X148202380Y-95726190D01*
X148083333Y-95726190D01*
X148583333Y-95726190D02*
X148583333Y-95392857D01*
X148583333Y-95226190D02*
X148559523Y-95250000D01*
X148583333Y-95273809D01*
X148607142Y-95250000D01*
X148583333Y-95226190D01*
X148583333Y-95273809D01*
X148892857Y-95726190D02*
X148845238Y-95702380D01*
X148821428Y-95678571D01*
X148797619Y-95630952D01*
X148797619Y-95488095D01*
X148821428Y-95440476D01*
X148845238Y-95416666D01*
X148892857Y-95392857D01*
X148964285Y-95392857D01*
X149011904Y-95416666D01*
X149035714Y-95440476D01*
X149059523Y-95488095D01*
X149059523Y-95630952D01*
X149035714Y-95678571D01*
X149011904Y-95702380D01*
X148964285Y-95726190D01*
X148892857Y-95726190D01*
X149488095Y-95726190D02*
X149488095Y-95226190D01*
X149488095Y-95702380D02*
X149440476Y-95726190D01*
X149345238Y-95726190D01*
X149297619Y-95702380D01*
X149273809Y-95678571D01*
X149250000Y-95630952D01*
X149250000Y-95488095D01*
X149273809Y-95440476D01*
X149297619Y-95416666D01*
X149345238Y-95392857D01*
X149440476Y-95392857D01*
X149488095Y-95416666D01*
X149916666Y-95702380D02*
X149869047Y-95726190D01*
X149773809Y-95726190D01*
X149726190Y-95702380D01*
X149702380Y-95654761D01*
X149702380Y-95464285D01*
X149726190Y-95416666D01*
X149773809Y-95392857D01*
X149869047Y-95392857D01*
X149916666Y-95416666D01*
X149940476Y-95464285D01*
X149940476Y-95511904D01*
X149702380Y-95559523D01*
%TO.C,SW27*%
X49583333Y-116726190D02*
X49583333Y-116226190D01*
X49702380Y-116226190D01*
X49773809Y-116250000D01*
X49821428Y-116297619D01*
X49845238Y-116345238D01*
X49869047Y-116440476D01*
X49869047Y-116511904D01*
X49845238Y-116607142D01*
X49821428Y-116654761D01*
X49773809Y-116702380D01*
X49702380Y-116726190D01*
X49583333Y-116726190D01*
X50083333Y-116726190D02*
X50083333Y-116392857D01*
X50083333Y-116226190D02*
X50059523Y-116250000D01*
X50083333Y-116273809D01*
X50107142Y-116250000D01*
X50083333Y-116226190D01*
X50083333Y-116273809D01*
X50392857Y-116726190D02*
X50345238Y-116702380D01*
X50321428Y-116678571D01*
X50297619Y-116630952D01*
X50297619Y-116488095D01*
X50321428Y-116440476D01*
X50345238Y-116416666D01*
X50392857Y-116392857D01*
X50464285Y-116392857D01*
X50511904Y-116416666D01*
X50535714Y-116440476D01*
X50559523Y-116488095D01*
X50559523Y-116630952D01*
X50535714Y-116678571D01*
X50511904Y-116702380D01*
X50464285Y-116726190D01*
X50392857Y-116726190D01*
X50988095Y-116726190D02*
X50988095Y-116226190D01*
X50988095Y-116702380D02*
X50940476Y-116726190D01*
X50845238Y-116726190D01*
X50797619Y-116702380D01*
X50773809Y-116678571D01*
X50750000Y-116630952D01*
X50750000Y-116488095D01*
X50773809Y-116440476D01*
X50797619Y-116416666D01*
X50845238Y-116392857D01*
X50940476Y-116392857D01*
X50988095Y-116416666D01*
X51416666Y-116702380D02*
X51369047Y-116726190D01*
X51273809Y-116726190D01*
X51226190Y-116702380D01*
X51202380Y-116654761D01*
X51202380Y-116464285D01*
X51226190Y-116416666D01*
X51273809Y-116392857D01*
X51369047Y-116392857D01*
X51416666Y-116416666D01*
X51440476Y-116464285D01*
X51440476Y-116511904D01*
X51202380Y-116559523D01*
%TO.C,SW6*%
X170583333Y-154726190D02*
X170583333Y-154226190D01*
X170702380Y-154226190D01*
X170773809Y-154250000D01*
X170821428Y-154297619D01*
X170845238Y-154345238D01*
X170869047Y-154440476D01*
X170869047Y-154511904D01*
X170845238Y-154607142D01*
X170821428Y-154654761D01*
X170773809Y-154702380D01*
X170702380Y-154726190D01*
X170583333Y-154726190D01*
X171083333Y-154726190D02*
X171083333Y-154392857D01*
X171083333Y-154226190D02*
X171059523Y-154250000D01*
X171083333Y-154273809D01*
X171107142Y-154250000D01*
X171083333Y-154226190D01*
X171083333Y-154273809D01*
X171392857Y-154726190D02*
X171345238Y-154702380D01*
X171321428Y-154678571D01*
X171297619Y-154630952D01*
X171297619Y-154488095D01*
X171321428Y-154440476D01*
X171345238Y-154416666D01*
X171392857Y-154392857D01*
X171464285Y-154392857D01*
X171511904Y-154416666D01*
X171535714Y-154440476D01*
X171559523Y-154488095D01*
X171559523Y-154630952D01*
X171535714Y-154678571D01*
X171511904Y-154702380D01*
X171464285Y-154726190D01*
X171392857Y-154726190D01*
X171988095Y-154726190D02*
X171988095Y-154226190D01*
X171988095Y-154702380D02*
X171940476Y-154726190D01*
X171845238Y-154726190D01*
X171797619Y-154702380D01*
X171773809Y-154678571D01*
X171750000Y-154630952D01*
X171750000Y-154488095D01*
X171773809Y-154440476D01*
X171797619Y-154416666D01*
X171845238Y-154392857D01*
X171940476Y-154392857D01*
X171988095Y-154416666D01*
X172416666Y-154702380D02*
X172369047Y-154726190D01*
X172273809Y-154726190D01*
X172226190Y-154702380D01*
X172202380Y-154654761D01*
X172202380Y-154464285D01*
X172226190Y-154416666D01*
X172273809Y-154392857D01*
X172369047Y-154392857D01*
X172416666Y-154416666D01*
X172440476Y-154464285D01*
X172440476Y-154511904D01*
X172202380Y-154559523D01*
%TO.C,SW3*%
X167083333Y-97726190D02*
X167083333Y-97226190D01*
X167202380Y-97226190D01*
X167273809Y-97250000D01*
X167321428Y-97297619D01*
X167345238Y-97345238D01*
X167369047Y-97440476D01*
X167369047Y-97511904D01*
X167345238Y-97607142D01*
X167321428Y-97654761D01*
X167273809Y-97702380D01*
X167202380Y-97726190D01*
X167083333Y-97726190D01*
X167583333Y-97726190D02*
X167583333Y-97392857D01*
X167583333Y-97226190D02*
X167559523Y-97250000D01*
X167583333Y-97273809D01*
X167607142Y-97250000D01*
X167583333Y-97226190D01*
X167583333Y-97273809D01*
X167892857Y-97726190D02*
X167845238Y-97702380D01*
X167821428Y-97678571D01*
X167797619Y-97630952D01*
X167797619Y-97488095D01*
X167821428Y-97440476D01*
X167845238Y-97416666D01*
X167892857Y-97392857D01*
X167964285Y-97392857D01*
X168011904Y-97416666D01*
X168035714Y-97440476D01*
X168059523Y-97488095D01*
X168059523Y-97630952D01*
X168035714Y-97678571D01*
X168011904Y-97702380D01*
X167964285Y-97726190D01*
X167892857Y-97726190D01*
X168488095Y-97726190D02*
X168488095Y-97226190D01*
X168488095Y-97702380D02*
X168440476Y-97726190D01*
X168345238Y-97726190D01*
X168297619Y-97702380D01*
X168273809Y-97678571D01*
X168250000Y-97630952D01*
X168250000Y-97488095D01*
X168273809Y-97440476D01*
X168297619Y-97416666D01*
X168345238Y-97392857D01*
X168440476Y-97392857D01*
X168488095Y-97416666D01*
X168916666Y-97702380D02*
X168869047Y-97726190D01*
X168773809Y-97726190D01*
X168726190Y-97702380D01*
X168702380Y-97654761D01*
X168702380Y-97464285D01*
X168726190Y-97416666D01*
X168773809Y-97392857D01*
X168869047Y-97392857D01*
X168916666Y-97416666D01*
X168940476Y-97464285D01*
X168940476Y-97511904D01*
X168702380Y-97559523D01*
D11*
%TO.C,REF\u002A\u002A*%
X64950000Y-233550000D02*
G75*
G03*
X64950000Y-233550000I-2200000J0D01*
G01*
X162450000Y-193800000D02*
G75*
G03*
X162450000Y-193800000I-2200000J0D01*
G01*
X65700000Y-194750000D02*
G75*
G03*
X65700000Y-194750000I-2200000J0D01*
G01*
X103700000Y-205050000D02*
G75*
G03*
X103700000Y-205050000I-2200000J0D01*
G01*
X127200000Y-230550000D02*
G75*
G03*
X127200000Y-230550000I-2200000J0D01*
G01*
X122700000Y-115000000D02*
G75*
G03*
X122700000Y-115000000I-2200000J0D01*
G01*
X160700000Y-104700000D02*
G75*
G03*
X160700000Y-104700000I-2200000J0D01*
G01*
X161450000Y-143500000D02*
G75*
G03*
X161450000Y-143500000I-2200000J0D01*
G01*
X99200000Y-140500000D02*
G75*
G03*
X99200000Y-140500000I-2200000J0D01*
G01*
X63950000Y-103750000D02*
G75*
G03*
X63950000Y-103750000I-2200000J0D01*
G01*
X65700000Y-212850000D02*
G75*
G03*
X65700000Y-212850000I-2200000J0D01*
G01*
X160700000Y-122800000D02*
G75*
G03*
X160700000Y-122800000I-2200000J0D01*
G01*
X90700000Y-42250000D02*
G75*
G03*
X90700000Y-42250000I-2200000J0D01*
G01*
X72600000Y-42250000D02*
G75*
G03*
X72600000Y-42250000I-2200000J0D01*
G01*
%TD*%
M02*
