M48
; DRILL file {KiCad (6.0.6)} date Sat 03 Sep 2022 10:19:15 PM PDT
; FORMAT={-:-/ absolute / inch / decimal}
; #@! TF.CreationDate,2022-09-03T22:19:15-07:00
; #@! TF.GenerationSoftware,Kicad,Pcbnew,(6.0.6)
; #@! TF.FileFunction,Plated,1,2,Blind
FMAT,2
INCH
; #@! TA.AperFunction,Plated,Buried,ViaDrill
T1C0.0047
; #@! TA.AperFunction,Plated,Buried,ViaDrill
T2C0.0059
%
G90
G05
T1
X3.1811Y-1.4469
X3.1969Y-1.3996
X3.1969Y-1.4154
X3.1969Y-1.4311
X3.2126Y-1.4311
X3.2283Y-1.4311
X3.2441Y-1.3681
X3.2441Y-1.4311
X3.2598Y-1.3681
X3.2598Y-1.3839
X3.2598Y-1.3996
T2
X2.8051Y-1.4232
X2.8051Y-1.4783
X2.841Y-1.3091
X2.9232Y-1.1043
X3.122Y-1.4232
X3.1299Y-1.3976
X3.1363Y-1.6831
X3.2023Y-1.6831
X3.3661Y-1.4961
X3.3819Y-1.9488
X3.3898Y-1.9764
X3.8189Y-1.8897
T0
M30
