%TF.GenerationSoftware,KiCad,Pcbnew,(6.0.6)*%
%TF.CreationDate,2022-09-03T22:19:59-07:00*%
%TF.ProjectId,NourK,4e6f7572-4b2e-46b6-9963-61645f706362,rev?*%
%TF.SameCoordinates,Original*%
%TF.FileFunction,Legend,Top*%
%TF.FilePolarity,Positive*%
%FSLAX46Y46*%
G04 Gerber Fmt 4.6, Leading zero omitted, Abs format (unit mm)*
G04 Created by KiCad (PCBNEW (6.0.6)) date 2022-09-03 22:19:59*
%MOMM*%
%LPD*%
G01*
G04 APERTURE LIST*
%ADD10C,0.150000*%
%ADD11C,0.127000*%
%ADD12C,0.120000*%
%ADD13C,0.200000*%
%ADD14C,0.100000*%
%ADD15C,0.400000*%
G04 APERTURE END LIST*
D10*
X67190476Y-25952380D02*
X67190476Y-24952380D01*
X67761904Y-25952380D01*
X67761904Y-24952380D01*
X68380952Y-25952380D02*
X68285714Y-25904761D01*
X68238095Y-25857142D01*
X68190476Y-25761904D01*
X68190476Y-25476190D01*
X68238095Y-25380952D01*
X68285714Y-25333333D01*
X68380952Y-25285714D01*
X68523809Y-25285714D01*
X68619047Y-25333333D01*
X68666666Y-25380952D01*
X68714285Y-25476190D01*
X68714285Y-25761904D01*
X68666666Y-25857142D01*
X68619047Y-25904761D01*
X68523809Y-25952380D01*
X68380952Y-25952380D01*
X69571428Y-25285714D02*
X69571428Y-25952380D01*
X69142857Y-25285714D02*
X69142857Y-25809523D01*
X69190476Y-25904761D01*
X69285714Y-25952380D01*
X69428571Y-25952380D01*
X69523809Y-25904761D01*
X69571428Y-25857142D01*
X70047619Y-25952380D02*
X70047619Y-25285714D01*
X70047619Y-25476190D02*
X70095238Y-25380952D01*
X70142857Y-25333333D01*
X70238095Y-25285714D01*
X70333333Y-25285714D01*
X71285714Y-24952380D02*
X71619047Y-25952380D01*
X71952380Y-24952380D01*
X72714285Y-25952380D02*
X72714285Y-25428571D01*
X72666666Y-25333333D01*
X72571428Y-25285714D01*
X72380952Y-25285714D01*
X72285714Y-25333333D01*
X72714285Y-25904761D02*
X72619047Y-25952380D01*
X72380952Y-25952380D01*
X72285714Y-25904761D01*
X72238095Y-25809523D01*
X72238095Y-25714285D01*
X72285714Y-25619047D01*
X72380952Y-25571428D01*
X72619047Y-25571428D01*
X72714285Y-25523809D01*
X73333333Y-25952380D02*
X73238095Y-25904761D01*
X73190476Y-25809523D01*
X73190476Y-24952380D01*
X73714285Y-25952380D02*
X73714285Y-24952380D01*
X73809523Y-25571428D02*
X74095238Y-25952380D01*
X74095238Y-25285714D02*
X73714285Y-25666666D01*
X74428571Y-25285714D02*
X74666666Y-25952380D01*
X74904761Y-25285714D02*
X74666666Y-25952380D01*
X74571428Y-26190476D01*
X74523809Y-26238095D01*
X74428571Y-26285714D01*
X75285714Y-25952380D02*
X75285714Y-25285714D01*
X75285714Y-25476190D02*
X75333333Y-25380952D01*
X75380952Y-25333333D01*
X75476190Y-25285714D01*
X75571428Y-25285714D01*
X75904761Y-25952380D02*
X75904761Y-25285714D01*
X75904761Y-24952380D02*
X75857142Y-25000000D01*
X75904761Y-25047619D01*
X75952380Y-25000000D01*
X75904761Y-24952380D01*
X75904761Y-25047619D01*
X76761904Y-25904761D02*
X76666666Y-25952380D01*
X76476190Y-25952380D01*
X76380952Y-25904761D01*
X76333333Y-25809523D01*
X76333333Y-25428571D01*
X76380952Y-25333333D01*
X76476190Y-25285714D01*
X76666666Y-25285714D01*
X76761904Y-25333333D01*
X76809523Y-25428571D01*
X76809523Y-25523809D01*
X76333333Y-25619047D01*
X78571428Y-25857142D02*
X78523809Y-25904761D01*
X78380952Y-25952380D01*
X78285714Y-25952380D01*
X78142857Y-25904761D01*
X78047619Y-25809523D01*
X78000000Y-25714285D01*
X77952380Y-25523809D01*
X77952380Y-25380952D01*
X78000000Y-25190476D01*
X78047619Y-25095238D01*
X78142857Y-25000000D01*
X78285714Y-24952380D01*
X78380952Y-24952380D01*
X78523809Y-25000000D01*
X78571428Y-25047619D01*
X79142857Y-25952380D02*
X79047619Y-25904761D01*
X79000000Y-25857142D01*
X78952380Y-25761904D01*
X78952380Y-25476190D01*
X79000000Y-25380952D01*
X79047619Y-25333333D01*
X79142857Y-25285714D01*
X79285714Y-25285714D01*
X79380952Y-25333333D01*
X79428571Y-25380952D01*
X79476190Y-25476190D01*
X79476190Y-25761904D01*
X79428571Y-25857142D01*
X79380952Y-25904761D01*
X79285714Y-25952380D01*
X79142857Y-25952380D01*
X79904761Y-25952380D02*
X79904761Y-25285714D01*
X79904761Y-25476190D02*
X79952380Y-25380952D01*
X80000000Y-25333333D01*
X80095238Y-25285714D01*
X80190476Y-25285714D01*
X80904761Y-25904761D02*
X80809523Y-25952380D01*
X80619047Y-25952380D01*
X80523809Y-25904761D01*
X80476190Y-25809523D01*
X80476190Y-25428571D01*
X80523809Y-25333333D01*
X80619047Y-25285714D01*
X80809523Y-25285714D01*
X80904761Y-25333333D01*
X80952380Y-25428571D01*
X80952380Y-25523809D01*
X80476190Y-25619047D01*
X82047619Y-25285714D02*
X82285714Y-25952380D01*
X82523809Y-25285714D01*
X83095238Y-24952380D02*
X83190476Y-24952380D01*
X83285714Y-25000000D01*
X83333333Y-25047619D01*
X83380952Y-25142857D01*
X83428571Y-25333333D01*
X83428571Y-25571428D01*
X83380952Y-25761904D01*
X83333333Y-25857142D01*
X83285714Y-25904761D01*
X83190476Y-25952380D01*
X83095238Y-25952380D01*
X83000000Y-25904761D01*
X82952380Y-25857142D01*
X82904761Y-25761904D01*
X82857142Y-25571428D01*
X82857142Y-25333333D01*
X82904761Y-25142857D01*
X82952380Y-25047619D01*
X83000000Y-25000000D01*
X83095238Y-24952380D01*
X83857142Y-25857142D02*
X83904761Y-25904761D01*
X83857142Y-25952380D01*
X83809523Y-25904761D01*
X83857142Y-25857142D01*
X83857142Y-25952380D01*
X84857142Y-25952380D02*
X84285714Y-25952380D01*
X84571428Y-25952380D02*
X84571428Y-24952380D01*
X84476190Y-25095238D01*
X84380952Y-25190476D01*
X84285714Y-25238095D01*
%TO.C,U3*%
X159988095Y-109397380D02*
X159988095Y-110206904D01*
X160035714Y-110302142D01*
X160083333Y-110349761D01*
X160178571Y-110397380D01*
X160369047Y-110397380D01*
X160464285Y-110349761D01*
X160511904Y-110302142D01*
X160559523Y-110206904D01*
X160559523Y-109397380D01*
X160940476Y-109397380D02*
X161559523Y-109397380D01*
X161226190Y-109778333D01*
X161369047Y-109778333D01*
X161464285Y-109825952D01*
X161511904Y-109873571D01*
X161559523Y-109968809D01*
X161559523Y-110206904D01*
X161511904Y-110302142D01*
X161464285Y-110349761D01*
X161369047Y-110397380D01*
X161083333Y-110397380D01*
X160988095Y-110349761D01*
X160940476Y-110302142D01*
%TO.C,U4*%
X50038095Y-58152380D02*
X50038095Y-58961904D01*
X50085714Y-59057142D01*
X50133333Y-59104761D01*
X50228571Y-59152380D01*
X50419047Y-59152380D01*
X50514285Y-59104761D01*
X50561904Y-59057142D01*
X50609523Y-58961904D01*
X50609523Y-58152380D01*
X51514285Y-58485714D02*
X51514285Y-59152380D01*
X51276190Y-58104761D02*
X51038095Y-58819047D01*
X51657142Y-58819047D01*
%TO.C,U5*%
X62011904Y-208147619D02*
X62011904Y-207338095D01*
X61964285Y-207242857D01*
X61916666Y-207195238D01*
X61821428Y-207147619D01*
X61630952Y-207147619D01*
X61535714Y-207195238D01*
X61488095Y-207242857D01*
X61440476Y-207338095D01*
X61440476Y-208147619D01*
X60488095Y-208147619D02*
X60964285Y-208147619D01*
X61011904Y-207671428D01*
X60964285Y-207719047D01*
X60869047Y-207766666D01*
X60630952Y-207766666D01*
X60535714Y-207719047D01*
X60488095Y-207671428D01*
X60440476Y-207576190D01*
X60440476Y-207338095D01*
X60488095Y-207242857D01*
X60535714Y-207195238D01*
X60630952Y-207147619D01*
X60869047Y-207147619D01*
X60964285Y-207195238D01*
X61011904Y-207242857D01*
%TO.C,SW53*%
X54071428Y-227178571D02*
X54214285Y-227226190D01*
X54261904Y-227273809D01*
X54309523Y-227369047D01*
X54309523Y-227511904D01*
X54261904Y-227607142D01*
X54214285Y-227654761D01*
X54119047Y-227702380D01*
X53738095Y-227702380D01*
X53738095Y-226702380D01*
X54071428Y-226702380D01*
X54166666Y-226750000D01*
X54214285Y-226797619D01*
X54261904Y-226892857D01*
X54261904Y-226988095D01*
X54214285Y-227083333D01*
X54166666Y-227130952D01*
X54071428Y-227178571D01*
X53738095Y-227178571D01*
%TO.C,SW36*%
X129761904Y-208416666D02*
X130238095Y-208416666D01*
X129666666Y-208702380D02*
X130000000Y-207702380D01*
X130333333Y-208702380D01*
%TO.C,SW33*%
X147452380Y-207750000D02*
X147357142Y-207702380D01*
X147214285Y-207702380D01*
X147071428Y-207750000D01*
X146976190Y-207845238D01*
X146928571Y-207940476D01*
X146880952Y-208130952D01*
X146880952Y-208273809D01*
X146928571Y-208464285D01*
X146976190Y-208559523D01*
X147071428Y-208654761D01*
X147214285Y-208702380D01*
X147309523Y-208702380D01*
X147452380Y-208654761D01*
X147500000Y-208607142D01*
X147500000Y-208273809D01*
X147309523Y-208273809D01*
X148500000Y-208702380D02*
X148166666Y-208226190D01*
X147928571Y-208702380D02*
X147928571Y-207702380D01*
X148309523Y-207702380D01*
X148404761Y-207750000D01*
X148452380Y-207797619D01*
X148500000Y-207892857D01*
X148500000Y-208035714D01*
X148452380Y-208130952D01*
X148404761Y-208178571D01*
X148309523Y-208226190D01*
X147928571Y-208226190D01*
X148880952Y-208416666D02*
X149357142Y-208416666D01*
X148785714Y-208702380D02*
X149119047Y-207702380D01*
X149452380Y-208702380D01*
X149642857Y-207702380D02*
X149976190Y-208702380D01*
X150309523Y-207702380D01*
X150642857Y-208178571D02*
X150976190Y-208178571D01*
X151119047Y-208702380D02*
X150642857Y-208702380D01*
X150642857Y-207702380D01*
X151119047Y-207702380D01*
%TO.C,SW13*%
X130047619Y-129654761D02*
X130047619Y-129702380D01*
X130000000Y-129797619D01*
X129952380Y-129845238D01*
%TO.C,SW49*%
X72666666Y-224702380D02*
X73000000Y-225702380D01*
X73333333Y-224702380D01*
%TO.C,SW8*%
X149142857Y-115702380D02*
X149142857Y-116416666D01*
X149095238Y-116559523D01*
X149000000Y-116654761D01*
X148857142Y-116702380D01*
X148761904Y-116702380D01*
%TO.C,SW26*%
X53809523Y-100035714D02*
X54047619Y-100035714D01*
X54047619Y-98607142D01*
X53809523Y-98607142D01*
%TO.C,SW23*%
X73190476Y-100035714D02*
X72952380Y-100035714D01*
X72952380Y-98607142D01*
X73190476Y-98607142D01*
%TO.C,SW18*%
X109500000Y-151702380D02*
X109023809Y-151702380D01*
X109023809Y-150702380D01*
X109785714Y-151416666D02*
X110261904Y-151416666D01*
X109690476Y-151702380D02*
X110023809Y-150702380D01*
X110357142Y-151702380D01*
X110880952Y-151226190D02*
X110880952Y-151702380D01*
X110547619Y-150702380D02*
X110880952Y-151226190D01*
X111214285Y-150702380D01*
X111547619Y-151178571D02*
X111880952Y-151178571D01*
X112023809Y-151702380D02*
X111547619Y-151702380D01*
X111547619Y-150702380D01*
X112023809Y-150702380D01*
X113023809Y-151702380D02*
X112690476Y-151226190D01*
X112452380Y-151702380D02*
X112452380Y-150702380D01*
X112833333Y-150702380D01*
X112928571Y-150750000D01*
X112976190Y-150797619D01*
X113023809Y-150892857D01*
X113023809Y-151035714D01*
X112976190Y-151130952D01*
X112928571Y-151178571D01*
X112833333Y-151226190D01*
X112452380Y-151226190D01*
%TO.C,SW21*%
X92428571Y-136654761D02*
X91571428Y-137940476D01*
%TO.C,SW11*%
X130000000Y-91702380D02*
X130000000Y-90702380D01*
%TO.C,SW4*%
X167714285Y-118702380D02*
X167714285Y-117702380D01*
X167714285Y-118178571D02*
X168285714Y-118178571D01*
X168285714Y-118702380D02*
X168285714Y-117702380D01*
%TO.C,SW45*%
X92309523Y-219607142D02*
X92261904Y-219654761D01*
X92119047Y-219702380D01*
X92023809Y-219702380D01*
X91880952Y-219654761D01*
X91785714Y-219559523D01*
X91738095Y-219464285D01*
X91690476Y-219273809D01*
X91690476Y-219130952D01*
X91738095Y-218940476D01*
X91785714Y-218845238D01*
X91880952Y-218750000D01*
X92023809Y-218702380D01*
X92119047Y-218702380D01*
X92261904Y-218750000D01*
X92309523Y-218797619D01*
%TO.C,SW41*%
X110666666Y-221702380D02*
X111333333Y-222702380D01*
X111333333Y-221702380D02*
X110666666Y-222702380D01*
%TO.C,SW42*%
X109023809Y-241702380D02*
X108547619Y-241702380D01*
X108547619Y-240702380D01*
X109309523Y-241416666D02*
X109785714Y-241416666D01*
X109214285Y-241702380D02*
X109547619Y-240702380D01*
X109880952Y-241702380D01*
X110404761Y-241226190D02*
X110404761Y-241702380D01*
X110071428Y-240702380D02*
X110404761Y-241226190D01*
X110738095Y-240702380D01*
X111071428Y-241178571D02*
X111404761Y-241178571D01*
X111547619Y-241702380D02*
X111071428Y-241702380D01*
X111071428Y-240702380D01*
X111547619Y-240702380D01*
X112547619Y-241702380D02*
X112214285Y-241226190D01*
X111976190Y-241702380D02*
X111976190Y-240702380D01*
X112357142Y-240702380D01*
X112452380Y-240750000D01*
X112500000Y-240797619D01*
X112547619Y-240892857D01*
X112547619Y-241035714D01*
X112500000Y-241130952D01*
X112452380Y-241178571D01*
X112357142Y-241226190D01*
X111976190Y-241226190D01*
X113500000Y-241702380D02*
X112928571Y-241702380D01*
X113214285Y-241702380D02*
X113214285Y-240702380D01*
X113119047Y-240845238D01*
X113023809Y-240940476D01*
X112928571Y-240988095D01*
%TO.C,SW20*%
X92047619Y-118654761D02*
X92047619Y-118702380D01*
X92000000Y-118797619D01*
X91952380Y-118845238D01*
X92000000Y-118083333D02*
X92047619Y-118130952D01*
X92000000Y-118178571D01*
X91952380Y-118130952D01*
X92000000Y-118083333D01*
X92000000Y-118178571D01*
%TO.C,SW40*%
X110714285Y-203654761D02*
X110857142Y-203702380D01*
X111095238Y-203702380D01*
X111190476Y-203654761D01*
X111238095Y-203607142D01*
X111285714Y-203511904D01*
X111285714Y-203416666D01*
X111238095Y-203321428D01*
X111190476Y-203273809D01*
X111095238Y-203226190D01*
X110904761Y-203178571D01*
X110809523Y-203130952D01*
X110761904Y-203083333D01*
X110714285Y-202988095D01*
X110714285Y-202892857D01*
X110761904Y-202797619D01*
X110809523Y-202750000D01*
X110904761Y-202702380D01*
X111142857Y-202702380D01*
X111285714Y-202750000D01*
%TO.C,SW51*%
X53714285Y-188702380D02*
X54285714Y-188702380D01*
X54000000Y-189702380D02*
X54000000Y-188702380D01*
%TO.C,SW12*%
X129738095Y-110702380D02*
X129738095Y-109702380D01*
X130309523Y-110702380D02*
X129880952Y-110130952D01*
X130309523Y-109702380D02*
X129738095Y-110273809D01*
%TO.C,SW37*%
X129666666Y-226702380D02*
X130333333Y-226702380D01*
X129666666Y-227702380D01*
X130333333Y-227702380D01*
%TO.C,SW30*%
X165428571Y-189178571D02*
X165761904Y-189178571D01*
X165904761Y-189702380D02*
X165428571Y-189702380D01*
X165428571Y-188702380D01*
X165904761Y-188702380D01*
X166285714Y-189654761D02*
X166428571Y-189702380D01*
X166666666Y-189702380D01*
X166761904Y-189654761D01*
X166809523Y-189607142D01*
X166857142Y-189511904D01*
X166857142Y-189416666D01*
X166809523Y-189321428D01*
X166761904Y-189273809D01*
X166666666Y-189226190D01*
X166476190Y-189178571D01*
X166380952Y-189130952D01*
X166333333Y-189083333D01*
X166285714Y-188988095D01*
X166285714Y-188892857D01*
X166333333Y-188797619D01*
X166380952Y-188750000D01*
X166476190Y-188702380D01*
X166714285Y-188702380D01*
X166857142Y-188750000D01*
X167857142Y-189607142D02*
X167809523Y-189654761D01*
X167666666Y-189702380D01*
X167571428Y-189702380D01*
X167428571Y-189654761D01*
X167333333Y-189559523D01*
X167285714Y-189464285D01*
X167238095Y-189273809D01*
X167238095Y-189130952D01*
X167285714Y-188940476D01*
X167333333Y-188845238D01*
X167428571Y-188750000D01*
X167571428Y-188702380D01*
X167666666Y-188702380D01*
X167809523Y-188750000D01*
X167857142Y-188797619D01*
X168238095Y-189416666D02*
X168714285Y-189416666D01*
X168142857Y-189702380D02*
X168476190Y-188702380D01*
X168809523Y-189702380D01*
X169142857Y-189702380D02*
X169142857Y-188702380D01*
X169523809Y-188702380D01*
X169619047Y-188750000D01*
X169666666Y-188797619D01*
X169714285Y-188892857D01*
X169714285Y-189035714D01*
X169666666Y-189130952D01*
X169619047Y-189178571D01*
X169523809Y-189226190D01*
X169142857Y-189226190D01*
X170142857Y-189178571D02*
X170476190Y-189178571D01*
X170619047Y-189702380D02*
X170142857Y-189702380D01*
X170142857Y-188702380D01*
X170619047Y-188702380D01*
%TO.C,SW25*%
X67761904Y-137702380D02*
X67428571Y-137226190D01*
X67190476Y-137702380D02*
X67190476Y-136702380D01*
X67571428Y-136702380D01*
X67666666Y-136750000D01*
X67714285Y-136797619D01*
X67761904Y-136892857D01*
X67761904Y-137035714D01*
X67714285Y-137130952D01*
X67666666Y-137178571D01*
X67571428Y-137226190D01*
X67190476Y-137226190D01*
X68142857Y-137654761D02*
X68285714Y-137702380D01*
X68523809Y-137702380D01*
X68619047Y-137654761D01*
X68666666Y-137607142D01*
X68714285Y-137511904D01*
X68714285Y-137416666D01*
X68666666Y-137321428D01*
X68619047Y-137273809D01*
X68523809Y-137226190D01*
X68333333Y-137178571D01*
X68238095Y-137130952D01*
X68190476Y-137083333D01*
X68142857Y-136988095D01*
X68142857Y-136892857D01*
X68190476Y-136797619D01*
X68238095Y-136750000D01*
X68333333Y-136702380D01*
X68571428Y-136702380D01*
X68714285Y-136750000D01*
X69142857Y-137702380D02*
X69142857Y-136702380D01*
X69142857Y-137178571D02*
X69714285Y-137178571D01*
X69714285Y-137702380D02*
X69714285Y-136702380D01*
X70190476Y-137702380D02*
X70190476Y-136702380D01*
X71000000Y-137178571D02*
X70666666Y-137178571D01*
X70666666Y-137702380D02*
X70666666Y-136702380D01*
X71142857Y-136702380D01*
X71380952Y-136702380D02*
X71952380Y-136702380D01*
X71666666Y-137702380D02*
X71666666Y-136702380D01*
%TO.C,SW19*%
X91738095Y-99702380D02*
X91738095Y-98702380D01*
X92119047Y-98702380D01*
X92214285Y-98750000D01*
X92261904Y-98797619D01*
X92309523Y-98892857D01*
X92309523Y-99035714D01*
X92261904Y-99130952D01*
X92214285Y-99178571D01*
X92119047Y-99226190D01*
X91738095Y-99226190D01*
%TO.C,SW52*%
X54261904Y-207750000D02*
X54166666Y-207702380D01*
X54023809Y-207702380D01*
X53880952Y-207750000D01*
X53785714Y-207845238D01*
X53738095Y-207940476D01*
X53690476Y-208130952D01*
X53690476Y-208273809D01*
X53738095Y-208464285D01*
X53785714Y-208559523D01*
X53880952Y-208654761D01*
X54023809Y-208702380D01*
X54119047Y-208702380D01*
X54261904Y-208654761D01*
X54309523Y-208607142D01*
X54309523Y-208273809D01*
X54119047Y-208273809D01*
%TO.C,SW38*%
X126880952Y-246702380D02*
X126404761Y-246702380D01*
X126404761Y-245702380D01*
X127214285Y-246178571D02*
X127547619Y-246178571D01*
X127690476Y-246702380D02*
X127214285Y-246702380D01*
X127214285Y-245702380D01*
X127690476Y-245702380D01*
X128452380Y-246178571D02*
X128119047Y-246178571D01*
X128119047Y-246702380D02*
X128119047Y-245702380D01*
X128595238Y-245702380D01*
X128833333Y-245702380D02*
X129404761Y-245702380D01*
X129119047Y-246702380D02*
X129119047Y-245702380D01*
X129500000Y-246797619D02*
X130261904Y-246797619D01*
X131071428Y-246607142D02*
X131023809Y-246654761D01*
X130880952Y-246702380D01*
X130785714Y-246702380D01*
X130642857Y-246654761D01*
X130547619Y-246559523D01*
X130500000Y-246464285D01*
X130452380Y-246273809D01*
X130452380Y-246130952D01*
X130500000Y-245940476D01*
X130547619Y-245845238D01*
X130642857Y-245750000D01*
X130785714Y-245702380D01*
X130880952Y-245702380D01*
X131023809Y-245750000D01*
X131071428Y-245797619D01*
X131357142Y-245702380D02*
X131928571Y-245702380D01*
X131642857Y-246702380D02*
X131642857Y-245702380D01*
X132833333Y-246702380D02*
X132500000Y-246226190D01*
X132261904Y-246702380D02*
X132261904Y-245702380D01*
X132642857Y-245702380D01*
X132738095Y-245750000D01*
X132785714Y-245797619D01*
X132833333Y-245892857D01*
X132833333Y-246035714D01*
X132785714Y-246130952D01*
X132738095Y-246178571D01*
X132642857Y-246226190D01*
X132261904Y-246226190D01*
X133738095Y-246702380D02*
X133261904Y-246702380D01*
X133261904Y-245702380D01*
%TO.C,SW35*%
X130380952Y-189797619D02*
X130285714Y-189750000D01*
X130190476Y-189654761D01*
X130047619Y-189511904D01*
X129952380Y-189464285D01*
X129857142Y-189464285D01*
X129904761Y-189702380D02*
X129809523Y-189654761D01*
X129714285Y-189559523D01*
X129666666Y-189369047D01*
X129666666Y-189035714D01*
X129714285Y-188845238D01*
X129809523Y-188750000D01*
X129904761Y-188702380D01*
X130095238Y-188702380D01*
X130190476Y-188750000D01*
X130285714Y-188845238D01*
X130333333Y-189035714D01*
X130333333Y-189369047D01*
X130285714Y-189559523D01*
X130190476Y-189654761D01*
X130095238Y-189702380D01*
X129904761Y-189702380D01*
%TO.C,SW5*%
X167714285Y-137702380D02*
X167714285Y-136702380D01*
X168285714Y-137702380D01*
X168285714Y-136702380D01*
%TO.C,SW47*%
X73309523Y-187702380D02*
X72976190Y-187226190D01*
X72738095Y-187702380D02*
X72738095Y-186702380D01*
X73119047Y-186702380D01*
X73214285Y-186750000D01*
X73261904Y-186797619D01*
X73309523Y-186892857D01*
X73309523Y-187035714D01*
X73261904Y-187130952D01*
X73214285Y-187178571D01*
X73119047Y-187226190D01*
X72738095Y-187226190D01*
%TO.C,SW50*%
X70452380Y-244702380D02*
X69976190Y-244702380D01*
X69976190Y-243702380D01*
X70785714Y-244178571D02*
X71119047Y-244178571D01*
X71261904Y-244702380D02*
X70785714Y-244702380D01*
X70785714Y-243702380D01*
X71261904Y-243702380D01*
X72023809Y-244178571D02*
X71690476Y-244178571D01*
X71690476Y-244702380D02*
X71690476Y-243702380D01*
X72166666Y-243702380D01*
X72404761Y-243702380D02*
X72976190Y-243702380D01*
X72690476Y-244702380D02*
X72690476Y-243702380D01*
X73071428Y-244797619D02*
X73833333Y-244797619D01*
X74023809Y-244416666D02*
X74500000Y-244416666D01*
X73928571Y-244702380D02*
X74261904Y-243702380D01*
X74595238Y-244702380D01*
X75404761Y-244702380D02*
X74928571Y-244702380D01*
X74928571Y-243702380D01*
X75595238Y-243702380D02*
X76166666Y-243702380D01*
X75880952Y-244702380D02*
X75880952Y-243702380D01*
%TO.C,SW14*%
X128500000Y-148702380D02*
X128023809Y-148702380D01*
X128023809Y-147702380D01*
X128785714Y-148416666D02*
X129261904Y-148416666D01*
X128690476Y-148702380D02*
X129023809Y-147702380D01*
X129357142Y-148702380D01*
X129880952Y-148226190D02*
X129880952Y-148702380D01*
X129547619Y-147702380D02*
X129880952Y-148226190D01*
X130214285Y-147702380D01*
X130547619Y-148178571D02*
X130880952Y-148178571D01*
X131023809Y-148702380D02*
X130547619Y-148702380D01*
X130547619Y-147702380D01*
X131023809Y-147702380D01*
X132023809Y-148702380D02*
X131690476Y-148226190D01*
X131452380Y-148702380D02*
X131452380Y-147702380D01*
X131833333Y-147702380D01*
X131928571Y-147750000D01*
X131976190Y-147797619D01*
X132023809Y-147892857D01*
X132023809Y-148035714D01*
X131976190Y-148130952D01*
X131928571Y-148178571D01*
X131833333Y-148226190D01*
X131452380Y-148226190D01*
%TO.C,SW9*%
X148666666Y-135702380D02*
X148666666Y-134702380D01*
X149000000Y-135416666D01*
X149333333Y-134702380D01*
X149333333Y-135702380D01*
%TO.C,SW17*%
X111000000Y-132607142D02*
X111047619Y-132654761D01*
X111000000Y-132702380D01*
X110952380Y-132654761D01*
X111000000Y-132607142D01*
X111000000Y-132702380D01*
%TO.C,SW43*%
X91785714Y-181178571D02*
X92119047Y-181178571D01*
X92261904Y-181702380D02*
X91785714Y-181702380D01*
X91785714Y-180702380D01*
X92261904Y-180702380D01*
%TO.C,SW32*%
X147785714Y-188702380D02*
X148357142Y-188702380D01*
X148071428Y-189702380D02*
X148071428Y-188702380D01*
X148642857Y-189416666D02*
X149119047Y-189416666D01*
X148547619Y-189702380D02*
X148880952Y-188702380D01*
X149214285Y-189702380D01*
X149880952Y-189178571D02*
X150023809Y-189226190D01*
X150071428Y-189273809D01*
X150119047Y-189369047D01*
X150119047Y-189511904D01*
X150071428Y-189607142D01*
X150023809Y-189654761D01*
X149928571Y-189702380D01*
X149547619Y-189702380D01*
X149547619Y-188702380D01*
X149880952Y-188702380D01*
X149976190Y-188750000D01*
X150023809Y-188797619D01*
X150071428Y-188892857D01*
X150071428Y-188988095D01*
X150023809Y-189083333D01*
X149976190Y-189130952D01*
X149880952Y-189178571D01*
X149547619Y-189178571D01*
%TO.C,SW44*%
X91738095Y-200702380D02*
X91738095Y-199702380D01*
X91976190Y-199702380D01*
X92119047Y-199750000D01*
X92214285Y-199845238D01*
X92261904Y-199940476D01*
X92309523Y-200130952D01*
X92309523Y-200273809D01*
X92261904Y-200464285D01*
X92214285Y-200559523D01*
X92119047Y-200654761D01*
X91976190Y-200702380D01*
X91738095Y-200702380D01*
%TO.C,SW24*%
X73047619Y-117702380D02*
X72952380Y-117892857D01*
%TO.C,SW31*%
X169547619Y-207702380D02*
X169738095Y-207702380D01*
X169833333Y-207750000D01*
X169928571Y-207845238D01*
X169976190Y-208035714D01*
X169976190Y-208369047D01*
X169928571Y-208559523D01*
X169833333Y-208654761D01*
X169738095Y-208702380D01*
X169547619Y-208702380D01*
X169452380Y-208654761D01*
X169357142Y-208559523D01*
X169309523Y-208369047D01*
X169309523Y-208035714D01*
X169357142Y-207845238D01*
X169452380Y-207750000D01*
X169547619Y-207702380D01*
X170357142Y-208654761D02*
X170500000Y-208702380D01*
X170738095Y-208702380D01*
X170833333Y-208654761D01*
X170880952Y-208607142D01*
X170928571Y-208511904D01*
X170928571Y-208416666D01*
X170880952Y-208321428D01*
X170833333Y-208273809D01*
X170738095Y-208226190D01*
X170547619Y-208178571D01*
X170452380Y-208130952D01*
X170404761Y-208083333D01*
X170357142Y-207988095D01*
X170357142Y-207892857D01*
X170404761Y-207797619D01*
X170452380Y-207750000D01*
X170547619Y-207702380D01*
X170785714Y-207702380D01*
X170928571Y-207750000D01*
X171357142Y-208702380D02*
X171357142Y-207702380D01*
X171928571Y-208702380D02*
X171500000Y-208130952D01*
X171928571Y-207702380D02*
X171357142Y-208273809D01*
X172357142Y-208178571D02*
X172690476Y-208178571D01*
X172833333Y-208702380D02*
X172357142Y-208702380D01*
X172357142Y-207702380D01*
X172833333Y-207702380D01*
X173452380Y-208226190D02*
X173452380Y-208702380D01*
X173119047Y-207702380D02*
X173452380Y-208226190D01*
X173785714Y-207702380D01*
%TO.C,SW22*%
X90523809Y-156702380D02*
X90190476Y-156226190D01*
X89952380Y-156702380D02*
X89952380Y-155702380D01*
X90333333Y-155702380D01*
X90428571Y-155750000D01*
X90476190Y-155797619D01*
X90523809Y-155892857D01*
X90523809Y-156035714D01*
X90476190Y-156130952D01*
X90428571Y-156178571D01*
X90333333Y-156226190D01*
X89952380Y-156226190D01*
X91523809Y-156607142D02*
X91476190Y-156654761D01*
X91333333Y-156702380D01*
X91238095Y-156702380D01*
X91095238Y-156654761D01*
X91000000Y-156559523D01*
X90952380Y-156464285D01*
X90904761Y-156273809D01*
X90904761Y-156130952D01*
X90952380Y-155940476D01*
X91000000Y-155845238D01*
X91095238Y-155750000D01*
X91238095Y-155702380D01*
X91333333Y-155702380D01*
X91476190Y-155750000D01*
X91523809Y-155797619D01*
X91809523Y-155702380D02*
X92380952Y-155702380D01*
X92095238Y-156702380D02*
X92095238Y-155702380D01*
X93285714Y-156702380D02*
X92952380Y-156226190D01*
X92714285Y-156702380D02*
X92714285Y-155702380D01*
X93095238Y-155702380D01*
X93190476Y-155750000D01*
X93238095Y-155797619D01*
X93285714Y-155892857D01*
X93285714Y-156035714D01*
X93238095Y-156130952D01*
X93190476Y-156178571D01*
X93095238Y-156226190D01*
X92714285Y-156226190D01*
X94190476Y-156702380D02*
X93714285Y-156702380D01*
X93714285Y-155702380D01*
%TO.C,SW48*%
X73142857Y-206178571D02*
X72809523Y-206178571D01*
X72809523Y-206702380D02*
X72809523Y-205702380D01*
X73285714Y-205702380D01*
%TO.C,SW10*%
X147500000Y-154702380D02*
X147023809Y-154702380D01*
X147023809Y-153702380D01*
X147785714Y-154416666D02*
X148261904Y-154416666D01*
X147690476Y-154702380D02*
X148023809Y-153702380D01*
X148357142Y-154702380D01*
X148880952Y-154226190D02*
X148880952Y-154702380D01*
X148547619Y-153702380D02*
X148880952Y-154226190D01*
X149214285Y-153702380D01*
X149547619Y-154178571D02*
X149880952Y-154178571D01*
X150023809Y-154702380D02*
X149547619Y-154702380D01*
X149547619Y-153702380D01*
X150023809Y-153702380D01*
X151023809Y-154702380D02*
X150690476Y-154226190D01*
X150452380Y-154702380D02*
X150452380Y-153702380D01*
X150833333Y-153702380D01*
X150928571Y-153750000D01*
X150976190Y-153797619D01*
X151023809Y-153892857D01*
X151023809Y-154035714D01*
X150976190Y-154130952D01*
X150928571Y-154178571D01*
X150833333Y-154226190D01*
X150452380Y-154226190D01*
%TO.C,SW46*%
X90023809Y-238702380D02*
X89547619Y-238702380D01*
X89547619Y-237702380D01*
X90309523Y-238416666D02*
X90785714Y-238416666D01*
X90214285Y-238702380D02*
X90547619Y-237702380D01*
X90880952Y-238702380D01*
X91404761Y-238226190D02*
X91404761Y-238702380D01*
X91071428Y-237702380D02*
X91404761Y-238226190D01*
X91738095Y-237702380D01*
X92071428Y-238178571D02*
X92404761Y-238178571D01*
X92547619Y-238702380D02*
X92071428Y-238702380D01*
X92071428Y-237702380D01*
X92547619Y-237702380D01*
X93547619Y-238702380D02*
X93214285Y-238226190D01*
X92976190Y-238702380D02*
X92976190Y-237702380D01*
X93357142Y-237702380D01*
X93452380Y-237750000D01*
X93500000Y-237797619D01*
X93547619Y-237892857D01*
X93547619Y-238035714D01*
X93500000Y-238130952D01*
X93452380Y-238178571D01*
X93357142Y-238226190D01*
X92976190Y-238226190D01*
X93928571Y-237797619D02*
X93976190Y-237750000D01*
X94071428Y-237702380D01*
X94309523Y-237702380D01*
X94404761Y-237750000D01*
X94452380Y-237797619D01*
X94500000Y-237892857D01*
X94500000Y-237988095D01*
X94452380Y-238130952D01*
X93880952Y-238702380D01*
X94500000Y-238702380D01*
%TO.C,SW34*%
X149119047Y-227702380D02*
X148642857Y-227702380D01*
X148642857Y-226702380D01*
X149452380Y-227178571D02*
X149785714Y-227178571D01*
X149928571Y-227702380D02*
X149452380Y-227702380D01*
X149452380Y-226702380D01*
X149928571Y-226702380D01*
X150690476Y-227178571D02*
X150357142Y-227178571D01*
X150357142Y-227702380D02*
X150357142Y-226702380D01*
X150833333Y-226702380D01*
X151071428Y-226702380D02*
X151642857Y-226702380D01*
X151357142Y-227702380D02*
X151357142Y-226702380D01*
X151738095Y-227797619D02*
X152500000Y-227797619D01*
X152690476Y-227654761D02*
X152833333Y-227702380D01*
X153071428Y-227702380D01*
X153166666Y-227654761D01*
X153214285Y-227607142D01*
X153261904Y-227511904D01*
X153261904Y-227416666D01*
X153214285Y-227321428D01*
X153166666Y-227273809D01*
X153071428Y-227226190D01*
X152880952Y-227178571D01*
X152785714Y-227130952D01*
X152738095Y-227083333D01*
X152690476Y-226988095D01*
X152690476Y-226892857D01*
X152738095Y-226797619D01*
X152785714Y-226750000D01*
X152880952Y-226702380D01*
X153119047Y-226702380D01*
X153261904Y-226750000D01*
X153690476Y-227702380D02*
X153690476Y-226702380D01*
X153690476Y-227178571D02*
X154261904Y-227178571D01*
X154261904Y-227702380D02*
X154261904Y-226702380D01*
X154738095Y-227702380D02*
X154738095Y-226702380D01*
X155547619Y-227178571D02*
X155214285Y-227178571D01*
X155214285Y-227702380D02*
X155214285Y-226702380D01*
X155690476Y-226702380D01*
X155928571Y-226702380D02*
X156500000Y-226702380D01*
X156214285Y-227702380D02*
X156214285Y-226702380D01*
%TO.C,SW16*%
X111309523Y-113702380D02*
X110833333Y-113702380D01*
X110833333Y-112702380D01*
%TO.C,SW15*%
X110904761Y-93702380D02*
X111095238Y-93702380D01*
X111190476Y-93750000D01*
X111285714Y-93845238D01*
X111333333Y-94035714D01*
X111333333Y-94369047D01*
X111285714Y-94559523D01*
X111190476Y-94654761D01*
X111095238Y-94702380D01*
X110904761Y-94702380D01*
X110809523Y-94654761D01*
X110714285Y-94559523D01*
X110666666Y-94369047D01*
X110666666Y-94035714D01*
X110714285Y-93845238D01*
X110809523Y-93750000D01*
X110904761Y-93702380D01*
%TO.C,SW54*%
X48333333Y-246654761D02*
X48476190Y-246702380D01*
X48714285Y-246702380D01*
X48809523Y-246654761D01*
X48857142Y-246607142D01*
X48904761Y-246511904D01*
X48904761Y-246416666D01*
X48857142Y-246321428D01*
X48809523Y-246273809D01*
X48714285Y-246226190D01*
X48523809Y-246178571D01*
X48428571Y-246130952D01*
X48380952Y-246083333D01*
X48333333Y-245988095D01*
X48333333Y-245892857D01*
X48380952Y-245797619D01*
X48428571Y-245750000D01*
X48523809Y-245702380D01*
X48761904Y-245702380D01*
X48904761Y-245750000D01*
X49333333Y-246702380D02*
X49333333Y-245702380D01*
X49714285Y-245702380D01*
X49809523Y-245750000D01*
X49857142Y-245797619D01*
X49904761Y-245892857D01*
X49904761Y-246035714D01*
X49857142Y-246130952D01*
X49809523Y-246178571D01*
X49714285Y-246226190D01*
X49333333Y-246226190D01*
X50285714Y-246416666D02*
X50761904Y-246416666D01*
X50190476Y-246702380D02*
X50523809Y-245702380D01*
X50857142Y-246702380D01*
X51761904Y-246607142D02*
X51714285Y-246654761D01*
X51571428Y-246702380D01*
X51476190Y-246702380D01*
X51333333Y-246654761D01*
X51238095Y-246559523D01*
X51190476Y-246464285D01*
X51142857Y-246273809D01*
X51142857Y-246130952D01*
X51190476Y-245940476D01*
X51238095Y-245845238D01*
X51333333Y-245750000D01*
X51476190Y-245702380D01*
X51571428Y-245702380D01*
X51714285Y-245750000D01*
X51761904Y-245797619D01*
X52190476Y-246178571D02*
X52523809Y-246178571D01*
X52666666Y-246702380D02*
X52190476Y-246702380D01*
X52190476Y-245702380D01*
X52666666Y-245702380D01*
%TO.C,SW39*%
X110571428Y-183702380D02*
X110809523Y-184702380D01*
X111000000Y-183988095D01*
X111190476Y-184702380D01*
X111428571Y-183702380D01*
%TO.C,SW7*%
X148714285Y-96702380D02*
X148714285Y-97511904D01*
X148761904Y-97607142D01*
X148809523Y-97654761D01*
X148904761Y-97702380D01*
X149095238Y-97702380D01*
X149190476Y-97654761D01*
X149238095Y-97607142D01*
X149285714Y-97511904D01*
X149285714Y-96702380D01*
%TO.C,SW27*%
X48428571Y-118178571D02*
X48761904Y-118178571D01*
X48904761Y-118702380D02*
X48428571Y-118702380D01*
X48428571Y-117702380D01*
X48904761Y-117702380D01*
X49333333Y-118702380D02*
X49333333Y-117702380D01*
X49904761Y-118702380D01*
X49904761Y-117702380D01*
X50238095Y-117702380D02*
X50809523Y-117702380D01*
X50523809Y-118702380D02*
X50523809Y-117702380D01*
X51142857Y-118178571D02*
X51476190Y-118178571D01*
X51619047Y-118702380D02*
X51142857Y-118702380D01*
X51142857Y-117702380D01*
X51619047Y-117702380D01*
X52619047Y-118702380D02*
X52285714Y-118226190D01*
X52047619Y-118702380D02*
X52047619Y-117702380D01*
X52428571Y-117702380D01*
X52523809Y-117750000D01*
X52571428Y-117797619D01*
X52619047Y-117892857D01*
X52619047Y-118035714D01*
X52571428Y-118130952D01*
X52523809Y-118178571D01*
X52428571Y-118226190D01*
X52047619Y-118226190D01*
%TO.C,SW6*%
X169333333Y-156654761D02*
X169476190Y-156702380D01*
X169714285Y-156702380D01*
X169809523Y-156654761D01*
X169857142Y-156607142D01*
X169904761Y-156511904D01*
X169904761Y-156416666D01*
X169857142Y-156321428D01*
X169809523Y-156273809D01*
X169714285Y-156226190D01*
X169523809Y-156178571D01*
X169428571Y-156130952D01*
X169380952Y-156083333D01*
X169333333Y-155988095D01*
X169333333Y-155892857D01*
X169380952Y-155797619D01*
X169428571Y-155750000D01*
X169523809Y-155702380D01*
X169761904Y-155702380D01*
X169904761Y-155750000D01*
X170333333Y-156702380D02*
X170333333Y-155702380D01*
X170714285Y-155702380D01*
X170809523Y-155750000D01*
X170857142Y-155797619D01*
X170904761Y-155892857D01*
X170904761Y-156035714D01*
X170857142Y-156130952D01*
X170809523Y-156178571D01*
X170714285Y-156226190D01*
X170333333Y-156226190D01*
X171285714Y-156416666D02*
X171761904Y-156416666D01*
X171190476Y-156702380D02*
X171523809Y-155702380D01*
X171857142Y-156702380D01*
X172761904Y-156607142D02*
X172714285Y-156654761D01*
X172571428Y-156702380D01*
X172476190Y-156702380D01*
X172333333Y-156654761D01*
X172238095Y-156559523D01*
X172190476Y-156464285D01*
X172142857Y-156273809D01*
X172142857Y-156130952D01*
X172190476Y-155940476D01*
X172238095Y-155845238D01*
X172333333Y-155750000D01*
X172476190Y-155702380D01*
X172571428Y-155702380D01*
X172714285Y-155750000D01*
X172761904Y-155797619D01*
X173190476Y-156178571D02*
X173523809Y-156178571D01*
X173666666Y-156702380D02*
X173190476Y-156702380D01*
X173190476Y-155702380D01*
X173666666Y-155702380D01*
%TO.C,SW3*%
X168000000Y-99226190D02*
X168000000Y-99702380D01*
X167666666Y-98702380D02*
X168000000Y-99226190D01*
X168333333Y-98702380D01*
%TO.C,C2*%
X85157023Y-39607142D02*
X85109404Y-39654761D01*
X84966547Y-39702380D01*
X84871309Y-39702380D01*
X84728452Y-39654761D01*
X84633214Y-39559523D01*
X84585595Y-39464285D01*
X84537976Y-39273809D01*
X84537976Y-39130952D01*
X84585595Y-38940476D01*
X84633214Y-38845238D01*
X84728452Y-38750000D01*
X84871309Y-38702380D01*
X84966547Y-38702380D01*
X85109404Y-38750000D01*
X85157023Y-38797619D01*
X85537976Y-38797619D02*
X85585595Y-38750000D01*
X85680833Y-38702380D01*
X85918928Y-38702380D01*
X86014166Y-38750000D01*
X86061785Y-38797619D01*
X86109404Y-38892857D01*
X86109404Y-38988095D01*
X86061785Y-39130952D01*
X85490357Y-39702380D01*
X86109404Y-39702380D01*
%TO.C,R2*%
X76009642Y-43202380D02*
X75676309Y-42726190D01*
X75438214Y-43202380D02*
X75438214Y-42202380D01*
X75819166Y-42202380D01*
X75914404Y-42250000D01*
X75962023Y-42297619D01*
X76009642Y-42392857D01*
X76009642Y-42535714D01*
X75962023Y-42630952D01*
X75914404Y-42678571D01*
X75819166Y-42726190D01*
X75438214Y-42726190D01*
X76390595Y-42297619D02*
X76438214Y-42250000D01*
X76533452Y-42202380D01*
X76771547Y-42202380D01*
X76866785Y-42250000D01*
X76914404Y-42297619D01*
X76962023Y-42392857D01*
X76962023Y-42488095D01*
X76914404Y-42630952D01*
X76342976Y-43202380D01*
X76962023Y-43202380D01*
%TO.C,C1*%
X85157023Y-41357142D02*
X85109404Y-41404761D01*
X84966547Y-41452380D01*
X84871309Y-41452380D01*
X84728452Y-41404761D01*
X84633214Y-41309523D01*
X84585595Y-41214285D01*
X84537976Y-41023809D01*
X84537976Y-40880952D01*
X84585595Y-40690476D01*
X84633214Y-40595238D01*
X84728452Y-40500000D01*
X84871309Y-40452380D01*
X84966547Y-40452380D01*
X85109404Y-40500000D01*
X85157023Y-40547619D01*
X86109404Y-41452380D02*
X85537976Y-41452380D01*
X85823690Y-41452380D02*
X85823690Y-40452380D01*
X85728452Y-40595238D01*
X85633214Y-40690476D01*
X85537976Y-40738095D01*
%TO.C,R3*%
X84657023Y-43202380D02*
X84323690Y-42726190D01*
X84085595Y-43202380D02*
X84085595Y-42202380D01*
X84466547Y-42202380D01*
X84561785Y-42250000D01*
X84609404Y-42297619D01*
X84657023Y-42392857D01*
X84657023Y-42535714D01*
X84609404Y-42630952D01*
X84561785Y-42678571D01*
X84466547Y-42726190D01*
X84085595Y-42726190D01*
X84990357Y-42202380D02*
X85609404Y-42202380D01*
X85276071Y-42583333D01*
X85418928Y-42583333D01*
X85514166Y-42630952D01*
X85561785Y-42678571D01*
X85609404Y-42773809D01*
X85609404Y-43011904D01*
X85561785Y-43107142D01*
X85514166Y-43154761D01*
X85418928Y-43202380D01*
X85133214Y-43202380D01*
X85037976Y-43154761D01*
X84990357Y-43107142D01*
%TO.C,C21*%
X74307261Y-41107142D02*
X74259642Y-41154761D01*
X74116785Y-41202380D01*
X74021547Y-41202380D01*
X73878690Y-41154761D01*
X73783452Y-41059523D01*
X73735833Y-40964285D01*
X73688214Y-40773809D01*
X73688214Y-40630952D01*
X73735833Y-40440476D01*
X73783452Y-40345238D01*
X73878690Y-40250000D01*
X74021547Y-40202380D01*
X74116785Y-40202380D01*
X74259642Y-40250000D01*
X74307261Y-40297619D01*
X74688214Y-40297619D02*
X74735833Y-40250000D01*
X74831071Y-40202380D01*
X75069166Y-40202380D01*
X75164404Y-40250000D01*
X75212023Y-40297619D01*
X75259642Y-40392857D01*
X75259642Y-40488095D01*
X75212023Y-40630952D01*
X74640595Y-41202380D01*
X75259642Y-41202380D01*
X76212023Y-41202380D02*
X75640595Y-41202380D01*
X75926309Y-41202380D02*
X75926309Y-40202380D01*
X75831071Y-40345238D01*
X75735833Y-40440476D01*
X75640595Y-40488095D01*
%TO.C,C4*%
X75259642Y-39607142D02*
X75212023Y-39654761D01*
X75069166Y-39702380D01*
X74973928Y-39702380D01*
X74831071Y-39654761D01*
X74735833Y-39559523D01*
X74688214Y-39464285D01*
X74640595Y-39273809D01*
X74640595Y-39130952D01*
X74688214Y-38940476D01*
X74735833Y-38845238D01*
X74831071Y-38750000D01*
X74973928Y-38702380D01*
X75069166Y-38702380D01*
X75212023Y-38750000D01*
X75259642Y-38797619D01*
X76116785Y-39035714D02*
X76116785Y-39702380D01*
X75878690Y-38654761D02*
X75640595Y-39369047D01*
X76259642Y-39369047D01*
%TO.C,D46*%
X82222857Y-171642523D02*
X82222857Y-171002523D01*
X82375238Y-171002523D01*
X82466666Y-171033000D01*
X82527619Y-171093952D01*
X82558095Y-171154904D01*
X82588571Y-171276809D01*
X82588571Y-171368238D01*
X82558095Y-171490142D01*
X82527619Y-171551095D01*
X82466666Y-171612047D01*
X82375238Y-171642523D01*
X82222857Y-171642523D01*
X83137142Y-171215857D02*
X83137142Y-171642523D01*
X82984761Y-170972047D02*
X82832380Y-171429190D01*
X83228571Y-171429190D01*
X83746666Y-171002523D02*
X83624761Y-171002523D01*
X83563809Y-171033000D01*
X83533333Y-171063476D01*
X83472380Y-171154904D01*
X83441904Y-171276809D01*
X83441904Y-171520619D01*
X83472380Y-171581571D01*
X83502857Y-171612047D01*
X83563809Y-171642523D01*
X83685714Y-171642523D01*
X83746666Y-171612047D01*
X83777142Y-171581571D01*
X83807619Y-171520619D01*
X83807619Y-171368238D01*
X83777142Y-171307285D01*
X83746666Y-171276809D01*
X83685714Y-171246333D01*
X83563809Y-171246333D01*
X83502857Y-171276809D01*
X83472380Y-171307285D01*
X83441904Y-171368238D01*
D11*
%TO.C,D79*%
X119735000Y-182085000D02*
X119735000Y-181455000D01*
X119885000Y-181455000D01*
X119975000Y-181485000D01*
X120035000Y-181545000D01*
X120065000Y-181605000D01*
X120095000Y-181725000D01*
X120095000Y-181815000D01*
X120065000Y-181935000D01*
X120035000Y-181995000D01*
X119975000Y-182055000D01*
X119885000Y-182085000D01*
X119735000Y-182085000D01*
X120305000Y-181455000D02*
X120725000Y-181455000D01*
X120455000Y-182085000D01*
X120995000Y-182085000D02*
X121115000Y-182085000D01*
X121175000Y-182055000D01*
X121205000Y-182025000D01*
X121265000Y-181935000D01*
X121295000Y-181815000D01*
X121295000Y-181575000D01*
X121265000Y-181515000D01*
X121235000Y-181485000D01*
X121175000Y-181455000D01*
X121055000Y-181455000D01*
X120995000Y-181485000D01*
X120965000Y-181515000D01*
X120935000Y-181575000D01*
X120935000Y-181725000D01*
X120965000Y-181785000D01*
X120995000Y-181815000D01*
X121055000Y-181845000D01*
X121175000Y-181845000D01*
X121235000Y-181815000D01*
X121265000Y-181785000D01*
X121295000Y-181725000D01*
D10*
%TO.C,C6*%
X74759642Y-35857142D02*
X74712023Y-35904761D01*
X74569166Y-35952380D01*
X74473928Y-35952380D01*
X74331071Y-35904761D01*
X74235833Y-35809523D01*
X74188214Y-35714285D01*
X74140595Y-35523809D01*
X74140595Y-35380952D01*
X74188214Y-35190476D01*
X74235833Y-35095238D01*
X74331071Y-35000000D01*
X74473928Y-34952380D01*
X74569166Y-34952380D01*
X74712023Y-35000000D01*
X74759642Y-35047619D01*
X75616785Y-34952380D02*
X75426309Y-34952380D01*
X75331071Y-35000000D01*
X75283452Y-35047619D01*
X75188214Y-35190476D01*
X75140595Y-35380952D01*
X75140595Y-35761904D01*
X75188214Y-35857142D01*
X75235833Y-35904761D01*
X75331071Y-35952380D01*
X75521547Y-35952380D01*
X75616785Y-35904761D01*
X75664404Y-35857142D01*
X75712023Y-35761904D01*
X75712023Y-35523809D01*
X75664404Y-35428571D01*
X75616785Y-35380952D01*
X75521547Y-35333333D01*
X75331071Y-35333333D01*
X75235833Y-35380952D01*
X75188214Y-35428571D01*
X75140595Y-35523809D01*
%TO.C,D49*%
X82222857Y-228642523D02*
X82222857Y-228002523D01*
X82375238Y-228002523D01*
X82466666Y-228033000D01*
X82527619Y-228093952D01*
X82558095Y-228154904D01*
X82588571Y-228276809D01*
X82588571Y-228368238D01*
X82558095Y-228490142D01*
X82527619Y-228551095D01*
X82466666Y-228612047D01*
X82375238Y-228642523D01*
X82222857Y-228642523D01*
X83137142Y-228215857D02*
X83137142Y-228642523D01*
X82984761Y-227972047D02*
X82832380Y-228429190D01*
X83228571Y-228429190D01*
X83502857Y-228642523D02*
X83624761Y-228642523D01*
X83685714Y-228612047D01*
X83716190Y-228581571D01*
X83777142Y-228490142D01*
X83807619Y-228368238D01*
X83807619Y-228124428D01*
X83777142Y-228063476D01*
X83746666Y-228033000D01*
X83685714Y-228002523D01*
X83563809Y-228002523D01*
X83502857Y-228033000D01*
X83472380Y-228063476D01*
X83441904Y-228124428D01*
X83441904Y-228276809D01*
X83472380Y-228337761D01*
X83502857Y-228368238D01*
X83563809Y-228398714D01*
X83685714Y-228398714D01*
X83746666Y-228368238D01*
X83777142Y-228337761D01*
X83807619Y-228276809D01*
D11*
%TO.C,D34*%
X167235000Y-119585000D02*
X167235000Y-118955000D01*
X167385000Y-118955000D01*
X167475000Y-118985000D01*
X167535000Y-119045000D01*
X167565000Y-119105000D01*
X167595000Y-119225000D01*
X167595000Y-119315000D01*
X167565000Y-119435000D01*
X167535000Y-119495000D01*
X167475000Y-119555000D01*
X167385000Y-119585000D01*
X167235000Y-119585000D01*
X167805000Y-118955000D02*
X168195000Y-118955000D01*
X167985000Y-119195000D01*
X168075000Y-119195000D01*
X168135000Y-119225000D01*
X168165000Y-119255000D01*
X168195000Y-119315000D01*
X168195000Y-119465000D01*
X168165000Y-119525000D01*
X168135000Y-119555000D01*
X168075000Y-119585000D01*
X167895000Y-119585000D01*
X167835000Y-119555000D01*
X167805000Y-119525000D01*
X168735000Y-119165000D02*
X168735000Y-119585000D01*
X168585000Y-118925000D02*
X168435000Y-119375000D01*
X168825000Y-119375000D01*
D10*
%TO.C,FB1*%
X73564404Y-36978571D02*
X73231071Y-36978571D01*
X73231071Y-37502380D02*
X73231071Y-36502380D01*
X73707261Y-36502380D01*
X74421547Y-36978571D02*
X74564404Y-37026190D01*
X74612023Y-37073809D01*
X74659642Y-37169047D01*
X74659642Y-37311904D01*
X74612023Y-37407142D01*
X74564404Y-37454761D01*
X74469166Y-37502380D01*
X74088214Y-37502380D01*
X74088214Y-36502380D01*
X74421547Y-36502380D01*
X74516785Y-36550000D01*
X74564404Y-36597619D01*
X74612023Y-36692857D01*
X74612023Y-36788095D01*
X74564404Y-36883333D01*
X74516785Y-36930952D01*
X74421547Y-36978571D01*
X74088214Y-36978571D01*
X75612023Y-37502380D02*
X75040595Y-37502380D01*
X75326309Y-37502380D02*
X75326309Y-36502380D01*
X75231071Y-36645238D01*
X75135833Y-36740476D01*
X75040595Y-36788095D01*
D11*
%TO.C,D81*%
X157735000Y-182085000D02*
X157735000Y-181455000D01*
X157885000Y-181455000D01*
X157975000Y-181485000D01*
X158035000Y-181545000D01*
X158065000Y-181605000D01*
X158095000Y-181725000D01*
X158095000Y-181815000D01*
X158065000Y-181935000D01*
X158035000Y-181995000D01*
X157975000Y-182055000D01*
X157885000Y-182085000D01*
X157735000Y-182085000D01*
X158455000Y-181725000D02*
X158395000Y-181695000D01*
X158365000Y-181665000D01*
X158335000Y-181605000D01*
X158335000Y-181575000D01*
X158365000Y-181515000D01*
X158395000Y-181485000D01*
X158455000Y-181455000D01*
X158575000Y-181455000D01*
X158635000Y-181485000D01*
X158665000Y-181515000D01*
X158695000Y-181575000D01*
X158695000Y-181605000D01*
X158665000Y-181665000D01*
X158635000Y-181695000D01*
X158575000Y-181725000D01*
X158455000Y-181725000D01*
X158395000Y-181755000D01*
X158365000Y-181785000D01*
X158335000Y-181845000D01*
X158335000Y-181965000D01*
X158365000Y-182025000D01*
X158395000Y-182055000D01*
X158455000Y-182085000D01*
X158575000Y-182085000D01*
X158635000Y-182055000D01*
X158665000Y-182025000D01*
X158695000Y-181965000D01*
X158695000Y-181845000D01*
X158665000Y-181785000D01*
X158635000Y-181755000D01*
X158575000Y-181725000D01*
X159295000Y-182085000D02*
X158935000Y-182085000D01*
X159115000Y-182085000D02*
X159115000Y-181455000D01*
X159055000Y-181545000D01*
X158995000Y-181605000D01*
X158935000Y-181635000D01*
D10*
%TO.C,R12*%
X83857142Y-54952380D02*
X83523809Y-54476190D01*
X83285714Y-54952380D02*
X83285714Y-53952380D01*
X83666666Y-53952380D01*
X83761904Y-54000000D01*
X83809523Y-54047619D01*
X83857142Y-54142857D01*
X83857142Y-54285714D01*
X83809523Y-54380952D01*
X83761904Y-54428571D01*
X83666666Y-54476190D01*
X83285714Y-54476190D01*
X84809523Y-54952380D02*
X84238095Y-54952380D01*
X84523809Y-54952380D02*
X84523809Y-53952380D01*
X84428571Y-54095238D01*
X84333333Y-54190476D01*
X84238095Y-54238095D01*
X85190476Y-54047619D02*
X85238095Y-54000000D01*
X85333333Y-53952380D01*
X85571428Y-53952380D01*
X85666666Y-54000000D01*
X85714285Y-54047619D01*
X85761904Y-54142857D01*
X85761904Y-54238095D01*
X85714285Y-54380952D01*
X85142857Y-54952380D01*
X85761904Y-54952380D01*
%TO.C,D5*%
X81527619Y-88892523D02*
X81527619Y-88252523D01*
X81680000Y-88252523D01*
X81771428Y-88283000D01*
X81832380Y-88343952D01*
X81862857Y-88404904D01*
X81893333Y-88526809D01*
X81893333Y-88618238D01*
X81862857Y-88740142D01*
X81832380Y-88801095D01*
X81771428Y-88862047D01*
X81680000Y-88892523D01*
X81527619Y-88892523D01*
X82472380Y-88252523D02*
X82167619Y-88252523D01*
X82137142Y-88557285D01*
X82167619Y-88526809D01*
X82228571Y-88496333D01*
X82380952Y-88496333D01*
X82441904Y-88526809D01*
X82472380Y-88557285D01*
X82502857Y-88618238D01*
X82502857Y-88770619D01*
X82472380Y-88831571D01*
X82441904Y-88862047D01*
X82380952Y-88892523D01*
X82228571Y-88892523D01*
X82167619Y-88862047D01*
X82137142Y-88831571D01*
%TO.C,R7*%
X73657023Y-32952380D02*
X73323690Y-32476190D01*
X73085595Y-32952380D02*
X73085595Y-31952380D01*
X73466547Y-31952380D01*
X73561785Y-32000000D01*
X73609404Y-32047619D01*
X73657023Y-32142857D01*
X73657023Y-32285714D01*
X73609404Y-32380952D01*
X73561785Y-32428571D01*
X73466547Y-32476190D01*
X73085595Y-32476190D01*
X73990357Y-31952380D02*
X74657023Y-31952380D01*
X74228452Y-32952380D01*
%TO.C,J4*%
X50416616Y-45452298D02*
X50416616Y-46166691D01*
X50368990Y-46309570D01*
X50273738Y-46404822D01*
X50130859Y-46452448D01*
X50035607Y-46452448D01*
X51321514Y-45785682D02*
X51321514Y-46452448D01*
X51083383Y-45404672D02*
X50845252Y-46119065D01*
X51464392Y-46119065D01*
%TO.C,D43*%
X139222857Y-197892523D02*
X139222857Y-197252523D01*
X139375238Y-197252523D01*
X139466666Y-197283000D01*
X139527619Y-197343952D01*
X139558095Y-197404904D01*
X139588571Y-197526809D01*
X139588571Y-197618238D01*
X139558095Y-197740142D01*
X139527619Y-197801095D01*
X139466666Y-197862047D01*
X139375238Y-197892523D01*
X139222857Y-197892523D01*
X140137142Y-197465857D02*
X140137142Y-197892523D01*
X139984761Y-197222047D02*
X139832380Y-197679190D01*
X140228571Y-197679190D01*
X140411428Y-197252523D02*
X140807619Y-197252523D01*
X140594285Y-197496333D01*
X140685714Y-197496333D01*
X140746666Y-197526809D01*
X140777142Y-197557285D01*
X140807619Y-197618238D01*
X140807619Y-197770619D01*
X140777142Y-197831571D01*
X140746666Y-197862047D01*
X140685714Y-197892523D01*
X140502857Y-197892523D01*
X140441904Y-197862047D01*
X140411428Y-197831571D01*
D11*
%TO.C,D80*%
X142235000Y-220085000D02*
X142235000Y-219455000D01*
X142385000Y-219455000D01*
X142475000Y-219485000D01*
X142535000Y-219545000D01*
X142565000Y-219605000D01*
X142595000Y-219725000D01*
X142595000Y-219815000D01*
X142565000Y-219935000D01*
X142535000Y-219995000D01*
X142475000Y-220055000D01*
X142385000Y-220085000D01*
X142235000Y-220085000D01*
X142955000Y-219725000D02*
X142895000Y-219695000D01*
X142865000Y-219665000D01*
X142835000Y-219605000D01*
X142835000Y-219575000D01*
X142865000Y-219515000D01*
X142895000Y-219485000D01*
X142955000Y-219455000D01*
X143075000Y-219455000D01*
X143135000Y-219485000D01*
X143165000Y-219515000D01*
X143195000Y-219575000D01*
X143195000Y-219605000D01*
X143165000Y-219665000D01*
X143135000Y-219695000D01*
X143075000Y-219725000D01*
X142955000Y-219725000D01*
X142895000Y-219755000D01*
X142865000Y-219785000D01*
X142835000Y-219845000D01*
X142835000Y-219965000D01*
X142865000Y-220025000D01*
X142895000Y-220055000D01*
X142955000Y-220085000D01*
X143075000Y-220085000D01*
X143135000Y-220055000D01*
X143165000Y-220025000D01*
X143195000Y-219965000D01*
X143195000Y-219845000D01*
X143165000Y-219785000D01*
X143135000Y-219755000D01*
X143075000Y-219725000D01*
X143585000Y-219455000D02*
X143645000Y-219455000D01*
X143705000Y-219485000D01*
X143735000Y-219515000D01*
X143765000Y-219575000D01*
X143795000Y-219695000D01*
X143795000Y-219845000D01*
X143765000Y-219965000D01*
X143735000Y-220025000D01*
X143705000Y-220055000D01*
X143645000Y-220085000D01*
X143585000Y-220085000D01*
X143525000Y-220055000D01*
X143495000Y-220025000D01*
X143465000Y-219965000D01*
X143435000Y-219845000D01*
X143435000Y-219695000D01*
X143465000Y-219575000D01*
X143495000Y-219515000D01*
X143525000Y-219485000D01*
X143585000Y-219455000D01*
D10*
%TO.C,R6*%
X99333333Y-47952380D02*
X99000000Y-47476190D01*
X98761904Y-47952380D02*
X98761904Y-46952380D01*
X99142857Y-46952380D01*
X99238095Y-47000000D01*
X99285714Y-47047619D01*
X99333333Y-47142857D01*
X99333333Y-47285714D01*
X99285714Y-47380952D01*
X99238095Y-47428571D01*
X99142857Y-47476190D01*
X98761904Y-47476190D01*
X100190476Y-46952380D02*
X100000000Y-46952380D01*
X99904761Y-47000000D01*
X99857142Y-47047619D01*
X99761904Y-47190476D01*
X99714285Y-47380952D01*
X99714285Y-47761904D01*
X99761904Y-47857142D01*
X99809523Y-47904761D01*
X99904761Y-47952380D01*
X100095238Y-47952380D01*
X100190476Y-47904761D01*
X100238095Y-47857142D01*
X100285714Y-47761904D01*
X100285714Y-47523809D01*
X100238095Y-47428571D01*
X100190476Y-47380952D01*
X100095238Y-47333333D01*
X99904761Y-47333333D01*
X99809523Y-47380952D01*
X99761904Y-47428571D01*
X99714285Y-47523809D01*
%TO.C,D2*%
X138527619Y-100642523D02*
X138527619Y-100002523D01*
X138680000Y-100002523D01*
X138771428Y-100033000D01*
X138832380Y-100093952D01*
X138862857Y-100154904D01*
X138893333Y-100276809D01*
X138893333Y-100368238D01*
X138862857Y-100490142D01*
X138832380Y-100551095D01*
X138771428Y-100612047D01*
X138680000Y-100642523D01*
X138527619Y-100642523D01*
X139137142Y-100063476D02*
X139167619Y-100033000D01*
X139228571Y-100002523D01*
X139380952Y-100002523D01*
X139441904Y-100033000D01*
X139472380Y-100063476D01*
X139502857Y-100124428D01*
X139502857Y-100185380D01*
X139472380Y-100276809D01*
X139106666Y-100642523D01*
X139502857Y-100642523D01*
%TO.C,SW2*%
X94369166Y-47404761D02*
X94512023Y-47452380D01*
X94750119Y-47452380D01*
X94845357Y-47404761D01*
X94892976Y-47357142D01*
X94940595Y-47261904D01*
X94940595Y-47166666D01*
X94892976Y-47071428D01*
X94845357Y-47023809D01*
X94750119Y-46976190D01*
X94559642Y-46928571D01*
X94464404Y-46880952D01*
X94416785Y-46833333D01*
X94369166Y-46738095D01*
X94369166Y-46642857D01*
X94416785Y-46547619D01*
X94464404Y-46500000D01*
X94559642Y-46452380D01*
X94797738Y-46452380D01*
X94940595Y-46500000D01*
X95273928Y-46452380D02*
X95512023Y-47452380D01*
X95702500Y-46738095D01*
X95892976Y-47452380D01*
X96131071Y-46452380D01*
X96464404Y-46547619D02*
X96512023Y-46500000D01*
X96607261Y-46452380D01*
X96845357Y-46452380D01*
X96940595Y-46500000D01*
X96988214Y-46547619D01*
X97035833Y-46642857D01*
X97035833Y-46738095D01*
X96988214Y-46880952D01*
X96416785Y-47452380D01*
X97035833Y-47452380D01*
D11*
%TO.C,D85*%
X81735000Y-180085000D02*
X81735000Y-179455000D01*
X81885000Y-179455000D01*
X81975000Y-179485000D01*
X82035000Y-179545000D01*
X82065000Y-179605000D01*
X82095000Y-179725000D01*
X82095000Y-179815000D01*
X82065000Y-179935000D01*
X82035000Y-179995000D01*
X81975000Y-180055000D01*
X81885000Y-180085000D01*
X81735000Y-180085000D01*
X82455000Y-179725000D02*
X82395000Y-179695000D01*
X82365000Y-179665000D01*
X82335000Y-179605000D01*
X82335000Y-179575000D01*
X82365000Y-179515000D01*
X82395000Y-179485000D01*
X82455000Y-179455000D01*
X82575000Y-179455000D01*
X82635000Y-179485000D01*
X82665000Y-179515000D01*
X82695000Y-179575000D01*
X82695000Y-179605000D01*
X82665000Y-179665000D01*
X82635000Y-179695000D01*
X82575000Y-179725000D01*
X82455000Y-179725000D01*
X82395000Y-179755000D01*
X82365000Y-179785000D01*
X82335000Y-179845000D01*
X82335000Y-179965000D01*
X82365000Y-180025000D01*
X82395000Y-180055000D01*
X82455000Y-180085000D01*
X82575000Y-180085000D01*
X82635000Y-180055000D01*
X82665000Y-180025000D01*
X82695000Y-179965000D01*
X82695000Y-179845000D01*
X82665000Y-179785000D01*
X82635000Y-179755000D01*
X82575000Y-179725000D01*
X83265000Y-179455000D02*
X82965000Y-179455000D01*
X82935000Y-179755000D01*
X82965000Y-179725000D01*
X83025000Y-179695000D01*
X83175000Y-179695000D01*
X83235000Y-179725000D01*
X83265000Y-179755000D01*
X83295000Y-179815000D01*
X83295000Y-179965000D01*
X83265000Y-180025000D01*
X83235000Y-180055000D01*
X83175000Y-180085000D01*
X83025000Y-180085000D01*
X82965000Y-180055000D01*
X82935000Y-180025000D01*
D10*
%TO.C,R5*%
X80133333Y-29202380D02*
X79800000Y-28726190D01*
X79561904Y-29202380D02*
X79561904Y-28202380D01*
X79942857Y-28202380D01*
X80038095Y-28250000D01*
X80085714Y-28297619D01*
X80133333Y-28392857D01*
X80133333Y-28535714D01*
X80085714Y-28630952D01*
X80038095Y-28678571D01*
X79942857Y-28726190D01*
X79561904Y-28726190D01*
X81038095Y-28202380D02*
X80561904Y-28202380D01*
X80514285Y-28678571D01*
X80561904Y-28630952D01*
X80657142Y-28583333D01*
X80895238Y-28583333D01*
X80990476Y-28630952D01*
X81038095Y-28678571D01*
X81085714Y-28773809D01*
X81085714Y-29011904D01*
X81038095Y-29107142D01*
X80990476Y-29154761D01*
X80895238Y-29202380D01*
X80657142Y-29202380D01*
X80561904Y-29154761D01*
X80514285Y-29107142D01*
%TO.C,Y2*%
X64773809Y-27976190D02*
X64773809Y-28452380D01*
X64440476Y-27452380D02*
X64773809Y-27976190D01*
X65107142Y-27452380D01*
X65392857Y-27547619D02*
X65440476Y-27500000D01*
X65535714Y-27452380D01*
X65773809Y-27452380D01*
X65869047Y-27500000D01*
X65916666Y-27547619D01*
X65964285Y-27642857D01*
X65964285Y-27738095D01*
X65916666Y-27880952D01*
X65345238Y-28452380D01*
X65964285Y-28452380D01*
%TO.C,SW1*%
X86654761Y-28583333D02*
X86702380Y-28440476D01*
X86702380Y-28202380D01*
X86654761Y-28107142D01*
X86607142Y-28059523D01*
X86511904Y-28011904D01*
X86416666Y-28011904D01*
X86321428Y-28059523D01*
X86273809Y-28107142D01*
X86226190Y-28202380D01*
X86178571Y-28392857D01*
X86130952Y-28488095D01*
X86083333Y-28535714D01*
X85988095Y-28583333D01*
X85892857Y-28583333D01*
X85797619Y-28535714D01*
X85750000Y-28488095D01*
X85702380Y-28392857D01*
X85702380Y-28154761D01*
X85750000Y-28011904D01*
X85702380Y-27678571D02*
X86702380Y-27440476D01*
X85988095Y-27250000D01*
X86702380Y-27059523D01*
X85702380Y-26821428D01*
X86702380Y-25916666D02*
X86702380Y-26488095D01*
X86702380Y-26202380D02*
X85702380Y-26202380D01*
X85845238Y-26297619D01*
X85940476Y-26392857D01*
X85988095Y-26488095D01*
%TO.C,J3*%
X108166616Y-45202298D02*
X108166616Y-45916691D01*
X108118990Y-46059570D01*
X108023738Y-46154822D01*
X107880859Y-46202448D01*
X107785607Y-46202448D01*
X108547626Y-45202298D02*
X109166766Y-45202298D01*
X108833383Y-45583308D01*
X108976261Y-45583308D01*
X109071514Y-45630934D01*
X109119140Y-45678560D01*
X109166766Y-45773813D01*
X109166766Y-46011944D01*
X109119140Y-46107196D01*
X109071514Y-46154822D01*
X108976261Y-46202448D01*
X108690504Y-46202448D01*
X108595252Y-46154822D01*
X108547626Y-46107196D01*
%TO.C,C12*%
X76107142Y-27607142D02*
X76059523Y-27654761D01*
X75916666Y-27702380D01*
X75821428Y-27702380D01*
X75678571Y-27654761D01*
X75583333Y-27559523D01*
X75535714Y-27464285D01*
X75488095Y-27273809D01*
X75488095Y-27130952D01*
X75535714Y-26940476D01*
X75583333Y-26845238D01*
X75678571Y-26750000D01*
X75821428Y-26702380D01*
X75916666Y-26702380D01*
X76059523Y-26750000D01*
X76107142Y-26797619D01*
X77059523Y-27702380D02*
X76488095Y-27702380D01*
X76773809Y-27702380D02*
X76773809Y-26702380D01*
X76678571Y-26845238D01*
X76583333Y-26940476D01*
X76488095Y-26988095D01*
X77440476Y-26797619D02*
X77488095Y-26750000D01*
X77583333Y-26702380D01*
X77821428Y-26702380D01*
X77916666Y-26750000D01*
X77964285Y-26797619D01*
X78011904Y-26892857D01*
X78011904Y-26988095D01*
X77964285Y-27130952D01*
X77392857Y-27702380D01*
X78011904Y-27702380D01*
D11*
%TO.C,D84*%
X138235000Y-144285000D02*
X138235000Y-143655000D01*
X138385000Y-143655000D01*
X138475000Y-143685000D01*
X138535000Y-143745000D01*
X138565000Y-143805000D01*
X138595000Y-143925000D01*
X138595000Y-144015000D01*
X138565000Y-144135000D01*
X138535000Y-144195000D01*
X138475000Y-144255000D01*
X138385000Y-144285000D01*
X138235000Y-144285000D01*
X138955000Y-143925000D02*
X138895000Y-143895000D01*
X138865000Y-143865000D01*
X138835000Y-143805000D01*
X138835000Y-143775000D01*
X138865000Y-143715000D01*
X138895000Y-143685000D01*
X138955000Y-143655000D01*
X139075000Y-143655000D01*
X139135000Y-143685000D01*
X139165000Y-143715000D01*
X139195000Y-143775000D01*
X139195000Y-143805000D01*
X139165000Y-143865000D01*
X139135000Y-143895000D01*
X139075000Y-143925000D01*
X138955000Y-143925000D01*
X138895000Y-143955000D01*
X138865000Y-143985000D01*
X138835000Y-144045000D01*
X138835000Y-144165000D01*
X138865000Y-144225000D01*
X138895000Y-144255000D01*
X138955000Y-144285000D01*
X139075000Y-144285000D01*
X139135000Y-144255000D01*
X139165000Y-144225000D01*
X139195000Y-144165000D01*
X139195000Y-144045000D01*
X139165000Y-143985000D01*
X139135000Y-143955000D01*
X139075000Y-143925000D01*
X139735000Y-143865000D02*
X139735000Y-144285000D01*
X139585000Y-143625000D02*
X139435000Y-144075000D01*
X139825000Y-144075000D01*
%TO.C,D78*%
X81735000Y-231585000D02*
X81735000Y-230955000D01*
X81885000Y-230955000D01*
X81975000Y-230985000D01*
X82035000Y-231045000D01*
X82065000Y-231105000D01*
X82095000Y-231225000D01*
X82095000Y-231315000D01*
X82065000Y-231435000D01*
X82035000Y-231495000D01*
X81975000Y-231555000D01*
X81885000Y-231585000D01*
X81735000Y-231585000D01*
X82305000Y-230955000D02*
X82725000Y-230955000D01*
X82455000Y-231585000D01*
X83055000Y-231225000D02*
X82995000Y-231195000D01*
X82965000Y-231165000D01*
X82935000Y-231105000D01*
X82935000Y-231075000D01*
X82965000Y-231015000D01*
X82995000Y-230985000D01*
X83055000Y-230955000D01*
X83175000Y-230955000D01*
X83235000Y-230985000D01*
X83265000Y-231015000D01*
X83295000Y-231075000D01*
X83295000Y-231105000D01*
X83265000Y-231165000D01*
X83235000Y-231195000D01*
X83175000Y-231225000D01*
X83055000Y-231225000D01*
X82995000Y-231255000D01*
X82965000Y-231285000D01*
X82935000Y-231345000D01*
X82935000Y-231465000D01*
X82965000Y-231525000D01*
X82995000Y-231555000D01*
X83055000Y-231585000D01*
X83175000Y-231585000D01*
X83235000Y-231555000D01*
X83265000Y-231525000D01*
X83295000Y-231465000D01*
X83295000Y-231345000D01*
X83265000Y-231285000D01*
X83235000Y-231255000D01*
X83175000Y-231225000D01*
D10*
%TO.C,C16*%
X90657023Y-54557142D02*
X90609404Y-54604761D01*
X90466547Y-54652380D01*
X90371309Y-54652380D01*
X90228452Y-54604761D01*
X90133214Y-54509523D01*
X90085595Y-54414285D01*
X90037976Y-54223809D01*
X90037976Y-54080952D01*
X90085595Y-53890476D01*
X90133214Y-53795238D01*
X90228452Y-53700000D01*
X90371309Y-53652380D01*
X90466547Y-53652380D01*
X90609404Y-53700000D01*
X90657023Y-53747619D01*
X91609404Y-54652380D02*
X91037976Y-54652380D01*
X91323690Y-54652380D02*
X91323690Y-53652380D01*
X91228452Y-53795238D01*
X91133214Y-53890476D01*
X91037976Y-53938095D01*
X92466547Y-53652380D02*
X92276071Y-53652380D01*
X92180833Y-53700000D01*
X92133214Y-53747619D01*
X92037976Y-53890476D01*
X91990357Y-54080952D01*
X91990357Y-54461904D01*
X92037976Y-54557142D01*
X92085595Y-54604761D01*
X92180833Y-54652380D01*
X92371309Y-54652380D01*
X92466547Y-54604761D01*
X92514166Y-54557142D01*
X92561785Y-54461904D01*
X92561785Y-54223809D01*
X92514166Y-54128571D01*
X92466547Y-54080952D01*
X92371309Y-54033333D01*
X92180833Y-54033333D01*
X92085595Y-54080952D01*
X92037976Y-54128571D01*
X91990357Y-54223809D01*
%TO.C,D4*%
X138527619Y-138642523D02*
X138527619Y-138002523D01*
X138680000Y-138002523D01*
X138771428Y-138033000D01*
X138832380Y-138093952D01*
X138862857Y-138154904D01*
X138893333Y-138276809D01*
X138893333Y-138368238D01*
X138862857Y-138490142D01*
X138832380Y-138551095D01*
X138771428Y-138612047D01*
X138680000Y-138642523D01*
X138527619Y-138642523D01*
X139441904Y-138215857D02*
X139441904Y-138642523D01*
X139289523Y-137972047D02*
X139137142Y-138429190D01*
X139533333Y-138429190D01*
%TO.C,C14*%
X90607023Y-50157142D02*
X90559404Y-50204761D01*
X90416547Y-50252380D01*
X90321309Y-50252380D01*
X90178452Y-50204761D01*
X90083214Y-50109523D01*
X90035595Y-50014285D01*
X89987976Y-49823809D01*
X89987976Y-49680952D01*
X90035595Y-49490476D01*
X90083214Y-49395238D01*
X90178452Y-49300000D01*
X90321309Y-49252380D01*
X90416547Y-49252380D01*
X90559404Y-49300000D01*
X90607023Y-49347619D01*
X91559404Y-50252380D02*
X90987976Y-50252380D01*
X91273690Y-50252380D02*
X91273690Y-49252380D01*
X91178452Y-49395238D01*
X91083214Y-49490476D01*
X90987976Y-49538095D01*
X92416547Y-49585714D02*
X92416547Y-50252380D01*
X92178452Y-49204761D02*
X91940357Y-49919047D01*
X92559404Y-49919047D01*
%TO.C,IC1*%
X75923809Y-46752380D02*
X75923809Y-45752380D01*
X76971428Y-46657142D02*
X76923809Y-46704761D01*
X76780952Y-46752380D01*
X76685714Y-46752380D01*
X76542857Y-46704761D01*
X76447619Y-46609523D01*
X76400000Y-46514285D01*
X76352380Y-46323809D01*
X76352380Y-46180952D01*
X76400000Y-45990476D01*
X76447619Y-45895238D01*
X76542857Y-45800000D01*
X76685714Y-45752380D01*
X76780952Y-45752380D01*
X76923809Y-45800000D01*
X76971428Y-45847619D01*
X77923809Y-46752380D02*
X77352380Y-46752380D01*
X77638095Y-46752380D02*
X77638095Y-45752380D01*
X77542857Y-45895238D01*
X77447619Y-45990476D01*
X77352380Y-46038095D01*
D11*
%TO.C,D82*%
X161235000Y-201085000D02*
X161235000Y-200455000D01*
X161385000Y-200455000D01*
X161475000Y-200485000D01*
X161535000Y-200545000D01*
X161565000Y-200605000D01*
X161595000Y-200725000D01*
X161595000Y-200815000D01*
X161565000Y-200935000D01*
X161535000Y-200995000D01*
X161475000Y-201055000D01*
X161385000Y-201085000D01*
X161235000Y-201085000D01*
X161955000Y-200725000D02*
X161895000Y-200695000D01*
X161865000Y-200665000D01*
X161835000Y-200605000D01*
X161835000Y-200575000D01*
X161865000Y-200515000D01*
X161895000Y-200485000D01*
X161955000Y-200455000D01*
X162075000Y-200455000D01*
X162135000Y-200485000D01*
X162165000Y-200515000D01*
X162195000Y-200575000D01*
X162195000Y-200605000D01*
X162165000Y-200665000D01*
X162135000Y-200695000D01*
X162075000Y-200725000D01*
X161955000Y-200725000D01*
X161895000Y-200755000D01*
X161865000Y-200785000D01*
X161835000Y-200845000D01*
X161835000Y-200965000D01*
X161865000Y-201025000D01*
X161895000Y-201055000D01*
X161955000Y-201085000D01*
X162075000Y-201085000D01*
X162135000Y-201055000D01*
X162165000Y-201025000D01*
X162195000Y-200965000D01*
X162195000Y-200845000D01*
X162165000Y-200785000D01*
X162135000Y-200755000D01*
X162075000Y-200725000D01*
X162435000Y-200515000D02*
X162465000Y-200485000D01*
X162525000Y-200455000D01*
X162675000Y-200455000D01*
X162735000Y-200485000D01*
X162765000Y-200515000D01*
X162795000Y-200575000D01*
X162795000Y-200635000D01*
X162765000Y-200725000D01*
X162405000Y-201085000D01*
X162795000Y-201085000D01*
%TO.C,D75*%
X55485000Y-211265000D02*
X54855000Y-211265000D01*
X54855000Y-211115000D01*
X54885000Y-211025000D01*
X54945000Y-210965000D01*
X55005000Y-210935000D01*
X55125000Y-210905000D01*
X55215000Y-210905000D01*
X55335000Y-210935000D01*
X55395000Y-210965000D01*
X55455000Y-211025000D01*
X55485000Y-211115000D01*
X55485000Y-211265000D01*
X54855000Y-210695000D02*
X54855000Y-210275000D01*
X55485000Y-210545000D01*
X54855000Y-209735000D02*
X54855000Y-210035000D01*
X55155000Y-210065000D01*
X55125000Y-210035000D01*
X55095000Y-209975000D01*
X55095000Y-209825000D01*
X55125000Y-209765000D01*
X55155000Y-209735000D01*
X55215000Y-209705000D01*
X55365000Y-209705000D01*
X55425000Y-209735000D01*
X55455000Y-209765000D01*
X55485000Y-209825000D01*
X55485000Y-209975000D01*
X55455000Y-210035000D01*
X55425000Y-210065000D01*
D10*
%TO.C,C18*%
X79857142Y-54857142D02*
X79809523Y-54904761D01*
X79666666Y-54952380D01*
X79571428Y-54952380D01*
X79428571Y-54904761D01*
X79333333Y-54809523D01*
X79285714Y-54714285D01*
X79238095Y-54523809D01*
X79238095Y-54380952D01*
X79285714Y-54190476D01*
X79333333Y-54095238D01*
X79428571Y-54000000D01*
X79571428Y-53952380D01*
X79666666Y-53952380D01*
X79809523Y-54000000D01*
X79857142Y-54047619D01*
X80809523Y-54952380D02*
X80238095Y-54952380D01*
X80523809Y-54952380D02*
X80523809Y-53952380D01*
X80428571Y-54095238D01*
X80333333Y-54190476D01*
X80238095Y-54238095D01*
X81380952Y-54380952D02*
X81285714Y-54333333D01*
X81238095Y-54285714D01*
X81190476Y-54190476D01*
X81190476Y-54142857D01*
X81238095Y-54047619D01*
X81285714Y-54000000D01*
X81380952Y-53952380D01*
X81571428Y-53952380D01*
X81666666Y-54000000D01*
X81714285Y-54047619D01*
X81761904Y-54142857D01*
X81761904Y-54190476D01*
X81714285Y-54285714D01*
X81666666Y-54333333D01*
X81571428Y-54380952D01*
X81380952Y-54380952D01*
X81285714Y-54428571D01*
X81238095Y-54476190D01*
X81190476Y-54571428D01*
X81190476Y-54761904D01*
X81238095Y-54857142D01*
X81285714Y-54904761D01*
X81380952Y-54952380D01*
X81571428Y-54952380D01*
X81666666Y-54904761D01*
X81714285Y-54857142D01*
X81761904Y-54761904D01*
X81761904Y-54571428D01*
X81714285Y-54476190D01*
X81666666Y-54428571D01*
X81571428Y-54380952D01*
%TO.C,C13*%
X64057261Y-33607142D02*
X64009642Y-33654761D01*
X63866785Y-33702380D01*
X63771547Y-33702380D01*
X63628690Y-33654761D01*
X63533452Y-33559523D01*
X63485833Y-33464285D01*
X63438214Y-33273809D01*
X63438214Y-33130952D01*
X63485833Y-32940476D01*
X63533452Y-32845238D01*
X63628690Y-32750000D01*
X63771547Y-32702380D01*
X63866785Y-32702380D01*
X64009642Y-32750000D01*
X64057261Y-32797619D01*
X65009642Y-33702380D02*
X64438214Y-33702380D01*
X64723928Y-33702380D02*
X64723928Y-32702380D01*
X64628690Y-32845238D01*
X64533452Y-32940476D01*
X64438214Y-32988095D01*
X65342976Y-32702380D02*
X65962023Y-32702380D01*
X65628690Y-33083333D01*
X65771547Y-33083333D01*
X65866785Y-33130952D01*
X65914404Y-33178571D01*
X65962023Y-33273809D01*
X65962023Y-33511904D01*
X65914404Y-33607142D01*
X65866785Y-33654761D01*
X65771547Y-33702380D01*
X65485833Y-33702380D01*
X65390595Y-33654761D01*
X65342976Y-33607142D01*
%TO.C,C11*%
X64057261Y-36357142D02*
X64009642Y-36404761D01*
X63866785Y-36452380D01*
X63771547Y-36452380D01*
X63628690Y-36404761D01*
X63533452Y-36309523D01*
X63485833Y-36214285D01*
X63438214Y-36023809D01*
X63438214Y-35880952D01*
X63485833Y-35690476D01*
X63533452Y-35595238D01*
X63628690Y-35500000D01*
X63771547Y-35452380D01*
X63866785Y-35452380D01*
X64009642Y-35500000D01*
X64057261Y-35547619D01*
X65009642Y-36452380D02*
X64438214Y-36452380D01*
X64723928Y-36452380D02*
X64723928Y-35452380D01*
X64628690Y-35595238D01*
X64533452Y-35690476D01*
X64438214Y-35738095D01*
X65962023Y-36452380D02*
X65390595Y-36452380D01*
X65676309Y-36452380D02*
X65676309Y-35452380D01*
X65581071Y-35595238D01*
X65485833Y-35690476D01*
X65390595Y-35738095D01*
D11*
%TO.C,D76*%
X59235000Y-239085000D02*
X59235000Y-238455000D01*
X59385000Y-238455000D01*
X59475000Y-238485000D01*
X59535000Y-238545000D01*
X59565000Y-238605000D01*
X59595000Y-238725000D01*
X59595000Y-238815000D01*
X59565000Y-238935000D01*
X59535000Y-238995000D01*
X59475000Y-239055000D01*
X59385000Y-239085000D01*
X59235000Y-239085000D01*
X59805000Y-238455000D02*
X60225000Y-238455000D01*
X59955000Y-239085000D01*
X60735000Y-238455000D02*
X60615000Y-238455000D01*
X60555000Y-238485000D01*
X60525000Y-238515000D01*
X60465000Y-238605000D01*
X60435000Y-238725000D01*
X60435000Y-238965000D01*
X60465000Y-239025000D01*
X60495000Y-239055000D01*
X60555000Y-239085000D01*
X60675000Y-239085000D01*
X60735000Y-239055000D01*
X60765000Y-239025000D01*
X60795000Y-238965000D01*
X60795000Y-238815000D01*
X60765000Y-238755000D01*
X60735000Y-238725000D01*
X60675000Y-238695000D01*
X60555000Y-238695000D01*
X60495000Y-238725000D01*
X60465000Y-238755000D01*
X60435000Y-238815000D01*
D10*
%TO.C,Y1*%
X72773809Y-38976190D02*
X72773809Y-39452380D01*
X72440476Y-38452380D02*
X72773809Y-38976190D01*
X73107142Y-38452380D01*
X73964285Y-39452380D02*
X73392857Y-39452380D01*
X73678571Y-39452380D02*
X73678571Y-38452380D01*
X73583333Y-38595238D01*
X73488095Y-38690476D01*
X73392857Y-38738095D01*
%TO.C,R1*%
X74759642Y-31702380D02*
X74426309Y-31226190D01*
X74188214Y-31702380D02*
X74188214Y-30702380D01*
X74569166Y-30702380D01*
X74664404Y-30750000D01*
X74712023Y-30797619D01*
X74759642Y-30892857D01*
X74759642Y-31035714D01*
X74712023Y-31130952D01*
X74664404Y-31178571D01*
X74569166Y-31226190D01*
X74188214Y-31226190D01*
X75712023Y-31702380D02*
X75140595Y-31702380D01*
X75426309Y-31702380D02*
X75426309Y-30702380D01*
X75331071Y-30845238D01*
X75235833Y-30940476D01*
X75140595Y-30988095D01*
%TO.C,C9*%
X99333333Y-57107142D02*
X99285714Y-57154761D01*
X99142857Y-57202380D01*
X99047619Y-57202380D01*
X98904761Y-57154761D01*
X98809523Y-57059523D01*
X98761904Y-56964285D01*
X98714285Y-56773809D01*
X98714285Y-56630952D01*
X98761904Y-56440476D01*
X98809523Y-56345238D01*
X98904761Y-56250000D01*
X99047619Y-56202380D01*
X99142857Y-56202380D01*
X99285714Y-56250000D01*
X99333333Y-56297619D01*
X99809523Y-57202380D02*
X100000000Y-57202380D01*
X100095238Y-57154761D01*
X100142857Y-57107142D01*
X100238095Y-56964285D01*
X100285714Y-56773809D01*
X100285714Y-56392857D01*
X100238095Y-56297619D01*
X100190476Y-56250000D01*
X100095238Y-56202380D01*
X99904761Y-56202380D01*
X99809523Y-56250000D01*
X99761904Y-56297619D01*
X99714285Y-56392857D01*
X99714285Y-56630952D01*
X99761904Y-56726190D01*
X99809523Y-56773809D01*
X99904761Y-56821428D01*
X100095238Y-56821428D01*
X100190476Y-56773809D01*
X100238095Y-56726190D01*
X100285714Y-56630952D01*
%TO.C,U1*%
X84138095Y-34652380D02*
X84138095Y-35461904D01*
X84185714Y-35557142D01*
X84233333Y-35604761D01*
X84328571Y-35652380D01*
X84519047Y-35652380D01*
X84614285Y-35604761D01*
X84661904Y-35557142D01*
X84709523Y-35461904D01*
X84709523Y-34652380D01*
X85709523Y-35652380D02*
X85138095Y-35652380D01*
X85423809Y-35652380D02*
X85423809Y-34652380D01*
X85328571Y-34795238D01*
X85233333Y-34890476D01*
X85138095Y-34938095D01*
%TO.C,R8*%
X90607023Y-48052380D02*
X90273690Y-47576190D01*
X90035595Y-48052380D02*
X90035595Y-47052380D01*
X90416547Y-47052380D01*
X90511785Y-47100000D01*
X90559404Y-47147619D01*
X90607023Y-47242857D01*
X90607023Y-47385714D01*
X90559404Y-47480952D01*
X90511785Y-47528571D01*
X90416547Y-47576190D01*
X90035595Y-47576190D01*
X91178452Y-47480952D02*
X91083214Y-47433333D01*
X91035595Y-47385714D01*
X90987976Y-47290476D01*
X90987976Y-47242857D01*
X91035595Y-47147619D01*
X91083214Y-47100000D01*
X91178452Y-47052380D01*
X91368928Y-47052380D01*
X91464166Y-47100000D01*
X91511785Y-47147619D01*
X91559404Y-47242857D01*
X91559404Y-47290476D01*
X91511785Y-47385714D01*
X91464166Y-47433333D01*
X91368928Y-47480952D01*
X91178452Y-47480952D01*
X91083214Y-47528571D01*
X91035595Y-47576190D01*
X90987976Y-47671428D01*
X90987976Y-47861904D01*
X91035595Y-47957142D01*
X91083214Y-48004761D01*
X91178452Y-48052380D01*
X91368928Y-48052380D01*
X91464166Y-48004761D01*
X91511785Y-47957142D01*
X91559404Y-47861904D01*
X91559404Y-47671428D01*
X91511785Y-47576190D01*
X91464166Y-47528571D01*
X91368928Y-47480952D01*
%TO.C,C8*%
X100083333Y-40607142D02*
X100035714Y-40654761D01*
X99892857Y-40702380D01*
X99797619Y-40702380D01*
X99654761Y-40654761D01*
X99559523Y-40559523D01*
X99511904Y-40464285D01*
X99464285Y-40273809D01*
X99464285Y-40130952D01*
X99511904Y-39940476D01*
X99559523Y-39845238D01*
X99654761Y-39750000D01*
X99797619Y-39702380D01*
X99892857Y-39702380D01*
X100035714Y-39750000D01*
X100083333Y-39797619D01*
X100654761Y-40130952D02*
X100559523Y-40083333D01*
X100511904Y-40035714D01*
X100464285Y-39940476D01*
X100464285Y-39892857D01*
X100511904Y-39797619D01*
X100559523Y-39750000D01*
X100654761Y-39702380D01*
X100845238Y-39702380D01*
X100940476Y-39750000D01*
X100988095Y-39797619D01*
X101035714Y-39892857D01*
X101035714Y-39940476D01*
X100988095Y-40035714D01*
X100940476Y-40083333D01*
X100845238Y-40130952D01*
X100654761Y-40130952D01*
X100559523Y-40178571D01*
X100511904Y-40226190D01*
X100464285Y-40321428D01*
X100464285Y-40511904D01*
X100511904Y-40607142D01*
X100559523Y-40654761D01*
X100654761Y-40702380D01*
X100845238Y-40702380D01*
X100940476Y-40654761D01*
X100988095Y-40607142D01*
X101035714Y-40511904D01*
X101035714Y-40321428D01*
X100988095Y-40226190D01*
X100940476Y-40178571D01*
X100845238Y-40130952D01*
%TO.C,D44*%
X139222857Y-216892523D02*
X139222857Y-216252523D01*
X139375238Y-216252523D01*
X139466666Y-216283000D01*
X139527619Y-216343952D01*
X139558095Y-216404904D01*
X139588571Y-216526809D01*
X139588571Y-216618238D01*
X139558095Y-216740142D01*
X139527619Y-216801095D01*
X139466666Y-216862047D01*
X139375238Y-216892523D01*
X139222857Y-216892523D01*
X140137142Y-216465857D02*
X140137142Y-216892523D01*
X139984761Y-216222047D02*
X139832380Y-216679190D01*
X140228571Y-216679190D01*
X140746666Y-216465857D02*
X140746666Y-216892523D01*
X140594285Y-216222047D02*
X140441904Y-216679190D01*
X140838095Y-216679190D01*
%TO.C,D1*%
X138527619Y-81642523D02*
X138527619Y-81002523D01*
X138680000Y-81002523D01*
X138771428Y-81033000D01*
X138832380Y-81093952D01*
X138862857Y-81154904D01*
X138893333Y-81276809D01*
X138893333Y-81368238D01*
X138862857Y-81490142D01*
X138832380Y-81551095D01*
X138771428Y-81612047D01*
X138680000Y-81642523D01*
X138527619Y-81642523D01*
X139502857Y-81642523D02*
X139137142Y-81642523D01*
X139320000Y-81642523D02*
X139320000Y-81002523D01*
X139259047Y-81093952D01*
X139198095Y-81154904D01*
X139137142Y-81185380D01*
%TO.C,C20*%
X71307261Y-51257142D02*
X71259642Y-51304761D01*
X71116785Y-51352380D01*
X71021547Y-51352380D01*
X70878690Y-51304761D01*
X70783452Y-51209523D01*
X70735833Y-51114285D01*
X70688214Y-50923809D01*
X70688214Y-50780952D01*
X70735833Y-50590476D01*
X70783452Y-50495238D01*
X70878690Y-50400000D01*
X71021547Y-50352380D01*
X71116785Y-50352380D01*
X71259642Y-50400000D01*
X71307261Y-50447619D01*
X71688214Y-50447619D02*
X71735833Y-50400000D01*
X71831071Y-50352380D01*
X72069166Y-50352380D01*
X72164404Y-50400000D01*
X72212023Y-50447619D01*
X72259642Y-50542857D01*
X72259642Y-50638095D01*
X72212023Y-50780952D01*
X71640595Y-51352380D01*
X72259642Y-51352380D01*
X72878690Y-50352380D02*
X72973928Y-50352380D01*
X73069166Y-50400000D01*
X73116785Y-50447619D01*
X73164404Y-50542857D01*
X73212023Y-50733333D01*
X73212023Y-50971428D01*
X73164404Y-51161904D01*
X73116785Y-51257142D01*
X73069166Y-51304761D01*
X72973928Y-51352380D01*
X72878690Y-51352380D01*
X72783452Y-51304761D01*
X72735833Y-51257142D01*
X72688214Y-51161904D01*
X72640595Y-50971428D01*
X72640595Y-50733333D01*
X72688214Y-50542857D01*
X72735833Y-50447619D01*
X72783452Y-50400000D01*
X72878690Y-50352380D01*
%TO.C,R9*%
X101333333Y-57202380D02*
X101000000Y-56726190D01*
X100761904Y-57202380D02*
X100761904Y-56202380D01*
X101142857Y-56202380D01*
X101238095Y-56250000D01*
X101285714Y-56297619D01*
X101333333Y-56392857D01*
X101333333Y-56535714D01*
X101285714Y-56630952D01*
X101238095Y-56678571D01*
X101142857Y-56726190D01*
X100761904Y-56726190D01*
X101809523Y-57202380D02*
X102000000Y-57202380D01*
X102095238Y-57154761D01*
X102142857Y-57107142D01*
X102238095Y-56964285D01*
X102285714Y-56773809D01*
X102285714Y-56392857D01*
X102238095Y-56297619D01*
X102190476Y-56250000D01*
X102095238Y-56202380D01*
X101904761Y-56202380D01*
X101809523Y-56250000D01*
X101761904Y-56297619D01*
X101714285Y-56392857D01*
X101714285Y-56630952D01*
X101761904Y-56726190D01*
X101809523Y-56773809D01*
X101904761Y-56821428D01*
X102095238Y-56821428D01*
X102190476Y-56773809D01*
X102238095Y-56726190D01*
X102285714Y-56630952D01*
%TO.C,C15*%
X90607023Y-52557142D02*
X90559404Y-52604761D01*
X90416547Y-52652380D01*
X90321309Y-52652380D01*
X90178452Y-52604761D01*
X90083214Y-52509523D01*
X90035595Y-52414285D01*
X89987976Y-52223809D01*
X89987976Y-52080952D01*
X90035595Y-51890476D01*
X90083214Y-51795238D01*
X90178452Y-51700000D01*
X90321309Y-51652380D01*
X90416547Y-51652380D01*
X90559404Y-51700000D01*
X90607023Y-51747619D01*
X91559404Y-52652380D02*
X90987976Y-52652380D01*
X91273690Y-52652380D02*
X91273690Y-51652380D01*
X91178452Y-51795238D01*
X91083214Y-51890476D01*
X90987976Y-51938095D01*
X92464166Y-51652380D02*
X91987976Y-51652380D01*
X91940357Y-52128571D01*
X91987976Y-52080952D01*
X92083214Y-52033333D01*
X92321309Y-52033333D01*
X92416547Y-52080952D01*
X92464166Y-52128571D01*
X92511785Y-52223809D01*
X92511785Y-52461904D01*
X92464166Y-52557142D01*
X92416547Y-52604761D01*
X92321309Y-52652380D01*
X92083214Y-52652380D01*
X91987976Y-52604761D01*
X91940357Y-52557142D01*
%TO.C,D45*%
X135222857Y-230892523D02*
X135222857Y-230252523D01*
X135375238Y-230252523D01*
X135466666Y-230283000D01*
X135527619Y-230343952D01*
X135558095Y-230404904D01*
X135588571Y-230526809D01*
X135588571Y-230618238D01*
X135558095Y-230740142D01*
X135527619Y-230801095D01*
X135466666Y-230862047D01*
X135375238Y-230892523D01*
X135222857Y-230892523D01*
X136137142Y-230465857D02*
X136137142Y-230892523D01*
X135984761Y-230222047D02*
X135832380Y-230679190D01*
X136228571Y-230679190D01*
X136777142Y-230252523D02*
X136472380Y-230252523D01*
X136441904Y-230557285D01*
X136472380Y-230526809D01*
X136533333Y-230496333D01*
X136685714Y-230496333D01*
X136746666Y-230526809D01*
X136777142Y-230557285D01*
X136807619Y-230618238D01*
X136807619Y-230770619D01*
X136777142Y-230831571D01*
X136746666Y-230862047D01*
X136685714Y-230892523D01*
X136533333Y-230892523D01*
X136472380Y-230862047D01*
X136441904Y-230831571D01*
%TO.C,C7*%
X106158211Y-40607142D02*
X106110592Y-40654761D01*
X105967735Y-40702380D01*
X105872497Y-40702380D01*
X105729639Y-40654761D01*
X105634401Y-40559523D01*
X105586782Y-40464285D01*
X105539163Y-40273809D01*
X105539163Y-40130952D01*
X105586782Y-39940476D01*
X105634401Y-39845238D01*
X105729639Y-39750000D01*
X105872497Y-39702380D01*
X105967735Y-39702380D01*
X106110592Y-39750000D01*
X106158211Y-39797619D01*
X106491544Y-39702380D02*
X107158211Y-39702380D01*
X106729639Y-40702380D01*
%TO.C,R13*%
X56857142Y-48452380D02*
X56523809Y-47976190D01*
X56285714Y-48452380D02*
X56285714Y-47452380D01*
X56666666Y-47452380D01*
X56761904Y-47500000D01*
X56809523Y-47547619D01*
X56857142Y-47642857D01*
X56857142Y-47785714D01*
X56809523Y-47880952D01*
X56761904Y-47928571D01*
X56666666Y-47976190D01*
X56285714Y-47976190D01*
X57809523Y-48452380D02*
X57238095Y-48452380D01*
X57523809Y-48452380D02*
X57523809Y-47452380D01*
X57428571Y-47595238D01*
X57333333Y-47690476D01*
X57238095Y-47738095D01*
X58142857Y-47452380D02*
X58761904Y-47452380D01*
X58428571Y-47833333D01*
X58571428Y-47833333D01*
X58666666Y-47880952D01*
X58714285Y-47928571D01*
X58761904Y-48023809D01*
X58761904Y-48261904D01*
X58714285Y-48357142D01*
X58666666Y-48404761D01*
X58571428Y-48452380D01*
X58285714Y-48452380D01*
X58190476Y-48404761D01*
X58142857Y-48357142D01*
%TO.C,J1*%
X108415813Y-39700979D02*
X108415813Y-40417093D01*
X108368072Y-40560315D01*
X108272590Y-40655797D01*
X108129368Y-40703538D01*
X108033886Y-40703538D01*
X109418372Y-40703538D02*
X108845481Y-40703538D01*
X109131927Y-40703538D02*
X109131927Y-39700979D01*
X109036445Y-39844202D01*
X108940963Y-39939684D01*
X108845481Y-39987425D01*
D11*
%TO.C,D41*%
X59235000Y-111085000D02*
X59235000Y-110455000D01*
X59385000Y-110455000D01*
X59475000Y-110485000D01*
X59535000Y-110545000D01*
X59565000Y-110605000D01*
X59595000Y-110725000D01*
X59595000Y-110815000D01*
X59565000Y-110935000D01*
X59535000Y-110995000D01*
X59475000Y-111055000D01*
X59385000Y-111085000D01*
X59235000Y-111085000D01*
X60135000Y-110665000D02*
X60135000Y-111085000D01*
X59985000Y-110425000D02*
X59835000Y-110875000D01*
X60225000Y-110875000D01*
X60795000Y-111085000D02*
X60435000Y-111085000D01*
X60615000Y-111085000D02*
X60615000Y-110455000D01*
X60555000Y-110545000D01*
X60495000Y-110605000D01*
X60435000Y-110635000D01*
D10*
%TO.C,D6*%
X81527619Y-107892523D02*
X81527619Y-107252523D01*
X81680000Y-107252523D01*
X81771428Y-107283000D01*
X81832380Y-107343952D01*
X81862857Y-107404904D01*
X81893333Y-107526809D01*
X81893333Y-107618238D01*
X81862857Y-107740142D01*
X81832380Y-107801095D01*
X81771428Y-107862047D01*
X81680000Y-107892523D01*
X81527619Y-107892523D01*
X82441904Y-107252523D02*
X82320000Y-107252523D01*
X82259047Y-107283000D01*
X82228571Y-107313476D01*
X82167619Y-107404904D01*
X82137142Y-107526809D01*
X82137142Y-107770619D01*
X82167619Y-107831571D01*
X82198095Y-107862047D01*
X82259047Y-107892523D01*
X82380952Y-107892523D01*
X82441904Y-107862047D01*
X82472380Y-107831571D01*
X82502857Y-107770619D01*
X82502857Y-107618238D01*
X82472380Y-107557285D01*
X82441904Y-107526809D01*
X82380952Y-107496333D01*
X82259047Y-107496333D01*
X82198095Y-107526809D01*
X82167619Y-107557285D01*
X82137142Y-107618238D01*
%TO.C,R14*%
X56857142Y-57452380D02*
X56523809Y-56976190D01*
X56285714Y-57452380D02*
X56285714Y-56452380D01*
X56666666Y-56452380D01*
X56761904Y-56500000D01*
X56809523Y-56547619D01*
X56857142Y-56642857D01*
X56857142Y-56785714D01*
X56809523Y-56880952D01*
X56761904Y-56928571D01*
X56666666Y-56976190D01*
X56285714Y-56976190D01*
X57809523Y-57452380D02*
X57238095Y-57452380D01*
X57523809Y-57452380D02*
X57523809Y-56452380D01*
X57428571Y-56595238D01*
X57333333Y-56690476D01*
X57238095Y-56738095D01*
X58666666Y-56785714D02*
X58666666Y-57452380D01*
X58428571Y-56404761D02*
X58190476Y-57119047D01*
X58809523Y-57119047D01*
%TO.C,C19*%
X71307261Y-49257142D02*
X71259642Y-49304761D01*
X71116785Y-49352380D01*
X71021547Y-49352380D01*
X70878690Y-49304761D01*
X70783452Y-49209523D01*
X70735833Y-49114285D01*
X70688214Y-48923809D01*
X70688214Y-48780952D01*
X70735833Y-48590476D01*
X70783452Y-48495238D01*
X70878690Y-48400000D01*
X71021547Y-48352380D01*
X71116785Y-48352380D01*
X71259642Y-48400000D01*
X71307261Y-48447619D01*
X72259642Y-49352380D02*
X71688214Y-49352380D01*
X71973928Y-49352380D02*
X71973928Y-48352380D01*
X71878690Y-48495238D01*
X71783452Y-48590476D01*
X71688214Y-48638095D01*
X72735833Y-49352380D02*
X72926309Y-49352380D01*
X73021547Y-49304761D01*
X73069166Y-49257142D01*
X73164404Y-49114285D01*
X73212023Y-48923809D01*
X73212023Y-48542857D01*
X73164404Y-48447619D01*
X73116785Y-48400000D01*
X73021547Y-48352380D01*
X72831071Y-48352380D01*
X72735833Y-48400000D01*
X72688214Y-48447619D01*
X72640595Y-48542857D01*
X72640595Y-48780952D01*
X72688214Y-48876190D01*
X72735833Y-48923809D01*
X72831071Y-48971428D01*
X73021547Y-48971428D01*
X73116785Y-48923809D01*
X73164404Y-48876190D01*
X73212023Y-48780952D01*
%TO.C,C17*%
X81857142Y-59607142D02*
X81809523Y-59654761D01*
X81666666Y-59702380D01*
X81571428Y-59702380D01*
X81428571Y-59654761D01*
X81333333Y-59559523D01*
X81285714Y-59464285D01*
X81238095Y-59273809D01*
X81238095Y-59130952D01*
X81285714Y-58940476D01*
X81333333Y-58845238D01*
X81428571Y-58750000D01*
X81571428Y-58702380D01*
X81666666Y-58702380D01*
X81809523Y-58750000D01*
X81857142Y-58797619D01*
X82809523Y-59702380D02*
X82238095Y-59702380D01*
X82523809Y-59702380D02*
X82523809Y-58702380D01*
X82428571Y-58845238D01*
X82333333Y-58940476D01*
X82238095Y-58988095D01*
X83142857Y-58702380D02*
X83809523Y-58702380D01*
X83380952Y-59702380D01*
D11*
%TO.C,D39*%
X100735000Y-92085000D02*
X100735000Y-91455000D01*
X100885000Y-91455000D01*
X100975000Y-91485000D01*
X101035000Y-91545000D01*
X101065000Y-91605000D01*
X101095000Y-91725000D01*
X101095000Y-91815000D01*
X101065000Y-91935000D01*
X101035000Y-91995000D01*
X100975000Y-92055000D01*
X100885000Y-92085000D01*
X100735000Y-92085000D01*
X101305000Y-91455000D02*
X101695000Y-91455000D01*
X101485000Y-91695000D01*
X101575000Y-91695000D01*
X101635000Y-91725000D01*
X101665000Y-91755000D01*
X101695000Y-91815000D01*
X101695000Y-91965000D01*
X101665000Y-92025000D01*
X101635000Y-92055000D01*
X101575000Y-92085000D01*
X101395000Y-92085000D01*
X101335000Y-92055000D01*
X101305000Y-92025000D01*
X101995000Y-92085000D02*
X102115000Y-92085000D01*
X102175000Y-92055000D01*
X102205000Y-92025000D01*
X102265000Y-91935000D01*
X102295000Y-91815000D01*
X102295000Y-91575000D01*
X102265000Y-91515000D01*
X102235000Y-91485000D01*
X102175000Y-91455000D01*
X102055000Y-91455000D01*
X101995000Y-91485000D01*
X101965000Y-91515000D01*
X101935000Y-91575000D01*
X101935000Y-91725000D01*
X101965000Y-91785000D01*
X101995000Y-91815000D01*
X102055000Y-91845000D01*
X102175000Y-91845000D01*
X102235000Y-91815000D01*
X102265000Y-91785000D01*
X102295000Y-91725000D01*
D10*
%TO.C,R4*%
X87833333Y-33452380D02*
X87500000Y-32976190D01*
X87261904Y-33452380D02*
X87261904Y-32452380D01*
X87642857Y-32452380D01*
X87738095Y-32500000D01*
X87785714Y-32547619D01*
X87833333Y-32642857D01*
X87833333Y-32785714D01*
X87785714Y-32880952D01*
X87738095Y-32928571D01*
X87642857Y-32976190D01*
X87261904Y-32976190D01*
X88690476Y-32785714D02*
X88690476Y-33452380D01*
X88452380Y-32404761D02*
X88214285Y-33119047D01*
X88833333Y-33119047D01*
%TO.C,D7*%
X81527619Y-126892523D02*
X81527619Y-126252523D01*
X81680000Y-126252523D01*
X81771428Y-126283000D01*
X81832380Y-126343952D01*
X81862857Y-126404904D01*
X81893333Y-126526809D01*
X81893333Y-126618238D01*
X81862857Y-126740142D01*
X81832380Y-126801095D01*
X81771428Y-126862047D01*
X81680000Y-126892523D01*
X81527619Y-126892523D01*
X82106666Y-126252523D02*
X82533333Y-126252523D01*
X82259047Y-126892523D01*
D11*
%TO.C,D40*%
X62735000Y-92085000D02*
X62735000Y-91455000D01*
X62885000Y-91455000D01*
X62975000Y-91485000D01*
X63035000Y-91545000D01*
X63065000Y-91605000D01*
X63095000Y-91725000D01*
X63095000Y-91815000D01*
X63065000Y-91935000D01*
X63035000Y-91995000D01*
X62975000Y-92055000D01*
X62885000Y-92085000D01*
X62735000Y-92085000D01*
X63635000Y-91665000D02*
X63635000Y-92085000D01*
X63485000Y-91425000D02*
X63335000Y-91875000D01*
X63725000Y-91875000D01*
X64085000Y-91455000D02*
X64145000Y-91455000D01*
X64205000Y-91485000D01*
X64235000Y-91515000D01*
X64265000Y-91575000D01*
X64295000Y-91695000D01*
X64295000Y-91845000D01*
X64265000Y-91965000D01*
X64235000Y-92025000D01*
X64205000Y-92055000D01*
X64145000Y-92085000D01*
X64085000Y-92085000D01*
X64025000Y-92055000D01*
X63995000Y-92025000D01*
X63965000Y-91965000D01*
X63935000Y-91845000D01*
X63935000Y-91695000D01*
X63965000Y-91575000D01*
X63995000Y-91515000D01*
X64025000Y-91485000D01*
X64085000Y-91455000D01*
D10*
%TO.C,D8*%
X85527619Y-140892523D02*
X85527619Y-140252523D01*
X85680000Y-140252523D01*
X85771428Y-140283000D01*
X85832380Y-140343952D01*
X85862857Y-140404904D01*
X85893333Y-140526809D01*
X85893333Y-140618238D01*
X85862857Y-140740142D01*
X85832380Y-140801095D01*
X85771428Y-140862047D01*
X85680000Y-140892523D01*
X85527619Y-140892523D01*
X86259047Y-140526809D02*
X86198095Y-140496333D01*
X86167619Y-140465857D01*
X86137142Y-140404904D01*
X86137142Y-140374428D01*
X86167619Y-140313476D01*
X86198095Y-140283000D01*
X86259047Y-140252523D01*
X86380952Y-140252523D01*
X86441904Y-140283000D01*
X86472380Y-140313476D01*
X86502857Y-140374428D01*
X86502857Y-140404904D01*
X86472380Y-140465857D01*
X86441904Y-140496333D01*
X86380952Y-140526809D01*
X86259047Y-140526809D01*
X86198095Y-140557285D01*
X86167619Y-140587761D01*
X86137142Y-140648714D01*
X86137142Y-140770619D01*
X86167619Y-140831571D01*
X86198095Y-140862047D01*
X86259047Y-140892523D01*
X86380952Y-140892523D01*
X86441904Y-140862047D01*
X86472380Y-140831571D01*
X86502857Y-140770619D01*
X86502857Y-140648714D01*
X86472380Y-140587761D01*
X86441904Y-140557285D01*
X86380952Y-140526809D01*
D11*
%TO.C,D37*%
X78235000Y-130085000D02*
X78235000Y-129455000D01*
X78385000Y-129455000D01*
X78475000Y-129485000D01*
X78535000Y-129545000D01*
X78565000Y-129605000D01*
X78595000Y-129725000D01*
X78595000Y-129815000D01*
X78565000Y-129935000D01*
X78535000Y-129995000D01*
X78475000Y-130055000D01*
X78385000Y-130085000D01*
X78235000Y-130085000D01*
X78805000Y-129455000D02*
X79195000Y-129455000D01*
X78985000Y-129695000D01*
X79075000Y-129695000D01*
X79135000Y-129725000D01*
X79165000Y-129755000D01*
X79195000Y-129815000D01*
X79195000Y-129965000D01*
X79165000Y-130025000D01*
X79135000Y-130055000D01*
X79075000Y-130085000D01*
X78895000Y-130085000D01*
X78835000Y-130055000D01*
X78805000Y-130025000D01*
X79405000Y-129455000D02*
X79825000Y-129455000D01*
X79555000Y-130085000D01*
D10*
%TO.C,D3*%
X138527619Y-119642523D02*
X138527619Y-119002523D01*
X138680000Y-119002523D01*
X138771428Y-119033000D01*
X138832380Y-119093952D01*
X138862857Y-119154904D01*
X138893333Y-119276809D01*
X138893333Y-119368238D01*
X138862857Y-119490142D01*
X138832380Y-119551095D01*
X138771428Y-119612047D01*
X138680000Y-119642523D01*
X138527619Y-119642523D01*
X139106666Y-119002523D02*
X139502857Y-119002523D01*
X139289523Y-119246333D01*
X139380952Y-119246333D01*
X139441904Y-119276809D01*
X139472380Y-119307285D01*
X139502857Y-119368238D01*
X139502857Y-119520619D01*
X139472380Y-119581571D01*
X139441904Y-119612047D01*
X139380952Y-119642523D01*
X139198095Y-119642523D01*
X139137142Y-119612047D01*
X139106666Y-119581571D01*
%TO.C,D48*%
X82222857Y-209642523D02*
X82222857Y-209002523D01*
X82375238Y-209002523D01*
X82466666Y-209033000D01*
X82527619Y-209093952D01*
X82558095Y-209154904D01*
X82588571Y-209276809D01*
X82588571Y-209368238D01*
X82558095Y-209490142D01*
X82527619Y-209551095D01*
X82466666Y-209612047D01*
X82375238Y-209642523D01*
X82222857Y-209642523D01*
X83137142Y-209215857D02*
X83137142Y-209642523D01*
X82984761Y-208972047D02*
X82832380Y-209429190D01*
X83228571Y-209429190D01*
X83563809Y-209276809D02*
X83502857Y-209246333D01*
X83472380Y-209215857D01*
X83441904Y-209154904D01*
X83441904Y-209124428D01*
X83472380Y-209063476D01*
X83502857Y-209033000D01*
X83563809Y-209002523D01*
X83685714Y-209002523D01*
X83746666Y-209033000D01*
X83777142Y-209063476D01*
X83807619Y-209124428D01*
X83807619Y-209154904D01*
X83777142Y-209215857D01*
X83746666Y-209246333D01*
X83685714Y-209276809D01*
X83563809Y-209276809D01*
X83502857Y-209307285D01*
X83472380Y-209337761D01*
X83441904Y-209398714D01*
X83441904Y-209520619D01*
X83472380Y-209581571D01*
X83502857Y-209612047D01*
X83563809Y-209642523D01*
X83685714Y-209642523D01*
X83746666Y-209612047D01*
X83777142Y-209581571D01*
X83807619Y-209520619D01*
X83807619Y-209398714D01*
X83777142Y-209337761D01*
X83746666Y-209307285D01*
X83685714Y-209276809D01*
D11*
%TO.C,D86*%
X119735000Y-234085000D02*
X119735000Y-233455000D01*
X119885000Y-233455000D01*
X119975000Y-233485000D01*
X120035000Y-233545000D01*
X120065000Y-233605000D01*
X120095000Y-233725000D01*
X120095000Y-233815000D01*
X120065000Y-233935000D01*
X120035000Y-233995000D01*
X119975000Y-234055000D01*
X119885000Y-234085000D01*
X119735000Y-234085000D01*
X120455000Y-233725000D02*
X120395000Y-233695000D01*
X120365000Y-233665000D01*
X120335000Y-233605000D01*
X120335000Y-233575000D01*
X120365000Y-233515000D01*
X120395000Y-233485000D01*
X120455000Y-233455000D01*
X120575000Y-233455000D01*
X120635000Y-233485000D01*
X120665000Y-233515000D01*
X120695000Y-233575000D01*
X120695000Y-233605000D01*
X120665000Y-233665000D01*
X120635000Y-233695000D01*
X120575000Y-233725000D01*
X120455000Y-233725000D01*
X120395000Y-233755000D01*
X120365000Y-233785000D01*
X120335000Y-233845000D01*
X120335000Y-233965000D01*
X120365000Y-234025000D01*
X120395000Y-234055000D01*
X120455000Y-234085000D01*
X120575000Y-234085000D01*
X120635000Y-234055000D01*
X120665000Y-234025000D01*
X120695000Y-233965000D01*
X120695000Y-233845000D01*
X120665000Y-233785000D01*
X120635000Y-233755000D01*
X120575000Y-233725000D01*
X121235000Y-233455000D02*
X121115000Y-233455000D01*
X121055000Y-233485000D01*
X121025000Y-233515000D01*
X120965000Y-233605000D01*
X120935000Y-233725000D01*
X120935000Y-233965000D01*
X120965000Y-234025000D01*
X120995000Y-234055000D01*
X121055000Y-234085000D01*
X121175000Y-234085000D01*
X121235000Y-234055000D01*
X121265000Y-234025000D01*
X121295000Y-233965000D01*
X121295000Y-233815000D01*
X121265000Y-233755000D01*
X121235000Y-233725000D01*
X121175000Y-233695000D01*
X121055000Y-233695000D01*
X120995000Y-233725000D01*
X120965000Y-233755000D01*
X120935000Y-233815000D01*
D10*
%TO.C,C3*%
X82083333Y-29107142D02*
X82035714Y-29154761D01*
X81892857Y-29202380D01*
X81797619Y-29202380D01*
X81654761Y-29154761D01*
X81559523Y-29059523D01*
X81511904Y-28964285D01*
X81464285Y-28773809D01*
X81464285Y-28630952D01*
X81511904Y-28440476D01*
X81559523Y-28345238D01*
X81654761Y-28250000D01*
X81797619Y-28202380D01*
X81892857Y-28202380D01*
X82035714Y-28250000D01*
X82083333Y-28297619D01*
X82416666Y-28202380D02*
X83035714Y-28202380D01*
X82702380Y-28583333D01*
X82845238Y-28583333D01*
X82940476Y-28630952D01*
X82988095Y-28678571D01*
X83035714Y-28773809D01*
X83035714Y-29011904D01*
X82988095Y-29107142D01*
X82940476Y-29154761D01*
X82845238Y-29202380D01*
X82559523Y-29202380D01*
X82464285Y-29154761D01*
X82416666Y-29107142D01*
%TO.C,J2*%
X95612380Y-36593333D02*
X96326666Y-36593333D01*
X96469523Y-36640952D01*
X96564761Y-36736190D01*
X96612380Y-36879047D01*
X96612380Y-36974285D01*
X95707619Y-36164761D02*
X95660000Y-36117142D01*
X95612380Y-36021904D01*
X95612380Y-35783809D01*
X95660000Y-35688571D01*
X95707619Y-35640952D01*
X95802857Y-35593333D01*
X95898095Y-35593333D01*
X96040952Y-35640952D01*
X96612380Y-36212380D01*
X96612380Y-35593333D01*
%TO.C,U2*%
X102488095Y-39702380D02*
X102488095Y-40511904D01*
X102535714Y-40607142D01*
X102583333Y-40654761D01*
X102678571Y-40702380D01*
X102869047Y-40702380D01*
X102964285Y-40654761D01*
X103011904Y-40607142D01*
X103059523Y-40511904D01*
X103059523Y-39702380D01*
X103488095Y-39797619D02*
X103535714Y-39750000D01*
X103630952Y-39702380D01*
X103869047Y-39702380D01*
X103964285Y-39750000D01*
X104011904Y-39797619D01*
X104059523Y-39892857D01*
X104059523Y-39988095D01*
X104011904Y-40130952D01*
X103440476Y-40702380D01*
X104059523Y-40702380D01*
%TO.C,R10*%
X101107142Y-47952380D02*
X100773809Y-47476190D01*
X100535714Y-47952380D02*
X100535714Y-46952380D01*
X100916666Y-46952380D01*
X101011904Y-47000000D01*
X101059523Y-47047619D01*
X101107142Y-47142857D01*
X101107142Y-47285714D01*
X101059523Y-47380952D01*
X101011904Y-47428571D01*
X100916666Y-47476190D01*
X100535714Y-47476190D01*
X102059523Y-47952380D02*
X101488095Y-47952380D01*
X101773809Y-47952380D02*
X101773809Y-46952380D01*
X101678571Y-47095238D01*
X101583333Y-47190476D01*
X101488095Y-47238095D01*
X102678571Y-46952380D02*
X102773809Y-46952380D01*
X102869047Y-47000000D01*
X102916666Y-47047619D01*
X102964285Y-47142857D01*
X103011904Y-47333333D01*
X103011904Y-47571428D01*
X102964285Y-47761904D01*
X102916666Y-47857142D01*
X102869047Y-47904761D01*
X102773809Y-47952380D01*
X102678571Y-47952380D01*
X102583333Y-47904761D01*
X102535714Y-47857142D01*
X102488095Y-47761904D01*
X102440476Y-47571428D01*
X102440476Y-47333333D01*
X102488095Y-47142857D01*
X102535714Y-47047619D01*
X102583333Y-47000000D01*
X102678571Y-46952380D01*
D11*
%TO.C,D77*%
X62735000Y-182085000D02*
X62735000Y-181455000D01*
X62885000Y-181455000D01*
X62975000Y-181485000D01*
X63035000Y-181545000D01*
X63065000Y-181605000D01*
X63095000Y-181725000D01*
X63095000Y-181815000D01*
X63065000Y-181935000D01*
X63035000Y-181995000D01*
X62975000Y-182055000D01*
X62885000Y-182085000D01*
X62735000Y-182085000D01*
X63305000Y-181455000D02*
X63725000Y-181455000D01*
X63455000Y-182085000D01*
X63905000Y-181455000D02*
X64325000Y-181455000D01*
X64055000Y-182085000D01*
D10*
%TO.C,C5*%
X74759642Y-34107142D02*
X74712023Y-34154761D01*
X74569166Y-34202380D01*
X74473928Y-34202380D01*
X74331071Y-34154761D01*
X74235833Y-34059523D01*
X74188214Y-33964285D01*
X74140595Y-33773809D01*
X74140595Y-33630952D01*
X74188214Y-33440476D01*
X74235833Y-33345238D01*
X74331071Y-33250000D01*
X74473928Y-33202380D01*
X74569166Y-33202380D01*
X74712023Y-33250000D01*
X74759642Y-33297619D01*
X75664404Y-33202380D02*
X75188214Y-33202380D01*
X75140595Y-33678571D01*
X75188214Y-33630952D01*
X75283452Y-33583333D01*
X75521547Y-33583333D01*
X75616785Y-33630952D01*
X75664404Y-33678571D01*
X75712023Y-33773809D01*
X75712023Y-34011904D01*
X75664404Y-34107142D01*
X75616785Y-34154761D01*
X75521547Y-34202380D01*
X75283452Y-34202380D01*
X75188214Y-34154761D01*
X75140595Y-34107142D01*
D11*
%TO.C,D83*%
X138735000Y-90085000D02*
X138735000Y-89455000D01*
X138885000Y-89455000D01*
X138975000Y-89485000D01*
X139035000Y-89545000D01*
X139065000Y-89605000D01*
X139095000Y-89725000D01*
X139095000Y-89815000D01*
X139065000Y-89935000D01*
X139035000Y-89995000D01*
X138975000Y-90055000D01*
X138885000Y-90085000D01*
X138735000Y-90085000D01*
X139455000Y-89725000D02*
X139395000Y-89695000D01*
X139365000Y-89665000D01*
X139335000Y-89605000D01*
X139335000Y-89575000D01*
X139365000Y-89515000D01*
X139395000Y-89485000D01*
X139455000Y-89455000D01*
X139575000Y-89455000D01*
X139635000Y-89485000D01*
X139665000Y-89515000D01*
X139695000Y-89575000D01*
X139695000Y-89605000D01*
X139665000Y-89665000D01*
X139635000Y-89695000D01*
X139575000Y-89725000D01*
X139455000Y-89725000D01*
X139395000Y-89755000D01*
X139365000Y-89785000D01*
X139335000Y-89845000D01*
X139335000Y-89965000D01*
X139365000Y-90025000D01*
X139395000Y-90055000D01*
X139455000Y-90085000D01*
X139575000Y-90085000D01*
X139635000Y-90055000D01*
X139665000Y-90025000D01*
X139695000Y-89965000D01*
X139695000Y-89845000D01*
X139665000Y-89785000D01*
X139635000Y-89755000D01*
X139575000Y-89725000D01*
X139905000Y-89455000D02*
X140295000Y-89455000D01*
X140085000Y-89695000D01*
X140175000Y-89695000D01*
X140235000Y-89725000D01*
X140265000Y-89755000D01*
X140295000Y-89815000D01*
X140295000Y-89965000D01*
X140265000Y-90025000D01*
X140235000Y-90055000D01*
X140175000Y-90085000D01*
X139995000Y-90085000D01*
X139935000Y-90055000D01*
X139905000Y-90025000D01*
D10*
%TO.C,D47*%
X82222857Y-190642523D02*
X82222857Y-190002523D01*
X82375238Y-190002523D01*
X82466666Y-190033000D01*
X82527619Y-190093952D01*
X82558095Y-190154904D01*
X82588571Y-190276809D01*
X82588571Y-190368238D01*
X82558095Y-190490142D01*
X82527619Y-190551095D01*
X82466666Y-190612047D01*
X82375238Y-190642523D01*
X82222857Y-190642523D01*
X83137142Y-190215857D02*
X83137142Y-190642523D01*
X82984761Y-189972047D02*
X82832380Y-190429190D01*
X83228571Y-190429190D01*
X83411428Y-190002523D02*
X83838095Y-190002523D01*
X83563809Y-190642523D01*
%TO.C,J5*%
X50465813Y-40050979D02*
X50465813Y-40767093D01*
X50418072Y-40910315D01*
X50322590Y-41005797D01*
X50179368Y-41053538D01*
X50083886Y-41053538D01*
X51420631Y-40050979D02*
X50943222Y-40050979D01*
X50895481Y-40528388D01*
X50943222Y-40480647D01*
X51038704Y-40432906D01*
X51277409Y-40432906D01*
X51372890Y-40480647D01*
X51420631Y-40528388D01*
X51468372Y-40623870D01*
X51468372Y-40862574D01*
X51420631Y-40958056D01*
X51372890Y-41005797D01*
X51277409Y-41053538D01*
X51038704Y-41053538D01*
X50943222Y-41005797D01*
X50895481Y-40958056D01*
%TO.C,D42*%
X139222857Y-178892523D02*
X139222857Y-178252523D01*
X139375238Y-178252523D01*
X139466666Y-178283000D01*
X139527619Y-178343952D01*
X139558095Y-178404904D01*
X139588571Y-178526809D01*
X139588571Y-178618238D01*
X139558095Y-178740142D01*
X139527619Y-178801095D01*
X139466666Y-178862047D01*
X139375238Y-178892523D01*
X139222857Y-178892523D01*
X140137142Y-178465857D02*
X140137142Y-178892523D01*
X139984761Y-178222047D02*
X139832380Y-178679190D01*
X140228571Y-178679190D01*
X140441904Y-178313476D02*
X140472380Y-178283000D01*
X140533333Y-178252523D01*
X140685714Y-178252523D01*
X140746666Y-178283000D01*
X140777142Y-178313476D01*
X140807619Y-178374428D01*
X140807619Y-178435380D01*
X140777142Y-178526809D01*
X140411428Y-178892523D01*
X140807619Y-178892523D01*
D11*
%TO.C,D38*%
X157735000Y-92085000D02*
X157735000Y-91455000D01*
X157885000Y-91455000D01*
X157975000Y-91485000D01*
X158035000Y-91545000D01*
X158065000Y-91605000D01*
X158095000Y-91725000D01*
X158095000Y-91815000D01*
X158065000Y-91935000D01*
X158035000Y-91995000D01*
X157975000Y-92055000D01*
X157885000Y-92085000D01*
X157735000Y-92085000D01*
X158305000Y-91455000D02*
X158695000Y-91455000D01*
X158485000Y-91695000D01*
X158575000Y-91695000D01*
X158635000Y-91725000D01*
X158665000Y-91755000D01*
X158695000Y-91815000D01*
X158695000Y-91965000D01*
X158665000Y-92025000D01*
X158635000Y-92055000D01*
X158575000Y-92085000D01*
X158395000Y-92085000D01*
X158335000Y-92055000D01*
X158305000Y-92025000D01*
X159055000Y-91725000D02*
X158995000Y-91695000D01*
X158965000Y-91665000D01*
X158935000Y-91605000D01*
X158935000Y-91575000D01*
X158965000Y-91515000D01*
X158995000Y-91485000D01*
X159055000Y-91455000D01*
X159175000Y-91455000D01*
X159235000Y-91485000D01*
X159265000Y-91515000D01*
X159295000Y-91575000D01*
X159295000Y-91605000D01*
X159265000Y-91665000D01*
X159235000Y-91695000D01*
X159175000Y-91725000D01*
X159055000Y-91725000D01*
X158995000Y-91755000D01*
X158965000Y-91785000D01*
X158935000Y-91845000D01*
X158935000Y-91965000D01*
X158965000Y-92025000D01*
X158995000Y-92055000D01*
X159055000Y-92085000D01*
X159175000Y-92085000D01*
X159235000Y-92055000D01*
X159265000Y-92025000D01*
X159295000Y-91965000D01*
X159295000Y-91845000D01*
X159265000Y-91785000D01*
X159235000Y-91755000D01*
X159175000Y-91725000D01*
%TO.C,D36*%
X100735000Y-144085000D02*
X100735000Y-143455000D01*
X100885000Y-143455000D01*
X100975000Y-143485000D01*
X101035000Y-143545000D01*
X101065000Y-143605000D01*
X101095000Y-143725000D01*
X101095000Y-143815000D01*
X101065000Y-143935000D01*
X101035000Y-143995000D01*
X100975000Y-144055000D01*
X100885000Y-144085000D01*
X100735000Y-144085000D01*
X101305000Y-143455000D02*
X101695000Y-143455000D01*
X101485000Y-143695000D01*
X101575000Y-143695000D01*
X101635000Y-143725000D01*
X101665000Y-143755000D01*
X101695000Y-143815000D01*
X101695000Y-143965000D01*
X101665000Y-144025000D01*
X101635000Y-144055000D01*
X101575000Y-144085000D01*
X101395000Y-144085000D01*
X101335000Y-144055000D01*
X101305000Y-144025000D01*
X102235000Y-143455000D02*
X102115000Y-143455000D01*
X102055000Y-143485000D01*
X102025000Y-143515000D01*
X101965000Y-143605000D01*
X101935000Y-143725000D01*
X101935000Y-143965000D01*
X101965000Y-144025000D01*
X101995000Y-144055000D01*
X102055000Y-144085000D01*
X102175000Y-144085000D01*
X102235000Y-144055000D01*
X102265000Y-144025000D01*
X102295000Y-143965000D01*
X102295000Y-143815000D01*
X102265000Y-143755000D01*
X102235000Y-143725000D01*
X102175000Y-143695000D01*
X102055000Y-143695000D01*
X101995000Y-143725000D01*
X101965000Y-143755000D01*
X101935000Y-143815000D01*
D10*
%TO.C,C10*%
X64057261Y-38357142D02*
X64009642Y-38404761D01*
X63866785Y-38452380D01*
X63771547Y-38452380D01*
X63628690Y-38404761D01*
X63533452Y-38309523D01*
X63485833Y-38214285D01*
X63438214Y-38023809D01*
X63438214Y-37880952D01*
X63485833Y-37690476D01*
X63533452Y-37595238D01*
X63628690Y-37500000D01*
X63771547Y-37452380D01*
X63866785Y-37452380D01*
X64009642Y-37500000D01*
X64057261Y-37547619D01*
X65009642Y-38452380D02*
X64438214Y-38452380D01*
X64723928Y-38452380D02*
X64723928Y-37452380D01*
X64628690Y-37595238D01*
X64533452Y-37690476D01*
X64438214Y-37738095D01*
X65628690Y-37452380D02*
X65723928Y-37452380D01*
X65819166Y-37500000D01*
X65866785Y-37547619D01*
X65914404Y-37642857D01*
X65962023Y-37833333D01*
X65962023Y-38071428D01*
X65914404Y-38261904D01*
X65866785Y-38357142D01*
X65819166Y-38404761D01*
X65723928Y-38452380D01*
X65628690Y-38452380D01*
X65533452Y-38404761D01*
X65485833Y-38357142D01*
X65438214Y-38261904D01*
X65390595Y-38071428D01*
X65390595Y-37833333D01*
X65438214Y-37642857D01*
X65485833Y-37547619D01*
X65533452Y-37500000D01*
X65628690Y-37452380D01*
D11*
%TO.C,D35*%
X161235000Y-149085000D02*
X161235000Y-148455000D01*
X161385000Y-148455000D01*
X161475000Y-148485000D01*
X161535000Y-148545000D01*
X161565000Y-148605000D01*
X161595000Y-148725000D01*
X161595000Y-148815000D01*
X161565000Y-148935000D01*
X161535000Y-148995000D01*
X161475000Y-149055000D01*
X161385000Y-149085000D01*
X161235000Y-149085000D01*
X161805000Y-148455000D02*
X162195000Y-148455000D01*
X161985000Y-148695000D01*
X162075000Y-148695000D01*
X162135000Y-148725000D01*
X162165000Y-148755000D01*
X162195000Y-148815000D01*
X162195000Y-148965000D01*
X162165000Y-149025000D01*
X162135000Y-149055000D01*
X162075000Y-149085000D01*
X161895000Y-149085000D01*
X161835000Y-149055000D01*
X161805000Y-149025000D01*
X162765000Y-148455000D02*
X162465000Y-148455000D01*
X162435000Y-148755000D01*
X162465000Y-148725000D01*
X162525000Y-148695000D01*
X162675000Y-148695000D01*
X162735000Y-148725000D01*
X162765000Y-148755000D01*
X162795000Y-148815000D01*
X162795000Y-148965000D01*
X162765000Y-149025000D01*
X162735000Y-149055000D01*
X162675000Y-149085000D01*
X162525000Y-149085000D01*
X162465000Y-149055000D01*
X162435000Y-149025000D01*
D10*
%TO.C,R11*%
X90607023Y-46152380D02*
X90273690Y-45676190D01*
X90035595Y-46152380D02*
X90035595Y-45152380D01*
X90416547Y-45152380D01*
X90511785Y-45200000D01*
X90559404Y-45247619D01*
X90607023Y-45342857D01*
X90607023Y-45485714D01*
X90559404Y-45580952D01*
X90511785Y-45628571D01*
X90416547Y-45676190D01*
X90035595Y-45676190D01*
X91559404Y-46152380D02*
X90987976Y-46152380D01*
X91273690Y-46152380D02*
X91273690Y-45152380D01*
X91178452Y-45295238D01*
X91083214Y-45390476D01*
X90987976Y-45438095D01*
X92511785Y-46152380D02*
X91940357Y-46152380D01*
X92226071Y-46152380D02*
X92226071Y-45152380D01*
X92130833Y-45295238D01*
X92035595Y-45390476D01*
X91940357Y-45438095D01*
D12*
%TO.C,U3*%
X140430000Y-85275000D02*
X140430000Y-83275000D01*
X140430000Y-83275000D02*
X142430000Y-83275000D01*
X181070000Y-83275000D02*
X175990000Y-83275000D01*
X140430000Y-144235000D02*
X140430000Y-142235000D01*
X142430000Y-144235000D02*
X140430000Y-144235000D01*
X181070000Y-144235000D02*
X175990000Y-144235000D01*
%TO.C,U4*%
X107940000Y-24180000D02*
X109940000Y-24180000D01*
X109940000Y-24180000D02*
X109940000Y-26180000D01*
X109940000Y-64820000D02*
X109940000Y-59740000D01*
X48980000Y-24180000D02*
X50980000Y-24180000D01*
X48980000Y-26180000D02*
X48980000Y-24180000D01*
X48980000Y-64820000D02*
X48980000Y-59740000D01*
%TO.C,U5*%
X81570000Y-232270000D02*
X81570000Y-234270000D01*
X81570000Y-234270000D02*
X79570000Y-234270000D01*
X40930000Y-234270000D02*
X46010000Y-234270000D01*
X81570000Y-173310000D02*
X81570000Y-175310000D01*
X79570000Y-173310000D02*
X81570000Y-173310000D01*
X40930000Y-173310000D02*
X46010000Y-173310000D01*
%TO.C,C2*%
X82185000Y-39788748D02*
X82185000Y-40311252D01*
X80715000Y-39788748D02*
X80715000Y-40311252D01*
%TO.C,R2*%
X78977064Y-43485000D02*
X78522936Y-43485000D01*
X78977064Y-42015000D02*
X78522936Y-42015000D01*
%TO.C,C1*%
X82715000Y-39788748D02*
X82715000Y-40311252D01*
X84185000Y-39788748D02*
X84185000Y-40311252D01*
%TO.C,R3*%
X82477064Y-42015000D02*
X82022936Y-42015000D01*
X82477064Y-43485000D02*
X82022936Y-43485000D01*
%TO.C,C21*%
X78715000Y-39788748D02*
X78715000Y-40311252D01*
X80185000Y-39788748D02*
X80185000Y-40311252D01*
%TO.C,C4*%
X76715000Y-39788748D02*
X76715000Y-40311252D01*
X78185000Y-39788748D02*
X78185000Y-40311252D01*
D13*
%TO.C,D46*%
X81957000Y-172242000D02*
G75*
G03*
X81957000Y-172242000I-100000J0D01*
G01*
%TO.C,D79*%
X121700000Y-182400000D02*
X121700000Y-182400000D01*
X121800000Y-182400000D02*
X121800000Y-182400000D01*
X121800000Y-182400000D02*
G75*
G03*
X121700000Y-182400000I-50000J0D01*
G01*
X121700000Y-182400000D02*
G75*
G03*
X121800000Y-182400000I50000J0D01*
G01*
D12*
%TO.C,C6*%
X77761252Y-34315000D02*
X77238748Y-34315000D01*
X77761252Y-35785000D02*
X77238748Y-35785000D01*
D13*
%TO.C,D49*%
X81957000Y-229242000D02*
G75*
G03*
X81957000Y-229242000I-100000J0D01*
G01*
%TO.C,D34*%
X169300000Y-119900000D02*
X169300000Y-119900000D01*
X169200000Y-119900000D02*
X169200000Y-119900000D01*
X169300000Y-119900000D02*
G75*
G03*
X169200000Y-119900000I-50000J0D01*
G01*
X169200000Y-119900000D02*
G75*
G03*
X169300000Y-119900000I50000J0D01*
G01*
D12*
%TO.C,FB1*%
X77272936Y-37785000D02*
X77727064Y-37785000D01*
X77272936Y-36315000D02*
X77727064Y-36315000D01*
D13*
%TO.C,D81*%
X159800000Y-182400000D02*
X159800000Y-182400000D01*
X159700000Y-182400000D02*
X159700000Y-182400000D01*
X159700000Y-182400000D02*
G75*
G03*
X159800000Y-182400000I50000J0D01*
G01*
X159800000Y-182400000D02*
G75*
G03*
X159700000Y-182400000I-50000J0D01*
G01*
D12*
%TO.C,R12*%
X83765000Y-56522936D02*
X83765000Y-56977064D01*
X85235000Y-56522936D02*
X85235000Y-56977064D01*
D13*
%TO.C,D5*%
X80957000Y-89492000D02*
G75*
G03*
X80957000Y-89492000I-100000J0D01*
G01*
D12*
%TO.C,R7*%
X71477064Y-33985000D02*
X71022936Y-33985000D01*
X71477064Y-32515000D02*
X71022936Y-32515000D01*
D13*
%TO.C,J4*%
X49025000Y-47775000D02*
X49025000Y-56725000D01*
X55685000Y-47775000D02*
X55685000Y-56725000D01*
X49375000Y-47775000D02*
X49025000Y-47775000D01*
X49025000Y-56725000D02*
X49375000Y-56725000D01*
%TO.C,D43*%
X138957000Y-198492000D02*
G75*
G03*
X138957000Y-198492000I-100000J0D01*
G01*
%TO.C,D80*%
X144300000Y-220400000D02*
X144300000Y-220400000D01*
X144200000Y-220400000D02*
X144200000Y-220400000D01*
X144200000Y-220400000D02*
G75*
G03*
X144300000Y-220400000I50000J0D01*
G01*
X144300000Y-220400000D02*
G75*
G03*
X144200000Y-220400000I-50000J0D01*
G01*
D12*
%TO.C,R6*%
X100235000Y-50227064D02*
X100235000Y-49772936D01*
X98765000Y-50227064D02*
X98765000Y-49772936D01*
D13*
%TO.C,D2*%
X137957000Y-101242000D02*
G75*
G03*
X137957000Y-101242000I-100000J0D01*
G01*
D14*
%TO.C,SW2*%
X97462500Y-54350000D02*
X97212500Y-54350000D01*
X97212500Y-49650000D02*
X97462500Y-49650000D01*
X97462500Y-49650000D02*
X97462500Y-54350000D01*
D13*
%TO.C,D85*%
X83800000Y-180400000D02*
X83800000Y-180400000D01*
X83700000Y-180400000D02*
X83700000Y-180400000D01*
X83700000Y-180400000D02*
G75*
G03*
X83800000Y-180400000I50000J0D01*
G01*
X83800000Y-180400000D02*
G75*
G03*
X83700000Y-180400000I-50000J0D01*
G01*
D12*
%TO.C,R5*%
X81035000Y-31377064D02*
X81035000Y-30922936D01*
X79565000Y-31377064D02*
X79565000Y-30922936D01*
D14*
%TO.C,Y2*%
X70000000Y-31350000D02*
X69000000Y-31350000D01*
X71350000Y-27650000D02*
X71350000Y-27650000D01*
X71350000Y-27750000D02*
X71350000Y-27750000D01*
X70000000Y-28150000D02*
X69000000Y-28150000D01*
X71350000Y-27750000D02*
G75*
G03*
X71350000Y-27650000I0J50000D01*
G01*
X71350000Y-27650000D02*
G75*
G03*
X71350000Y-27750000I0J-50000D01*
G01*
D12*
%TO.C,SW1*%
X96000000Y-28600000D02*
X96000000Y-27750000D01*
X87000000Y-28600000D02*
X87000000Y-27750000D01*
X95250000Y-25400000D02*
X96000000Y-25400000D01*
X96000000Y-26250000D02*
X96000000Y-25400000D01*
X87000000Y-25400000D02*
X87750000Y-25400000D01*
X95250000Y-28600000D02*
X96000000Y-28600000D01*
X94250000Y-31500000D02*
X90750000Y-31500000D01*
X87000000Y-28600000D02*
X87750000Y-28600000D01*
X87000000Y-26250000D02*
X87000000Y-25400000D01*
X90750000Y-31000000D02*
X90250000Y-31000000D01*
X90250000Y-31000000D02*
X90250000Y-31500000D01*
X90250000Y-31500000D02*
X90750000Y-31500000D01*
X90750000Y-31500000D02*
X90750000Y-31000000D01*
G36*
X90750000Y-31000000D02*
G01*
X90250000Y-31000000D01*
X90250000Y-31500000D01*
X90750000Y-31500000D01*
X90750000Y-31000000D01*
G37*
X94750000Y-31500000D02*
X94250000Y-31500000D01*
X94250000Y-31500000D02*
X94250000Y-31000000D01*
X94250000Y-31000000D02*
X94750000Y-31000000D01*
X94750000Y-31000000D02*
X94750000Y-31500000D01*
G36*
X94750000Y-31500000D02*
G01*
X94250000Y-31500000D01*
X94250000Y-31000000D01*
X94750000Y-31000000D01*
X94750000Y-31500000D01*
G37*
D13*
%TO.C,J3*%
X109475000Y-56725000D02*
X109825000Y-56725000D01*
X109825000Y-47775000D02*
X109475000Y-47775000D01*
X103165000Y-56725000D02*
X103165000Y-47775000D01*
X109825000Y-56725000D02*
X109825000Y-47775000D01*
D12*
%TO.C,C12*%
X73515000Y-28738748D02*
X73515000Y-29261252D01*
X74985000Y-28738748D02*
X74985000Y-29261252D01*
D13*
%TO.C,D84*%
X140700000Y-141900000D02*
X140700000Y-141900000D01*
X140800000Y-141900000D02*
X140800000Y-141900000D01*
X140700000Y-141900000D02*
G75*
G03*
X140800000Y-141900000I50000J0D01*
G01*
X140800000Y-141900000D02*
G75*
G03*
X140700000Y-141900000I-50000J0D01*
G01*
%TO.C,D78*%
X83700000Y-231900000D02*
X83700000Y-231900000D01*
X83800000Y-231900000D02*
X83800000Y-231900000D01*
X83800000Y-231900000D02*
G75*
G03*
X83700000Y-231900000I-50000J0D01*
G01*
X83700000Y-231900000D02*
G75*
G03*
X83800000Y-231900000I50000J0D01*
G01*
D12*
%TO.C,C16*%
X88261252Y-53465000D02*
X87738748Y-53465000D01*
X88261252Y-54935000D02*
X87738748Y-54935000D01*
D13*
%TO.C,D4*%
X137957000Y-139242000D02*
G75*
G03*
X137957000Y-139242000I-100000J0D01*
G01*
D12*
%TO.C,C14*%
X88261252Y-50585000D02*
X87738748Y-50585000D01*
X88261252Y-49115000D02*
X87738748Y-49115000D01*
D13*
%TO.C,IC1*%
X84900000Y-45875000D02*
G75*
G03*
X84900000Y-45875000I-100000J0D01*
G01*
%TO.C,D82*%
X163300000Y-201400000D02*
X163300000Y-201400000D01*
X163200000Y-201400000D02*
X163200000Y-201400000D01*
X163200000Y-201400000D02*
G75*
G03*
X163300000Y-201400000I50000J0D01*
G01*
X163300000Y-201400000D02*
G75*
G03*
X163200000Y-201400000I-50000J0D01*
G01*
%TO.C,D75*%
X54600000Y-211800000D02*
X54600000Y-211800000D01*
X54600000Y-211700000D02*
X54600000Y-211700000D01*
X54600000Y-211800000D02*
G75*
G03*
X54600000Y-211700000I0J50000D01*
G01*
X54600000Y-211700000D02*
G75*
G03*
X54600000Y-211800000I0J-50000D01*
G01*
D12*
%TO.C,C18*%
X81135000Y-56488748D02*
X81135000Y-57011252D01*
X79665000Y-56488748D02*
X79665000Y-57011252D01*
%TO.C,C13*%
X68011252Y-32515000D02*
X67488748Y-32515000D01*
X68011252Y-33985000D02*
X67488748Y-33985000D01*
%TO.C,C11*%
X68011252Y-36735000D02*
X67488748Y-36735000D01*
X68011252Y-35265000D02*
X67488748Y-35265000D01*
D13*
%TO.C,D76*%
X61200000Y-239400000D02*
X61200000Y-239400000D01*
X61300000Y-239400000D02*
X61300000Y-239400000D01*
X61200000Y-239400000D02*
G75*
G03*
X61300000Y-239400000I50000J0D01*
G01*
X61300000Y-239400000D02*
G75*
G03*
X61200000Y-239400000I-50000J0D01*
G01*
D14*
%TO.C,Y1*%
X71850000Y-37050000D02*
X71850000Y-36650000D01*
X71050000Y-38550000D02*
X71050000Y-38550000D01*
X70650000Y-37050000D02*
X70650000Y-36650000D01*
X71050000Y-38650000D02*
X71050000Y-38650000D01*
X71050000Y-38550000D02*
G75*
G03*
X71050000Y-38650000I0J-50000D01*
G01*
X71050000Y-38650000D02*
G75*
G03*
X71050000Y-38550000I0J50000D01*
G01*
D12*
%TO.C,R1*%
X77272936Y-30315000D02*
X77727064Y-30315000D01*
X77272936Y-31785000D02*
X77727064Y-31785000D01*
%TO.C,C9*%
X98765000Y-54511252D02*
X98765000Y-53988748D01*
X100235000Y-54511252D02*
X100235000Y-53988748D01*
%TO.C,U1*%
X83772000Y-33796000D02*
X83772000Y-36489500D01*
X80228000Y-33796000D02*
X83772000Y-33796000D01*
X82957500Y-37304000D02*
X80228000Y-37304000D01*
X80228000Y-37304000D02*
X80228000Y-33796000D01*
%TO.C,R8*%
X88227064Y-46865000D02*
X87772936Y-46865000D01*
X88227064Y-48335000D02*
X87772936Y-48335000D01*
%TO.C,C8*%
X99589878Y-42738748D02*
X99589878Y-43261252D01*
X101059878Y-42738748D02*
X101059878Y-43261252D01*
D13*
%TO.C,D44*%
X138957000Y-217492000D02*
G75*
G03*
X138957000Y-217492000I-100000J0D01*
G01*
%TO.C,D1*%
X137957000Y-82242000D02*
G75*
G03*
X137957000Y-82242000I-100000J0D01*
G01*
D12*
%TO.C,C20*%
X75261252Y-50165000D02*
X74738748Y-50165000D01*
X75261252Y-51635000D02*
X74738748Y-51635000D01*
%TO.C,R9*%
X100765000Y-54022936D02*
X100765000Y-54477064D01*
X102235000Y-54022936D02*
X102235000Y-54477064D01*
%TO.C,C15*%
X88261252Y-51415000D02*
X87738748Y-51415000D01*
X88261252Y-52885000D02*
X87738748Y-52885000D01*
D13*
%TO.C,D45*%
X134957000Y-231492000D02*
G75*
G03*
X134957000Y-231492000I-100000J0D01*
G01*
D12*
%TO.C,C7*%
X105589878Y-42788748D02*
X105589878Y-43311252D01*
X107059878Y-42788748D02*
X107059878Y-43311252D01*
%TO.C,R13*%
X56515000Y-50022936D02*
X56515000Y-50477064D01*
X57985000Y-50022936D02*
X57985000Y-50477064D01*
D11*
%TO.C,J1*%
X103750000Y-27900000D02*
X98000000Y-27900000D01*
X98000000Y-27900000D02*
X98000000Y-38700000D01*
X109800000Y-27900000D02*
X106650000Y-27900000D01*
X109000000Y-38700000D02*
X109800000Y-38700000D01*
X106000000Y-38700000D02*
X98000000Y-38700000D01*
D15*
X97450000Y-32750000D02*
G75*
G03*
X97450000Y-32750000I-200000J0D01*
G01*
D13*
%TO.C,D41*%
X61200000Y-111400000D02*
X61200000Y-111400000D01*
X61300000Y-111400000D02*
X61300000Y-111400000D01*
X61200000Y-111400000D02*
G75*
G03*
X61300000Y-111400000I50000J0D01*
G01*
X61300000Y-111400000D02*
G75*
G03*
X61200000Y-111400000I-50000J0D01*
G01*
%TO.C,D6*%
X80957000Y-108492000D02*
G75*
G03*
X80957000Y-108492000I-100000J0D01*
G01*
D12*
%TO.C,R14*%
X56515000Y-54422936D02*
X56515000Y-54877064D01*
X57985000Y-54422936D02*
X57985000Y-54877064D01*
%TO.C,C19*%
X75261252Y-48165000D02*
X74738748Y-48165000D01*
X75261252Y-49635000D02*
X74738748Y-49635000D01*
%TO.C,C17*%
X83135000Y-56488748D02*
X83135000Y-57011252D01*
X81665000Y-56488748D02*
X81665000Y-57011252D01*
D13*
%TO.C,D39*%
X102700000Y-92400000D02*
X102700000Y-92400000D01*
X102800000Y-92400000D02*
X102800000Y-92400000D01*
X102700000Y-92400000D02*
G75*
G03*
X102800000Y-92400000I50000J0D01*
G01*
X102800000Y-92400000D02*
G75*
G03*
X102700000Y-92400000I-50000J0D01*
G01*
D12*
%TO.C,R4*%
X87365000Y-30777064D02*
X87365000Y-30322936D01*
X88835000Y-30777064D02*
X88835000Y-30322936D01*
D13*
%TO.C,D7*%
X80957000Y-127492000D02*
G75*
G03*
X80957000Y-127492000I-100000J0D01*
G01*
%TO.C,D40*%
X64800000Y-92400000D02*
X64800000Y-92400000D01*
X64700000Y-92400000D02*
X64700000Y-92400000D01*
X64800000Y-92400000D02*
G75*
G03*
X64700000Y-92400000I-50000J0D01*
G01*
X64700000Y-92400000D02*
G75*
G03*
X64800000Y-92400000I50000J0D01*
G01*
%TO.C,D8*%
X84957000Y-141492000D02*
G75*
G03*
X84957000Y-141492000I-100000J0D01*
G01*
%TO.C,D37*%
X80200000Y-130400000D02*
X80200000Y-130400000D01*
X80300000Y-130400000D02*
X80300000Y-130400000D01*
X80300000Y-130400000D02*
G75*
G03*
X80200000Y-130400000I-50000J0D01*
G01*
X80200000Y-130400000D02*
G75*
G03*
X80300000Y-130400000I50000J0D01*
G01*
%TO.C,D3*%
X137957000Y-120242000D02*
G75*
G03*
X137957000Y-120242000I-100000J0D01*
G01*
%TO.C,D48*%
X81957000Y-210242000D02*
G75*
G03*
X81957000Y-210242000I-100000J0D01*
G01*
%TO.C,D86*%
X121700000Y-234400000D02*
X121700000Y-234400000D01*
X121800000Y-234400000D02*
X121800000Y-234400000D01*
X121700000Y-234400000D02*
G75*
G03*
X121800000Y-234400000I50000J0D01*
G01*
X121800000Y-234400000D02*
G75*
G03*
X121700000Y-234400000I-50000J0D01*
G01*
D12*
%TO.C,C3*%
X83035000Y-31411252D02*
X83035000Y-30888748D01*
X81565000Y-31411252D02*
X81565000Y-30888748D01*
%TO.C,J2*%
X94720000Y-34675000D02*
X88250000Y-34675000D01*
X94720000Y-35932530D02*
X94720000Y-36135000D01*
X94785000Y-36895000D02*
X94785000Y-37845000D01*
X88250000Y-37202530D02*
X88250000Y-37845000D01*
X93390000Y-37655000D02*
X93390000Y-37845000D01*
X94785000Y-37845000D02*
X94025000Y-37845000D01*
X88250000Y-35932530D02*
X88250000Y-36587470D01*
X94720000Y-34675000D02*
X94720000Y-35317470D01*
X93390000Y-37845000D02*
X88250000Y-37845000D01*
X88250000Y-34675000D02*
X88250000Y-35317470D01*
%TO.C,U2*%
X101764878Y-43000000D02*
X101764878Y-42200000D01*
X101764878Y-43000000D02*
X101764878Y-43800000D01*
X104884878Y-43000000D02*
X104884878Y-41200000D01*
X104884878Y-43000000D02*
X104884878Y-43800000D01*
%TO.C,R10*%
X100765000Y-49772936D02*
X100765000Y-50227064D01*
X102235000Y-49772936D02*
X102235000Y-50227064D01*
D13*
%TO.C,D77*%
X64800000Y-182400000D02*
X64800000Y-182400000D01*
X64700000Y-182400000D02*
X64700000Y-182400000D01*
X64800000Y-182400000D02*
G75*
G03*
X64700000Y-182400000I-50000J0D01*
G01*
X64700000Y-182400000D02*
G75*
G03*
X64800000Y-182400000I50000J0D01*
G01*
D12*
%TO.C,C5*%
X77761252Y-32315000D02*
X77238748Y-32315000D01*
X77761252Y-33785000D02*
X77238748Y-33785000D01*
D13*
%TO.C,D83*%
X140800000Y-90400000D02*
X140800000Y-90400000D01*
X140700000Y-90400000D02*
X140700000Y-90400000D01*
X140800000Y-90400000D02*
G75*
G03*
X140700000Y-90400000I-50000J0D01*
G01*
X140700000Y-90400000D02*
G75*
G03*
X140800000Y-90400000I50000J0D01*
G01*
%TO.C,D47*%
X81957000Y-191242000D02*
G75*
G03*
X81957000Y-191242000I-100000J0D01*
G01*
D11*
%TO.C,J5*%
X61000000Y-39100000D02*
X61000000Y-28300000D01*
X50000000Y-28300000D02*
X49200000Y-28300000D01*
X49200000Y-39100000D02*
X52350000Y-39100000D01*
X55250000Y-39100000D02*
X61000000Y-39100000D01*
X53000000Y-28300000D02*
X61000000Y-28300000D01*
D15*
X61950000Y-34250000D02*
G75*
G03*
X61950000Y-34250000I-200000J0D01*
G01*
D13*
%TO.C,D42*%
X138957000Y-179492000D02*
G75*
G03*
X138957000Y-179492000I-100000J0D01*
G01*
%TO.C,D38*%
X159800000Y-92400000D02*
X159800000Y-92400000D01*
X159700000Y-92400000D02*
X159700000Y-92400000D01*
X159800000Y-92400000D02*
G75*
G03*
X159700000Y-92400000I-50000J0D01*
G01*
X159700000Y-92400000D02*
G75*
G03*
X159800000Y-92400000I50000J0D01*
G01*
%TO.C,D36*%
X102700000Y-144400000D02*
X102700000Y-144400000D01*
X102800000Y-144400000D02*
X102800000Y-144400000D01*
X102800000Y-144400000D02*
G75*
G03*
X102700000Y-144400000I-50000J0D01*
G01*
X102700000Y-144400000D02*
G75*
G03*
X102800000Y-144400000I50000J0D01*
G01*
D12*
%TO.C,C10*%
X68011252Y-38735000D02*
X67488748Y-38735000D01*
X68011252Y-37265000D02*
X67488748Y-37265000D01*
D13*
%TO.C,D35*%
X163200000Y-149400000D02*
X163200000Y-149400000D01*
X163300000Y-149400000D02*
X163300000Y-149400000D01*
X163200000Y-149400000D02*
G75*
G03*
X163300000Y-149400000I50000J0D01*
G01*
X163300000Y-149400000D02*
G75*
G03*
X163200000Y-149400000I-50000J0D01*
G01*
D12*
%TO.C,R11*%
X87772936Y-44965000D02*
X88227064Y-44965000D01*
X87772936Y-46435000D02*
X88227064Y-46435000D01*
%TD*%
M02*
