M48
; DRILL file {KiCad (6.0.6)} date Sat 03 Sep 2022 10:19:15 PM PDT
; FORMAT={-:-/ absolute / inch / decimal}
; #@! TF.CreationDate,2022-09-03T22:19:15-07:00
; #@! TF.GenerationSoftware,Kicad,Pcbnew,(6.0.6)
; #@! TF.FileFunction,Plated,1,3,Blind
FMAT,2
INCH
; #@! TA.AperFunction,Plated,Buried,ViaDrill
T1C0.0047
; #@! TA.AperFunction,Plated,Buried,ViaDrill
T2C0.0059
%
G90
G05
T1
X3.2126Y-1.4154
X3.2283Y-1.4154
X3.2441Y-1.3839
X3.2441Y-1.3996
T2
X2.9941Y-2.0669
X3.0177Y-2.0669
X3.0315Y-1.8524
X3.0315Y-1.8996
X3.0335Y-1.8051
X3.0413Y-1.9252
X3.0413Y-2.0669
X3.0512Y-1.8307
X3.0512Y-1.8799
X3.0512Y-1.9488
X3.065Y-2.0669
X3.0906Y-1.752
X3.0906Y-2.0669
X3.1102Y-1.7323
X3.128Y-1.4449
X3.1319Y-2.126
X3.1417Y-1.374
X3.1496Y-1.7441
X3.1555Y-1.4783
X3.1555Y-2.1437
X3.1772Y-1.7323
X3.1791Y-2.126
X3.189Y-1.2992
X3.2047Y-1.7441
X3.2185Y-2.1437
X3.2283Y-1.7323
X3.2323Y-1.5
X3.2362Y-1.2992
X3.2402Y-2.126
X3.2618Y-2.1437
X3.2717Y-1.5039
X3.2835Y-2.128
X3.2854Y-1.4843
X3.3031Y-1.748
X3.3268Y-1.3189
X3.3268Y-1.7323
X3.3307Y-1.437
X3.3524Y-1.748
X3.3543Y-1.3346
X3.3543Y-1.378
X3.3543Y-1.4213
T0
M30
