%TF.GenerationSoftware,KiCad,Pcbnew,(6.0.6)*%
%TF.CreationDate,2022-09-03T22:19:59-07:00*%
%TF.ProjectId,NourK,4e6f7572-4b2e-46b6-9963-61645f706362,rev?*%
%TF.SameCoordinates,Original*%
%TF.FileFunction,Soldermask,Bot*%
%TF.FilePolarity,Negative*%
%FSLAX46Y46*%
G04 Gerber Fmt 4.6, Leading zero omitted, Abs format (unit mm)*
G04 Created by KiCad (PCBNEW (6.0.6)) date 2022-09-03 22:19:59*
%MOMM*%
%LPD*%
G01*
G04 APERTURE LIST*
%ADD10C,1.524000*%
%ADD11C,2.200000*%
%ADD12C,1.200000*%
%ADD13C,1.700000*%
%ADD14C,3.990000*%
%ADD15C,2.000000*%
%ADD16C,0.650000*%
%ADD17O,2.216000X1.108000*%
%ADD18C,0.800000*%
%ADD19C,1.100000*%
%ADD20O,1.100000X2.200000*%
%ADD21O,2.200000X1.100000*%
%ADD22O,1.000000X1.000000*%
%ADD23R,1.000000X1.000000*%
%ADD24R,0.600000X0.900000*%
%ADD25R,0.600000X0.550000*%
G04 APERTURE END LIST*
D10*
%TO.C,U3*%
X177260000Y-142965000D03*
X177260000Y-140425000D03*
X177260000Y-137885000D03*
X177260000Y-135345000D03*
X177260000Y-132805000D03*
X177260000Y-130265000D03*
X177260000Y-127725000D03*
X177260000Y-125185000D03*
X177260000Y-122645000D03*
X177260000Y-120105000D03*
X177260000Y-117565000D03*
X177260000Y-115025000D03*
X177260000Y-112485000D03*
X177260000Y-109945000D03*
X177260000Y-107405000D03*
X177260000Y-104865000D03*
X177260000Y-102325000D03*
X177260000Y-99785000D03*
X177260000Y-97245000D03*
X177260000Y-94705000D03*
X177260000Y-92165000D03*
X177260000Y-89625000D03*
X177260000Y-87085000D03*
X177260000Y-84545000D03*
X179800000Y-84545000D03*
X179800000Y-87085000D03*
X179800000Y-89625000D03*
X179800000Y-92165000D03*
X179800000Y-94705000D03*
X179800000Y-97245000D03*
X179800000Y-99785000D03*
X179800000Y-102325000D03*
X179800000Y-104865000D03*
X179800000Y-107405000D03*
X179800000Y-109945000D03*
X179800000Y-112485000D03*
X179800000Y-115025000D03*
X179800000Y-117565000D03*
X179800000Y-120105000D03*
X179800000Y-122645000D03*
X179800000Y-125185000D03*
X179800000Y-127725000D03*
X179800000Y-130265000D03*
X179800000Y-132805000D03*
X179800000Y-135345000D03*
X179800000Y-137885000D03*
X179800000Y-140425000D03*
X179800000Y-142965000D03*
%TD*%
%TO.C,U4*%
X50250000Y-61010000D03*
X52790000Y-61010000D03*
X55330000Y-61010000D03*
X57870000Y-61010000D03*
X60410000Y-61010000D03*
X62950000Y-61010000D03*
X65490000Y-61010000D03*
X68030000Y-61010000D03*
X70570000Y-61010000D03*
X73110000Y-61010000D03*
X75650000Y-61010000D03*
X78190000Y-61010000D03*
X80730000Y-61010000D03*
X83270000Y-61010000D03*
X85810000Y-61010000D03*
X88350000Y-61010000D03*
X90890000Y-61010000D03*
X93430000Y-61010000D03*
X95970000Y-61010000D03*
X98510000Y-61010000D03*
X101050000Y-61010000D03*
X103590000Y-61010000D03*
X106130000Y-61010000D03*
X108670000Y-61010000D03*
X108670000Y-63550000D03*
X106130000Y-63550000D03*
X103590000Y-63550000D03*
X101050000Y-63550000D03*
X98510000Y-63550000D03*
X95970000Y-63550000D03*
X93430000Y-63550000D03*
X90890000Y-63550000D03*
X88350000Y-63550000D03*
X85810000Y-63550000D03*
X83270000Y-63550000D03*
X80730000Y-63550000D03*
X78190000Y-63550000D03*
X75650000Y-63550000D03*
X73110000Y-63550000D03*
X70570000Y-63550000D03*
X68030000Y-63550000D03*
X65490000Y-63550000D03*
X62950000Y-63550000D03*
X60410000Y-63550000D03*
X57870000Y-63550000D03*
X55330000Y-63550000D03*
X52790000Y-63550000D03*
X50250000Y-63550000D03*
%TD*%
%TO.C,U5*%
X44740000Y-174580000D03*
X44740000Y-177120000D03*
X44740000Y-179660000D03*
X44740000Y-182200000D03*
X44740000Y-184740000D03*
X44740000Y-187280000D03*
X44740000Y-189820000D03*
X44740000Y-192360000D03*
X44740000Y-194900000D03*
X44740000Y-197440000D03*
X44740000Y-199980000D03*
X44740000Y-202520000D03*
X44740000Y-205060000D03*
X44740000Y-207600000D03*
X44740000Y-210140000D03*
X44740000Y-212680000D03*
X44740000Y-215220000D03*
X44740000Y-217760000D03*
X44740000Y-220300000D03*
X44740000Y-222840000D03*
X44740000Y-225380000D03*
X44740000Y-227920000D03*
X44740000Y-230460000D03*
X44740000Y-233000000D03*
X42200000Y-233000000D03*
X42200000Y-230460000D03*
X42200000Y-227920000D03*
X42200000Y-225380000D03*
X42200000Y-222840000D03*
X42200000Y-220300000D03*
X42200000Y-217760000D03*
X42200000Y-215220000D03*
X42200000Y-212680000D03*
X42200000Y-210140000D03*
X42200000Y-207600000D03*
X42200000Y-205060000D03*
X42200000Y-202520000D03*
X42200000Y-199980000D03*
X42200000Y-197440000D03*
X42200000Y-194900000D03*
X42200000Y-192360000D03*
X42200000Y-189820000D03*
X42200000Y-187280000D03*
X42200000Y-184740000D03*
X42200000Y-182200000D03*
X42200000Y-179660000D03*
X42200000Y-177120000D03*
X42200000Y-174580000D03*
%TD*%
D11*
%TO.C,REF\u002A\u002A*%
X62750000Y-233550000D03*
%TD*%
%TO.C,REF\u002A\u002A*%
X160250000Y-193800000D03*
%TD*%
%TO.C,REF\u002A\u002A*%
X63500000Y-194750000D03*
%TD*%
%TO.C,REF\u002A\u002A*%
X101500000Y-205050000D03*
%TD*%
%TO.C,REF\u002A\u002A*%
X125000000Y-230550000D03*
%TD*%
%TO.C,REF\u002A\u002A*%
X120500000Y-115000000D03*
%TD*%
%TO.C,REF\u002A\u002A*%
X158500000Y-104700000D03*
%TD*%
%TO.C,REF\u002A\u002A*%
X159250000Y-143500000D03*
%TD*%
%TO.C,REF\u002A\u002A*%
X97000000Y-140500000D03*
%TD*%
%TO.C,REF\u002A\u002A*%
X61750000Y-103750000D03*
%TD*%
%TO.C,REF\u002A\u002A*%
X63500000Y-212850000D03*
%TD*%
%TO.C,REF\u002A\u002A*%
X158500000Y-122800000D03*
%TD*%
D12*
%TO.C,SW53*%
X48500000Y-221000000D03*
X48780000Y-225200000D03*
D13*
X59080000Y-221000000D03*
D14*
X54000000Y-221000000D03*
D12*
X59500000Y-221000000D03*
D13*
X48920000Y-221000000D03*
D15*
X51460000Y-215920000D03*
X49000000Y-217200000D03*
X54000000Y-215100000D03*
X57810000Y-218460000D03*
%TD*%
D12*
%TO.C,SW36*%
X124500000Y-202000000D03*
X124780000Y-206200000D03*
D13*
X135080000Y-202000000D03*
D14*
X130000000Y-202000000D03*
D12*
X135500000Y-202000000D03*
D13*
X124920000Y-202000000D03*
D15*
X127460000Y-196920000D03*
X125000000Y-198200000D03*
X130000000Y-196100000D03*
X133810000Y-199460000D03*
%TD*%
D12*
%TO.C,SW33*%
X143500000Y-202000000D03*
X143780000Y-206200000D03*
D13*
X154080000Y-202000000D03*
D14*
X149000000Y-202000000D03*
D12*
X154500000Y-202000000D03*
D13*
X143920000Y-202000000D03*
D15*
X146460000Y-196920000D03*
X144000000Y-198200000D03*
X149000000Y-196100000D03*
X152810000Y-199460000D03*
%TD*%
D12*
%TO.C,SW13*%
X124500000Y-123000000D03*
X124780000Y-127200000D03*
D13*
X135080000Y-123000000D03*
D14*
X130000000Y-123000000D03*
D12*
X135500000Y-123000000D03*
D13*
X124920000Y-123000000D03*
D15*
X127460000Y-117920000D03*
X125000000Y-119200000D03*
X130000000Y-117100000D03*
X133810000Y-120460000D03*
%TD*%
D12*
%TO.C,SW49*%
X67500000Y-219000000D03*
X67780000Y-223200000D03*
D13*
X78080000Y-219000000D03*
D14*
X73000000Y-219000000D03*
D12*
X78500000Y-219000000D03*
D13*
X67920000Y-219000000D03*
D15*
X70460000Y-213920000D03*
X68000000Y-215200000D03*
X73000000Y-213100000D03*
X76810000Y-216460000D03*
%TD*%
D12*
%TO.C,SW8*%
X143500000Y-110000000D03*
X143780000Y-114200000D03*
D13*
X154080000Y-110000000D03*
D14*
X149000000Y-110000000D03*
D12*
X154500000Y-110000000D03*
D13*
X143920000Y-110000000D03*
D15*
X146460000Y-104920000D03*
X144000000Y-106200000D03*
X149000000Y-104100000D03*
X152810000Y-107460000D03*
%TD*%
D12*
%TO.C,SW26*%
X48500000Y-93000000D03*
X48780000Y-97200000D03*
D13*
X59080000Y-93000000D03*
D14*
X54000000Y-93000000D03*
D12*
X59500000Y-93000000D03*
D13*
X48920000Y-93000000D03*
D15*
X51460000Y-87920000D03*
X49000000Y-89200000D03*
X54000000Y-87100000D03*
X57810000Y-90460000D03*
%TD*%
D12*
%TO.C,SW23*%
X67500000Y-93000000D03*
X67780000Y-97200000D03*
D13*
X78080000Y-93000000D03*
D14*
X73000000Y-93000000D03*
D12*
X78500000Y-93000000D03*
D13*
X67920000Y-93000000D03*
D15*
X70460000Y-87920000D03*
X68000000Y-89200000D03*
X73000000Y-87100000D03*
X76810000Y-90460000D03*
%TD*%
D12*
%TO.C,SW18*%
X105500000Y-145000000D03*
X105780000Y-149200000D03*
D13*
X116080000Y-145000000D03*
D14*
X111000000Y-145000000D03*
D12*
X116500000Y-145000000D03*
D13*
X105920000Y-145000000D03*
D15*
X108460000Y-139920000D03*
X106000000Y-141200000D03*
X111000000Y-139100000D03*
X114810000Y-142460000D03*
%TD*%
D12*
%TO.C,SW21*%
X86500000Y-131000000D03*
X86780000Y-135200000D03*
D13*
X97080000Y-131000000D03*
D14*
X92000000Y-131000000D03*
D12*
X97500000Y-131000000D03*
D13*
X86920000Y-131000000D03*
D15*
X89460000Y-125920000D03*
X87000000Y-127200000D03*
X92000000Y-125100000D03*
X95810000Y-128460000D03*
%TD*%
D12*
%TO.C,SW11*%
X124500000Y-85000000D03*
X124780000Y-89200000D03*
D13*
X135080000Y-85000000D03*
D14*
X130000000Y-85000000D03*
D12*
X135500000Y-85000000D03*
D13*
X124920000Y-85000000D03*
D15*
X127460000Y-79920000D03*
X125000000Y-81200000D03*
X130000000Y-79100000D03*
X133810000Y-82460000D03*
%TD*%
D12*
%TO.C,SW4*%
X162500000Y-112000000D03*
X162780000Y-116200000D03*
D13*
X173080000Y-112000000D03*
D14*
X168000000Y-112000000D03*
D12*
X173500000Y-112000000D03*
D13*
X162920000Y-112000000D03*
D15*
X165460000Y-106920000D03*
X163000000Y-108200000D03*
X168000000Y-106100000D03*
X171810000Y-109460000D03*
%TD*%
D12*
%TO.C,SW45*%
X86500000Y-213000000D03*
X86780000Y-217200000D03*
D13*
X97080000Y-213000000D03*
D14*
X92000000Y-213000000D03*
D12*
X97500000Y-213000000D03*
D13*
X86920000Y-213000000D03*
D15*
X89460000Y-207920000D03*
X87000000Y-209200000D03*
X92000000Y-207100000D03*
X95810000Y-210460000D03*
%TD*%
D12*
%TO.C,SW41*%
X105500000Y-216000000D03*
X105780000Y-220200000D03*
D13*
X116080000Y-216000000D03*
D14*
X111000000Y-216000000D03*
D12*
X116500000Y-216000000D03*
D13*
X105920000Y-216000000D03*
D15*
X108460000Y-210920000D03*
X106000000Y-212200000D03*
X111000000Y-210100000D03*
X114810000Y-213460000D03*
%TD*%
D12*
%TO.C,SW42*%
X105500000Y-235000000D03*
X105780000Y-239200000D03*
D13*
X116080000Y-235000000D03*
D14*
X111000000Y-235000000D03*
D12*
X116500000Y-235000000D03*
D13*
X105920000Y-235000000D03*
D15*
X108460000Y-229920000D03*
X106000000Y-231200000D03*
X111000000Y-229100000D03*
X114810000Y-232460000D03*
%TD*%
D12*
%TO.C,SW20*%
X86500000Y-112000000D03*
X86780000Y-116200000D03*
D13*
X97080000Y-112000000D03*
D14*
X92000000Y-112000000D03*
D12*
X97500000Y-112000000D03*
D13*
X86920000Y-112000000D03*
D15*
X89460000Y-106920000D03*
X87000000Y-108200000D03*
X92000000Y-106100000D03*
X95810000Y-109460000D03*
%TD*%
D12*
%TO.C,SW40*%
X105500000Y-197000000D03*
X105780000Y-201200000D03*
D13*
X116080000Y-197000000D03*
D14*
X111000000Y-197000000D03*
D12*
X116500000Y-197000000D03*
D13*
X105920000Y-197000000D03*
D15*
X108460000Y-191920000D03*
X106000000Y-193200000D03*
X111000000Y-191100000D03*
X114810000Y-194460000D03*
%TD*%
D12*
%TO.C,SW51*%
X48500000Y-183000000D03*
X48780000Y-187200000D03*
D13*
X59080000Y-183000000D03*
D14*
X54000000Y-183000000D03*
D12*
X59500000Y-183000000D03*
D13*
X48920000Y-183000000D03*
D15*
X51460000Y-177920000D03*
X49000000Y-179200000D03*
X54000000Y-177100000D03*
X57810000Y-180460000D03*
%TD*%
D12*
%TO.C,SW12*%
X124500000Y-104000000D03*
X124780000Y-108200000D03*
D13*
X135080000Y-104000000D03*
D14*
X130000000Y-104000000D03*
D12*
X135500000Y-104000000D03*
D13*
X124920000Y-104000000D03*
D15*
X127460000Y-98920000D03*
X125000000Y-100200000D03*
X130000000Y-98100000D03*
X133810000Y-101460000D03*
%TD*%
D12*
%TO.C,SW37*%
X124500000Y-221000000D03*
X124780000Y-225200000D03*
D13*
X135080000Y-221000000D03*
D14*
X130000000Y-221000000D03*
D12*
X135500000Y-221000000D03*
D13*
X124920000Y-221000000D03*
D15*
X127460000Y-215920000D03*
X125000000Y-217200000D03*
X130000000Y-215100000D03*
X133810000Y-218460000D03*
%TD*%
D12*
%TO.C,SW30*%
X162500000Y-183000000D03*
X162780000Y-187200000D03*
D13*
X173080000Y-183000000D03*
D14*
X168000000Y-183000000D03*
D12*
X173500000Y-183000000D03*
D13*
X162920000Y-183000000D03*
D15*
X165460000Y-177920000D03*
X163000000Y-179200000D03*
X168000000Y-177100000D03*
X171810000Y-180460000D03*
%TD*%
D12*
%TO.C,SW25*%
X64000000Y-131000000D03*
X64280000Y-135200000D03*
D13*
X74580000Y-131000000D03*
D14*
X69500000Y-131000000D03*
D12*
X75000000Y-131000000D03*
D13*
X64420000Y-131000000D03*
D15*
X66960000Y-125920000D03*
X64500000Y-127200000D03*
X69500000Y-125100000D03*
X73310000Y-128460000D03*
%TD*%
D12*
%TO.C,SW19*%
X86500000Y-93000000D03*
X86780000Y-97200000D03*
D13*
X97080000Y-93000000D03*
D14*
X92000000Y-93000000D03*
D12*
X97500000Y-93000000D03*
D13*
X86920000Y-93000000D03*
D15*
X89460000Y-87920000D03*
X87000000Y-89200000D03*
X92000000Y-87100000D03*
X95810000Y-90460000D03*
%TD*%
D12*
%TO.C,SW52*%
X48500000Y-202000000D03*
X48780000Y-206200000D03*
D13*
X59080000Y-202000000D03*
D14*
X54000000Y-202000000D03*
D12*
X59500000Y-202000000D03*
D13*
X48920000Y-202000000D03*
D15*
X51460000Y-196920000D03*
X49000000Y-198200000D03*
X54000000Y-196100000D03*
X57810000Y-199460000D03*
%TD*%
D12*
%TO.C,SW38*%
X124500000Y-240000000D03*
X124780000Y-244200000D03*
D13*
X135080000Y-240000000D03*
D14*
X130000000Y-240000000D03*
D12*
X135500000Y-240000000D03*
D13*
X124920000Y-240000000D03*
D15*
X127460000Y-234920000D03*
X125000000Y-236200000D03*
X130000000Y-234100000D03*
X133810000Y-237460000D03*
%TD*%
D12*
%TO.C,SW35*%
X124500000Y-183000000D03*
X124780000Y-187200000D03*
D13*
X135080000Y-183000000D03*
D14*
X130000000Y-183000000D03*
D12*
X135500000Y-183000000D03*
D13*
X124920000Y-183000000D03*
D15*
X127460000Y-177920000D03*
X125000000Y-179200000D03*
X130000000Y-177100000D03*
X133810000Y-180460000D03*
%TD*%
D12*
%TO.C,SW5*%
X162500000Y-131000000D03*
X162780000Y-135200000D03*
D13*
X173080000Y-131000000D03*
D14*
X168000000Y-131000000D03*
D12*
X173500000Y-131000000D03*
D13*
X162920000Y-131000000D03*
D15*
X165460000Y-125920000D03*
X163000000Y-127200000D03*
X168000000Y-125100000D03*
X171810000Y-128460000D03*
%TD*%
D12*
%TO.C,SW47*%
X67500000Y-181000000D03*
X67780000Y-185200000D03*
D13*
X78080000Y-181000000D03*
D14*
X73000000Y-181000000D03*
D12*
X78500000Y-181000000D03*
D13*
X67920000Y-181000000D03*
D15*
X70460000Y-175920000D03*
X68000000Y-177200000D03*
X73000000Y-175100000D03*
X76810000Y-178460000D03*
%TD*%
D12*
%TO.C,SW50*%
X67500000Y-238000000D03*
X67780000Y-242200000D03*
D13*
X78080000Y-238000000D03*
D14*
X73000000Y-238000000D03*
D12*
X78500000Y-238000000D03*
D13*
X67920000Y-238000000D03*
D15*
X70460000Y-232920000D03*
X68000000Y-234200000D03*
X73000000Y-232100000D03*
X76810000Y-235460000D03*
%TD*%
D12*
%TO.C,SW14*%
X124500000Y-142000000D03*
X124780000Y-146200000D03*
D13*
X135080000Y-142000000D03*
D14*
X130000000Y-142000000D03*
D12*
X135500000Y-142000000D03*
D13*
X124920000Y-142000000D03*
D15*
X127460000Y-136920000D03*
X125000000Y-138200000D03*
X130000000Y-136100000D03*
X133810000Y-139460000D03*
%TD*%
D12*
%TO.C,SW9*%
X143500000Y-129000000D03*
X143780000Y-133200000D03*
D13*
X154080000Y-129000000D03*
D14*
X149000000Y-129000000D03*
D12*
X154500000Y-129000000D03*
D13*
X143920000Y-129000000D03*
D15*
X146460000Y-123920000D03*
X144000000Y-125200000D03*
X149000000Y-123100000D03*
X152810000Y-126460000D03*
%TD*%
D12*
%TO.C,SW17*%
X105500000Y-126000000D03*
X105780000Y-130200000D03*
D13*
X116080000Y-126000000D03*
D14*
X111000000Y-126000000D03*
D12*
X116500000Y-126000000D03*
D13*
X105920000Y-126000000D03*
D15*
X108460000Y-120920000D03*
X106000000Y-122200000D03*
X111000000Y-120100000D03*
X114810000Y-123460000D03*
%TD*%
D12*
%TO.C,SW43*%
X86500000Y-175000000D03*
X86780000Y-179200000D03*
D13*
X97080000Y-175000000D03*
D14*
X92000000Y-175000000D03*
D12*
X97500000Y-175000000D03*
D13*
X86920000Y-175000000D03*
D15*
X89460000Y-169920000D03*
X87000000Y-171200000D03*
X92000000Y-169100000D03*
X95810000Y-172460000D03*
%TD*%
D12*
%TO.C,SW32*%
X143500000Y-183000000D03*
X143780000Y-187200000D03*
D13*
X154080000Y-183000000D03*
D14*
X149000000Y-183000000D03*
D12*
X154500000Y-183000000D03*
D13*
X143920000Y-183000000D03*
D15*
X146460000Y-177920000D03*
X144000000Y-179200000D03*
X149000000Y-177100000D03*
X152810000Y-180460000D03*
%TD*%
D12*
%TO.C,SW44*%
X86500000Y-194000000D03*
X86780000Y-198200000D03*
D13*
X97080000Y-194000000D03*
D14*
X92000000Y-194000000D03*
D12*
X97500000Y-194000000D03*
D13*
X86920000Y-194000000D03*
D15*
X89460000Y-188920000D03*
X87000000Y-190200000D03*
X92000000Y-188100000D03*
X95810000Y-191460000D03*
%TD*%
D12*
%TO.C,SW24*%
X67500000Y-112000000D03*
X67780000Y-116200000D03*
D13*
X78080000Y-112000000D03*
D14*
X73000000Y-112000000D03*
D12*
X78500000Y-112000000D03*
D13*
X67920000Y-112000000D03*
D15*
X70460000Y-106920000D03*
X68000000Y-108200000D03*
X73000000Y-106100000D03*
X76810000Y-109460000D03*
%TD*%
D12*
%TO.C,SW31*%
X166000000Y-202000000D03*
X166280000Y-206200000D03*
D13*
X176580000Y-202000000D03*
D14*
X171500000Y-202000000D03*
D12*
X177000000Y-202000000D03*
D13*
X166420000Y-202000000D03*
D15*
X168960000Y-196920000D03*
X166500000Y-198200000D03*
X171500000Y-196100000D03*
X175310000Y-199460000D03*
%TD*%
D12*
%TO.C,SW22*%
X86500000Y-150000000D03*
X86780000Y-154200000D03*
D13*
X97080000Y-150000000D03*
D14*
X92000000Y-150000000D03*
D12*
X97500000Y-150000000D03*
D13*
X86920000Y-150000000D03*
D15*
X89460000Y-144920000D03*
X87000000Y-146200000D03*
X92000000Y-144100000D03*
X95810000Y-147460000D03*
%TD*%
D12*
%TO.C,SW48*%
X67500000Y-200000000D03*
X67780000Y-204200000D03*
D13*
X78080000Y-200000000D03*
D14*
X73000000Y-200000000D03*
D12*
X78500000Y-200000000D03*
D13*
X67920000Y-200000000D03*
D15*
X70460000Y-194920000D03*
X68000000Y-196200000D03*
X73000000Y-194100000D03*
X76810000Y-197460000D03*
%TD*%
D12*
%TO.C,SW10*%
X143500000Y-148000000D03*
X143780000Y-152200000D03*
D13*
X154080000Y-148000000D03*
D14*
X149000000Y-148000000D03*
D12*
X154500000Y-148000000D03*
D13*
X143920000Y-148000000D03*
D15*
X146460000Y-142920000D03*
X144000000Y-144200000D03*
X149000000Y-142100000D03*
X152810000Y-145460000D03*
%TD*%
D12*
%TO.C,SW46*%
X86500000Y-232000000D03*
X86780000Y-236200000D03*
D13*
X97080000Y-232000000D03*
D14*
X92000000Y-232000000D03*
D12*
X97500000Y-232000000D03*
D13*
X86920000Y-232000000D03*
D15*
X89460000Y-226920000D03*
X87000000Y-228200000D03*
X92000000Y-226100000D03*
X95810000Y-229460000D03*
%TD*%
D12*
%TO.C,SW34*%
X147000000Y-221000000D03*
X147280000Y-225200000D03*
D13*
X157580000Y-221000000D03*
D14*
X152500000Y-221000000D03*
D12*
X158000000Y-221000000D03*
D13*
X147420000Y-221000000D03*
D15*
X149960000Y-215920000D03*
X147500000Y-217200000D03*
X152500000Y-215100000D03*
X156310000Y-218460000D03*
%TD*%
D12*
%TO.C,SW16*%
X105500000Y-107000000D03*
X105780000Y-111200000D03*
D13*
X116080000Y-107000000D03*
D14*
X111000000Y-107000000D03*
D12*
X116500000Y-107000000D03*
D13*
X105920000Y-107000000D03*
D15*
X108460000Y-101920000D03*
X106000000Y-103200000D03*
X111000000Y-101100000D03*
X114810000Y-104460000D03*
%TD*%
D12*
%TO.C,SW15*%
X105500000Y-88000000D03*
X105780000Y-92200000D03*
D13*
X116080000Y-88000000D03*
D14*
X111000000Y-88000000D03*
D12*
X116500000Y-88000000D03*
D13*
X105920000Y-88000000D03*
D15*
X108460000Y-82920000D03*
X106000000Y-84200000D03*
X111000000Y-82100000D03*
X114810000Y-85460000D03*
%TD*%
D12*
%TO.C,SW54*%
X45000000Y-240000000D03*
X45280000Y-244200000D03*
D13*
X55580000Y-240000000D03*
D14*
X50500000Y-240000000D03*
D12*
X56000000Y-240000000D03*
D13*
X45420000Y-240000000D03*
D15*
X47960000Y-234920000D03*
X45500000Y-236200000D03*
X50500000Y-234100000D03*
X54310000Y-237460000D03*
%TD*%
D12*
%TO.C,SW39*%
X105500000Y-178000000D03*
X105780000Y-182200000D03*
D13*
X116080000Y-178000000D03*
D14*
X111000000Y-178000000D03*
D12*
X116500000Y-178000000D03*
D13*
X105920000Y-178000000D03*
D15*
X108460000Y-172920000D03*
X106000000Y-174200000D03*
X111000000Y-172100000D03*
X114810000Y-175460000D03*
%TD*%
D12*
%TO.C,SW7*%
X143500000Y-91000000D03*
X143780000Y-95200000D03*
D13*
X154080000Y-91000000D03*
D14*
X149000000Y-91000000D03*
D12*
X154500000Y-91000000D03*
D13*
X143920000Y-91000000D03*
D15*
X146460000Y-85920000D03*
X144000000Y-87200000D03*
X149000000Y-85100000D03*
X152810000Y-88460000D03*
%TD*%
D12*
%TO.C,SW27*%
X45000000Y-112000000D03*
X45280000Y-116200000D03*
D13*
X55580000Y-112000000D03*
D14*
X50500000Y-112000000D03*
D12*
X56000000Y-112000000D03*
D13*
X45420000Y-112000000D03*
D15*
X47960000Y-106920000D03*
X45500000Y-108200000D03*
X50500000Y-106100000D03*
X54310000Y-109460000D03*
%TD*%
D12*
%TO.C,SW6*%
X166000000Y-150000000D03*
X166280000Y-154200000D03*
D13*
X176580000Y-150000000D03*
D14*
X171500000Y-150000000D03*
D12*
X177000000Y-150000000D03*
D13*
X166420000Y-150000000D03*
D15*
X168960000Y-144920000D03*
X166500000Y-146200000D03*
X171500000Y-144100000D03*
X175310000Y-147460000D03*
%TD*%
D12*
%TO.C,SW3*%
X162500000Y-93000000D03*
X162780000Y-97200000D03*
D13*
X173080000Y-93000000D03*
D14*
X168000000Y-93000000D03*
D12*
X173500000Y-93000000D03*
D13*
X162920000Y-93000000D03*
D15*
X165460000Y-87920000D03*
X163000000Y-89200000D03*
X168000000Y-87100000D03*
X171810000Y-90460000D03*
%TD*%
D11*
%TO.C,REF\u002A\u002A*%
X88500000Y-42250000D03*
%TD*%
%TO.C,REF\u002A\u002A*%
X70400000Y-42250000D03*
%TD*%
D16*
%TO.C,J4*%
X55125000Y-49275000D03*
X55125000Y-50125000D03*
X55125000Y-50975000D03*
X55125000Y-51825000D03*
X55125000Y-52675000D03*
X55125000Y-53525000D03*
X55125000Y-54375000D03*
X55125000Y-55225000D03*
X53775000Y-55225000D03*
X53775000Y-54375000D03*
X53775000Y-53525000D03*
X53775000Y-52675000D03*
X53775000Y-51825000D03*
X53775000Y-50975000D03*
X53775000Y-50125000D03*
X53775000Y-49275000D03*
D17*
X54145000Y-47925000D03*
X54145000Y-56575000D03*
X50765000Y-47925000D03*
X50765000Y-56575000D03*
%TD*%
D18*
%TO.C,SW1*%
X94650000Y-25750000D03*
X88350000Y-25750000D03*
%TD*%
D16*
%TO.C,J3*%
X103725000Y-55225000D03*
X103725000Y-54375000D03*
X103725000Y-53525000D03*
X103725000Y-52675000D03*
X103725000Y-51825000D03*
X103725000Y-50975000D03*
X103725000Y-50125000D03*
X103725000Y-49275000D03*
X105075000Y-49275000D03*
X105075000Y-50125000D03*
X105075000Y-50975000D03*
X105075000Y-51825000D03*
X105075000Y-52675000D03*
X105075000Y-53525000D03*
X105075000Y-54375000D03*
X105075000Y-55225000D03*
D17*
X104705000Y-56575000D03*
X104705000Y-47925000D03*
X108085000Y-56575000D03*
X108085000Y-47925000D03*
%TD*%
D19*
%TO.C,J1*%
X102600000Y-33500000D03*
X107600000Y-33500000D03*
D20*
X99300000Y-32800000D03*
D21*
X102600000Y-29900000D03*
X99500000Y-35100000D03*
X107600000Y-29000000D03*
X101500000Y-36600000D03*
X99500000Y-38000000D03*
X107600000Y-38600000D03*
X105100000Y-28000000D03*
%TD*%
D22*
%TO.C,J2*%
X88945000Y-35625000D03*
X88945000Y-36895000D03*
X90215000Y-35625000D03*
X90215000Y-36895000D03*
X91485000Y-35625000D03*
X91485000Y-36895000D03*
X92755000Y-35625000D03*
X92755000Y-36895000D03*
X94025000Y-35625000D03*
D23*
X94025000Y-36895000D03*
%TD*%
D19*
%TO.C,J5*%
X56400000Y-33500000D03*
X51400000Y-33500000D03*
D20*
X59700000Y-34200000D03*
D21*
X56400000Y-37100000D03*
X59500000Y-31900000D03*
X51400000Y-38000000D03*
X57500000Y-30400000D03*
X59500000Y-29000000D03*
X51400000Y-28400000D03*
X53900000Y-39000000D03*
%TD*%
D24*
%TO.C,D53*%
X150467000Y-206517000D03*
D25*
X149517000Y-206192000D03*
X148617000Y-206192000D03*
D24*
X147667000Y-206517000D03*
%TD*%
%TO.C,D61*%
X112467000Y-220517000D03*
D25*
X111517000Y-220192000D03*
X110617000Y-220192000D03*
D24*
X109667000Y-220517000D03*
%TD*%
%TO.C,D71*%
X55467000Y-187517000D03*
D25*
X54517000Y-187192000D03*
X53617000Y-187192000D03*
D24*
X52667000Y-187517000D03*
%TD*%
%TO.C,D64*%
X93467000Y-198517000D03*
D25*
X92517000Y-198192000D03*
X91617000Y-198192000D03*
D24*
X90667000Y-198517000D03*
%TD*%
%TO.C,D55*%
X131467000Y-187517000D03*
D25*
X130517000Y-187192000D03*
X129617000Y-187192000D03*
D24*
X128667000Y-187517000D03*
%TD*%
%TO.C,D9*%
X169400000Y-97500000D03*
D25*
X168450000Y-97175000D03*
X167550000Y-97175000D03*
D24*
X166600000Y-97500000D03*
%TD*%
%TO.C,D59*%
X112467000Y-182517000D03*
D25*
X111517000Y-182192000D03*
X110617000Y-182192000D03*
D24*
X109667000Y-182517000D03*
%TD*%
%TO.C,D68*%
X74467000Y-204517000D03*
D25*
X73517000Y-204192000D03*
X72617000Y-204192000D03*
D24*
X71667000Y-204517000D03*
%TD*%
%TO.C,D72*%
X55467000Y-206517000D03*
D25*
X54517000Y-206192000D03*
X53617000Y-206192000D03*
D24*
X52667000Y-206517000D03*
%TD*%
%TO.C,D74*%
X51967000Y-244517000D03*
D25*
X51017000Y-244192000D03*
X50117000Y-244192000D03*
D24*
X49167000Y-244517000D03*
%TD*%
%TO.C,D23*%
X112400000Y-130549000D03*
D25*
X111450000Y-130224000D03*
X110550000Y-130224000D03*
D24*
X109600000Y-130549000D03*
%TD*%
%TO.C,D56*%
X131467000Y-206517000D03*
D25*
X130517000Y-206192000D03*
X129617000Y-206192000D03*
D24*
X128667000Y-206517000D03*
%TD*%
%TO.C,D12*%
X172900000Y-154549000D03*
D25*
X171950000Y-154224000D03*
X171050000Y-154224000D03*
D24*
X170100000Y-154549000D03*
%TD*%
%TO.C,D26*%
X93400000Y-116549000D03*
D25*
X92450000Y-116224000D03*
X91550000Y-116224000D03*
D24*
X90600000Y-116549000D03*
%TD*%
%TO.C,D20*%
X131400000Y-146549000D03*
D25*
X130450000Y-146224000D03*
X129550000Y-146224000D03*
D24*
X128600000Y-146549000D03*
%TD*%
%TO.C,D62*%
X112467000Y-239517000D03*
D25*
X111517000Y-239192000D03*
X110617000Y-239192000D03*
D24*
X109667000Y-239517000D03*
%TD*%
%TO.C,D28*%
X93400000Y-154549000D03*
D25*
X92450000Y-154224000D03*
X91550000Y-154224000D03*
D24*
X90600000Y-154549000D03*
%TD*%
%TO.C,D33*%
X51900000Y-116549000D03*
D25*
X50950000Y-116224000D03*
X50050000Y-116224000D03*
D24*
X49100000Y-116549000D03*
%TD*%
%TO.C,D65*%
X93467000Y-217517000D03*
D25*
X92517000Y-217192000D03*
X91617000Y-217192000D03*
D24*
X90667000Y-217517000D03*
%TD*%
%TO.C,D57*%
X131467000Y-225517000D03*
D25*
X130517000Y-225192000D03*
X129617000Y-225192000D03*
D24*
X128667000Y-225517000D03*
%TD*%
%TO.C,D69*%
X74467000Y-223517000D03*
D25*
X73517000Y-223192000D03*
X72617000Y-223192000D03*
D24*
X71667000Y-223517000D03*
%TD*%
%TO.C,D10*%
X169400000Y-116549000D03*
D25*
X168450000Y-116224000D03*
X167550000Y-116224000D03*
D24*
X166600000Y-116549000D03*
%TD*%
%TO.C,D31*%
X70900000Y-135549000D03*
D25*
X69950000Y-135224000D03*
X69050000Y-135224000D03*
D24*
X68100000Y-135549000D03*
%TD*%
%TO.C,D21*%
X112400000Y-92500000D03*
D25*
X111450000Y-92175000D03*
X110550000Y-92175000D03*
D24*
X109600000Y-92500000D03*
%TD*%
%TO.C,D25*%
X93400000Y-97500000D03*
D25*
X92450000Y-97175000D03*
X91550000Y-97175000D03*
D24*
X90600000Y-97500000D03*
%TD*%
%TO.C,D70*%
X74467000Y-242517000D03*
D25*
X73517000Y-242192000D03*
X72617000Y-242192000D03*
D24*
X71667000Y-242517000D03*
%TD*%
%TO.C,D18*%
X131400000Y-108549000D03*
D25*
X130450000Y-108224000D03*
X129550000Y-108224000D03*
D24*
X128600000Y-108549000D03*
%TD*%
%TO.C,D17*%
X131400000Y-89500000D03*
D25*
X130450000Y-89175000D03*
X129550000Y-89175000D03*
D24*
X128600000Y-89500000D03*
%TD*%
%TO.C,D60*%
X112467000Y-201517000D03*
D25*
X111517000Y-201192000D03*
X110617000Y-201192000D03*
D24*
X109667000Y-201517000D03*
%TD*%
%TO.C,D63*%
X93467000Y-179517000D03*
D25*
X92517000Y-179192000D03*
X91617000Y-179192000D03*
D24*
X90667000Y-179517000D03*
%TD*%
%TO.C,D13*%
X150400000Y-95500000D03*
D25*
X149450000Y-95175000D03*
X148550000Y-95175000D03*
D24*
X147600000Y-95500000D03*
%TD*%
%TO.C,D51*%
X172967000Y-206517000D03*
D25*
X172017000Y-206192000D03*
X171117000Y-206192000D03*
D24*
X170167000Y-206517000D03*
%TD*%
%TO.C,D22*%
X112400000Y-111549000D03*
D25*
X111450000Y-111224000D03*
X110550000Y-111224000D03*
D24*
X109600000Y-111549000D03*
%TD*%
%TO.C,D52*%
X150467000Y-187517000D03*
D25*
X149517000Y-187192000D03*
X148617000Y-187192000D03*
D24*
X147667000Y-187517000D03*
%TD*%
%TO.C,D32*%
X55400000Y-97500000D03*
D25*
X54450000Y-97175000D03*
X53550000Y-97175000D03*
D24*
X52600000Y-97500000D03*
%TD*%
%TO.C,D58*%
X131467000Y-244517000D03*
D25*
X130517000Y-244192000D03*
X129617000Y-244192000D03*
D24*
X128667000Y-244517000D03*
%TD*%
%TO.C,D24*%
X112400000Y-149549000D03*
D25*
X111450000Y-149224000D03*
X110550000Y-149224000D03*
D24*
X109600000Y-149549000D03*
%TD*%
%TO.C,D15*%
X150400000Y-133549000D03*
D25*
X149450000Y-133224000D03*
X148550000Y-133224000D03*
D24*
X147600000Y-133549000D03*
%TD*%
%TO.C,D67*%
X74467000Y-185517000D03*
D25*
X73517000Y-185192000D03*
X72617000Y-185192000D03*
D24*
X71667000Y-185517000D03*
%TD*%
%TO.C,D29*%
X74400000Y-97500000D03*
D25*
X73450000Y-97175000D03*
X72550000Y-97175000D03*
D24*
X71600000Y-97500000D03*
%TD*%
%TO.C,D16*%
X150400000Y-152549000D03*
D25*
X149450000Y-152224000D03*
X148550000Y-152224000D03*
D24*
X147600000Y-152549000D03*
%TD*%
%TO.C,D66*%
X93467000Y-236517000D03*
D25*
X92517000Y-236192000D03*
X91617000Y-236192000D03*
D24*
X90667000Y-236517000D03*
%TD*%
%TO.C,D11*%
X169400000Y-135549000D03*
D25*
X168450000Y-135224000D03*
X167550000Y-135224000D03*
D24*
X166600000Y-135549000D03*
%TD*%
%TO.C,D19*%
X131400000Y-127549000D03*
D25*
X130450000Y-127224000D03*
X129550000Y-127224000D03*
D24*
X128600000Y-127549000D03*
%TD*%
%TO.C,D14*%
X150400000Y-114549000D03*
D25*
X149450000Y-114224000D03*
X148550000Y-114224000D03*
D24*
X147600000Y-114549000D03*
%TD*%
%TO.C,D50*%
X169467000Y-187517000D03*
D25*
X168517000Y-187192000D03*
X167617000Y-187192000D03*
D24*
X166667000Y-187517000D03*
%TD*%
%TO.C,D54*%
X153967000Y-225517000D03*
D25*
X153017000Y-225192000D03*
X152117000Y-225192000D03*
D24*
X151167000Y-225517000D03*
%TD*%
%TO.C,D27*%
X93400000Y-135549000D03*
D25*
X92450000Y-135224000D03*
X91550000Y-135224000D03*
D24*
X90600000Y-135549000D03*
%TD*%
%TO.C,D30*%
X74400000Y-116549000D03*
D25*
X73450000Y-116224000D03*
X72550000Y-116224000D03*
D24*
X71600000Y-116549000D03*
%TD*%
%TO.C,D73*%
X55467000Y-225517000D03*
D25*
X54517000Y-225192000D03*
X53617000Y-225192000D03*
D24*
X52667000Y-225517000D03*
%TD*%
M02*
