%TF.GenerationSoftware,KiCad,Pcbnew,(6.0.6)*%
%TF.CreationDate,2022-09-05T11:07:09-07:00*%
%TF.ProjectId,Nour-Core,4e6f7572-2d43-46f7-9265-2e6b69636164,rev?*%
%TF.SameCoordinates,Original*%
%TF.FileFunction,Copper,L4,Bot*%
%TF.FilePolarity,Positive*%
%FSLAX46Y46*%
G04 Gerber Fmt 4.6, Leading zero omitted, Abs format (unit mm)*
G04 Created by KiCad (PCBNEW (6.0.6)) date 2022-09-05 11:07:09*
%MOMM*%
%LPD*%
G01*
G04 APERTURE LIST*
%TA.AperFunction,ComponentPad*%
%ADD10C,0.650000*%
%TD*%
%TA.AperFunction,ComponentPad*%
%ADD11O,2.216000X1.108000*%
%TD*%
%TA.AperFunction,ComponentPad*%
%ADD12C,1.524000*%
%TD*%
%TA.AperFunction,ComponentPad*%
%ADD13O,1.100000X2.200000*%
%TD*%
%TA.AperFunction,ComponentPad*%
%ADD14O,2.200000X1.100000*%
%TD*%
%TA.AperFunction,ComponentPad*%
%ADD15R,1.000000X1.000000*%
%TD*%
%TA.AperFunction,ComponentPad*%
%ADD16O,1.000000X1.000000*%
%TD*%
%TA.AperFunction,ViaPad*%
%ADD17C,0.800000*%
%TD*%
%TA.AperFunction,ViaPad*%
%ADD18C,0.220000*%
%TD*%
%TA.AperFunction,ViaPad*%
%ADD19C,0.350000*%
%TD*%
%TA.AperFunction,Conductor*%
%ADD20C,0.200000*%
%TD*%
%TA.AperFunction,Conductor*%
%ADD21C,0.500000*%
%TD*%
G04 APERTURE END LIST*
D10*
%TO.P,J4,A1,GND*%
%TO.N,GND*%
X86275000Y-150275000D03*
%TO.P,J4,A4,VBUS*%
%TO.N,VBUS*%
X86275000Y-151125000D03*
%TO.P,J4,A5,CC1*%
%TO.N,Net-(J4-PadA5)*%
X86275000Y-151975000D03*
%TO.P,J4,A6,D+*%
%TO.N,/core/D+*%
X86275000Y-152825000D03*
%TO.P,J4,A7,D-*%
%TO.N,/core/D-*%
X86275000Y-153675000D03*
%TO.P,J4,A8,SBU1*%
%TO.N,unconnected-(J4-PadA8)*%
X86275000Y-154525000D03*
%TO.P,J4,A9,VBUS*%
%TO.N,VBUS*%
X86275000Y-155375000D03*
%TO.P,J4,A12,GND*%
%TO.N,GND*%
X86275000Y-156225000D03*
%TO.P,J4,B1,GND*%
X84925000Y-156225000D03*
%TO.P,J4,B4,VBUS*%
%TO.N,VBUS*%
X84925000Y-155375000D03*
%TO.P,J4,B5,CC2*%
%TO.N,Net-(J4-PadB5)*%
X84925000Y-154525000D03*
%TO.P,J4,B6,D+*%
%TO.N,/core/D+*%
X84925000Y-153675000D03*
%TO.P,J4,B7,D-*%
%TO.N,/core/D-*%
X84925000Y-152825000D03*
%TO.P,J4,B8,SBU2*%
%TO.N,unconnected-(J4-PadB8)*%
X84925000Y-151975000D03*
%TO.P,J4,B9,VBUS*%
%TO.N,VBUS*%
X84925000Y-151125000D03*
%TO.P,J4,B12,GND*%
%TO.N,GND*%
X84925000Y-150275000D03*
D11*
%TO.P,J4,P1*%
%TO.N,N/C*%
X85295000Y-148925000D03*
%TO.P,J4,P2*%
X85295000Y-157575000D03*
%TO.P,J4,P3*%
X81915000Y-148925000D03*
%TO.P,J4,P4*%
X81915000Y-157575000D03*
%TD*%
D10*
%TO.P,J3,A1,GND*%
%TO.N,GND*%
X134875000Y-156225000D03*
%TO.P,J3,A4,VBUS*%
%TO.N,VBUS*%
X134875000Y-155375000D03*
%TO.P,J3,A5,CC1*%
%TO.N,Net-(J3-PadA5)*%
X134875000Y-154525000D03*
%TO.P,J3,A6,D+*%
%TO.N,/core/D+*%
X134875000Y-153675000D03*
%TO.P,J3,A7,D-*%
%TO.N,/core/D-*%
X134875000Y-152825000D03*
%TO.P,J3,A8,SBU1*%
%TO.N,unconnected-(J3-PadA8)*%
X134875000Y-151975000D03*
%TO.P,J3,A9,VBUS*%
%TO.N,VBUS*%
X134875000Y-151125000D03*
%TO.P,J3,A12,GND*%
%TO.N,GND*%
X134875000Y-150275000D03*
%TO.P,J3,B1,GND*%
X136225000Y-150275000D03*
%TO.P,J3,B4,VBUS*%
%TO.N,VBUS*%
X136225000Y-151125000D03*
%TO.P,J3,B5,CC2*%
%TO.N,Net-(J3-PadB5)*%
X136225000Y-151975000D03*
%TO.P,J3,B6,D+*%
%TO.N,/core/D+*%
X136225000Y-152825000D03*
%TO.P,J3,B7,D-*%
%TO.N,/core/D-*%
X136225000Y-153675000D03*
%TO.P,J3,B8,SBU2*%
%TO.N,unconnected-(J3-PadB8)*%
X136225000Y-154525000D03*
%TO.P,J3,B9,VBUS*%
%TO.N,VBUS*%
X136225000Y-155375000D03*
%TO.P,J3,B12,GND*%
%TO.N,GND*%
X136225000Y-156225000D03*
D11*
%TO.P,J3,P1*%
%TO.N,N/C*%
X135855000Y-157575000D03*
%TO.P,J3,P2*%
X135855000Y-148925000D03*
%TO.P,J3,P3*%
X139235000Y-157575000D03*
%TO.P,J3,P4*%
X139235000Y-148925000D03*
%TD*%
D12*
%TO.P,U4,1,KEY_COL2*%
%TO.N,/core/KEY.COL2*%
X81400000Y-162010000D03*
%TO.P,U4,2,KEY_COL4*%
%TO.N,/core/KEY.COL4*%
X83940000Y-162010000D03*
%TO.P,U4,3,KEY_ROW5*%
%TO.N,/core/KEY.ROW5*%
X86480000Y-162010000D03*
%TO.P,U4,4,KEY_ROW3*%
%TO.N,/core/KEY.ROW3*%
X89020000Y-162010000D03*
%TO.P,U4,5,KEY_ROW1*%
%TO.N,/core/KEY.ROW1*%
X91560000Y-162010000D03*
%TO.P,U4,6,LED_SW_RED1*%
%TO.N,/core/LED.SW_RED2*%
X94100000Y-162010000D03*
%TO.P,U4,7,LED_SW_GREEN2*%
%TO.N,/core/LED.SW_GREEN1*%
X96640000Y-162010000D03*
%TO.P,U4,8,LED_SW_BLUE2*%
%TO.N,/core/LED.SW_BLUE1*%
X99180000Y-162010000D03*
%TO.P,U4,9,LED_CS1*%
%TO.N,/core/LED.CS_COL1*%
X101720000Y-162010000D03*
%TO.P,U4,10,LED_CS3*%
%TO.N,/core/LED.CS_COL3*%
X104260000Y-162010000D03*
%TO.P,U4,11,LED_CS5*%
%TO.N,/core/LED.CS_COL5*%
X106800000Y-162010000D03*
%TO.P,U4,12,LED_CS7*%
%TO.N,/core/LED.CS_COL7*%
X109340000Y-162010000D03*
%TO.P,U4,13,LED_CS9*%
%TO.N,/core/LED.CS_COL9*%
X111880000Y-162010000D03*
%TO.P,U4,14,LED_CS11*%
%TO.N,/core/LED.CS_COL11*%
X114420000Y-162010000D03*
%TO.P,U4,15,LED_CS13*%
%TO.N,/core/LED.CS_COL13*%
X116960000Y-162010000D03*
%TO.P,U4,16,LED_CS15*%
%TO.N,/core/LED.CS_COL15*%
X119500000Y-162010000D03*
%TO.P,U4,17,LED_SW_BLUE3*%
%TO.N,/core/LED.SW_BLUE3*%
X122040000Y-162010000D03*
%TO.P,U4,18,LED_SW_GREEN3*%
%TO.N,/core/LED.SW_GREEN3*%
X124580000Y-162010000D03*
%TO.P,U4,19,LED_SW_RED4*%
%TO.N,/core/LED.SW_GREEN4*%
X127120000Y-162010000D03*
%TO.P,U4,20,KEY_ROW6*%
%TO.N,/core/KEY.ROW6*%
X129660000Y-162010000D03*
%TO.P,U4,21,KEY_ROW8*%
%TO.N,/core/KEY.ROW8*%
X132200000Y-162010000D03*
%TO.P,U4,22,KEY_ROW10*%
%TO.N,/core/KEY.ROW10*%
X134740000Y-162010000D03*
%TO.P,U4,23,KEY_COL7*%
%TO.N,/core/KEY.COL7*%
X137280000Y-162010000D03*
%TO.P,U4,24,KEY_COL9*%
%TO.N,/core/KEY.COL9*%
X139820000Y-162010000D03*
%TO.P,U4,25,KEY_COL10*%
%TO.N,/core/KEY.COL10*%
X139820000Y-164550000D03*
%TO.P,U4,26,KEY_COL8*%
%TO.N,/core/KEY.COL8*%
X137280000Y-164550000D03*
%TO.P,U4,27,KEY_COL6*%
%TO.N,/core/KEY.COL6*%
X134740000Y-164550000D03*
%TO.P,U4,28,KEY_ROW9*%
%TO.N,/core/KEY.ROW9*%
X132200000Y-164550000D03*
%TO.P,U4,29,KEY_ROW7*%
%TO.N,/core/KEY.ROW7*%
X129660000Y-164550000D03*
%TO.P,U4,30,LED_SW_BLUE4*%
%TO.N,/core/LED.SW_RED4*%
X127120000Y-164550000D03*
%TO.P,U4,31,LED_SW_GREEN4*%
%TO.N,/core/LED.SW_BLUE4*%
X124580000Y-164550000D03*
%TO.P,U4,32,LED_SW_RED3*%
%TO.N,/core/LED.SW_RED3*%
X122040000Y-164550000D03*
%TO.P,U4,33,LED_CS16*%
%TO.N,/core/LED.CS_COL16*%
X119500000Y-164550000D03*
%TO.P,U4,34,LED_CS14*%
%TO.N,/core/LED.CS_COL14*%
X116960000Y-164550000D03*
%TO.P,U4,35,LED_CS12*%
%TO.N,/core/LED.CS_COL12*%
X114420000Y-164550000D03*
%TO.P,U4,36,LED_CS10*%
%TO.N,/core/LED.CS_COL10*%
X111880000Y-164550000D03*
%TO.P,U4,37,LED_CS8*%
%TO.N,/core/LED.CS_COL8*%
X109340000Y-164550000D03*
%TO.P,U4,38,LED_CS6*%
%TO.N,/core/LED.CS_COL6*%
X106800000Y-164550000D03*
%TO.P,U4,39,LED_CS4*%
%TO.N,/core/LED.CS_COL4*%
X104260000Y-164550000D03*
%TO.P,U4,40,LED_CS2*%
%TO.N,/core/LED.CS_COL2*%
X101720000Y-164550000D03*
%TO.P,U4,41,LED_SW_RED2*%
%TO.N,/core/LED.SW_RED1*%
X99180000Y-164550000D03*
%TO.P,U4,42,LED_SW_GREEN1*%
%TO.N,/core/LED.SW_GREEN2*%
X96640000Y-164550000D03*
%TO.P,U4,43,LED_SW_BLUE1*%
%TO.N,/core/LED.SW_BLUE2*%
X94100000Y-164550000D03*
%TO.P,U4,44,KEY_ROW2*%
%TO.N,/core/KEY.ROW2*%
X91560000Y-164550000D03*
%TO.P,U4,45,KEY_ROW4*%
%TO.N,/core/KEY.ROW4*%
X89020000Y-164550000D03*
%TO.P,U4,46,KEY_COL5*%
%TO.N,/core/KEY.COL5*%
X86480000Y-164550000D03*
%TO.P,U4,47,KEY_COL3*%
%TO.N,/core/KEY.COL3*%
X83940000Y-164550000D03*
%TO.P,U4,48,KEY_COL1*%
%TO.N,/core/KEY.COL1*%
X81400000Y-164550000D03*
%TD*%
D13*
%TO.P,J1,1*%
%TO.N,GND*%
X130450000Y-133800000D03*
D14*
%TO.P,J1,2*%
%TO.N,Net-(J1-Pad2)*%
X133750000Y-130900000D03*
%TO.P,J1,3*%
%TO.N,/core/USART.RX*%
X130650000Y-136100000D03*
%TO.P,J1,4*%
%TO.N,/core/USART.TX*%
X138750000Y-130000000D03*
%TO.P,J1,5*%
%TO.N,Net-(J1-Pad2)*%
X132650000Y-137600000D03*
%TO.P,J1,6*%
%TO.N,VCC*%
X130650000Y-139000000D03*
%TO.P,J1,SH1*%
%TO.N,GND*%
X138750000Y-139600000D03*
%TO.P,J1,SH2*%
X136250000Y-129000000D03*
%TD*%
D15*
%TO.P,J2,1,VTref*%
%TO.N,VCC*%
X125175000Y-137895000D03*
D16*
%TO.P,J2,2,SWDIO/TMS*%
%TO.N,/core/SWDIO*%
X125175000Y-136625000D03*
%TO.P,J2,3,GND*%
%TO.N,GND*%
X123905000Y-137895000D03*
%TO.P,J2,4,SWDCLK/TCK*%
%TO.N,/core/SWCLK*%
X123905000Y-136625000D03*
%TO.P,J2,5,GND*%
%TO.N,GND*%
X122635000Y-137895000D03*
%TO.P,J2,6,SWO/TDO*%
%TO.N,unconnected-(J2-Pad6)*%
X122635000Y-136625000D03*
%TO.P,J2,7,KEY*%
%TO.N,unconnected-(J2-Pad7)*%
X121365000Y-137895000D03*
%TO.P,J2,8,NC/TDI*%
%TO.N,unconnected-(J2-Pad8)*%
X121365000Y-136625000D03*
%TO.P,J2,9,GNDDetect*%
%TO.N,GND*%
X120095000Y-137895000D03*
%TO.P,J2,10,~{RESET}*%
%TO.N,/core/~{RST}*%
X120095000Y-136625000D03*
%TD*%
D13*
%TO.P,J5,1*%
%TO.N,GND*%
X90850000Y-135200000D03*
D14*
%TO.P,J5,2*%
%TO.N,Net-(J5-Pad2)*%
X87550000Y-138100000D03*
%TO.P,J5,3*%
%TO.N,/core/USART.TX*%
X90650000Y-132900000D03*
%TO.P,J5,4*%
%TO.N,/core/USART.RX*%
X82550000Y-139000000D03*
%TO.P,J5,5*%
%TO.N,Net-(J5-Pad2)*%
X88650000Y-131400000D03*
%TO.P,J5,6*%
%TO.N,VCC*%
X90650000Y-130000000D03*
%TO.P,J5,SH1*%
%TO.N,GND*%
X82550000Y-129400000D03*
%TO.P,J5,SH2*%
X85050000Y-140000000D03*
%TD*%
D17*
%TO.N,GND*%
X118200000Y-155200000D03*
X131474878Y-144950000D03*
X114150000Y-145250000D03*
X107700000Y-134050000D03*
X102500000Y-131850000D03*
X116400000Y-146750000D03*
X112600000Y-142000000D03*
X113450000Y-131200000D03*
X118200000Y-150850000D03*
X98800000Y-129650000D03*
X111550000Y-158700000D03*
X97950000Y-134250000D03*
X137474878Y-145000000D03*
X107700000Y-136050000D03*
X126012500Y-155575000D03*
X110600000Y-142000000D03*
X113150000Y-150250000D03*
X109650000Y-146750000D03*
X97950000Y-137000000D03*
X118200000Y-153150000D03*
X108600000Y-142000000D03*
X125650000Y-130500000D03*
X113550000Y-158700000D03*
X97950000Y-139000000D03*
X105200000Y-151900000D03*
X126012500Y-150425000D03*
X114600000Y-142000000D03*
D18*
X113150000Y-136550000D03*
D17*
X111450000Y-131237500D03*
%TO.N,VBUS*%
X137474878Y-143100000D03*
D18*
%TO.N,/core/~{RST}*%
X112750000Y-136550000D03*
D19*
X116350000Y-133700000D03*
D18*
%TO.N,/core/USART.RX*%
X113550000Y-136950000D03*
D19*
X115650000Y-132200000D03*
%TO.N,/core/USART.TX*%
X112250000Y-139000000D03*
X116350000Y-131300000D03*
D18*
%TO.N,/core/SWDIO*%
X113950000Y-136950000D03*
D19*
X116350000Y-132700000D03*
D18*
%TO.N,/core/SWCLK*%
X113950000Y-137350000D03*
D19*
X115650000Y-133200000D03*
%TO.N,/core/VREF+*%
X112350000Y-134800000D03*
D18*
X112350000Y-136150000D03*
D17*
%TO.N,/core/BOOT0*%
X119250000Y-132462500D03*
D19*
X111600000Y-139450000D03*
%TD*%
D20*
%TO.N,GND*%
X113150000Y-136550000D02*
X113150000Y-141450000D01*
X113150000Y-141450000D02*
X112600000Y-142000000D01*
D21*
%TO.N,VBUS*%
X136775000Y-151125000D02*
X137400000Y-151750000D01*
X137400000Y-152500000D02*
X137400000Y-147250000D01*
X138900000Y-145750000D02*
X138900000Y-144000000D01*
X84430000Y-159530000D02*
X136120000Y-159530000D01*
X137474878Y-143100000D02*
X138000000Y-143100000D01*
X83650000Y-158750000D02*
X84430000Y-159530000D01*
X137400000Y-151750000D02*
X137400000Y-152500000D01*
X83650000Y-151750000D02*
X84275000Y-151125000D01*
X83650000Y-154500000D02*
X83650000Y-152000000D01*
X137400000Y-147250000D02*
X138900000Y-145750000D01*
X136120000Y-159530000D02*
X137400000Y-158250000D01*
X83650000Y-152000000D02*
X83650000Y-151750000D01*
X84925000Y-155375000D02*
X84275000Y-155375000D01*
X84275000Y-155375000D02*
X83650000Y-154750000D01*
X137400000Y-154750000D02*
X136775000Y-155375000D01*
X83650000Y-154750000D02*
X83650000Y-154500000D01*
X138000000Y-143100000D02*
X138900000Y-144000000D01*
X136225000Y-151125000D02*
X136775000Y-151125000D01*
X84275000Y-151125000D02*
X84925000Y-151125000D01*
X137400000Y-158250000D02*
X137400000Y-154750000D01*
X83650000Y-154500000D02*
X83650000Y-158750000D01*
X137400000Y-152500000D02*
X137400000Y-154750000D01*
X136775000Y-155375000D02*
X136225000Y-155375000D01*
D20*
%TO.N,/core/~{RST}*%
X116038468Y-131745000D02*
X116805000Y-132511532D01*
X116805000Y-133245000D02*
X116350000Y-133700000D01*
X116805000Y-132511532D02*
X116805000Y-133245000D01*
X115028652Y-131745000D02*
X116038468Y-131745000D01*
X112861826Y-134931642D02*
X112861826Y-133911826D01*
X112750000Y-136550000D02*
X112750000Y-135043468D01*
X112861826Y-133911826D02*
X115028652Y-131745000D01*
X112750000Y-135043468D02*
X112861826Y-134931642D01*
%TO.N,/core/USART.RX*%
X113550000Y-136950000D02*
X113550000Y-133761054D01*
X115111054Y-132200000D02*
X115650000Y-132200000D01*
X113550000Y-133761054D02*
X115111054Y-132200000D01*
%TO.N,/core/USART.TX*%
X111895000Y-134341250D02*
X111895000Y-138645000D01*
X116350000Y-131300000D02*
X114936251Y-131300000D01*
X114936251Y-131300000D02*
X111895000Y-134341250D01*
X111895000Y-138645000D02*
X112250000Y-139000000D01*
%TO.N,/core/SWDIO*%
X116305000Y-132745000D02*
X116350000Y-132700000D01*
X113950000Y-136950000D02*
X113950000Y-134006532D01*
X115211532Y-132745000D02*
X116305000Y-132745000D01*
X113950000Y-134006532D02*
X115211532Y-132745000D01*
%TO.N,/core/SWCLK*%
X115650000Y-133200000D02*
X115250000Y-133600000D01*
X115250000Y-133600000D02*
X115250000Y-136700000D01*
X114600000Y-137350000D02*
X113950000Y-137350000D01*
X115250000Y-136700000D02*
X114600000Y-137350000D01*
%TO.N,/core/D+*%
X84925000Y-153675000D02*
X84975000Y-153675000D01*
X84975000Y-153675000D02*
X85825000Y-152825000D01*
X85825000Y-152825000D02*
X86275000Y-152825000D01*
%TO.N,/core/D-*%
X135225000Y-152825000D02*
X134875000Y-152825000D01*
X136075000Y-153675000D02*
X135225000Y-152825000D01*
X136225000Y-153675000D02*
X136075000Y-153675000D01*
%TO.N,/core/VREF+*%
X112350000Y-134800000D02*
X112350000Y-136150000D01*
%TO.N,/core/BOOT0*%
X114853848Y-130845000D02*
X111515000Y-134183849D01*
X111515000Y-139365000D02*
X111600000Y-139450000D01*
X111515000Y-134183849D02*
X111515000Y-139365000D01*
X117632500Y-130845000D02*
X114853848Y-130845000D01*
X119250000Y-132462500D02*
X117632500Y-130845000D01*
%TD*%
%TA.AperFunction,Conductor*%
%TO.N,GND*%
G36*
X140583621Y-125528502D02*
G01*
X140630114Y-125582158D01*
X140641500Y-125634500D01*
X140641500Y-147983071D01*
X140621498Y-148051192D01*
X140567842Y-148097685D01*
X140497568Y-148107789D01*
X140434511Y-148079593D01*
X140392182Y-148044075D01*
X140209589Y-147943693D01*
X140010975Y-147880690D01*
X140004858Y-147880004D01*
X140004854Y-147880003D01*
X139928623Y-147871452D01*
X139848812Y-147862500D01*
X138628568Y-147862500D01*
X138473627Y-147877692D01*
X138467724Y-147879474D01*
X138467725Y-147879474D01*
X138320918Y-147923798D01*
X138249924Y-147924339D01*
X138189907Y-147886412D01*
X138159923Y-147822057D01*
X138158500Y-147803176D01*
X138158500Y-147616371D01*
X138178502Y-147548250D01*
X138195405Y-147527276D01*
X139388911Y-146333770D01*
X139403323Y-146321384D01*
X139414918Y-146312851D01*
X139414923Y-146312846D01*
X139420818Y-146308508D01*
X139425557Y-146302930D01*
X139425560Y-146302927D01*
X139455035Y-146268232D01*
X139461965Y-146260716D01*
X139467660Y-146255021D01*
X139485281Y-146232749D01*
X139488072Y-146229345D01*
X139530591Y-146179297D01*
X139530592Y-146179295D01*
X139535333Y-146173715D01*
X139538661Y-146167199D01*
X139542028Y-146162150D01*
X139545195Y-146157021D01*
X139549734Y-146151284D01*
X139580655Y-146085125D01*
X139582561Y-146081225D01*
X139615769Y-146016192D01*
X139617508Y-146009084D01*
X139619607Y-146003441D01*
X139621524Y-145997678D01*
X139624622Y-145991050D01*
X139639487Y-145919583D01*
X139640457Y-145915299D01*
X139656473Y-145849845D01*
X139657808Y-145844390D01*
X139658500Y-145833236D01*
X139658536Y-145833238D01*
X139658775Y-145829245D01*
X139659149Y-145825053D01*
X139660640Y-145817885D01*
X139658546Y-145740479D01*
X139658500Y-145737072D01*
X139658500Y-144067069D01*
X139659933Y-144048118D01*
X139662099Y-144033883D01*
X139662099Y-144033881D01*
X139663199Y-144026651D01*
X139661873Y-144010342D01*
X139658915Y-143973982D01*
X139658500Y-143963767D01*
X139658500Y-143955707D01*
X139655211Y-143927493D01*
X139654778Y-143923118D01*
X139649454Y-143857661D01*
X139649453Y-143857658D01*
X139648860Y-143850363D01*
X139646604Y-143843399D01*
X139645413Y-143837440D01*
X139644029Y-143831585D01*
X139643182Y-143824319D01*
X139618265Y-143755673D01*
X139616848Y-143751545D01*
X139596607Y-143689064D01*
X139596606Y-143689062D01*
X139594351Y-143682101D01*
X139590555Y-143675846D01*
X139588049Y-143670372D01*
X139585330Y-143664942D01*
X139582833Y-143658063D01*
X139542809Y-143597016D01*
X139540472Y-143593312D01*
X139505509Y-143535693D01*
X139505505Y-143535688D01*
X139502595Y-143530892D01*
X139495197Y-143522516D01*
X139495223Y-143522493D01*
X139492574Y-143519503D01*
X139489866Y-143516264D01*
X139485856Y-143510148D01*
X139480549Y-143505121D01*
X139480546Y-143505117D01*
X139429617Y-143456872D01*
X139427175Y-143454494D01*
X138583770Y-142611089D01*
X138571384Y-142596677D01*
X138562851Y-142585082D01*
X138562846Y-142585077D01*
X138558508Y-142579182D01*
X138552930Y-142574443D01*
X138552927Y-142574440D01*
X138518232Y-142544965D01*
X138510716Y-142538035D01*
X138505021Y-142532340D01*
X138498880Y-142527482D01*
X138482749Y-142514719D01*
X138479345Y-142511928D01*
X138429297Y-142469409D01*
X138429295Y-142469408D01*
X138423715Y-142464667D01*
X138417199Y-142461339D01*
X138412150Y-142457972D01*
X138407021Y-142454805D01*
X138401284Y-142450266D01*
X138335125Y-142419345D01*
X138331225Y-142417439D01*
X138330857Y-142417251D01*
X138266192Y-142384231D01*
X138259084Y-142382492D01*
X138253441Y-142380393D01*
X138247678Y-142378476D01*
X138241050Y-142375378D01*
X138169583Y-142360513D01*
X138165299Y-142359543D01*
X138094390Y-142342192D01*
X138088788Y-142341844D01*
X138088785Y-142341844D01*
X138083236Y-142341500D01*
X138083238Y-142341464D01*
X138079245Y-142341225D01*
X138075053Y-142340851D01*
X138067885Y-142339360D01*
X138054767Y-142339715D01*
X138019780Y-142340661D01*
X137951144Y-142322508D01*
X137942317Y-142316646D01*
X137936973Y-142312764D01*
X137936974Y-142312764D01*
X137931630Y-142308882D01*
X137925602Y-142306198D01*
X137925600Y-142306197D01*
X137763197Y-142233891D01*
X137763196Y-142233891D01*
X137757166Y-142231206D01*
X137663766Y-142211353D01*
X137576822Y-142192872D01*
X137576817Y-142192872D01*
X137570365Y-142191500D01*
X137379391Y-142191500D01*
X137372939Y-142192872D01*
X137372934Y-142192872D01*
X137285990Y-142211353D01*
X137192590Y-142231206D01*
X137186560Y-142233891D01*
X137186559Y-142233891D01*
X137024156Y-142306197D01*
X137024154Y-142306198D01*
X137018126Y-142308882D01*
X136863625Y-142421134D01*
X136859204Y-142426044D01*
X136859203Y-142426045D01*
X136755107Y-142541656D01*
X136735838Y-142563056D01*
X136640351Y-142728444D01*
X136581336Y-142910072D01*
X136561374Y-143100000D01*
X136562064Y-143106565D01*
X136577658Y-143254930D01*
X136581336Y-143289928D01*
X136640351Y-143471556D01*
X136643654Y-143477278D01*
X136643655Y-143477279D01*
X136659727Y-143505117D01*
X136735838Y-143636944D01*
X136740256Y-143641851D01*
X136740257Y-143641852D01*
X136836365Y-143748591D01*
X136863625Y-143778866D01*
X137018126Y-143891118D01*
X137024154Y-143893802D01*
X137024156Y-143893803D01*
X137155011Y-143952063D01*
X137192590Y-143968794D01*
X137252800Y-143981592D01*
X137372934Y-144007128D01*
X137372939Y-144007128D01*
X137379391Y-144008500D01*
X137570365Y-144008500D01*
X137576817Y-144007128D01*
X137576822Y-144007128D01*
X137659221Y-143989613D01*
X137722370Y-143976190D01*
X137793160Y-143981592D01*
X137837661Y-144010342D01*
X138104595Y-144277276D01*
X138138621Y-144339588D01*
X138141500Y-144366371D01*
X138141500Y-145383629D01*
X138121498Y-145451750D01*
X138104595Y-145472724D01*
X136911089Y-146666230D01*
X136896677Y-146678616D01*
X136885082Y-146687149D01*
X136885077Y-146687154D01*
X136879182Y-146691492D01*
X136874443Y-146697070D01*
X136874440Y-146697073D01*
X136844965Y-146731768D01*
X136838035Y-146739284D01*
X136832340Y-146744979D01*
X136830060Y-146747861D01*
X136814719Y-146767251D01*
X136811928Y-146770655D01*
X136769409Y-146820703D01*
X136764667Y-146826285D01*
X136761339Y-146832801D01*
X136757972Y-146837850D01*
X136754805Y-146842979D01*
X136750266Y-146848716D01*
X136719345Y-146914875D01*
X136717442Y-146918769D01*
X136684231Y-146983808D01*
X136682492Y-146990916D01*
X136680393Y-146996559D01*
X136678476Y-147002322D01*
X136675378Y-147008950D01*
X136673888Y-147016112D01*
X136673888Y-147016113D01*
X136660514Y-147080412D01*
X136659544Y-147084696D01*
X136642192Y-147155610D01*
X136641500Y-147166764D01*
X136641464Y-147166762D01*
X136641225Y-147170755D01*
X136640851Y-147174947D01*
X136639360Y-147182115D01*
X136639558Y-147189432D01*
X136641454Y-147259521D01*
X136641500Y-147262928D01*
X136641500Y-147740947D01*
X136621498Y-147809068D01*
X136567842Y-147855561D01*
X136501455Y-147866162D01*
X136468812Y-147862500D01*
X135248568Y-147862500D01*
X135093627Y-147877692D01*
X134894154Y-147937917D01*
X134710176Y-148035739D01*
X134705402Y-148039633D01*
X134705400Y-148039634D01*
X134691229Y-148051192D01*
X134548704Y-148167433D01*
X134415885Y-148327983D01*
X134316781Y-148511272D01*
X134255165Y-148710321D01*
X134233385Y-148917547D01*
X134252270Y-149125056D01*
X134254011Y-149130970D01*
X134254011Y-149130972D01*
X134262793Y-149160810D01*
X134311101Y-149324945D01*
X134407636Y-149509601D01*
X134538200Y-149671989D01*
X134697818Y-149805925D01*
X134831622Y-149879485D01*
X134860011Y-149900801D01*
X135035615Y-150076405D01*
X135069641Y-150138717D01*
X135064576Y-150209532D01*
X135022029Y-150266368D01*
X134955509Y-150291179D01*
X134946520Y-150291500D01*
X134787396Y-150291500D01*
X134780943Y-150292872D01*
X134780939Y-150292872D01*
X134711196Y-150307697D01*
X134643924Y-150321996D01*
X134573135Y-150316594D01*
X134528634Y-150287844D01*
X134146534Y-149905744D01*
X134134154Y-149898984D01*
X134127239Y-149904160D01*
X134113124Y-149928609D01*
X134107786Y-149940598D01*
X134057755Y-150094578D01*
X134055025Y-150107419D01*
X134038102Y-150268435D01*
X134038102Y-150281565D01*
X134055025Y-150442581D01*
X134057755Y-150455422D01*
X134107783Y-150609393D01*
X134113128Y-150621399D01*
X134121846Y-150636498D01*
X134138585Y-150705493D01*
X134121848Y-150762498D01*
X134109366Y-150784118D01*
X134055223Y-150950751D01*
X134036909Y-151125000D01*
X134037599Y-151131565D01*
X134052218Y-151270655D01*
X134055223Y-151299249D01*
X134109366Y-151465882D01*
X134112664Y-151471595D01*
X134112667Y-151471601D01*
X134121558Y-151487000D01*
X134138296Y-151555996D01*
X134121558Y-151613000D01*
X134112667Y-151628399D01*
X134112664Y-151628405D01*
X134109366Y-151634118D01*
X134107328Y-151640391D01*
X134107326Y-151640395D01*
X134091393Y-151689432D01*
X134055223Y-151800751D01*
X134054533Y-151807317D01*
X134054532Y-151807321D01*
X134037680Y-151967663D01*
X134036909Y-151975000D01*
X134055223Y-152149249D01*
X134109366Y-152315882D01*
X134112664Y-152321595D01*
X134112667Y-152321601D01*
X134121558Y-152337000D01*
X134138296Y-152405996D01*
X134121558Y-152463000D01*
X134112667Y-152478399D01*
X134112664Y-152478405D01*
X134109366Y-152484118D01*
X134055223Y-152650751D01*
X134036909Y-152825000D01*
X134055223Y-152999249D01*
X134109366Y-153165882D01*
X134112664Y-153171595D01*
X134112667Y-153171601D01*
X134121558Y-153187000D01*
X134138296Y-153255996D01*
X134121558Y-153313000D01*
X134112667Y-153328399D01*
X134112664Y-153328405D01*
X134109366Y-153334118D01*
X134055223Y-153500751D01*
X134036909Y-153675000D01*
X134055223Y-153849249D01*
X134109366Y-154015882D01*
X134112664Y-154021595D01*
X134112667Y-154021601D01*
X134121558Y-154037000D01*
X134138296Y-154105996D01*
X134121558Y-154163000D01*
X134112667Y-154178399D01*
X134112664Y-154178405D01*
X134109366Y-154184118D01*
X134055223Y-154350751D01*
X134036909Y-154525000D01*
X134037599Y-154531565D01*
X134053508Y-154682930D01*
X134055223Y-154699249D01*
X134068620Y-154740479D01*
X134100288Y-154837942D01*
X134109366Y-154865882D01*
X134112664Y-154871595D01*
X134112667Y-154871601D01*
X134121558Y-154887000D01*
X134138296Y-154955996D01*
X134121558Y-155013000D01*
X134112667Y-155028399D01*
X134112664Y-155028405D01*
X134109366Y-155034118D01*
X134055223Y-155200751D01*
X134036909Y-155375000D01*
X134055223Y-155549249D01*
X134109366Y-155715882D01*
X134121848Y-155737501D01*
X134138585Y-155806496D01*
X134121846Y-155863502D01*
X134113128Y-155878601D01*
X134107783Y-155890607D01*
X134057755Y-156044578D01*
X134055025Y-156057419D01*
X134038102Y-156218435D01*
X134038102Y-156231565D01*
X134055025Y-156392581D01*
X134057755Y-156405422D01*
X134107786Y-156559402D01*
X134113124Y-156571391D01*
X134124665Y-156591381D01*
X134134869Y-156601111D01*
X134142890Y-156597900D01*
X134528634Y-156212156D01*
X134590946Y-156178130D01*
X134643924Y-156178004D01*
X134711196Y-156192303D01*
X134780939Y-156207128D01*
X134780943Y-156207128D01*
X134787396Y-156208500D01*
X134946520Y-156208500D01*
X135014641Y-156228502D01*
X135061134Y-156282158D01*
X135071238Y-156352432D01*
X135041744Y-156417012D01*
X135035615Y-156423595D01*
X134858654Y-156600556D01*
X134828713Y-156622712D01*
X134710176Y-156685739D01*
X134705402Y-156689633D01*
X134705400Y-156689634D01*
X134691229Y-156701192D01*
X134548704Y-156817433D01*
X134415885Y-156977983D01*
X134316781Y-157161272D01*
X134255165Y-157360321D01*
X134233385Y-157567547D01*
X134252270Y-157775056D01*
X134311101Y-157974945D01*
X134407636Y-158159601D01*
X134538200Y-158321989D01*
X134697818Y-158455925D01*
X134703221Y-158458895D01*
X134703222Y-158458896D01*
X134841810Y-158535086D01*
X134891869Y-158585431D01*
X134906762Y-158654848D01*
X134881761Y-158721297D01*
X134824804Y-158763681D01*
X134781109Y-158771500D01*
X86367349Y-158771500D01*
X86299228Y-158751498D01*
X86252735Y-158697842D01*
X86242631Y-158627568D01*
X86272125Y-158562988D01*
X86308196Y-158534248D01*
X86310909Y-158532806D01*
X86439824Y-158464261D01*
X86454901Y-158451965D01*
X86515777Y-158402315D01*
X86601296Y-158332567D01*
X86734115Y-158172017D01*
X86833219Y-157988728D01*
X86894835Y-157789679D01*
X86916615Y-157582453D01*
X86897730Y-157374944D01*
X86838899Y-157175055D01*
X86742364Y-156990399D01*
X86611800Y-156828011D01*
X86452182Y-156694075D01*
X86318378Y-156620515D01*
X86289989Y-156599199D01*
X86114385Y-156423595D01*
X86080359Y-156361283D01*
X86085424Y-156290468D01*
X86127971Y-156233632D01*
X86194491Y-156208821D01*
X86203480Y-156208500D01*
X86362604Y-156208500D01*
X86369057Y-156207128D01*
X86369061Y-156207128D01*
X86438804Y-156192303D01*
X86506076Y-156178004D01*
X86576865Y-156183406D01*
X86621366Y-156212156D01*
X87003466Y-156594256D01*
X87015846Y-156601016D01*
X87022761Y-156595840D01*
X87036876Y-156571391D01*
X87042214Y-156559402D01*
X87092245Y-156405422D01*
X87094975Y-156392581D01*
X87111898Y-156231565D01*
X87111898Y-156218435D01*
X87094975Y-156057419D01*
X87092245Y-156044578D01*
X87042217Y-155890607D01*
X87036872Y-155878601D01*
X87028154Y-155863502D01*
X87011415Y-155794507D01*
X87028152Y-155737501D01*
X87040634Y-155715882D01*
X87094777Y-155549249D01*
X87113091Y-155375000D01*
X87094777Y-155200751D01*
X87040634Y-155034118D01*
X87037336Y-155028405D01*
X87037333Y-155028399D01*
X87028442Y-155013000D01*
X87011704Y-154944004D01*
X87028442Y-154887000D01*
X87037333Y-154871601D01*
X87037336Y-154871595D01*
X87040634Y-154865882D01*
X87049713Y-154837942D01*
X87081380Y-154740479D01*
X87094777Y-154699249D01*
X87096493Y-154682930D01*
X87112401Y-154531565D01*
X87113091Y-154525000D01*
X87094777Y-154350751D01*
X87040634Y-154184118D01*
X87037336Y-154178405D01*
X87037333Y-154178399D01*
X87028442Y-154163000D01*
X87011704Y-154094004D01*
X87028442Y-154037000D01*
X87037333Y-154021601D01*
X87037336Y-154021595D01*
X87040634Y-154015882D01*
X87094777Y-153849249D01*
X87113091Y-153675000D01*
X87094777Y-153500751D01*
X87040634Y-153334118D01*
X87037336Y-153328405D01*
X87037333Y-153328399D01*
X87028442Y-153313000D01*
X87011704Y-153244004D01*
X87028442Y-153187000D01*
X87037333Y-153171601D01*
X87037336Y-153171595D01*
X87040634Y-153165882D01*
X87094777Y-152999249D01*
X87113091Y-152825000D01*
X87094777Y-152650751D01*
X87040634Y-152484118D01*
X87037336Y-152478405D01*
X87037333Y-152478399D01*
X87028442Y-152463000D01*
X87011704Y-152394004D01*
X87028442Y-152337000D01*
X87037333Y-152321601D01*
X87037336Y-152321595D01*
X87040634Y-152315882D01*
X87094777Y-152149249D01*
X87113091Y-151975000D01*
X87112320Y-151967663D01*
X87095468Y-151807321D01*
X87095467Y-151807317D01*
X87094777Y-151800751D01*
X87058607Y-151689432D01*
X87042674Y-151640395D01*
X87042672Y-151640391D01*
X87040634Y-151634118D01*
X87037336Y-151628405D01*
X87037333Y-151628399D01*
X87028442Y-151613000D01*
X87011704Y-151544004D01*
X87028442Y-151487000D01*
X87037333Y-151471601D01*
X87037336Y-151471595D01*
X87040634Y-151465882D01*
X87094777Y-151299249D01*
X87097783Y-151270655D01*
X87112401Y-151131565D01*
X87113091Y-151125000D01*
X87094777Y-150950751D01*
X87040634Y-150784118D01*
X87028152Y-150762498D01*
X87011415Y-150693504D01*
X87028154Y-150636498D01*
X87036872Y-150621399D01*
X87042217Y-150609393D01*
X87092245Y-150455422D01*
X87094975Y-150442581D01*
X87111898Y-150281565D01*
X87111898Y-150268435D01*
X87094975Y-150107419D01*
X87092245Y-150094578D01*
X87042214Y-149940598D01*
X87036876Y-149928609D01*
X87025335Y-149908619D01*
X87015131Y-149898889D01*
X87007110Y-149902100D01*
X86621366Y-150287844D01*
X86559054Y-150321870D01*
X86506076Y-150321996D01*
X86438804Y-150307697D01*
X86369061Y-150292872D01*
X86369057Y-150292872D01*
X86362604Y-150291500D01*
X86203480Y-150291500D01*
X86135359Y-150271498D01*
X86088866Y-150217842D01*
X86078762Y-150147568D01*
X86108256Y-150082988D01*
X86114385Y-150076405D01*
X86291346Y-149899444D01*
X86321288Y-149877287D01*
X86372080Y-149850281D01*
X86439824Y-149814261D01*
X86446409Y-149808891D01*
X86515777Y-149752315D01*
X86601296Y-149682567D01*
X86734115Y-149522017D01*
X86833219Y-149338728D01*
X86894835Y-149139679D01*
X86916615Y-148932453D01*
X86897730Y-148724944D01*
X86890483Y-148700319D01*
X86840641Y-148530974D01*
X86838899Y-148525055D01*
X86742364Y-148340399D01*
X86611800Y-148178011D01*
X86452182Y-148044075D01*
X86269589Y-147943693D01*
X86070975Y-147880690D01*
X86064858Y-147880004D01*
X86064854Y-147880003D01*
X85988623Y-147871452D01*
X85908812Y-147862500D01*
X84688568Y-147862500D01*
X84533627Y-147877692D01*
X84334154Y-147937917D01*
X84150176Y-148035739D01*
X84145402Y-148039633D01*
X84145400Y-148039634D01*
X84131229Y-148051192D01*
X83988704Y-148167433D01*
X83855885Y-148327983D01*
X83756781Y-148511272D01*
X83750682Y-148530974D01*
X83725411Y-148612612D01*
X83686160Y-148671772D01*
X83621155Y-148700319D01*
X83551036Y-148689190D01*
X83498065Y-148641919D01*
X83484173Y-148610928D01*
X83460641Y-148530974D01*
X83458899Y-148525055D01*
X83362364Y-148340399D01*
X83231800Y-148178011D01*
X83072182Y-148044075D01*
X82889589Y-147943693D01*
X82690975Y-147880690D01*
X82684858Y-147880004D01*
X82684854Y-147880003D01*
X82608623Y-147871452D01*
X82528812Y-147862500D01*
X81308568Y-147862500D01*
X81153627Y-147877692D01*
X80954154Y-147937917D01*
X80770176Y-148035739D01*
X80755100Y-148048035D01*
X80714136Y-148081444D01*
X80648704Y-148108998D01*
X80578763Y-148096802D01*
X80526517Y-148048730D01*
X80508500Y-147983801D01*
X80508500Y-143250000D01*
X99936526Y-143250000D01*
X99956391Y-143502403D01*
X99957545Y-143507210D01*
X99957546Y-143507216D01*
X99964383Y-143535693D01*
X100015495Y-143748591D01*
X100017388Y-143753162D01*
X100017389Y-143753164D01*
X100106742Y-143968880D01*
X100112384Y-143982502D01*
X100244672Y-144198376D01*
X100409102Y-144390898D01*
X100601624Y-144555328D01*
X100817498Y-144687616D01*
X100822068Y-144689509D01*
X100822072Y-144689511D01*
X101046836Y-144782611D01*
X101051409Y-144784505D01*
X101136032Y-144804821D01*
X101292784Y-144842454D01*
X101292790Y-144842455D01*
X101297597Y-144843609D01*
X101397416Y-144851465D01*
X101484345Y-144858307D01*
X101484352Y-144858307D01*
X101486801Y-144858500D01*
X101613199Y-144858500D01*
X101615648Y-144858307D01*
X101615655Y-144858307D01*
X101702584Y-144851465D01*
X101802403Y-144843609D01*
X101807210Y-144842455D01*
X101807216Y-144842454D01*
X101963968Y-144804821D01*
X102048591Y-144784505D01*
X102053164Y-144782611D01*
X102277928Y-144689511D01*
X102277932Y-144689509D01*
X102282502Y-144687616D01*
X102498376Y-144555328D01*
X102690898Y-144390898D01*
X102855328Y-144198376D01*
X102987616Y-143982502D01*
X102993259Y-143968880D01*
X103082611Y-143753164D01*
X103082612Y-143753162D01*
X103084505Y-143748591D01*
X103135617Y-143535693D01*
X103142454Y-143507216D01*
X103142455Y-143507210D01*
X103143609Y-143502403D01*
X103163474Y-143250000D01*
X118036526Y-143250000D01*
X118056391Y-143502403D01*
X118057545Y-143507210D01*
X118057546Y-143507216D01*
X118064383Y-143535693D01*
X118115495Y-143748591D01*
X118117388Y-143753162D01*
X118117389Y-143753164D01*
X118206742Y-143968880D01*
X118212384Y-143982502D01*
X118344672Y-144198376D01*
X118509102Y-144390898D01*
X118701624Y-144555328D01*
X118917498Y-144687616D01*
X118922068Y-144689509D01*
X118922072Y-144689511D01*
X119146836Y-144782611D01*
X119151409Y-144784505D01*
X119236032Y-144804821D01*
X119392784Y-144842454D01*
X119392790Y-144842455D01*
X119397597Y-144843609D01*
X119497416Y-144851465D01*
X119584345Y-144858307D01*
X119584352Y-144858307D01*
X119586801Y-144858500D01*
X119713199Y-144858500D01*
X119715648Y-144858307D01*
X119715655Y-144858307D01*
X119802584Y-144851465D01*
X119902403Y-144843609D01*
X119907210Y-144842455D01*
X119907216Y-144842454D01*
X120063968Y-144804821D01*
X120148591Y-144784505D01*
X120153164Y-144782611D01*
X120377928Y-144689511D01*
X120377932Y-144689509D01*
X120382502Y-144687616D01*
X120598376Y-144555328D01*
X120790898Y-144390898D01*
X120955328Y-144198376D01*
X121087616Y-143982502D01*
X121093259Y-143968880D01*
X121182611Y-143753164D01*
X121182612Y-143753162D01*
X121184505Y-143748591D01*
X121235617Y-143535693D01*
X121242454Y-143507216D01*
X121242455Y-143507210D01*
X121243609Y-143502403D01*
X121263474Y-143250000D01*
X121243609Y-142997597D01*
X121222597Y-142910072D01*
X121185660Y-142756221D01*
X121184505Y-142751409D01*
X121120413Y-142596677D01*
X121089511Y-142522072D01*
X121089509Y-142522068D01*
X121087616Y-142517498D01*
X120955328Y-142301624D01*
X120790898Y-142109102D01*
X120598376Y-141944672D01*
X120382502Y-141812384D01*
X120377932Y-141810491D01*
X120377928Y-141810489D01*
X120153164Y-141717389D01*
X120153162Y-141717388D01*
X120148591Y-141715495D01*
X120063968Y-141695179D01*
X119907216Y-141657546D01*
X119907210Y-141657545D01*
X119902403Y-141656391D01*
X119802584Y-141648535D01*
X119715655Y-141641693D01*
X119715648Y-141641693D01*
X119713199Y-141641500D01*
X119586801Y-141641500D01*
X119584352Y-141641693D01*
X119584345Y-141641693D01*
X119497416Y-141648535D01*
X119397597Y-141656391D01*
X119392790Y-141657545D01*
X119392784Y-141657546D01*
X119236032Y-141695179D01*
X119151409Y-141715495D01*
X119146838Y-141717388D01*
X119146836Y-141717389D01*
X118922072Y-141810489D01*
X118922068Y-141810491D01*
X118917498Y-141812384D01*
X118701624Y-141944672D01*
X118509102Y-142109102D01*
X118344672Y-142301624D01*
X118212384Y-142517498D01*
X118210491Y-142522068D01*
X118210489Y-142522072D01*
X118179587Y-142596677D01*
X118115495Y-142751409D01*
X118114340Y-142756221D01*
X118077404Y-142910072D01*
X118056391Y-142997597D01*
X118036526Y-143250000D01*
X103163474Y-143250000D01*
X103143609Y-142997597D01*
X103122597Y-142910072D01*
X103085660Y-142756221D01*
X103084505Y-142751409D01*
X103020413Y-142596677D01*
X102989511Y-142522072D01*
X102989509Y-142522068D01*
X102987616Y-142517498D01*
X102855328Y-142301624D01*
X102690898Y-142109102D01*
X102498376Y-141944672D01*
X102282502Y-141812384D01*
X102277932Y-141810491D01*
X102277928Y-141810489D01*
X102053164Y-141717389D01*
X102053162Y-141717388D01*
X102048591Y-141715495D01*
X101963968Y-141695179D01*
X101807216Y-141657546D01*
X101807210Y-141657545D01*
X101802403Y-141656391D01*
X101702584Y-141648535D01*
X101615655Y-141641693D01*
X101615648Y-141641693D01*
X101613199Y-141641500D01*
X101486801Y-141641500D01*
X101484352Y-141641693D01*
X101484345Y-141641693D01*
X101397416Y-141648535D01*
X101297597Y-141656391D01*
X101292790Y-141657545D01*
X101292784Y-141657546D01*
X101136032Y-141695179D01*
X101051409Y-141715495D01*
X101046838Y-141717388D01*
X101046836Y-141717389D01*
X100822072Y-141810489D01*
X100822068Y-141810491D01*
X100817498Y-141812384D01*
X100601624Y-141944672D01*
X100409102Y-142109102D01*
X100244672Y-142301624D01*
X100112384Y-142517498D01*
X100110491Y-142522068D01*
X100110489Y-142522072D01*
X100079587Y-142596677D01*
X100015495Y-142751409D01*
X100014340Y-142756221D01*
X99977404Y-142910072D01*
X99956391Y-142997597D01*
X99936526Y-143250000D01*
X80508500Y-143250000D01*
X80508500Y-138992575D01*
X80936404Y-138992575D01*
X80938990Y-139020988D01*
X80953699Y-139182607D01*
X80955218Y-139199303D01*
X80956956Y-139205209D01*
X80956957Y-139205213D01*
X80994406Y-139332452D01*
X81013827Y-139398440D01*
X81109999Y-139582400D01*
X81240071Y-139744177D01*
X81244788Y-139748135D01*
X81244790Y-139748137D01*
X81292134Y-139787863D01*
X81399089Y-139877609D01*
X81404481Y-139880573D01*
X81404485Y-139880576D01*
X81477971Y-139920975D01*
X81580995Y-139977613D01*
X81778861Y-140040379D01*
X81784978Y-140041065D01*
X81784982Y-140041066D01*
X81861598Y-140049659D01*
X81940413Y-140058500D01*
X83152237Y-140058500D01*
X83155293Y-140058200D01*
X83155300Y-140058200D01*
X83300466Y-140043966D01*
X83300469Y-140043965D01*
X83302534Y-140043763D01*
X83302535Y-140043763D01*
X83306592Y-140043365D01*
X83306668Y-140044136D01*
X83372527Y-140050090D01*
X83428554Y-140093695D01*
X83451769Y-140155880D01*
X83455153Y-140193071D01*
X83457451Y-140205118D01*
X83512554Y-140392342D01*
X83517147Y-140403710D01*
X83607566Y-140576666D01*
X83614282Y-140586928D01*
X83736568Y-140739020D01*
X83745152Y-140747786D01*
X83894656Y-140873236D01*
X83904767Y-140880160D01*
X84075798Y-140974184D01*
X84087062Y-140979012D01*
X84273095Y-141038025D01*
X84285084Y-141040573D01*
X84436947Y-141057607D01*
X84443971Y-141058000D01*
X84777885Y-141058000D01*
X84793124Y-141053525D01*
X84794329Y-141052135D01*
X84796000Y-141044452D01*
X84796000Y-141039885D01*
X85304000Y-141039885D01*
X85308475Y-141055124D01*
X85309865Y-141056329D01*
X85317548Y-141058000D01*
X85649124Y-141058000D01*
X85655272Y-141057699D01*
X85800361Y-141043473D01*
X85812396Y-141041090D01*
X85999223Y-140984683D01*
X86010565Y-140980008D01*
X86182879Y-140888388D01*
X86193095Y-140881601D01*
X86344335Y-140758253D01*
X86353039Y-140749609D01*
X86477438Y-140599237D01*
X86484297Y-140589069D01*
X86577121Y-140417393D01*
X86581871Y-140406093D01*
X86623595Y-140271307D01*
X86623801Y-140257205D01*
X86617045Y-140254000D01*
X85322115Y-140254000D01*
X85306876Y-140258475D01*
X85305671Y-140259865D01*
X85304000Y-140267548D01*
X85304000Y-141039885D01*
X84796000Y-141039885D01*
X84796000Y-139727885D01*
X85304000Y-139727885D01*
X85308475Y-139743124D01*
X85309865Y-139744329D01*
X85317548Y-139746000D01*
X86610047Y-139746000D01*
X86623578Y-139742027D01*
X86624698Y-139734232D01*
X86587446Y-139607658D01*
X86582853Y-139596290D01*
X86492434Y-139423334D01*
X86485718Y-139413072D01*
X86447067Y-139365000D01*
X110901250Y-139365000D01*
X110902328Y-139373189D01*
X110906500Y-139404880D01*
X110906500Y-139404885D01*
X110911490Y-139442788D01*
X110911807Y-139445408D01*
X110914085Y-139466043D01*
X110929671Y-139607224D01*
X110986524Y-139762582D01*
X110990761Y-139768888D01*
X110990763Y-139768891D01*
X111003512Y-139787863D01*
X111078794Y-139899893D01*
X111201153Y-140011232D01*
X111207830Y-140014857D01*
X111207831Y-140014858D01*
X111243239Y-140034083D01*
X111346539Y-140090170D01*
X111506557Y-140132150D01*
X111592626Y-140133502D01*
X111664372Y-140134629D01*
X111664375Y-140134629D01*
X111671970Y-140134748D01*
X111833228Y-140097815D01*
X111981021Y-140023483D01*
X112038202Y-139974646D01*
X112101044Y-139920975D01*
X112101046Y-139920972D01*
X112106818Y-139916043D01*
X112203355Y-139781697D01*
X112210906Y-139762912D01*
X112254872Y-139707170D01*
X112314561Y-139684632D01*
X112321970Y-139684748D01*
X112483228Y-139647815D01*
X112631021Y-139573483D01*
X112661448Y-139547496D01*
X112751044Y-139470975D01*
X112751046Y-139470972D01*
X112756818Y-139466043D01*
X112853355Y-139331697D01*
X112915059Y-139178202D01*
X112938369Y-139014419D01*
X112938520Y-139000000D01*
X112937622Y-138992575D01*
X129036404Y-138992575D01*
X129038990Y-139020988D01*
X129053699Y-139182607D01*
X129055218Y-139199303D01*
X129056956Y-139205209D01*
X129056957Y-139205213D01*
X129094406Y-139332452D01*
X129113827Y-139398440D01*
X129209999Y-139582400D01*
X129340071Y-139744177D01*
X129344788Y-139748135D01*
X129344790Y-139748137D01*
X129392134Y-139787863D01*
X129499089Y-139877609D01*
X129504481Y-139880573D01*
X129504485Y-139880576D01*
X129577971Y-139920975D01*
X129680995Y-139977613D01*
X129878861Y-140040379D01*
X129884978Y-140041065D01*
X129884982Y-140041066D01*
X129961598Y-140049659D01*
X130040413Y-140058500D01*
X131252237Y-140058500D01*
X131255293Y-140058200D01*
X131255300Y-140058200D01*
X131400466Y-140043966D01*
X131400469Y-140043965D01*
X131406592Y-140043365D01*
X131538546Y-140003526D01*
X131599407Y-139985152D01*
X131599410Y-139985151D01*
X131605315Y-139983368D01*
X131612635Y-139979476D01*
X131783153Y-139888809D01*
X131783155Y-139888808D01*
X131788599Y-139885913D01*
X131813299Y-139865768D01*
X137175302Y-139865768D01*
X137212554Y-139992342D01*
X137217147Y-140003710D01*
X137307566Y-140176666D01*
X137314282Y-140186928D01*
X137436568Y-140339020D01*
X137445152Y-140347786D01*
X137594656Y-140473236D01*
X137604767Y-140480160D01*
X137775798Y-140574184D01*
X137787062Y-140579012D01*
X137973095Y-140638025D01*
X137985084Y-140640573D01*
X138136947Y-140657607D01*
X138143971Y-140658000D01*
X138477885Y-140658000D01*
X138493124Y-140653525D01*
X138494329Y-140652135D01*
X138496000Y-140644452D01*
X138496000Y-140639885D01*
X139004000Y-140639885D01*
X139008475Y-140655124D01*
X139009865Y-140656329D01*
X139017548Y-140658000D01*
X139349124Y-140658000D01*
X139355272Y-140657699D01*
X139500361Y-140643473D01*
X139512396Y-140641090D01*
X139699223Y-140584683D01*
X139710565Y-140580008D01*
X139882879Y-140488388D01*
X139893095Y-140481601D01*
X140044335Y-140358253D01*
X140053039Y-140349609D01*
X140177438Y-140199237D01*
X140184297Y-140189069D01*
X140277121Y-140017393D01*
X140281871Y-140006093D01*
X140323595Y-139871307D01*
X140323801Y-139857205D01*
X140317045Y-139854000D01*
X139022115Y-139854000D01*
X139006876Y-139858475D01*
X139005671Y-139859865D01*
X139004000Y-139867548D01*
X139004000Y-140639885D01*
X138496000Y-140639885D01*
X138496000Y-139872115D01*
X138491525Y-139856876D01*
X138490135Y-139855671D01*
X138482452Y-139854000D01*
X137189953Y-139854000D01*
X137176422Y-139857973D01*
X137175302Y-139865768D01*
X131813299Y-139865768D01*
X131848471Y-139837083D01*
X131944689Y-139758610D01*
X131944692Y-139758607D01*
X131949464Y-139754715D01*
X132008375Y-139683505D01*
X132077855Y-139599518D01*
X132081783Y-139594770D01*
X132085876Y-139587201D01*
X132177584Y-139417590D01*
X132177586Y-139417585D01*
X132180514Y-139412170D01*
X132201989Y-139342795D01*
X137176199Y-139342795D01*
X137182955Y-139346000D01*
X138477885Y-139346000D01*
X138493124Y-139341525D01*
X138494329Y-139340135D01*
X138496000Y-139332452D01*
X138496000Y-139327885D01*
X139004000Y-139327885D01*
X139008475Y-139343124D01*
X139009865Y-139344329D01*
X139017548Y-139346000D01*
X140310047Y-139346000D01*
X140323578Y-139342027D01*
X140324698Y-139334232D01*
X140287446Y-139207658D01*
X140282853Y-139196290D01*
X140192434Y-139023334D01*
X140185718Y-139013072D01*
X140063432Y-138860980D01*
X140054848Y-138852214D01*
X139905344Y-138726764D01*
X139895233Y-138719840D01*
X139724202Y-138625816D01*
X139712938Y-138620988D01*
X139526905Y-138561975D01*
X139514916Y-138559427D01*
X139363053Y-138542393D01*
X139356029Y-138542000D01*
X139022115Y-138542000D01*
X139006876Y-138546475D01*
X139005671Y-138547865D01*
X139004000Y-138555548D01*
X139004000Y-139327885D01*
X138496000Y-139327885D01*
X138496000Y-138560115D01*
X138491525Y-138544876D01*
X138490135Y-138543671D01*
X138482452Y-138542000D01*
X138150876Y-138542000D01*
X138144728Y-138542301D01*
X137999639Y-138556527D01*
X137987604Y-138558910D01*
X137800777Y-138615317D01*
X137789435Y-138619992D01*
X137617121Y-138711612D01*
X137606905Y-138718399D01*
X137455665Y-138841747D01*
X137446961Y-138850391D01*
X137322562Y-139000763D01*
X137315703Y-139010931D01*
X137222879Y-139182607D01*
X137218129Y-139193907D01*
X137176405Y-139328693D01*
X137176199Y-139342795D01*
X132201989Y-139342795D01*
X132241898Y-139213871D01*
X132243996Y-139193907D01*
X132262952Y-139013554D01*
X132262952Y-139013552D01*
X132263596Y-139007425D01*
X132244782Y-138800697D01*
X132246319Y-138800557D01*
X132252470Y-138737442D01*
X132296466Y-138681721D01*
X132369352Y-138658500D01*
X133252237Y-138658500D01*
X133255293Y-138658200D01*
X133255300Y-138658200D01*
X133400466Y-138643966D01*
X133400469Y-138643965D01*
X133406592Y-138643365D01*
X133571037Y-138593717D01*
X133599407Y-138585152D01*
X133599410Y-138585151D01*
X133605315Y-138583368D01*
X133650341Y-138559427D01*
X133783153Y-138488809D01*
X133783155Y-138488808D01*
X133788599Y-138485913D01*
X133880881Y-138410650D01*
X133944689Y-138358610D01*
X133944692Y-138358607D01*
X133949464Y-138354715D01*
X133983254Y-138313871D01*
X134077855Y-138199518D01*
X134081783Y-138194770D01*
X134096736Y-138167115D01*
X134177584Y-138017590D01*
X134177586Y-138017585D01*
X134180514Y-138012170D01*
X134241898Y-137813871D01*
X134242542Y-137807745D01*
X134262952Y-137613554D01*
X134262952Y-137613552D01*
X134263596Y-137607425D01*
X134249984Y-137457860D01*
X134245341Y-137406836D01*
X134245340Y-137406833D01*
X134244782Y-137400697D01*
X134242298Y-137392255D01*
X134189860Y-137214087D01*
X134186173Y-137201560D01*
X134090001Y-137017600D01*
X134078693Y-137003535D01*
X134054664Y-136973650D01*
X133959929Y-136855823D01*
X133950770Y-136848137D01*
X133845788Y-136760047D01*
X133800911Y-136722391D01*
X133795519Y-136719427D01*
X133795515Y-136719424D01*
X133624402Y-136625354D01*
X133619005Y-136622387D01*
X133421139Y-136559621D01*
X133415022Y-136558935D01*
X133415018Y-136558934D01*
X133338402Y-136550341D01*
X133259587Y-136541500D01*
X132342337Y-136541500D01*
X132274216Y-136521498D01*
X132227723Y-136467842D01*
X132217619Y-136397568D01*
X132221972Y-136378241D01*
X132232190Y-136345233D01*
X132241898Y-136313871D01*
X132243429Y-136299303D01*
X132262952Y-136113554D01*
X132262952Y-136113552D01*
X132263596Y-136107425D01*
X132251718Y-135976905D01*
X132245341Y-135906836D01*
X132245340Y-135906833D01*
X132244782Y-135900697D01*
X132242298Y-135892255D01*
X132187912Y-135707469D01*
X132186173Y-135701560D01*
X132090001Y-135517600D01*
X131959929Y-135355823D01*
X131947371Y-135345285D01*
X131831594Y-135248137D01*
X131800911Y-135222391D01*
X131795519Y-135219427D01*
X131795515Y-135219424D01*
X131624402Y-135125354D01*
X131619005Y-135122387D01*
X131546912Y-135099518D01*
X131436338Y-135064442D01*
X131377454Y-135024779D01*
X131349361Y-134959577D01*
X131364021Y-134883639D01*
X131424184Y-134774202D01*
X131429012Y-134762938D01*
X131488025Y-134576905D01*
X131490573Y-134564916D01*
X131498687Y-134492575D01*
X132686404Y-134492575D01*
X132705218Y-134699303D01*
X132706956Y-134705209D01*
X132706957Y-134705213D01*
X132727262Y-134774202D01*
X132763827Y-134898440D01*
X132859999Y-135082400D01*
X132990071Y-135244177D01*
X132994788Y-135248135D01*
X132994790Y-135248137D01*
X133098681Y-135335312D01*
X133149089Y-135377609D01*
X133154481Y-135380573D01*
X133154485Y-135380576D01*
X133312687Y-135467548D01*
X133330995Y-135477613D01*
X133528861Y-135540379D01*
X133534978Y-135541065D01*
X133534982Y-135541066D01*
X133611598Y-135549659D01*
X133690413Y-135558500D01*
X133802237Y-135558500D01*
X133805293Y-135558200D01*
X133805300Y-135558200D01*
X133950466Y-135543966D01*
X133950469Y-135543965D01*
X133956592Y-135543365D01*
X134098630Y-135500482D01*
X134149407Y-135485152D01*
X134149410Y-135485151D01*
X134155315Y-135483368D01*
X134162635Y-135479476D01*
X134333153Y-135388809D01*
X134333155Y-135388808D01*
X134338599Y-135385913D01*
X134398471Y-135337083D01*
X134494689Y-135258610D01*
X134494692Y-135258607D01*
X134499464Y-135254715D01*
X134528660Y-135219424D01*
X134627855Y-135099518D01*
X134631783Y-135094770D01*
X134635876Y-135087201D01*
X134727584Y-134917590D01*
X134727586Y-134917585D01*
X134730514Y-134912170D01*
X134791898Y-134713871D01*
X134793429Y-134699303D01*
X134812952Y-134513554D01*
X134812952Y-134513552D01*
X134813596Y-134507425D01*
X134812245Y-134492575D01*
X137686404Y-134492575D01*
X137705218Y-134699303D01*
X137706956Y-134705209D01*
X137706957Y-134705213D01*
X137727262Y-134774202D01*
X137763827Y-134898440D01*
X137859999Y-135082400D01*
X137990071Y-135244177D01*
X137994788Y-135248135D01*
X137994790Y-135248137D01*
X138098681Y-135335312D01*
X138149089Y-135377609D01*
X138154481Y-135380573D01*
X138154485Y-135380576D01*
X138312687Y-135467548D01*
X138330995Y-135477613D01*
X138528861Y-135540379D01*
X138534978Y-135541065D01*
X138534982Y-135541066D01*
X138611598Y-135549659D01*
X138690413Y-135558500D01*
X138802237Y-135558500D01*
X138805293Y-135558200D01*
X138805300Y-135558200D01*
X138950466Y-135543966D01*
X138950469Y-135543965D01*
X138956592Y-135543365D01*
X139098630Y-135500482D01*
X139149407Y-135485152D01*
X139149410Y-135485151D01*
X139155315Y-135483368D01*
X139162635Y-135479476D01*
X139333153Y-135388809D01*
X139333155Y-135388808D01*
X139338599Y-135385913D01*
X139398471Y-135337083D01*
X139494689Y-135258610D01*
X139494692Y-135258607D01*
X139499464Y-135254715D01*
X139528660Y-135219424D01*
X139627855Y-135099518D01*
X139631783Y-135094770D01*
X139635876Y-135087201D01*
X139727584Y-134917590D01*
X139727586Y-134917585D01*
X139730514Y-134912170D01*
X139791898Y-134713871D01*
X139793429Y-134699303D01*
X139812952Y-134513554D01*
X139812952Y-134513552D01*
X139813596Y-134507425D01*
X139802195Y-134382150D01*
X139795341Y-134306836D01*
X139795340Y-134306833D01*
X139794782Y-134300697D01*
X139792298Y-134292255D01*
X139737912Y-134107469D01*
X139736173Y-134101560D01*
X139640001Y-133917600D01*
X139509929Y-133755823D01*
X139497371Y-133745285D01*
X139380321Y-133647069D01*
X139350911Y-133622391D01*
X139345519Y-133619427D01*
X139345515Y-133619424D01*
X139174402Y-133525354D01*
X139169005Y-133522387D01*
X138971139Y-133459621D01*
X138965022Y-133458935D01*
X138965018Y-133458934D01*
X138888402Y-133450341D01*
X138809587Y-133441500D01*
X138697763Y-133441500D01*
X138694707Y-133441800D01*
X138694700Y-133441800D01*
X138549534Y-133456034D01*
X138549531Y-133456035D01*
X138543408Y-133456635D01*
X138449305Y-133485046D01*
X138350593Y-133514848D01*
X138350590Y-133514849D01*
X138344685Y-133516632D01*
X138339240Y-133519527D01*
X138339238Y-133519528D01*
X138166847Y-133611191D01*
X138166845Y-133611192D01*
X138161401Y-133614087D01*
X138117409Y-133649966D01*
X138005311Y-133741390D01*
X138005308Y-133741393D01*
X138000536Y-133745285D01*
X137996608Y-133750033D01*
X137996607Y-133750034D01*
X137941201Y-133817008D01*
X137868217Y-133905230D01*
X137865288Y-133910647D01*
X137865286Y-133910650D01*
X137772416Y-134082410D01*
X137772414Y-134082415D01*
X137769486Y-134087830D01*
X137708102Y-134286129D01*
X137707458Y-134292254D01*
X137707458Y-134292255D01*
X137692182Y-134437604D01*
X137686404Y-134492575D01*
X134812245Y-134492575D01*
X134802195Y-134382150D01*
X134795341Y-134306836D01*
X134795340Y-134306833D01*
X134794782Y-134300697D01*
X134792298Y-134292255D01*
X134737912Y-134107469D01*
X134736173Y-134101560D01*
X134640001Y-133917600D01*
X134509929Y-133755823D01*
X134497371Y-133745285D01*
X134380321Y-133647069D01*
X134350911Y-133622391D01*
X134345519Y-133619427D01*
X134345515Y-133619424D01*
X134174402Y-133525354D01*
X134169005Y-133522387D01*
X133971139Y-133459621D01*
X133965022Y-133458935D01*
X133965018Y-133458934D01*
X133888402Y-133450341D01*
X133809587Y-133441500D01*
X133697763Y-133441500D01*
X133694707Y-133441800D01*
X133694700Y-133441800D01*
X133549534Y-133456034D01*
X133549531Y-133456035D01*
X133543408Y-133456635D01*
X133449305Y-133485046D01*
X133350593Y-133514848D01*
X133350590Y-133514849D01*
X133344685Y-133516632D01*
X133339240Y-133519527D01*
X133339238Y-133519528D01*
X133166847Y-133611191D01*
X133166845Y-133611192D01*
X133161401Y-133614087D01*
X133117409Y-133649966D01*
X133005311Y-133741390D01*
X133005308Y-133741393D01*
X133000536Y-133745285D01*
X132996608Y-133750033D01*
X132996607Y-133750034D01*
X132941201Y-133817008D01*
X132868217Y-133905230D01*
X132865288Y-133910647D01*
X132865286Y-133910650D01*
X132772416Y-134082410D01*
X132772414Y-134082415D01*
X132769486Y-134087830D01*
X132708102Y-134286129D01*
X132707458Y-134292254D01*
X132707458Y-134292255D01*
X132692182Y-134437604D01*
X132686404Y-134492575D01*
X131498687Y-134492575D01*
X131507607Y-134413053D01*
X131508000Y-134406029D01*
X131508000Y-134072115D01*
X131503525Y-134056876D01*
X131502135Y-134055671D01*
X131494452Y-134054000D01*
X129410115Y-134054000D01*
X129394876Y-134058475D01*
X129393671Y-134059865D01*
X129392000Y-134067548D01*
X129392000Y-134399124D01*
X129392301Y-134405272D01*
X129406527Y-134550361D01*
X129408910Y-134562396D01*
X129465317Y-134749223D01*
X129469992Y-134760565D01*
X129561612Y-134932879D01*
X129568399Y-134943095D01*
X129608371Y-134992105D01*
X129635925Y-135057537D01*
X129623729Y-135127479D01*
X129569883Y-135182991D01*
X129543539Y-135196999D01*
X129516847Y-135211191D01*
X129516845Y-135211192D01*
X129511401Y-135214087D01*
X129467409Y-135249966D01*
X129355311Y-135341390D01*
X129355308Y-135341393D01*
X129350536Y-135345285D01*
X129346608Y-135350033D01*
X129346607Y-135350034D01*
X129260598Y-135454000D01*
X129218217Y-135505230D01*
X129215288Y-135510647D01*
X129215286Y-135510650D01*
X129122416Y-135682410D01*
X129122414Y-135682415D01*
X129119486Y-135687830D01*
X129058102Y-135886129D01*
X129057458Y-135892254D01*
X129057458Y-135892255D01*
X129041116Y-136047747D01*
X129036404Y-136092575D01*
X129042592Y-136160565D01*
X129049715Y-136238831D01*
X129055218Y-136299303D01*
X129056956Y-136305209D01*
X129056957Y-136305213D01*
X129084139Y-136397568D01*
X129113827Y-136498440D01*
X129209999Y-136682400D01*
X129340071Y-136844177D01*
X129344788Y-136848135D01*
X129344790Y-136848137D01*
X129366649Y-136866479D01*
X129499089Y-136977609D01*
X129504481Y-136980573D01*
X129504485Y-136980576D01*
X129675598Y-137074646D01*
X129680995Y-137077613D01*
X129878861Y-137140379D01*
X129884978Y-137141065D01*
X129884982Y-137141066D01*
X129961598Y-137149659D01*
X130040413Y-137158500D01*
X130957663Y-137158500D01*
X131025784Y-137178502D01*
X131072277Y-137232158D01*
X131082381Y-137302432D01*
X131078028Y-137321758D01*
X131058102Y-137386129D01*
X131057458Y-137392254D01*
X131057458Y-137392255D01*
X131039004Y-137567841D01*
X131036404Y-137592575D01*
X131044580Y-137682410D01*
X131055218Y-137799303D01*
X131053681Y-137799443D01*
X131047530Y-137862558D01*
X131003534Y-137918279D01*
X130930648Y-137941500D01*
X130047763Y-137941500D01*
X130044707Y-137941800D01*
X130044700Y-137941800D01*
X129899534Y-137956034D01*
X129899531Y-137956035D01*
X129893408Y-137956635D01*
X129761454Y-137996474D01*
X129700593Y-138014848D01*
X129700590Y-138014849D01*
X129694685Y-138016632D01*
X129689240Y-138019527D01*
X129689238Y-138019528D01*
X129516847Y-138111191D01*
X129516845Y-138111192D01*
X129511401Y-138114087D01*
X129461402Y-138154865D01*
X129355311Y-138241390D01*
X129355308Y-138241393D01*
X129350536Y-138245285D01*
X129346608Y-138250033D01*
X129346607Y-138250034D01*
X129310927Y-138293164D01*
X129218217Y-138405230D01*
X129215288Y-138410647D01*
X129215286Y-138410650D01*
X129122416Y-138582410D01*
X129122414Y-138582415D01*
X129119486Y-138587830D01*
X129058102Y-138786129D01*
X129057458Y-138792254D01*
X129057458Y-138792255D01*
X129039816Y-138960115D01*
X129036404Y-138992575D01*
X112937622Y-138992575D01*
X112919558Y-138843308D01*
X112919558Y-138843307D01*
X112918645Y-138835765D01*
X112860169Y-138681011D01*
X112855866Y-138674750D01*
X112770769Y-138550934D01*
X112770766Y-138550931D01*
X112766466Y-138544674D01*
X112730597Y-138512715D01*
X112692919Y-138479145D01*
X112642948Y-138434622D01*
X112570540Y-138396284D01*
X112519697Y-138346731D01*
X112503500Y-138284930D01*
X112503500Y-138160975D01*
X119122601Y-138160975D01*
X119151552Y-138261941D01*
X119156067Y-138273345D01*
X119240794Y-138438207D01*
X119247435Y-138448512D01*
X119362568Y-138593772D01*
X119371091Y-138602598D01*
X119512245Y-138722730D01*
X119522317Y-138729730D01*
X119684116Y-138820156D01*
X119695356Y-138825067D01*
X119823768Y-138866790D01*
X119837867Y-138867193D01*
X119841000Y-138860821D01*
X119841000Y-138167115D01*
X119836525Y-138151876D01*
X119835135Y-138150671D01*
X119827452Y-138149000D01*
X119137282Y-138149000D01*
X119123751Y-138152973D01*
X119122601Y-138160975D01*
X112503500Y-138160975D01*
X112503500Y-137288114D01*
X112523502Y-137219993D01*
X112577158Y-137173500D01*
X112647432Y-137163396D01*
X112654996Y-137164927D01*
X112658095Y-137165351D01*
X112665443Y-137167279D01*
X112743270Y-137168501D01*
X112807528Y-137169511D01*
X112807531Y-137169511D01*
X112815126Y-137169630D01*
X112852365Y-137161101D01*
X112923232Y-137165390D01*
X112980530Y-137207312D01*
X112992420Y-137226175D01*
X112994865Y-137232856D01*
X113078360Y-137357109D01*
X113189083Y-137457860D01*
X113195756Y-137461483D01*
X113195760Y-137461486D01*
X113320643Y-137529291D01*
X113319483Y-137531427D01*
X113366149Y-137567841D01*
X113382115Y-137598015D01*
X113394865Y-137632856D01*
X113399102Y-137639162D01*
X113399104Y-137639165D01*
X113413778Y-137661002D01*
X113478360Y-137757109D01*
X113589083Y-137857860D01*
X113595756Y-137861483D01*
X113595760Y-137861486D01*
X113713970Y-137925668D01*
X113720643Y-137929291D01*
X113865443Y-137967279D01*
X113943270Y-137968501D01*
X114007528Y-137969511D01*
X114007531Y-137969511D01*
X114015126Y-137969630D01*
X114049838Y-137961680D01*
X114077967Y-137958500D01*
X114551864Y-137958500D01*
X114568307Y-137959578D01*
X114600000Y-137963750D01*
X114608189Y-137962672D01*
X114639874Y-137958501D01*
X114639884Y-137958500D01*
X114639885Y-137958500D01*
X114739457Y-137945391D01*
X114750664Y-137943916D01*
X114750666Y-137943915D01*
X114758851Y-137942838D01*
X114906876Y-137881524D01*
X114937716Y-137857860D01*
X115002072Y-137808477D01*
X115002075Y-137808474D01*
X115027434Y-137789015D01*
X115033987Y-137783987D01*
X115050689Y-137762221D01*
X115053452Y-137758621D01*
X115064319Y-137746230D01*
X115646234Y-137164315D01*
X115658625Y-137153448D01*
X115677437Y-137139013D01*
X115683987Y-137133987D01*
X115708474Y-137102075D01*
X115708478Y-137102071D01*
X115781524Y-137006876D01*
X115842838Y-136858851D01*
X115844068Y-136849513D01*
X115849566Y-136807744D01*
X115849566Y-136807743D01*
X115858500Y-136739885D01*
X115858500Y-136739880D01*
X115862672Y-136708189D01*
X115863750Y-136700000D01*
X115859578Y-136668307D01*
X115858500Y-136651864D01*
X115858500Y-136610851D01*
X119081719Y-136610851D01*
X119082235Y-136616995D01*
X119095385Y-136773595D01*
X119098268Y-136807934D01*
X119111869Y-136855365D01*
X119146922Y-136977609D01*
X119152783Y-136998050D01*
X119168487Y-137028606D01*
X119239817Y-137167398D01*
X119243187Y-137173956D01*
X119249164Y-137181497D01*
X119249843Y-137183174D01*
X119250353Y-137183966D01*
X119250203Y-137184063D01*
X119275802Y-137247304D01*
X119262633Y-137317069D01*
X119259254Y-137322754D01*
X119259262Y-137322758D01*
X119166998Y-137490585D01*
X119162166Y-137501858D01*
X119123506Y-137623731D01*
X119123202Y-137637831D01*
X119129763Y-137641000D01*
X120223000Y-137641000D01*
X120291121Y-137661002D01*
X120337614Y-137714658D01*
X120349000Y-137767000D01*
X120349000Y-138852564D01*
X120352973Y-138866095D01*
X120361188Y-138867276D01*
X120455337Y-138840989D01*
X120466787Y-138836548D01*
X120632226Y-138752979D01*
X120642588Y-138746403D01*
X120651074Y-138739773D01*
X120717068Y-138713595D01*
X120790117Y-138729074D01*
X120959294Y-138823624D01*
X121147392Y-138884740D01*
X121343777Y-138908158D01*
X121349912Y-138907686D01*
X121349914Y-138907686D01*
X121534830Y-138893457D01*
X121534834Y-138893456D01*
X121540972Y-138892984D01*
X121731463Y-138839798D01*
X121736967Y-138837018D01*
X121736969Y-138837017D01*
X121902493Y-138753405D01*
X121902495Y-138753404D01*
X121907996Y-138750625D01*
X121913402Y-138746402D01*
X121921973Y-138739705D01*
X121987967Y-138713525D01*
X122061020Y-138729004D01*
X122224121Y-138820159D01*
X122235356Y-138825067D01*
X122363768Y-138866790D01*
X122377867Y-138867193D01*
X122381000Y-138860821D01*
X122381000Y-138852564D01*
X122889000Y-138852564D01*
X122892973Y-138866095D01*
X122901188Y-138867276D01*
X122995337Y-138840989D01*
X123006787Y-138836548D01*
X123172224Y-138752980D01*
X123182589Y-138746402D01*
X123191503Y-138739438D01*
X123257497Y-138713261D01*
X123330545Y-138728740D01*
X123494116Y-138820156D01*
X123505356Y-138825067D01*
X123633768Y-138866790D01*
X123647867Y-138867193D01*
X123651000Y-138860821D01*
X123651000Y-138167115D01*
X123646525Y-138151876D01*
X123645135Y-138150671D01*
X123637452Y-138149000D01*
X122907115Y-138149000D01*
X122891876Y-138153475D01*
X122890671Y-138154865D01*
X122889000Y-138162548D01*
X122889000Y-138852564D01*
X122381000Y-138852564D01*
X122381000Y-137767000D01*
X122401002Y-137698879D01*
X122454658Y-137652386D01*
X122507000Y-137641000D01*
X124033000Y-137641000D01*
X124101121Y-137661002D01*
X124147614Y-137714658D01*
X124159000Y-137767000D01*
X124159000Y-138852564D01*
X124162973Y-138866095D01*
X124171188Y-138867276D01*
X124265345Y-138840986D01*
X124276778Y-138836552D01*
X124290266Y-138829739D01*
X124360089Y-138816879D01*
X124412441Y-138837381D01*
X124413240Y-138835921D01*
X124421108Y-138840229D01*
X124428295Y-138845615D01*
X124564684Y-138896745D01*
X124626866Y-138903500D01*
X125723134Y-138903500D01*
X125785316Y-138896745D01*
X125921705Y-138845615D01*
X126038261Y-138758261D01*
X126125615Y-138641705D01*
X126176745Y-138505316D01*
X126183500Y-138443134D01*
X126183500Y-137346866D01*
X126176745Y-137284684D01*
X126125615Y-137148295D01*
X126120229Y-137141109D01*
X126115921Y-137133240D01*
X126117942Y-137132133D01*
X126097506Y-137077443D01*
X126103621Y-137028606D01*
X126159501Y-136860623D01*
X126163197Y-136849513D01*
X126187985Y-136653295D01*
X126188380Y-136625000D01*
X126169080Y-136428167D01*
X126154007Y-136378241D01*
X126131958Y-136305213D01*
X126111916Y-136238831D01*
X126019066Y-136064204D01*
X125947867Y-135976905D01*
X125897960Y-135915713D01*
X125897957Y-135915710D01*
X125894065Y-135910938D01*
X125887724Y-135905692D01*
X125746425Y-135788799D01*
X125746421Y-135788797D01*
X125741675Y-135784870D01*
X125567701Y-135690802D01*
X125378768Y-135632318D01*
X125372643Y-135631674D01*
X125372642Y-135631674D01*
X125188204Y-135612289D01*
X125188202Y-135612289D01*
X125182075Y-135611645D01*
X125099576Y-135619153D01*
X124991251Y-135629011D01*
X124991248Y-135629012D01*
X124985112Y-135629570D01*
X124979206Y-135631308D01*
X124979202Y-135631309D01*
X124874076Y-135662249D01*
X124795381Y-135685410D01*
X124789923Y-135688263D01*
X124789919Y-135688265D01*
X124753186Y-135707469D01*
X124620110Y-135777040D01*
X124615310Y-135780900D01*
X124610153Y-135784274D01*
X124608769Y-135782158D01*
X124553365Y-135805027D01*
X124483512Y-135792334D01*
X124473898Y-135786709D01*
X124471675Y-135784870D01*
X124297701Y-135690802D01*
X124108768Y-135632318D01*
X124102643Y-135631674D01*
X124102642Y-135631674D01*
X123918204Y-135612289D01*
X123918202Y-135612289D01*
X123912075Y-135611645D01*
X123829576Y-135619153D01*
X123721251Y-135629011D01*
X123721248Y-135629012D01*
X123715112Y-135629570D01*
X123709206Y-135631308D01*
X123709202Y-135631309D01*
X123604076Y-135662249D01*
X123525381Y-135685410D01*
X123519923Y-135688263D01*
X123519919Y-135688265D01*
X123483186Y-135707469D01*
X123350110Y-135777040D01*
X123345310Y-135780900D01*
X123340153Y-135784274D01*
X123338769Y-135782158D01*
X123283365Y-135805027D01*
X123213512Y-135792334D01*
X123203898Y-135786709D01*
X123201675Y-135784870D01*
X123027701Y-135690802D01*
X122838768Y-135632318D01*
X122832643Y-135631674D01*
X122832642Y-135631674D01*
X122648204Y-135612289D01*
X122648202Y-135612289D01*
X122642075Y-135611645D01*
X122559576Y-135619153D01*
X122451251Y-135629011D01*
X122451248Y-135629012D01*
X122445112Y-135629570D01*
X122439206Y-135631308D01*
X122439202Y-135631309D01*
X122334076Y-135662249D01*
X122255381Y-135685410D01*
X122249923Y-135688263D01*
X122249919Y-135688265D01*
X122213186Y-135707469D01*
X122080110Y-135777040D01*
X122075310Y-135780900D01*
X122070153Y-135784274D01*
X122068769Y-135782158D01*
X122013365Y-135805027D01*
X121943512Y-135792334D01*
X121933898Y-135786709D01*
X121931675Y-135784870D01*
X121757701Y-135690802D01*
X121568768Y-135632318D01*
X121562643Y-135631674D01*
X121562642Y-135631674D01*
X121378204Y-135612289D01*
X121378202Y-135612289D01*
X121372075Y-135611645D01*
X121289576Y-135619153D01*
X121181251Y-135629011D01*
X121181248Y-135629012D01*
X121175112Y-135629570D01*
X121169206Y-135631308D01*
X121169202Y-135631309D01*
X121064076Y-135662249D01*
X120985381Y-135685410D01*
X120979923Y-135688263D01*
X120979919Y-135688265D01*
X120943186Y-135707469D01*
X120810110Y-135777040D01*
X120805310Y-135780900D01*
X120800153Y-135784274D01*
X120798769Y-135782158D01*
X120743365Y-135805027D01*
X120673512Y-135792334D01*
X120663898Y-135786709D01*
X120661675Y-135784870D01*
X120487701Y-135690802D01*
X120298768Y-135632318D01*
X120292643Y-135631674D01*
X120292642Y-135631674D01*
X120108204Y-135612289D01*
X120108202Y-135612289D01*
X120102075Y-135611645D01*
X120019576Y-135619153D01*
X119911251Y-135629011D01*
X119911248Y-135629012D01*
X119905112Y-135629570D01*
X119899206Y-135631308D01*
X119899202Y-135631309D01*
X119794076Y-135662249D01*
X119715381Y-135685410D01*
X119709923Y-135688263D01*
X119709919Y-135688265D01*
X119673186Y-135707469D01*
X119540110Y-135777040D01*
X119385975Y-135900968D01*
X119258846Y-136052474D01*
X119255879Y-136057872D01*
X119255875Y-136057877D01*
X119225267Y-136113554D01*
X119163567Y-136225787D01*
X119161706Y-136231654D01*
X119161705Y-136231656D01*
X119109075Y-136397568D01*
X119103765Y-136414306D01*
X119081719Y-136610851D01*
X115858500Y-136610851D01*
X115858500Y-134422712D01*
X115878502Y-134354591D01*
X115932158Y-134308098D01*
X116002432Y-134297994D01*
X116044618Y-134311979D01*
X116096539Y-134340170D01*
X116256557Y-134382150D01*
X116342626Y-134383502D01*
X116414372Y-134384629D01*
X116414375Y-134384629D01*
X116421970Y-134384748D01*
X116583228Y-134347815D01*
X116731021Y-134273483D01*
X116779609Y-134231985D01*
X116851044Y-134170975D01*
X116851046Y-134170972D01*
X116856818Y-134166043D01*
X116953355Y-134031697D01*
X116962924Y-134007895D01*
X116993834Y-133931002D01*
X117021646Y-133888903D01*
X117201234Y-133709315D01*
X117213625Y-133698448D01*
X117232437Y-133684013D01*
X117238987Y-133678987D01*
X117263474Y-133647075D01*
X117263480Y-133647069D01*
X117331496Y-133558429D01*
X117331497Y-133558427D01*
X117336524Y-133551876D01*
X117340812Y-133541525D01*
X117346461Y-133527885D01*
X129392000Y-133527885D01*
X129396475Y-133543124D01*
X129397865Y-133544329D01*
X129405548Y-133546000D01*
X130177885Y-133546000D01*
X130193124Y-133541525D01*
X130194329Y-133540135D01*
X130196000Y-133532452D01*
X130196000Y-133527885D01*
X130704000Y-133527885D01*
X130708475Y-133543124D01*
X130709865Y-133544329D01*
X130717548Y-133546000D01*
X131489885Y-133546000D01*
X131505124Y-133541525D01*
X131506329Y-133540135D01*
X131508000Y-133532452D01*
X131508000Y-133200876D01*
X131507699Y-133194728D01*
X131493473Y-133049639D01*
X131491090Y-133037604D01*
X131434683Y-132850777D01*
X131430008Y-132839435D01*
X131338388Y-132667121D01*
X131331601Y-132656905D01*
X131208253Y-132505665D01*
X131199609Y-132496961D01*
X131049237Y-132372562D01*
X131039069Y-132365703D01*
X130867393Y-132272879D01*
X130856093Y-132268129D01*
X130721307Y-132226405D01*
X130707205Y-132226199D01*
X130704000Y-132232955D01*
X130704000Y-133527885D01*
X130196000Y-133527885D01*
X130196000Y-132239953D01*
X130192027Y-132226422D01*
X130184232Y-132225302D01*
X130057658Y-132262554D01*
X130046290Y-132267147D01*
X129873334Y-132357566D01*
X129863072Y-132364282D01*
X129710980Y-132486568D01*
X129702214Y-132495152D01*
X129576764Y-132644656D01*
X129569840Y-132654767D01*
X129475816Y-132825798D01*
X129470988Y-132837062D01*
X129411975Y-133023095D01*
X129409427Y-133035084D01*
X129392393Y-133186947D01*
X129392000Y-133193971D01*
X129392000Y-133527885D01*
X117346461Y-133527885D01*
X117362422Y-133489350D01*
X117364206Y-133485044D01*
X117397838Y-133403850D01*
X117402344Y-133369628D01*
X117413500Y-133284885D01*
X117413500Y-133284878D01*
X117417672Y-133253188D01*
X117418750Y-133245000D01*
X117414578Y-133213307D01*
X117413500Y-133196864D01*
X117413500Y-132559668D01*
X117414578Y-132543222D01*
X117417672Y-132519720D01*
X117418750Y-132511532D01*
X117413500Y-132471652D01*
X117413500Y-132471647D01*
X117411717Y-132458107D01*
X117398916Y-132360868D01*
X117398915Y-132360866D01*
X117397838Y-132352682D01*
X117393798Y-132342928D01*
X117364656Y-132272572D01*
X117339684Y-132212284D01*
X117339683Y-132212282D01*
X117336524Y-132204656D01*
X117263477Y-132109461D01*
X117263476Y-132109459D01*
X117244017Y-132084099D01*
X117244013Y-132084095D01*
X117238987Y-132077545D01*
X117213624Y-132058083D01*
X117201234Y-132047217D01*
X116958953Y-131804936D01*
X116924927Y-131742624D01*
X116929992Y-131671809D01*
X116945726Y-131642314D01*
X116948922Y-131637867D01*
X116948924Y-131637864D01*
X116953355Y-131631697D01*
X116993230Y-131532504D01*
X117037197Y-131476759D01*
X117110138Y-131453500D01*
X117328261Y-131453500D01*
X117396382Y-131473502D01*
X117417356Y-131490405D01*
X118300281Y-132373330D01*
X118334307Y-132435642D01*
X118336841Y-132459216D01*
X118336496Y-132462500D01*
X118337186Y-132469065D01*
X118353235Y-132621759D01*
X118356458Y-132652428D01*
X118415473Y-132834056D01*
X118510960Y-132999444D01*
X118515378Y-133004351D01*
X118515379Y-133004352D01*
X118613990Y-133113871D01*
X118638747Y-133141366D01*
X118737769Y-133213310D01*
X118770117Y-133236812D01*
X118793248Y-133253618D01*
X118799276Y-133256302D01*
X118799278Y-133256303D01*
X118936932Y-133317590D01*
X118967712Y-133331294D01*
X119061112Y-133351147D01*
X119148056Y-133369628D01*
X119148061Y-133369628D01*
X119154513Y-133371000D01*
X119345487Y-133371000D01*
X119351939Y-133369628D01*
X119351944Y-133369628D01*
X119438888Y-133351147D01*
X119532288Y-133331294D01*
X119563068Y-133317590D01*
X119700722Y-133256303D01*
X119700724Y-133256302D01*
X119706752Y-133253618D01*
X119729884Y-133236812D01*
X119762231Y-133213310D01*
X119861253Y-133141366D01*
X119886010Y-133113871D01*
X119984621Y-133004352D01*
X119984622Y-133004351D01*
X119989040Y-132999444D01*
X120084527Y-132834056D01*
X120143542Y-132652428D01*
X120146766Y-132621759D01*
X120162814Y-132469065D01*
X120163504Y-132462500D01*
X120150937Y-132342928D01*
X120144232Y-132279135D01*
X120144232Y-132279133D01*
X120143542Y-132272572D01*
X120084527Y-132090944D01*
X119989040Y-131925556D01*
X119947550Y-131879476D01*
X119865675Y-131788545D01*
X119865674Y-131788544D01*
X119861253Y-131783634D01*
X119706752Y-131671382D01*
X119700724Y-131668698D01*
X119700722Y-131668697D01*
X119538319Y-131596391D01*
X119538318Y-131596391D01*
X119532288Y-131593706D01*
X119438888Y-131573853D01*
X119351944Y-131555372D01*
X119351939Y-131555372D01*
X119345487Y-131554000D01*
X119254239Y-131554000D01*
X119186118Y-131533998D01*
X119165144Y-131517095D01*
X118540624Y-130892575D01*
X132136404Y-130892575D01*
X132138313Y-130913554D01*
X132151505Y-131058500D01*
X132155218Y-131099303D01*
X132156956Y-131105209D01*
X132156957Y-131105213D01*
X132185060Y-131200697D01*
X132213827Y-131298440D01*
X132309999Y-131482400D01*
X132440071Y-131644177D01*
X132444788Y-131648135D01*
X132444790Y-131648137D01*
X132477118Y-131675263D01*
X132599089Y-131777609D01*
X132604481Y-131780573D01*
X132604485Y-131780576D01*
X132775598Y-131874646D01*
X132780995Y-131877613D01*
X132978861Y-131940379D01*
X132984978Y-131941065D01*
X132984982Y-131941066D01*
X133061598Y-131949659D01*
X133140413Y-131958500D01*
X134352237Y-131958500D01*
X134355293Y-131958200D01*
X134355300Y-131958200D01*
X134500466Y-131943966D01*
X134500469Y-131943965D01*
X134506592Y-131943365D01*
X134638546Y-131903526D01*
X134699407Y-131885152D01*
X134699410Y-131885151D01*
X134705315Y-131883368D01*
X134712635Y-131879476D01*
X134883153Y-131788809D01*
X134883155Y-131788808D01*
X134888599Y-131785913D01*
X134996921Y-131697568D01*
X135044689Y-131658610D01*
X135044692Y-131658607D01*
X135049464Y-131654715D01*
X135068507Y-131631697D01*
X135177855Y-131499518D01*
X135181783Y-131494770D01*
X135185876Y-131487201D01*
X135277584Y-131317590D01*
X135277586Y-131317585D01*
X135280514Y-131312170D01*
X135341898Y-131113871D01*
X135343429Y-131099303D01*
X135362952Y-130913554D01*
X135362952Y-130913552D01*
X135363596Y-130907425D01*
X135349266Y-130749966D01*
X135345341Y-130706836D01*
X135345340Y-130706833D01*
X135344782Y-130700697D01*
X135342298Y-130692255D01*
X135289860Y-130514087D01*
X135286173Y-130501560D01*
X135190001Y-130317600D01*
X135059929Y-130155823D01*
X135006425Y-130110928D01*
X134967099Y-130051819D01*
X134966177Y-129993697D01*
X134932775Y-130009596D01*
X134862350Y-130000608D01*
X134852167Y-129995593D01*
X134724410Y-129925357D01*
X134724398Y-129925352D01*
X134719005Y-129922387D01*
X134521139Y-129859621D01*
X134515022Y-129858935D01*
X134515018Y-129858934D01*
X134438402Y-129850341D01*
X134359587Y-129841500D01*
X133147763Y-129841500D01*
X133144707Y-129841800D01*
X133144700Y-129841800D01*
X132999534Y-129856034D01*
X132999531Y-129856035D01*
X132993408Y-129856635D01*
X132882929Y-129889990D01*
X132800593Y-129914848D01*
X132800590Y-129914849D01*
X132794685Y-129916632D01*
X132789240Y-129919527D01*
X132789238Y-129919528D01*
X132616847Y-130011191D01*
X132616845Y-130011192D01*
X132611401Y-130014087D01*
X132563045Y-130053525D01*
X132455311Y-130141390D01*
X132455308Y-130141393D01*
X132450536Y-130145285D01*
X132446608Y-130150033D01*
X132446607Y-130150034D01*
X132441818Y-130155823D01*
X132318217Y-130305230D01*
X132315288Y-130310647D01*
X132315286Y-130310650D01*
X132222416Y-130482410D01*
X132222414Y-130482415D01*
X132219486Y-130487830D01*
X132158102Y-130686129D01*
X132157458Y-130692254D01*
X132157458Y-130692255D01*
X132145015Y-130810650D01*
X132136404Y-130892575D01*
X118540624Y-130892575D01*
X118096815Y-130448766D01*
X118085948Y-130436375D01*
X118071513Y-130417563D01*
X118066487Y-130411013D01*
X118034575Y-130386526D01*
X118034572Y-130386523D01*
X117997943Y-130358416D01*
X117945929Y-130318504D01*
X117945926Y-130318502D01*
X117939376Y-130313476D01*
X117791351Y-130252162D01*
X117783164Y-130251084D01*
X117783163Y-130251084D01*
X117771958Y-130249609D01*
X117740762Y-130245502D01*
X117672385Y-130236500D01*
X117672382Y-130236500D01*
X117672374Y-130236499D01*
X117640689Y-130232328D01*
X117632500Y-130231250D01*
X117600807Y-130235422D01*
X117584364Y-130236500D01*
X114901984Y-130236500D01*
X114885541Y-130235422D01*
X114853848Y-130231250D01*
X114845659Y-130232328D01*
X114813974Y-130236499D01*
X114813965Y-130236500D01*
X114813963Y-130236500D01*
X114813957Y-130236501D01*
X114813955Y-130236501D01*
X114714391Y-130249609D01*
X114703184Y-130251084D01*
X114703182Y-130251085D01*
X114694997Y-130252162D01*
X114644120Y-130273236D01*
X114554600Y-130310316D01*
X114554598Y-130310317D01*
X114546972Y-130313476D01*
X114540422Y-130318502D01*
X114490727Y-130356635D01*
X114451777Y-130386523D01*
X114419861Y-130411013D01*
X114405922Y-130429179D01*
X114400395Y-130436382D01*
X114389527Y-130448774D01*
X111118771Y-133719530D01*
X111106380Y-133730397D01*
X111087566Y-133744833D01*
X111087563Y-133744836D01*
X111081013Y-133749862D01*
X111075987Y-133756412D01*
X111075983Y-133756416D01*
X111056524Y-133781776D01*
X111056523Y-133781778D01*
X110983476Y-133876973D01*
X110980317Y-133884599D01*
X110980316Y-133884601D01*
X110949706Y-133958500D01*
X110927305Y-134012582D01*
X110922162Y-134024999D01*
X110921085Y-134033183D01*
X110921084Y-134033185D01*
X110911305Y-134107469D01*
X110906500Y-134143964D01*
X110906500Y-134143969D01*
X110901250Y-134183849D01*
X110902328Y-134192037D01*
X110905422Y-134215539D01*
X110906500Y-134231985D01*
X110906500Y-139316864D01*
X110905422Y-139333307D01*
X110901250Y-139365000D01*
X86447067Y-139365000D01*
X86363432Y-139260980D01*
X86354848Y-139252214D01*
X86306140Y-139211342D01*
X86266814Y-139152232D01*
X86265892Y-139094111D01*
X86232492Y-139110010D01*
X86162066Y-139101023D01*
X86151882Y-139096008D01*
X86024202Y-139025816D01*
X86012938Y-139020988D01*
X85826905Y-138961975D01*
X85814916Y-138959427D01*
X85663053Y-138942393D01*
X85656029Y-138942000D01*
X85322115Y-138942000D01*
X85306876Y-138946475D01*
X85305671Y-138947865D01*
X85304000Y-138955548D01*
X85304000Y-139727885D01*
X84796000Y-139727885D01*
X84796000Y-138960115D01*
X84791525Y-138944876D01*
X84790135Y-138943671D01*
X84782452Y-138942000D01*
X84450876Y-138942000D01*
X84444728Y-138942301D01*
X84299637Y-138956527D01*
X84298727Y-138956707D01*
X84298244Y-138956663D01*
X84293506Y-138957128D01*
X84293418Y-138956227D01*
X84228018Y-138950318D01*
X84171989Y-138906715D01*
X84148771Y-138844527D01*
X84145341Y-138806836D01*
X84145340Y-138806833D01*
X84144782Y-138800697D01*
X84142298Y-138792255D01*
X84087912Y-138607469D01*
X84086173Y-138601560D01*
X83990001Y-138417600D01*
X83859929Y-138255823D01*
X83847371Y-138245285D01*
X83705629Y-138126350D01*
X83700911Y-138122391D01*
X83695519Y-138119427D01*
X83695515Y-138119424D01*
X83646677Y-138092575D01*
X85936404Y-138092575D01*
X85938856Y-138119513D01*
X85952856Y-138273345D01*
X85955218Y-138299303D01*
X85956956Y-138305209D01*
X85956957Y-138305213D01*
X85996531Y-138439674D01*
X86013827Y-138498440D01*
X86109999Y-138682400D01*
X86113859Y-138687200D01*
X86113859Y-138687201D01*
X86115587Y-138689350D01*
X86240071Y-138844177D01*
X86289281Y-138885469D01*
X86293574Y-138889071D01*
X86332901Y-138948181D01*
X86333823Y-139006303D01*
X86367225Y-138990404D01*
X86437650Y-138999392D01*
X86447833Y-139004407D01*
X86575590Y-139074643D01*
X86575602Y-139074648D01*
X86580995Y-139077613D01*
X86778861Y-139140379D01*
X86784978Y-139141065D01*
X86784982Y-139141066D01*
X86861598Y-139149659D01*
X86940413Y-139158500D01*
X88152237Y-139158500D01*
X88155293Y-139158200D01*
X88155300Y-139158200D01*
X88300466Y-139143966D01*
X88300469Y-139143965D01*
X88306592Y-139143365D01*
X88469732Y-139094111D01*
X88499407Y-139085152D01*
X88499410Y-139085151D01*
X88505315Y-139083368D01*
X88512635Y-139079476D01*
X88683153Y-138988809D01*
X88683155Y-138988808D01*
X88688599Y-138985913D01*
X88748471Y-138937083D01*
X88844689Y-138858610D01*
X88844692Y-138858607D01*
X88849464Y-138854715D01*
X88857893Y-138844527D01*
X88977855Y-138699518D01*
X88981783Y-138694770D01*
X88984714Y-138689350D01*
X89077584Y-138517590D01*
X89077586Y-138517585D01*
X89080514Y-138512170D01*
X89141898Y-138313871D01*
X89143429Y-138299303D01*
X89162952Y-138113554D01*
X89162952Y-138113552D01*
X89163596Y-138107425D01*
X89154391Y-138006283D01*
X89145341Y-137906836D01*
X89145340Y-137906833D01*
X89144782Y-137900697D01*
X89142298Y-137892255D01*
X89087912Y-137707469D01*
X89086173Y-137701560D01*
X88990001Y-137517600D01*
X88859929Y-137355823D01*
X88853947Y-137350803D01*
X88705629Y-137226350D01*
X88700911Y-137222391D01*
X88695519Y-137219427D01*
X88695515Y-137219424D01*
X88524402Y-137125354D01*
X88519005Y-137122387D01*
X88321139Y-137059621D01*
X88315022Y-137058935D01*
X88315018Y-137058934D01*
X88238402Y-137050341D01*
X88159587Y-137041500D01*
X86947763Y-137041500D01*
X86944707Y-137041800D01*
X86944700Y-137041800D01*
X86799534Y-137056034D01*
X86799531Y-137056035D01*
X86793408Y-137056635D01*
X86661454Y-137096474D01*
X86600593Y-137114848D01*
X86600590Y-137114849D01*
X86594685Y-137116632D01*
X86589240Y-137119527D01*
X86589238Y-137119528D01*
X86416847Y-137211191D01*
X86416845Y-137211192D01*
X86411401Y-137214087D01*
X86370673Y-137247304D01*
X86255311Y-137341390D01*
X86255308Y-137341393D01*
X86250536Y-137345285D01*
X86246608Y-137350033D01*
X86246607Y-137350034D01*
X86161636Y-137452746D01*
X86118217Y-137505230D01*
X86115288Y-137510647D01*
X86115286Y-137510650D01*
X86022416Y-137682410D01*
X86022414Y-137682415D01*
X86019486Y-137687830D01*
X85958102Y-137886129D01*
X85957458Y-137892254D01*
X85957458Y-137892255D01*
X85945474Y-138006283D01*
X85936404Y-138092575D01*
X83646677Y-138092575D01*
X83524402Y-138025354D01*
X83519005Y-138022387D01*
X83321139Y-137959621D01*
X83315022Y-137958935D01*
X83315018Y-137958934D01*
X83238402Y-137950341D01*
X83159587Y-137941500D01*
X81947763Y-137941500D01*
X81944707Y-137941800D01*
X81944700Y-137941800D01*
X81799534Y-137956034D01*
X81799531Y-137956035D01*
X81793408Y-137956635D01*
X81661454Y-137996474D01*
X81600593Y-138014848D01*
X81600590Y-138014849D01*
X81594685Y-138016632D01*
X81589240Y-138019527D01*
X81589238Y-138019528D01*
X81416847Y-138111191D01*
X81416845Y-138111192D01*
X81411401Y-138114087D01*
X81361402Y-138154865D01*
X81255311Y-138241390D01*
X81255308Y-138241393D01*
X81250536Y-138245285D01*
X81246608Y-138250033D01*
X81246607Y-138250034D01*
X81210927Y-138293164D01*
X81118217Y-138405230D01*
X81115288Y-138410647D01*
X81115286Y-138410650D01*
X81022416Y-138582410D01*
X81022414Y-138582415D01*
X81019486Y-138587830D01*
X80958102Y-138786129D01*
X80957458Y-138792254D01*
X80957458Y-138792255D01*
X80939816Y-138960115D01*
X80936404Y-138992575D01*
X80508500Y-138992575D01*
X80508500Y-135799124D01*
X89792000Y-135799124D01*
X89792301Y-135805272D01*
X89806527Y-135950361D01*
X89808910Y-135962396D01*
X89865317Y-136149223D01*
X89869992Y-136160565D01*
X89961612Y-136332879D01*
X89968399Y-136343095D01*
X90091747Y-136494335D01*
X90100391Y-136503039D01*
X90250763Y-136627438D01*
X90260931Y-136634297D01*
X90432607Y-136727121D01*
X90443907Y-136731871D01*
X90578693Y-136773595D01*
X90592795Y-136773801D01*
X90596000Y-136767045D01*
X90596000Y-136760047D01*
X91104000Y-136760047D01*
X91107973Y-136773578D01*
X91115768Y-136774698D01*
X91242342Y-136737446D01*
X91253710Y-136732853D01*
X91426666Y-136642434D01*
X91436928Y-136635718D01*
X91589020Y-136513432D01*
X91597786Y-136504848D01*
X91723236Y-136355344D01*
X91730160Y-136345233D01*
X91824184Y-136174202D01*
X91829012Y-136162938D01*
X91888025Y-135976905D01*
X91890573Y-135964916D01*
X91907607Y-135813053D01*
X91908000Y-135806029D01*
X91908000Y-135472115D01*
X91903525Y-135456876D01*
X91902135Y-135455671D01*
X91894452Y-135454000D01*
X91122115Y-135454000D01*
X91106876Y-135458475D01*
X91105671Y-135459865D01*
X91104000Y-135467548D01*
X91104000Y-136760047D01*
X90596000Y-136760047D01*
X90596000Y-135472115D01*
X90591525Y-135456876D01*
X90590135Y-135455671D01*
X90582452Y-135454000D01*
X89810115Y-135454000D01*
X89794876Y-135458475D01*
X89793671Y-135459865D01*
X89792000Y-135467548D01*
X89792000Y-135799124D01*
X80508500Y-135799124D01*
X80508500Y-134492575D01*
X81486404Y-134492575D01*
X81505218Y-134699303D01*
X81506956Y-134705209D01*
X81506957Y-134705213D01*
X81527262Y-134774202D01*
X81563827Y-134898440D01*
X81659999Y-135082400D01*
X81790071Y-135244177D01*
X81794788Y-135248135D01*
X81794790Y-135248137D01*
X81898681Y-135335312D01*
X81949089Y-135377609D01*
X81954481Y-135380573D01*
X81954485Y-135380576D01*
X82112687Y-135467548D01*
X82130995Y-135477613D01*
X82328861Y-135540379D01*
X82334978Y-135541065D01*
X82334982Y-135541066D01*
X82411598Y-135549659D01*
X82490413Y-135558500D01*
X82602237Y-135558500D01*
X82605293Y-135558200D01*
X82605300Y-135558200D01*
X82750466Y-135543966D01*
X82750469Y-135543965D01*
X82756592Y-135543365D01*
X82898630Y-135500482D01*
X82949407Y-135485152D01*
X82949410Y-135485151D01*
X82955315Y-135483368D01*
X82962635Y-135479476D01*
X83133153Y-135388809D01*
X83133155Y-135388808D01*
X83138599Y-135385913D01*
X83198471Y-135337083D01*
X83294689Y-135258610D01*
X83294692Y-135258607D01*
X83299464Y-135254715D01*
X83328660Y-135219424D01*
X83427855Y-135099518D01*
X83431783Y-135094770D01*
X83435876Y-135087201D01*
X83527584Y-134917590D01*
X83527586Y-134917585D01*
X83530514Y-134912170D01*
X83591898Y-134713871D01*
X83593429Y-134699303D01*
X83612952Y-134513554D01*
X83612952Y-134513552D01*
X83613596Y-134507425D01*
X83612245Y-134492575D01*
X86486404Y-134492575D01*
X86505218Y-134699303D01*
X86506956Y-134705209D01*
X86506957Y-134705213D01*
X86527262Y-134774202D01*
X86563827Y-134898440D01*
X86659999Y-135082400D01*
X86790071Y-135244177D01*
X86794788Y-135248135D01*
X86794790Y-135248137D01*
X86898681Y-135335312D01*
X86949089Y-135377609D01*
X86954481Y-135380573D01*
X86954485Y-135380576D01*
X87112687Y-135467548D01*
X87130995Y-135477613D01*
X87328861Y-135540379D01*
X87334978Y-135541065D01*
X87334982Y-135541066D01*
X87411598Y-135549659D01*
X87490413Y-135558500D01*
X87602237Y-135558500D01*
X87605293Y-135558200D01*
X87605300Y-135558200D01*
X87750466Y-135543966D01*
X87750469Y-135543965D01*
X87756592Y-135543365D01*
X87898630Y-135500482D01*
X87949407Y-135485152D01*
X87949410Y-135485151D01*
X87955315Y-135483368D01*
X87962635Y-135479476D01*
X88133153Y-135388809D01*
X88133155Y-135388808D01*
X88138599Y-135385913D01*
X88198471Y-135337083D01*
X88294689Y-135258610D01*
X88294692Y-135258607D01*
X88299464Y-135254715D01*
X88328660Y-135219424D01*
X88427855Y-135099518D01*
X88431783Y-135094770D01*
X88435876Y-135087201D01*
X88527584Y-134917590D01*
X88527586Y-134917585D01*
X88530514Y-134912170D01*
X88591898Y-134713871D01*
X88593429Y-134699303D01*
X88612952Y-134513554D01*
X88612952Y-134513552D01*
X88613596Y-134507425D01*
X88602195Y-134382150D01*
X88595341Y-134306836D01*
X88595340Y-134306833D01*
X88594782Y-134300697D01*
X88592298Y-134292255D01*
X88537912Y-134107469D01*
X88536173Y-134101560D01*
X88440001Y-133917600D01*
X88309929Y-133755823D01*
X88297371Y-133745285D01*
X88180321Y-133647069D01*
X88150911Y-133622391D01*
X88145519Y-133619427D01*
X88145515Y-133619424D01*
X87974402Y-133525354D01*
X87969005Y-133522387D01*
X87771139Y-133459621D01*
X87765022Y-133458935D01*
X87765018Y-133458934D01*
X87688402Y-133450341D01*
X87609587Y-133441500D01*
X87497763Y-133441500D01*
X87494707Y-133441800D01*
X87494700Y-133441800D01*
X87349534Y-133456034D01*
X87349531Y-133456035D01*
X87343408Y-133456635D01*
X87249305Y-133485046D01*
X87150593Y-133514848D01*
X87150590Y-133514849D01*
X87144685Y-133516632D01*
X87139240Y-133519527D01*
X87139238Y-133519528D01*
X86966847Y-133611191D01*
X86966845Y-133611192D01*
X86961401Y-133614087D01*
X86917409Y-133649966D01*
X86805311Y-133741390D01*
X86805308Y-133741393D01*
X86800536Y-133745285D01*
X86796608Y-133750033D01*
X86796607Y-133750034D01*
X86741201Y-133817008D01*
X86668217Y-133905230D01*
X86665288Y-133910647D01*
X86665286Y-133910650D01*
X86572416Y-134082410D01*
X86572414Y-134082415D01*
X86569486Y-134087830D01*
X86508102Y-134286129D01*
X86507458Y-134292254D01*
X86507458Y-134292255D01*
X86492182Y-134437604D01*
X86486404Y-134492575D01*
X83612245Y-134492575D01*
X83602195Y-134382150D01*
X83595341Y-134306836D01*
X83595340Y-134306833D01*
X83594782Y-134300697D01*
X83592298Y-134292255D01*
X83537912Y-134107469D01*
X83536173Y-134101560D01*
X83440001Y-133917600D01*
X83309929Y-133755823D01*
X83297371Y-133745285D01*
X83180321Y-133647069D01*
X83150911Y-133622391D01*
X83145519Y-133619427D01*
X83145515Y-133619424D01*
X82974402Y-133525354D01*
X82969005Y-133522387D01*
X82771139Y-133459621D01*
X82765022Y-133458935D01*
X82765018Y-133458934D01*
X82688402Y-133450341D01*
X82609587Y-133441500D01*
X82497763Y-133441500D01*
X82494707Y-133441800D01*
X82494700Y-133441800D01*
X82349534Y-133456034D01*
X82349531Y-133456035D01*
X82343408Y-133456635D01*
X82249305Y-133485046D01*
X82150593Y-133514848D01*
X82150590Y-133514849D01*
X82144685Y-133516632D01*
X82139240Y-133519527D01*
X82139238Y-133519528D01*
X81966847Y-133611191D01*
X81966845Y-133611192D01*
X81961401Y-133614087D01*
X81917409Y-133649966D01*
X81805311Y-133741390D01*
X81805308Y-133741393D01*
X81800536Y-133745285D01*
X81796608Y-133750033D01*
X81796607Y-133750034D01*
X81741201Y-133817008D01*
X81668217Y-133905230D01*
X81665288Y-133910647D01*
X81665286Y-133910650D01*
X81572416Y-134082410D01*
X81572414Y-134082415D01*
X81569486Y-134087830D01*
X81508102Y-134286129D01*
X81507458Y-134292254D01*
X81507458Y-134292255D01*
X81492182Y-134437604D01*
X81486404Y-134492575D01*
X80508500Y-134492575D01*
X80508500Y-131392575D01*
X87036404Y-131392575D01*
X87038313Y-131413554D01*
X87054584Y-131592334D01*
X87055218Y-131599303D01*
X87056956Y-131605209D01*
X87056957Y-131605213D01*
X87100473Y-131753068D01*
X87113827Y-131798440D01*
X87209999Y-131982400D01*
X87340071Y-132144177D01*
X87344788Y-132148135D01*
X87344790Y-132148137D01*
X87404341Y-132198106D01*
X87499089Y-132277609D01*
X87504481Y-132280573D01*
X87504485Y-132280576D01*
X87617903Y-132342928D01*
X87680995Y-132377613D01*
X87878861Y-132440379D01*
X87884978Y-132441065D01*
X87884982Y-132441066D01*
X87961598Y-132449659D01*
X88040413Y-132458500D01*
X88957663Y-132458500D01*
X89025784Y-132478502D01*
X89072277Y-132532158D01*
X89082381Y-132602432D01*
X89078028Y-132621758D01*
X89058102Y-132686129D01*
X89057458Y-132692254D01*
X89057458Y-132692255D01*
X89042239Y-132837062D01*
X89036404Y-132892575D01*
X89038313Y-132913554D01*
X89049374Y-133035084D01*
X89055218Y-133099303D01*
X89056956Y-133105209D01*
X89056957Y-133105213D01*
X89088772Y-133213310D01*
X89113827Y-133298440D01*
X89209999Y-133482400D01*
X89340071Y-133644177D01*
X89344788Y-133648135D01*
X89344790Y-133648137D01*
X89410738Y-133703474D01*
X89499089Y-133777609D01*
X89504481Y-133780573D01*
X89504485Y-133780576D01*
X89570755Y-133817008D01*
X89680995Y-133877613D01*
X89686868Y-133879476D01*
X89863662Y-133935558D01*
X89922546Y-133975221D01*
X89950639Y-134040423D01*
X89935979Y-134116361D01*
X89875816Y-134225798D01*
X89870988Y-134237062D01*
X89811975Y-134423095D01*
X89809427Y-134435084D01*
X89792393Y-134586947D01*
X89792000Y-134593971D01*
X89792000Y-134927885D01*
X89796475Y-134943124D01*
X89797865Y-134944329D01*
X89805548Y-134946000D01*
X91889885Y-134946000D01*
X91905124Y-134941525D01*
X91906329Y-134940135D01*
X91908000Y-134932452D01*
X91908000Y-134600876D01*
X91907699Y-134594728D01*
X91893473Y-134449639D01*
X91891090Y-134437604D01*
X91834683Y-134250777D01*
X91830008Y-134239435D01*
X91738388Y-134067121D01*
X91731601Y-134056905D01*
X91691629Y-134007895D01*
X91664075Y-133942463D01*
X91676271Y-133872521D01*
X91730117Y-133817009D01*
X91756461Y-133803001D01*
X91783153Y-133788809D01*
X91783155Y-133788808D01*
X91788599Y-133785913D01*
X91848471Y-133737083D01*
X91944689Y-133658610D01*
X91944692Y-133658607D01*
X91949464Y-133654715D01*
X91955785Y-133647075D01*
X92047272Y-133536486D01*
X92081783Y-133494770D01*
X92087042Y-133485044D01*
X92177584Y-133317590D01*
X92177586Y-133317585D01*
X92180514Y-133312170D01*
X92241898Y-133113871D01*
X92243429Y-133099303D01*
X92262952Y-132913554D01*
X92262952Y-132913552D01*
X92263596Y-132907425D01*
X92244782Y-132700697D01*
X92242298Y-132692255D01*
X92187912Y-132507469D01*
X92186173Y-132501560D01*
X92090001Y-132317600D01*
X91959929Y-132155823D01*
X91950770Y-132148137D01*
X91805629Y-132026350D01*
X91800911Y-132022391D01*
X91795519Y-132019427D01*
X91795515Y-132019424D01*
X91624402Y-131925354D01*
X91619005Y-131922387D01*
X91421139Y-131859621D01*
X91415022Y-131858935D01*
X91415018Y-131858934D01*
X91338402Y-131850341D01*
X91259587Y-131841500D01*
X90342337Y-131841500D01*
X90274216Y-131821498D01*
X90227723Y-131767842D01*
X90217619Y-131697568D01*
X90221972Y-131678241D01*
X90228049Y-131658610D01*
X90241898Y-131613871D01*
X90243735Y-131596391D01*
X90262952Y-131413554D01*
X90262952Y-131413552D01*
X90263596Y-131407425D01*
X90244782Y-131200697D01*
X90246319Y-131200557D01*
X90252470Y-131137442D01*
X90296466Y-131081721D01*
X90369352Y-131058500D01*
X91252237Y-131058500D01*
X91255293Y-131058200D01*
X91255300Y-131058200D01*
X91400466Y-131043966D01*
X91400469Y-131043965D01*
X91406592Y-131043365D01*
X91571037Y-130993717D01*
X91599407Y-130985152D01*
X91599410Y-130985151D01*
X91605315Y-130983368D01*
X91612635Y-130979476D01*
X91783153Y-130888809D01*
X91783155Y-130888808D01*
X91788599Y-130885913D01*
X91880881Y-130810650D01*
X91944689Y-130758610D01*
X91944692Y-130758607D01*
X91949464Y-130754715D01*
X92081783Y-130594770D01*
X92085876Y-130587201D01*
X92177584Y-130417590D01*
X92177586Y-130417585D01*
X92180514Y-130412170D01*
X92241898Y-130213871D01*
X92242808Y-130205213D01*
X92262952Y-130013554D01*
X92262952Y-130013552D01*
X92263596Y-130007425D01*
X92253726Y-129898977D01*
X92245341Y-129806836D01*
X92245340Y-129806833D01*
X92244782Y-129800697D01*
X92242298Y-129792255D01*
X92187912Y-129607469D01*
X92186173Y-129601560D01*
X92090001Y-129417600D01*
X91967925Y-129265768D01*
X134675302Y-129265768D01*
X134712554Y-129392342D01*
X134717147Y-129403710D01*
X134807566Y-129576666D01*
X134814282Y-129586928D01*
X134936568Y-129739020D01*
X134945152Y-129747786D01*
X134993860Y-129788658D01*
X135033186Y-129847768D01*
X135034108Y-129905889D01*
X135067508Y-129889990D01*
X135137934Y-129898977D01*
X135148118Y-129903992D01*
X135275798Y-129974184D01*
X135287062Y-129979012D01*
X135473095Y-130038025D01*
X135485084Y-130040573D01*
X135636947Y-130057607D01*
X135643971Y-130058000D01*
X135977885Y-130058000D01*
X135993124Y-130053525D01*
X135994329Y-130052135D01*
X135996000Y-130044452D01*
X135996000Y-130039885D01*
X136504000Y-130039885D01*
X136508475Y-130055124D01*
X136509865Y-130056329D01*
X136517548Y-130058000D01*
X136849124Y-130058000D01*
X136855272Y-130057699D01*
X137000363Y-130043473D01*
X137001273Y-130043293D01*
X137001756Y-130043337D01*
X137006494Y-130042872D01*
X137006582Y-130043773D01*
X137071982Y-130049682D01*
X137128011Y-130093285D01*
X137151229Y-130155473D01*
X137155218Y-130199303D01*
X137156956Y-130205209D01*
X137156957Y-130205213D01*
X137197069Y-130341500D01*
X137213827Y-130398440D01*
X137309999Y-130582400D01*
X137440071Y-130744177D01*
X137444788Y-130748135D01*
X137444790Y-130748137D01*
X137507173Y-130800482D01*
X137599089Y-130877609D01*
X137604481Y-130880573D01*
X137604485Y-130880576D01*
X137664472Y-130913554D01*
X137780995Y-130977613D01*
X137978861Y-131040379D01*
X137984978Y-131041065D01*
X137984982Y-131041066D01*
X138061598Y-131049659D01*
X138140413Y-131058500D01*
X139352237Y-131058500D01*
X139355293Y-131058200D01*
X139355300Y-131058200D01*
X139500466Y-131043966D01*
X139500469Y-131043965D01*
X139506592Y-131043365D01*
X139671037Y-130993717D01*
X139699407Y-130985152D01*
X139699410Y-130985151D01*
X139705315Y-130983368D01*
X139712635Y-130979476D01*
X139883153Y-130888809D01*
X139883155Y-130888808D01*
X139888599Y-130885913D01*
X139980881Y-130810650D01*
X140044689Y-130758610D01*
X140044692Y-130758607D01*
X140049464Y-130754715D01*
X140181783Y-130594770D01*
X140185876Y-130587201D01*
X140277584Y-130417590D01*
X140277586Y-130417585D01*
X140280514Y-130412170D01*
X140341898Y-130213871D01*
X140342808Y-130205213D01*
X140362952Y-130013554D01*
X140362952Y-130013552D01*
X140363596Y-130007425D01*
X140353726Y-129898977D01*
X140345341Y-129806836D01*
X140345340Y-129806833D01*
X140344782Y-129800697D01*
X140342298Y-129792255D01*
X140287912Y-129607469D01*
X140286173Y-129601560D01*
X140190001Y-129417600D01*
X140059929Y-129255823D01*
X140047371Y-129245285D01*
X139925620Y-129143124D01*
X139900911Y-129122391D01*
X139895519Y-129119427D01*
X139895515Y-129119424D01*
X139724402Y-129025354D01*
X139719005Y-129022387D01*
X139521139Y-128959621D01*
X139515022Y-128958935D01*
X139515018Y-128958934D01*
X139438402Y-128950341D01*
X139359587Y-128941500D01*
X138147763Y-128941500D01*
X138144707Y-128941800D01*
X138144700Y-128941800D01*
X137999534Y-128956034D01*
X137999531Y-128956035D01*
X137997466Y-128956237D01*
X137997465Y-128956237D01*
X137993408Y-128956635D01*
X137993332Y-128955864D01*
X137927473Y-128949910D01*
X137871446Y-128906305D01*
X137848231Y-128844120D01*
X137844847Y-128806929D01*
X137842549Y-128794882D01*
X137787446Y-128607658D01*
X137782853Y-128596290D01*
X137692434Y-128423334D01*
X137685718Y-128413072D01*
X137563432Y-128260980D01*
X137554848Y-128252214D01*
X137405344Y-128126764D01*
X137395233Y-128119840D01*
X137224202Y-128025816D01*
X137212938Y-128020988D01*
X137026905Y-127961975D01*
X137014916Y-127959427D01*
X136863053Y-127942393D01*
X136856029Y-127942000D01*
X136522115Y-127942000D01*
X136506876Y-127946475D01*
X136505671Y-127947865D01*
X136504000Y-127955548D01*
X136504000Y-130039885D01*
X135996000Y-130039885D01*
X135996000Y-129272115D01*
X135991525Y-129256876D01*
X135990135Y-129255671D01*
X135982452Y-129254000D01*
X134689953Y-129254000D01*
X134676422Y-129257973D01*
X134675302Y-129265768D01*
X91967925Y-129265768D01*
X91959929Y-129255823D01*
X91947371Y-129245285D01*
X91825620Y-129143124D01*
X91800911Y-129122391D01*
X91795519Y-129119427D01*
X91795515Y-129119424D01*
X91624402Y-129025354D01*
X91619005Y-129022387D01*
X91421139Y-128959621D01*
X91415022Y-128958935D01*
X91415018Y-128958934D01*
X91338402Y-128950341D01*
X91259587Y-128941500D01*
X90047763Y-128941500D01*
X90044707Y-128941800D01*
X90044700Y-128941800D01*
X89899534Y-128956034D01*
X89899531Y-128956035D01*
X89893408Y-128956635D01*
X89769955Y-128993907D01*
X89700593Y-129014848D01*
X89700590Y-129014849D01*
X89694685Y-129016632D01*
X89689240Y-129019527D01*
X89689238Y-129019528D01*
X89516847Y-129111191D01*
X89516845Y-129111192D01*
X89511401Y-129114087D01*
X89475798Y-129143124D01*
X89355311Y-129241390D01*
X89355308Y-129241393D01*
X89350536Y-129245285D01*
X89218217Y-129405230D01*
X89215288Y-129410647D01*
X89215286Y-129410650D01*
X89122416Y-129582410D01*
X89122414Y-129582415D01*
X89119486Y-129587830D01*
X89058102Y-129786129D01*
X89057458Y-129792254D01*
X89057458Y-129792255D01*
X89037830Y-129979012D01*
X89036404Y-129992575D01*
X89047175Y-130110929D01*
X89055218Y-130199303D01*
X89053681Y-130199443D01*
X89047530Y-130262558D01*
X89003534Y-130318279D01*
X88930648Y-130341500D01*
X88047763Y-130341500D01*
X88044707Y-130341800D01*
X88044700Y-130341800D01*
X87899534Y-130356034D01*
X87899531Y-130356035D01*
X87893408Y-130356635D01*
X87794403Y-130386526D01*
X87700593Y-130414848D01*
X87700590Y-130414849D01*
X87694685Y-130416632D01*
X87689240Y-130419527D01*
X87689238Y-130419528D01*
X87516847Y-130511191D01*
X87516845Y-130511192D01*
X87511401Y-130514087D01*
X87506622Y-130517985D01*
X87355311Y-130641390D01*
X87355308Y-130641393D01*
X87350536Y-130645285D01*
X87346608Y-130650033D01*
X87346607Y-130650034D01*
X87311679Y-130692255D01*
X87218217Y-130805230D01*
X87215288Y-130810647D01*
X87215286Y-130810650D01*
X87122416Y-130982410D01*
X87122414Y-130982415D01*
X87119486Y-130987830D01*
X87058102Y-131186129D01*
X87057458Y-131192254D01*
X87057458Y-131192255D01*
X87045474Y-131306283D01*
X87036404Y-131392575D01*
X80508500Y-131392575D01*
X80508500Y-129665768D01*
X80975302Y-129665768D01*
X81012554Y-129792342D01*
X81017147Y-129803710D01*
X81107566Y-129976666D01*
X81114282Y-129986928D01*
X81236568Y-130139020D01*
X81245152Y-130147786D01*
X81394656Y-130273236D01*
X81404767Y-130280160D01*
X81575798Y-130374184D01*
X81587062Y-130379012D01*
X81773095Y-130438025D01*
X81785084Y-130440573D01*
X81936947Y-130457607D01*
X81943971Y-130458000D01*
X82277885Y-130458000D01*
X82293124Y-130453525D01*
X82294329Y-130452135D01*
X82296000Y-130444452D01*
X82296000Y-130439885D01*
X82804000Y-130439885D01*
X82808475Y-130455124D01*
X82809865Y-130456329D01*
X82817548Y-130458000D01*
X83149124Y-130458000D01*
X83155272Y-130457699D01*
X83300361Y-130443473D01*
X83312396Y-130441090D01*
X83499223Y-130384683D01*
X83510565Y-130380008D01*
X83682879Y-130288388D01*
X83693095Y-130281601D01*
X83844335Y-130158253D01*
X83853039Y-130149609D01*
X83977438Y-129999237D01*
X83984297Y-129989069D01*
X84077121Y-129817393D01*
X84081871Y-129806093D01*
X84123595Y-129671307D01*
X84123801Y-129657205D01*
X84117045Y-129654000D01*
X82822115Y-129654000D01*
X82806876Y-129658475D01*
X82805671Y-129659865D01*
X82804000Y-129667548D01*
X82804000Y-130439885D01*
X82296000Y-130439885D01*
X82296000Y-129672115D01*
X82291525Y-129656876D01*
X82290135Y-129655671D01*
X82282452Y-129654000D01*
X80989953Y-129654000D01*
X80976422Y-129657973D01*
X80975302Y-129665768D01*
X80508500Y-129665768D01*
X80508500Y-129142795D01*
X80976199Y-129142795D01*
X80982955Y-129146000D01*
X82277885Y-129146000D01*
X82293124Y-129141525D01*
X82294329Y-129140135D01*
X82296000Y-129132452D01*
X82296000Y-129127885D01*
X82804000Y-129127885D01*
X82808475Y-129143124D01*
X82809865Y-129144329D01*
X82817548Y-129146000D01*
X84110047Y-129146000D01*
X84123578Y-129142027D01*
X84124698Y-129134232D01*
X84087446Y-129007658D01*
X84082853Y-128996290D01*
X83992434Y-128823334D01*
X83985718Y-128813072D01*
X83929213Y-128742795D01*
X134676199Y-128742795D01*
X134682955Y-128746000D01*
X135977885Y-128746000D01*
X135993124Y-128741525D01*
X135994329Y-128740135D01*
X135996000Y-128732452D01*
X135996000Y-127960115D01*
X135991525Y-127944876D01*
X135990135Y-127943671D01*
X135982452Y-127942000D01*
X135650876Y-127942000D01*
X135644728Y-127942301D01*
X135499639Y-127956527D01*
X135487604Y-127958910D01*
X135300777Y-128015317D01*
X135289435Y-128019992D01*
X135117121Y-128111612D01*
X135106905Y-128118399D01*
X134955665Y-128241747D01*
X134946961Y-128250391D01*
X134822562Y-128400763D01*
X134815703Y-128410931D01*
X134722879Y-128582607D01*
X134718129Y-128593907D01*
X134676405Y-128728693D01*
X134676199Y-128742795D01*
X83929213Y-128742795D01*
X83863432Y-128660980D01*
X83854848Y-128652214D01*
X83705344Y-128526764D01*
X83695233Y-128519840D01*
X83524202Y-128425816D01*
X83512938Y-128420988D01*
X83326905Y-128361975D01*
X83314916Y-128359427D01*
X83163053Y-128342393D01*
X83156029Y-128342000D01*
X82822115Y-128342000D01*
X82806876Y-128346475D01*
X82805671Y-128347865D01*
X82804000Y-128355548D01*
X82804000Y-129127885D01*
X82296000Y-129127885D01*
X82296000Y-128360115D01*
X82291525Y-128344876D01*
X82290135Y-128343671D01*
X82282452Y-128342000D01*
X81950876Y-128342000D01*
X81944728Y-128342301D01*
X81799639Y-128356527D01*
X81787604Y-128358910D01*
X81600777Y-128415317D01*
X81589435Y-128419992D01*
X81417121Y-128511612D01*
X81406905Y-128518399D01*
X81255665Y-128641747D01*
X81246961Y-128650391D01*
X81122562Y-128800763D01*
X81115703Y-128810931D01*
X81022879Y-128982607D01*
X81018129Y-128993907D01*
X80976405Y-129128693D01*
X80976199Y-129142795D01*
X80508500Y-129142795D01*
X80508500Y-126845487D01*
X118591500Y-126845487D01*
X118631206Y-127032288D01*
X118708882Y-127206752D01*
X118821134Y-127361253D01*
X118963056Y-127489040D01*
X119128444Y-127584527D01*
X119310072Y-127643542D01*
X119316633Y-127644232D01*
X119316635Y-127644232D01*
X119369889Y-127649829D01*
X119452390Y-127658500D01*
X119547610Y-127658500D01*
X119630111Y-127649829D01*
X119683365Y-127644232D01*
X119683367Y-127644232D01*
X119689928Y-127643542D01*
X119871556Y-127584527D01*
X120036944Y-127489040D01*
X120178866Y-127361253D01*
X120291118Y-127206752D01*
X120368794Y-127032288D01*
X120408500Y-126845487D01*
X124891500Y-126845487D01*
X124931206Y-127032288D01*
X125008882Y-127206752D01*
X125121134Y-127361253D01*
X125263056Y-127489040D01*
X125428444Y-127584527D01*
X125610072Y-127643542D01*
X125616633Y-127644232D01*
X125616635Y-127644232D01*
X125669889Y-127649829D01*
X125752390Y-127658500D01*
X125847610Y-127658500D01*
X125930111Y-127649829D01*
X125983365Y-127644232D01*
X125983367Y-127644232D01*
X125989928Y-127643542D01*
X126171556Y-127584527D01*
X126336944Y-127489040D01*
X126478866Y-127361253D01*
X126591118Y-127206752D01*
X126668794Y-127032288D01*
X126708500Y-126845487D01*
X126708500Y-126654513D01*
X126668794Y-126467712D01*
X126591118Y-126293248D01*
X126478866Y-126138747D01*
X126336944Y-126010960D01*
X126171556Y-125915473D01*
X125989928Y-125856458D01*
X125983367Y-125855768D01*
X125983365Y-125855768D01*
X125930111Y-125850171D01*
X125847610Y-125841500D01*
X125752390Y-125841500D01*
X125669889Y-125850171D01*
X125616635Y-125855768D01*
X125616633Y-125855768D01*
X125610072Y-125856458D01*
X125428444Y-125915473D01*
X125263056Y-126010960D01*
X125121134Y-126138747D01*
X125008882Y-126293248D01*
X124931206Y-126467712D01*
X124891500Y-126654513D01*
X124891500Y-126845487D01*
X120408500Y-126845487D01*
X120408500Y-126654513D01*
X120368794Y-126467712D01*
X120291118Y-126293248D01*
X120178866Y-126138747D01*
X120036944Y-126010960D01*
X119871556Y-125915473D01*
X119689928Y-125856458D01*
X119683367Y-125855768D01*
X119683365Y-125855768D01*
X119630111Y-125850171D01*
X119547610Y-125841500D01*
X119452390Y-125841500D01*
X119369889Y-125850171D01*
X119316635Y-125855768D01*
X119316633Y-125855768D01*
X119310072Y-125856458D01*
X119128444Y-125915473D01*
X118963056Y-126010960D01*
X118821134Y-126138747D01*
X118708882Y-126293248D01*
X118631206Y-126467712D01*
X118591500Y-126654513D01*
X118591500Y-126845487D01*
X80508500Y-126845487D01*
X80508500Y-125634500D01*
X80528502Y-125566379D01*
X80582158Y-125519886D01*
X80634500Y-125508500D01*
X140515500Y-125508500D01*
X140583621Y-125528502D01*
G37*
%TD.AperFunction*%
%TD*%
M02*
