%TF.GenerationSoftware,KiCad,Pcbnew,(6.0.6)*%
%TF.CreationDate,2022-09-05T11:07:09-07:00*%
%TF.ProjectId,Nour-Core,4e6f7572-2d43-46f7-9265-2e6b69636164,rev?*%
%TF.SameCoordinates,Original*%
%TF.FileFunction,Paste,Top*%
%TF.FilePolarity,Positive*%
%FSLAX46Y46*%
G04 Gerber Fmt 4.6, Leading zero omitted, Abs format (unit mm)*
G04 Created by KiCad (PCBNEW (6.0.6)) date 2022-09-05 11:07:09*
%MOMM*%
%LPD*%
G01*
G04 APERTURE LIST*
G04 Aperture macros list*
%AMRoundRect*
0 Rectangle with rounded corners*
0 $1 Rounding radius*
0 $2 $3 $4 $5 $6 $7 $8 $9 X,Y pos of 4 corners*
0 Add a 4 corners polygon primitive as box body*
4,1,4,$2,$3,$4,$5,$6,$7,$8,$9,$2,$3,0*
0 Add four circle primitives for the rounded corners*
1,1,$1+$1,$2,$3*
1,1,$1+$1,$4,$5*
1,1,$1+$1,$6,$7*
1,1,$1+$1,$8,$9*
0 Add four rect primitives between the rounded corners*
20,1,$1+$1,$2,$3,$4,$5,0*
20,1,$1+$1,$4,$5,$6,$7,0*
20,1,$1+$1,$6,$7,$8,$9,0*
20,1,$1+$1,$8,$9,$2,$3,0*%
G04 Aperture macros list end*
%ADD10RoundRect,0.250000X0.250000X0.475000X-0.250000X0.475000X-0.250000X-0.475000X0.250000X-0.475000X0*%
%ADD11RoundRect,0.250000X0.262500X0.450000X-0.262500X0.450000X-0.262500X-0.450000X0.262500X-0.450000X0*%
%ADD12RoundRect,0.250000X-0.262500X-0.450000X0.262500X-0.450000X0.262500X0.450000X-0.262500X0.450000X0*%
%ADD13RoundRect,0.250000X-0.450000X0.262500X-0.450000X-0.262500X0.450000X-0.262500X0.450000X0.262500X0*%
%ADD14RoundRect,0.250000X0.450000X-0.262500X0.450000X0.262500X-0.450000X0.262500X-0.450000X-0.262500X0*%
%ADD15R,1.000000X1.450000*%
%ADD16R,0.650000X1.400000*%
%ADD17RoundRect,0.250000X-0.475000X0.250000X-0.475000X-0.250000X0.475000X-0.250000X0.475000X0.250000X0*%
%ADD18R,1.600000X1.250000*%
%ADD19RoundRect,0.250000X0.250000X1.000000X-0.250000X1.000000X-0.250000X-1.000000X0.250000X-1.000000X0*%
%ADD20R,0.200000X0.850000*%
%ADD21R,0.850000X0.200000*%
%ADD22R,4.250000X4.250000*%
%ADD23R,1.100000X0.600000*%
%ADD24RoundRect,0.250000X0.475000X-0.250000X0.475000X0.250000X-0.475000X0.250000X-0.475000X-0.250000X0*%
%ADD25C,0.220000*%
%ADD26RoundRect,0.150000X-0.150000X0.512500X-0.150000X-0.512500X0.150000X-0.512500X0.150000X0.512500X0*%
G04 APERTURE END LIST*
D10*
%TO.C,C6*%
X109600000Y-136050000D03*
X107700000Y-136050000D03*
%TD*%
D11*
%TO.C,R2*%
X110812500Y-143750000D03*
X108987500Y-143750000D03*
%TD*%
D12*
%TO.C,FB1*%
X107737500Y-138050000D03*
X109562500Y-138050000D03*
%TD*%
D13*
%TO.C,R12*%
X115650000Y-156837500D03*
X115650000Y-158662500D03*
%TD*%
D11*
%TO.C,R7*%
X103312500Y-134250000D03*
X101487500Y-134250000D03*
%TD*%
D14*
%TO.C,R6*%
X130650000Y-151912500D03*
X130650000Y-150087500D03*
%TD*%
D15*
%TO.C,SW2*%
X126012500Y-150425000D03*
X127712500Y-150425000D03*
X126012500Y-155575000D03*
X127712500Y-155575000D03*
D16*
X124837500Y-153000000D03*
%TD*%
D17*
%TO.C,C4*%
X108600000Y-140100000D03*
X108600000Y-142000000D03*
%TD*%
D14*
%TO.C,R5*%
X111450000Y-133062500D03*
X111450000Y-131237500D03*
%TD*%
D18*
%TO.C,Y2*%
X102500000Y-129650000D03*
X98800000Y-129650000D03*
X98800000Y-131850000D03*
X102500000Y-131850000D03*
%TD*%
D19*
%TO.C,SW1*%
X125650000Y-130500000D03*
X121650000Y-130500000D03*
X123650000Y-130500000D03*
%TD*%
D17*
%TO.C,C12*%
X105400000Y-129050000D03*
X105400000Y-130950000D03*
%TD*%
D10*
%TO.C,C16*%
X120100000Y-155200000D03*
X118200000Y-155200000D03*
%TD*%
%TO.C,C14*%
X120100000Y-150850000D03*
X118200000Y-150850000D03*
%TD*%
D20*
%TO.C,IC1*%
X115350000Y-147300000D03*
X114950000Y-147300000D03*
X114550000Y-147300000D03*
X114150000Y-147300000D03*
X113750000Y-147300000D03*
X113350000Y-147300000D03*
X112950000Y-147300000D03*
X112550000Y-147300000D03*
X112150000Y-147300000D03*
X111750000Y-147300000D03*
X111350000Y-147300000D03*
X110950000Y-147300000D03*
D21*
X110200000Y-148050000D03*
X110200000Y-148450000D03*
X110200000Y-148850000D03*
X110200000Y-149250000D03*
X110200000Y-149650000D03*
X110200000Y-150050000D03*
X110200000Y-150450000D03*
X110200000Y-150850000D03*
X110200000Y-151250000D03*
X110200000Y-151650000D03*
X110200000Y-152050000D03*
X110200000Y-152450000D03*
D20*
X110950000Y-153200000D03*
X111350000Y-153200000D03*
X111750000Y-153200000D03*
X112150000Y-153200000D03*
X112550000Y-153200000D03*
X112950000Y-153200000D03*
X113350000Y-153200000D03*
X113750000Y-153200000D03*
X114150000Y-153200000D03*
X114550000Y-153200000D03*
X114950000Y-153200000D03*
X115350000Y-153200000D03*
D21*
X116100000Y-152450000D03*
X116100000Y-152050000D03*
X116100000Y-151650000D03*
X116100000Y-151250000D03*
X116100000Y-150850000D03*
X116100000Y-150450000D03*
X116100000Y-150050000D03*
X116100000Y-149650000D03*
X116100000Y-149250000D03*
X116100000Y-148850000D03*
X116100000Y-148450000D03*
X116100000Y-148050000D03*
D22*
X113150000Y-150250000D03*
%TD*%
D11*
%TO.C,R3*%
X114312500Y-143750000D03*
X112487500Y-143750000D03*
%TD*%
D17*
%TO.C,C18*%
X111550000Y-156800000D03*
X111550000Y-158700000D03*
%TD*%
D10*
%TO.C,C13*%
X99850000Y-134250000D03*
X97950000Y-134250000D03*
%TD*%
%TO.C,C11*%
X99850000Y-137000000D03*
X97950000Y-137000000D03*
%TD*%
D23*
%TO.C,Y1*%
X102400000Y-138550000D03*
X102400000Y-137150000D03*
%TD*%
D12*
%TO.C,R1*%
X107737500Y-132050000D03*
X109562500Y-132050000D03*
%TD*%
D24*
%TO.C,C9*%
X130650000Y-156200000D03*
X130650000Y-154300000D03*
%TD*%
D25*
%TO.C,U1*%
X114350000Y-137750000D03*
X113950000Y-137750000D03*
X113550000Y-137750000D03*
X113150000Y-137750000D03*
X112750000Y-137750000D03*
X112350000Y-137750000D03*
X111950000Y-137750000D03*
X114350000Y-137350000D03*
X113950000Y-137350000D03*
X113550000Y-137350000D03*
X113150000Y-137350000D03*
X112750000Y-137350000D03*
X112350000Y-137350000D03*
X111950000Y-137350000D03*
X114350000Y-136950000D03*
X113950000Y-136950000D03*
X113550000Y-136950000D03*
X113150000Y-136950000D03*
X112750000Y-136950000D03*
X112350000Y-136950000D03*
X111950000Y-136950000D03*
X114350000Y-136550000D03*
X113950000Y-136550000D03*
X113550000Y-136550000D03*
X113150000Y-136550000D03*
X112750000Y-136550000D03*
X112350000Y-136550000D03*
X111950000Y-136550000D03*
X114350000Y-136150000D03*
X113950000Y-136150000D03*
X113550000Y-136150000D03*
X113150000Y-136150000D03*
X112750000Y-136150000D03*
X112350000Y-136150000D03*
X111950000Y-136150000D03*
X114350000Y-135750000D03*
X113950000Y-135750000D03*
X113550000Y-135750000D03*
X113150000Y-135750000D03*
X112750000Y-135750000D03*
X112350000Y-135750000D03*
X111950000Y-135750000D03*
X114350000Y-135350000D03*
X113950000Y-135350000D03*
X113550000Y-135350000D03*
X113150000Y-135350000D03*
X112750000Y-135350000D03*
X112350000Y-135350000D03*
X111950000Y-135350000D03*
%TD*%
D11*
%TO.C,R8*%
X120062500Y-148600000D03*
X118237500Y-148600000D03*
%TD*%
D17*
%TO.C,C8*%
X131474878Y-143050000D03*
X131474878Y-144950000D03*
%TD*%
D10*
%TO.C,C20*%
X107100000Y-151900000D03*
X105200000Y-151900000D03*
%TD*%
D13*
%TO.C,R9*%
X132650000Y-154337500D03*
X132650000Y-156162500D03*
%TD*%
D10*
%TO.C,C15*%
X120100000Y-153150000D03*
X118200000Y-153150000D03*
%TD*%
D17*
%TO.C,C7*%
X137474878Y-143100000D03*
X137474878Y-145000000D03*
%TD*%
D13*
%TO.C,R13*%
X88400000Y-150337500D03*
X88400000Y-152162500D03*
%TD*%
%TO.C,R14*%
X88400000Y-154737500D03*
X88400000Y-156562500D03*
%TD*%
D10*
%TO.C,C19*%
X107100000Y-149900000D03*
X105200000Y-149900000D03*
%TD*%
D17*
%TO.C,C17*%
X113550000Y-156800000D03*
X113550000Y-158700000D03*
%TD*%
D14*
%TO.C,R4*%
X119250000Y-132462500D03*
X119250000Y-130637500D03*
%TD*%
D17*
%TO.C,C2*%
X112600000Y-140100000D03*
X112600000Y-142000000D03*
%TD*%
%TO.C,C21*%
X110600000Y-140100000D03*
X110600000Y-142000000D03*
%TD*%
D24*
%TO.C,C3*%
X113450000Y-133100000D03*
X113450000Y-131200000D03*
%TD*%
D26*
%TO.C,U2*%
X135424878Y-142862500D03*
X134474878Y-142862500D03*
X133524878Y-142862500D03*
X133524878Y-145137500D03*
X135424878Y-145137500D03*
%TD*%
D13*
%TO.C,R10*%
X132650000Y-150087500D03*
X132650000Y-151912500D03*
%TD*%
D10*
%TO.C,C5*%
X109600000Y-134050000D03*
X107700000Y-134050000D03*
%TD*%
D17*
%TO.C,C1*%
X114600000Y-140100000D03*
X114600000Y-142000000D03*
%TD*%
D10*
%TO.C,C10*%
X99850000Y-139000000D03*
X97950000Y-139000000D03*
%TD*%
D12*
%TO.C,R11*%
X118237500Y-146700000D03*
X120062500Y-146700000D03*
%TD*%
M02*
