M48
; DRILL file {KiCad (6.0.6)} date Mon 05 Sep 2022 11:07:06 AM PDT
; FORMAT={-:-/ absolute / inch / decimal}
; #@! TF.CreationDate,2022-09-05T11:07:06-07:00
; #@! TF.GenerationSoftware,Kicad,Pcbnew,(6.0.6)
; #@! TF.FileFunction,Plated,1,2,Blind
FMAT,2
INCH
; #@! TA.AperFunction,Plated,Buried,ViaDrill
T1C0.0047
; #@! TA.AperFunction,Plated,Buried,ViaDrill
T2C0.0059
%
G90
G05
T1
X4.4075Y-5.4232
X4.4232Y-5.376
X4.4232Y-5.3917
X4.4232Y-5.4075
X4.439Y-5.4075
X4.4547Y-5.4075
X4.4705Y-5.3445
X4.4705Y-5.4075
X4.4862Y-5.3445
X4.4862Y-5.3602
X4.4862Y-5.376
T2
X4.0315Y-5.3996
X4.0315Y-5.4547
X4.0674Y-5.2854
X4.1496Y-5.0807
X4.3484Y-5.3996
X4.3563Y-5.374
X4.3627Y-5.6594
X4.4286Y-5.6594
X4.5925Y-5.4724
X4.6083Y-5.9252
X4.6161Y-5.9528
X5.0453Y-5.8661
T0
M30
