%TF.GenerationSoftware,KiCad,Pcbnew,(6.0.6)*%
%TF.CreationDate,2022-09-05T11:07:09-07:00*%
%TF.ProjectId,Nour-Core,4e6f7572-2d43-46f7-9265-2e6b69636164,rev?*%
%TF.SameCoordinates,Original*%
%TF.FileFunction,Soldermask,Top*%
%TF.FilePolarity,Negative*%
%FSLAX46Y46*%
G04 Gerber Fmt 4.6, Leading zero omitted, Abs format (unit mm)*
G04 Created by KiCad (PCBNEW (6.0.6)) date 2022-09-05 11:07:09*
%MOMM*%
%LPD*%
G01*
G04 APERTURE LIST*
G04 Aperture macros list*
%AMRoundRect*
0 Rectangle with rounded corners*
0 $1 Rounding radius*
0 $2 $3 $4 $5 $6 $7 $8 $9 X,Y pos of 4 corners*
0 Add a 4 corners polygon primitive as box body*
4,1,4,$2,$3,$4,$5,$6,$7,$8,$9,$2,$3,0*
0 Add four circle primitives for the rounded corners*
1,1,$1+$1,$2,$3*
1,1,$1+$1,$4,$5*
1,1,$1+$1,$6,$7*
1,1,$1+$1,$8,$9*
0 Add four rect primitives between the rounded corners*
20,1,$1+$1,$2,$3,$4,$5,0*
20,1,$1+$1,$4,$5,$6,$7,0*
20,1,$1+$1,$6,$7,$8,$9,0*
20,1,$1+$1,$8,$9,$2,$3,0*%
G04 Aperture macros list end*
%ADD10RoundRect,0.250000X0.250000X0.475000X-0.250000X0.475000X-0.250000X-0.475000X0.250000X-0.475000X0*%
%ADD11RoundRect,0.250000X0.262500X0.450000X-0.262500X0.450000X-0.262500X-0.450000X0.262500X-0.450000X0*%
%ADD12RoundRect,0.250000X-0.262500X-0.450000X0.262500X-0.450000X0.262500X0.450000X-0.262500X0.450000X0*%
%ADD13RoundRect,0.250000X-0.450000X0.262500X-0.450000X-0.262500X0.450000X-0.262500X0.450000X0.262500X0*%
%ADD14C,0.650000*%
%ADD15O,2.216000X1.108000*%
%ADD16RoundRect,0.250000X0.450000X-0.262500X0.450000X0.262500X-0.450000X0.262500X-0.450000X-0.262500X0*%
%ADD17C,2.200000*%
%ADD18R,1.000000X1.450000*%
%ADD19R,0.650000X1.400000*%
%ADD20RoundRect,0.250000X-0.475000X0.250000X-0.475000X-0.250000X0.475000X-0.250000X0.475000X0.250000X0*%
%ADD21R,1.600000X1.250000*%
%ADD22C,0.800000*%
%ADD23RoundRect,0.250000X0.250000X1.000000X-0.250000X1.000000X-0.250000X-1.000000X0.250000X-1.000000X0*%
%ADD24C,1.524000*%
%ADD25R,0.200000X0.850000*%
%ADD26R,0.850000X0.200000*%
%ADD27R,4.250000X4.250000*%
%ADD28R,1.100000X0.600000*%
%ADD29RoundRect,0.250000X0.475000X-0.250000X0.475000X0.250000X-0.475000X0.250000X-0.475000X-0.250000X0*%
%ADD30C,0.220000*%
%ADD31C,1.100000*%
%ADD32O,1.100000X2.200000*%
%ADD33O,2.200000X1.100000*%
%ADD34R,1.000000X1.000000*%
%ADD35O,1.000000X1.000000*%
%ADD36RoundRect,0.150000X-0.150000X0.512500X-0.150000X-0.512500X0.150000X-0.512500X0.150000X0.512500X0*%
G04 APERTURE END LIST*
D10*
%TO.C,C6*%
X109600000Y-136050000D03*
X107700000Y-136050000D03*
%TD*%
D11*
%TO.C,R2*%
X110812500Y-143750000D03*
X108987500Y-143750000D03*
%TD*%
D12*
%TO.C,FB1*%
X107737500Y-138050000D03*
X109562500Y-138050000D03*
%TD*%
D13*
%TO.C,R12*%
X115650000Y-156837500D03*
X115650000Y-158662500D03*
%TD*%
D11*
%TO.C,R7*%
X103312500Y-134250000D03*
X101487500Y-134250000D03*
%TD*%
D14*
%TO.C,J4*%
X86275000Y-150275000D03*
X86275000Y-151125000D03*
X86275000Y-151975000D03*
X86275000Y-152825000D03*
X86275000Y-153675000D03*
X86275000Y-154525000D03*
X86275000Y-155375000D03*
X86275000Y-156225000D03*
X84925000Y-156225000D03*
X84925000Y-155375000D03*
X84925000Y-154525000D03*
X84925000Y-153675000D03*
X84925000Y-152825000D03*
X84925000Y-151975000D03*
X84925000Y-151125000D03*
X84925000Y-150275000D03*
D15*
X85295000Y-148925000D03*
X85295000Y-157575000D03*
X81915000Y-148925000D03*
X81915000Y-157575000D03*
%TD*%
D16*
%TO.C,R6*%
X130650000Y-151912500D03*
X130650000Y-150087500D03*
%TD*%
D17*
%TO.C,REF\u002A\u002A*%
X101550000Y-143250000D03*
%TD*%
D18*
%TO.C,SW2*%
X126012500Y-150425000D03*
X127712500Y-150425000D03*
X126012500Y-155575000D03*
X127712500Y-155575000D03*
D19*
X124837500Y-153000000D03*
%TD*%
D20*
%TO.C,C4*%
X108600000Y-140100000D03*
X108600000Y-142000000D03*
%TD*%
D16*
%TO.C,R5*%
X111450000Y-133062500D03*
X111450000Y-131237500D03*
%TD*%
D21*
%TO.C,Y2*%
X102500000Y-129650000D03*
X98800000Y-129650000D03*
X98800000Y-131850000D03*
X102500000Y-131850000D03*
%TD*%
D22*
%TO.C,SW1*%
X125800000Y-126750000D03*
X119500000Y-126750000D03*
D23*
X125650000Y-130500000D03*
X121650000Y-130500000D03*
X123650000Y-130500000D03*
%TD*%
D14*
%TO.C,J3*%
X134875000Y-156225000D03*
X134875000Y-155375000D03*
X134875000Y-154525000D03*
X134875000Y-153675000D03*
X134875000Y-152825000D03*
X134875000Y-151975000D03*
X134875000Y-151125000D03*
X134875000Y-150275000D03*
X136225000Y-150275000D03*
X136225000Y-151125000D03*
X136225000Y-151975000D03*
X136225000Y-152825000D03*
X136225000Y-153675000D03*
X136225000Y-154525000D03*
X136225000Y-155375000D03*
X136225000Y-156225000D03*
D15*
X135855000Y-157575000D03*
X135855000Y-148925000D03*
X139235000Y-157575000D03*
X139235000Y-148925000D03*
%TD*%
D20*
%TO.C,C12*%
X105400000Y-129050000D03*
X105400000Y-130950000D03*
%TD*%
D10*
%TO.C,C16*%
X120100000Y-155200000D03*
X118200000Y-155200000D03*
%TD*%
D24*
%TO.C,U4*%
X81400000Y-162010000D03*
X83940000Y-162010000D03*
X86480000Y-162010000D03*
X89020000Y-162010000D03*
X91560000Y-162010000D03*
X94100000Y-162010000D03*
X96640000Y-162010000D03*
X99180000Y-162010000D03*
X101720000Y-162010000D03*
X104260000Y-162010000D03*
X106800000Y-162010000D03*
X109340000Y-162010000D03*
X111880000Y-162010000D03*
X114420000Y-162010000D03*
X116960000Y-162010000D03*
X119500000Y-162010000D03*
X122040000Y-162010000D03*
X124580000Y-162010000D03*
X127120000Y-162010000D03*
X129660000Y-162010000D03*
X132200000Y-162010000D03*
X134740000Y-162010000D03*
X137280000Y-162010000D03*
X139820000Y-162010000D03*
X139820000Y-164550000D03*
X137280000Y-164550000D03*
X134740000Y-164550000D03*
X132200000Y-164550000D03*
X129660000Y-164550000D03*
X127120000Y-164550000D03*
X124580000Y-164550000D03*
X122040000Y-164550000D03*
X119500000Y-164550000D03*
X116960000Y-164550000D03*
X114420000Y-164550000D03*
X111880000Y-164550000D03*
X109340000Y-164550000D03*
X106800000Y-164550000D03*
X104260000Y-164550000D03*
X101720000Y-164550000D03*
X99180000Y-164550000D03*
X96640000Y-164550000D03*
X94100000Y-164550000D03*
X91560000Y-164550000D03*
X89020000Y-164550000D03*
X86480000Y-164550000D03*
X83940000Y-164550000D03*
X81400000Y-164550000D03*
%TD*%
D10*
%TO.C,C14*%
X120100000Y-150850000D03*
X118200000Y-150850000D03*
%TD*%
D25*
%TO.C,IC1*%
X115350000Y-147300000D03*
X114950000Y-147300000D03*
X114550000Y-147300000D03*
X114150000Y-147300000D03*
X113750000Y-147300000D03*
X113350000Y-147300000D03*
X112950000Y-147300000D03*
X112550000Y-147300000D03*
X112150000Y-147300000D03*
X111750000Y-147300000D03*
X111350000Y-147300000D03*
X110950000Y-147300000D03*
D26*
X110200000Y-148050000D03*
X110200000Y-148450000D03*
X110200000Y-148850000D03*
X110200000Y-149250000D03*
X110200000Y-149650000D03*
X110200000Y-150050000D03*
X110200000Y-150450000D03*
X110200000Y-150850000D03*
X110200000Y-151250000D03*
X110200000Y-151650000D03*
X110200000Y-152050000D03*
X110200000Y-152450000D03*
D25*
X110950000Y-153200000D03*
X111350000Y-153200000D03*
X111750000Y-153200000D03*
X112150000Y-153200000D03*
X112550000Y-153200000D03*
X112950000Y-153200000D03*
X113350000Y-153200000D03*
X113750000Y-153200000D03*
X114150000Y-153200000D03*
X114550000Y-153200000D03*
X114950000Y-153200000D03*
X115350000Y-153200000D03*
D26*
X116100000Y-152450000D03*
X116100000Y-152050000D03*
X116100000Y-151650000D03*
X116100000Y-151250000D03*
X116100000Y-150850000D03*
X116100000Y-150450000D03*
X116100000Y-150050000D03*
X116100000Y-149650000D03*
X116100000Y-149250000D03*
X116100000Y-148850000D03*
X116100000Y-148450000D03*
X116100000Y-148050000D03*
D27*
X113150000Y-150250000D03*
%TD*%
D11*
%TO.C,R3*%
X114312500Y-143750000D03*
X112487500Y-143750000D03*
%TD*%
D20*
%TO.C,C18*%
X111550000Y-156800000D03*
X111550000Y-158700000D03*
%TD*%
D10*
%TO.C,C13*%
X99850000Y-134250000D03*
X97950000Y-134250000D03*
%TD*%
%TO.C,C11*%
X99850000Y-137000000D03*
X97950000Y-137000000D03*
%TD*%
D28*
%TO.C,Y1*%
X102400000Y-138550000D03*
X102400000Y-137150000D03*
%TD*%
D12*
%TO.C,R1*%
X107737500Y-132050000D03*
X109562500Y-132050000D03*
%TD*%
D29*
%TO.C,C9*%
X130650000Y-156200000D03*
X130650000Y-154300000D03*
%TD*%
D30*
%TO.C,U1*%
X114350000Y-137750000D03*
X113950000Y-137750000D03*
X113550000Y-137750000D03*
X113150000Y-137750000D03*
X112750000Y-137750000D03*
X112350000Y-137750000D03*
X111950000Y-137750000D03*
X114350000Y-137350000D03*
X113950000Y-137350000D03*
X113550000Y-137350000D03*
X113150000Y-137350000D03*
X112750000Y-137350000D03*
X112350000Y-137350000D03*
X111950000Y-137350000D03*
X114350000Y-136950000D03*
X113950000Y-136950000D03*
X113550000Y-136950000D03*
X113150000Y-136950000D03*
X112750000Y-136950000D03*
X112350000Y-136950000D03*
X111950000Y-136950000D03*
X114350000Y-136550000D03*
X113950000Y-136550000D03*
X113550000Y-136550000D03*
X113150000Y-136550000D03*
X112750000Y-136550000D03*
X112350000Y-136550000D03*
X111950000Y-136550000D03*
X114350000Y-136150000D03*
X113950000Y-136150000D03*
X113550000Y-136150000D03*
X113150000Y-136150000D03*
X112750000Y-136150000D03*
X112350000Y-136150000D03*
X111950000Y-136150000D03*
X114350000Y-135750000D03*
X113950000Y-135750000D03*
X113550000Y-135750000D03*
X113150000Y-135750000D03*
X112750000Y-135750000D03*
X112350000Y-135750000D03*
X111950000Y-135750000D03*
X114350000Y-135350000D03*
X113950000Y-135350000D03*
X113550000Y-135350000D03*
X113150000Y-135350000D03*
X112750000Y-135350000D03*
X112350000Y-135350000D03*
X111950000Y-135350000D03*
%TD*%
D11*
%TO.C,R8*%
X120062500Y-148600000D03*
X118237500Y-148600000D03*
%TD*%
D17*
%TO.C,REF\u002A\u002A*%
X119650000Y-143250000D03*
%TD*%
D20*
%TO.C,C8*%
X131474878Y-143050000D03*
X131474878Y-144950000D03*
%TD*%
D10*
%TO.C,C20*%
X107100000Y-151900000D03*
X105200000Y-151900000D03*
%TD*%
D13*
%TO.C,R9*%
X132650000Y-154337500D03*
X132650000Y-156162500D03*
%TD*%
D10*
%TO.C,C15*%
X120100000Y-153150000D03*
X118200000Y-153150000D03*
%TD*%
D20*
%TO.C,C7*%
X137474878Y-143100000D03*
X137474878Y-145000000D03*
%TD*%
D13*
%TO.C,R13*%
X88400000Y-150337500D03*
X88400000Y-152162500D03*
%TD*%
D31*
%TO.C,J1*%
X133750000Y-134500000D03*
X138750000Y-134500000D03*
D32*
X130450000Y-133800000D03*
D33*
X133750000Y-130900000D03*
X130650000Y-136100000D03*
X138750000Y-130000000D03*
X132650000Y-137600000D03*
X130650000Y-139000000D03*
X138750000Y-139600000D03*
X136250000Y-129000000D03*
%TD*%
D13*
%TO.C,R14*%
X88400000Y-154737500D03*
X88400000Y-156562500D03*
%TD*%
D10*
%TO.C,C19*%
X107100000Y-149900000D03*
X105200000Y-149900000D03*
%TD*%
D20*
%TO.C,C17*%
X113550000Y-156800000D03*
X113550000Y-158700000D03*
%TD*%
D16*
%TO.C,R4*%
X119250000Y-132462500D03*
X119250000Y-130637500D03*
%TD*%
D20*
%TO.C,C2*%
X112600000Y-140100000D03*
X112600000Y-142000000D03*
%TD*%
%TO.C,C21*%
X110600000Y-140100000D03*
X110600000Y-142000000D03*
%TD*%
D29*
%TO.C,C3*%
X113450000Y-133100000D03*
X113450000Y-131200000D03*
%TD*%
D34*
%TO.C,J2*%
X125175000Y-137895000D03*
D35*
X125175000Y-136625000D03*
X123905000Y-137895000D03*
X123905000Y-136625000D03*
X122635000Y-137895000D03*
X122635000Y-136625000D03*
X121365000Y-137895000D03*
X121365000Y-136625000D03*
X120095000Y-137895000D03*
X120095000Y-136625000D03*
%TD*%
D36*
%TO.C,U2*%
X135424878Y-142862500D03*
X134474878Y-142862500D03*
X133524878Y-142862500D03*
X133524878Y-145137500D03*
X135424878Y-145137500D03*
%TD*%
D13*
%TO.C,R10*%
X132650000Y-150087500D03*
X132650000Y-151912500D03*
%TD*%
D10*
%TO.C,C5*%
X109600000Y-134050000D03*
X107700000Y-134050000D03*
%TD*%
D20*
%TO.C,C1*%
X114600000Y-140100000D03*
X114600000Y-142000000D03*
%TD*%
D31*
%TO.C,J5*%
X87550000Y-134500000D03*
X82550000Y-134500000D03*
D32*
X90850000Y-135200000D03*
D33*
X87550000Y-138100000D03*
X90650000Y-132900000D03*
X82550000Y-139000000D03*
X88650000Y-131400000D03*
X90650000Y-130000000D03*
X82550000Y-129400000D03*
X85050000Y-140000000D03*
%TD*%
D10*
%TO.C,C10*%
X99850000Y-139000000D03*
X97950000Y-139000000D03*
%TD*%
D12*
%TO.C,R11*%
X118237500Y-146700000D03*
X120062500Y-146700000D03*
%TD*%
M02*
