M48
; DRILL file {KiCad (6.0.6)} date Mon 05 Sep 2022 11:07:06 AM PDT
; FORMAT={-:-/ absolute / inch / decimal}
; #@! TF.CreationDate,2022-09-05T11:07:06-07:00
; #@! TF.GenerationSoftware,Kicad,Pcbnew,(6.0.6)
; #@! TF.FileFunction,Plated,1,4,PTH
FMAT,2
INCH
; #@! TA.AperFunction,Plated,PTH,ViaDrill
T1C0.0047
; #@! TA.AperFunction,Plated,PTH,ViaDrill
T2C0.0059
; #@! TA.AperFunction,Plated,PTH,ViaDrill
T3C0.0157
; #@! TA.AperFunction,Plated,PTH,ComponentDrill
T4C0.0157
; #@! TA.AperFunction,Plated,PTH,ComponentDrill
T5C0.0236
; #@! TA.AperFunction,Plated,PTH,ComponentDrill
T6C0.0276
; #@! TA.AperFunction,Plated,PTH,ComponentDrill
T7C0.0300
; #@! TA.AperFunction,Plated,PTH,ComponentDrill
T8C0.0315
%
G90
G05
T1
X4.4232Y-5.3602
X4.439Y-5.376
X4.4547Y-5.376
X4.4705Y-5.3917
X4.4862Y-5.3917
X4.4862Y-5.4075
T2
X4.3937Y-5.4902
X4.4232Y-5.3071
T3
X3.8563Y-5.2854
X3.8563Y-5.3937
X3.8563Y-5.4724
X3.8898Y-5.1043
X4.0354Y-5.1909
X4.1417Y-5.9803
X4.2402Y-5.2776
X4.2402Y-5.3563
X4.2756Y-5.5906
X4.3169Y-5.7776
X4.3543Y-5.5906
X4.3878Y-5.1668
X4.3917Y-6.248
X4.4331Y-5.5906
X4.4547Y-5.9154
X4.4665Y-5.1654
X4.4705Y-6.248
X4.4941Y-5.7185
X4.5118Y-5.5906
X4.5827Y-5.7776
X4.6535Y-5.939
X4.6535Y-6.0295
X4.6535Y-6.1102
X4.6949Y-5.2151
X4.9469Y-5.1378
X4.9611Y-5.9222
X4.9611Y-6.125
X5.1762Y-5.7067
X5.4124Y-5.6339
X5.4124Y-5.7087
T4
X3.3435Y-5.9163
X3.3435Y-5.9498
X3.3435Y-5.9833
X3.3435Y-6.0167
X3.3435Y-6.0502
X3.3435Y-6.0837
X3.3435Y-6.1171
X3.3435Y-6.1506
X3.3967Y-5.9163
X3.3967Y-5.9498
X3.3967Y-5.9833
X3.3967Y-6.0167
X3.3967Y-6.0502
X3.3967Y-6.0837
X3.3967Y-6.1171
X3.3967Y-6.1506
X5.31Y-5.9163
X5.31Y-5.9498
X5.31Y-5.9833
X5.31Y-6.0167
X5.31Y-6.0502
X5.31Y-6.0837
X5.31Y-6.1171
X5.31Y-6.1506
X5.3632Y-5.9163
X5.3632Y-5.9498
X5.3632Y-5.9833
X5.3632Y-6.0167
X5.3632Y-6.0502
X5.3632Y-6.0837
X5.3632Y-6.1171
X5.3632Y-6.1506
T6
X4.7281Y-5.3789
X4.7281Y-5.4289
X4.7781Y-5.3789
X4.7781Y-5.4289
X4.8281Y-5.3789
X4.8281Y-5.4289
X4.8781Y-5.3789
X4.8781Y-5.4289
X4.9281Y-5.3789
X4.9281Y-5.4289
T7
X3.2047Y-6.3783
X3.2047Y-6.4783
X3.3047Y-6.3783
X3.3047Y-6.4783
X3.4047Y-6.3783
X3.4047Y-6.4783
X3.5047Y-6.3783
X3.5047Y-6.4783
X3.6047Y-6.3783
X3.6047Y-6.4783
X3.7047Y-6.3783
X3.7047Y-6.4783
X3.8047Y-6.3783
X3.8047Y-6.4783
X3.9047Y-6.3783
X3.9047Y-6.4783
X4.0047Y-6.3783
X4.0047Y-6.4783
X4.1047Y-6.3783
X4.1047Y-6.4783
X4.2047Y-6.3783
X4.2047Y-6.4783
X4.3047Y-6.3783
X4.3047Y-6.4783
X4.4047Y-6.3783
X4.4047Y-6.4783
X4.5047Y-6.3783
X4.5047Y-6.4783
X4.6047Y-6.3783
X4.6047Y-6.4783
X4.7047Y-6.3783
X4.7047Y-6.4783
X4.8047Y-6.3783
X4.8047Y-6.4783
X4.9047Y-6.3783
X4.9047Y-6.4783
X5.0047Y-6.3783
X5.0047Y-6.4783
X5.1047Y-6.3783
X5.1047Y-6.4783
X5.2047Y-6.3783
X5.2047Y-6.4783
X5.3047Y-6.3783
X5.3047Y-6.4783
X5.4047Y-6.3783
X5.4047Y-6.4783
X5.5047Y-6.3783
X5.5047Y-6.4783
T5
G00X3.2407Y-5.8632
M15
G01X3.2093Y-5.8632
M16
G05
G00X3.2407Y-6.2037
M15
G01X3.2093Y-6.2037
M16
G05
G00X3.3876Y-5.8632
M15
G01X3.3285Y-5.8632
M16
G05
G00X3.3876Y-6.2037
M15
G01X3.3285Y-6.2037
M16
G05
G00X5.3191Y-5.8632
M15
G01X5.3781Y-5.8632
M16
G05
G00X5.3191Y-6.2037
M15
G01X5.3781Y-6.2037
M16
G05
G00X5.4659Y-5.8632
M15
G01X5.4974Y-5.8632
M16
G05
G00X5.4659Y-6.2037
M15
G01X5.4974Y-6.2037
M16
G05
T8
G00X3.2402Y-5.0945
M15
G01X3.2598Y-5.0945
M16
G05
G00X3.2402Y-5.4724
M15
G01X3.2598Y-5.4724
M16
G05
G00X3.3386Y-5.5118
M15
G01X3.3583Y-5.5118
M16
G05
G00X3.437Y-5.437
M15
G01X3.4567Y-5.437
M16
G05
G00X3.4803Y-5.1732
M15
G01X3.5Y-5.1732
M16
G05
G00X3.5591Y-5.1181
M15
G01X3.5787Y-5.1181
M16
G05
G00X3.5591Y-5.2323
M15
G01X3.5787Y-5.2323
M16
G05
G00X3.5768Y-5.313
M15
G01X3.5768Y-5.3327
M16
G05
G00X5.1358Y-5.2776
M15
G01X5.1358Y-5.2579
M16
G05
G00X5.1535Y-5.3583
M15
G01X5.1339Y-5.3583
M16
G05
G00X5.1535Y-5.4724
M15
G01X5.1339Y-5.4724
M16
G05
G00X5.2323Y-5.4173
M15
G01X5.2126Y-5.4173
M16
G05
G00X5.2756Y-5.1535
M15
G01X5.2559Y-5.1535
M16
G05
G00X5.374Y-5.0787
M15
G01X5.3543Y-5.0787
M16
G05
G00X5.4724Y-5.1181
M15
G01X5.4528Y-5.1181
M16
G05
G00X5.4724Y-5.4961
M15
G01X5.4528Y-5.4961
M16
G05
T0
M30
