M48
; DRILL file {KiCad (6.0.6)} date Mon 05 Sep 2022 11:07:06 AM PDT
; FORMAT={-:-/ absolute / inch / decimal}
; #@! TF.CreationDate,2022-09-05T11:07:06-07:00
; #@! TF.GenerationSoftware,Kicad,Pcbnew,(6.0.6)
; #@! TF.FileFunction,Plated,1,3,Blind
FMAT,2
INCH
; #@! TA.AperFunction,Plated,Buried,ViaDrill
T1C0.0047
; #@! TA.AperFunction,Plated,Buried,ViaDrill
T2C0.0059
%
G90
G05
T1
X4.439Y-5.3917
X4.4547Y-5.3917
X4.4705Y-5.3602
X4.4705Y-5.376
T2
X4.2205Y-6.0433
X4.2441Y-6.0433
X4.2579Y-5.8287
X4.2579Y-5.876
X4.2598Y-5.7815
X4.2677Y-5.9016
X4.2677Y-6.0433
X4.2776Y-5.8071
X4.2776Y-5.8563
X4.2776Y-5.9252
X4.2913Y-6.0433
X4.3169Y-5.7283
X4.3169Y-6.0433
X4.3366Y-5.7087
X4.3543Y-5.4213
X4.3583Y-6.1024
X4.3681Y-5.3504
X4.376Y-5.7205
X4.3818Y-5.4547
X4.3819Y-6.1201
X4.4035Y-5.7087
X4.4055Y-6.1024
X4.4154Y-5.2756
X4.4311Y-5.7205
X4.4449Y-6.1201
X4.4547Y-5.7087
X4.4587Y-5.4764
X4.4626Y-5.2756
X4.4665Y-6.1024
X4.4882Y-6.1201
X4.498Y-5.4803
X4.5098Y-6.1043
X4.5118Y-5.4606
X4.5295Y-5.7244
X4.5531Y-5.2953
X4.5531Y-5.7087
X4.5571Y-5.4134
X4.5787Y-5.7244
X4.5807Y-5.311
X4.5807Y-5.3543
X4.5807Y-5.3976
T0
M30
