%TF.GenerationSoftware,KiCad,Pcbnew,(6.0.6)*%
%TF.CreationDate,2022-09-05T11:07:09-07:00*%
%TF.ProjectId,Nour-Core,4e6f7572-2d43-46f7-9265-2e6b69636164,rev?*%
%TF.SameCoordinates,Original*%
%TF.FileFunction,Legend,Top*%
%TF.FilePolarity,Positive*%
%FSLAX46Y46*%
G04 Gerber Fmt 4.6, Leading zero omitted, Abs format (unit mm)*
G04 Created by KiCad (PCBNEW (6.0.6)) date 2022-09-05 11:07:09*
%MOMM*%
%LPD*%
G01*
G04 APERTURE LIST*
%ADD10C,0.150000*%
%ADD11C,0.120000*%
%ADD12C,0.200000*%
%ADD13C,0.100000*%
%ADD14C,0.127000*%
%ADD15C,0.400000*%
G04 APERTURE END LIST*
D10*
X98340476Y-126952380D02*
X98340476Y-125952380D01*
X98911904Y-126952380D01*
X98911904Y-125952380D01*
X99530952Y-126952380D02*
X99435714Y-126904761D01*
X99388095Y-126857142D01*
X99340476Y-126761904D01*
X99340476Y-126476190D01*
X99388095Y-126380952D01*
X99435714Y-126333333D01*
X99530952Y-126285714D01*
X99673809Y-126285714D01*
X99769047Y-126333333D01*
X99816666Y-126380952D01*
X99864285Y-126476190D01*
X99864285Y-126761904D01*
X99816666Y-126857142D01*
X99769047Y-126904761D01*
X99673809Y-126952380D01*
X99530952Y-126952380D01*
X100721428Y-126285714D02*
X100721428Y-126952380D01*
X100292857Y-126285714D02*
X100292857Y-126809523D01*
X100340476Y-126904761D01*
X100435714Y-126952380D01*
X100578571Y-126952380D01*
X100673809Y-126904761D01*
X100721428Y-126857142D01*
X101197619Y-126952380D02*
X101197619Y-126285714D01*
X101197619Y-126476190D02*
X101245238Y-126380952D01*
X101292857Y-126333333D01*
X101388095Y-126285714D01*
X101483333Y-126285714D01*
X102435714Y-125952380D02*
X102769047Y-126952380D01*
X103102380Y-125952380D01*
X103864285Y-126952380D02*
X103864285Y-126428571D01*
X103816666Y-126333333D01*
X103721428Y-126285714D01*
X103530952Y-126285714D01*
X103435714Y-126333333D01*
X103864285Y-126904761D02*
X103769047Y-126952380D01*
X103530952Y-126952380D01*
X103435714Y-126904761D01*
X103388095Y-126809523D01*
X103388095Y-126714285D01*
X103435714Y-126619047D01*
X103530952Y-126571428D01*
X103769047Y-126571428D01*
X103864285Y-126523809D01*
X104483333Y-126952380D02*
X104388095Y-126904761D01*
X104340476Y-126809523D01*
X104340476Y-125952380D01*
X104864285Y-126952380D02*
X104864285Y-125952380D01*
X104959523Y-126571428D02*
X105245238Y-126952380D01*
X105245238Y-126285714D02*
X104864285Y-126666666D01*
X105578571Y-126285714D02*
X105816666Y-126952380D01*
X106054761Y-126285714D02*
X105816666Y-126952380D01*
X105721428Y-127190476D01*
X105673809Y-127238095D01*
X105578571Y-127285714D01*
X106435714Y-126952380D02*
X106435714Y-126285714D01*
X106435714Y-126476190D02*
X106483333Y-126380952D01*
X106530952Y-126333333D01*
X106626190Y-126285714D01*
X106721428Y-126285714D01*
X107054761Y-126952380D02*
X107054761Y-126285714D01*
X107054761Y-125952380D02*
X107007142Y-126000000D01*
X107054761Y-126047619D01*
X107102380Y-126000000D01*
X107054761Y-125952380D01*
X107054761Y-126047619D01*
X107911904Y-126904761D02*
X107816666Y-126952380D01*
X107626190Y-126952380D01*
X107530952Y-126904761D01*
X107483333Y-126809523D01*
X107483333Y-126428571D01*
X107530952Y-126333333D01*
X107626190Y-126285714D01*
X107816666Y-126285714D01*
X107911904Y-126333333D01*
X107959523Y-126428571D01*
X107959523Y-126523809D01*
X107483333Y-126619047D01*
X109721428Y-126857142D02*
X109673809Y-126904761D01*
X109530952Y-126952380D01*
X109435714Y-126952380D01*
X109292857Y-126904761D01*
X109197619Y-126809523D01*
X109150000Y-126714285D01*
X109102380Y-126523809D01*
X109102380Y-126380952D01*
X109150000Y-126190476D01*
X109197619Y-126095238D01*
X109292857Y-126000000D01*
X109435714Y-125952380D01*
X109530952Y-125952380D01*
X109673809Y-126000000D01*
X109721428Y-126047619D01*
X110292857Y-126952380D02*
X110197619Y-126904761D01*
X110150000Y-126857142D01*
X110102380Y-126761904D01*
X110102380Y-126476190D01*
X110150000Y-126380952D01*
X110197619Y-126333333D01*
X110292857Y-126285714D01*
X110435714Y-126285714D01*
X110530952Y-126333333D01*
X110578571Y-126380952D01*
X110626190Y-126476190D01*
X110626190Y-126761904D01*
X110578571Y-126857142D01*
X110530952Y-126904761D01*
X110435714Y-126952380D01*
X110292857Y-126952380D01*
X111054761Y-126952380D02*
X111054761Y-126285714D01*
X111054761Y-126476190D02*
X111102380Y-126380952D01*
X111150000Y-126333333D01*
X111245238Y-126285714D01*
X111340476Y-126285714D01*
X112054761Y-126904761D02*
X111959523Y-126952380D01*
X111769047Y-126952380D01*
X111673809Y-126904761D01*
X111626190Y-126809523D01*
X111626190Y-126428571D01*
X111673809Y-126333333D01*
X111769047Y-126285714D01*
X111959523Y-126285714D01*
X112054761Y-126333333D01*
X112102380Y-126428571D01*
X112102380Y-126523809D01*
X111626190Y-126619047D01*
X113197619Y-126285714D02*
X113435714Y-126952380D01*
X113673809Y-126285714D01*
X114245238Y-125952380D02*
X114340476Y-125952380D01*
X114435714Y-126000000D01*
X114483333Y-126047619D01*
X114530952Y-126142857D01*
X114578571Y-126333333D01*
X114578571Y-126571428D01*
X114530952Y-126761904D01*
X114483333Y-126857142D01*
X114435714Y-126904761D01*
X114340476Y-126952380D01*
X114245238Y-126952380D01*
X114150000Y-126904761D01*
X114102380Y-126857142D01*
X114054761Y-126761904D01*
X114007142Y-126571428D01*
X114007142Y-126333333D01*
X114054761Y-126142857D01*
X114102380Y-126047619D01*
X114150000Y-126000000D01*
X114245238Y-125952380D01*
X115007142Y-126857142D02*
X115054761Y-126904761D01*
X115007142Y-126952380D01*
X114959523Y-126904761D01*
X115007142Y-126857142D01*
X115007142Y-126952380D01*
X116007142Y-126952380D02*
X115435714Y-126952380D01*
X115721428Y-126952380D02*
X115721428Y-125952380D01*
X115626190Y-126095238D01*
X115530952Y-126190476D01*
X115435714Y-126238095D01*
%TO.C,C6*%
X105909642Y-136857142D02*
X105862023Y-136904761D01*
X105719166Y-136952380D01*
X105623928Y-136952380D01*
X105481071Y-136904761D01*
X105385833Y-136809523D01*
X105338214Y-136714285D01*
X105290595Y-136523809D01*
X105290595Y-136380952D01*
X105338214Y-136190476D01*
X105385833Y-136095238D01*
X105481071Y-136000000D01*
X105623928Y-135952380D01*
X105719166Y-135952380D01*
X105862023Y-136000000D01*
X105909642Y-136047619D01*
X106766785Y-135952380D02*
X106576309Y-135952380D01*
X106481071Y-136000000D01*
X106433452Y-136047619D01*
X106338214Y-136190476D01*
X106290595Y-136380952D01*
X106290595Y-136761904D01*
X106338214Y-136857142D01*
X106385833Y-136904761D01*
X106481071Y-136952380D01*
X106671547Y-136952380D01*
X106766785Y-136904761D01*
X106814404Y-136857142D01*
X106862023Y-136761904D01*
X106862023Y-136523809D01*
X106814404Y-136428571D01*
X106766785Y-136380952D01*
X106671547Y-136333333D01*
X106481071Y-136333333D01*
X106385833Y-136380952D01*
X106338214Y-136428571D01*
X106290595Y-136523809D01*
%TO.C,R2*%
X107159642Y-144202380D02*
X106826309Y-143726190D01*
X106588214Y-144202380D02*
X106588214Y-143202380D01*
X106969166Y-143202380D01*
X107064404Y-143250000D01*
X107112023Y-143297619D01*
X107159642Y-143392857D01*
X107159642Y-143535714D01*
X107112023Y-143630952D01*
X107064404Y-143678571D01*
X106969166Y-143726190D01*
X106588214Y-143726190D01*
X107540595Y-143297619D02*
X107588214Y-143250000D01*
X107683452Y-143202380D01*
X107921547Y-143202380D01*
X108016785Y-143250000D01*
X108064404Y-143297619D01*
X108112023Y-143392857D01*
X108112023Y-143488095D01*
X108064404Y-143630952D01*
X107492976Y-144202380D01*
X108112023Y-144202380D01*
%TO.C,FB1*%
X104714404Y-137978571D02*
X104381071Y-137978571D01*
X104381071Y-138502380D02*
X104381071Y-137502380D01*
X104857261Y-137502380D01*
X105571547Y-137978571D02*
X105714404Y-138026190D01*
X105762023Y-138073809D01*
X105809642Y-138169047D01*
X105809642Y-138311904D01*
X105762023Y-138407142D01*
X105714404Y-138454761D01*
X105619166Y-138502380D01*
X105238214Y-138502380D01*
X105238214Y-137502380D01*
X105571547Y-137502380D01*
X105666785Y-137550000D01*
X105714404Y-137597619D01*
X105762023Y-137692857D01*
X105762023Y-137788095D01*
X105714404Y-137883333D01*
X105666785Y-137930952D01*
X105571547Y-137978571D01*
X105238214Y-137978571D01*
X106762023Y-138502380D02*
X106190595Y-138502380D01*
X106476309Y-138502380D02*
X106476309Y-137502380D01*
X106381071Y-137645238D01*
X106285833Y-137740476D01*
X106190595Y-137788095D01*
%TO.C,R12*%
X115007142Y-155952380D02*
X114673809Y-155476190D01*
X114435714Y-155952380D02*
X114435714Y-154952380D01*
X114816666Y-154952380D01*
X114911904Y-155000000D01*
X114959523Y-155047619D01*
X115007142Y-155142857D01*
X115007142Y-155285714D01*
X114959523Y-155380952D01*
X114911904Y-155428571D01*
X114816666Y-155476190D01*
X114435714Y-155476190D01*
X115959523Y-155952380D02*
X115388095Y-155952380D01*
X115673809Y-155952380D02*
X115673809Y-154952380D01*
X115578571Y-155095238D01*
X115483333Y-155190476D01*
X115388095Y-155238095D01*
X116340476Y-155047619D02*
X116388095Y-155000000D01*
X116483333Y-154952380D01*
X116721428Y-154952380D01*
X116816666Y-155000000D01*
X116864285Y-155047619D01*
X116911904Y-155142857D01*
X116911904Y-155238095D01*
X116864285Y-155380952D01*
X116292857Y-155952380D01*
X116911904Y-155952380D01*
%TO.C,R7*%
X104807023Y-133952380D02*
X104473690Y-133476190D01*
X104235595Y-133952380D02*
X104235595Y-132952380D01*
X104616547Y-132952380D01*
X104711785Y-133000000D01*
X104759404Y-133047619D01*
X104807023Y-133142857D01*
X104807023Y-133285714D01*
X104759404Y-133380952D01*
X104711785Y-133428571D01*
X104616547Y-133476190D01*
X104235595Y-133476190D01*
X105140357Y-132952380D02*
X105807023Y-132952380D01*
X105378452Y-133952380D01*
%TO.C,J4*%
X81566616Y-146452298D02*
X81566616Y-147166691D01*
X81518990Y-147309570D01*
X81423738Y-147404822D01*
X81280859Y-147452448D01*
X81185607Y-147452448D01*
X82471514Y-146785682D02*
X82471514Y-147452448D01*
X82233383Y-146404672D02*
X81995252Y-147119065D01*
X82614392Y-147119065D01*
%TO.C,R6*%
X130483333Y-148952380D02*
X130150000Y-148476190D01*
X129911904Y-148952380D02*
X129911904Y-147952380D01*
X130292857Y-147952380D01*
X130388095Y-148000000D01*
X130435714Y-148047619D01*
X130483333Y-148142857D01*
X130483333Y-148285714D01*
X130435714Y-148380952D01*
X130388095Y-148428571D01*
X130292857Y-148476190D01*
X129911904Y-148476190D01*
X131340476Y-147952380D02*
X131150000Y-147952380D01*
X131054761Y-148000000D01*
X131007142Y-148047619D01*
X130911904Y-148190476D01*
X130864285Y-148380952D01*
X130864285Y-148761904D01*
X130911904Y-148857142D01*
X130959523Y-148904761D01*
X131054761Y-148952380D01*
X131245238Y-148952380D01*
X131340476Y-148904761D01*
X131388095Y-148857142D01*
X131435714Y-148761904D01*
X131435714Y-148523809D01*
X131388095Y-148428571D01*
X131340476Y-148380952D01*
X131245238Y-148333333D01*
X131054761Y-148333333D01*
X130959523Y-148380952D01*
X130911904Y-148428571D01*
X130864285Y-148523809D01*
%TO.C,SW2*%
X125519166Y-148404761D02*
X125662023Y-148452380D01*
X125900119Y-148452380D01*
X125995357Y-148404761D01*
X126042976Y-148357142D01*
X126090595Y-148261904D01*
X126090595Y-148166666D01*
X126042976Y-148071428D01*
X125995357Y-148023809D01*
X125900119Y-147976190D01*
X125709642Y-147928571D01*
X125614404Y-147880952D01*
X125566785Y-147833333D01*
X125519166Y-147738095D01*
X125519166Y-147642857D01*
X125566785Y-147547619D01*
X125614404Y-147500000D01*
X125709642Y-147452380D01*
X125947738Y-147452380D01*
X126090595Y-147500000D01*
X126423928Y-147452380D02*
X126662023Y-148452380D01*
X126852500Y-147738095D01*
X127042976Y-148452380D01*
X127281071Y-147452380D01*
X127614404Y-147547619D02*
X127662023Y-147500000D01*
X127757261Y-147452380D01*
X127995357Y-147452380D01*
X128090595Y-147500000D01*
X128138214Y-147547619D01*
X128185833Y-147642857D01*
X128185833Y-147738095D01*
X128138214Y-147880952D01*
X127566785Y-148452380D01*
X128185833Y-148452380D01*
%TO.C,C4*%
X106409642Y-140607142D02*
X106362023Y-140654761D01*
X106219166Y-140702380D01*
X106123928Y-140702380D01*
X105981071Y-140654761D01*
X105885833Y-140559523D01*
X105838214Y-140464285D01*
X105790595Y-140273809D01*
X105790595Y-140130952D01*
X105838214Y-139940476D01*
X105885833Y-139845238D01*
X105981071Y-139750000D01*
X106123928Y-139702380D01*
X106219166Y-139702380D01*
X106362023Y-139750000D01*
X106409642Y-139797619D01*
X107266785Y-140035714D02*
X107266785Y-140702380D01*
X107028690Y-139654761D02*
X106790595Y-140369047D01*
X107409642Y-140369047D01*
%TO.C,R5*%
X111283333Y-130202380D02*
X110950000Y-129726190D01*
X110711904Y-130202380D02*
X110711904Y-129202380D01*
X111092857Y-129202380D01*
X111188095Y-129250000D01*
X111235714Y-129297619D01*
X111283333Y-129392857D01*
X111283333Y-129535714D01*
X111235714Y-129630952D01*
X111188095Y-129678571D01*
X111092857Y-129726190D01*
X110711904Y-129726190D01*
X112188095Y-129202380D02*
X111711904Y-129202380D01*
X111664285Y-129678571D01*
X111711904Y-129630952D01*
X111807142Y-129583333D01*
X112045238Y-129583333D01*
X112140476Y-129630952D01*
X112188095Y-129678571D01*
X112235714Y-129773809D01*
X112235714Y-130011904D01*
X112188095Y-130107142D01*
X112140476Y-130154761D01*
X112045238Y-130202380D01*
X111807142Y-130202380D01*
X111711904Y-130154761D01*
X111664285Y-130107142D01*
%TO.C,Y2*%
X95923809Y-128976190D02*
X95923809Y-129452380D01*
X95590476Y-128452380D02*
X95923809Y-128976190D01*
X96257142Y-128452380D01*
X96542857Y-128547619D02*
X96590476Y-128500000D01*
X96685714Y-128452380D01*
X96923809Y-128452380D01*
X97019047Y-128500000D01*
X97066666Y-128547619D01*
X97114285Y-128642857D01*
X97114285Y-128738095D01*
X97066666Y-128880952D01*
X96495238Y-129452380D01*
X97114285Y-129452380D01*
%TO.C,SW1*%
X117804761Y-129583333D02*
X117852380Y-129440476D01*
X117852380Y-129202380D01*
X117804761Y-129107142D01*
X117757142Y-129059523D01*
X117661904Y-129011904D01*
X117566666Y-129011904D01*
X117471428Y-129059523D01*
X117423809Y-129107142D01*
X117376190Y-129202380D01*
X117328571Y-129392857D01*
X117280952Y-129488095D01*
X117233333Y-129535714D01*
X117138095Y-129583333D01*
X117042857Y-129583333D01*
X116947619Y-129535714D01*
X116900000Y-129488095D01*
X116852380Y-129392857D01*
X116852380Y-129154761D01*
X116900000Y-129011904D01*
X116852380Y-128678571D02*
X117852380Y-128440476D01*
X117138095Y-128250000D01*
X117852380Y-128059523D01*
X116852380Y-127821428D01*
X117852380Y-126916666D02*
X117852380Y-127488095D01*
X117852380Y-127202380D02*
X116852380Y-127202380D01*
X116995238Y-127297619D01*
X117090476Y-127392857D01*
X117138095Y-127488095D01*
%TO.C,J3*%
X139316616Y-146202298D02*
X139316616Y-146916691D01*
X139268990Y-147059570D01*
X139173738Y-147154822D01*
X139030859Y-147202448D01*
X138935607Y-147202448D01*
X139697626Y-146202298D02*
X140316766Y-146202298D01*
X139983383Y-146583308D01*
X140126261Y-146583308D01*
X140221514Y-146630934D01*
X140269140Y-146678560D01*
X140316766Y-146773813D01*
X140316766Y-147011944D01*
X140269140Y-147107196D01*
X140221514Y-147154822D01*
X140126261Y-147202448D01*
X139840504Y-147202448D01*
X139745252Y-147154822D01*
X139697626Y-147107196D01*
%TO.C,C12*%
X107257142Y-128607142D02*
X107209523Y-128654761D01*
X107066666Y-128702380D01*
X106971428Y-128702380D01*
X106828571Y-128654761D01*
X106733333Y-128559523D01*
X106685714Y-128464285D01*
X106638095Y-128273809D01*
X106638095Y-128130952D01*
X106685714Y-127940476D01*
X106733333Y-127845238D01*
X106828571Y-127750000D01*
X106971428Y-127702380D01*
X107066666Y-127702380D01*
X107209523Y-127750000D01*
X107257142Y-127797619D01*
X108209523Y-128702380D02*
X107638095Y-128702380D01*
X107923809Y-128702380D02*
X107923809Y-127702380D01*
X107828571Y-127845238D01*
X107733333Y-127940476D01*
X107638095Y-127988095D01*
X108590476Y-127797619D02*
X108638095Y-127750000D01*
X108733333Y-127702380D01*
X108971428Y-127702380D01*
X109066666Y-127750000D01*
X109114285Y-127797619D01*
X109161904Y-127892857D01*
X109161904Y-127988095D01*
X109114285Y-128130952D01*
X108542857Y-128702380D01*
X109161904Y-128702380D01*
%TO.C,C16*%
X121807023Y-155557142D02*
X121759404Y-155604761D01*
X121616547Y-155652380D01*
X121521309Y-155652380D01*
X121378452Y-155604761D01*
X121283214Y-155509523D01*
X121235595Y-155414285D01*
X121187976Y-155223809D01*
X121187976Y-155080952D01*
X121235595Y-154890476D01*
X121283214Y-154795238D01*
X121378452Y-154700000D01*
X121521309Y-154652380D01*
X121616547Y-154652380D01*
X121759404Y-154700000D01*
X121807023Y-154747619D01*
X122759404Y-155652380D02*
X122187976Y-155652380D01*
X122473690Y-155652380D02*
X122473690Y-154652380D01*
X122378452Y-154795238D01*
X122283214Y-154890476D01*
X122187976Y-154938095D01*
X123616547Y-154652380D02*
X123426071Y-154652380D01*
X123330833Y-154700000D01*
X123283214Y-154747619D01*
X123187976Y-154890476D01*
X123140357Y-155080952D01*
X123140357Y-155461904D01*
X123187976Y-155557142D01*
X123235595Y-155604761D01*
X123330833Y-155652380D01*
X123521309Y-155652380D01*
X123616547Y-155604761D01*
X123664166Y-155557142D01*
X123711785Y-155461904D01*
X123711785Y-155223809D01*
X123664166Y-155128571D01*
X123616547Y-155080952D01*
X123521309Y-155033333D01*
X123330833Y-155033333D01*
X123235595Y-155080952D01*
X123187976Y-155128571D01*
X123140357Y-155223809D01*
%TO.C,U4*%
X114967619Y-144738095D02*
X114158095Y-144738095D01*
X114062857Y-144785714D01*
X114015238Y-144833333D01*
X113967619Y-144928571D01*
X113967619Y-145119047D01*
X114015238Y-145214285D01*
X114062857Y-145261904D01*
X114158095Y-145309523D01*
X114967619Y-145309523D01*
X114634285Y-146214285D02*
X113967619Y-146214285D01*
X115015238Y-145976190D02*
X114300952Y-145738095D01*
X114300952Y-146357142D01*
%TO.C,C14*%
X121757023Y-151157142D02*
X121709404Y-151204761D01*
X121566547Y-151252380D01*
X121471309Y-151252380D01*
X121328452Y-151204761D01*
X121233214Y-151109523D01*
X121185595Y-151014285D01*
X121137976Y-150823809D01*
X121137976Y-150680952D01*
X121185595Y-150490476D01*
X121233214Y-150395238D01*
X121328452Y-150300000D01*
X121471309Y-150252380D01*
X121566547Y-150252380D01*
X121709404Y-150300000D01*
X121757023Y-150347619D01*
X122709404Y-151252380D02*
X122137976Y-151252380D01*
X122423690Y-151252380D02*
X122423690Y-150252380D01*
X122328452Y-150395238D01*
X122233214Y-150490476D01*
X122137976Y-150538095D01*
X123566547Y-150585714D02*
X123566547Y-151252380D01*
X123328452Y-150204761D02*
X123090357Y-150919047D01*
X123709404Y-150919047D01*
%TO.C,IC1*%
X107073809Y-147752380D02*
X107073809Y-146752380D01*
X108121428Y-147657142D02*
X108073809Y-147704761D01*
X107930952Y-147752380D01*
X107835714Y-147752380D01*
X107692857Y-147704761D01*
X107597619Y-147609523D01*
X107550000Y-147514285D01*
X107502380Y-147323809D01*
X107502380Y-147180952D01*
X107550000Y-146990476D01*
X107597619Y-146895238D01*
X107692857Y-146800000D01*
X107835714Y-146752380D01*
X107930952Y-146752380D01*
X108073809Y-146800000D01*
X108121428Y-146847619D01*
X109073809Y-147752380D02*
X108502380Y-147752380D01*
X108788095Y-147752380D02*
X108788095Y-146752380D01*
X108692857Y-146895238D01*
X108597619Y-146990476D01*
X108502380Y-147038095D01*
%TO.C,R3*%
X115807023Y-144202380D02*
X115473690Y-143726190D01*
X115235595Y-144202380D02*
X115235595Y-143202380D01*
X115616547Y-143202380D01*
X115711785Y-143250000D01*
X115759404Y-143297619D01*
X115807023Y-143392857D01*
X115807023Y-143535714D01*
X115759404Y-143630952D01*
X115711785Y-143678571D01*
X115616547Y-143726190D01*
X115235595Y-143726190D01*
X116140357Y-143202380D02*
X116759404Y-143202380D01*
X116426071Y-143583333D01*
X116568928Y-143583333D01*
X116664166Y-143630952D01*
X116711785Y-143678571D01*
X116759404Y-143773809D01*
X116759404Y-144011904D01*
X116711785Y-144107142D01*
X116664166Y-144154761D01*
X116568928Y-144202380D01*
X116283214Y-144202380D01*
X116187976Y-144154761D01*
X116140357Y-144107142D01*
%TO.C,C18*%
X111007142Y-155857142D02*
X110959523Y-155904761D01*
X110816666Y-155952380D01*
X110721428Y-155952380D01*
X110578571Y-155904761D01*
X110483333Y-155809523D01*
X110435714Y-155714285D01*
X110388095Y-155523809D01*
X110388095Y-155380952D01*
X110435714Y-155190476D01*
X110483333Y-155095238D01*
X110578571Y-155000000D01*
X110721428Y-154952380D01*
X110816666Y-154952380D01*
X110959523Y-155000000D01*
X111007142Y-155047619D01*
X111959523Y-155952380D02*
X111388095Y-155952380D01*
X111673809Y-155952380D02*
X111673809Y-154952380D01*
X111578571Y-155095238D01*
X111483333Y-155190476D01*
X111388095Y-155238095D01*
X112530952Y-155380952D02*
X112435714Y-155333333D01*
X112388095Y-155285714D01*
X112340476Y-155190476D01*
X112340476Y-155142857D01*
X112388095Y-155047619D01*
X112435714Y-155000000D01*
X112530952Y-154952380D01*
X112721428Y-154952380D01*
X112816666Y-155000000D01*
X112864285Y-155047619D01*
X112911904Y-155142857D01*
X112911904Y-155190476D01*
X112864285Y-155285714D01*
X112816666Y-155333333D01*
X112721428Y-155380952D01*
X112530952Y-155380952D01*
X112435714Y-155428571D01*
X112388095Y-155476190D01*
X112340476Y-155571428D01*
X112340476Y-155761904D01*
X112388095Y-155857142D01*
X112435714Y-155904761D01*
X112530952Y-155952380D01*
X112721428Y-155952380D01*
X112816666Y-155904761D01*
X112864285Y-155857142D01*
X112911904Y-155761904D01*
X112911904Y-155571428D01*
X112864285Y-155476190D01*
X112816666Y-155428571D01*
X112721428Y-155380952D01*
%TO.C,C13*%
X95207261Y-134607142D02*
X95159642Y-134654761D01*
X95016785Y-134702380D01*
X94921547Y-134702380D01*
X94778690Y-134654761D01*
X94683452Y-134559523D01*
X94635833Y-134464285D01*
X94588214Y-134273809D01*
X94588214Y-134130952D01*
X94635833Y-133940476D01*
X94683452Y-133845238D01*
X94778690Y-133750000D01*
X94921547Y-133702380D01*
X95016785Y-133702380D01*
X95159642Y-133750000D01*
X95207261Y-133797619D01*
X96159642Y-134702380D02*
X95588214Y-134702380D01*
X95873928Y-134702380D02*
X95873928Y-133702380D01*
X95778690Y-133845238D01*
X95683452Y-133940476D01*
X95588214Y-133988095D01*
X96492976Y-133702380D02*
X97112023Y-133702380D01*
X96778690Y-134083333D01*
X96921547Y-134083333D01*
X97016785Y-134130952D01*
X97064404Y-134178571D01*
X97112023Y-134273809D01*
X97112023Y-134511904D01*
X97064404Y-134607142D01*
X97016785Y-134654761D01*
X96921547Y-134702380D01*
X96635833Y-134702380D01*
X96540595Y-134654761D01*
X96492976Y-134607142D01*
%TO.C,C11*%
X95207261Y-137357142D02*
X95159642Y-137404761D01*
X95016785Y-137452380D01*
X94921547Y-137452380D01*
X94778690Y-137404761D01*
X94683452Y-137309523D01*
X94635833Y-137214285D01*
X94588214Y-137023809D01*
X94588214Y-136880952D01*
X94635833Y-136690476D01*
X94683452Y-136595238D01*
X94778690Y-136500000D01*
X94921547Y-136452380D01*
X95016785Y-136452380D01*
X95159642Y-136500000D01*
X95207261Y-136547619D01*
X96159642Y-137452380D02*
X95588214Y-137452380D01*
X95873928Y-137452380D02*
X95873928Y-136452380D01*
X95778690Y-136595238D01*
X95683452Y-136690476D01*
X95588214Y-136738095D01*
X97112023Y-137452380D02*
X96540595Y-137452380D01*
X96826309Y-137452380D02*
X96826309Y-136452380D01*
X96731071Y-136595238D01*
X96635833Y-136690476D01*
X96540595Y-136738095D01*
%TO.C,Y1*%
X103923809Y-139976190D02*
X103923809Y-140452380D01*
X103590476Y-139452380D02*
X103923809Y-139976190D01*
X104257142Y-139452380D01*
X105114285Y-140452380D02*
X104542857Y-140452380D01*
X104828571Y-140452380D02*
X104828571Y-139452380D01*
X104733333Y-139595238D01*
X104638095Y-139690476D01*
X104542857Y-139738095D01*
%TO.C,R1*%
X105909642Y-132702380D02*
X105576309Y-132226190D01*
X105338214Y-132702380D02*
X105338214Y-131702380D01*
X105719166Y-131702380D01*
X105814404Y-131750000D01*
X105862023Y-131797619D01*
X105909642Y-131892857D01*
X105909642Y-132035714D01*
X105862023Y-132130952D01*
X105814404Y-132178571D01*
X105719166Y-132226190D01*
X105338214Y-132226190D01*
X106862023Y-132702380D02*
X106290595Y-132702380D01*
X106576309Y-132702380D02*
X106576309Y-131702380D01*
X106481071Y-131845238D01*
X106385833Y-131940476D01*
X106290595Y-131988095D01*
%TO.C,C9*%
X130483333Y-158107142D02*
X130435714Y-158154761D01*
X130292857Y-158202380D01*
X130197619Y-158202380D01*
X130054761Y-158154761D01*
X129959523Y-158059523D01*
X129911904Y-157964285D01*
X129864285Y-157773809D01*
X129864285Y-157630952D01*
X129911904Y-157440476D01*
X129959523Y-157345238D01*
X130054761Y-157250000D01*
X130197619Y-157202380D01*
X130292857Y-157202380D01*
X130435714Y-157250000D01*
X130483333Y-157297619D01*
X130959523Y-158202380D02*
X131150000Y-158202380D01*
X131245238Y-158154761D01*
X131292857Y-158107142D01*
X131388095Y-157964285D01*
X131435714Y-157773809D01*
X131435714Y-157392857D01*
X131388095Y-157297619D01*
X131340476Y-157250000D01*
X131245238Y-157202380D01*
X131054761Y-157202380D01*
X130959523Y-157250000D01*
X130911904Y-157297619D01*
X130864285Y-157392857D01*
X130864285Y-157630952D01*
X130911904Y-157726190D01*
X130959523Y-157773809D01*
X131054761Y-157821428D01*
X131245238Y-157821428D01*
X131340476Y-157773809D01*
X131388095Y-157726190D01*
X131435714Y-157630952D01*
%TO.C,U1*%
X115288095Y-135652380D02*
X115288095Y-136461904D01*
X115335714Y-136557142D01*
X115383333Y-136604761D01*
X115478571Y-136652380D01*
X115669047Y-136652380D01*
X115764285Y-136604761D01*
X115811904Y-136557142D01*
X115859523Y-136461904D01*
X115859523Y-135652380D01*
X116859523Y-136652380D02*
X116288095Y-136652380D01*
X116573809Y-136652380D02*
X116573809Y-135652380D01*
X116478571Y-135795238D01*
X116383333Y-135890476D01*
X116288095Y-135938095D01*
%TO.C,R8*%
X121757023Y-149052380D02*
X121423690Y-148576190D01*
X121185595Y-149052380D02*
X121185595Y-148052380D01*
X121566547Y-148052380D01*
X121661785Y-148100000D01*
X121709404Y-148147619D01*
X121757023Y-148242857D01*
X121757023Y-148385714D01*
X121709404Y-148480952D01*
X121661785Y-148528571D01*
X121566547Y-148576190D01*
X121185595Y-148576190D01*
X122328452Y-148480952D02*
X122233214Y-148433333D01*
X122185595Y-148385714D01*
X122137976Y-148290476D01*
X122137976Y-148242857D01*
X122185595Y-148147619D01*
X122233214Y-148100000D01*
X122328452Y-148052380D01*
X122518928Y-148052380D01*
X122614166Y-148100000D01*
X122661785Y-148147619D01*
X122709404Y-148242857D01*
X122709404Y-148290476D01*
X122661785Y-148385714D01*
X122614166Y-148433333D01*
X122518928Y-148480952D01*
X122328452Y-148480952D01*
X122233214Y-148528571D01*
X122185595Y-148576190D01*
X122137976Y-148671428D01*
X122137976Y-148861904D01*
X122185595Y-148957142D01*
X122233214Y-149004761D01*
X122328452Y-149052380D01*
X122518928Y-149052380D01*
X122614166Y-149004761D01*
X122661785Y-148957142D01*
X122709404Y-148861904D01*
X122709404Y-148671428D01*
X122661785Y-148576190D01*
X122614166Y-148528571D01*
X122518928Y-148480952D01*
%TO.C,C8*%
X131233333Y-141607142D02*
X131185714Y-141654761D01*
X131042857Y-141702380D01*
X130947619Y-141702380D01*
X130804761Y-141654761D01*
X130709523Y-141559523D01*
X130661904Y-141464285D01*
X130614285Y-141273809D01*
X130614285Y-141130952D01*
X130661904Y-140940476D01*
X130709523Y-140845238D01*
X130804761Y-140750000D01*
X130947619Y-140702380D01*
X131042857Y-140702380D01*
X131185714Y-140750000D01*
X131233333Y-140797619D01*
X131804761Y-141130952D02*
X131709523Y-141083333D01*
X131661904Y-141035714D01*
X131614285Y-140940476D01*
X131614285Y-140892857D01*
X131661904Y-140797619D01*
X131709523Y-140750000D01*
X131804761Y-140702380D01*
X131995238Y-140702380D01*
X132090476Y-140750000D01*
X132138095Y-140797619D01*
X132185714Y-140892857D01*
X132185714Y-140940476D01*
X132138095Y-141035714D01*
X132090476Y-141083333D01*
X131995238Y-141130952D01*
X131804761Y-141130952D01*
X131709523Y-141178571D01*
X131661904Y-141226190D01*
X131614285Y-141321428D01*
X131614285Y-141511904D01*
X131661904Y-141607142D01*
X131709523Y-141654761D01*
X131804761Y-141702380D01*
X131995238Y-141702380D01*
X132090476Y-141654761D01*
X132138095Y-141607142D01*
X132185714Y-141511904D01*
X132185714Y-141321428D01*
X132138095Y-141226190D01*
X132090476Y-141178571D01*
X131995238Y-141130952D01*
%TO.C,C20*%
X102457261Y-152257142D02*
X102409642Y-152304761D01*
X102266785Y-152352380D01*
X102171547Y-152352380D01*
X102028690Y-152304761D01*
X101933452Y-152209523D01*
X101885833Y-152114285D01*
X101838214Y-151923809D01*
X101838214Y-151780952D01*
X101885833Y-151590476D01*
X101933452Y-151495238D01*
X102028690Y-151400000D01*
X102171547Y-151352380D01*
X102266785Y-151352380D01*
X102409642Y-151400000D01*
X102457261Y-151447619D01*
X102838214Y-151447619D02*
X102885833Y-151400000D01*
X102981071Y-151352380D01*
X103219166Y-151352380D01*
X103314404Y-151400000D01*
X103362023Y-151447619D01*
X103409642Y-151542857D01*
X103409642Y-151638095D01*
X103362023Y-151780952D01*
X102790595Y-152352380D01*
X103409642Y-152352380D01*
X104028690Y-151352380D02*
X104123928Y-151352380D01*
X104219166Y-151400000D01*
X104266785Y-151447619D01*
X104314404Y-151542857D01*
X104362023Y-151733333D01*
X104362023Y-151971428D01*
X104314404Y-152161904D01*
X104266785Y-152257142D01*
X104219166Y-152304761D01*
X104123928Y-152352380D01*
X104028690Y-152352380D01*
X103933452Y-152304761D01*
X103885833Y-152257142D01*
X103838214Y-152161904D01*
X103790595Y-151971428D01*
X103790595Y-151733333D01*
X103838214Y-151542857D01*
X103885833Y-151447619D01*
X103933452Y-151400000D01*
X104028690Y-151352380D01*
%TO.C,R9*%
X132483333Y-158202380D02*
X132150000Y-157726190D01*
X131911904Y-158202380D02*
X131911904Y-157202380D01*
X132292857Y-157202380D01*
X132388095Y-157250000D01*
X132435714Y-157297619D01*
X132483333Y-157392857D01*
X132483333Y-157535714D01*
X132435714Y-157630952D01*
X132388095Y-157678571D01*
X132292857Y-157726190D01*
X131911904Y-157726190D01*
X132959523Y-158202380D02*
X133150000Y-158202380D01*
X133245238Y-158154761D01*
X133292857Y-158107142D01*
X133388095Y-157964285D01*
X133435714Y-157773809D01*
X133435714Y-157392857D01*
X133388095Y-157297619D01*
X133340476Y-157250000D01*
X133245238Y-157202380D01*
X133054761Y-157202380D01*
X132959523Y-157250000D01*
X132911904Y-157297619D01*
X132864285Y-157392857D01*
X132864285Y-157630952D01*
X132911904Y-157726190D01*
X132959523Y-157773809D01*
X133054761Y-157821428D01*
X133245238Y-157821428D01*
X133340476Y-157773809D01*
X133388095Y-157726190D01*
X133435714Y-157630952D01*
%TO.C,C15*%
X121757023Y-153557142D02*
X121709404Y-153604761D01*
X121566547Y-153652380D01*
X121471309Y-153652380D01*
X121328452Y-153604761D01*
X121233214Y-153509523D01*
X121185595Y-153414285D01*
X121137976Y-153223809D01*
X121137976Y-153080952D01*
X121185595Y-152890476D01*
X121233214Y-152795238D01*
X121328452Y-152700000D01*
X121471309Y-152652380D01*
X121566547Y-152652380D01*
X121709404Y-152700000D01*
X121757023Y-152747619D01*
X122709404Y-153652380D02*
X122137976Y-153652380D01*
X122423690Y-153652380D02*
X122423690Y-152652380D01*
X122328452Y-152795238D01*
X122233214Y-152890476D01*
X122137976Y-152938095D01*
X123614166Y-152652380D02*
X123137976Y-152652380D01*
X123090357Y-153128571D01*
X123137976Y-153080952D01*
X123233214Y-153033333D01*
X123471309Y-153033333D01*
X123566547Y-153080952D01*
X123614166Y-153128571D01*
X123661785Y-153223809D01*
X123661785Y-153461904D01*
X123614166Y-153557142D01*
X123566547Y-153604761D01*
X123471309Y-153652380D01*
X123233214Y-153652380D01*
X123137976Y-153604761D01*
X123090357Y-153557142D01*
%TO.C,C7*%
X137308211Y-141607142D02*
X137260592Y-141654761D01*
X137117735Y-141702380D01*
X137022497Y-141702380D01*
X136879639Y-141654761D01*
X136784401Y-141559523D01*
X136736782Y-141464285D01*
X136689163Y-141273809D01*
X136689163Y-141130952D01*
X136736782Y-140940476D01*
X136784401Y-140845238D01*
X136879639Y-140750000D01*
X137022497Y-140702380D01*
X137117735Y-140702380D01*
X137260592Y-140750000D01*
X137308211Y-140797619D01*
X137641544Y-140702380D02*
X138308211Y-140702380D01*
X137879639Y-141702380D01*
%TO.C,R13*%
X88007142Y-149452380D02*
X87673809Y-148976190D01*
X87435714Y-149452380D02*
X87435714Y-148452380D01*
X87816666Y-148452380D01*
X87911904Y-148500000D01*
X87959523Y-148547619D01*
X88007142Y-148642857D01*
X88007142Y-148785714D01*
X87959523Y-148880952D01*
X87911904Y-148928571D01*
X87816666Y-148976190D01*
X87435714Y-148976190D01*
X88959523Y-149452380D02*
X88388095Y-149452380D01*
X88673809Y-149452380D02*
X88673809Y-148452380D01*
X88578571Y-148595238D01*
X88483333Y-148690476D01*
X88388095Y-148738095D01*
X89292857Y-148452380D02*
X89911904Y-148452380D01*
X89578571Y-148833333D01*
X89721428Y-148833333D01*
X89816666Y-148880952D01*
X89864285Y-148928571D01*
X89911904Y-149023809D01*
X89911904Y-149261904D01*
X89864285Y-149357142D01*
X89816666Y-149404761D01*
X89721428Y-149452380D01*
X89435714Y-149452380D01*
X89340476Y-149404761D01*
X89292857Y-149357142D01*
%TO.C,J1*%
X139565813Y-140700979D02*
X139565813Y-141417093D01*
X139518072Y-141560315D01*
X139422590Y-141655797D01*
X139279368Y-141703538D01*
X139183886Y-141703538D01*
X140568372Y-141703538D02*
X139995481Y-141703538D01*
X140281927Y-141703538D02*
X140281927Y-140700979D01*
X140186445Y-140844202D01*
X140090963Y-140939684D01*
X139995481Y-140987425D01*
%TO.C,R14*%
X88007142Y-158452380D02*
X87673809Y-157976190D01*
X87435714Y-158452380D02*
X87435714Y-157452380D01*
X87816666Y-157452380D01*
X87911904Y-157500000D01*
X87959523Y-157547619D01*
X88007142Y-157642857D01*
X88007142Y-157785714D01*
X87959523Y-157880952D01*
X87911904Y-157928571D01*
X87816666Y-157976190D01*
X87435714Y-157976190D01*
X88959523Y-158452380D02*
X88388095Y-158452380D01*
X88673809Y-158452380D02*
X88673809Y-157452380D01*
X88578571Y-157595238D01*
X88483333Y-157690476D01*
X88388095Y-157738095D01*
X89816666Y-157785714D02*
X89816666Y-158452380D01*
X89578571Y-157404761D02*
X89340476Y-158119047D01*
X89959523Y-158119047D01*
%TO.C,C19*%
X102457261Y-150257142D02*
X102409642Y-150304761D01*
X102266785Y-150352380D01*
X102171547Y-150352380D01*
X102028690Y-150304761D01*
X101933452Y-150209523D01*
X101885833Y-150114285D01*
X101838214Y-149923809D01*
X101838214Y-149780952D01*
X101885833Y-149590476D01*
X101933452Y-149495238D01*
X102028690Y-149400000D01*
X102171547Y-149352380D01*
X102266785Y-149352380D01*
X102409642Y-149400000D01*
X102457261Y-149447619D01*
X103409642Y-150352380D02*
X102838214Y-150352380D01*
X103123928Y-150352380D02*
X103123928Y-149352380D01*
X103028690Y-149495238D01*
X102933452Y-149590476D01*
X102838214Y-149638095D01*
X103885833Y-150352380D02*
X104076309Y-150352380D01*
X104171547Y-150304761D01*
X104219166Y-150257142D01*
X104314404Y-150114285D01*
X104362023Y-149923809D01*
X104362023Y-149542857D01*
X104314404Y-149447619D01*
X104266785Y-149400000D01*
X104171547Y-149352380D01*
X103981071Y-149352380D01*
X103885833Y-149400000D01*
X103838214Y-149447619D01*
X103790595Y-149542857D01*
X103790595Y-149780952D01*
X103838214Y-149876190D01*
X103885833Y-149923809D01*
X103981071Y-149971428D01*
X104171547Y-149971428D01*
X104266785Y-149923809D01*
X104314404Y-149876190D01*
X104362023Y-149780952D01*
%TO.C,C17*%
X113007142Y-160607142D02*
X112959523Y-160654761D01*
X112816666Y-160702380D01*
X112721428Y-160702380D01*
X112578571Y-160654761D01*
X112483333Y-160559523D01*
X112435714Y-160464285D01*
X112388095Y-160273809D01*
X112388095Y-160130952D01*
X112435714Y-159940476D01*
X112483333Y-159845238D01*
X112578571Y-159750000D01*
X112721428Y-159702380D01*
X112816666Y-159702380D01*
X112959523Y-159750000D01*
X113007142Y-159797619D01*
X113959523Y-160702380D02*
X113388095Y-160702380D01*
X113673809Y-160702380D02*
X113673809Y-159702380D01*
X113578571Y-159845238D01*
X113483333Y-159940476D01*
X113388095Y-159988095D01*
X114292857Y-159702380D02*
X114959523Y-159702380D01*
X114530952Y-160702380D01*
%TO.C,R4*%
X118983333Y-134452380D02*
X118650000Y-133976190D01*
X118411904Y-134452380D02*
X118411904Y-133452380D01*
X118792857Y-133452380D01*
X118888095Y-133500000D01*
X118935714Y-133547619D01*
X118983333Y-133642857D01*
X118983333Y-133785714D01*
X118935714Y-133880952D01*
X118888095Y-133928571D01*
X118792857Y-133976190D01*
X118411904Y-133976190D01*
X119840476Y-133785714D02*
X119840476Y-134452380D01*
X119602380Y-133404761D02*
X119364285Y-134119047D01*
X119983333Y-134119047D01*
%TO.C,C2*%
X116307023Y-140607142D02*
X116259404Y-140654761D01*
X116116547Y-140702380D01*
X116021309Y-140702380D01*
X115878452Y-140654761D01*
X115783214Y-140559523D01*
X115735595Y-140464285D01*
X115687976Y-140273809D01*
X115687976Y-140130952D01*
X115735595Y-139940476D01*
X115783214Y-139845238D01*
X115878452Y-139750000D01*
X116021309Y-139702380D01*
X116116547Y-139702380D01*
X116259404Y-139750000D01*
X116307023Y-139797619D01*
X116687976Y-139797619D02*
X116735595Y-139750000D01*
X116830833Y-139702380D01*
X117068928Y-139702380D01*
X117164166Y-139750000D01*
X117211785Y-139797619D01*
X117259404Y-139892857D01*
X117259404Y-139988095D01*
X117211785Y-140130952D01*
X116640357Y-140702380D01*
X117259404Y-140702380D01*
%TO.C,C21*%
X105457261Y-142107142D02*
X105409642Y-142154761D01*
X105266785Y-142202380D01*
X105171547Y-142202380D01*
X105028690Y-142154761D01*
X104933452Y-142059523D01*
X104885833Y-141964285D01*
X104838214Y-141773809D01*
X104838214Y-141630952D01*
X104885833Y-141440476D01*
X104933452Y-141345238D01*
X105028690Y-141250000D01*
X105171547Y-141202380D01*
X105266785Y-141202380D01*
X105409642Y-141250000D01*
X105457261Y-141297619D01*
X105838214Y-141297619D02*
X105885833Y-141250000D01*
X105981071Y-141202380D01*
X106219166Y-141202380D01*
X106314404Y-141250000D01*
X106362023Y-141297619D01*
X106409642Y-141392857D01*
X106409642Y-141488095D01*
X106362023Y-141630952D01*
X105790595Y-142202380D01*
X106409642Y-142202380D01*
X107362023Y-142202380D02*
X106790595Y-142202380D01*
X107076309Y-142202380D02*
X107076309Y-141202380D01*
X106981071Y-141345238D01*
X106885833Y-141440476D01*
X106790595Y-141488095D01*
%TO.C,C3*%
X113233333Y-130107142D02*
X113185714Y-130154761D01*
X113042857Y-130202380D01*
X112947619Y-130202380D01*
X112804761Y-130154761D01*
X112709523Y-130059523D01*
X112661904Y-129964285D01*
X112614285Y-129773809D01*
X112614285Y-129630952D01*
X112661904Y-129440476D01*
X112709523Y-129345238D01*
X112804761Y-129250000D01*
X112947619Y-129202380D01*
X113042857Y-129202380D01*
X113185714Y-129250000D01*
X113233333Y-129297619D01*
X113566666Y-129202380D02*
X114185714Y-129202380D01*
X113852380Y-129583333D01*
X113995238Y-129583333D01*
X114090476Y-129630952D01*
X114138095Y-129678571D01*
X114185714Y-129773809D01*
X114185714Y-130011904D01*
X114138095Y-130107142D01*
X114090476Y-130154761D01*
X113995238Y-130202380D01*
X113709523Y-130202380D01*
X113614285Y-130154761D01*
X113566666Y-130107142D01*
%TO.C,J2*%
X126762380Y-137593333D02*
X127476666Y-137593333D01*
X127619523Y-137640952D01*
X127714761Y-137736190D01*
X127762380Y-137879047D01*
X127762380Y-137974285D01*
X126857619Y-137164761D02*
X126810000Y-137117142D01*
X126762380Y-137021904D01*
X126762380Y-136783809D01*
X126810000Y-136688571D01*
X126857619Y-136640952D01*
X126952857Y-136593333D01*
X127048095Y-136593333D01*
X127190952Y-136640952D01*
X127762380Y-137212380D01*
X127762380Y-136593333D01*
%TO.C,U2*%
X133638095Y-140702380D02*
X133638095Y-141511904D01*
X133685714Y-141607142D01*
X133733333Y-141654761D01*
X133828571Y-141702380D01*
X134019047Y-141702380D01*
X134114285Y-141654761D01*
X134161904Y-141607142D01*
X134209523Y-141511904D01*
X134209523Y-140702380D01*
X134638095Y-140797619D02*
X134685714Y-140750000D01*
X134780952Y-140702380D01*
X135019047Y-140702380D01*
X135114285Y-140750000D01*
X135161904Y-140797619D01*
X135209523Y-140892857D01*
X135209523Y-140988095D01*
X135161904Y-141130952D01*
X134590476Y-141702380D01*
X135209523Y-141702380D01*
%TO.C,R10*%
X132257142Y-148952380D02*
X131923809Y-148476190D01*
X131685714Y-148952380D02*
X131685714Y-147952380D01*
X132066666Y-147952380D01*
X132161904Y-148000000D01*
X132209523Y-148047619D01*
X132257142Y-148142857D01*
X132257142Y-148285714D01*
X132209523Y-148380952D01*
X132161904Y-148428571D01*
X132066666Y-148476190D01*
X131685714Y-148476190D01*
X133209523Y-148952380D02*
X132638095Y-148952380D01*
X132923809Y-148952380D02*
X132923809Y-147952380D01*
X132828571Y-148095238D01*
X132733333Y-148190476D01*
X132638095Y-148238095D01*
X133828571Y-147952380D02*
X133923809Y-147952380D01*
X134019047Y-148000000D01*
X134066666Y-148047619D01*
X134114285Y-148142857D01*
X134161904Y-148333333D01*
X134161904Y-148571428D01*
X134114285Y-148761904D01*
X134066666Y-148857142D01*
X134019047Y-148904761D01*
X133923809Y-148952380D01*
X133828571Y-148952380D01*
X133733333Y-148904761D01*
X133685714Y-148857142D01*
X133638095Y-148761904D01*
X133590476Y-148571428D01*
X133590476Y-148333333D01*
X133638095Y-148142857D01*
X133685714Y-148047619D01*
X133733333Y-148000000D01*
X133828571Y-147952380D01*
%TO.C,C5*%
X105909642Y-135107142D02*
X105862023Y-135154761D01*
X105719166Y-135202380D01*
X105623928Y-135202380D01*
X105481071Y-135154761D01*
X105385833Y-135059523D01*
X105338214Y-134964285D01*
X105290595Y-134773809D01*
X105290595Y-134630952D01*
X105338214Y-134440476D01*
X105385833Y-134345238D01*
X105481071Y-134250000D01*
X105623928Y-134202380D01*
X105719166Y-134202380D01*
X105862023Y-134250000D01*
X105909642Y-134297619D01*
X106814404Y-134202380D02*
X106338214Y-134202380D01*
X106290595Y-134678571D01*
X106338214Y-134630952D01*
X106433452Y-134583333D01*
X106671547Y-134583333D01*
X106766785Y-134630952D01*
X106814404Y-134678571D01*
X106862023Y-134773809D01*
X106862023Y-135011904D01*
X106814404Y-135107142D01*
X106766785Y-135154761D01*
X106671547Y-135202380D01*
X106433452Y-135202380D01*
X106338214Y-135154761D01*
X106290595Y-135107142D01*
%TO.C,C1*%
X116307023Y-142357142D02*
X116259404Y-142404761D01*
X116116547Y-142452380D01*
X116021309Y-142452380D01*
X115878452Y-142404761D01*
X115783214Y-142309523D01*
X115735595Y-142214285D01*
X115687976Y-142023809D01*
X115687976Y-141880952D01*
X115735595Y-141690476D01*
X115783214Y-141595238D01*
X115878452Y-141500000D01*
X116021309Y-141452380D01*
X116116547Y-141452380D01*
X116259404Y-141500000D01*
X116307023Y-141547619D01*
X117259404Y-142452380D02*
X116687976Y-142452380D01*
X116973690Y-142452380D02*
X116973690Y-141452380D01*
X116878452Y-141595238D01*
X116783214Y-141690476D01*
X116687976Y-141738095D01*
%TO.C,J5*%
X81615813Y-141050979D02*
X81615813Y-141767093D01*
X81568072Y-141910315D01*
X81472590Y-142005797D01*
X81329368Y-142053538D01*
X81233886Y-142053538D01*
X82570631Y-141050979D02*
X82093222Y-141050979D01*
X82045481Y-141528388D01*
X82093222Y-141480647D01*
X82188704Y-141432906D01*
X82427409Y-141432906D01*
X82522890Y-141480647D01*
X82570631Y-141528388D01*
X82618372Y-141623870D01*
X82618372Y-141862574D01*
X82570631Y-141958056D01*
X82522890Y-142005797D01*
X82427409Y-142053538D01*
X82188704Y-142053538D01*
X82093222Y-142005797D01*
X82045481Y-141958056D01*
%TO.C,C10*%
X95207261Y-139357142D02*
X95159642Y-139404761D01*
X95016785Y-139452380D01*
X94921547Y-139452380D01*
X94778690Y-139404761D01*
X94683452Y-139309523D01*
X94635833Y-139214285D01*
X94588214Y-139023809D01*
X94588214Y-138880952D01*
X94635833Y-138690476D01*
X94683452Y-138595238D01*
X94778690Y-138500000D01*
X94921547Y-138452380D01*
X95016785Y-138452380D01*
X95159642Y-138500000D01*
X95207261Y-138547619D01*
X96159642Y-139452380D02*
X95588214Y-139452380D01*
X95873928Y-139452380D02*
X95873928Y-138452380D01*
X95778690Y-138595238D01*
X95683452Y-138690476D01*
X95588214Y-138738095D01*
X96778690Y-138452380D02*
X96873928Y-138452380D01*
X96969166Y-138500000D01*
X97016785Y-138547619D01*
X97064404Y-138642857D01*
X97112023Y-138833333D01*
X97112023Y-139071428D01*
X97064404Y-139261904D01*
X97016785Y-139357142D01*
X96969166Y-139404761D01*
X96873928Y-139452380D01*
X96778690Y-139452380D01*
X96683452Y-139404761D01*
X96635833Y-139357142D01*
X96588214Y-139261904D01*
X96540595Y-139071428D01*
X96540595Y-138833333D01*
X96588214Y-138642857D01*
X96635833Y-138547619D01*
X96683452Y-138500000D01*
X96778690Y-138452380D01*
%TO.C,R11*%
X121757023Y-147152380D02*
X121423690Y-146676190D01*
X121185595Y-147152380D02*
X121185595Y-146152380D01*
X121566547Y-146152380D01*
X121661785Y-146200000D01*
X121709404Y-146247619D01*
X121757023Y-146342857D01*
X121757023Y-146485714D01*
X121709404Y-146580952D01*
X121661785Y-146628571D01*
X121566547Y-146676190D01*
X121185595Y-146676190D01*
X122709404Y-147152380D02*
X122137976Y-147152380D01*
X122423690Y-147152380D02*
X122423690Y-146152380D01*
X122328452Y-146295238D01*
X122233214Y-146390476D01*
X122137976Y-146438095D01*
X123661785Y-147152380D02*
X123090357Y-147152380D01*
X123376071Y-147152380D02*
X123376071Y-146152380D01*
X123280833Y-146295238D01*
X123185595Y-146390476D01*
X123090357Y-146438095D01*
D11*
%TO.C,C6*%
X108911252Y-135315000D02*
X108388748Y-135315000D01*
X108911252Y-136785000D02*
X108388748Y-136785000D01*
%TO.C,R2*%
X110127064Y-143015000D02*
X109672936Y-143015000D01*
X110127064Y-144485000D02*
X109672936Y-144485000D01*
%TO.C,FB1*%
X108422936Y-138785000D02*
X108877064Y-138785000D01*
X108422936Y-137315000D02*
X108877064Y-137315000D01*
%TO.C,R12*%
X114915000Y-157522936D02*
X114915000Y-157977064D01*
X116385000Y-157522936D02*
X116385000Y-157977064D01*
%TO.C,R7*%
X102627064Y-134985000D02*
X102172936Y-134985000D01*
X102627064Y-133515000D02*
X102172936Y-133515000D01*
D12*
%TO.C,J4*%
X80175000Y-148775000D02*
X80175000Y-157725000D01*
X86835000Y-148775000D02*
X86835000Y-157725000D01*
X80525000Y-148775000D02*
X80175000Y-148775000D01*
X80175000Y-157725000D02*
X80525000Y-157725000D01*
D11*
%TO.C,R6*%
X131385000Y-151227064D02*
X131385000Y-150772936D01*
X129915000Y-151227064D02*
X129915000Y-150772936D01*
D13*
%TO.C,SW2*%
X128612500Y-150650000D02*
X128612500Y-155350000D01*
X128362500Y-150650000D02*
X128612500Y-150650000D01*
X128612500Y-155350000D02*
X128362500Y-155350000D01*
D11*
%TO.C,C4*%
X107865000Y-140788748D02*
X107865000Y-141311252D01*
X109335000Y-140788748D02*
X109335000Y-141311252D01*
%TO.C,R5*%
X110715000Y-132377064D02*
X110715000Y-131922936D01*
X112185000Y-132377064D02*
X112185000Y-131922936D01*
D13*
%TO.C,Y2*%
X101150000Y-132350000D02*
X100150000Y-132350000D01*
X102500000Y-128650000D02*
X102500000Y-128650000D01*
X102500000Y-128750000D02*
X102500000Y-128750000D01*
X101150000Y-129150000D02*
X100150000Y-129150000D01*
X102500000Y-128750000D02*
G75*
G03*
X102500000Y-128650000I0J50000D01*
G01*
X102500000Y-128650000D02*
G75*
G03*
X102500000Y-128750000I0J-50000D01*
G01*
D11*
%TO.C,SW1*%
X127150000Y-129600000D02*
X127150000Y-128750000D01*
X118150000Y-129600000D02*
X118150000Y-128750000D01*
X126400000Y-126400000D02*
X127150000Y-126400000D01*
X127150000Y-127250000D02*
X127150000Y-126400000D01*
X118150000Y-126400000D02*
X118900000Y-126400000D01*
X126400000Y-129600000D02*
X127150000Y-129600000D01*
X125400000Y-132500000D02*
X121900000Y-132500000D01*
X118150000Y-129600000D02*
X118900000Y-129600000D01*
X118150000Y-127250000D02*
X118150000Y-126400000D01*
X121900000Y-132000000D02*
X121400000Y-132000000D01*
X121400000Y-132000000D02*
X121400000Y-132500000D01*
X121400000Y-132500000D02*
X121900000Y-132500000D01*
X121900000Y-132500000D02*
X121900000Y-132000000D01*
G36*
X121900000Y-132000000D02*
G01*
X121400000Y-132000000D01*
X121400000Y-132500000D01*
X121900000Y-132500000D01*
X121900000Y-132000000D01*
G37*
X125900000Y-132500000D02*
X125400000Y-132500000D01*
X125400000Y-132500000D02*
X125400000Y-132000000D01*
X125400000Y-132000000D02*
X125900000Y-132000000D01*
X125900000Y-132000000D02*
X125900000Y-132500000D01*
G36*
X125900000Y-132500000D02*
G01*
X125400000Y-132500000D01*
X125400000Y-132000000D01*
X125900000Y-132000000D01*
X125900000Y-132500000D01*
G37*
D12*
%TO.C,J3*%
X140625000Y-157725000D02*
X140975000Y-157725000D01*
X140975000Y-148775000D02*
X140625000Y-148775000D01*
X134315000Y-157725000D02*
X134315000Y-148775000D01*
X140975000Y-157725000D02*
X140975000Y-148775000D01*
D11*
%TO.C,C12*%
X104665000Y-129738748D02*
X104665000Y-130261252D01*
X106135000Y-129738748D02*
X106135000Y-130261252D01*
%TO.C,C16*%
X119411252Y-155935000D02*
X118888748Y-155935000D01*
X119411252Y-154465000D02*
X118888748Y-154465000D01*
%TO.C,U4*%
X139090000Y-125180000D02*
X141090000Y-125180000D01*
X141090000Y-125180000D02*
X141090000Y-127180000D01*
X141090000Y-165820000D02*
X141090000Y-160740000D01*
X80130000Y-165820000D02*
X80130000Y-160740000D01*
X80130000Y-127180000D02*
X80130000Y-125180000D01*
X80130000Y-125180000D02*
X82130000Y-125180000D01*
%TO.C,C14*%
X119411252Y-150115000D02*
X118888748Y-150115000D01*
X119411252Y-151585000D02*
X118888748Y-151585000D01*
D12*
%TO.C,IC1*%
X116050000Y-146875000D02*
G75*
G03*
X116050000Y-146875000I-100000J0D01*
G01*
D11*
%TO.C,R3*%
X113627064Y-144485000D02*
X113172936Y-144485000D01*
X113627064Y-143015000D02*
X113172936Y-143015000D01*
%TO.C,C18*%
X112285000Y-157488748D02*
X112285000Y-158011252D01*
X110815000Y-157488748D02*
X110815000Y-158011252D01*
%TO.C,C13*%
X99161252Y-133515000D02*
X98638748Y-133515000D01*
X99161252Y-134985000D02*
X98638748Y-134985000D01*
%TO.C,C11*%
X99161252Y-137735000D02*
X98638748Y-137735000D01*
X99161252Y-136265000D02*
X98638748Y-136265000D01*
D13*
%TO.C,Y1*%
X103000000Y-138050000D02*
X103000000Y-137650000D01*
X102200000Y-139550000D02*
X102200000Y-139550000D01*
X101800000Y-138050000D02*
X101800000Y-137650000D01*
X102200000Y-139650000D02*
X102200000Y-139650000D01*
X102200000Y-139550000D02*
G75*
G03*
X102200000Y-139650000I0J-50000D01*
G01*
X102200000Y-139650000D02*
G75*
G03*
X102200000Y-139550000I0J50000D01*
G01*
D11*
%TO.C,R1*%
X108422936Y-131315000D02*
X108877064Y-131315000D01*
X108422936Y-132785000D02*
X108877064Y-132785000D01*
%TO.C,C9*%
X129915000Y-155511252D02*
X129915000Y-154988748D01*
X131385000Y-155511252D02*
X131385000Y-154988748D01*
%TO.C,U1*%
X114922000Y-134796000D02*
X114922000Y-137489500D01*
X111378000Y-134796000D02*
X114922000Y-134796000D01*
X114107500Y-138304000D02*
X111378000Y-138304000D01*
X111378000Y-138304000D02*
X111378000Y-134796000D01*
%TO.C,R8*%
X119377064Y-149335000D02*
X118922936Y-149335000D01*
X119377064Y-147865000D02*
X118922936Y-147865000D01*
%TO.C,C8*%
X130739878Y-143738748D02*
X130739878Y-144261252D01*
X132209878Y-143738748D02*
X132209878Y-144261252D01*
%TO.C,C20*%
X106411252Y-151165000D02*
X105888748Y-151165000D01*
X106411252Y-152635000D02*
X105888748Y-152635000D01*
%TO.C,R9*%
X131915000Y-155022936D02*
X131915000Y-155477064D01*
X133385000Y-155022936D02*
X133385000Y-155477064D01*
%TO.C,C15*%
X119411252Y-153885000D02*
X118888748Y-153885000D01*
X119411252Y-152415000D02*
X118888748Y-152415000D01*
%TO.C,C7*%
X136739878Y-143788748D02*
X136739878Y-144311252D01*
X138209878Y-143788748D02*
X138209878Y-144311252D01*
%TO.C,R13*%
X87665000Y-151022936D02*
X87665000Y-151477064D01*
X89135000Y-151022936D02*
X89135000Y-151477064D01*
D14*
%TO.C,J1*%
X134900000Y-128900000D02*
X129150000Y-128900000D01*
X129150000Y-128900000D02*
X129150000Y-139700000D01*
X140950000Y-128900000D02*
X137800000Y-128900000D01*
X140150000Y-139700000D02*
X140950000Y-139700000D01*
X137150000Y-139700000D02*
X129150000Y-139700000D01*
D15*
X128600000Y-133750000D02*
G75*
G03*
X128600000Y-133750000I-200000J0D01*
G01*
D11*
%TO.C,R14*%
X87665000Y-155422936D02*
X87665000Y-155877064D01*
X89135000Y-155422936D02*
X89135000Y-155877064D01*
%TO.C,C19*%
X106411252Y-149165000D02*
X105888748Y-149165000D01*
X106411252Y-150635000D02*
X105888748Y-150635000D01*
%TO.C,C17*%
X114285000Y-157488748D02*
X114285000Y-158011252D01*
X112815000Y-157488748D02*
X112815000Y-158011252D01*
%TO.C,R4*%
X118515000Y-131777064D02*
X118515000Y-131322936D01*
X119985000Y-131777064D02*
X119985000Y-131322936D01*
%TO.C,C2*%
X113335000Y-140788748D02*
X113335000Y-141311252D01*
X111865000Y-140788748D02*
X111865000Y-141311252D01*
%TO.C,C21*%
X109865000Y-140788748D02*
X109865000Y-141311252D01*
X111335000Y-140788748D02*
X111335000Y-141311252D01*
%TO.C,C3*%
X114185000Y-132411252D02*
X114185000Y-131888748D01*
X112715000Y-132411252D02*
X112715000Y-131888748D01*
%TO.C,J2*%
X119400000Y-135675000D02*
X119400000Y-136317470D01*
X124540000Y-138845000D02*
X119400000Y-138845000D01*
X125870000Y-135675000D02*
X125870000Y-136317470D01*
X119400000Y-136932530D02*
X119400000Y-137587470D01*
X125935000Y-138845000D02*
X125175000Y-138845000D01*
X124540000Y-138655000D02*
X124540000Y-138845000D01*
X119400000Y-138202530D02*
X119400000Y-138845000D01*
X125935000Y-137895000D02*
X125935000Y-138845000D01*
X125870000Y-136932530D02*
X125870000Y-137135000D01*
X125870000Y-135675000D02*
X119400000Y-135675000D01*
%TO.C,U2*%
X132914878Y-144000000D02*
X132914878Y-143200000D01*
X132914878Y-144000000D02*
X132914878Y-144800000D01*
X136034878Y-144000000D02*
X136034878Y-142200000D01*
X136034878Y-144000000D02*
X136034878Y-144800000D01*
%TO.C,R10*%
X131915000Y-150772936D02*
X131915000Y-151227064D01*
X133385000Y-150772936D02*
X133385000Y-151227064D01*
%TO.C,C5*%
X108911252Y-133315000D02*
X108388748Y-133315000D01*
X108911252Y-134785000D02*
X108388748Y-134785000D01*
%TO.C,C1*%
X113865000Y-140788748D02*
X113865000Y-141311252D01*
X115335000Y-140788748D02*
X115335000Y-141311252D01*
D14*
%TO.C,J5*%
X92150000Y-140100000D02*
X92150000Y-129300000D01*
X81150000Y-129300000D02*
X80350000Y-129300000D01*
X80350000Y-140100000D02*
X83500000Y-140100000D01*
X86400000Y-140100000D02*
X92150000Y-140100000D01*
X84150000Y-129300000D02*
X92150000Y-129300000D01*
D15*
X93100000Y-135250000D02*
G75*
G03*
X93100000Y-135250000I-200000J0D01*
G01*
D11*
%TO.C,C10*%
X99161252Y-139735000D02*
X98638748Y-139735000D01*
X99161252Y-138265000D02*
X98638748Y-138265000D01*
%TO.C,R11*%
X118922936Y-147435000D02*
X119377064Y-147435000D01*
X118922936Y-145965000D02*
X119377064Y-145965000D01*
%TD*%
M02*
