%TF.GenerationSoftware,KiCad,Pcbnew,(6.0.6)*%
%TF.CreationDate,2022-09-05T11:06:28-07:00*%
%TF.ProjectId,Nour-Valkyrie,4e6f7572-2d56-4616-9c6b-797269652e6b,rev?*%
%TF.SameCoordinates,Original*%
%TF.FileFunction,Legend,Top*%
%TF.FilePolarity,Positive*%
%FSLAX46Y46*%
G04 Gerber Fmt 4.6, Leading zero omitted, Abs format (unit mm)*
G04 Created by KiCad (PCBNEW (6.0.6)) date 2022-09-05 11:06:28*
%MOMM*%
%LPD*%
G01*
G04 APERTURE LIST*
%ADD10C,0.150000*%
%ADD11C,0.127000*%
%ADD12C,0.200000*%
%ADD13C,0.120000*%
G04 APERTURE END LIST*
D10*
%TO.C,SW53*%
X54071428Y-227178571D02*
X54214285Y-227226190D01*
X54261904Y-227273809D01*
X54309523Y-227369047D01*
X54309523Y-227511904D01*
X54261904Y-227607142D01*
X54214285Y-227654761D01*
X54119047Y-227702380D01*
X53738095Y-227702380D01*
X53738095Y-226702380D01*
X54071428Y-226702380D01*
X54166666Y-226750000D01*
X54214285Y-226797619D01*
X54261904Y-226892857D01*
X54261904Y-226988095D01*
X54214285Y-227083333D01*
X54166666Y-227130952D01*
X54071428Y-227178571D01*
X53738095Y-227178571D01*
%TO.C,D46*%
X82222857Y-171642523D02*
X82222857Y-171002523D01*
X82375238Y-171002523D01*
X82466666Y-171033000D01*
X82527619Y-171093952D01*
X82558095Y-171154904D01*
X82588571Y-171276809D01*
X82588571Y-171368238D01*
X82558095Y-171490142D01*
X82527619Y-171551095D01*
X82466666Y-171612047D01*
X82375238Y-171642523D01*
X82222857Y-171642523D01*
X83137142Y-171215857D02*
X83137142Y-171642523D01*
X82984761Y-170972047D02*
X82832380Y-171429190D01*
X83228571Y-171429190D01*
X83746666Y-171002523D02*
X83624761Y-171002523D01*
X83563809Y-171033000D01*
X83533333Y-171063476D01*
X83472380Y-171154904D01*
X83441904Y-171276809D01*
X83441904Y-171520619D01*
X83472380Y-171581571D01*
X83502857Y-171612047D01*
X83563809Y-171642523D01*
X83685714Y-171642523D01*
X83746666Y-171612047D01*
X83777142Y-171581571D01*
X83807619Y-171520619D01*
X83807619Y-171368238D01*
X83777142Y-171307285D01*
X83746666Y-171276809D01*
X83685714Y-171246333D01*
X83563809Y-171246333D01*
X83502857Y-171276809D01*
X83472380Y-171307285D01*
X83441904Y-171368238D01*
%TO.C,SW36*%
X129761904Y-208416666D02*
X130238095Y-208416666D01*
X129666666Y-208702380D02*
X130000000Y-207702380D01*
X130333333Y-208702380D01*
D11*
%TO.C,D79*%
X119735000Y-182085000D02*
X119735000Y-181455000D01*
X119885000Y-181455000D01*
X119975000Y-181485000D01*
X120035000Y-181545000D01*
X120065000Y-181605000D01*
X120095000Y-181725000D01*
X120095000Y-181815000D01*
X120065000Y-181935000D01*
X120035000Y-181995000D01*
X119975000Y-182055000D01*
X119885000Y-182085000D01*
X119735000Y-182085000D01*
X120305000Y-181455000D02*
X120725000Y-181455000D01*
X120455000Y-182085000D01*
X120995000Y-182085000D02*
X121115000Y-182085000D01*
X121175000Y-182055000D01*
X121205000Y-182025000D01*
X121265000Y-181935000D01*
X121295000Y-181815000D01*
X121295000Y-181575000D01*
X121265000Y-181515000D01*
X121235000Y-181485000D01*
X121175000Y-181455000D01*
X121055000Y-181455000D01*
X120995000Y-181485000D01*
X120965000Y-181515000D01*
X120935000Y-181575000D01*
X120935000Y-181725000D01*
X120965000Y-181785000D01*
X120995000Y-181815000D01*
X121055000Y-181845000D01*
X121175000Y-181845000D01*
X121235000Y-181815000D01*
X121265000Y-181785000D01*
X121295000Y-181725000D01*
D10*
%TO.C,D49*%
X82222857Y-228642523D02*
X82222857Y-228002523D01*
X82375238Y-228002523D01*
X82466666Y-228033000D01*
X82527619Y-228093952D01*
X82558095Y-228154904D01*
X82588571Y-228276809D01*
X82588571Y-228368238D01*
X82558095Y-228490142D01*
X82527619Y-228551095D01*
X82466666Y-228612047D01*
X82375238Y-228642523D01*
X82222857Y-228642523D01*
X83137142Y-228215857D02*
X83137142Y-228642523D01*
X82984761Y-227972047D02*
X82832380Y-228429190D01*
X83228571Y-228429190D01*
X83502857Y-228642523D02*
X83624761Y-228642523D01*
X83685714Y-228612047D01*
X83716190Y-228581571D01*
X83777142Y-228490142D01*
X83807619Y-228368238D01*
X83807619Y-228124428D01*
X83777142Y-228063476D01*
X83746666Y-228033000D01*
X83685714Y-228002523D01*
X83563809Y-228002523D01*
X83502857Y-228033000D01*
X83472380Y-228063476D01*
X83441904Y-228124428D01*
X83441904Y-228276809D01*
X83472380Y-228337761D01*
X83502857Y-228368238D01*
X83563809Y-228398714D01*
X83685714Y-228398714D01*
X83746666Y-228368238D01*
X83777142Y-228337761D01*
X83807619Y-228276809D01*
%TO.C,SW33*%
X147452380Y-207750000D02*
X147357142Y-207702380D01*
X147214285Y-207702380D01*
X147071428Y-207750000D01*
X146976190Y-207845238D01*
X146928571Y-207940476D01*
X146880952Y-208130952D01*
X146880952Y-208273809D01*
X146928571Y-208464285D01*
X146976190Y-208559523D01*
X147071428Y-208654761D01*
X147214285Y-208702380D01*
X147309523Y-208702380D01*
X147452380Y-208654761D01*
X147500000Y-208607142D01*
X147500000Y-208273809D01*
X147309523Y-208273809D01*
X148500000Y-208702380D02*
X148166666Y-208226190D01*
X147928571Y-208702380D02*
X147928571Y-207702380D01*
X148309523Y-207702380D01*
X148404761Y-207750000D01*
X148452380Y-207797619D01*
X148500000Y-207892857D01*
X148500000Y-208035714D01*
X148452380Y-208130952D01*
X148404761Y-208178571D01*
X148309523Y-208226190D01*
X147928571Y-208226190D01*
X148880952Y-208416666D02*
X149357142Y-208416666D01*
X148785714Y-208702380D02*
X149119047Y-207702380D01*
X149452380Y-208702380D01*
X149642857Y-207702380D02*
X149976190Y-208702380D01*
X150309523Y-207702380D01*
X150642857Y-208178571D02*
X150976190Y-208178571D01*
X151119047Y-208702380D02*
X150642857Y-208702380D01*
X150642857Y-207702380D01*
X151119047Y-207702380D01*
D11*
%TO.C,D34*%
X167235000Y-119585000D02*
X167235000Y-118955000D01*
X167385000Y-118955000D01*
X167475000Y-118985000D01*
X167535000Y-119045000D01*
X167565000Y-119105000D01*
X167595000Y-119225000D01*
X167595000Y-119315000D01*
X167565000Y-119435000D01*
X167535000Y-119495000D01*
X167475000Y-119555000D01*
X167385000Y-119585000D01*
X167235000Y-119585000D01*
X167805000Y-118955000D02*
X168195000Y-118955000D01*
X167985000Y-119195000D01*
X168075000Y-119195000D01*
X168135000Y-119225000D01*
X168165000Y-119255000D01*
X168195000Y-119315000D01*
X168195000Y-119465000D01*
X168165000Y-119525000D01*
X168135000Y-119555000D01*
X168075000Y-119585000D01*
X167895000Y-119585000D01*
X167835000Y-119555000D01*
X167805000Y-119525000D01*
X168735000Y-119165000D02*
X168735000Y-119585000D01*
X168585000Y-118925000D02*
X168435000Y-119375000D01*
X168825000Y-119375000D01*
D10*
%TO.C,U3*%
X159988095Y-109397380D02*
X159988095Y-110206904D01*
X160035714Y-110302142D01*
X160083333Y-110349761D01*
X160178571Y-110397380D01*
X160369047Y-110397380D01*
X160464285Y-110349761D01*
X160511904Y-110302142D01*
X160559523Y-110206904D01*
X160559523Y-109397380D01*
X160940476Y-109397380D02*
X161559523Y-109397380D01*
X161226190Y-109778333D01*
X161369047Y-109778333D01*
X161464285Y-109825952D01*
X161511904Y-109873571D01*
X161559523Y-109968809D01*
X161559523Y-110206904D01*
X161511904Y-110302142D01*
X161464285Y-110349761D01*
X161369047Y-110397380D01*
X161083333Y-110397380D01*
X160988095Y-110349761D01*
X160940476Y-110302142D01*
D11*
%TO.C,D81*%
X157735000Y-182085000D02*
X157735000Y-181455000D01*
X157885000Y-181455000D01*
X157975000Y-181485000D01*
X158035000Y-181545000D01*
X158065000Y-181605000D01*
X158095000Y-181725000D01*
X158095000Y-181815000D01*
X158065000Y-181935000D01*
X158035000Y-181995000D01*
X157975000Y-182055000D01*
X157885000Y-182085000D01*
X157735000Y-182085000D01*
X158455000Y-181725000D02*
X158395000Y-181695000D01*
X158365000Y-181665000D01*
X158335000Y-181605000D01*
X158335000Y-181575000D01*
X158365000Y-181515000D01*
X158395000Y-181485000D01*
X158455000Y-181455000D01*
X158575000Y-181455000D01*
X158635000Y-181485000D01*
X158665000Y-181515000D01*
X158695000Y-181575000D01*
X158695000Y-181605000D01*
X158665000Y-181665000D01*
X158635000Y-181695000D01*
X158575000Y-181725000D01*
X158455000Y-181725000D01*
X158395000Y-181755000D01*
X158365000Y-181785000D01*
X158335000Y-181845000D01*
X158335000Y-181965000D01*
X158365000Y-182025000D01*
X158395000Y-182055000D01*
X158455000Y-182085000D01*
X158575000Y-182085000D01*
X158635000Y-182055000D01*
X158665000Y-182025000D01*
X158695000Y-181965000D01*
X158695000Y-181845000D01*
X158665000Y-181785000D01*
X158635000Y-181755000D01*
X158575000Y-181725000D01*
X159295000Y-182085000D02*
X158935000Y-182085000D01*
X159115000Y-182085000D02*
X159115000Y-181455000D01*
X159055000Y-181545000D01*
X158995000Y-181605000D01*
X158935000Y-181635000D01*
D10*
%TO.C,SW13*%
X130047619Y-129654761D02*
X130047619Y-129702380D01*
X130000000Y-129797619D01*
X129952380Y-129845238D01*
%TO.C,SW49*%
X72666666Y-224702380D02*
X73000000Y-225702380D01*
X73333333Y-224702380D01*
%TO.C,SW8*%
X149142857Y-115702380D02*
X149142857Y-116416666D01*
X149095238Y-116559523D01*
X149000000Y-116654761D01*
X148857142Y-116702380D01*
X148761904Y-116702380D01*
%TO.C,D5*%
X81527619Y-88892523D02*
X81527619Y-88252523D01*
X81680000Y-88252523D01*
X81771428Y-88283000D01*
X81832380Y-88343952D01*
X81862857Y-88404904D01*
X81893333Y-88526809D01*
X81893333Y-88618238D01*
X81862857Y-88740142D01*
X81832380Y-88801095D01*
X81771428Y-88862047D01*
X81680000Y-88892523D01*
X81527619Y-88892523D01*
X82472380Y-88252523D02*
X82167619Y-88252523D01*
X82137142Y-88557285D01*
X82167619Y-88526809D01*
X82228571Y-88496333D01*
X82380952Y-88496333D01*
X82441904Y-88526809D01*
X82472380Y-88557285D01*
X82502857Y-88618238D01*
X82502857Y-88770619D01*
X82472380Y-88831571D01*
X82441904Y-88862047D01*
X82380952Y-88892523D01*
X82228571Y-88892523D01*
X82167619Y-88862047D01*
X82137142Y-88831571D01*
%TO.C,D43*%
X139222857Y-197892523D02*
X139222857Y-197252523D01*
X139375238Y-197252523D01*
X139466666Y-197283000D01*
X139527619Y-197343952D01*
X139558095Y-197404904D01*
X139588571Y-197526809D01*
X139588571Y-197618238D01*
X139558095Y-197740142D01*
X139527619Y-197801095D01*
X139466666Y-197862047D01*
X139375238Y-197892523D01*
X139222857Y-197892523D01*
X140137142Y-197465857D02*
X140137142Y-197892523D01*
X139984761Y-197222047D02*
X139832380Y-197679190D01*
X140228571Y-197679190D01*
X140411428Y-197252523D02*
X140807619Y-197252523D01*
X140594285Y-197496333D01*
X140685714Y-197496333D01*
X140746666Y-197526809D01*
X140777142Y-197557285D01*
X140807619Y-197618238D01*
X140807619Y-197770619D01*
X140777142Y-197831571D01*
X140746666Y-197862047D01*
X140685714Y-197892523D01*
X140502857Y-197892523D01*
X140441904Y-197862047D01*
X140411428Y-197831571D01*
%TO.C,SW26*%
X53809523Y-100035714D02*
X54047619Y-100035714D01*
X54047619Y-98607142D01*
X53809523Y-98607142D01*
%TO.C,SW23*%
X73190476Y-100035714D02*
X72952380Y-100035714D01*
X72952380Y-98607142D01*
X73190476Y-98607142D01*
D11*
%TO.C,D80*%
X142235000Y-220085000D02*
X142235000Y-219455000D01*
X142385000Y-219455000D01*
X142475000Y-219485000D01*
X142535000Y-219545000D01*
X142565000Y-219605000D01*
X142595000Y-219725000D01*
X142595000Y-219815000D01*
X142565000Y-219935000D01*
X142535000Y-219995000D01*
X142475000Y-220055000D01*
X142385000Y-220085000D01*
X142235000Y-220085000D01*
X142955000Y-219725000D02*
X142895000Y-219695000D01*
X142865000Y-219665000D01*
X142835000Y-219605000D01*
X142835000Y-219575000D01*
X142865000Y-219515000D01*
X142895000Y-219485000D01*
X142955000Y-219455000D01*
X143075000Y-219455000D01*
X143135000Y-219485000D01*
X143165000Y-219515000D01*
X143195000Y-219575000D01*
X143195000Y-219605000D01*
X143165000Y-219665000D01*
X143135000Y-219695000D01*
X143075000Y-219725000D01*
X142955000Y-219725000D01*
X142895000Y-219755000D01*
X142865000Y-219785000D01*
X142835000Y-219845000D01*
X142835000Y-219965000D01*
X142865000Y-220025000D01*
X142895000Y-220055000D01*
X142955000Y-220085000D01*
X143075000Y-220085000D01*
X143135000Y-220055000D01*
X143165000Y-220025000D01*
X143195000Y-219965000D01*
X143195000Y-219845000D01*
X143165000Y-219785000D01*
X143135000Y-219755000D01*
X143075000Y-219725000D01*
X143585000Y-219455000D02*
X143645000Y-219455000D01*
X143705000Y-219485000D01*
X143735000Y-219515000D01*
X143765000Y-219575000D01*
X143795000Y-219695000D01*
X143795000Y-219845000D01*
X143765000Y-219965000D01*
X143735000Y-220025000D01*
X143705000Y-220055000D01*
X143645000Y-220085000D01*
X143585000Y-220085000D01*
X143525000Y-220055000D01*
X143495000Y-220025000D01*
X143465000Y-219965000D01*
X143435000Y-219845000D01*
X143435000Y-219695000D01*
X143465000Y-219575000D01*
X143495000Y-219515000D01*
X143525000Y-219485000D01*
X143585000Y-219455000D01*
D10*
%TO.C,D2*%
X138527619Y-100642523D02*
X138527619Y-100002523D01*
X138680000Y-100002523D01*
X138771428Y-100033000D01*
X138832380Y-100093952D01*
X138862857Y-100154904D01*
X138893333Y-100276809D01*
X138893333Y-100368238D01*
X138862857Y-100490142D01*
X138832380Y-100551095D01*
X138771428Y-100612047D01*
X138680000Y-100642523D01*
X138527619Y-100642523D01*
X139137142Y-100063476D02*
X139167619Y-100033000D01*
X139228571Y-100002523D01*
X139380952Y-100002523D01*
X139441904Y-100033000D01*
X139472380Y-100063476D01*
X139502857Y-100124428D01*
X139502857Y-100185380D01*
X139472380Y-100276809D01*
X139106666Y-100642523D01*
X139502857Y-100642523D01*
%TO.C,SW18*%
X109500000Y-151702380D02*
X109023809Y-151702380D01*
X109023809Y-150702380D01*
X109785714Y-151416666D02*
X110261904Y-151416666D01*
X109690476Y-151702380D02*
X110023809Y-150702380D01*
X110357142Y-151702380D01*
X110880952Y-151226190D02*
X110880952Y-151702380D01*
X110547619Y-150702380D02*
X110880952Y-151226190D01*
X111214285Y-150702380D01*
X111547619Y-151178571D02*
X111880952Y-151178571D01*
X112023809Y-151702380D02*
X111547619Y-151702380D01*
X111547619Y-150702380D01*
X112023809Y-150702380D01*
X113023809Y-151702380D02*
X112690476Y-151226190D01*
X112452380Y-151702380D02*
X112452380Y-150702380D01*
X112833333Y-150702380D01*
X112928571Y-150750000D01*
X112976190Y-150797619D01*
X113023809Y-150892857D01*
X113023809Y-151035714D01*
X112976190Y-151130952D01*
X112928571Y-151178571D01*
X112833333Y-151226190D01*
X112452380Y-151226190D01*
%TO.C,SW21*%
X92428571Y-136654761D02*
X91571428Y-137940476D01*
%TO.C,SW11*%
X130000000Y-91702380D02*
X130000000Y-90702380D01*
%TO.C,SW4*%
X167714285Y-118702380D02*
X167714285Y-117702380D01*
X167714285Y-118178571D02*
X168285714Y-118178571D01*
X168285714Y-118702380D02*
X168285714Y-117702380D01*
D11*
%TO.C,D85*%
X81735000Y-180085000D02*
X81735000Y-179455000D01*
X81885000Y-179455000D01*
X81975000Y-179485000D01*
X82035000Y-179545000D01*
X82065000Y-179605000D01*
X82095000Y-179725000D01*
X82095000Y-179815000D01*
X82065000Y-179935000D01*
X82035000Y-179995000D01*
X81975000Y-180055000D01*
X81885000Y-180085000D01*
X81735000Y-180085000D01*
X82455000Y-179725000D02*
X82395000Y-179695000D01*
X82365000Y-179665000D01*
X82335000Y-179605000D01*
X82335000Y-179575000D01*
X82365000Y-179515000D01*
X82395000Y-179485000D01*
X82455000Y-179455000D01*
X82575000Y-179455000D01*
X82635000Y-179485000D01*
X82665000Y-179515000D01*
X82695000Y-179575000D01*
X82695000Y-179605000D01*
X82665000Y-179665000D01*
X82635000Y-179695000D01*
X82575000Y-179725000D01*
X82455000Y-179725000D01*
X82395000Y-179755000D01*
X82365000Y-179785000D01*
X82335000Y-179845000D01*
X82335000Y-179965000D01*
X82365000Y-180025000D01*
X82395000Y-180055000D01*
X82455000Y-180085000D01*
X82575000Y-180085000D01*
X82635000Y-180055000D01*
X82665000Y-180025000D01*
X82695000Y-179965000D01*
X82695000Y-179845000D01*
X82665000Y-179785000D01*
X82635000Y-179755000D01*
X82575000Y-179725000D01*
X83265000Y-179455000D02*
X82965000Y-179455000D01*
X82935000Y-179755000D01*
X82965000Y-179725000D01*
X83025000Y-179695000D01*
X83175000Y-179695000D01*
X83235000Y-179725000D01*
X83265000Y-179755000D01*
X83295000Y-179815000D01*
X83295000Y-179965000D01*
X83265000Y-180025000D01*
X83235000Y-180055000D01*
X83175000Y-180085000D01*
X83025000Y-180085000D01*
X82965000Y-180055000D01*
X82935000Y-180025000D01*
D10*
%TO.C,SW45*%
X92309523Y-219607142D02*
X92261904Y-219654761D01*
X92119047Y-219702380D01*
X92023809Y-219702380D01*
X91880952Y-219654761D01*
X91785714Y-219559523D01*
X91738095Y-219464285D01*
X91690476Y-219273809D01*
X91690476Y-219130952D01*
X91738095Y-218940476D01*
X91785714Y-218845238D01*
X91880952Y-218750000D01*
X92023809Y-218702380D01*
X92119047Y-218702380D01*
X92261904Y-218750000D01*
X92309523Y-218797619D01*
%TO.C,SW41*%
X110666666Y-221702380D02*
X111333333Y-222702380D01*
X111333333Y-221702380D02*
X110666666Y-222702380D01*
D11*
%TO.C,D84*%
X138235000Y-144285000D02*
X138235000Y-143655000D01*
X138385000Y-143655000D01*
X138475000Y-143685000D01*
X138535000Y-143745000D01*
X138565000Y-143805000D01*
X138595000Y-143925000D01*
X138595000Y-144015000D01*
X138565000Y-144135000D01*
X138535000Y-144195000D01*
X138475000Y-144255000D01*
X138385000Y-144285000D01*
X138235000Y-144285000D01*
X138955000Y-143925000D02*
X138895000Y-143895000D01*
X138865000Y-143865000D01*
X138835000Y-143805000D01*
X138835000Y-143775000D01*
X138865000Y-143715000D01*
X138895000Y-143685000D01*
X138955000Y-143655000D01*
X139075000Y-143655000D01*
X139135000Y-143685000D01*
X139165000Y-143715000D01*
X139195000Y-143775000D01*
X139195000Y-143805000D01*
X139165000Y-143865000D01*
X139135000Y-143895000D01*
X139075000Y-143925000D01*
X138955000Y-143925000D01*
X138895000Y-143955000D01*
X138865000Y-143985000D01*
X138835000Y-144045000D01*
X138835000Y-144165000D01*
X138865000Y-144225000D01*
X138895000Y-144255000D01*
X138955000Y-144285000D01*
X139075000Y-144285000D01*
X139135000Y-144255000D01*
X139165000Y-144225000D01*
X139195000Y-144165000D01*
X139195000Y-144045000D01*
X139165000Y-143985000D01*
X139135000Y-143955000D01*
X139075000Y-143925000D01*
X139735000Y-143865000D02*
X139735000Y-144285000D01*
X139585000Y-143625000D02*
X139435000Y-144075000D01*
X139825000Y-144075000D01*
D10*
%TO.C,SW42*%
X109023809Y-241702380D02*
X108547619Y-241702380D01*
X108547619Y-240702380D01*
X109309523Y-241416666D02*
X109785714Y-241416666D01*
X109214285Y-241702380D02*
X109547619Y-240702380D01*
X109880952Y-241702380D01*
X110404761Y-241226190D02*
X110404761Y-241702380D01*
X110071428Y-240702380D02*
X110404761Y-241226190D01*
X110738095Y-240702380D01*
X111071428Y-241178571D02*
X111404761Y-241178571D01*
X111547619Y-241702380D02*
X111071428Y-241702380D01*
X111071428Y-240702380D01*
X111547619Y-240702380D01*
X112547619Y-241702380D02*
X112214285Y-241226190D01*
X111976190Y-241702380D02*
X111976190Y-240702380D01*
X112357142Y-240702380D01*
X112452380Y-240750000D01*
X112500000Y-240797619D01*
X112547619Y-240892857D01*
X112547619Y-241035714D01*
X112500000Y-241130952D01*
X112452380Y-241178571D01*
X112357142Y-241226190D01*
X111976190Y-241226190D01*
X113500000Y-241702380D02*
X112928571Y-241702380D01*
X113214285Y-241702380D02*
X113214285Y-240702380D01*
X113119047Y-240845238D01*
X113023809Y-240940476D01*
X112928571Y-240988095D01*
D11*
%TO.C,D78*%
X81735000Y-231585000D02*
X81735000Y-230955000D01*
X81885000Y-230955000D01*
X81975000Y-230985000D01*
X82035000Y-231045000D01*
X82065000Y-231105000D01*
X82095000Y-231225000D01*
X82095000Y-231315000D01*
X82065000Y-231435000D01*
X82035000Y-231495000D01*
X81975000Y-231555000D01*
X81885000Y-231585000D01*
X81735000Y-231585000D01*
X82305000Y-230955000D02*
X82725000Y-230955000D01*
X82455000Y-231585000D01*
X83055000Y-231225000D02*
X82995000Y-231195000D01*
X82965000Y-231165000D01*
X82935000Y-231105000D01*
X82935000Y-231075000D01*
X82965000Y-231015000D01*
X82995000Y-230985000D01*
X83055000Y-230955000D01*
X83175000Y-230955000D01*
X83235000Y-230985000D01*
X83265000Y-231015000D01*
X83295000Y-231075000D01*
X83295000Y-231105000D01*
X83265000Y-231165000D01*
X83235000Y-231195000D01*
X83175000Y-231225000D01*
X83055000Y-231225000D01*
X82995000Y-231255000D01*
X82965000Y-231285000D01*
X82935000Y-231345000D01*
X82935000Y-231465000D01*
X82965000Y-231525000D01*
X82995000Y-231555000D01*
X83055000Y-231585000D01*
X83175000Y-231585000D01*
X83235000Y-231555000D01*
X83265000Y-231525000D01*
X83295000Y-231465000D01*
X83295000Y-231345000D01*
X83265000Y-231285000D01*
X83235000Y-231255000D01*
X83175000Y-231225000D01*
D10*
%TO.C,SW20*%
X92047619Y-118654761D02*
X92047619Y-118702380D01*
X92000000Y-118797619D01*
X91952380Y-118845238D01*
X92000000Y-118083333D02*
X92047619Y-118130952D01*
X92000000Y-118178571D01*
X91952380Y-118130952D01*
X92000000Y-118083333D01*
X92000000Y-118178571D01*
%TO.C,D4*%
X138527619Y-138642523D02*
X138527619Y-138002523D01*
X138680000Y-138002523D01*
X138771428Y-138033000D01*
X138832380Y-138093952D01*
X138862857Y-138154904D01*
X138893333Y-138276809D01*
X138893333Y-138368238D01*
X138862857Y-138490142D01*
X138832380Y-138551095D01*
X138771428Y-138612047D01*
X138680000Y-138642523D01*
X138527619Y-138642523D01*
X139441904Y-138215857D02*
X139441904Y-138642523D01*
X139289523Y-137972047D02*
X139137142Y-138429190D01*
X139533333Y-138429190D01*
%TO.C,SW40*%
X110714285Y-203654761D02*
X110857142Y-203702380D01*
X111095238Y-203702380D01*
X111190476Y-203654761D01*
X111238095Y-203607142D01*
X111285714Y-203511904D01*
X111285714Y-203416666D01*
X111238095Y-203321428D01*
X111190476Y-203273809D01*
X111095238Y-203226190D01*
X110904761Y-203178571D01*
X110809523Y-203130952D01*
X110761904Y-203083333D01*
X110714285Y-202988095D01*
X110714285Y-202892857D01*
X110761904Y-202797619D01*
X110809523Y-202750000D01*
X110904761Y-202702380D01*
X111142857Y-202702380D01*
X111285714Y-202750000D01*
%TO.C,SW51*%
X53714285Y-188702380D02*
X54285714Y-188702380D01*
X54000000Y-189702380D02*
X54000000Y-188702380D01*
D11*
%TO.C,D82*%
X161235000Y-201085000D02*
X161235000Y-200455000D01*
X161385000Y-200455000D01*
X161475000Y-200485000D01*
X161535000Y-200545000D01*
X161565000Y-200605000D01*
X161595000Y-200725000D01*
X161595000Y-200815000D01*
X161565000Y-200935000D01*
X161535000Y-200995000D01*
X161475000Y-201055000D01*
X161385000Y-201085000D01*
X161235000Y-201085000D01*
X161955000Y-200725000D02*
X161895000Y-200695000D01*
X161865000Y-200665000D01*
X161835000Y-200605000D01*
X161835000Y-200575000D01*
X161865000Y-200515000D01*
X161895000Y-200485000D01*
X161955000Y-200455000D01*
X162075000Y-200455000D01*
X162135000Y-200485000D01*
X162165000Y-200515000D01*
X162195000Y-200575000D01*
X162195000Y-200605000D01*
X162165000Y-200665000D01*
X162135000Y-200695000D01*
X162075000Y-200725000D01*
X161955000Y-200725000D01*
X161895000Y-200755000D01*
X161865000Y-200785000D01*
X161835000Y-200845000D01*
X161835000Y-200965000D01*
X161865000Y-201025000D01*
X161895000Y-201055000D01*
X161955000Y-201085000D01*
X162075000Y-201085000D01*
X162135000Y-201055000D01*
X162165000Y-201025000D01*
X162195000Y-200965000D01*
X162195000Y-200845000D01*
X162165000Y-200785000D01*
X162135000Y-200755000D01*
X162075000Y-200725000D01*
X162435000Y-200515000D02*
X162465000Y-200485000D01*
X162525000Y-200455000D01*
X162675000Y-200455000D01*
X162735000Y-200485000D01*
X162765000Y-200515000D01*
X162795000Y-200575000D01*
X162795000Y-200635000D01*
X162765000Y-200725000D01*
X162405000Y-201085000D01*
X162795000Y-201085000D01*
D10*
%TO.C,SW12*%
X129738095Y-110702380D02*
X129738095Y-109702380D01*
X130309523Y-110702380D02*
X129880952Y-110130952D01*
X130309523Y-109702380D02*
X129738095Y-110273809D01*
D11*
%TO.C,D75*%
X55485000Y-211265000D02*
X54855000Y-211265000D01*
X54855000Y-211115000D01*
X54885000Y-211025000D01*
X54945000Y-210965000D01*
X55005000Y-210935000D01*
X55125000Y-210905000D01*
X55215000Y-210905000D01*
X55335000Y-210935000D01*
X55395000Y-210965000D01*
X55455000Y-211025000D01*
X55485000Y-211115000D01*
X55485000Y-211265000D01*
X54855000Y-210695000D02*
X54855000Y-210275000D01*
X55485000Y-210545000D01*
X54855000Y-209735000D02*
X54855000Y-210035000D01*
X55155000Y-210065000D01*
X55125000Y-210035000D01*
X55095000Y-209975000D01*
X55095000Y-209825000D01*
X55125000Y-209765000D01*
X55155000Y-209735000D01*
X55215000Y-209705000D01*
X55365000Y-209705000D01*
X55425000Y-209735000D01*
X55455000Y-209765000D01*
X55485000Y-209825000D01*
X55485000Y-209975000D01*
X55455000Y-210035000D01*
X55425000Y-210065000D01*
D10*
%TO.C,SW37*%
X129666666Y-226702380D02*
X130333333Y-226702380D01*
X129666666Y-227702380D01*
X130333333Y-227702380D01*
%TO.C,SW30*%
X165428571Y-189178571D02*
X165761904Y-189178571D01*
X165904761Y-189702380D02*
X165428571Y-189702380D01*
X165428571Y-188702380D01*
X165904761Y-188702380D01*
X166285714Y-189654761D02*
X166428571Y-189702380D01*
X166666666Y-189702380D01*
X166761904Y-189654761D01*
X166809523Y-189607142D01*
X166857142Y-189511904D01*
X166857142Y-189416666D01*
X166809523Y-189321428D01*
X166761904Y-189273809D01*
X166666666Y-189226190D01*
X166476190Y-189178571D01*
X166380952Y-189130952D01*
X166333333Y-189083333D01*
X166285714Y-188988095D01*
X166285714Y-188892857D01*
X166333333Y-188797619D01*
X166380952Y-188750000D01*
X166476190Y-188702380D01*
X166714285Y-188702380D01*
X166857142Y-188750000D01*
X167857142Y-189607142D02*
X167809523Y-189654761D01*
X167666666Y-189702380D01*
X167571428Y-189702380D01*
X167428571Y-189654761D01*
X167333333Y-189559523D01*
X167285714Y-189464285D01*
X167238095Y-189273809D01*
X167238095Y-189130952D01*
X167285714Y-188940476D01*
X167333333Y-188845238D01*
X167428571Y-188750000D01*
X167571428Y-188702380D01*
X167666666Y-188702380D01*
X167809523Y-188750000D01*
X167857142Y-188797619D01*
X168238095Y-189416666D02*
X168714285Y-189416666D01*
X168142857Y-189702380D02*
X168476190Y-188702380D01*
X168809523Y-189702380D01*
X169142857Y-189702380D02*
X169142857Y-188702380D01*
X169523809Y-188702380D01*
X169619047Y-188750000D01*
X169666666Y-188797619D01*
X169714285Y-188892857D01*
X169714285Y-189035714D01*
X169666666Y-189130952D01*
X169619047Y-189178571D01*
X169523809Y-189226190D01*
X169142857Y-189226190D01*
X170142857Y-189178571D02*
X170476190Y-189178571D01*
X170619047Y-189702380D02*
X170142857Y-189702380D01*
X170142857Y-188702380D01*
X170619047Y-188702380D01*
%TO.C,SW25*%
X67761904Y-137702380D02*
X67428571Y-137226190D01*
X67190476Y-137702380D02*
X67190476Y-136702380D01*
X67571428Y-136702380D01*
X67666666Y-136750000D01*
X67714285Y-136797619D01*
X67761904Y-136892857D01*
X67761904Y-137035714D01*
X67714285Y-137130952D01*
X67666666Y-137178571D01*
X67571428Y-137226190D01*
X67190476Y-137226190D01*
X68142857Y-137654761D02*
X68285714Y-137702380D01*
X68523809Y-137702380D01*
X68619047Y-137654761D01*
X68666666Y-137607142D01*
X68714285Y-137511904D01*
X68714285Y-137416666D01*
X68666666Y-137321428D01*
X68619047Y-137273809D01*
X68523809Y-137226190D01*
X68333333Y-137178571D01*
X68238095Y-137130952D01*
X68190476Y-137083333D01*
X68142857Y-136988095D01*
X68142857Y-136892857D01*
X68190476Y-136797619D01*
X68238095Y-136750000D01*
X68333333Y-136702380D01*
X68571428Y-136702380D01*
X68714285Y-136750000D01*
X69142857Y-137702380D02*
X69142857Y-136702380D01*
X69142857Y-137178571D02*
X69714285Y-137178571D01*
X69714285Y-137702380D02*
X69714285Y-136702380D01*
X70190476Y-137702380D02*
X70190476Y-136702380D01*
X71000000Y-137178571D02*
X70666666Y-137178571D01*
X70666666Y-137702380D02*
X70666666Y-136702380D01*
X71142857Y-136702380D01*
X71380952Y-136702380D02*
X71952380Y-136702380D01*
X71666666Y-137702380D02*
X71666666Y-136702380D01*
%TO.C,SW19*%
X91738095Y-99702380D02*
X91738095Y-98702380D01*
X92119047Y-98702380D01*
X92214285Y-98750000D01*
X92261904Y-98797619D01*
X92309523Y-98892857D01*
X92309523Y-99035714D01*
X92261904Y-99130952D01*
X92214285Y-99178571D01*
X92119047Y-99226190D01*
X91738095Y-99226190D01*
D11*
%TO.C,D76*%
X59235000Y-239085000D02*
X59235000Y-238455000D01*
X59385000Y-238455000D01*
X59475000Y-238485000D01*
X59535000Y-238545000D01*
X59565000Y-238605000D01*
X59595000Y-238725000D01*
X59595000Y-238815000D01*
X59565000Y-238935000D01*
X59535000Y-238995000D01*
X59475000Y-239055000D01*
X59385000Y-239085000D01*
X59235000Y-239085000D01*
X59805000Y-238455000D02*
X60225000Y-238455000D01*
X59955000Y-239085000D01*
X60735000Y-238455000D02*
X60615000Y-238455000D01*
X60555000Y-238485000D01*
X60525000Y-238515000D01*
X60465000Y-238605000D01*
X60435000Y-238725000D01*
X60435000Y-238965000D01*
X60465000Y-239025000D01*
X60495000Y-239055000D01*
X60555000Y-239085000D01*
X60675000Y-239085000D01*
X60735000Y-239055000D01*
X60765000Y-239025000D01*
X60795000Y-238965000D01*
X60795000Y-238815000D01*
X60765000Y-238755000D01*
X60735000Y-238725000D01*
X60675000Y-238695000D01*
X60555000Y-238695000D01*
X60495000Y-238725000D01*
X60465000Y-238755000D01*
X60435000Y-238815000D01*
D10*
%TO.C,SW52*%
X54261904Y-207750000D02*
X54166666Y-207702380D01*
X54023809Y-207702380D01*
X53880952Y-207750000D01*
X53785714Y-207845238D01*
X53738095Y-207940476D01*
X53690476Y-208130952D01*
X53690476Y-208273809D01*
X53738095Y-208464285D01*
X53785714Y-208559523D01*
X53880952Y-208654761D01*
X54023809Y-208702380D01*
X54119047Y-208702380D01*
X54261904Y-208654761D01*
X54309523Y-208607142D01*
X54309523Y-208273809D01*
X54119047Y-208273809D01*
%TO.C,SW38*%
X126880952Y-246702380D02*
X126404761Y-246702380D01*
X126404761Y-245702380D01*
X127214285Y-246178571D02*
X127547619Y-246178571D01*
X127690476Y-246702380D02*
X127214285Y-246702380D01*
X127214285Y-245702380D01*
X127690476Y-245702380D01*
X128452380Y-246178571D02*
X128119047Y-246178571D01*
X128119047Y-246702380D02*
X128119047Y-245702380D01*
X128595238Y-245702380D01*
X128833333Y-245702380D02*
X129404761Y-245702380D01*
X129119047Y-246702380D02*
X129119047Y-245702380D01*
X129500000Y-246797619D02*
X130261904Y-246797619D01*
X131071428Y-246607142D02*
X131023809Y-246654761D01*
X130880952Y-246702380D01*
X130785714Y-246702380D01*
X130642857Y-246654761D01*
X130547619Y-246559523D01*
X130500000Y-246464285D01*
X130452380Y-246273809D01*
X130452380Y-246130952D01*
X130500000Y-245940476D01*
X130547619Y-245845238D01*
X130642857Y-245750000D01*
X130785714Y-245702380D01*
X130880952Y-245702380D01*
X131023809Y-245750000D01*
X131071428Y-245797619D01*
X131357142Y-245702380D02*
X131928571Y-245702380D01*
X131642857Y-246702380D02*
X131642857Y-245702380D01*
X132833333Y-246702380D02*
X132500000Y-246226190D01*
X132261904Y-246702380D02*
X132261904Y-245702380D01*
X132642857Y-245702380D01*
X132738095Y-245750000D01*
X132785714Y-245797619D01*
X132833333Y-245892857D01*
X132833333Y-246035714D01*
X132785714Y-246130952D01*
X132738095Y-246178571D01*
X132642857Y-246226190D01*
X132261904Y-246226190D01*
X133738095Y-246702380D02*
X133261904Y-246702380D01*
X133261904Y-245702380D01*
%TO.C,SW35*%
X130380952Y-189797619D02*
X130285714Y-189750000D01*
X130190476Y-189654761D01*
X130047619Y-189511904D01*
X129952380Y-189464285D01*
X129857142Y-189464285D01*
X129904761Y-189702380D02*
X129809523Y-189654761D01*
X129714285Y-189559523D01*
X129666666Y-189369047D01*
X129666666Y-189035714D01*
X129714285Y-188845238D01*
X129809523Y-188750000D01*
X129904761Y-188702380D01*
X130095238Y-188702380D01*
X130190476Y-188750000D01*
X130285714Y-188845238D01*
X130333333Y-189035714D01*
X130333333Y-189369047D01*
X130285714Y-189559523D01*
X130190476Y-189654761D01*
X130095238Y-189702380D01*
X129904761Y-189702380D01*
%TO.C,U5*%
X62011904Y-208147619D02*
X62011904Y-207338095D01*
X61964285Y-207242857D01*
X61916666Y-207195238D01*
X61821428Y-207147619D01*
X61630952Y-207147619D01*
X61535714Y-207195238D01*
X61488095Y-207242857D01*
X61440476Y-207338095D01*
X61440476Y-208147619D01*
X60488095Y-208147619D02*
X60964285Y-208147619D01*
X61011904Y-207671428D01*
X60964285Y-207719047D01*
X60869047Y-207766666D01*
X60630952Y-207766666D01*
X60535714Y-207719047D01*
X60488095Y-207671428D01*
X60440476Y-207576190D01*
X60440476Y-207338095D01*
X60488095Y-207242857D01*
X60535714Y-207195238D01*
X60630952Y-207147619D01*
X60869047Y-207147619D01*
X60964285Y-207195238D01*
X61011904Y-207242857D01*
%TO.C,SW5*%
X167714285Y-137702380D02*
X167714285Y-136702380D01*
X168285714Y-137702380D01*
X168285714Y-136702380D01*
%TO.C,SW47*%
X73309523Y-187702380D02*
X72976190Y-187226190D01*
X72738095Y-187702380D02*
X72738095Y-186702380D01*
X73119047Y-186702380D01*
X73214285Y-186750000D01*
X73261904Y-186797619D01*
X73309523Y-186892857D01*
X73309523Y-187035714D01*
X73261904Y-187130952D01*
X73214285Y-187178571D01*
X73119047Y-187226190D01*
X72738095Y-187226190D01*
%TO.C,SW50*%
X70452380Y-244702380D02*
X69976190Y-244702380D01*
X69976190Y-243702380D01*
X70785714Y-244178571D02*
X71119047Y-244178571D01*
X71261904Y-244702380D02*
X70785714Y-244702380D01*
X70785714Y-243702380D01*
X71261904Y-243702380D01*
X72023809Y-244178571D02*
X71690476Y-244178571D01*
X71690476Y-244702380D02*
X71690476Y-243702380D01*
X72166666Y-243702380D01*
X72404761Y-243702380D02*
X72976190Y-243702380D01*
X72690476Y-244702380D02*
X72690476Y-243702380D01*
X73071428Y-244797619D02*
X73833333Y-244797619D01*
X74023809Y-244416666D02*
X74500000Y-244416666D01*
X73928571Y-244702380D02*
X74261904Y-243702380D01*
X74595238Y-244702380D01*
X75404761Y-244702380D02*
X74928571Y-244702380D01*
X74928571Y-243702380D01*
X75595238Y-243702380D02*
X76166666Y-243702380D01*
X75880952Y-244702380D02*
X75880952Y-243702380D01*
%TO.C,D44*%
X139222857Y-216892523D02*
X139222857Y-216252523D01*
X139375238Y-216252523D01*
X139466666Y-216283000D01*
X139527619Y-216343952D01*
X139558095Y-216404904D01*
X139588571Y-216526809D01*
X139588571Y-216618238D01*
X139558095Y-216740142D01*
X139527619Y-216801095D01*
X139466666Y-216862047D01*
X139375238Y-216892523D01*
X139222857Y-216892523D01*
X140137142Y-216465857D02*
X140137142Y-216892523D01*
X139984761Y-216222047D02*
X139832380Y-216679190D01*
X140228571Y-216679190D01*
X140746666Y-216465857D02*
X140746666Y-216892523D01*
X140594285Y-216222047D02*
X140441904Y-216679190D01*
X140838095Y-216679190D01*
%TO.C,D1*%
X138527619Y-81642523D02*
X138527619Y-81002523D01*
X138680000Y-81002523D01*
X138771428Y-81033000D01*
X138832380Y-81093952D01*
X138862857Y-81154904D01*
X138893333Y-81276809D01*
X138893333Y-81368238D01*
X138862857Y-81490142D01*
X138832380Y-81551095D01*
X138771428Y-81612047D01*
X138680000Y-81642523D01*
X138527619Y-81642523D01*
X139502857Y-81642523D02*
X139137142Y-81642523D01*
X139320000Y-81642523D02*
X139320000Y-81002523D01*
X139259047Y-81093952D01*
X139198095Y-81154904D01*
X139137142Y-81185380D01*
%TO.C,SW14*%
X128500000Y-148702380D02*
X128023809Y-148702380D01*
X128023809Y-147702380D01*
X128785714Y-148416666D02*
X129261904Y-148416666D01*
X128690476Y-148702380D02*
X129023809Y-147702380D01*
X129357142Y-148702380D01*
X129880952Y-148226190D02*
X129880952Y-148702380D01*
X129547619Y-147702380D02*
X129880952Y-148226190D01*
X130214285Y-147702380D01*
X130547619Y-148178571D02*
X130880952Y-148178571D01*
X131023809Y-148702380D02*
X130547619Y-148702380D01*
X130547619Y-147702380D01*
X131023809Y-147702380D01*
X132023809Y-148702380D02*
X131690476Y-148226190D01*
X131452380Y-148702380D02*
X131452380Y-147702380D01*
X131833333Y-147702380D01*
X131928571Y-147750000D01*
X131976190Y-147797619D01*
X132023809Y-147892857D01*
X132023809Y-148035714D01*
X131976190Y-148130952D01*
X131928571Y-148178571D01*
X131833333Y-148226190D01*
X131452380Y-148226190D01*
%TO.C,SW9*%
X148666666Y-135702380D02*
X148666666Y-134702380D01*
X149000000Y-135416666D01*
X149333333Y-134702380D01*
X149333333Y-135702380D01*
%TO.C,D45*%
X135222857Y-230892523D02*
X135222857Y-230252523D01*
X135375238Y-230252523D01*
X135466666Y-230283000D01*
X135527619Y-230343952D01*
X135558095Y-230404904D01*
X135588571Y-230526809D01*
X135588571Y-230618238D01*
X135558095Y-230740142D01*
X135527619Y-230801095D01*
X135466666Y-230862047D01*
X135375238Y-230892523D01*
X135222857Y-230892523D01*
X136137142Y-230465857D02*
X136137142Y-230892523D01*
X135984761Y-230222047D02*
X135832380Y-230679190D01*
X136228571Y-230679190D01*
X136777142Y-230252523D02*
X136472380Y-230252523D01*
X136441904Y-230557285D01*
X136472380Y-230526809D01*
X136533333Y-230496333D01*
X136685714Y-230496333D01*
X136746666Y-230526809D01*
X136777142Y-230557285D01*
X136807619Y-230618238D01*
X136807619Y-230770619D01*
X136777142Y-230831571D01*
X136746666Y-230862047D01*
X136685714Y-230892523D01*
X136533333Y-230892523D01*
X136472380Y-230862047D01*
X136441904Y-230831571D01*
D11*
%TO.C,D41*%
X59235000Y-111085000D02*
X59235000Y-110455000D01*
X59385000Y-110455000D01*
X59475000Y-110485000D01*
X59535000Y-110545000D01*
X59565000Y-110605000D01*
X59595000Y-110725000D01*
X59595000Y-110815000D01*
X59565000Y-110935000D01*
X59535000Y-110995000D01*
X59475000Y-111055000D01*
X59385000Y-111085000D01*
X59235000Y-111085000D01*
X60135000Y-110665000D02*
X60135000Y-111085000D01*
X59985000Y-110425000D02*
X59835000Y-110875000D01*
X60225000Y-110875000D01*
X60795000Y-111085000D02*
X60435000Y-111085000D01*
X60615000Y-111085000D02*
X60615000Y-110455000D01*
X60555000Y-110545000D01*
X60495000Y-110605000D01*
X60435000Y-110635000D01*
D10*
%TO.C,SW17*%
X111000000Y-132607142D02*
X111047619Y-132654761D01*
X111000000Y-132702380D01*
X110952380Y-132654761D01*
X111000000Y-132607142D01*
X111000000Y-132702380D01*
%TO.C,SW43*%
X91785714Y-181178571D02*
X92119047Y-181178571D01*
X92261904Y-181702380D02*
X91785714Y-181702380D01*
X91785714Y-180702380D01*
X92261904Y-180702380D01*
%TO.C,SW32*%
X147785714Y-188702380D02*
X148357142Y-188702380D01*
X148071428Y-189702380D02*
X148071428Y-188702380D01*
X148642857Y-189416666D02*
X149119047Y-189416666D01*
X148547619Y-189702380D02*
X148880952Y-188702380D01*
X149214285Y-189702380D01*
X149880952Y-189178571D02*
X150023809Y-189226190D01*
X150071428Y-189273809D01*
X150119047Y-189369047D01*
X150119047Y-189511904D01*
X150071428Y-189607142D01*
X150023809Y-189654761D01*
X149928571Y-189702380D01*
X149547619Y-189702380D01*
X149547619Y-188702380D01*
X149880952Y-188702380D01*
X149976190Y-188750000D01*
X150023809Y-188797619D01*
X150071428Y-188892857D01*
X150071428Y-188988095D01*
X150023809Y-189083333D01*
X149976190Y-189130952D01*
X149880952Y-189178571D01*
X149547619Y-189178571D01*
%TO.C,D6*%
X81527619Y-107892523D02*
X81527619Y-107252523D01*
X81680000Y-107252523D01*
X81771428Y-107283000D01*
X81832380Y-107343952D01*
X81862857Y-107404904D01*
X81893333Y-107526809D01*
X81893333Y-107618238D01*
X81862857Y-107740142D01*
X81832380Y-107801095D01*
X81771428Y-107862047D01*
X81680000Y-107892523D01*
X81527619Y-107892523D01*
X82441904Y-107252523D02*
X82320000Y-107252523D01*
X82259047Y-107283000D01*
X82228571Y-107313476D01*
X82167619Y-107404904D01*
X82137142Y-107526809D01*
X82137142Y-107770619D01*
X82167619Y-107831571D01*
X82198095Y-107862047D01*
X82259047Y-107892523D01*
X82380952Y-107892523D01*
X82441904Y-107862047D01*
X82472380Y-107831571D01*
X82502857Y-107770619D01*
X82502857Y-107618238D01*
X82472380Y-107557285D01*
X82441904Y-107526809D01*
X82380952Y-107496333D01*
X82259047Y-107496333D01*
X82198095Y-107526809D01*
X82167619Y-107557285D01*
X82137142Y-107618238D01*
D11*
%TO.C,D39*%
X100735000Y-92085000D02*
X100735000Y-91455000D01*
X100885000Y-91455000D01*
X100975000Y-91485000D01*
X101035000Y-91545000D01*
X101065000Y-91605000D01*
X101095000Y-91725000D01*
X101095000Y-91815000D01*
X101065000Y-91935000D01*
X101035000Y-91995000D01*
X100975000Y-92055000D01*
X100885000Y-92085000D01*
X100735000Y-92085000D01*
X101305000Y-91455000D02*
X101695000Y-91455000D01*
X101485000Y-91695000D01*
X101575000Y-91695000D01*
X101635000Y-91725000D01*
X101665000Y-91755000D01*
X101695000Y-91815000D01*
X101695000Y-91965000D01*
X101665000Y-92025000D01*
X101635000Y-92055000D01*
X101575000Y-92085000D01*
X101395000Y-92085000D01*
X101335000Y-92055000D01*
X101305000Y-92025000D01*
X101995000Y-92085000D02*
X102115000Y-92085000D01*
X102175000Y-92055000D01*
X102205000Y-92025000D01*
X102265000Y-91935000D01*
X102295000Y-91815000D01*
X102295000Y-91575000D01*
X102265000Y-91515000D01*
X102235000Y-91485000D01*
X102175000Y-91455000D01*
X102055000Y-91455000D01*
X101995000Y-91485000D01*
X101965000Y-91515000D01*
X101935000Y-91575000D01*
X101935000Y-91725000D01*
X101965000Y-91785000D01*
X101995000Y-91815000D01*
X102055000Y-91845000D01*
X102175000Y-91845000D01*
X102235000Y-91815000D01*
X102265000Y-91785000D01*
X102295000Y-91725000D01*
D10*
%TO.C,D7*%
X81527619Y-126892523D02*
X81527619Y-126252523D01*
X81680000Y-126252523D01*
X81771428Y-126283000D01*
X81832380Y-126343952D01*
X81862857Y-126404904D01*
X81893333Y-126526809D01*
X81893333Y-126618238D01*
X81862857Y-126740142D01*
X81832380Y-126801095D01*
X81771428Y-126862047D01*
X81680000Y-126892523D01*
X81527619Y-126892523D01*
X82106666Y-126252523D02*
X82533333Y-126252523D01*
X82259047Y-126892523D01*
D11*
%TO.C,D40*%
X62735000Y-92085000D02*
X62735000Y-91455000D01*
X62885000Y-91455000D01*
X62975000Y-91485000D01*
X63035000Y-91545000D01*
X63065000Y-91605000D01*
X63095000Y-91725000D01*
X63095000Y-91815000D01*
X63065000Y-91935000D01*
X63035000Y-91995000D01*
X62975000Y-92055000D01*
X62885000Y-92085000D01*
X62735000Y-92085000D01*
X63635000Y-91665000D02*
X63635000Y-92085000D01*
X63485000Y-91425000D02*
X63335000Y-91875000D01*
X63725000Y-91875000D01*
X64085000Y-91455000D02*
X64145000Y-91455000D01*
X64205000Y-91485000D01*
X64235000Y-91515000D01*
X64265000Y-91575000D01*
X64295000Y-91695000D01*
X64295000Y-91845000D01*
X64265000Y-91965000D01*
X64235000Y-92025000D01*
X64205000Y-92055000D01*
X64145000Y-92085000D01*
X64085000Y-92085000D01*
X64025000Y-92055000D01*
X63995000Y-92025000D01*
X63965000Y-91965000D01*
X63935000Y-91845000D01*
X63935000Y-91695000D01*
X63965000Y-91575000D01*
X63995000Y-91515000D01*
X64025000Y-91485000D01*
X64085000Y-91455000D01*
D10*
%TO.C,SW44*%
X91738095Y-200702380D02*
X91738095Y-199702380D01*
X91976190Y-199702380D01*
X92119047Y-199750000D01*
X92214285Y-199845238D01*
X92261904Y-199940476D01*
X92309523Y-200130952D01*
X92309523Y-200273809D01*
X92261904Y-200464285D01*
X92214285Y-200559523D01*
X92119047Y-200654761D01*
X91976190Y-200702380D01*
X91738095Y-200702380D01*
%TO.C,D8*%
X85527619Y-140892523D02*
X85527619Y-140252523D01*
X85680000Y-140252523D01*
X85771428Y-140283000D01*
X85832380Y-140343952D01*
X85862857Y-140404904D01*
X85893333Y-140526809D01*
X85893333Y-140618238D01*
X85862857Y-140740142D01*
X85832380Y-140801095D01*
X85771428Y-140862047D01*
X85680000Y-140892523D01*
X85527619Y-140892523D01*
X86259047Y-140526809D02*
X86198095Y-140496333D01*
X86167619Y-140465857D01*
X86137142Y-140404904D01*
X86137142Y-140374428D01*
X86167619Y-140313476D01*
X86198095Y-140283000D01*
X86259047Y-140252523D01*
X86380952Y-140252523D01*
X86441904Y-140283000D01*
X86472380Y-140313476D01*
X86502857Y-140374428D01*
X86502857Y-140404904D01*
X86472380Y-140465857D01*
X86441904Y-140496333D01*
X86380952Y-140526809D01*
X86259047Y-140526809D01*
X86198095Y-140557285D01*
X86167619Y-140587761D01*
X86137142Y-140648714D01*
X86137142Y-140770619D01*
X86167619Y-140831571D01*
X86198095Y-140862047D01*
X86259047Y-140892523D01*
X86380952Y-140892523D01*
X86441904Y-140862047D01*
X86472380Y-140831571D01*
X86502857Y-140770619D01*
X86502857Y-140648714D01*
X86472380Y-140587761D01*
X86441904Y-140557285D01*
X86380952Y-140526809D01*
%TO.C,SW24*%
X73047619Y-117702380D02*
X72952380Y-117892857D01*
%TO.C,SW31*%
X169547619Y-207702380D02*
X169738095Y-207702380D01*
X169833333Y-207750000D01*
X169928571Y-207845238D01*
X169976190Y-208035714D01*
X169976190Y-208369047D01*
X169928571Y-208559523D01*
X169833333Y-208654761D01*
X169738095Y-208702380D01*
X169547619Y-208702380D01*
X169452380Y-208654761D01*
X169357142Y-208559523D01*
X169309523Y-208369047D01*
X169309523Y-208035714D01*
X169357142Y-207845238D01*
X169452380Y-207750000D01*
X169547619Y-207702380D01*
X170357142Y-208654761D02*
X170500000Y-208702380D01*
X170738095Y-208702380D01*
X170833333Y-208654761D01*
X170880952Y-208607142D01*
X170928571Y-208511904D01*
X170928571Y-208416666D01*
X170880952Y-208321428D01*
X170833333Y-208273809D01*
X170738095Y-208226190D01*
X170547619Y-208178571D01*
X170452380Y-208130952D01*
X170404761Y-208083333D01*
X170357142Y-207988095D01*
X170357142Y-207892857D01*
X170404761Y-207797619D01*
X170452380Y-207750000D01*
X170547619Y-207702380D01*
X170785714Y-207702380D01*
X170928571Y-207750000D01*
X171357142Y-208702380D02*
X171357142Y-207702380D01*
X171928571Y-208702380D02*
X171500000Y-208130952D01*
X171928571Y-207702380D02*
X171357142Y-208273809D01*
X172357142Y-208178571D02*
X172690476Y-208178571D01*
X172833333Y-208702380D02*
X172357142Y-208702380D01*
X172357142Y-207702380D01*
X172833333Y-207702380D01*
X173452380Y-208226190D02*
X173452380Y-208702380D01*
X173119047Y-207702380D02*
X173452380Y-208226190D01*
X173785714Y-207702380D01*
D11*
%TO.C,D37*%
X78235000Y-130085000D02*
X78235000Y-129455000D01*
X78385000Y-129455000D01*
X78475000Y-129485000D01*
X78535000Y-129545000D01*
X78565000Y-129605000D01*
X78595000Y-129725000D01*
X78595000Y-129815000D01*
X78565000Y-129935000D01*
X78535000Y-129995000D01*
X78475000Y-130055000D01*
X78385000Y-130085000D01*
X78235000Y-130085000D01*
X78805000Y-129455000D02*
X79195000Y-129455000D01*
X78985000Y-129695000D01*
X79075000Y-129695000D01*
X79135000Y-129725000D01*
X79165000Y-129755000D01*
X79195000Y-129815000D01*
X79195000Y-129965000D01*
X79165000Y-130025000D01*
X79135000Y-130055000D01*
X79075000Y-130085000D01*
X78895000Y-130085000D01*
X78835000Y-130055000D01*
X78805000Y-130025000D01*
X79405000Y-129455000D02*
X79825000Y-129455000D01*
X79555000Y-130085000D01*
D10*
%TO.C,D3*%
X138527619Y-119642523D02*
X138527619Y-119002523D01*
X138680000Y-119002523D01*
X138771428Y-119033000D01*
X138832380Y-119093952D01*
X138862857Y-119154904D01*
X138893333Y-119276809D01*
X138893333Y-119368238D01*
X138862857Y-119490142D01*
X138832380Y-119551095D01*
X138771428Y-119612047D01*
X138680000Y-119642523D01*
X138527619Y-119642523D01*
X139106666Y-119002523D02*
X139502857Y-119002523D01*
X139289523Y-119246333D01*
X139380952Y-119246333D01*
X139441904Y-119276809D01*
X139472380Y-119307285D01*
X139502857Y-119368238D01*
X139502857Y-119520619D01*
X139472380Y-119581571D01*
X139441904Y-119612047D01*
X139380952Y-119642523D01*
X139198095Y-119642523D01*
X139137142Y-119612047D01*
X139106666Y-119581571D01*
%TO.C,SW22*%
X90523809Y-156702380D02*
X90190476Y-156226190D01*
X89952380Y-156702380D02*
X89952380Y-155702380D01*
X90333333Y-155702380D01*
X90428571Y-155750000D01*
X90476190Y-155797619D01*
X90523809Y-155892857D01*
X90523809Y-156035714D01*
X90476190Y-156130952D01*
X90428571Y-156178571D01*
X90333333Y-156226190D01*
X89952380Y-156226190D01*
X91523809Y-156607142D02*
X91476190Y-156654761D01*
X91333333Y-156702380D01*
X91238095Y-156702380D01*
X91095238Y-156654761D01*
X91000000Y-156559523D01*
X90952380Y-156464285D01*
X90904761Y-156273809D01*
X90904761Y-156130952D01*
X90952380Y-155940476D01*
X91000000Y-155845238D01*
X91095238Y-155750000D01*
X91238095Y-155702380D01*
X91333333Y-155702380D01*
X91476190Y-155750000D01*
X91523809Y-155797619D01*
X91809523Y-155702380D02*
X92380952Y-155702380D01*
X92095238Y-156702380D02*
X92095238Y-155702380D01*
X93285714Y-156702380D02*
X92952380Y-156226190D01*
X92714285Y-156702380D02*
X92714285Y-155702380D01*
X93095238Y-155702380D01*
X93190476Y-155750000D01*
X93238095Y-155797619D01*
X93285714Y-155892857D01*
X93285714Y-156035714D01*
X93238095Y-156130952D01*
X93190476Y-156178571D01*
X93095238Y-156226190D01*
X92714285Y-156226190D01*
X94190476Y-156702380D02*
X93714285Y-156702380D01*
X93714285Y-155702380D01*
%TO.C,D48*%
X82222857Y-209642523D02*
X82222857Y-209002523D01*
X82375238Y-209002523D01*
X82466666Y-209033000D01*
X82527619Y-209093952D01*
X82558095Y-209154904D01*
X82588571Y-209276809D01*
X82588571Y-209368238D01*
X82558095Y-209490142D01*
X82527619Y-209551095D01*
X82466666Y-209612047D01*
X82375238Y-209642523D01*
X82222857Y-209642523D01*
X83137142Y-209215857D02*
X83137142Y-209642523D01*
X82984761Y-208972047D02*
X82832380Y-209429190D01*
X83228571Y-209429190D01*
X83563809Y-209276809D02*
X83502857Y-209246333D01*
X83472380Y-209215857D01*
X83441904Y-209154904D01*
X83441904Y-209124428D01*
X83472380Y-209063476D01*
X83502857Y-209033000D01*
X83563809Y-209002523D01*
X83685714Y-209002523D01*
X83746666Y-209033000D01*
X83777142Y-209063476D01*
X83807619Y-209124428D01*
X83807619Y-209154904D01*
X83777142Y-209215857D01*
X83746666Y-209246333D01*
X83685714Y-209276809D01*
X83563809Y-209276809D01*
X83502857Y-209307285D01*
X83472380Y-209337761D01*
X83441904Y-209398714D01*
X83441904Y-209520619D01*
X83472380Y-209581571D01*
X83502857Y-209612047D01*
X83563809Y-209642523D01*
X83685714Y-209642523D01*
X83746666Y-209612047D01*
X83777142Y-209581571D01*
X83807619Y-209520619D01*
X83807619Y-209398714D01*
X83777142Y-209337761D01*
X83746666Y-209307285D01*
X83685714Y-209276809D01*
D11*
%TO.C,D86*%
X119735000Y-234085000D02*
X119735000Y-233455000D01*
X119885000Y-233455000D01*
X119975000Y-233485000D01*
X120035000Y-233545000D01*
X120065000Y-233605000D01*
X120095000Y-233725000D01*
X120095000Y-233815000D01*
X120065000Y-233935000D01*
X120035000Y-233995000D01*
X119975000Y-234055000D01*
X119885000Y-234085000D01*
X119735000Y-234085000D01*
X120455000Y-233725000D02*
X120395000Y-233695000D01*
X120365000Y-233665000D01*
X120335000Y-233605000D01*
X120335000Y-233575000D01*
X120365000Y-233515000D01*
X120395000Y-233485000D01*
X120455000Y-233455000D01*
X120575000Y-233455000D01*
X120635000Y-233485000D01*
X120665000Y-233515000D01*
X120695000Y-233575000D01*
X120695000Y-233605000D01*
X120665000Y-233665000D01*
X120635000Y-233695000D01*
X120575000Y-233725000D01*
X120455000Y-233725000D01*
X120395000Y-233755000D01*
X120365000Y-233785000D01*
X120335000Y-233845000D01*
X120335000Y-233965000D01*
X120365000Y-234025000D01*
X120395000Y-234055000D01*
X120455000Y-234085000D01*
X120575000Y-234085000D01*
X120635000Y-234055000D01*
X120665000Y-234025000D01*
X120695000Y-233965000D01*
X120695000Y-233845000D01*
X120665000Y-233785000D01*
X120635000Y-233755000D01*
X120575000Y-233725000D01*
X121235000Y-233455000D02*
X121115000Y-233455000D01*
X121055000Y-233485000D01*
X121025000Y-233515000D01*
X120965000Y-233605000D01*
X120935000Y-233725000D01*
X120935000Y-233965000D01*
X120965000Y-234025000D01*
X120995000Y-234055000D01*
X121055000Y-234085000D01*
X121175000Y-234085000D01*
X121235000Y-234055000D01*
X121265000Y-234025000D01*
X121295000Y-233965000D01*
X121295000Y-233815000D01*
X121265000Y-233755000D01*
X121235000Y-233725000D01*
X121175000Y-233695000D01*
X121055000Y-233695000D01*
X120995000Y-233725000D01*
X120965000Y-233755000D01*
X120935000Y-233815000D01*
D10*
%TO.C,SW48*%
X73142857Y-206178571D02*
X72809523Y-206178571D01*
X72809523Y-206702380D02*
X72809523Y-205702380D01*
X73285714Y-205702380D01*
%TO.C,SW10*%
X147500000Y-154702380D02*
X147023809Y-154702380D01*
X147023809Y-153702380D01*
X147785714Y-154416666D02*
X148261904Y-154416666D01*
X147690476Y-154702380D02*
X148023809Y-153702380D01*
X148357142Y-154702380D01*
X148880952Y-154226190D02*
X148880952Y-154702380D01*
X148547619Y-153702380D02*
X148880952Y-154226190D01*
X149214285Y-153702380D01*
X149547619Y-154178571D02*
X149880952Y-154178571D01*
X150023809Y-154702380D02*
X149547619Y-154702380D01*
X149547619Y-153702380D01*
X150023809Y-153702380D01*
X151023809Y-154702380D02*
X150690476Y-154226190D01*
X150452380Y-154702380D02*
X150452380Y-153702380D01*
X150833333Y-153702380D01*
X150928571Y-153750000D01*
X150976190Y-153797619D01*
X151023809Y-153892857D01*
X151023809Y-154035714D01*
X150976190Y-154130952D01*
X150928571Y-154178571D01*
X150833333Y-154226190D01*
X150452380Y-154226190D01*
%TO.C,SW46*%
X90023809Y-238702380D02*
X89547619Y-238702380D01*
X89547619Y-237702380D01*
X90309523Y-238416666D02*
X90785714Y-238416666D01*
X90214285Y-238702380D02*
X90547619Y-237702380D01*
X90880952Y-238702380D01*
X91404761Y-238226190D02*
X91404761Y-238702380D01*
X91071428Y-237702380D02*
X91404761Y-238226190D01*
X91738095Y-237702380D01*
X92071428Y-238178571D02*
X92404761Y-238178571D01*
X92547619Y-238702380D02*
X92071428Y-238702380D01*
X92071428Y-237702380D01*
X92547619Y-237702380D01*
X93547619Y-238702380D02*
X93214285Y-238226190D01*
X92976190Y-238702380D02*
X92976190Y-237702380D01*
X93357142Y-237702380D01*
X93452380Y-237750000D01*
X93500000Y-237797619D01*
X93547619Y-237892857D01*
X93547619Y-238035714D01*
X93500000Y-238130952D01*
X93452380Y-238178571D01*
X93357142Y-238226190D01*
X92976190Y-238226190D01*
X93928571Y-237797619D02*
X93976190Y-237750000D01*
X94071428Y-237702380D01*
X94309523Y-237702380D01*
X94404761Y-237750000D01*
X94452380Y-237797619D01*
X94500000Y-237892857D01*
X94500000Y-237988095D01*
X94452380Y-238130952D01*
X93880952Y-238702380D01*
X94500000Y-238702380D01*
D11*
%TO.C,D77*%
X62735000Y-182085000D02*
X62735000Y-181455000D01*
X62885000Y-181455000D01*
X62975000Y-181485000D01*
X63035000Y-181545000D01*
X63065000Y-181605000D01*
X63095000Y-181725000D01*
X63095000Y-181815000D01*
X63065000Y-181935000D01*
X63035000Y-181995000D01*
X62975000Y-182055000D01*
X62885000Y-182085000D01*
X62735000Y-182085000D01*
X63305000Y-181455000D02*
X63725000Y-181455000D01*
X63455000Y-182085000D01*
X63905000Y-181455000D02*
X64325000Y-181455000D01*
X64055000Y-182085000D01*
D10*
%TO.C,SW34*%
X149119047Y-227702380D02*
X148642857Y-227702380D01*
X148642857Y-226702380D01*
X149452380Y-227178571D02*
X149785714Y-227178571D01*
X149928571Y-227702380D02*
X149452380Y-227702380D01*
X149452380Y-226702380D01*
X149928571Y-226702380D01*
X150690476Y-227178571D02*
X150357142Y-227178571D01*
X150357142Y-227702380D02*
X150357142Y-226702380D01*
X150833333Y-226702380D01*
X151071428Y-226702380D02*
X151642857Y-226702380D01*
X151357142Y-227702380D02*
X151357142Y-226702380D01*
X151738095Y-227797619D02*
X152500000Y-227797619D01*
X152690476Y-227654761D02*
X152833333Y-227702380D01*
X153071428Y-227702380D01*
X153166666Y-227654761D01*
X153214285Y-227607142D01*
X153261904Y-227511904D01*
X153261904Y-227416666D01*
X153214285Y-227321428D01*
X153166666Y-227273809D01*
X153071428Y-227226190D01*
X152880952Y-227178571D01*
X152785714Y-227130952D01*
X152738095Y-227083333D01*
X152690476Y-226988095D01*
X152690476Y-226892857D01*
X152738095Y-226797619D01*
X152785714Y-226750000D01*
X152880952Y-226702380D01*
X153119047Y-226702380D01*
X153261904Y-226750000D01*
X153690476Y-227702380D02*
X153690476Y-226702380D01*
X153690476Y-227178571D02*
X154261904Y-227178571D01*
X154261904Y-227702380D02*
X154261904Y-226702380D01*
X154738095Y-227702380D02*
X154738095Y-226702380D01*
X155547619Y-227178571D02*
X155214285Y-227178571D01*
X155214285Y-227702380D02*
X155214285Y-226702380D01*
X155690476Y-226702380D01*
X155928571Y-226702380D02*
X156500000Y-226702380D01*
X156214285Y-227702380D02*
X156214285Y-226702380D01*
%TO.C,SW16*%
X111309523Y-113702380D02*
X110833333Y-113702380D01*
X110833333Y-112702380D01*
%TO.C,SW15*%
X110904761Y-93702380D02*
X111095238Y-93702380D01*
X111190476Y-93750000D01*
X111285714Y-93845238D01*
X111333333Y-94035714D01*
X111333333Y-94369047D01*
X111285714Y-94559523D01*
X111190476Y-94654761D01*
X111095238Y-94702380D01*
X110904761Y-94702380D01*
X110809523Y-94654761D01*
X110714285Y-94559523D01*
X110666666Y-94369047D01*
X110666666Y-94035714D01*
X110714285Y-93845238D01*
X110809523Y-93750000D01*
X110904761Y-93702380D01*
D11*
%TO.C,D83*%
X138735000Y-90085000D02*
X138735000Y-89455000D01*
X138885000Y-89455000D01*
X138975000Y-89485000D01*
X139035000Y-89545000D01*
X139065000Y-89605000D01*
X139095000Y-89725000D01*
X139095000Y-89815000D01*
X139065000Y-89935000D01*
X139035000Y-89995000D01*
X138975000Y-90055000D01*
X138885000Y-90085000D01*
X138735000Y-90085000D01*
X139455000Y-89725000D02*
X139395000Y-89695000D01*
X139365000Y-89665000D01*
X139335000Y-89605000D01*
X139335000Y-89575000D01*
X139365000Y-89515000D01*
X139395000Y-89485000D01*
X139455000Y-89455000D01*
X139575000Y-89455000D01*
X139635000Y-89485000D01*
X139665000Y-89515000D01*
X139695000Y-89575000D01*
X139695000Y-89605000D01*
X139665000Y-89665000D01*
X139635000Y-89695000D01*
X139575000Y-89725000D01*
X139455000Y-89725000D01*
X139395000Y-89755000D01*
X139365000Y-89785000D01*
X139335000Y-89845000D01*
X139335000Y-89965000D01*
X139365000Y-90025000D01*
X139395000Y-90055000D01*
X139455000Y-90085000D01*
X139575000Y-90085000D01*
X139635000Y-90055000D01*
X139665000Y-90025000D01*
X139695000Y-89965000D01*
X139695000Y-89845000D01*
X139665000Y-89785000D01*
X139635000Y-89755000D01*
X139575000Y-89725000D01*
X139905000Y-89455000D02*
X140295000Y-89455000D01*
X140085000Y-89695000D01*
X140175000Y-89695000D01*
X140235000Y-89725000D01*
X140265000Y-89755000D01*
X140295000Y-89815000D01*
X140295000Y-89965000D01*
X140265000Y-90025000D01*
X140235000Y-90055000D01*
X140175000Y-90085000D01*
X139995000Y-90085000D01*
X139935000Y-90055000D01*
X139905000Y-90025000D01*
D10*
%TO.C,D47*%
X82222857Y-190642523D02*
X82222857Y-190002523D01*
X82375238Y-190002523D01*
X82466666Y-190033000D01*
X82527619Y-190093952D01*
X82558095Y-190154904D01*
X82588571Y-190276809D01*
X82588571Y-190368238D01*
X82558095Y-190490142D01*
X82527619Y-190551095D01*
X82466666Y-190612047D01*
X82375238Y-190642523D01*
X82222857Y-190642523D01*
X83137142Y-190215857D02*
X83137142Y-190642523D01*
X82984761Y-189972047D02*
X82832380Y-190429190D01*
X83228571Y-190429190D01*
X83411428Y-190002523D02*
X83838095Y-190002523D01*
X83563809Y-190642523D01*
%TO.C,D42*%
X139222857Y-178892523D02*
X139222857Y-178252523D01*
X139375238Y-178252523D01*
X139466666Y-178283000D01*
X139527619Y-178343952D01*
X139558095Y-178404904D01*
X139588571Y-178526809D01*
X139588571Y-178618238D01*
X139558095Y-178740142D01*
X139527619Y-178801095D01*
X139466666Y-178862047D01*
X139375238Y-178892523D01*
X139222857Y-178892523D01*
X140137142Y-178465857D02*
X140137142Y-178892523D01*
X139984761Y-178222047D02*
X139832380Y-178679190D01*
X140228571Y-178679190D01*
X140441904Y-178313476D02*
X140472380Y-178283000D01*
X140533333Y-178252523D01*
X140685714Y-178252523D01*
X140746666Y-178283000D01*
X140777142Y-178313476D01*
X140807619Y-178374428D01*
X140807619Y-178435380D01*
X140777142Y-178526809D01*
X140411428Y-178892523D01*
X140807619Y-178892523D01*
%TO.C,SW54*%
X48333333Y-246654761D02*
X48476190Y-246702380D01*
X48714285Y-246702380D01*
X48809523Y-246654761D01*
X48857142Y-246607142D01*
X48904761Y-246511904D01*
X48904761Y-246416666D01*
X48857142Y-246321428D01*
X48809523Y-246273809D01*
X48714285Y-246226190D01*
X48523809Y-246178571D01*
X48428571Y-246130952D01*
X48380952Y-246083333D01*
X48333333Y-245988095D01*
X48333333Y-245892857D01*
X48380952Y-245797619D01*
X48428571Y-245750000D01*
X48523809Y-245702380D01*
X48761904Y-245702380D01*
X48904761Y-245750000D01*
X49333333Y-246702380D02*
X49333333Y-245702380D01*
X49714285Y-245702380D01*
X49809523Y-245750000D01*
X49857142Y-245797619D01*
X49904761Y-245892857D01*
X49904761Y-246035714D01*
X49857142Y-246130952D01*
X49809523Y-246178571D01*
X49714285Y-246226190D01*
X49333333Y-246226190D01*
X50285714Y-246416666D02*
X50761904Y-246416666D01*
X50190476Y-246702380D02*
X50523809Y-245702380D01*
X50857142Y-246702380D01*
X51761904Y-246607142D02*
X51714285Y-246654761D01*
X51571428Y-246702380D01*
X51476190Y-246702380D01*
X51333333Y-246654761D01*
X51238095Y-246559523D01*
X51190476Y-246464285D01*
X51142857Y-246273809D01*
X51142857Y-246130952D01*
X51190476Y-245940476D01*
X51238095Y-245845238D01*
X51333333Y-245750000D01*
X51476190Y-245702380D01*
X51571428Y-245702380D01*
X51714285Y-245750000D01*
X51761904Y-245797619D01*
X52190476Y-246178571D02*
X52523809Y-246178571D01*
X52666666Y-246702380D02*
X52190476Y-246702380D01*
X52190476Y-245702380D01*
X52666666Y-245702380D01*
D11*
%TO.C,D38*%
X157735000Y-92085000D02*
X157735000Y-91455000D01*
X157885000Y-91455000D01*
X157975000Y-91485000D01*
X158035000Y-91545000D01*
X158065000Y-91605000D01*
X158095000Y-91725000D01*
X158095000Y-91815000D01*
X158065000Y-91935000D01*
X158035000Y-91995000D01*
X157975000Y-92055000D01*
X157885000Y-92085000D01*
X157735000Y-92085000D01*
X158305000Y-91455000D02*
X158695000Y-91455000D01*
X158485000Y-91695000D01*
X158575000Y-91695000D01*
X158635000Y-91725000D01*
X158665000Y-91755000D01*
X158695000Y-91815000D01*
X158695000Y-91965000D01*
X158665000Y-92025000D01*
X158635000Y-92055000D01*
X158575000Y-92085000D01*
X158395000Y-92085000D01*
X158335000Y-92055000D01*
X158305000Y-92025000D01*
X159055000Y-91725000D02*
X158995000Y-91695000D01*
X158965000Y-91665000D01*
X158935000Y-91605000D01*
X158935000Y-91575000D01*
X158965000Y-91515000D01*
X158995000Y-91485000D01*
X159055000Y-91455000D01*
X159175000Y-91455000D01*
X159235000Y-91485000D01*
X159265000Y-91515000D01*
X159295000Y-91575000D01*
X159295000Y-91605000D01*
X159265000Y-91665000D01*
X159235000Y-91695000D01*
X159175000Y-91725000D01*
X159055000Y-91725000D01*
X158995000Y-91755000D01*
X158965000Y-91785000D01*
X158935000Y-91845000D01*
X158935000Y-91965000D01*
X158965000Y-92025000D01*
X158995000Y-92055000D01*
X159055000Y-92085000D01*
X159175000Y-92085000D01*
X159235000Y-92055000D01*
X159265000Y-92025000D01*
X159295000Y-91965000D01*
X159295000Y-91845000D01*
X159265000Y-91785000D01*
X159235000Y-91755000D01*
X159175000Y-91725000D01*
D10*
%TO.C,SW39*%
X110571428Y-183702380D02*
X110809523Y-184702380D01*
X111000000Y-183988095D01*
X111190476Y-184702380D01*
X111428571Y-183702380D01*
D11*
%TO.C,D36*%
X100735000Y-144085000D02*
X100735000Y-143455000D01*
X100885000Y-143455000D01*
X100975000Y-143485000D01*
X101035000Y-143545000D01*
X101065000Y-143605000D01*
X101095000Y-143725000D01*
X101095000Y-143815000D01*
X101065000Y-143935000D01*
X101035000Y-143995000D01*
X100975000Y-144055000D01*
X100885000Y-144085000D01*
X100735000Y-144085000D01*
X101305000Y-143455000D02*
X101695000Y-143455000D01*
X101485000Y-143695000D01*
X101575000Y-143695000D01*
X101635000Y-143725000D01*
X101665000Y-143755000D01*
X101695000Y-143815000D01*
X101695000Y-143965000D01*
X101665000Y-144025000D01*
X101635000Y-144055000D01*
X101575000Y-144085000D01*
X101395000Y-144085000D01*
X101335000Y-144055000D01*
X101305000Y-144025000D01*
X102235000Y-143455000D02*
X102115000Y-143455000D01*
X102055000Y-143485000D01*
X102025000Y-143515000D01*
X101965000Y-143605000D01*
X101935000Y-143725000D01*
X101935000Y-143965000D01*
X101965000Y-144025000D01*
X101995000Y-144055000D01*
X102055000Y-144085000D01*
X102175000Y-144085000D01*
X102235000Y-144055000D01*
X102265000Y-144025000D01*
X102295000Y-143965000D01*
X102295000Y-143815000D01*
X102265000Y-143755000D01*
X102235000Y-143725000D01*
X102175000Y-143695000D01*
X102055000Y-143695000D01*
X101995000Y-143725000D01*
X101965000Y-143755000D01*
X101935000Y-143815000D01*
D10*
%TO.C,SW7*%
X148714285Y-96702380D02*
X148714285Y-97511904D01*
X148761904Y-97607142D01*
X148809523Y-97654761D01*
X148904761Y-97702380D01*
X149095238Y-97702380D01*
X149190476Y-97654761D01*
X149238095Y-97607142D01*
X149285714Y-97511904D01*
X149285714Y-96702380D01*
%TO.C,SW27*%
X48428571Y-118178571D02*
X48761904Y-118178571D01*
X48904761Y-118702380D02*
X48428571Y-118702380D01*
X48428571Y-117702380D01*
X48904761Y-117702380D01*
X49333333Y-118702380D02*
X49333333Y-117702380D01*
X49904761Y-118702380D01*
X49904761Y-117702380D01*
X50238095Y-117702380D02*
X50809523Y-117702380D01*
X50523809Y-118702380D02*
X50523809Y-117702380D01*
X51142857Y-118178571D02*
X51476190Y-118178571D01*
X51619047Y-118702380D02*
X51142857Y-118702380D01*
X51142857Y-117702380D01*
X51619047Y-117702380D01*
X52619047Y-118702380D02*
X52285714Y-118226190D01*
X52047619Y-118702380D02*
X52047619Y-117702380D01*
X52428571Y-117702380D01*
X52523809Y-117750000D01*
X52571428Y-117797619D01*
X52619047Y-117892857D01*
X52619047Y-118035714D01*
X52571428Y-118130952D01*
X52523809Y-118178571D01*
X52428571Y-118226190D01*
X52047619Y-118226190D01*
D11*
%TO.C,D35*%
X161235000Y-149085000D02*
X161235000Y-148455000D01*
X161385000Y-148455000D01*
X161475000Y-148485000D01*
X161535000Y-148545000D01*
X161565000Y-148605000D01*
X161595000Y-148725000D01*
X161595000Y-148815000D01*
X161565000Y-148935000D01*
X161535000Y-148995000D01*
X161475000Y-149055000D01*
X161385000Y-149085000D01*
X161235000Y-149085000D01*
X161805000Y-148455000D02*
X162195000Y-148455000D01*
X161985000Y-148695000D01*
X162075000Y-148695000D01*
X162135000Y-148725000D01*
X162165000Y-148755000D01*
X162195000Y-148815000D01*
X162195000Y-148965000D01*
X162165000Y-149025000D01*
X162135000Y-149055000D01*
X162075000Y-149085000D01*
X161895000Y-149085000D01*
X161835000Y-149055000D01*
X161805000Y-149025000D01*
X162765000Y-148455000D02*
X162465000Y-148455000D01*
X162435000Y-148755000D01*
X162465000Y-148725000D01*
X162525000Y-148695000D01*
X162675000Y-148695000D01*
X162735000Y-148725000D01*
X162765000Y-148755000D01*
X162795000Y-148815000D01*
X162795000Y-148965000D01*
X162765000Y-149025000D01*
X162735000Y-149055000D01*
X162675000Y-149085000D01*
X162525000Y-149085000D01*
X162465000Y-149055000D01*
X162435000Y-149025000D01*
D10*
%TO.C,SW6*%
X169333333Y-156654761D02*
X169476190Y-156702380D01*
X169714285Y-156702380D01*
X169809523Y-156654761D01*
X169857142Y-156607142D01*
X169904761Y-156511904D01*
X169904761Y-156416666D01*
X169857142Y-156321428D01*
X169809523Y-156273809D01*
X169714285Y-156226190D01*
X169523809Y-156178571D01*
X169428571Y-156130952D01*
X169380952Y-156083333D01*
X169333333Y-155988095D01*
X169333333Y-155892857D01*
X169380952Y-155797619D01*
X169428571Y-155750000D01*
X169523809Y-155702380D01*
X169761904Y-155702380D01*
X169904761Y-155750000D01*
X170333333Y-156702380D02*
X170333333Y-155702380D01*
X170714285Y-155702380D01*
X170809523Y-155750000D01*
X170857142Y-155797619D01*
X170904761Y-155892857D01*
X170904761Y-156035714D01*
X170857142Y-156130952D01*
X170809523Y-156178571D01*
X170714285Y-156226190D01*
X170333333Y-156226190D01*
X171285714Y-156416666D02*
X171761904Y-156416666D01*
X171190476Y-156702380D02*
X171523809Y-155702380D01*
X171857142Y-156702380D01*
X172761904Y-156607142D02*
X172714285Y-156654761D01*
X172571428Y-156702380D01*
X172476190Y-156702380D01*
X172333333Y-156654761D01*
X172238095Y-156559523D01*
X172190476Y-156464285D01*
X172142857Y-156273809D01*
X172142857Y-156130952D01*
X172190476Y-155940476D01*
X172238095Y-155845238D01*
X172333333Y-155750000D01*
X172476190Y-155702380D01*
X172571428Y-155702380D01*
X172714285Y-155750000D01*
X172761904Y-155797619D01*
X173190476Y-156178571D02*
X173523809Y-156178571D01*
X173666666Y-156702380D02*
X173190476Y-156702380D01*
X173190476Y-155702380D01*
X173666666Y-155702380D01*
%TO.C,SW3*%
X168000000Y-99226190D02*
X168000000Y-99702380D01*
X167666666Y-98702380D02*
X168000000Y-99226190D01*
X168333333Y-98702380D01*
D12*
%TO.C,D46*%
X81957000Y-172242000D02*
G75*
G03*
X81957000Y-172242000I-100000J0D01*
G01*
%TO.C,D79*%
X121700000Y-182400000D02*
X121700000Y-182400000D01*
X121800000Y-182400000D02*
X121800000Y-182400000D01*
X121800000Y-182400000D02*
G75*
G03*
X121700000Y-182400000I-50000J0D01*
G01*
X121700000Y-182400000D02*
G75*
G03*
X121800000Y-182400000I50000J0D01*
G01*
%TO.C,D49*%
X81957000Y-229242000D02*
G75*
G03*
X81957000Y-229242000I-100000J0D01*
G01*
%TO.C,D34*%
X169300000Y-119900000D02*
X169300000Y-119900000D01*
X169200000Y-119900000D02*
X169200000Y-119900000D01*
X169300000Y-119900000D02*
G75*
G03*
X169200000Y-119900000I-50000J0D01*
G01*
X169200000Y-119900000D02*
G75*
G03*
X169300000Y-119900000I50000J0D01*
G01*
D13*
%TO.C,U3*%
X181070000Y-83275000D02*
X175990000Y-83275000D01*
X140430000Y-85275000D02*
X140430000Y-83275000D01*
X140430000Y-83275000D02*
X142430000Y-83275000D01*
X140430000Y-144235000D02*
X140430000Y-142235000D01*
X181070000Y-144235000D02*
X175990000Y-144235000D01*
X142430000Y-144235000D02*
X140430000Y-144235000D01*
D12*
%TO.C,D81*%
X159800000Y-182400000D02*
X159800000Y-182400000D01*
X159700000Y-182400000D02*
X159700000Y-182400000D01*
X159700000Y-182400000D02*
G75*
G03*
X159800000Y-182400000I50000J0D01*
G01*
X159800000Y-182400000D02*
G75*
G03*
X159700000Y-182400000I-50000J0D01*
G01*
%TO.C,D5*%
X80957000Y-89492000D02*
G75*
G03*
X80957000Y-89492000I-100000J0D01*
G01*
%TO.C,D43*%
X138957000Y-198492000D02*
G75*
G03*
X138957000Y-198492000I-100000J0D01*
G01*
%TO.C,D80*%
X144300000Y-220400000D02*
X144300000Y-220400000D01*
X144200000Y-220400000D02*
X144200000Y-220400000D01*
X144200000Y-220400000D02*
G75*
G03*
X144300000Y-220400000I50000J0D01*
G01*
X144300000Y-220400000D02*
G75*
G03*
X144200000Y-220400000I-50000J0D01*
G01*
%TO.C,D2*%
X137957000Y-101242000D02*
G75*
G03*
X137957000Y-101242000I-100000J0D01*
G01*
%TO.C,D85*%
X83800000Y-180400000D02*
X83800000Y-180400000D01*
X83700000Y-180400000D02*
X83700000Y-180400000D01*
X83700000Y-180400000D02*
G75*
G03*
X83800000Y-180400000I50000J0D01*
G01*
X83800000Y-180400000D02*
G75*
G03*
X83700000Y-180400000I-50000J0D01*
G01*
%TO.C,D84*%
X140700000Y-141900000D02*
X140700000Y-141900000D01*
X140800000Y-141900000D02*
X140800000Y-141900000D01*
X140700000Y-141900000D02*
G75*
G03*
X140800000Y-141900000I50000J0D01*
G01*
X140800000Y-141900000D02*
G75*
G03*
X140700000Y-141900000I-50000J0D01*
G01*
%TO.C,D78*%
X83700000Y-231900000D02*
X83700000Y-231900000D01*
X83800000Y-231900000D02*
X83800000Y-231900000D01*
X83800000Y-231900000D02*
G75*
G03*
X83700000Y-231900000I-50000J0D01*
G01*
X83700000Y-231900000D02*
G75*
G03*
X83800000Y-231900000I50000J0D01*
G01*
%TO.C,D4*%
X137957000Y-139242000D02*
G75*
G03*
X137957000Y-139242000I-100000J0D01*
G01*
%TO.C,D82*%
X163300000Y-201400000D02*
X163300000Y-201400000D01*
X163200000Y-201400000D02*
X163200000Y-201400000D01*
X163200000Y-201400000D02*
G75*
G03*
X163300000Y-201400000I50000J0D01*
G01*
X163300000Y-201400000D02*
G75*
G03*
X163200000Y-201400000I-50000J0D01*
G01*
%TO.C,D75*%
X54600000Y-211800000D02*
X54600000Y-211800000D01*
X54600000Y-211700000D02*
X54600000Y-211700000D01*
X54600000Y-211800000D02*
G75*
G03*
X54600000Y-211700000I0J50000D01*
G01*
X54600000Y-211700000D02*
G75*
G03*
X54600000Y-211800000I0J-50000D01*
G01*
%TO.C,D76*%
X61200000Y-239400000D02*
X61200000Y-239400000D01*
X61300000Y-239400000D02*
X61300000Y-239400000D01*
X61200000Y-239400000D02*
G75*
G03*
X61300000Y-239400000I50000J0D01*
G01*
X61300000Y-239400000D02*
G75*
G03*
X61200000Y-239400000I-50000J0D01*
G01*
D13*
%TO.C,U5*%
X81570000Y-234270000D02*
X79570000Y-234270000D01*
X40930000Y-234270000D02*
X46010000Y-234270000D01*
X81570000Y-173310000D02*
X81570000Y-175310000D01*
X40930000Y-173310000D02*
X46010000Y-173310000D01*
X79570000Y-173310000D02*
X81570000Y-173310000D01*
X81570000Y-232270000D02*
X81570000Y-234270000D01*
D12*
%TO.C,D44*%
X138957000Y-217492000D02*
G75*
G03*
X138957000Y-217492000I-100000J0D01*
G01*
%TO.C,D1*%
X137957000Y-82242000D02*
G75*
G03*
X137957000Y-82242000I-100000J0D01*
G01*
%TO.C,D45*%
X134957000Y-231492000D02*
G75*
G03*
X134957000Y-231492000I-100000J0D01*
G01*
%TO.C,D41*%
X61200000Y-111400000D02*
X61200000Y-111400000D01*
X61300000Y-111400000D02*
X61300000Y-111400000D01*
X61200000Y-111400000D02*
G75*
G03*
X61300000Y-111400000I50000J0D01*
G01*
X61300000Y-111400000D02*
G75*
G03*
X61200000Y-111400000I-50000J0D01*
G01*
%TO.C,D6*%
X80957000Y-108492000D02*
G75*
G03*
X80957000Y-108492000I-100000J0D01*
G01*
%TO.C,D39*%
X102700000Y-92400000D02*
X102700000Y-92400000D01*
X102800000Y-92400000D02*
X102800000Y-92400000D01*
X102700000Y-92400000D02*
G75*
G03*
X102800000Y-92400000I50000J0D01*
G01*
X102800000Y-92400000D02*
G75*
G03*
X102700000Y-92400000I-50000J0D01*
G01*
%TO.C,D7*%
X80957000Y-127492000D02*
G75*
G03*
X80957000Y-127492000I-100000J0D01*
G01*
%TO.C,D40*%
X64800000Y-92400000D02*
X64800000Y-92400000D01*
X64700000Y-92400000D02*
X64700000Y-92400000D01*
X64800000Y-92400000D02*
G75*
G03*
X64700000Y-92400000I-50000J0D01*
G01*
X64700000Y-92400000D02*
G75*
G03*
X64800000Y-92400000I50000J0D01*
G01*
%TO.C,D8*%
X84957000Y-141492000D02*
G75*
G03*
X84957000Y-141492000I-100000J0D01*
G01*
%TO.C,D37*%
X80200000Y-130400000D02*
X80200000Y-130400000D01*
X80300000Y-130400000D02*
X80300000Y-130400000D01*
X80300000Y-130400000D02*
G75*
G03*
X80200000Y-130400000I-50000J0D01*
G01*
X80200000Y-130400000D02*
G75*
G03*
X80300000Y-130400000I50000J0D01*
G01*
%TO.C,D3*%
X137957000Y-120242000D02*
G75*
G03*
X137957000Y-120242000I-100000J0D01*
G01*
%TO.C,D48*%
X81957000Y-210242000D02*
G75*
G03*
X81957000Y-210242000I-100000J0D01*
G01*
%TO.C,D86*%
X121700000Y-234400000D02*
X121700000Y-234400000D01*
X121800000Y-234400000D02*
X121800000Y-234400000D01*
X121700000Y-234400000D02*
G75*
G03*
X121800000Y-234400000I50000J0D01*
G01*
X121800000Y-234400000D02*
G75*
G03*
X121700000Y-234400000I-50000J0D01*
G01*
%TO.C,D77*%
X64800000Y-182400000D02*
X64800000Y-182400000D01*
X64700000Y-182400000D02*
X64700000Y-182400000D01*
X64800000Y-182400000D02*
G75*
G03*
X64700000Y-182400000I-50000J0D01*
G01*
X64700000Y-182400000D02*
G75*
G03*
X64800000Y-182400000I50000J0D01*
G01*
%TO.C,D83*%
X140800000Y-90400000D02*
X140800000Y-90400000D01*
X140700000Y-90400000D02*
X140700000Y-90400000D01*
X140800000Y-90400000D02*
G75*
G03*
X140700000Y-90400000I-50000J0D01*
G01*
X140700000Y-90400000D02*
G75*
G03*
X140800000Y-90400000I50000J0D01*
G01*
%TO.C,D47*%
X81957000Y-191242000D02*
G75*
G03*
X81957000Y-191242000I-100000J0D01*
G01*
%TO.C,D42*%
X138957000Y-179492000D02*
G75*
G03*
X138957000Y-179492000I-100000J0D01*
G01*
%TO.C,D38*%
X159800000Y-92400000D02*
X159800000Y-92400000D01*
X159700000Y-92400000D02*
X159700000Y-92400000D01*
X159800000Y-92400000D02*
G75*
G03*
X159700000Y-92400000I-50000J0D01*
G01*
X159700000Y-92400000D02*
G75*
G03*
X159800000Y-92400000I50000J0D01*
G01*
%TO.C,D36*%
X102700000Y-144400000D02*
X102700000Y-144400000D01*
X102800000Y-144400000D02*
X102800000Y-144400000D01*
X102800000Y-144400000D02*
G75*
G03*
X102700000Y-144400000I-50000J0D01*
G01*
X102700000Y-144400000D02*
G75*
G03*
X102800000Y-144400000I50000J0D01*
G01*
%TO.C,D35*%
X163200000Y-149400000D02*
X163200000Y-149400000D01*
X163300000Y-149400000D02*
X163300000Y-149400000D01*
X163200000Y-149400000D02*
G75*
G03*
X163300000Y-149400000I50000J0D01*
G01*
X163300000Y-149400000D02*
G75*
G03*
X163200000Y-149400000I-50000J0D01*
G01*
%TD*%
M02*
