M48
; DRILL file {KiCad (6.0.6)} date Mon 05 Sep 2022 11:06:33 AM PDT
; FORMAT={-:-/ absolute / inch / decimal}
; #@! TF.CreationDate,2022-09-05T11:06:33-07:00
; #@! TF.GenerationSoftware,Kicad,Pcbnew,(6.0.6)
; #@! TF.FileFunction,NonPlated,1,2,NPTH
FMAT,2
INCH
; #@! TA.AperFunction,NonPlated,NPTH,ComponentDrill
T1C0.0472
; #@! TA.AperFunction,NonPlated,NPTH,ComponentDrill
T2C0.0669
; #@! TA.AperFunction,NonPlated,NPTH,ComponentDrill
T3C0.0866
; #@! TA.AperFunction,NonPlated,NPTH,ComponentDrill
T4C0.1571
%
G90
G05
T1
X1.7717Y-4.4094
X1.7717Y-9.4488
X1.7827Y-4.5748
X1.7827Y-9.6142
X1.9094Y-3.6614
X1.9094Y-7.2047
X1.9094Y-7.9528
X1.9094Y-8.7008
X1.9205Y-3.8268
X1.9205Y-7.3701
X1.9205Y-8.1181
X1.9205Y-8.8661
X2.2047Y-4.4094
X2.2047Y-9.4488
X2.3425Y-3.6614
X2.3425Y-7.2047
X2.3425Y-7.9528
X2.3425Y-8.7008
X2.5197Y-5.1575
X2.5307Y-5.3228
X2.6575Y-3.6614
X2.6575Y-4.4094
X2.6575Y-7.126
X2.6575Y-7.874
X2.6575Y-8.622
X2.6575Y-9.3701
X2.6685Y-3.8268
X2.6685Y-4.5748
X2.6685Y-7.2913
X2.6685Y-8.0394
X2.6685Y-8.7874
X2.6685Y-9.5354
X2.9528Y-5.1575
X3.0906Y-3.6614
X3.0906Y-4.4094
X3.0906Y-7.126
X3.0906Y-7.874
X3.0906Y-8.622
X3.0906Y-9.3701
X3.4055Y-3.6614
X3.4055Y-4.4094
X3.4055Y-5.1575
X3.4055Y-5.9055
X3.4055Y-6.8898
X3.4055Y-7.6378
X3.4055Y-8.3858
X3.4055Y-9.1339
X3.4165Y-3.8268
X3.4165Y-4.5748
X3.4165Y-5.3228
X3.4165Y-6.0709
X3.4165Y-7.0551
X3.4165Y-7.8031
X3.4165Y-8.5512
X3.4165Y-9.2992
X3.8386Y-3.6614
X3.8386Y-4.4094
X3.8386Y-5.1575
X3.8386Y-5.9055
X3.8386Y-6.8898
X3.8386Y-7.6378
X3.8386Y-8.3858
X3.8386Y-9.1339
X4.1535Y-3.4646
X4.1535Y-4.2126
X4.1535Y-4.9606
X4.1535Y-5.7087
X4.1535Y-7.0079
X4.1535Y-7.7559
X4.1535Y-8.5039
X4.1535Y-9.252
X4.1646Y-3.6299
X4.1646Y-4.378
X4.1646Y-5.126
X4.1646Y-5.874
X4.1646Y-7.1732
X4.1646Y-7.9213
X4.1646Y-8.6693
X4.1646Y-9.4173
X4.5866Y-3.4646
X4.5866Y-4.2126
X4.5866Y-4.9606
X4.5866Y-5.7087
X4.5866Y-7.0079
X4.5866Y-7.7559
X4.5866Y-8.5039
X4.5866Y-9.252
X4.9016Y-3.3465
X4.9016Y-4.0945
X4.9016Y-4.8425
X4.9016Y-5.5906
X4.9016Y-7.2047
X4.9016Y-7.9528
X4.9016Y-8.7008
X4.9016Y-9.4488
X4.9126Y-3.5118
X4.9126Y-4.2598
X4.9126Y-5.0079
X4.9126Y-5.7559
X4.9126Y-7.3701
X4.9126Y-8.1181
X4.9126Y-8.8661
X4.9126Y-9.6142
X5.3346Y-3.3465
X5.3346Y-4.0945
X5.3346Y-4.8425
X5.3346Y-5.5906
X5.3346Y-7.2047
X5.3346Y-7.9528
X5.3346Y-8.7008
X5.3346Y-9.4488
X5.6496Y-3.5827
X5.6496Y-4.3307
X5.6496Y-5.0787
X5.6496Y-5.8268
X5.6496Y-7.2047
X5.6496Y-7.9528
X5.6606Y-3.748
X5.6606Y-4.4961
X5.6606Y-5.2441
X5.6606Y-5.9921
X5.6606Y-7.3701
X5.6606Y-8.1181
X5.7874Y-8.7008
X5.7984Y-8.8661
X6.0827Y-3.5827
X6.0827Y-4.3307
X6.0827Y-5.0787
X6.0827Y-5.8268
X6.0827Y-7.2047
X6.0827Y-7.9528
X6.2205Y-8.7008
X6.3976Y-3.6614
X6.3976Y-4.4094
X6.3976Y-5.1575
X6.3976Y-7.2047
X6.4087Y-3.8268
X6.4087Y-4.5748
X6.4087Y-5.3228
X6.4087Y-7.3701
X6.5354Y-5.9055
X6.5354Y-7.9528
X6.5465Y-6.0709
X6.5465Y-8.1181
X6.8307Y-3.6614
X6.8307Y-4.4094
X6.8307Y-5.1575
X6.8307Y-7.2047
X6.9685Y-5.9055
X6.9685Y-7.9528
T2
X1.7882Y-4.4094
X1.7882Y-9.4488
X1.926Y-3.6614
X1.926Y-7.2047
X1.926Y-7.9528
X1.926Y-8.7008
X2.1882Y-4.4094
X2.1882Y-9.4488
X2.326Y-3.6614
X2.326Y-7.2047
X2.326Y-7.9528
X2.326Y-8.7008
X2.5362Y-5.1575
X2.674Y-3.6614
X2.674Y-4.4094
X2.674Y-7.126
X2.674Y-7.874
X2.674Y-8.622
X2.674Y-9.3701
X2.9362Y-5.1575
X3.074Y-3.6614
X3.074Y-4.4094
X3.074Y-7.126
X3.074Y-7.874
X3.074Y-8.622
X3.074Y-9.3701
X3.422Y-3.6614
X3.422Y-4.4094
X3.422Y-5.1575
X3.422Y-5.9055
X3.422Y-6.8898
X3.422Y-7.6378
X3.422Y-8.3858
X3.422Y-9.1339
X3.822Y-3.6614
X3.822Y-4.4094
X3.822Y-5.1575
X3.822Y-5.9055
X3.822Y-6.8898
X3.822Y-7.6378
X3.822Y-8.3858
X3.822Y-9.1339
X4.1701Y-3.4646
X4.1701Y-4.2126
X4.1701Y-4.9606
X4.1701Y-5.7087
X4.1701Y-7.0079
X4.1701Y-7.7559
X4.1701Y-8.5039
X4.1701Y-9.252
X4.5701Y-3.4646
X4.5701Y-4.2126
X4.5701Y-4.9606
X4.5701Y-5.7087
X4.5701Y-7.0079
X4.5701Y-7.7559
X4.5701Y-8.5039
X4.5701Y-9.252
X4.9181Y-3.3465
X4.9181Y-4.0945
X4.9181Y-4.8425
X4.9181Y-5.5906
X4.9181Y-7.2047
X4.9181Y-7.9528
X4.9181Y-8.7008
X4.9181Y-9.4488
X5.3181Y-3.3465
X5.3181Y-4.0945
X5.3181Y-4.8425
X5.3181Y-5.5906
X5.3181Y-7.2047
X5.3181Y-7.9528
X5.3181Y-8.7008
X5.3181Y-9.4488
X5.6661Y-3.5827
X5.6661Y-4.3307
X5.6661Y-5.0787
X5.6661Y-5.8268
X5.6661Y-7.2047
X5.6661Y-7.9528
X5.8039Y-8.7008
X6.0661Y-3.5827
X6.0661Y-4.3307
X6.0661Y-5.0787
X6.0661Y-5.8268
X6.0661Y-7.2047
X6.0661Y-7.9528
X6.2039Y-8.7008
X6.4142Y-3.6614
X6.4142Y-4.4094
X6.4142Y-5.1575
X6.4142Y-7.2047
X6.552Y-5.9055
X6.552Y-7.9528
X6.8142Y-3.6614
X6.8142Y-4.4094
X6.8142Y-5.1575
X6.8142Y-7.2047
X6.952Y-5.9055
X6.952Y-7.9528
T3
X2.4311Y-4.0846
X2.4705Y-9.1949
X2.5Y-7.6673
X2.5Y-8.3799
X3.8189Y-5.5315
X3.9961Y-8.0728
X4.7441Y-4.5276
X4.9213Y-9.0768
X6.2402Y-4.122
X6.2402Y-4.8346
X6.2697Y-5.6496
X6.3091Y-7.6299
T4
X1.9882Y-4.4094
X1.9882Y-9.4488
X2.126Y-3.6614
X2.126Y-7.2047
X2.126Y-7.9528
X2.126Y-8.7008
X2.7362Y-5.1575
X2.874Y-3.6614
X2.874Y-4.4094
X2.874Y-7.126
X2.874Y-7.874
X2.874Y-8.622
X2.874Y-9.3701
X3.622Y-3.6614
X3.622Y-4.4094
X3.622Y-5.1575
X3.622Y-5.9055
X3.622Y-6.8898
X3.622Y-7.6378
X3.622Y-8.3858
X3.622Y-9.1339
X4.3701Y-3.4646
X4.3701Y-4.2126
X4.3701Y-4.9606
X4.3701Y-5.7087
X4.3701Y-7.0079
X4.3701Y-7.7559
X4.3701Y-8.5039
X4.3701Y-9.252
X5.1181Y-3.3465
X5.1181Y-4.0945
X5.1181Y-4.8425
X5.1181Y-5.5906
X5.1181Y-7.2047
X5.1181Y-7.9528
X5.1181Y-8.7008
X5.1181Y-9.4488
X5.8661Y-3.5827
X5.8661Y-4.3307
X5.8661Y-5.0787
X5.8661Y-5.8268
X5.8661Y-7.2047
X5.8661Y-7.9528
X6.0039Y-8.7008
X6.6142Y-3.6614
X6.6142Y-4.4094
X6.6142Y-5.1575
X6.6142Y-7.2047
X6.752Y-5.9055
X6.752Y-7.9528
T0
M30
