M48
; DRILL file {KiCad (6.0.6)} date Mon 05 Sep 2022 11:06:33 AM PDT
; FORMAT={-:-/ absolute / inch / decimal}
; #@! TF.CreationDate,2022-09-05T11:06:33-07:00
; #@! TF.GenerationSoftware,Kicad,Pcbnew,(6.0.6)
; #@! TF.FileFunction,Plated,1,2,PTH
FMAT,2
INCH
; #@! TA.AperFunction,Plated,PTH,ViaDrill
T1C0.0157
; #@! TA.AperFunction,Plated,PTH,ComponentDrill
T2C0.0300
; #@! TA.AperFunction,Plated,PTH,ComponentDrill
T3C0.0472
%
G90
G05
T1
X1.9291Y-4.6555
X1.9291Y-9.6949
X1.9685Y-4.6752
X1.9685Y-9.7146
X2.0079Y-4.6358
X2.0079Y-9.6752
X2.0669Y-3.9075
X2.0669Y-7.4508
X2.0669Y-8.1988
X2.0669Y-8.9469
X2.1063Y-3.9272
X2.1063Y-4.7047
X2.1063Y-7.4705
X2.1063Y-8.2185
X2.1063Y-8.9665
X2.1457Y-3.8878
X2.1457Y-7.4311
X2.1457Y-8.1791
X2.1457Y-8.9272
X2.1654Y-9.6358
X2.2047Y-9.6555
X2.2441Y-9.6752
X2.2835Y-3.9567
X2.2835Y-4.4488
X2.2933Y-7.4902
X2.2933Y-8.1398
X2.3031Y-9.0453
X2.3327Y-4.4882
X2.3327Y-7.4606
X2.3327Y-8.1594
X2.3327Y-9.3307
X2.3425Y-9.0256
X2.3622Y-8.2579
X2.372Y-4.5079
X2.372Y-7.4311
X2.372Y-8.1791
X2.3819Y-9.0059
X2.4016Y-3.7205
X2.4114Y-4.4685
X2.4213Y-7.2441
X2.4409Y-3.7402
X2.4606Y-7.2736
X2.4803Y-3.7598
X2.5Y-7.2933
X2.5197Y-3.7205
X2.5394Y-7.2539
X2.6772Y-5.4035
X2.7165Y-5.4232
X2.7559Y-5.3839
X2.815Y-3.9075
X2.815Y-4.6555
X2.815Y-7.372
X2.815Y-8.1201
X2.815Y-8.8681
X2.815Y-9.6161
X2.8543Y-3.9272
X2.8543Y-4.6752
X2.8543Y-7.3917
X2.8543Y-8.1398
X2.8543Y-8.8878
X2.8543Y-9.6358
X2.8937Y-3.8878
X2.8937Y-4.6358
X2.8937Y-7.3524
X2.8937Y-8.1004
X2.8937Y-8.8484
X2.8937Y-9.5965
X2.9291Y-4.7638
X2.9823Y-7.4705
X3.0118Y-8.9961
X3.0315Y-5.2067
X3.0807Y-5.2362
X3.1201Y-5.2559
X3.1594Y-5.2165
X3.2087Y-7.0472
X3.2087Y-9.2323
X3.2382Y-7.0177
X3.248Y-9.252
X3.2677Y-7.4803
X3.2677Y-8.3661
X3.2677Y-8.8091
X3.2874Y-9.2126
X3.3169Y-7.0965
X3.3169Y-8.0118
X3.3169Y-9.1142
X3.563Y-3.9075
X3.563Y-4.6555
X3.563Y-5.4035
X3.563Y-6.1516
X3.563Y-7.1358
X3.563Y-7.8839
X3.563Y-8.6319
X3.563Y-9.3799
X3.6024Y-3.9272
X3.6024Y-4.6752
X3.6024Y-5.4232
X3.6024Y-6.1713
X3.6024Y-7.1555
X3.6024Y-7.9035
X3.6024Y-8.6516
X3.6024Y-9.3996
X3.6417Y-3.8878
X3.6417Y-4.6358
X3.6417Y-5.3839
X3.6417Y-6.1319
X3.6417Y-7.1161
X3.6417Y-7.8642
X3.6417Y-8.6122
X3.6417Y-9.3602
X3.7021Y-7.2625
X3.7037Y-4.8002
X3.9272Y-3.5531
X3.9469Y-5.7972
X3.9665Y-3.5728
X3.9764Y-5.6398
X3.9862Y-5.8169
X4.0059Y-3.5531
X4.0256Y-5.7776
X4.0354Y-3.7205
X4.0354Y-3.8681
X4.311Y-3.7106
X4.311Y-4.4587
X4.311Y-5.2067
X4.311Y-5.9547
X4.311Y-7.2539
X4.311Y-8.002
X4.311Y-8.75
X4.311Y-9.498
X4.3504Y-3.7303
X4.3504Y-4.4783
X4.3504Y-5.2264
X4.3504Y-5.9744
X4.3504Y-7.2736
X4.3504Y-8.0217
X4.3504Y-8.7697
X4.3504Y-9.5177
X4.3898Y-3.6909
X4.3898Y-4.439
X4.3898Y-5.187
X4.3898Y-5.935
X4.3898Y-7.2343
X4.3898Y-7.9823
X4.3898Y-8.7303
X4.3898Y-9.4783
X4.4488Y-7.3524
X4.4518Y-3.8258
X4.6949Y-7.2441
X4.6949Y-9.3406
X4.7244Y-7.2736
X4.7343Y-9.3602
X4.7736Y-9.3209
X4.7835Y-7.2539
X4.7835Y-7.3327
X4.7835Y-8.2185
X4.7835Y-9.1831
X5.0591Y-3.5925
X5.0591Y-4.3406
X5.0591Y-5.0886
X5.0591Y-5.8366
X5.0591Y-7.4508
X5.0591Y-8.1988
X5.0591Y-8.9469
X5.0591Y-9.6949
X5.0984Y-3.6122
X5.0984Y-4.3602
X5.0984Y-5.1083
X5.0984Y-5.8563
X5.0984Y-7.4705
X5.0984Y-8.2185
X5.0984Y-8.9665
X5.0984Y-9.7146
X5.1378Y-3.5728
X5.1378Y-4.3209
X5.1378Y-5.0689
X5.1378Y-5.8169
X5.1378Y-7.4311
X5.1378Y-8.1791
X5.1378Y-8.9272
X5.1378Y-9.6752
X5.1981Y-7.5787
X5.1998Y-3.7205
X5.374Y-3.5039
X5.4094Y-3.6909
X5.4232Y-3.563
X5.4331Y-5.5709
X5.4429Y-3.5236
X5.4528Y-5.689
X5.4724Y-3.937
X5.4724Y-4.813
X5.4921Y-5.7087
X5.5315Y-5.6693
X5.5413Y-8.7598
X5.5709Y-5.4921
X5.5807Y-8.7894
X5.6201Y-8.8091
X5.6594Y-8.7697
X5.8071Y-3.8287
X5.8071Y-4.5768
X5.8071Y-5.3248
X5.8071Y-6.0728
X5.8071Y-7.4508
X5.8071Y-8.1988
X5.8465Y-3.8484
X5.8465Y-4.5965
X5.8465Y-5.3445
X5.8465Y-6.0925
X5.8465Y-7.4705
X5.8465Y-8.2185
X5.8858Y-3.8091
X5.8858Y-4.5571
X5.8858Y-5.3051
X5.8858Y-6.0531
X5.8858Y-7.4311
X5.8858Y-8.1791
X5.9449Y-8.9469
X5.9462Y-7.5184
X5.9478Y-3.9537
X5.9843Y-8.9665
X5.9941Y-5.4626
X6.0236Y-4.6161
X6.0236Y-8.9272
X6.0335Y-3.878
X6.0335Y-5.4823
X6.063Y-4.5965
X6.0728Y-3.8976
X6.0728Y-5.502
X6.1024Y-4.5768
X6.1024Y-6.0925
X6.1122Y-3.9173
X6.1417Y-6.0728
X6.1516Y-7.2539
X6.1614Y-3.75
X6.1811Y-6.0531
X6.1909Y-7.2835
X6.2008Y-3.7303
X6.2303Y-7.3031
X6.2402Y-3.75
X6.25Y-8.2579
X6.2697Y-7.2638
X6.2795Y-3.7106
X6.3091Y-5.9843
X6.3287Y-7.874
X6.3386Y-8.0413
X6.3484Y-6.0039
X6.378Y-4.7638
X6.378Y-8.061
X6.3878Y-5.8071
X6.3878Y-5.9646
X6.4173Y-8.0217
X6.4469Y-4.0059
X6.5551Y-3.9075
X6.5551Y-4.6555
X6.5551Y-4.7146
X6.5551Y-5.4035
X6.5551Y-7.4508
X6.5945Y-3.9272
X6.5945Y-4.6752
X6.5945Y-5.4232
X6.5945Y-7.4705
X6.6339Y-3.8878
X6.6339Y-4.6358
X6.6339Y-5.3839
X6.6339Y-7.4311
X6.6732Y-4.7441
X6.689Y-7.4941
X6.6929Y-6.1516
X6.6929Y-8.1988
X6.6959Y-4.1112
X6.7323Y-6.1713
X6.7323Y-8.2185
X6.7717Y-6.1319
X6.7717Y-8.1791
T2
X1.6614Y-6.8732
X1.6614Y-6.9732
X1.6614Y-7.0732
X1.6614Y-7.1732
X1.6614Y-7.2732
X1.6614Y-7.3732
X1.6614Y-7.4732
X1.6614Y-7.5732
X1.6614Y-7.6732
X1.6614Y-7.7732
X1.6614Y-7.8732
X1.6614Y-7.9732
X1.6614Y-8.0732
X1.6614Y-8.1732
X1.6614Y-8.2732
X1.6614Y-8.3732
X1.6614Y-8.4732
X1.6614Y-8.5732
X1.6614Y-8.6732
X1.6614Y-8.7732
X1.6614Y-8.8732
X1.6614Y-8.9732
X1.6614Y-9.0732
X1.6614Y-9.1732
X1.7614Y-6.8732
X1.7614Y-6.9732
X1.7614Y-7.0732
X1.7614Y-7.1732
X1.7614Y-7.2732
X1.7614Y-7.3732
X1.7614Y-7.4732
X1.7614Y-7.5732
X1.7614Y-7.6732
X1.7614Y-7.7732
X1.7614Y-7.8732
X1.7614Y-7.9732
X1.7614Y-8.0732
X1.7614Y-8.1732
X1.7614Y-8.2732
X1.7614Y-8.3732
X1.7614Y-8.4732
X1.7614Y-8.5732
X1.7614Y-8.6732
X1.7614Y-8.7732
X1.7614Y-8.8732
X1.7614Y-8.9732
X1.7614Y-9.0732
X1.7614Y-9.1732
X6.9787Y-3.3285
X6.9787Y-3.4285
X6.9787Y-3.5285
X6.9787Y-3.6285
X6.9787Y-3.7285
X6.9787Y-3.8285
X6.9787Y-3.9285
X6.9787Y-4.0285
X6.9787Y-4.1285
X6.9787Y-4.2285
X6.9787Y-4.3285
X6.9787Y-4.4285
X6.9787Y-4.5285
X6.9787Y-4.6285
X6.9787Y-4.7285
X6.9787Y-4.8285
X6.9787Y-4.9285
X6.9787Y-5.0285
X6.9787Y-5.1285
X6.9787Y-5.2285
X6.9787Y-5.3285
X6.9787Y-5.4285
X6.9787Y-5.5285
X6.9787Y-5.6285
X7.0787Y-3.3285
X7.0787Y-3.4285
X7.0787Y-3.5285
X7.0787Y-3.6285
X7.0787Y-3.7285
X7.0787Y-3.8285
X7.0787Y-3.9285
X7.0787Y-4.0285
X7.0787Y-4.1285
X7.0787Y-4.2285
X7.0787Y-4.3285
X7.0787Y-4.4285
X7.0787Y-4.5285
X7.0787Y-4.6285
X7.0787Y-4.7285
X7.0787Y-4.8285
X7.0787Y-4.9285
X7.0787Y-5.0285
X7.0787Y-5.1285
X7.0787Y-5.2285
X7.0787Y-5.3285
X7.0787Y-5.4285
X7.0787Y-5.5285
X7.0787Y-5.6285
T3
X1.7913Y-4.2598
X1.7913Y-9.2992
X1.8882Y-4.2094
X1.8882Y-9.2488
X1.9291Y-3.5118
X1.9291Y-7.0551
X1.9291Y-7.8031
X1.9291Y-8.5512
X1.9882Y-4.1772
X1.9882Y-9.2165
X2.026Y-3.4614
X2.026Y-7.0047
X2.026Y-7.7528
X2.026Y-8.5008
X2.126Y-3.4291
X2.126Y-6.9724
X2.126Y-7.7205
X2.126Y-8.4685
X2.1382Y-4.3094
X2.1382Y-9.3488
X2.276Y-3.5614
X2.276Y-7.1047
X2.276Y-7.8528
X2.276Y-8.6008
X2.5394Y-5.0079
X2.6362Y-4.9575
X2.6772Y-3.5118
X2.6772Y-4.2598
X2.6772Y-6.9764
X2.6772Y-7.7244
X2.6772Y-8.4724
X2.6772Y-9.2205
X2.7362Y-4.9252
X2.774Y-3.4614
X2.774Y-4.2094
X2.774Y-6.926
X2.774Y-7.674
X2.774Y-8.422
X2.774Y-9.1701
X2.874Y-3.4291
X2.874Y-4.1772
X2.874Y-6.8937
X2.874Y-7.6417
X2.874Y-8.3898
X2.874Y-9.1378
X2.8862Y-5.0575
X3.024Y-3.5614
X3.024Y-4.3094
X3.024Y-7.026
X3.024Y-7.774
X3.024Y-8.522
X3.024Y-9.2701
X3.4252Y-3.5118
X3.4252Y-4.2598
X3.4252Y-5.0079
X3.4252Y-5.7559
X3.4252Y-6.7402
X3.4252Y-7.4882
X3.4252Y-8.2362
X3.4252Y-8.9843
X3.522Y-3.4614
X3.522Y-4.2094
X3.522Y-4.9575
X3.522Y-5.7055
X3.522Y-6.6898
X3.522Y-7.4378
X3.522Y-8.1858
X3.522Y-8.9339
X3.622Y-3.4291
X3.622Y-4.1772
X3.622Y-4.9252
X3.622Y-5.6732
X3.622Y-6.6575
X3.622Y-7.4055
X3.622Y-8.1535
X3.622Y-8.9016
X3.772Y-3.5614
X3.772Y-4.3094
X3.772Y-5.0575
X3.772Y-5.8055
X3.772Y-6.7898
X3.772Y-7.5378
X3.772Y-8.2858
X3.772Y-9.0339
X4.1732Y-3.315
X4.1732Y-4.063
X4.1732Y-4.811
X4.1732Y-5.5591
X4.1732Y-6.8583
X4.1732Y-7.6063
X4.1732Y-8.3543
X4.1732Y-9.1024
X4.2701Y-3.2646
X4.2701Y-4.0126
X4.2701Y-4.7606
X4.2701Y-5.5087
X4.2701Y-6.8079
X4.2701Y-7.5559
X4.2701Y-8.3039
X4.2701Y-9.052
X4.3701Y-3.2323
X4.3701Y-3.9803
X4.3701Y-4.7283
X4.3701Y-5.4764
X4.3701Y-6.7756
X4.3701Y-7.5236
X4.3701Y-8.2717
X4.3701Y-9.0197
X4.5201Y-3.3646
X4.5201Y-4.1126
X4.5201Y-4.8606
X4.5201Y-5.6087
X4.5201Y-6.9079
X4.5201Y-7.6559
X4.5201Y-8.4039
X4.5201Y-9.152
X4.9213Y-3.1969
X4.9213Y-3.9449
X4.9213Y-4.6929
X4.9213Y-5.4409
X4.9213Y-7.0551
X4.9213Y-7.8031
X4.9213Y-8.5512
X4.9213Y-9.2992
X5.0181Y-3.1465
X5.0181Y-3.8945
X5.0181Y-4.6425
X5.0181Y-5.3906
X5.0181Y-7.0047
X5.0181Y-7.7528
X5.0181Y-8.5008
X5.0181Y-9.2488
X5.1181Y-3.1142
X5.1181Y-3.8622
X5.1181Y-4.6102
X5.1181Y-5.3583
X5.1181Y-6.9724
X5.1181Y-7.7205
X5.1181Y-8.4685
X5.1181Y-9.2165
X5.2681Y-3.2465
X5.2681Y-3.9945
X5.2681Y-4.7425
X5.2681Y-5.4906
X5.2681Y-7.1047
X5.2681Y-7.8528
X5.2681Y-8.6008
X5.2681Y-9.3488
X5.6693Y-3.4331
X5.6693Y-4.1811
X5.6693Y-4.9291
X5.6693Y-5.6772
X5.6693Y-7.0551
X5.6693Y-7.8031
X5.7661Y-3.3827
X5.7661Y-4.1307
X5.7661Y-4.8787
X5.7661Y-5.6268
X5.7661Y-7.0047
X5.7661Y-7.7528
X5.8071Y-8.5512
X5.8661Y-3.3504
X5.8661Y-4.0984
X5.8661Y-4.8465
X5.8661Y-5.5945
X5.8661Y-6.9724
X5.8661Y-7.7205
X5.9039Y-8.5008
X6.0039Y-8.4685
X6.0161Y-3.4827
X6.0161Y-4.2307
X6.0161Y-4.9787
X6.0161Y-5.7268
X6.0161Y-7.1047
X6.0161Y-7.8528
X6.1539Y-8.6008
X6.4173Y-3.5118
X6.4173Y-4.2598
X6.4173Y-5.0079
X6.4173Y-7.0551
X6.5142Y-3.4614
X6.5142Y-4.2094
X6.5142Y-4.9575
X6.5142Y-7.0047
X6.5551Y-5.7559
X6.5551Y-7.8031
X6.6142Y-3.4291
X6.6142Y-4.1772
X6.6142Y-4.9252
X6.6142Y-6.9724
X6.652Y-5.7055
X6.652Y-7.7528
X6.752Y-5.6732
X6.752Y-7.7205
X6.7642Y-3.5614
X6.7642Y-4.3094
X6.7642Y-5.0575
X6.7642Y-7.1047
X6.902Y-5.8055
X6.902Y-7.8528
T0
M30
