%TF.GenerationSoftware,KiCad,Pcbnew,(6.0.6)*%
%TF.CreationDate,2022-09-05T11:06:28-07:00*%
%TF.ProjectId,Nour-Valkyrie,4e6f7572-2d56-4616-9c6b-797269652e6b,rev?*%
%TF.SameCoordinates,Original*%
%TF.FileFunction,Legend,Bot*%
%TF.FilePolarity,Positive*%
%FSLAX46Y46*%
G04 Gerber Fmt 4.6, Leading zero omitted, Abs format (unit mm)*
G04 Created by KiCad (PCBNEW (6.0.6)) date 2022-09-05 11:06:28*
%MOMM*%
%LPD*%
G01*
G04 APERTURE LIST*
%ADD10C,0.150000*%
%ADD11C,0.127000*%
%ADD12C,0.100000*%
G04 APERTURE END LIST*
D10*
X82164404Y-247452380D02*
X82164404Y-246452380D01*
X81592976Y-247452380D01*
X81592976Y-246452380D01*
X80973928Y-247452380D02*
X81069166Y-247404761D01*
X81116785Y-247357142D01*
X81164404Y-247261904D01*
X81164404Y-246976190D01*
X81116785Y-246880952D01*
X81069166Y-246833333D01*
X80973928Y-246785714D01*
X80831071Y-246785714D01*
X80735833Y-246833333D01*
X80688214Y-246880952D01*
X80640595Y-246976190D01*
X80640595Y-247261904D01*
X80688214Y-247357142D01*
X80735833Y-247404761D01*
X80831071Y-247452380D01*
X80973928Y-247452380D01*
X79783452Y-246785714D02*
X79783452Y-247452380D01*
X80212023Y-246785714D02*
X80212023Y-247309523D01*
X80164404Y-247404761D01*
X80069166Y-247452380D01*
X79926309Y-247452380D01*
X79831071Y-247404761D01*
X79783452Y-247357142D01*
X79307261Y-247452380D02*
X79307261Y-246785714D01*
X79307261Y-246976190D02*
X79259642Y-246880952D01*
X79212023Y-246833333D01*
X79116785Y-246785714D01*
X79021547Y-246785714D01*
X78069166Y-246452380D02*
X77735833Y-247452380D01*
X77402500Y-246452380D01*
X76640595Y-247452380D02*
X76640595Y-246928571D01*
X76688214Y-246833333D01*
X76783452Y-246785714D01*
X76973928Y-246785714D01*
X77069166Y-246833333D01*
X76640595Y-247404761D02*
X76735833Y-247452380D01*
X76973928Y-247452380D01*
X77069166Y-247404761D01*
X77116785Y-247309523D01*
X77116785Y-247214285D01*
X77069166Y-247119047D01*
X76973928Y-247071428D01*
X76735833Y-247071428D01*
X76640595Y-247023809D01*
X76021547Y-247452380D02*
X76116785Y-247404761D01*
X76164404Y-247309523D01*
X76164404Y-246452380D01*
X75640595Y-247452380D02*
X75640595Y-246452380D01*
X75545357Y-247071428D02*
X75259642Y-247452380D01*
X75259642Y-246785714D02*
X75640595Y-247166666D01*
X74926309Y-246785714D02*
X74688214Y-247452380D01*
X74450119Y-246785714D02*
X74688214Y-247452380D01*
X74783452Y-247690476D01*
X74831071Y-247738095D01*
X74926309Y-247785714D01*
X74069166Y-247452380D02*
X74069166Y-246785714D01*
X74069166Y-246976190D02*
X74021547Y-246880952D01*
X73973928Y-246833333D01*
X73878690Y-246785714D01*
X73783452Y-246785714D01*
X73450119Y-247452380D02*
X73450119Y-246785714D01*
X73450119Y-246452380D02*
X73497738Y-246500000D01*
X73450119Y-246547619D01*
X73402500Y-246500000D01*
X73450119Y-246452380D01*
X73450119Y-246547619D01*
X72592976Y-247404761D02*
X72688214Y-247452380D01*
X72878690Y-247452380D01*
X72973928Y-247404761D01*
X73021547Y-247309523D01*
X73021547Y-246928571D01*
X72973928Y-246833333D01*
X72878690Y-246785714D01*
X72688214Y-246785714D01*
X72592976Y-246833333D01*
X72545357Y-246928571D01*
X72545357Y-247023809D01*
X73021547Y-247119047D01*
X70878690Y-247452380D02*
X71354880Y-247452380D01*
X71354880Y-246452380D01*
X70164404Y-247404761D02*
X70259642Y-247452380D01*
X70450119Y-247452380D01*
X70545357Y-247404761D01*
X70592976Y-247309523D01*
X70592976Y-246928571D01*
X70545357Y-246833333D01*
X70450119Y-246785714D01*
X70259642Y-246785714D01*
X70164404Y-246833333D01*
X70116785Y-246928571D01*
X70116785Y-247023809D01*
X70592976Y-247119047D01*
X69831071Y-246785714D02*
X69450119Y-246785714D01*
X69688214Y-247452380D02*
X69688214Y-246595238D01*
X69640595Y-246500000D01*
X69545357Y-246452380D01*
X69450119Y-246452380D01*
X69259642Y-246785714D02*
X68878690Y-246785714D01*
X69116785Y-246452380D02*
X69116785Y-247309523D01*
X69069166Y-247404761D01*
X68973928Y-247452380D01*
X68878690Y-247452380D01*
X67878690Y-246452380D02*
X67640595Y-247452380D01*
X67450119Y-246738095D01*
X67259642Y-247452380D01*
X67021547Y-246452380D01*
X66640595Y-247452380D02*
X66640595Y-246785714D01*
X66640595Y-246452380D02*
X66688214Y-246500000D01*
X66640595Y-246547619D01*
X66592976Y-246500000D01*
X66640595Y-246452380D01*
X66640595Y-246547619D01*
X66164404Y-246785714D02*
X66164404Y-247452380D01*
X66164404Y-246880952D02*
X66116785Y-246833333D01*
X66021547Y-246785714D01*
X65878690Y-246785714D01*
X65783452Y-246833333D01*
X65735833Y-246928571D01*
X65735833Y-247452380D01*
X64831071Y-246785714D02*
X64831071Y-247595238D01*
X64878690Y-247690476D01*
X64926309Y-247738095D01*
X65021547Y-247785714D01*
X65164404Y-247785714D01*
X65259642Y-247738095D01*
X64831071Y-247404761D02*
X64926309Y-247452380D01*
X65116785Y-247452380D01*
X65212023Y-247404761D01*
X65259642Y-247357142D01*
X65307261Y-247261904D01*
X65307261Y-246976190D01*
X65259642Y-246880952D01*
X65212023Y-246833333D01*
X65116785Y-246785714D01*
X64926309Y-246785714D01*
X64831071Y-246833333D01*
X63688214Y-246785714D02*
X63450119Y-247452380D01*
X63212023Y-246785714D01*
X62640595Y-246452380D02*
X62545357Y-246452380D01*
X62450119Y-246500000D01*
X62402500Y-246547619D01*
X62354880Y-246642857D01*
X62307261Y-246833333D01*
X62307261Y-247071428D01*
X62354880Y-247261904D01*
X62402500Y-247357142D01*
X62450119Y-247404761D01*
X62545357Y-247452380D01*
X62640595Y-247452380D01*
X62735833Y-247404761D01*
X62783452Y-247357142D01*
X62831071Y-247261904D01*
X62878690Y-247071428D01*
X62878690Y-246833333D01*
X62831071Y-246642857D01*
X62783452Y-246547619D01*
X62735833Y-246500000D01*
X62640595Y-246452380D01*
X61878690Y-247357142D02*
X61831071Y-247404761D01*
X61878690Y-247452380D01*
X61926309Y-247404761D01*
X61878690Y-247357142D01*
X61878690Y-247452380D01*
X60878690Y-247452380D02*
X61450119Y-247452380D01*
X61164404Y-247452380D02*
X61164404Y-246452380D01*
X61259642Y-246595238D01*
X61354880Y-246690476D01*
X61450119Y-246738095D01*
X162121309Y-157202380D02*
X162121309Y-156202380D01*
X161549880Y-157202380D01*
X161549880Y-156202380D01*
X160930833Y-157202380D02*
X161026071Y-157154761D01*
X161073690Y-157107142D01*
X161121309Y-157011904D01*
X161121309Y-156726190D01*
X161073690Y-156630952D01*
X161026071Y-156583333D01*
X160930833Y-156535714D01*
X160787976Y-156535714D01*
X160692738Y-156583333D01*
X160645119Y-156630952D01*
X160597500Y-156726190D01*
X160597500Y-157011904D01*
X160645119Y-157107142D01*
X160692738Y-157154761D01*
X160787976Y-157202380D01*
X160930833Y-157202380D01*
X159740357Y-156535714D02*
X159740357Y-157202380D01*
X160168928Y-156535714D02*
X160168928Y-157059523D01*
X160121309Y-157154761D01*
X160026071Y-157202380D01*
X159883214Y-157202380D01*
X159787976Y-157154761D01*
X159740357Y-157107142D01*
X159264166Y-157202380D02*
X159264166Y-156535714D01*
X159264166Y-156726190D02*
X159216547Y-156630952D01*
X159168928Y-156583333D01*
X159073690Y-156535714D01*
X158978452Y-156535714D01*
X158026071Y-156202380D02*
X157692738Y-157202380D01*
X157359404Y-156202380D01*
X156597500Y-157202380D02*
X156597500Y-156678571D01*
X156645119Y-156583333D01*
X156740357Y-156535714D01*
X156930833Y-156535714D01*
X157026071Y-156583333D01*
X156597500Y-157154761D02*
X156692738Y-157202380D01*
X156930833Y-157202380D01*
X157026071Y-157154761D01*
X157073690Y-157059523D01*
X157073690Y-156964285D01*
X157026071Y-156869047D01*
X156930833Y-156821428D01*
X156692738Y-156821428D01*
X156597500Y-156773809D01*
X155978452Y-157202380D02*
X156073690Y-157154761D01*
X156121309Y-157059523D01*
X156121309Y-156202380D01*
X155597500Y-157202380D02*
X155597500Y-156202380D01*
X155502261Y-156821428D02*
X155216547Y-157202380D01*
X155216547Y-156535714D02*
X155597500Y-156916666D01*
X154883214Y-156535714D02*
X154645119Y-157202380D01*
X154407023Y-156535714D02*
X154645119Y-157202380D01*
X154740357Y-157440476D01*
X154787976Y-157488095D01*
X154883214Y-157535714D01*
X154026071Y-157202380D02*
X154026071Y-156535714D01*
X154026071Y-156726190D02*
X153978452Y-156630952D01*
X153930833Y-156583333D01*
X153835595Y-156535714D01*
X153740357Y-156535714D01*
X153407023Y-157202380D02*
X153407023Y-156535714D01*
X153407023Y-156202380D02*
X153454642Y-156250000D01*
X153407023Y-156297619D01*
X153359404Y-156250000D01*
X153407023Y-156202380D01*
X153407023Y-156297619D01*
X152549880Y-157154761D02*
X152645119Y-157202380D01*
X152835595Y-157202380D01*
X152930833Y-157154761D01*
X152978452Y-157059523D01*
X152978452Y-156678571D01*
X152930833Y-156583333D01*
X152835595Y-156535714D01*
X152645119Y-156535714D01*
X152549880Y-156583333D01*
X152502261Y-156678571D01*
X152502261Y-156773809D01*
X152978452Y-156869047D01*
X150740357Y-157202380D02*
X151073690Y-156726190D01*
X151311785Y-157202380D02*
X151311785Y-156202380D01*
X150930833Y-156202380D01*
X150835595Y-156250000D01*
X150787976Y-156297619D01*
X150740357Y-156392857D01*
X150740357Y-156535714D01*
X150787976Y-156630952D01*
X150835595Y-156678571D01*
X150930833Y-156726190D01*
X151311785Y-156726190D01*
X150311785Y-157202380D02*
X150311785Y-156535714D01*
X150311785Y-156202380D02*
X150359404Y-156250000D01*
X150311785Y-156297619D01*
X150264166Y-156250000D01*
X150311785Y-156202380D01*
X150311785Y-156297619D01*
X149407023Y-156535714D02*
X149407023Y-157345238D01*
X149454642Y-157440476D01*
X149502261Y-157488095D01*
X149597500Y-157535714D01*
X149740357Y-157535714D01*
X149835595Y-157488095D01*
X149407023Y-157154761D02*
X149502261Y-157202380D01*
X149692738Y-157202380D01*
X149787976Y-157154761D01*
X149835595Y-157107142D01*
X149883214Y-157011904D01*
X149883214Y-156726190D01*
X149835595Y-156630952D01*
X149787976Y-156583333D01*
X149692738Y-156535714D01*
X149502261Y-156535714D01*
X149407023Y-156583333D01*
X148930833Y-157202380D02*
X148930833Y-156202380D01*
X148502261Y-157202380D02*
X148502261Y-156678571D01*
X148549880Y-156583333D01*
X148645119Y-156535714D01*
X148787976Y-156535714D01*
X148883214Y-156583333D01*
X148930833Y-156630952D01*
X148168928Y-156535714D02*
X147787976Y-156535714D01*
X148026071Y-156202380D02*
X148026071Y-157059523D01*
X147978452Y-157154761D01*
X147883214Y-157202380D01*
X147787976Y-157202380D01*
X146787976Y-156202380D02*
X146549880Y-157202380D01*
X146359404Y-156488095D01*
X146168928Y-157202380D01*
X145930833Y-156202380D01*
X145549880Y-157202380D02*
X145549880Y-156535714D01*
X145549880Y-156202380D02*
X145597500Y-156250000D01*
X145549880Y-156297619D01*
X145502261Y-156250000D01*
X145549880Y-156202380D01*
X145549880Y-156297619D01*
X145073690Y-156535714D02*
X145073690Y-157202380D01*
X145073690Y-156630952D02*
X145026071Y-156583333D01*
X144930833Y-156535714D01*
X144787976Y-156535714D01*
X144692738Y-156583333D01*
X144645119Y-156678571D01*
X144645119Y-157202380D01*
X143740357Y-156535714D02*
X143740357Y-157345238D01*
X143787976Y-157440476D01*
X143835595Y-157488095D01*
X143930833Y-157535714D01*
X144073690Y-157535714D01*
X144168928Y-157488095D01*
X143740357Y-157154761D02*
X143835595Y-157202380D01*
X144026071Y-157202380D01*
X144121309Y-157154761D01*
X144168928Y-157107142D01*
X144216547Y-157011904D01*
X144216547Y-156726190D01*
X144168928Y-156630952D01*
X144121309Y-156583333D01*
X144026071Y-156535714D01*
X143835595Y-156535714D01*
X143740357Y-156583333D01*
X142597500Y-156535714D02*
X142359404Y-157202380D01*
X142121309Y-156535714D01*
X141549880Y-156202380D02*
X141454642Y-156202380D01*
X141359404Y-156250000D01*
X141311785Y-156297619D01*
X141264166Y-156392857D01*
X141216547Y-156583333D01*
X141216547Y-156821428D01*
X141264166Y-157011904D01*
X141311785Y-157107142D01*
X141359404Y-157154761D01*
X141454642Y-157202380D01*
X141549880Y-157202380D01*
X141645119Y-157154761D01*
X141692738Y-157107142D01*
X141740357Y-157011904D01*
X141787976Y-156821428D01*
X141787976Y-156583333D01*
X141740357Y-156392857D01*
X141692738Y-156297619D01*
X141645119Y-156250000D01*
X141549880Y-156202380D01*
X140787976Y-157107142D02*
X140740357Y-157154761D01*
X140787976Y-157202380D01*
X140835595Y-157154761D01*
X140787976Y-157107142D01*
X140787976Y-157202380D01*
X139787976Y-157202380D02*
X140359404Y-157202380D01*
X140073690Y-157202380D02*
X140073690Y-156202380D01*
X140168928Y-156345238D01*
X140264166Y-156440476D01*
X140359404Y-156488095D01*
D11*
%TO.C,D53*%
X152552000Y-205752000D02*
X151922000Y-205752000D01*
X151922000Y-205902000D01*
X151952000Y-205992000D01*
X152012000Y-206052000D01*
X152072000Y-206082000D01*
X152192000Y-206112000D01*
X152282000Y-206112000D01*
X152402000Y-206082000D01*
X152462000Y-206052000D01*
X152522000Y-205992000D01*
X152552000Y-205902000D01*
X152552000Y-205752000D01*
X151922000Y-206682000D02*
X151922000Y-206382000D01*
X152222000Y-206352000D01*
X152192000Y-206382000D01*
X152162000Y-206442000D01*
X152162000Y-206592000D01*
X152192000Y-206652000D01*
X152222000Y-206682000D01*
X152282000Y-206712000D01*
X152432000Y-206712000D01*
X152492000Y-206682000D01*
X152522000Y-206652000D01*
X152552000Y-206592000D01*
X152552000Y-206442000D01*
X152522000Y-206382000D01*
X152492000Y-206352000D01*
X151922000Y-206922000D02*
X151922000Y-207312000D01*
X152162000Y-207102000D01*
X152162000Y-207192000D01*
X152192000Y-207252000D01*
X152222000Y-207282000D01*
X152282000Y-207312000D01*
X152432000Y-207312000D01*
X152492000Y-207282000D01*
X152522000Y-207252000D01*
X152552000Y-207192000D01*
X152552000Y-207012000D01*
X152522000Y-206952000D01*
X152492000Y-206922000D01*
%TO.C,D61*%
X114552000Y-219752000D02*
X113922000Y-219752000D01*
X113922000Y-219902000D01*
X113952000Y-219992000D01*
X114012000Y-220052000D01*
X114072000Y-220082000D01*
X114192000Y-220112000D01*
X114282000Y-220112000D01*
X114402000Y-220082000D01*
X114462000Y-220052000D01*
X114522000Y-219992000D01*
X114552000Y-219902000D01*
X114552000Y-219752000D01*
X113922000Y-220652000D02*
X113922000Y-220532000D01*
X113952000Y-220472000D01*
X113982000Y-220442000D01*
X114072000Y-220382000D01*
X114192000Y-220352000D01*
X114432000Y-220352000D01*
X114492000Y-220382000D01*
X114522000Y-220412000D01*
X114552000Y-220472000D01*
X114552000Y-220592000D01*
X114522000Y-220652000D01*
X114492000Y-220682000D01*
X114432000Y-220712000D01*
X114282000Y-220712000D01*
X114222000Y-220682000D01*
X114192000Y-220652000D01*
X114162000Y-220592000D01*
X114162000Y-220472000D01*
X114192000Y-220412000D01*
X114222000Y-220382000D01*
X114282000Y-220352000D01*
X114552000Y-221312000D02*
X114552000Y-220952000D01*
X114552000Y-221132000D02*
X113922000Y-221132000D01*
X114012000Y-221072000D01*
X114072000Y-221012000D01*
X114102000Y-220952000D01*
%TO.C,D71*%
X57552000Y-186752000D02*
X56922000Y-186752000D01*
X56922000Y-186902000D01*
X56952000Y-186992000D01*
X57012000Y-187052000D01*
X57072000Y-187082000D01*
X57192000Y-187112000D01*
X57282000Y-187112000D01*
X57402000Y-187082000D01*
X57462000Y-187052000D01*
X57522000Y-186992000D01*
X57552000Y-186902000D01*
X57552000Y-186752000D01*
X56922000Y-187322000D02*
X56922000Y-187742000D01*
X57552000Y-187472000D01*
X57552000Y-188312000D02*
X57552000Y-187952000D01*
X57552000Y-188132000D02*
X56922000Y-188132000D01*
X57012000Y-188072000D01*
X57072000Y-188012000D01*
X57102000Y-187952000D01*
%TO.C,D64*%
X95552000Y-197752000D02*
X94922000Y-197752000D01*
X94922000Y-197902000D01*
X94952000Y-197992000D01*
X95012000Y-198052000D01*
X95072000Y-198082000D01*
X95192000Y-198112000D01*
X95282000Y-198112000D01*
X95402000Y-198082000D01*
X95462000Y-198052000D01*
X95522000Y-197992000D01*
X95552000Y-197902000D01*
X95552000Y-197752000D01*
X94922000Y-198652000D02*
X94922000Y-198532000D01*
X94952000Y-198472000D01*
X94982000Y-198442000D01*
X95072000Y-198382000D01*
X95192000Y-198352000D01*
X95432000Y-198352000D01*
X95492000Y-198382000D01*
X95522000Y-198412000D01*
X95552000Y-198472000D01*
X95552000Y-198592000D01*
X95522000Y-198652000D01*
X95492000Y-198682000D01*
X95432000Y-198712000D01*
X95282000Y-198712000D01*
X95222000Y-198682000D01*
X95192000Y-198652000D01*
X95162000Y-198592000D01*
X95162000Y-198472000D01*
X95192000Y-198412000D01*
X95222000Y-198382000D01*
X95282000Y-198352000D01*
X95132000Y-199252000D02*
X95552000Y-199252000D01*
X94892000Y-199102000D02*
X95342000Y-198952000D01*
X95342000Y-199342000D01*
%TO.C,D55*%
X133552000Y-186752000D02*
X132922000Y-186752000D01*
X132922000Y-186902000D01*
X132952000Y-186992000D01*
X133012000Y-187052000D01*
X133072000Y-187082000D01*
X133192000Y-187112000D01*
X133282000Y-187112000D01*
X133402000Y-187082000D01*
X133462000Y-187052000D01*
X133522000Y-186992000D01*
X133552000Y-186902000D01*
X133552000Y-186752000D01*
X132922000Y-187682000D02*
X132922000Y-187382000D01*
X133222000Y-187352000D01*
X133192000Y-187382000D01*
X133162000Y-187442000D01*
X133162000Y-187592000D01*
X133192000Y-187652000D01*
X133222000Y-187682000D01*
X133282000Y-187712000D01*
X133432000Y-187712000D01*
X133492000Y-187682000D01*
X133522000Y-187652000D01*
X133552000Y-187592000D01*
X133552000Y-187442000D01*
X133522000Y-187382000D01*
X133492000Y-187352000D01*
X132922000Y-188282000D02*
X132922000Y-187982000D01*
X133222000Y-187952000D01*
X133192000Y-187982000D01*
X133162000Y-188042000D01*
X133162000Y-188192000D01*
X133192000Y-188252000D01*
X133222000Y-188282000D01*
X133282000Y-188312000D01*
X133432000Y-188312000D01*
X133492000Y-188282000D01*
X133522000Y-188252000D01*
X133552000Y-188192000D01*
X133552000Y-188042000D01*
X133522000Y-187982000D01*
X133492000Y-187952000D01*
%TO.C,D9*%
X171485000Y-97035000D02*
X170855000Y-97035000D01*
X170855000Y-97185000D01*
X170885000Y-97275000D01*
X170945000Y-97335000D01*
X171005000Y-97365000D01*
X171125000Y-97395000D01*
X171215000Y-97395000D01*
X171335000Y-97365000D01*
X171395000Y-97335000D01*
X171455000Y-97275000D01*
X171485000Y-97185000D01*
X171485000Y-97035000D01*
X171485000Y-97695000D02*
X171485000Y-97815000D01*
X171455000Y-97875000D01*
X171425000Y-97905000D01*
X171335000Y-97965000D01*
X171215000Y-97995000D01*
X170975000Y-97995000D01*
X170915000Y-97965000D01*
X170885000Y-97935000D01*
X170855000Y-97875000D01*
X170855000Y-97755000D01*
X170885000Y-97695000D01*
X170915000Y-97665000D01*
X170975000Y-97635000D01*
X171125000Y-97635000D01*
X171185000Y-97665000D01*
X171215000Y-97695000D01*
X171245000Y-97755000D01*
X171245000Y-97875000D01*
X171215000Y-97935000D01*
X171185000Y-97965000D01*
X171125000Y-97995000D01*
%TO.C,D59*%
X114552000Y-181752000D02*
X113922000Y-181752000D01*
X113922000Y-181902000D01*
X113952000Y-181992000D01*
X114012000Y-182052000D01*
X114072000Y-182082000D01*
X114192000Y-182112000D01*
X114282000Y-182112000D01*
X114402000Y-182082000D01*
X114462000Y-182052000D01*
X114522000Y-181992000D01*
X114552000Y-181902000D01*
X114552000Y-181752000D01*
X113922000Y-182682000D02*
X113922000Y-182382000D01*
X114222000Y-182352000D01*
X114192000Y-182382000D01*
X114162000Y-182442000D01*
X114162000Y-182592000D01*
X114192000Y-182652000D01*
X114222000Y-182682000D01*
X114282000Y-182712000D01*
X114432000Y-182712000D01*
X114492000Y-182682000D01*
X114522000Y-182652000D01*
X114552000Y-182592000D01*
X114552000Y-182442000D01*
X114522000Y-182382000D01*
X114492000Y-182352000D01*
X114552000Y-183012000D02*
X114552000Y-183132000D01*
X114522000Y-183192000D01*
X114492000Y-183222000D01*
X114402000Y-183282000D01*
X114282000Y-183312000D01*
X114042000Y-183312000D01*
X113982000Y-183282000D01*
X113952000Y-183252000D01*
X113922000Y-183192000D01*
X113922000Y-183072000D01*
X113952000Y-183012000D01*
X113982000Y-182982000D01*
X114042000Y-182952000D01*
X114192000Y-182952000D01*
X114252000Y-182982000D01*
X114282000Y-183012000D01*
X114312000Y-183072000D01*
X114312000Y-183192000D01*
X114282000Y-183252000D01*
X114252000Y-183282000D01*
X114192000Y-183312000D01*
%TO.C,D68*%
X76552000Y-203752000D02*
X75922000Y-203752000D01*
X75922000Y-203902000D01*
X75952000Y-203992000D01*
X76012000Y-204052000D01*
X76072000Y-204082000D01*
X76192000Y-204112000D01*
X76282000Y-204112000D01*
X76402000Y-204082000D01*
X76462000Y-204052000D01*
X76522000Y-203992000D01*
X76552000Y-203902000D01*
X76552000Y-203752000D01*
X75922000Y-204652000D02*
X75922000Y-204532000D01*
X75952000Y-204472000D01*
X75982000Y-204442000D01*
X76072000Y-204382000D01*
X76192000Y-204352000D01*
X76432000Y-204352000D01*
X76492000Y-204382000D01*
X76522000Y-204412000D01*
X76552000Y-204472000D01*
X76552000Y-204592000D01*
X76522000Y-204652000D01*
X76492000Y-204682000D01*
X76432000Y-204712000D01*
X76282000Y-204712000D01*
X76222000Y-204682000D01*
X76192000Y-204652000D01*
X76162000Y-204592000D01*
X76162000Y-204472000D01*
X76192000Y-204412000D01*
X76222000Y-204382000D01*
X76282000Y-204352000D01*
X76192000Y-205072000D02*
X76162000Y-205012000D01*
X76132000Y-204982000D01*
X76072000Y-204952000D01*
X76042000Y-204952000D01*
X75982000Y-204982000D01*
X75952000Y-205012000D01*
X75922000Y-205072000D01*
X75922000Y-205192000D01*
X75952000Y-205252000D01*
X75982000Y-205282000D01*
X76042000Y-205312000D01*
X76072000Y-205312000D01*
X76132000Y-205282000D01*
X76162000Y-205252000D01*
X76192000Y-205192000D01*
X76192000Y-205072000D01*
X76222000Y-205012000D01*
X76252000Y-204982000D01*
X76312000Y-204952000D01*
X76432000Y-204952000D01*
X76492000Y-204982000D01*
X76522000Y-205012000D01*
X76552000Y-205072000D01*
X76552000Y-205192000D01*
X76522000Y-205252000D01*
X76492000Y-205282000D01*
X76432000Y-205312000D01*
X76312000Y-205312000D01*
X76252000Y-205282000D01*
X76222000Y-205252000D01*
X76192000Y-205192000D01*
%TO.C,D72*%
X57552000Y-205752000D02*
X56922000Y-205752000D01*
X56922000Y-205902000D01*
X56952000Y-205992000D01*
X57012000Y-206052000D01*
X57072000Y-206082000D01*
X57192000Y-206112000D01*
X57282000Y-206112000D01*
X57402000Y-206082000D01*
X57462000Y-206052000D01*
X57522000Y-205992000D01*
X57552000Y-205902000D01*
X57552000Y-205752000D01*
X56922000Y-206322000D02*
X56922000Y-206742000D01*
X57552000Y-206472000D01*
X56982000Y-206952000D02*
X56952000Y-206982000D01*
X56922000Y-207042000D01*
X56922000Y-207192000D01*
X56952000Y-207252000D01*
X56982000Y-207282000D01*
X57042000Y-207312000D01*
X57102000Y-207312000D01*
X57192000Y-207282000D01*
X57552000Y-206922000D01*
X57552000Y-207312000D01*
%TO.C,D74*%
X54052000Y-243752000D02*
X53422000Y-243752000D01*
X53422000Y-243902000D01*
X53452000Y-243992000D01*
X53512000Y-244052000D01*
X53572000Y-244082000D01*
X53692000Y-244112000D01*
X53782000Y-244112000D01*
X53902000Y-244082000D01*
X53962000Y-244052000D01*
X54022000Y-243992000D01*
X54052000Y-243902000D01*
X54052000Y-243752000D01*
X53422000Y-244322000D02*
X53422000Y-244742000D01*
X54052000Y-244472000D01*
X53632000Y-245252000D02*
X54052000Y-245252000D01*
X53392000Y-245102000D02*
X53842000Y-244952000D01*
X53842000Y-245342000D01*
%TO.C,D23*%
X114485000Y-129784000D02*
X113855000Y-129784000D01*
X113855000Y-129934000D01*
X113885000Y-130024000D01*
X113945000Y-130084000D01*
X114005000Y-130114000D01*
X114125000Y-130144000D01*
X114215000Y-130144000D01*
X114335000Y-130114000D01*
X114395000Y-130084000D01*
X114455000Y-130024000D01*
X114485000Y-129934000D01*
X114485000Y-129784000D01*
X113915000Y-130384000D02*
X113885000Y-130414000D01*
X113855000Y-130474000D01*
X113855000Y-130624000D01*
X113885000Y-130684000D01*
X113915000Y-130714000D01*
X113975000Y-130744000D01*
X114035000Y-130744000D01*
X114125000Y-130714000D01*
X114485000Y-130354000D01*
X114485000Y-130744000D01*
X113855000Y-130954000D02*
X113855000Y-131344000D01*
X114095000Y-131134000D01*
X114095000Y-131224000D01*
X114125000Y-131284000D01*
X114155000Y-131314000D01*
X114215000Y-131344000D01*
X114365000Y-131344000D01*
X114425000Y-131314000D01*
X114455000Y-131284000D01*
X114485000Y-131224000D01*
X114485000Y-131044000D01*
X114455000Y-130984000D01*
X114425000Y-130954000D01*
%TO.C,D56*%
X133552000Y-205752000D02*
X132922000Y-205752000D01*
X132922000Y-205902000D01*
X132952000Y-205992000D01*
X133012000Y-206052000D01*
X133072000Y-206082000D01*
X133192000Y-206112000D01*
X133282000Y-206112000D01*
X133402000Y-206082000D01*
X133462000Y-206052000D01*
X133522000Y-205992000D01*
X133552000Y-205902000D01*
X133552000Y-205752000D01*
X132922000Y-206682000D02*
X132922000Y-206382000D01*
X133222000Y-206352000D01*
X133192000Y-206382000D01*
X133162000Y-206442000D01*
X133162000Y-206592000D01*
X133192000Y-206652000D01*
X133222000Y-206682000D01*
X133282000Y-206712000D01*
X133432000Y-206712000D01*
X133492000Y-206682000D01*
X133522000Y-206652000D01*
X133552000Y-206592000D01*
X133552000Y-206442000D01*
X133522000Y-206382000D01*
X133492000Y-206352000D01*
X132922000Y-207252000D02*
X132922000Y-207132000D01*
X132952000Y-207072000D01*
X132982000Y-207042000D01*
X133072000Y-206982000D01*
X133192000Y-206952000D01*
X133432000Y-206952000D01*
X133492000Y-206982000D01*
X133522000Y-207012000D01*
X133552000Y-207072000D01*
X133552000Y-207192000D01*
X133522000Y-207252000D01*
X133492000Y-207282000D01*
X133432000Y-207312000D01*
X133282000Y-207312000D01*
X133222000Y-207282000D01*
X133192000Y-207252000D01*
X133162000Y-207192000D01*
X133162000Y-207072000D01*
X133192000Y-207012000D01*
X133222000Y-206982000D01*
X133282000Y-206952000D01*
%TO.C,D12*%
X174985000Y-153784000D02*
X174355000Y-153784000D01*
X174355000Y-153934000D01*
X174385000Y-154024000D01*
X174445000Y-154084000D01*
X174505000Y-154114000D01*
X174625000Y-154144000D01*
X174715000Y-154144000D01*
X174835000Y-154114000D01*
X174895000Y-154084000D01*
X174955000Y-154024000D01*
X174985000Y-153934000D01*
X174985000Y-153784000D01*
X174985000Y-154744000D02*
X174985000Y-154384000D01*
X174985000Y-154564000D02*
X174355000Y-154564000D01*
X174445000Y-154504000D01*
X174505000Y-154444000D01*
X174535000Y-154384000D01*
X174415000Y-154984000D02*
X174385000Y-155014000D01*
X174355000Y-155074000D01*
X174355000Y-155224000D01*
X174385000Y-155284000D01*
X174415000Y-155314000D01*
X174475000Y-155344000D01*
X174535000Y-155344000D01*
X174625000Y-155314000D01*
X174985000Y-154954000D01*
X174985000Y-155344000D01*
%TO.C,D26*%
X95485000Y-115784000D02*
X94855000Y-115784000D01*
X94855000Y-115934000D01*
X94885000Y-116024000D01*
X94945000Y-116084000D01*
X95005000Y-116114000D01*
X95125000Y-116144000D01*
X95215000Y-116144000D01*
X95335000Y-116114000D01*
X95395000Y-116084000D01*
X95455000Y-116024000D01*
X95485000Y-115934000D01*
X95485000Y-115784000D01*
X94915000Y-116384000D02*
X94885000Y-116414000D01*
X94855000Y-116474000D01*
X94855000Y-116624000D01*
X94885000Y-116684000D01*
X94915000Y-116714000D01*
X94975000Y-116744000D01*
X95035000Y-116744000D01*
X95125000Y-116714000D01*
X95485000Y-116354000D01*
X95485000Y-116744000D01*
X94855000Y-117284000D02*
X94855000Y-117164000D01*
X94885000Y-117104000D01*
X94915000Y-117074000D01*
X95005000Y-117014000D01*
X95125000Y-116984000D01*
X95365000Y-116984000D01*
X95425000Y-117014000D01*
X95455000Y-117044000D01*
X95485000Y-117104000D01*
X95485000Y-117224000D01*
X95455000Y-117284000D01*
X95425000Y-117314000D01*
X95365000Y-117344000D01*
X95215000Y-117344000D01*
X95155000Y-117314000D01*
X95125000Y-117284000D01*
X95095000Y-117224000D01*
X95095000Y-117104000D01*
X95125000Y-117044000D01*
X95155000Y-117014000D01*
X95215000Y-116984000D01*
%TO.C,D20*%
X133485000Y-145784000D02*
X132855000Y-145784000D01*
X132855000Y-145934000D01*
X132885000Y-146024000D01*
X132945000Y-146084000D01*
X133005000Y-146114000D01*
X133125000Y-146144000D01*
X133215000Y-146144000D01*
X133335000Y-146114000D01*
X133395000Y-146084000D01*
X133455000Y-146024000D01*
X133485000Y-145934000D01*
X133485000Y-145784000D01*
X132915000Y-146384000D02*
X132885000Y-146414000D01*
X132855000Y-146474000D01*
X132855000Y-146624000D01*
X132885000Y-146684000D01*
X132915000Y-146714000D01*
X132975000Y-146744000D01*
X133035000Y-146744000D01*
X133125000Y-146714000D01*
X133485000Y-146354000D01*
X133485000Y-146744000D01*
X132855000Y-147134000D02*
X132855000Y-147194000D01*
X132885000Y-147254000D01*
X132915000Y-147284000D01*
X132975000Y-147314000D01*
X133095000Y-147344000D01*
X133245000Y-147344000D01*
X133365000Y-147314000D01*
X133425000Y-147284000D01*
X133455000Y-147254000D01*
X133485000Y-147194000D01*
X133485000Y-147134000D01*
X133455000Y-147074000D01*
X133425000Y-147044000D01*
X133365000Y-147014000D01*
X133245000Y-146984000D01*
X133095000Y-146984000D01*
X132975000Y-147014000D01*
X132915000Y-147044000D01*
X132885000Y-147074000D01*
X132855000Y-147134000D01*
%TO.C,D62*%
X114552000Y-238752000D02*
X113922000Y-238752000D01*
X113922000Y-238902000D01*
X113952000Y-238992000D01*
X114012000Y-239052000D01*
X114072000Y-239082000D01*
X114192000Y-239112000D01*
X114282000Y-239112000D01*
X114402000Y-239082000D01*
X114462000Y-239052000D01*
X114522000Y-238992000D01*
X114552000Y-238902000D01*
X114552000Y-238752000D01*
X113922000Y-239652000D02*
X113922000Y-239532000D01*
X113952000Y-239472000D01*
X113982000Y-239442000D01*
X114072000Y-239382000D01*
X114192000Y-239352000D01*
X114432000Y-239352000D01*
X114492000Y-239382000D01*
X114522000Y-239412000D01*
X114552000Y-239472000D01*
X114552000Y-239592000D01*
X114522000Y-239652000D01*
X114492000Y-239682000D01*
X114432000Y-239712000D01*
X114282000Y-239712000D01*
X114222000Y-239682000D01*
X114192000Y-239652000D01*
X114162000Y-239592000D01*
X114162000Y-239472000D01*
X114192000Y-239412000D01*
X114222000Y-239382000D01*
X114282000Y-239352000D01*
X113982000Y-239952000D02*
X113952000Y-239982000D01*
X113922000Y-240042000D01*
X113922000Y-240192000D01*
X113952000Y-240252000D01*
X113982000Y-240282000D01*
X114042000Y-240312000D01*
X114102000Y-240312000D01*
X114192000Y-240282000D01*
X114552000Y-239922000D01*
X114552000Y-240312000D01*
%TO.C,D28*%
X95485000Y-153784000D02*
X94855000Y-153784000D01*
X94855000Y-153934000D01*
X94885000Y-154024000D01*
X94945000Y-154084000D01*
X95005000Y-154114000D01*
X95125000Y-154144000D01*
X95215000Y-154144000D01*
X95335000Y-154114000D01*
X95395000Y-154084000D01*
X95455000Y-154024000D01*
X95485000Y-153934000D01*
X95485000Y-153784000D01*
X94915000Y-154384000D02*
X94885000Y-154414000D01*
X94855000Y-154474000D01*
X94855000Y-154624000D01*
X94885000Y-154684000D01*
X94915000Y-154714000D01*
X94975000Y-154744000D01*
X95035000Y-154744000D01*
X95125000Y-154714000D01*
X95485000Y-154354000D01*
X95485000Y-154744000D01*
X95125000Y-155104000D02*
X95095000Y-155044000D01*
X95065000Y-155014000D01*
X95005000Y-154984000D01*
X94975000Y-154984000D01*
X94915000Y-155014000D01*
X94885000Y-155044000D01*
X94855000Y-155104000D01*
X94855000Y-155224000D01*
X94885000Y-155284000D01*
X94915000Y-155314000D01*
X94975000Y-155344000D01*
X95005000Y-155344000D01*
X95065000Y-155314000D01*
X95095000Y-155284000D01*
X95125000Y-155224000D01*
X95125000Y-155104000D01*
X95155000Y-155044000D01*
X95185000Y-155014000D01*
X95245000Y-154984000D01*
X95365000Y-154984000D01*
X95425000Y-155014000D01*
X95455000Y-155044000D01*
X95485000Y-155104000D01*
X95485000Y-155224000D01*
X95455000Y-155284000D01*
X95425000Y-155314000D01*
X95365000Y-155344000D01*
X95245000Y-155344000D01*
X95185000Y-155314000D01*
X95155000Y-155284000D01*
X95125000Y-155224000D01*
%TO.C,D33*%
X53985000Y-115784000D02*
X53355000Y-115784000D01*
X53355000Y-115934000D01*
X53385000Y-116024000D01*
X53445000Y-116084000D01*
X53505000Y-116114000D01*
X53625000Y-116144000D01*
X53715000Y-116144000D01*
X53835000Y-116114000D01*
X53895000Y-116084000D01*
X53955000Y-116024000D01*
X53985000Y-115934000D01*
X53985000Y-115784000D01*
X53355000Y-116354000D02*
X53355000Y-116744000D01*
X53595000Y-116534000D01*
X53595000Y-116624000D01*
X53625000Y-116684000D01*
X53655000Y-116714000D01*
X53715000Y-116744000D01*
X53865000Y-116744000D01*
X53925000Y-116714000D01*
X53955000Y-116684000D01*
X53985000Y-116624000D01*
X53985000Y-116444000D01*
X53955000Y-116384000D01*
X53925000Y-116354000D01*
X53355000Y-116954000D02*
X53355000Y-117344000D01*
X53595000Y-117134000D01*
X53595000Y-117224000D01*
X53625000Y-117284000D01*
X53655000Y-117314000D01*
X53715000Y-117344000D01*
X53865000Y-117344000D01*
X53925000Y-117314000D01*
X53955000Y-117284000D01*
X53985000Y-117224000D01*
X53985000Y-117044000D01*
X53955000Y-116984000D01*
X53925000Y-116954000D01*
%TO.C,D65*%
X95552000Y-216752000D02*
X94922000Y-216752000D01*
X94922000Y-216902000D01*
X94952000Y-216992000D01*
X95012000Y-217052000D01*
X95072000Y-217082000D01*
X95192000Y-217112000D01*
X95282000Y-217112000D01*
X95402000Y-217082000D01*
X95462000Y-217052000D01*
X95522000Y-216992000D01*
X95552000Y-216902000D01*
X95552000Y-216752000D01*
X94922000Y-217652000D02*
X94922000Y-217532000D01*
X94952000Y-217472000D01*
X94982000Y-217442000D01*
X95072000Y-217382000D01*
X95192000Y-217352000D01*
X95432000Y-217352000D01*
X95492000Y-217382000D01*
X95522000Y-217412000D01*
X95552000Y-217472000D01*
X95552000Y-217592000D01*
X95522000Y-217652000D01*
X95492000Y-217682000D01*
X95432000Y-217712000D01*
X95282000Y-217712000D01*
X95222000Y-217682000D01*
X95192000Y-217652000D01*
X95162000Y-217592000D01*
X95162000Y-217472000D01*
X95192000Y-217412000D01*
X95222000Y-217382000D01*
X95282000Y-217352000D01*
X94922000Y-218282000D02*
X94922000Y-217982000D01*
X95222000Y-217952000D01*
X95192000Y-217982000D01*
X95162000Y-218042000D01*
X95162000Y-218192000D01*
X95192000Y-218252000D01*
X95222000Y-218282000D01*
X95282000Y-218312000D01*
X95432000Y-218312000D01*
X95492000Y-218282000D01*
X95522000Y-218252000D01*
X95552000Y-218192000D01*
X95552000Y-218042000D01*
X95522000Y-217982000D01*
X95492000Y-217952000D01*
%TO.C,D57*%
X133552000Y-224752000D02*
X132922000Y-224752000D01*
X132922000Y-224902000D01*
X132952000Y-224992000D01*
X133012000Y-225052000D01*
X133072000Y-225082000D01*
X133192000Y-225112000D01*
X133282000Y-225112000D01*
X133402000Y-225082000D01*
X133462000Y-225052000D01*
X133522000Y-224992000D01*
X133552000Y-224902000D01*
X133552000Y-224752000D01*
X132922000Y-225682000D02*
X132922000Y-225382000D01*
X133222000Y-225352000D01*
X133192000Y-225382000D01*
X133162000Y-225442000D01*
X133162000Y-225592000D01*
X133192000Y-225652000D01*
X133222000Y-225682000D01*
X133282000Y-225712000D01*
X133432000Y-225712000D01*
X133492000Y-225682000D01*
X133522000Y-225652000D01*
X133552000Y-225592000D01*
X133552000Y-225442000D01*
X133522000Y-225382000D01*
X133492000Y-225352000D01*
X132922000Y-225922000D02*
X132922000Y-226342000D01*
X133552000Y-226072000D01*
%TO.C,D69*%
X76552000Y-222752000D02*
X75922000Y-222752000D01*
X75922000Y-222902000D01*
X75952000Y-222992000D01*
X76012000Y-223052000D01*
X76072000Y-223082000D01*
X76192000Y-223112000D01*
X76282000Y-223112000D01*
X76402000Y-223082000D01*
X76462000Y-223052000D01*
X76522000Y-222992000D01*
X76552000Y-222902000D01*
X76552000Y-222752000D01*
X75922000Y-223652000D02*
X75922000Y-223532000D01*
X75952000Y-223472000D01*
X75982000Y-223442000D01*
X76072000Y-223382000D01*
X76192000Y-223352000D01*
X76432000Y-223352000D01*
X76492000Y-223382000D01*
X76522000Y-223412000D01*
X76552000Y-223472000D01*
X76552000Y-223592000D01*
X76522000Y-223652000D01*
X76492000Y-223682000D01*
X76432000Y-223712000D01*
X76282000Y-223712000D01*
X76222000Y-223682000D01*
X76192000Y-223652000D01*
X76162000Y-223592000D01*
X76162000Y-223472000D01*
X76192000Y-223412000D01*
X76222000Y-223382000D01*
X76282000Y-223352000D01*
X76552000Y-224012000D02*
X76552000Y-224132000D01*
X76522000Y-224192000D01*
X76492000Y-224222000D01*
X76402000Y-224282000D01*
X76282000Y-224312000D01*
X76042000Y-224312000D01*
X75982000Y-224282000D01*
X75952000Y-224252000D01*
X75922000Y-224192000D01*
X75922000Y-224072000D01*
X75952000Y-224012000D01*
X75982000Y-223982000D01*
X76042000Y-223952000D01*
X76192000Y-223952000D01*
X76252000Y-223982000D01*
X76282000Y-224012000D01*
X76312000Y-224072000D01*
X76312000Y-224192000D01*
X76282000Y-224252000D01*
X76252000Y-224282000D01*
X76192000Y-224312000D01*
%TO.C,D10*%
X171485000Y-115784000D02*
X170855000Y-115784000D01*
X170855000Y-115934000D01*
X170885000Y-116024000D01*
X170945000Y-116084000D01*
X171005000Y-116114000D01*
X171125000Y-116144000D01*
X171215000Y-116144000D01*
X171335000Y-116114000D01*
X171395000Y-116084000D01*
X171455000Y-116024000D01*
X171485000Y-115934000D01*
X171485000Y-115784000D01*
X171485000Y-116744000D02*
X171485000Y-116384000D01*
X171485000Y-116564000D02*
X170855000Y-116564000D01*
X170945000Y-116504000D01*
X171005000Y-116444000D01*
X171035000Y-116384000D01*
X170855000Y-117134000D02*
X170855000Y-117194000D01*
X170885000Y-117254000D01*
X170915000Y-117284000D01*
X170975000Y-117314000D01*
X171095000Y-117344000D01*
X171245000Y-117344000D01*
X171365000Y-117314000D01*
X171425000Y-117284000D01*
X171455000Y-117254000D01*
X171485000Y-117194000D01*
X171485000Y-117134000D01*
X171455000Y-117074000D01*
X171425000Y-117044000D01*
X171365000Y-117014000D01*
X171245000Y-116984000D01*
X171095000Y-116984000D01*
X170975000Y-117014000D01*
X170915000Y-117044000D01*
X170885000Y-117074000D01*
X170855000Y-117134000D01*
%TO.C,D31*%
X72985000Y-134784000D02*
X72355000Y-134784000D01*
X72355000Y-134934000D01*
X72385000Y-135024000D01*
X72445000Y-135084000D01*
X72505000Y-135114000D01*
X72625000Y-135144000D01*
X72715000Y-135144000D01*
X72835000Y-135114000D01*
X72895000Y-135084000D01*
X72955000Y-135024000D01*
X72985000Y-134934000D01*
X72985000Y-134784000D01*
X72355000Y-135354000D02*
X72355000Y-135744000D01*
X72595000Y-135534000D01*
X72595000Y-135624000D01*
X72625000Y-135684000D01*
X72655000Y-135714000D01*
X72715000Y-135744000D01*
X72865000Y-135744000D01*
X72925000Y-135714000D01*
X72955000Y-135684000D01*
X72985000Y-135624000D01*
X72985000Y-135444000D01*
X72955000Y-135384000D01*
X72925000Y-135354000D01*
X72985000Y-136344000D02*
X72985000Y-135984000D01*
X72985000Y-136164000D02*
X72355000Y-136164000D01*
X72445000Y-136104000D01*
X72505000Y-136044000D01*
X72535000Y-135984000D01*
%TO.C,D21*%
X114485000Y-91735000D02*
X113855000Y-91735000D01*
X113855000Y-91885000D01*
X113885000Y-91975000D01*
X113945000Y-92035000D01*
X114005000Y-92065000D01*
X114125000Y-92095000D01*
X114215000Y-92095000D01*
X114335000Y-92065000D01*
X114395000Y-92035000D01*
X114455000Y-91975000D01*
X114485000Y-91885000D01*
X114485000Y-91735000D01*
X113915000Y-92335000D02*
X113885000Y-92365000D01*
X113855000Y-92425000D01*
X113855000Y-92575000D01*
X113885000Y-92635000D01*
X113915000Y-92665000D01*
X113975000Y-92695000D01*
X114035000Y-92695000D01*
X114125000Y-92665000D01*
X114485000Y-92305000D01*
X114485000Y-92695000D01*
X114485000Y-93295000D02*
X114485000Y-92935000D01*
X114485000Y-93115000D02*
X113855000Y-93115000D01*
X113945000Y-93055000D01*
X114005000Y-92995000D01*
X114035000Y-92935000D01*
%TO.C,D25*%
X95485000Y-96735000D02*
X94855000Y-96735000D01*
X94855000Y-96885000D01*
X94885000Y-96975000D01*
X94945000Y-97035000D01*
X95005000Y-97065000D01*
X95125000Y-97095000D01*
X95215000Y-97095000D01*
X95335000Y-97065000D01*
X95395000Y-97035000D01*
X95455000Y-96975000D01*
X95485000Y-96885000D01*
X95485000Y-96735000D01*
X94915000Y-97335000D02*
X94885000Y-97365000D01*
X94855000Y-97425000D01*
X94855000Y-97575000D01*
X94885000Y-97635000D01*
X94915000Y-97665000D01*
X94975000Y-97695000D01*
X95035000Y-97695000D01*
X95125000Y-97665000D01*
X95485000Y-97305000D01*
X95485000Y-97695000D01*
X94855000Y-98265000D02*
X94855000Y-97965000D01*
X95155000Y-97935000D01*
X95125000Y-97965000D01*
X95095000Y-98025000D01*
X95095000Y-98175000D01*
X95125000Y-98235000D01*
X95155000Y-98265000D01*
X95215000Y-98295000D01*
X95365000Y-98295000D01*
X95425000Y-98265000D01*
X95455000Y-98235000D01*
X95485000Y-98175000D01*
X95485000Y-98025000D01*
X95455000Y-97965000D01*
X95425000Y-97935000D01*
%TO.C,D70*%
X76552000Y-241752000D02*
X75922000Y-241752000D01*
X75922000Y-241902000D01*
X75952000Y-241992000D01*
X76012000Y-242052000D01*
X76072000Y-242082000D01*
X76192000Y-242112000D01*
X76282000Y-242112000D01*
X76402000Y-242082000D01*
X76462000Y-242052000D01*
X76522000Y-241992000D01*
X76552000Y-241902000D01*
X76552000Y-241752000D01*
X75922000Y-242322000D02*
X75922000Y-242742000D01*
X76552000Y-242472000D01*
X75922000Y-243102000D02*
X75922000Y-243162000D01*
X75952000Y-243222000D01*
X75982000Y-243252000D01*
X76042000Y-243282000D01*
X76162000Y-243312000D01*
X76312000Y-243312000D01*
X76432000Y-243282000D01*
X76492000Y-243252000D01*
X76522000Y-243222000D01*
X76552000Y-243162000D01*
X76552000Y-243102000D01*
X76522000Y-243042000D01*
X76492000Y-243012000D01*
X76432000Y-242982000D01*
X76312000Y-242952000D01*
X76162000Y-242952000D01*
X76042000Y-242982000D01*
X75982000Y-243012000D01*
X75952000Y-243042000D01*
X75922000Y-243102000D01*
%TO.C,D18*%
X133485000Y-107784000D02*
X132855000Y-107784000D01*
X132855000Y-107934000D01*
X132885000Y-108024000D01*
X132945000Y-108084000D01*
X133005000Y-108114000D01*
X133125000Y-108144000D01*
X133215000Y-108144000D01*
X133335000Y-108114000D01*
X133395000Y-108084000D01*
X133455000Y-108024000D01*
X133485000Y-107934000D01*
X133485000Y-107784000D01*
X133485000Y-108744000D02*
X133485000Y-108384000D01*
X133485000Y-108564000D02*
X132855000Y-108564000D01*
X132945000Y-108504000D01*
X133005000Y-108444000D01*
X133035000Y-108384000D01*
X133125000Y-109104000D02*
X133095000Y-109044000D01*
X133065000Y-109014000D01*
X133005000Y-108984000D01*
X132975000Y-108984000D01*
X132915000Y-109014000D01*
X132885000Y-109044000D01*
X132855000Y-109104000D01*
X132855000Y-109224000D01*
X132885000Y-109284000D01*
X132915000Y-109314000D01*
X132975000Y-109344000D01*
X133005000Y-109344000D01*
X133065000Y-109314000D01*
X133095000Y-109284000D01*
X133125000Y-109224000D01*
X133125000Y-109104000D01*
X133155000Y-109044000D01*
X133185000Y-109014000D01*
X133245000Y-108984000D01*
X133365000Y-108984000D01*
X133425000Y-109014000D01*
X133455000Y-109044000D01*
X133485000Y-109104000D01*
X133485000Y-109224000D01*
X133455000Y-109284000D01*
X133425000Y-109314000D01*
X133365000Y-109344000D01*
X133245000Y-109344000D01*
X133185000Y-109314000D01*
X133155000Y-109284000D01*
X133125000Y-109224000D01*
%TO.C,D17*%
X133485000Y-88735000D02*
X132855000Y-88735000D01*
X132855000Y-88885000D01*
X132885000Y-88975000D01*
X132945000Y-89035000D01*
X133005000Y-89065000D01*
X133125000Y-89095000D01*
X133215000Y-89095000D01*
X133335000Y-89065000D01*
X133395000Y-89035000D01*
X133455000Y-88975000D01*
X133485000Y-88885000D01*
X133485000Y-88735000D01*
X133485000Y-89695000D02*
X133485000Y-89335000D01*
X133485000Y-89515000D02*
X132855000Y-89515000D01*
X132945000Y-89455000D01*
X133005000Y-89395000D01*
X133035000Y-89335000D01*
X132855000Y-89905000D02*
X132855000Y-90325000D01*
X133485000Y-90055000D01*
%TO.C,D60*%
X114552000Y-200752000D02*
X113922000Y-200752000D01*
X113922000Y-200902000D01*
X113952000Y-200992000D01*
X114012000Y-201052000D01*
X114072000Y-201082000D01*
X114192000Y-201112000D01*
X114282000Y-201112000D01*
X114402000Y-201082000D01*
X114462000Y-201052000D01*
X114522000Y-200992000D01*
X114552000Y-200902000D01*
X114552000Y-200752000D01*
X113922000Y-201652000D02*
X113922000Y-201532000D01*
X113952000Y-201472000D01*
X113982000Y-201442000D01*
X114072000Y-201382000D01*
X114192000Y-201352000D01*
X114432000Y-201352000D01*
X114492000Y-201382000D01*
X114522000Y-201412000D01*
X114552000Y-201472000D01*
X114552000Y-201592000D01*
X114522000Y-201652000D01*
X114492000Y-201682000D01*
X114432000Y-201712000D01*
X114282000Y-201712000D01*
X114222000Y-201682000D01*
X114192000Y-201652000D01*
X114162000Y-201592000D01*
X114162000Y-201472000D01*
X114192000Y-201412000D01*
X114222000Y-201382000D01*
X114282000Y-201352000D01*
X113922000Y-202102000D02*
X113922000Y-202162000D01*
X113952000Y-202222000D01*
X113982000Y-202252000D01*
X114042000Y-202282000D01*
X114162000Y-202312000D01*
X114312000Y-202312000D01*
X114432000Y-202282000D01*
X114492000Y-202252000D01*
X114522000Y-202222000D01*
X114552000Y-202162000D01*
X114552000Y-202102000D01*
X114522000Y-202042000D01*
X114492000Y-202012000D01*
X114432000Y-201982000D01*
X114312000Y-201952000D01*
X114162000Y-201952000D01*
X114042000Y-201982000D01*
X113982000Y-202012000D01*
X113952000Y-202042000D01*
X113922000Y-202102000D01*
%TO.C,D63*%
X95552000Y-178752000D02*
X94922000Y-178752000D01*
X94922000Y-178902000D01*
X94952000Y-178992000D01*
X95012000Y-179052000D01*
X95072000Y-179082000D01*
X95192000Y-179112000D01*
X95282000Y-179112000D01*
X95402000Y-179082000D01*
X95462000Y-179052000D01*
X95522000Y-178992000D01*
X95552000Y-178902000D01*
X95552000Y-178752000D01*
X94922000Y-179652000D02*
X94922000Y-179532000D01*
X94952000Y-179472000D01*
X94982000Y-179442000D01*
X95072000Y-179382000D01*
X95192000Y-179352000D01*
X95432000Y-179352000D01*
X95492000Y-179382000D01*
X95522000Y-179412000D01*
X95552000Y-179472000D01*
X95552000Y-179592000D01*
X95522000Y-179652000D01*
X95492000Y-179682000D01*
X95432000Y-179712000D01*
X95282000Y-179712000D01*
X95222000Y-179682000D01*
X95192000Y-179652000D01*
X95162000Y-179592000D01*
X95162000Y-179472000D01*
X95192000Y-179412000D01*
X95222000Y-179382000D01*
X95282000Y-179352000D01*
X94922000Y-179922000D02*
X94922000Y-180312000D01*
X95162000Y-180102000D01*
X95162000Y-180192000D01*
X95192000Y-180252000D01*
X95222000Y-180282000D01*
X95282000Y-180312000D01*
X95432000Y-180312000D01*
X95492000Y-180282000D01*
X95522000Y-180252000D01*
X95552000Y-180192000D01*
X95552000Y-180012000D01*
X95522000Y-179952000D01*
X95492000Y-179922000D01*
%TO.C,D13*%
X152485000Y-94735000D02*
X151855000Y-94735000D01*
X151855000Y-94885000D01*
X151885000Y-94975000D01*
X151945000Y-95035000D01*
X152005000Y-95065000D01*
X152125000Y-95095000D01*
X152215000Y-95095000D01*
X152335000Y-95065000D01*
X152395000Y-95035000D01*
X152455000Y-94975000D01*
X152485000Y-94885000D01*
X152485000Y-94735000D01*
X152485000Y-95695000D02*
X152485000Y-95335000D01*
X152485000Y-95515000D02*
X151855000Y-95515000D01*
X151945000Y-95455000D01*
X152005000Y-95395000D01*
X152035000Y-95335000D01*
X151855000Y-95905000D02*
X151855000Y-96295000D01*
X152095000Y-96085000D01*
X152095000Y-96175000D01*
X152125000Y-96235000D01*
X152155000Y-96265000D01*
X152215000Y-96295000D01*
X152365000Y-96295000D01*
X152425000Y-96265000D01*
X152455000Y-96235000D01*
X152485000Y-96175000D01*
X152485000Y-95995000D01*
X152455000Y-95935000D01*
X152425000Y-95905000D01*
%TO.C,D51*%
X175052000Y-205752000D02*
X174422000Y-205752000D01*
X174422000Y-205902000D01*
X174452000Y-205992000D01*
X174512000Y-206052000D01*
X174572000Y-206082000D01*
X174692000Y-206112000D01*
X174782000Y-206112000D01*
X174902000Y-206082000D01*
X174962000Y-206052000D01*
X175022000Y-205992000D01*
X175052000Y-205902000D01*
X175052000Y-205752000D01*
X174422000Y-206682000D02*
X174422000Y-206382000D01*
X174722000Y-206352000D01*
X174692000Y-206382000D01*
X174662000Y-206442000D01*
X174662000Y-206592000D01*
X174692000Y-206652000D01*
X174722000Y-206682000D01*
X174782000Y-206712000D01*
X174932000Y-206712000D01*
X174992000Y-206682000D01*
X175022000Y-206652000D01*
X175052000Y-206592000D01*
X175052000Y-206442000D01*
X175022000Y-206382000D01*
X174992000Y-206352000D01*
X175052000Y-207312000D02*
X175052000Y-206952000D01*
X175052000Y-207132000D02*
X174422000Y-207132000D01*
X174512000Y-207072000D01*
X174572000Y-207012000D01*
X174602000Y-206952000D01*
%TO.C,D22*%
X114485000Y-110784000D02*
X113855000Y-110784000D01*
X113855000Y-110934000D01*
X113885000Y-111024000D01*
X113945000Y-111084000D01*
X114005000Y-111114000D01*
X114125000Y-111144000D01*
X114215000Y-111144000D01*
X114335000Y-111114000D01*
X114395000Y-111084000D01*
X114455000Y-111024000D01*
X114485000Y-110934000D01*
X114485000Y-110784000D01*
X113915000Y-111384000D02*
X113885000Y-111414000D01*
X113855000Y-111474000D01*
X113855000Y-111624000D01*
X113885000Y-111684000D01*
X113915000Y-111714000D01*
X113975000Y-111744000D01*
X114035000Y-111744000D01*
X114125000Y-111714000D01*
X114485000Y-111354000D01*
X114485000Y-111744000D01*
X113915000Y-111984000D02*
X113885000Y-112014000D01*
X113855000Y-112074000D01*
X113855000Y-112224000D01*
X113885000Y-112284000D01*
X113915000Y-112314000D01*
X113975000Y-112344000D01*
X114035000Y-112344000D01*
X114125000Y-112314000D01*
X114485000Y-111954000D01*
X114485000Y-112344000D01*
%TO.C,D52*%
X152552000Y-186752000D02*
X151922000Y-186752000D01*
X151922000Y-186902000D01*
X151952000Y-186992000D01*
X152012000Y-187052000D01*
X152072000Y-187082000D01*
X152192000Y-187112000D01*
X152282000Y-187112000D01*
X152402000Y-187082000D01*
X152462000Y-187052000D01*
X152522000Y-186992000D01*
X152552000Y-186902000D01*
X152552000Y-186752000D01*
X151922000Y-187682000D02*
X151922000Y-187382000D01*
X152222000Y-187352000D01*
X152192000Y-187382000D01*
X152162000Y-187442000D01*
X152162000Y-187592000D01*
X152192000Y-187652000D01*
X152222000Y-187682000D01*
X152282000Y-187712000D01*
X152432000Y-187712000D01*
X152492000Y-187682000D01*
X152522000Y-187652000D01*
X152552000Y-187592000D01*
X152552000Y-187442000D01*
X152522000Y-187382000D01*
X152492000Y-187352000D01*
X151982000Y-187952000D02*
X151952000Y-187982000D01*
X151922000Y-188042000D01*
X151922000Y-188192000D01*
X151952000Y-188252000D01*
X151982000Y-188282000D01*
X152042000Y-188312000D01*
X152102000Y-188312000D01*
X152192000Y-188282000D01*
X152552000Y-187922000D01*
X152552000Y-188312000D01*
%TO.C,D32*%
X57485000Y-96735000D02*
X56855000Y-96735000D01*
X56855000Y-96885000D01*
X56885000Y-96975000D01*
X56945000Y-97035000D01*
X57005000Y-97065000D01*
X57125000Y-97095000D01*
X57215000Y-97095000D01*
X57335000Y-97065000D01*
X57395000Y-97035000D01*
X57455000Y-96975000D01*
X57485000Y-96885000D01*
X57485000Y-96735000D01*
X56855000Y-97305000D02*
X56855000Y-97695000D01*
X57095000Y-97485000D01*
X57095000Y-97575000D01*
X57125000Y-97635000D01*
X57155000Y-97665000D01*
X57215000Y-97695000D01*
X57365000Y-97695000D01*
X57425000Y-97665000D01*
X57455000Y-97635000D01*
X57485000Y-97575000D01*
X57485000Y-97395000D01*
X57455000Y-97335000D01*
X57425000Y-97305000D01*
X56915000Y-97935000D02*
X56885000Y-97965000D01*
X56855000Y-98025000D01*
X56855000Y-98175000D01*
X56885000Y-98235000D01*
X56915000Y-98265000D01*
X56975000Y-98295000D01*
X57035000Y-98295000D01*
X57125000Y-98265000D01*
X57485000Y-97905000D01*
X57485000Y-98295000D01*
%TO.C,D58*%
X133552000Y-243752000D02*
X132922000Y-243752000D01*
X132922000Y-243902000D01*
X132952000Y-243992000D01*
X133012000Y-244052000D01*
X133072000Y-244082000D01*
X133192000Y-244112000D01*
X133282000Y-244112000D01*
X133402000Y-244082000D01*
X133462000Y-244052000D01*
X133522000Y-243992000D01*
X133552000Y-243902000D01*
X133552000Y-243752000D01*
X132922000Y-244682000D02*
X132922000Y-244382000D01*
X133222000Y-244352000D01*
X133192000Y-244382000D01*
X133162000Y-244442000D01*
X133162000Y-244592000D01*
X133192000Y-244652000D01*
X133222000Y-244682000D01*
X133282000Y-244712000D01*
X133432000Y-244712000D01*
X133492000Y-244682000D01*
X133522000Y-244652000D01*
X133552000Y-244592000D01*
X133552000Y-244442000D01*
X133522000Y-244382000D01*
X133492000Y-244352000D01*
X133192000Y-245072000D02*
X133162000Y-245012000D01*
X133132000Y-244982000D01*
X133072000Y-244952000D01*
X133042000Y-244952000D01*
X132982000Y-244982000D01*
X132952000Y-245012000D01*
X132922000Y-245072000D01*
X132922000Y-245192000D01*
X132952000Y-245252000D01*
X132982000Y-245282000D01*
X133042000Y-245312000D01*
X133072000Y-245312000D01*
X133132000Y-245282000D01*
X133162000Y-245252000D01*
X133192000Y-245192000D01*
X133192000Y-245072000D01*
X133222000Y-245012000D01*
X133252000Y-244982000D01*
X133312000Y-244952000D01*
X133432000Y-244952000D01*
X133492000Y-244982000D01*
X133522000Y-245012000D01*
X133552000Y-245072000D01*
X133552000Y-245192000D01*
X133522000Y-245252000D01*
X133492000Y-245282000D01*
X133432000Y-245312000D01*
X133312000Y-245312000D01*
X133252000Y-245282000D01*
X133222000Y-245252000D01*
X133192000Y-245192000D01*
%TO.C,D24*%
X114485000Y-148784000D02*
X113855000Y-148784000D01*
X113855000Y-148934000D01*
X113885000Y-149024000D01*
X113945000Y-149084000D01*
X114005000Y-149114000D01*
X114125000Y-149144000D01*
X114215000Y-149144000D01*
X114335000Y-149114000D01*
X114395000Y-149084000D01*
X114455000Y-149024000D01*
X114485000Y-148934000D01*
X114485000Y-148784000D01*
X113915000Y-149384000D02*
X113885000Y-149414000D01*
X113855000Y-149474000D01*
X113855000Y-149624000D01*
X113885000Y-149684000D01*
X113915000Y-149714000D01*
X113975000Y-149744000D01*
X114035000Y-149744000D01*
X114125000Y-149714000D01*
X114485000Y-149354000D01*
X114485000Y-149744000D01*
X114065000Y-150284000D02*
X114485000Y-150284000D01*
X113825000Y-150134000D02*
X114275000Y-149984000D01*
X114275000Y-150374000D01*
%TO.C,D15*%
X152485000Y-132784000D02*
X151855000Y-132784000D01*
X151855000Y-132934000D01*
X151885000Y-133024000D01*
X151945000Y-133084000D01*
X152005000Y-133114000D01*
X152125000Y-133144000D01*
X152215000Y-133144000D01*
X152335000Y-133114000D01*
X152395000Y-133084000D01*
X152455000Y-133024000D01*
X152485000Y-132934000D01*
X152485000Y-132784000D01*
X152485000Y-133744000D02*
X152485000Y-133384000D01*
X152485000Y-133564000D02*
X151855000Y-133564000D01*
X151945000Y-133504000D01*
X152005000Y-133444000D01*
X152035000Y-133384000D01*
X151855000Y-134314000D02*
X151855000Y-134014000D01*
X152155000Y-133984000D01*
X152125000Y-134014000D01*
X152095000Y-134074000D01*
X152095000Y-134224000D01*
X152125000Y-134284000D01*
X152155000Y-134314000D01*
X152215000Y-134344000D01*
X152365000Y-134344000D01*
X152425000Y-134314000D01*
X152455000Y-134284000D01*
X152485000Y-134224000D01*
X152485000Y-134074000D01*
X152455000Y-134014000D01*
X152425000Y-133984000D01*
%TO.C,D67*%
X76552000Y-184752000D02*
X75922000Y-184752000D01*
X75922000Y-184902000D01*
X75952000Y-184992000D01*
X76012000Y-185052000D01*
X76072000Y-185082000D01*
X76192000Y-185112000D01*
X76282000Y-185112000D01*
X76402000Y-185082000D01*
X76462000Y-185052000D01*
X76522000Y-184992000D01*
X76552000Y-184902000D01*
X76552000Y-184752000D01*
X75922000Y-185652000D02*
X75922000Y-185532000D01*
X75952000Y-185472000D01*
X75982000Y-185442000D01*
X76072000Y-185382000D01*
X76192000Y-185352000D01*
X76432000Y-185352000D01*
X76492000Y-185382000D01*
X76522000Y-185412000D01*
X76552000Y-185472000D01*
X76552000Y-185592000D01*
X76522000Y-185652000D01*
X76492000Y-185682000D01*
X76432000Y-185712000D01*
X76282000Y-185712000D01*
X76222000Y-185682000D01*
X76192000Y-185652000D01*
X76162000Y-185592000D01*
X76162000Y-185472000D01*
X76192000Y-185412000D01*
X76222000Y-185382000D01*
X76282000Y-185352000D01*
X75922000Y-185922000D02*
X75922000Y-186342000D01*
X76552000Y-186072000D01*
%TO.C,D29*%
X76485000Y-96735000D02*
X75855000Y-96735000D01*
X75855000Y-96885000D01*
X75885000Y-96975000D01*
X75945000Y-97035000D01*
X76005000Y-97065000D01*
X76125000Y-97095000D01*
X76215000Y-97095000D01*
X76335000Y-97065000D01*
X76395000Y-97035000D01*
X76455000Y-96975000D01*
X76485000Y-96885000D01*
X76485000Y-96735000D01*
X75915000Y-97335000D02*
X75885000Y-97365000D01*
X75855000Y-97425000D01*
X75855000Y-97575000D01*
X75885000Y-97635000D01*
X75915000Y-97665000D01*
X75975000Y-97695000D01*
X76035000Y-97695000D01*
X76125000Y-97665000D01*
X76485000Y-97305000D01*
X76485000Y-97695000D01*
X76485000Y-97995000D02*
X76485000Y-98115000D01*
X76455000Y-98175000D01*
X76425000Y-98205000D01*
X76335000Y-98265000D01*
X76215000Y-98295000D01*
X75975000Y-98295000D01*
X75915000Y-98265000D01*
X75885000Y-98235000D01*
X75855000Y-98175000D01*
X75855000Y-98055000D01*
X75885000Y-97995000D01*
X75915000Y-97965000D01*
X75975000Y-97935000D01*
X76125000Y-97935000D01*
X76185000Y-97965000D01*
X76215000Y-97995000D01*
X76245000Y-98055000D01*
X76245000Y-98175000D01*
X76215000Y-98235000D01*
X76185000Y-98265000D01*
X76125000Y-98295000D01*
%TO.C,D16*%
X152485000Y-151784000D02*
X151855000Y-151784000D01*
X151855000Y-151934000D01*
X151885000Y-152024000D01*
X151945000Y-152084000D01*
X152005000Y-152114000D01*
X152125000Y-152144000D01*
X152215000Y-152144000D01*
X152335000Y-152114000D01*
X152395000Y-152084000D01*
X152455000Y-152024000D01*
X152485000Y-151934000D01*
X152485000Y-151784000D01*
X152485000Y-152744000D02*
X152485000Y-152384000D01*
X152485000Y-152564000D02*
X151855000Y-152564000D01*
X151945000Y-152504000D01*
X152005000Y-152444000D01*
X152035000Y-152384000D01*
X151855000Y-153284000D02*
X151855000Y-153164000D01*
X151885000Y-153104000D01*
X151915000Y-153074000D01*
X152005000Y-153014000D01*
X152125000Y-152984000D01*
X152365000Y-152984000D01*
X152425000Y-153014000D01*
X152455000Y-153044000D01*
X152485000Y-153104000D01*
X152485000Y-153224000D01*
X152455000Y-153284000D01*
X152425000Y-153314000D01*
X152365000Y-153344000D01*
X152215000Y-153344000D01*
X152155000Y-153314000D01*
X152125000Y-153284000D01*
X152095000Y-153224000D01*
X152095000Y-153104000D01*
X152125000Y-153044000D01*
X152155000Y-153014000D01*
X152215000Y-152984000D01*
%TO.C,D66*%
X95552000Y-235752000D02*
X94922000Y-235752000D01*
X94922000Y-235902000D01*
X94952000Y-235992000D01*
X95012000Y-236052000D01*
X95072000Y-236082000D01*
X95192000Y-236112000D01*
X95282000Y-236112000D01*
X95402000Y-236082000D01*
X95462000Y-236052000D01*
X95522000Y-235992000D01*
X95552000Y-235902000D01*
X95552000Y-235752000D01*
X94922000Y-236652000D02*
X94922000Y-236532000D01*
X94952000Y-236472000D01*
X94982000Y-236442000D01*
X95072000Y-236382000D01*
X95192000Y-236352000D01*
X95432000Y-236352000D01*
X95492000Y-236382000D01*
X95522000Y-236412000D01*
X95552000Y-236472000D01*
X95552000Y-236592000D01*
X95522000Y-236652000D01*
X95492000Y-236682000D01*
X95432000Y-236712000D01*
X95282000Y-236712000D01*
X95222000Y-236682000D01*
X95192000Y-236652000D01*
X95162000Y-236592000D01*
X95162000Y-236472000D01*
X95192000Y-236412000D01*
X95222000Y-236382000D01*
X95282000Y-236352000D01*
X94922000Y-237252000D02*
X94922000Y-237132000D01*
X94952000Y-237072000D01*
X94982000Y-237042000D01*
X95072000Y-236982000D01*
X95192000Y-236952000D01*
X95432000Y-236952000D01*
X95492000Y-236982000D01*
X95522000Y-237012000D01*
X95552000Y-237072000D01*
X95552000Y-237192000D01*
X95522000Y-237252000D01*
X95492000Y-237282000D01*
X95432000Y-237312000D01*
X95282000Y-237312000D01*
X95222000Y-237282000D01*
X95192000Y-237252000D01*
X95162000Y-237192000D01*
X95162000Y-237072000D01*
X95192000Y-237012000D01*
X95222000Y-236982000D01*
X95282000Y-236952000D01*
%TO.C,D11*%
X171485000Y-134784000D02*
X170855000Y-134784000D01*
X170855000Y-134934000D01*
X170885000Y-135024000D01*
X170945000Y-135084000D01*
X171005000Y-135114000D01*
X171125000Y-135144000D01*
X171215000Y-135144000D01*
X171335000Y-135114000D01*
X171395000Y-135084000D01*
X171455000Y-135024000D01*
X171485000Y-134934000D01*
X171485000Y-134784000D01*
X171485000Y-135744000D02*
X171485000Y-135384000D01*
X171485000Y-135564000D02*
X170855000Y-135564000D01*
X170945000Y-135504000D01*
X171005000Y-135444000D01*
X171035000Y-135384000D01*
X171485000Y-136344000D02*
X171485000Y-135984000D01*
X171485000Y-136164000D02*
X170855000Y-136164000D01*
X170945000Y-136104000D01*
X171005000Y-136044000D01*
X171035000Y-135984000D01*
%TO.C,D19*%
X133485000Y-126784000D02*
X132855000Y-126784000D01*
X132855000Y-126934000D01*
X132885000Y-127024000D01*
X132945000Y-127084000D01*
X133005000Y-127114000D01*
X133125000Y-127144000D01*
X133215000Y-127144000D01*
X133335000Y-127114000D01*
X133395000Y-127084000D01*
X133455000Y-127024000D01*
X133485000Y-126934000D01*
X133485000Y-126784000D01*
X133485000Y-127744000D02*
X133485000Y-127384000D01*
X133485000Y-127564000D02*
X132855000Y-127564000D01*
X132945000Y-127504000D01*
X133005000Y-127444000D01*
X133035000Y-127384000D01*
X133485000Y-128044000D02*
X133485000Y-128164000D01*
X133455000Y-128224000D01*
X133425000Y-128254000D01*
X133335000Y-128314000D01*
X133215000Y-128344000D01*
X132975000Y-128344000D01*
X132915000Y-128314000D01*
X132885000Y-128284000D01*
X132855000Y-128224000D01*
X132855000Y-128104000D01*
X132885000Y-128044000D01*
X132915000Y-128014000D01*
X132975000Y-127984000D01*
X133125000Y-127984000D01*
X133185000Y-128014000D01*
X133215000Y-128044000D01*
X133245000Y-128104000D01*
X133245000Y-128224000D01*
X133215000Y-128284000D01*
X133185000Y-128314000D01*
X133125000Y-128344000D01*
%TO.C,D14*%
X152485000Y-113784000D02*
X151855000Y-113784000D01*
X151855000Y-113934000D01*
X151885000Y-114024000D01*
X151945000Y-114084000D01*
X152005000Y-114114000D01*
X152125000Y-114144000D01*
X152215000Y-114144000D01*
X152335000Y-114114000D01*
X152395000Y-114084000D01*
X152455000Y-114024000D01*
X152485000Y-113934000D01*
X152485000Y-113784000D01*
X152485000Y-114744000D02*
X152485000Y-114384000D01*
X152485000Y-114564000D02*
X151855000Y-114564000D01*
X151945000Y-114504000D01*
X152005000Y-114444000D01*
X152035000Y-114384000D01*
X152065000Y-115284000D02*
X152485000Y-115284000D01*
X151825000Y-115134000D02*
X152275000Y-114984000D01*
X152275000Y-115374000D01*
%TO.C,D50*%
X171552000Y-186752000D02*
X170922000Y-186752000D01*
X170922000Y-186902000D01*
X170952000Y-186992000D01*
X171012000Y-187052000D01*
X171072000Y-187082000D01*
X171192000Y-187112000D01*
X171282000Y-187112000D01*
X171402000Y-187082000D01*
X171462000Y-187052000D01*
X171522000Y-186992000D01*
X171552000Y-186902000D01*
X171552000Y-186752000D01*
X170922000Y-187682000D02*
X170922000Y-187382000D01*
X171222000Y-187352000D01*
X171192000Y-187382000D01*
X171162000Y-187442000D01*
X171162000Y-187592000D01*
X171192000Y-187652000D01*
X171222000Y-187682000D01*
X171282000Y-187712000D01*
X171432000Y-187712000D01*
X171492000Y-187682000D01*
X171522000Y-187652000D01*
X171552000Y-187592000D01*
X171552000Y-187442000D01*
X171522000Y-187382000D01*
X171492000Y-187352000D01*
X170922000Y-188102000D02*
X170922000Y-188162000D01*
X170952000Y-188222000D01*
X170982000Y-188252000D01*
X171042000Y-188282000D01*
X171162000Y-188312000D01*
X171312000Y-188312000D01*
X171432000Y-188282000D01*
X171492000Y-188252000D01*
X171522000Y-188222000D01*
X171552000Y-188162000D01*
X171552000Y-188102000D01*
X171522000Y-188042000D01*
X171492000Y-188012000D01*
X171432000Y-187982000D01*
X171312000Y-187952000D01*
X171162000Y-187952000D01*
X171042000Y-187982000D01*
X170982000Y-188012000D01*
X170952000Y-188042000D01*
X170922000Y-188102000D01*
%TO.C,D54*%
X156052000Y-224752000D02*
X155422000Y-224752000D01*
X155422000Y-224902000D01*
X155452000Y-224992000D01*
X155512000Y-225052000D01*
X155572000Y-225082000D01*
X155692000Y-225112000D01*
X155782000Y-225112000D01*
X155902000Y-225082000D01*
X155962000Y-225052000D01*
X156022000Y-224992000D01*
X156052000Y-224902000D01*
X156052000Y-224752000D01*
X155422000Y-225682000D02*
X155422000Y-225382000D01*
X155722000Y-225352000D01*
X155692000Y-225382000D01*
X155662000Y-225442000D01*
X155662000Y-225592000D01*
X155692000Y-225652000D01*
X155722000Y-225682000D01*
X155782000Y-225712000D01*
X155932000Y-225712000D01*
X155992000Y-225682000D01*
X156022000Y-225652000D01*
X156052000Y-225592000D01*
X156052000Y-225442000D01*
X156022000Y-225382000D01*
X155992000Y-225352000D01*
X155632000Y-226252000D02*
X156052000Y-226252000D01*
X155392000Y-226102000D02*
X155842000Y-225952000D01*
X155842000Y-226342000D01*
%TO.C,D27*%
X95485000Y-134784000D02*
X94855000Y-134784000D01*
X94855000Y-134934000D01*
X94885000Y-135024000D01*
X94945000Y-135084000D01*
X95005000Y-135114000D01*
X95125000Y-135144000D01*
X95215000Y-135144000D01*
X95335000Y-135114000D01*
X95395000Y-135084000D01*
X95455000Y-135024000D01*
X95485000Y-134934000D01*
X95485000Y-134784000D01*
X94915000Y-135384000D02*
X94885000Y-135414000D01*
X94855000Y-135474000D01*
X94855000Y-135624000D01*
X94885000Y-135684000D01*
X94915000Y-135714000D01*
X94975000Y-135744000D01*
X95035000Y-135744000D01*
X95125000Y-135714000D01*
X95485000Y-135354000D01*
X95485000Y-135744000D01*
X94855000Y-135954000D02*
X94855000Y-136374000D01*
X95485000Y-136104000D01*
%TO.C,D30*%
X76485000Y-115784000D02*
X75855000Y-115784000D01*
X75855000Y-115934000D01*
X75885000Y-116024000D01*
X75945000Y-116084000D01*
X76005000Y-116114000D01*
X76125000Y-116144000D01*
X76215000Y-116144000D01*
X76335000Y-116114000D01*
X76395000Y-116084000D01*
X76455000Y-116024000D01*
X76485000Y-115934000D01*
X76485000Y-115784000D01*
X75855000Y-116354000D02*
X75855000Y-116744000D01*
X76095000Y-116534000D01*
X76095000Y-116624000D01*
X76125000Y-116684000D01*
X76155000Y-116714000D01*
X76215000Y-116744000D01*
X76365000Y-116744000D01*
X76425000Y-116714000D01*
X76455000Y-116684000D01*
X76485000Y-116624000D01*
X76485000Y-116444000D01*
X76455000Y-116384000D01*
X76425000Y-116354000D01*
X75855000Y-117134000D02*
X75855000Y-117194000D01*
X75885000Y-117254000D01*
X75915000Y-117284000D01*
X75975000Y-117314000D01*
X76095000Y-117344000D01*
X76245000Y-117344000D01*
X76365000Y-117314000D01*
X76425000Y-117284000D01*
X76455000Y-117254000D01*
X76485000Y-117194000D01*
X76485000Y-117134000D01*
X76455000Y-117074000D01*
X76425000Y-117044000D01*
X76365000Y-117014000D01*
X76245000Y-116984000D01*
X76095000Y-116984000D01*
X75975000Y-117014000D01*
X75915000Y-117044000D01*
X75885000Y-117074000D01*
X75855000Y-117134000D01*
%TO.C,D73*%
X57552000Y-224752000D02*
X56922000Y-224752000D01*
X56922000Y-224902000D01*
X56952000Y-224992000D01*
X57012000Y-225052000D01*
X57072000Y-225082000D01*
X57192000Y-225112000D01*
X57282000Y-225112000D01*
X57402000Y-225082000D01*
X57462000Y-225052000D01*
X57522000Y-224992000D01*
X57552000Y-224902000D01*
X57552000Y-224752000D01*
X56922000Y-225322000D02*
X56922000Y-225742000D01*
X57552000Y-225472000D01*
X56922000Y-225922000D02*
X56922000Y-226312000D01*
X57162000Y-226102000D01*
X57162000Y-226192000D01*
X57192000Y-226252000D01*
X57222000Y-226282000D01*
X57282000Y-226312000D01*
X57432000Y-226312000D01*
X57492000Y-226282000D01*
X57522000Y-226252000D01*
X57552000Y-226192000D01*
X57552000Y-226012000D01*
X57522000Y-225952000D01*
X57492000Y-225922000D01*
D12*
%TO.C,D53*%
X151067000Y-206517000D02*
X151067000Y-206517000D01*
X151067000Y-206417000D02*
X151067000Y-206417000D01*
X149867000Y-207017000D02*
X148267000Y-207017000D01*
X151067000Y-206517000D02*
G75*
G03*
X151067000Y-206417000I0J50000D01*
G01*
X151067000Y-206417000D02*
G75*
G03*
X151067000Y-206517000I0J-50000D01*
G01*
%TO.C,D61*%
X113067000Y-220517000D02*
X113067000Y-220517000D01*
X113067000Y-220417000D02*
X113067000Y-220417000D01*
X111867000Y-221017000D02*
X110267000Y-221017000D01*
X113067000Y-220417000D02*
G75*
G03*
X113067000Y-220517000I0J-50000D01*
G01*
X113067000Y-220517000D02*
G75*
G03*
X113067000Y-220417000I0J50000D01*
G01*
%TO.C,D71*%
X54867000Y-188017000D02*
X53267000Y-188017000D01*
X56067000Y-187417000D02*
X56067000Y-187417000D01*
X56067000Y-187517000D02*
X56067000Y-187517000D01*
X56067000Y-187517000D02*
G75*
G03*
X56067000Y-187417000I0J50000D01*
G01*
X56067000Y-187417000D02*
G75*
G03*
X56067000Y-187517000I0J-50000D01*
G01*
%TO.C,D64*%
X94067000Y-198417000D02*
X94067000Y-198417000D01*
X92867000Y-199017000D02*
X91267000Y-199017000D01*
X94067000Y-198517000D02*
X94067000Y-198517000D01*
X94067000Y-198417000D02*
G75*
G03*
X94067000Y-198517000I0J-50000D01*
G01*
X94067000Y-198517000D02*
G75*
G03*
X94067000Y-198417000I0J50000D01*
G01*
%TO.C,D55*%
X130867000Y-188017000D02*
X129267000Y-188017000D01*
X132067000Y-187517000D02*
X132067000Y-187517000D01*
X132067000Y-187417000D02*
X132067000Y-187417000D01*
X132067000Y-187517000D02*
G75*
G03*
X132067000Y-187417000I0J50000D01*
G01*
X132067000Y-187417000D02*
G75*
G03*
X132067000Y-187517000I0J-50000D01*
G01*
%TO.C,D9*%
X168800000Y-98000000D02*
X167200000Y-98000000D01*
X170000000Y-97500000D02*
X170000000Y-97500000D01*
X170000000Y-97400000D02*
X170000000Y-97400000D01*
X170000000Y-97400000D02*
G75*
G03*
X170000000Y-97500000I0J-50000D01*
G01*
X170000000Y-97500000D02*
G75*
G03*
X170000000Y-97400000I0J50000D01*
G01*
%TO.C,D59*%
X113067000Y-182517000D02*
X113067000Y-182517000D01*
X113067000Y-182417000D02*
X113067000Y-182417000D01*
X111867000Y-183017000D02*
X110267000Y-183017000D01*
X113067000Y-182417000D02*
G75*
G03*
X113067000Y-182517000I0J-50000D01*
G01*
X113067000Y-182517000D02*
G75*
G03*
X113067000Y-182417000I0J50000D01*
G01*
%TO.C,D68*%
X73867000Y-205017000D02*
X72267000Y-205017000D01*
X75067000Y-204417000D02*
X75067000Y-204417000D01*
X75067000Y-204517000D02*
X75067000Y-204517000D01*
X75067000Y-204517000D02*
G75*
G03*
X75067000Y-204417000I0J50000D01*
G01*
X75067000Y-204417000D02*
G75*
G03*
X75067000Y-204517000I0J-50000D01*
G01*
%TO.C,D72*%
X56067000Y-206417000D02*
X56067000Y-206417000D01*
X56067000Y-206517000D02*
X56067000Y-206517000D01*
X54867000Y-207017000D02*
X53267000Y-207017000D01*
X56067000Y-206417000D02*
G75*
G03*
X56067000Y-206517000I0J-50000D01*
G01*
X56067000Y-206517000D02*
G75*
G03*
X56067000Y-206417000I0J50000D01*
G01*
%TO.C,D74*%
X52567000Y-244517000D02*
X52567000Y-244517000D01*
X51367000Y-245017000D02*
X49767000Y-245017000D01*
X52567000Y-244417000D02*
X52567000Y-244417000D01*
X52567000Y-244417000D02*
G75*
G03*
X52567000Y-244517000I0J-50000D01*
G01*
X52567000Y-244517000D02*
G75*
G03*
X52567000Y-244417000I0J50000D01*
G01*
%TO.C,D23*%
X111800000Y-131049000D02*
X110200000Y-131049000D01*
X113000000Y-130549000D02*
X113000000Y-130549000D01*
X113000000Y-130449000D02*
X113000000Y-130449000D01*
X113000000Y-130449000D02*
G75*
G03*
X113000000Y-130549000I0J-50000D01*
G01*
X113000000Y-130549000D02*
G75*
G03*
X113000000Y-130449000I0J50000D01*
G01*
%TO.C,D56*%
X130867000Y-207017000D02*
X129267000Y-207017000D01*
X132067000Y-206417000D02*
X132067000Y-206417000D01*
X132067000Y-206517000D02*
X132067000Y-206517000D01*
X132067000Y-206517000D02*
G75*
G03*
X132067000Y-206417000I0J50000D01*
G01*
X132067000Y-206417000D02*
G75*
G03*
X132067000Y-206517000I0J-50000D01*
G01*
%TO.C,D12*%
X172300000Y-155049000D02*
X170700000Y-155049000D01*
X173500000Y-154549000D02*
X173500000Y-154549000D01*
X173500000Y-154449000D02*
X173500000Y-154449000D01*
X173500000Y-154449000D02*
G75*
G03*
X173500000Y-154549000I0J-50000D01*
G01*
X173500000Y-154549000D02*
G75*
G03*
X173500000Y-154449000I0J50000D01*
G01*
%TO.C,D26*%
X94000000Y-116449000D02*
X94000000Y-116449000D01*
X94000000Y-116549000D02*
X94000000Y-116549000D01*
X92800000Y-117049000D02*
X91200000Y-117049000D01*
X94000000Y-116449000D02*
G75*
G03*
X94000000Y-116549000I0J-50000D01*
G01*
X94000000Y-116549000D02*
G75*
G03*
X94000000Y-116449000I0J50000D01*
G01*
%TO.C,D20*%
X132000000Y-146549000D02*
X132000000Y-146549000D01*
X132000000Y-146449000D02*
X132000000Y-146449000D01*
X130800000Y-147049000D02*
X129200000Y-147049000D01*
X132000000Y-146449000D02*
G75*
G03*
X132000000Y-146549000I0J-50000D01*
G01*
X132000000Y-146549000D02*
G75*
G03*
X132000000Y-146449000I0J50000D01*
G01*
%TO.C,D62*%
X113067000Y-239517000D02*
X113067000Y-239517000D01*
X113067000Y-239417000D02*
X113067000Y-239417000D01*
X111867000Y-240017000D02*
X110267000Y-240017000D01*
X113067000Y-239417000D02*
G75*
G03*
X113067000Y-239517000I0J-50000D01*
G01*
X113067000Y-239517000D02*
G75*
G03*
X113067000Y-239417000I0J50000D01*
G01*
%TO.C,D28*%
X92800000Y-155049000D02*
X91200000Y-155049000D01*
X94000000Y-154549000D02*
X94000000Y-154549000D01*
X94000000Y-154449000D02*
X94000000Y-154449000D01*
X94000000Y-154449000D02*
G75*
G03*
X94000000Y-154549000I0J-50000D01*
G01*
X94000000Y-154549000D02*
G75*
G03*
X94000000Y-154449000I0J50000D01*
G01*
%TO.C,D33*%
X52500000Y-116449000D02*
X52500000Y-116449000D01*
X52500000Y-116549000D02*
X52500000Y-116549000D01*
X51300000Y-117049000D02*
X49700000Y-117049000D01*
X52500000Y-116449000D02*
G75*
G03*
X52500000Y-116549000I0J-50000D01*
G01*
X52500000Y-116549000D02*
G75*
G03*
X52500000Y-116449000I0J50000D01*
G01*
%TO.C,D65*%
X92867000Y-218017000D02*
X91267000Y-218017000D01*
X94067000Y-217517000D02*
X94067000Y-217517000D01*
X94067000Y-217417000D02*
X94067000Y-217417000D01*
X94067000Y-217517000D02*
G75*
G03*
X94067000Y-217417000I0J50000D01*
G01*
X94067000Y-217417000D02*
G75*
G03*
X94067000Y-217517000I0J-50000D01*
G01*
%TO.C,D57*%
X132067000Y-225417000D02*
X132067000Y-225417000D01*
X130867000Y-226017000D02*
X129267000Y-226017000D01*
X132067000Y-225517000D02*
X132067000Y-225517000D01*
X132067000Y-225417000D02*
G75*
G03*
X132067000Y-225517000I0J-50000D01*
G01*
X132067000Y-225517000D02*
G75*
G03*
X132067000Y-225417000I0J50000D01*
G01*
%TO.C,D69*%
X75067000Y-223417000D02*
X75067000Y-223417000D01*
X75067000Y-223517000D02*
X75067000Y-223517000D01*
X73867000Y-224017000D02*
X72267000Y-224017000D01*
X75067000Y-223417000D02*
G75*
G03*
X75067000Y-223517000I0J-50000D01*
G01*
X75067000Y-223517000D02*
G75*
G03*
X75067000Y-223417000I0J50000D01*
G01*
%TO.C,D10*%
X168800000Y-117049000D02*
X167200000Y-117049000D01*
X170000000Y-116449000D02*
X170000000Y-116449000D01*
X170000000Y-116549000D02*
X170000000Y-116549000D01*
X170000000Y-116449000D02*
G75*
G03*
X170000000Y-116549000I0J-50000D01*
G01*
X170000000Y-116549000D02*
G75*
G03*
X170000000Y-116449000I0J50000D01*
G01*
%TO.C,D31*%
X70300000Y-136049000D02*
X68700000Y-136049000D01*
X71500000Y-135549000D02*
X71500000Y-135549000D01*
X71500000Y-135449000D02*
X71500000Y-135449000D01*
X71500000Y-135549000D02*
G75*
G03*
X71500000Y-135449000I0J50000D01*
G01*
X71500000Y-135449000D02*
G75*
G03*
X71500000Y-135549000I0J-50000D01*
G01*
%TO.C,D21*%
X113000000Y-92500000D02*
X113000000Y-92500000D01*
X111800000Y-93000000D02*
X110200000Y-93000000D01*
X113000000Y-92400000D02*
X113000000Y-92400000D01*
X113000000Y-92400000D02*
G75*
G03*
X113000000Y-92500000I0J-50000D01*
G01*
X113000000Y-92500000D02*
G75*
G03*
X113000000Y-92400000I0J50000D01*
G01*
%TO.C,D25*%
X92800000Y-98000000D02*
X91200000Y-98000000D01*
X94000000Y-97400000D02*
X94000000Y-97400000D01*
X94000000Y-97500000D02*
X94000000Y-97500000D01*
X94000000Y-97500000D02*
G75*
G03*
X94000000Y-97400000I0J50000D01*
G01*
X94000000Y-97400000D02*
G75*
G03*
X94000000Y-97500000I0J-50000D01*
G01*
%TO.C,D70*%
X73867000Y-243017000D02*
X72267000Y-243017000D01*
X75067000Y-242417000D02*
X75067000Y-242417000D01*
X75067000Y-242517000D02*
X75067000Y-242517000D01*
X75067000Y-242417000D02*
G75*
G03*
X75067000Y-242517000I0J-50000D01*
G01*
X75067000Y-242517000D02*
G75*
G03*
X75067000Y-242417000I0J50000D01*
G01*
%TO.C,D18*%
X130800000Y-109049000D02*
X129200000Y-109049000D01*
X132000000Y-108449000D02*
X132000000Y-108449000D01*
X132000000Y-108549000D02*
X132000000Y-108549000D01*
X132000000Y-108449000D02*
G75*
G03*
X132000000Y-108549000I0J-50000D01*
G01*
X132000000Y-108549000D02*
G75*
G03*
X132000000Y-108449000I0J50000D01*
G01*
%TO.C,D17*%
X130800000Y-90000000D02*
X129200000Y-90000000D01*
X132000000Y-89400000D02*
X132000000Y-89400000D01*
X132000000Y-89500000D02*
X132000000Y-89500000D01*
X132000000Y-89400000D02*
G75*
G03*
X132000000Y-89500000I0J-50000D01*
G01*
X132000000Y-89500000D02*
G75*
G03*
X132000000Y-89400000I0J50000D01*
G01*
%TO.C,D60*%
X113067000Y-201517000D02*
X113067000Y-201517000D01*
X113067000Y-201417000D02*
X113067000Y-201417000D01*
X111867000Y-202017000D02*
X110267000Y-202017000D01*
X113067000Y-201417000D02*
G75*
G03*
X113067000Y-201517000I0J-50000D01*
G01*
X113067000Y-201517000D02*
G75*
G03*
X113067000Y-201417000I0J50000D01*
G01*
%TO.C,D63*%
X94067000Y-179517000D02*
X94067000Y-179517000D01*
X92867000Y-180017000D02*
X91267000Y-180017000D01*
X94067000Y-179417000D02*
X94067000Y-179417000D01*
X94067000Y-179517000D02*
G75*
G03*
X94067000Y-179417000I0J50000D01*
G01*
X94067000Y-179417000D02*
G75*
G03*
X94067000Y-179517000I0J-50000D01*
G01*
%TO.C,D13*%
X149800000Y-96000000D02*
X148200000Y-96000000D01*
X151000000Y-95400000D02*
X151000000Y-95400000D01*
X151000000Y-95500000D02*
X151000000Y-95500000D01*
X151000000Y-95400000D02*
G75*
G03*
X151000000Y-95500000I0J-50000D01*
G01*
X151000000Y-95500000D02*
G75*
G03*
X151000000Y-95400000I0J50000D01*
G01*
%TO.C,D51*%
X173567000Y-206417000D02*
X173567000Y-206417000D01*
X173567000Y-206517000D02*
X173567000Y-206517000D01*
X172367000Y-207017000D02*
X170767000Y-207017000D01*
X173567000Y-206517000D02*
G75*
G03*
X173567000Y-206417000I0J50000D01*
G01*
X173567000Y-206417000D02*
G75*
G03*
X173567000Y-206517000I0J-50000D01*
G01*
%TO.C,D22*%
X111800000Y-112049000D02*
X110200000Y-112049000D01*
X113000000Y-111449000D02*
X113000000Y-111449000D01*
X113000000Y-111549000D02*
X113000000Y-111549000D01*
X113000000Y-111449000D02*
G75*
G03*
X113000000Y-111549000I0J-50000D01*
G01*
X113000000Y-111549000D02*
G75*
G03*
X113000000Y-111449000I0J50000D01*
G01*
%TO.C,D52*%
X151067000Y-187417000D02*
X151067000Y-187417000D01*
X149867000Y-188017000D02*
X148267000Y-188017000D01*
X151067000Y-187517000D02*
X151067000Y-187517000D01*
X151067000Y-187417000D02*
G75*
G03*
X151067000Y-187517000I0J-50000D01*
G01*
X151067000Y-187517000D02*
G75*
G03*
X151067000Y-187417000I0J50000D01*
G01*
%TO.C,D32*%
X54800000Y-98000000D02*
X53200000Y-98000000D01*
X56000000Y-97500000D02*
X56000000Y-97500000D01*
X56000000Y-97400000D02*
X56000000Y-97400000D01*
X56000000Y-97400000D02*
G75*
G03*
X56000000Y-97500000I0J-50000D01*
G01*
X56000000Y-97500000D02*
G75*
G03*
X56000000Y-97400000I0J50000D01*
G01*
%TO.C,D58*%
X130867000Y-245017000D02*
X129267000Y-245017000D01*
X132067000Y-244417000D02*
X132067000Y-244417000D01*
X132067000Y-244517000D02*
X132067000Y-244517000D01*
X132067000Y-244517000D02*
G75*
G03*
X132067000Y-244417000I0J50000D01*
G01*
X132067000Y-244417000D02*
G75*
G03*
X132067000Y-244517000I0J-50000D01*
G01*
%TO.C,D24*%
X113000000Y-149449000D02*
X113000000Y-149449000D01*
X111800000Y-150049000D02*
X110200000Y-150049000D01*
X113000000Y-149549000D02*
X113000000Y-149549000D01*
X113000000Y-149449000D02*
G75*
G03*
X113000000Y-149549000I0J-50000D01*
G01*
X113000000Y-149549000D02*
G75*
G03*
X113000000Y-149449000I0J50000D01*
G01*
%TO.C,D15*%
X151000000Y-133449000D02*
X151000000Y-133449000D01*
X149800000Y-134049000D02*
X148200000Y-134049000D01*
X151000000Y-133549000D02*
X151000000Y-133549000D01*
X151000000Y-133549000D02*
G75*
G03*
X151000000Y-133449000I0J50000D01*
G01*
X151000000Y-133449000D02*
G75*
G03*
X151000000Y-133549000I0J-50000D01*
G01*
%TO.C,D67*%
X75067000Y-185417000D02*
X75067000Y-185417000D01*
X73867000Y-186017000D02*
X72267000Y-186017000D01*
X75067000Y-185517000D02*
X75067000Y-185517000D01*
X75067000Y-185517000D02*
G75*
G03*
X75067000Y-185417000I0J50000D01*
G01*
X75067000Y-185417000D02*
G75*
G03*
X75067000Y-185517000I0J-50000D01*
G01*
%TO.C,D29*%
X75000000Y-97400000D02*
X75000000Y-97400000D01*
X75000000Y-97500000D02*
X75000000Y-97500000D01*
X73800000Y-98000000D02*
X72200000Y-98000000D01*
X75000000Y-97500000D02*
G75*
G03*
X75000000Y-97400000I0J50000D01*
G01*
X75000000Y-97400000D02*
G75*
G03*
X75000000Y-97500000I0J-50000D01*
G01*
%TO.C,D16*%
X151000000Y-152549000D02*
X151000000Y-152549000D01*
X151000000Y-152449000D02*
X151000000Y-152449000D01*
X149800000Y-153049000D02*
X148200000Y-153049000D01*
X151000000Y-152549000D02*
G75*
G03*
X151000000Y-152449000I0J50000D01*
G01*
X151000000Y-152449000D02*
G75*
G03*
X151000000Y-152549000I0J-50000D01*
G01*
%TO.C,D66*%
X94067000Y-236417000D02*
X94067000Y-236417000D01*
X94067000Y-236517000D02*
X94067000Y-236517000D01*
X92867000Y-237017000D02*
X91267000Y-237017000D01*
X94067000Y-236517000D02*
G75*
G03*
X94067000Y-236417000I0J50000D01*
G01*
X94067000Y-236417000D02*
G75*
G03*
X94067000Y-236517000I0J-50000D01*
G01*
%TO.C,D11*%
X168800000Y-136049000D02*
X167200000Y-136049000D01*
X170000000Y-135449000D02*
X170000000Y-135449000D01*
X170000000Y-135549000D02*
X170000000Y-135549000D01*
X170000000Y-135449000D02*
G75*
G03*
X170000000Y-135549000I0J-50000D01*
G01*
X170000000Y-135549000D02*
G75*
G03*
X170000000Y-135449000I0J50000D01*
G01*
%TO.C,D19*%
X130800000Y-128049000D02*
X129200000Y-128049000D01*
X132000000Y-127549000D02*
X132000000Y-127549000D01*
X132000000Y-127449000D02*
X132000000Y-127449000D01*
X132000000Y-127449000D02*
G75*
G03*
X132000000Y-127549000I0J-50000D01*
G01*
X132000000Y-127549000D02*
G75*
G03*
X132000000Y-127449000I0J50000D01*
G01*
%TO.C,D14*%
X151000000Y-114549000D02*
X151000000Y-114549000D01*
X151000000Y-114449000D02*
X151000000Y-114449000D01*
X149800000Y-115049000D02*
X148200000Y-115049000D01*
X151000000Y-114449000D02*
G75*
G03*
X151000000Y-114549000I0J-50000D01*
G01*
X151000000Y-114549000D02*
G75*
G03*
X151000000Y-114449000I0J50000D01*
G01*
%TO.C,D50*%
X170067000Y-187517000D02*
X170067000Y-187517000D01*
X170067000Y-187417000D02*
X170067000Y-187417000D01*
X168867000Y-188017000D02*
X167267000Y-188017000D01*
X170067000Y-187517000D02*
G75*
G03*
X170067000Y-187417000I0J50000D01*
G01*
X170067000Y-187417000D02*
G75*
G03*
X170067000Y-187517000I0J-50000D01*
G01*
%TO.C,D54*%
X154567000Y-225517000D02*
X154567000Y-225517000D01*
X153367000Y-226017000D02*
X151767000Y-226017000D01*
X154567000Y-225417000D02*
X154567000Y-225417000D01*
X154567000Y-225517000D02*
G75*
G03*
X154567000Y-225417000I0J50000D01*
G01*
X154567000Y-225417000D02*
G75*
G03*
X154567000Y-225517000I0J-50000D01*
G01*
%TO.C,D27*%
X94000000Y-135549000D02*
X94000000Y-135549000D01*
X92800000Y-136049000D02*
X91200000Y-136049000D01*
X94000000Y-135449000D02*
X94000000Y-135449000D01*
X94000000Y-135549000D02*
G75*
G03*
X94000000Y-135449000I0J50000D01*
G01*
X94000000Y-135449000D02*
G75*
G03*
X94000000Y-135549000I0J-50000D01*
G01*
%TO.C,D30*%
X73800000Y-117049000D02*
X72200000Y-117049000D01*
X75000000Y-116449000D02*
X75000000Y-116449000D01*
X75000000Y-116549000D02*
X75000000Y-116549000D01*
X75000000Y-116549000D02*
G75*
G03*
X75000000Y-116449000I0J50000D01*
G01*
X75000000Y-116449000D02*
G75*
G03*
X75000000Y-116549000I0J-50000D01*
G01*
%TO.C,D73*%
X56067000Y-225517000D02*
X56067000Y-225517000D01*
X54867000Y-226017000D02*
X53267000Y-226017000D01*
X56067000Y-225417000D02*
X56067000Y-225417000D01*
X56067000Y-225517000D02*
G75*
G03*
X56067000Y-225417000I0J50000D01*
G01*
X56067000Y-225417000D02*
G75*
G03*
X56067000Y-225517000I0J-50000D01*
G01*
%TD*%
M02*
