%TF.GenerationSoftware,KiCad,Pcbnew,(6.0.6)*%
%TF.CreationDate,2022-09-05T11:06:27-07:00*%
%TF.ProjectId,Nour-Valkyrie,4e6f7572-2d56-4616-9c6b-797269652e6b,rev?*%
%TF.SameCoordinates,Original*%
%TF.FileFunction,Paste,Top*%
%TF.FilePolarity,Positive*%
%FSLAX46Y46*%
G04 Gerber Fmt 4.6, Leading zero omitted, Abs format (unit mm)*
G04 Created by KiCad (PCBNEW (6.0.6)) date 2022-09-05 11:06:27*
%MOMM*%
%LPD*%
G01*
G04 APERTURE LIST*
%ADD10C,0.010000*%
%ADD11R,0.400000X0.400000*%
G04 APERTURE END LIST*
%TO.C,D46*%
G36*
X82620000Y-173375000D02*
G01*
X82320000Y-173375000D01*
X82320000Y-173125000D01*
X82620000Y-173125000D01*
X82620000Y-173375000D01*
G37*
D10*
X82620000Y-173375000D02*
X82320000Y-173375000D01*
X82320000Y-173125000D01*
X82620000Y-173125000D01*
X82620000Y-173375000D01*
G36*
X83135000Y-172615000D02*
G01*
X82865000Y-172615000D01*
X82865000Y-172185000D01*
X83135000Y-172185000D01*
X83135000Y-172615000D01*
G37*
X83135000Y-172615000D02*
X82865000Y-172615000D01*
X82865000Y-172185000D01*
X83135000Y-172185000D01*
X83135000Y-172615000D01*
G36*
X82620000Y-172875000D02*
G01*
X82320000Y-172875000D01*
X82320000Y-172625000D01*
X82620000Y-172625000D01*
X82620000Y-172875000D01*
G37*
X82620000Y-172875000D02*
X82320000Y-172875000D01*
X82320000Y-172625000D01*
X82620000Y-172625000D01*
X82620000Y-172875000D01*
G36*
X83680000Y-172375000D02*
G01*
X83380000Y-172375000D01*
X83380000Y-172125000D01*
X83680000Y-172125000D01*
X83680000Y-172375000D01*
G37*
X83680000Y-172375000D02*
X83380000Y-172375000D01*
X83380000Y-172125000D01*
X83680000Y-172125000D01*
X83680000Y-172375000D01*
G36*
X83680000Y-172875000D02*
G01*
X83380000Y-172875000D01*
X83380000Y-172625000D01*
X83680000Y-172625000D01*
X83680000Y-172875000D01*
G37*
X83680000Y-172875000D02*
X83380000Y-172875000D01*
X83380000Y-172625000D01*
X83680000Y-172625000D01*
X83680000Y-172875000D01*
G36*
X83680000Y-173375000D02*
G01*
X83380000Y-173375000D01*
X83380000Y-173125000D01*
X83680000Y-173125000D01*
X83680000Y-173375000D01*
G37*
X83680000Y-173375000D02*
X83380000Y-173375000D01*
X83380000Y-173125000D01*
X83680000Y-173125000D01*
X83680000Y-173375000D01*
G36*
X83135000Y-173315000D02*
G01*
X82865000Y-173315000D01*
X82865000Y-172885000D01*
X83135000Y-172885000D01*
X83135000Y-173315000D01*
G37*
X83135000Y-173315000D02*
X82865000Y-173315000D01*
X82865000Y-172885000D01*
X83135000Y-172885000D01*
X83135000Y-173315000D01*
G36*
X82620000Y-172375000D02*
G01*
X82320000Y-172375000D01*
X82320000Y-172125000D01*
X82620000Y-172125000D01*
X82620000Y-172375000D01*
G37*
X82620000Y-172375000D02*
X82320000Y-172375000D01*
X82320000Y-172125000D01*
X82620000Y-172125000D01*
X82620000Y-172375000D01*
%TO.C,D49*%
G36*
X83135000Y-229615000D02*
G01*
X82865000Y-229615000D01*
X82865000Y-229185000D01*
X83135000Y-229185000D01*
X83135000Y-229615000D01*
G37*
X83135000Y-229615000D02*
X82865000Y-229615000D01*
X82865000Y-229185000D01*
X83135000Y-229185000D01*
X83135000Y-229615000D01*
G36*
X83680000Y-230375000D02*
G01*
X83380000Y-230375000D01*
X83380000Y-230125000D01*
X83680000Y-230125000D01*
X83680000Y-230375000D01*
G37*
X83680000Y-230375000D02*
X83380000Y-230375000D01*
X83380000Y-230125000D01*
X83680000Y-230125000D01*
X83680000Y-230375000D01*
G36*
X82620000Y-229875000D02*
G01*
X82320000Y-229875000D01*
X82320000Y-229625000D01*
X82620000Y-229625000D01*
X82620000Y-229875000D01*
G37*
X82620000Y-229875000D02*
X82320000Y-229875000D01*
X82320000Y-229625000D01*
X82620000Y-229625000D01*
X82620000Y-229875000D01*
G36*
X83680000Y-229375000D02*
G01*
X83380000Y-229375000D01*
X83380000Y-229125000D01*
X83680000Y-229125000D01*
X83680000Y-229375000D01*
G37*
X83680000Y-229375000D02*
X83380000Y-229375000D01*
X83380000Y-229125000D01*
X83680000Y-229125000D01*
X83680000Y-229375000D01*
G36*
X82620000Y-229375000D02*
G01*
X82320000Y-229375000D01*
X82320000Y-229125000D01*
X82620000Y-229125000D01*
X82620000Y-229375000D01*
G37*
X82620000Y-229375000D02*
X82320000Y-229375000D01*
X82320000Y-229125000D01*
X82620000Y-229125000D01*
X82620000Y-229375000D01*
G36*
X83680000Y-229875000D02*
G01*
X83380000Y-229875000D01*
X83380000Y-229625000D01*
X83680000Y-229625000D01*
X83680000Y-229875000D01*
G37*
X83680000Y-229875000D02*
X83380000Y-229875000D01*
X83380000Y-229625000D01*
X83680000Y-229625000D01*
X83680000Y-229875000D01*
G36*
X83135000Y-230315000D02*
G01*
X82865000Y-230315000D01*
X82865000Y-229885000D01*
X83135000Y-229885000D01*
X83135000Y-230315000D01*
G37*
X83135000Y-230315000D02*
X82865000Y-230315000D01*
X82865000Y-229885000D01*
X83135000Y-229885000D01*
X83135000Y-230315000D01*
G36*
X82620000Y-230375000D02*
G01*
X82320000Y-230375000D01*
X82320000Y-230125000D01*
X82620000Y-230125000D01*
X82620000Y-230375000D01*
G37*
X82620000Y-230375000D02*
X82320000Y-230375000D01*
X82320000Y-230125000D01*
X82620000Y-230125000D01*
X82620000Y-230375000D01*
%TO.C,D5*%
G36*
X81620000Y-90625000D02*
G01*
X81320000Y-90625000D01*
X81320000Y-90375000D01*
X81620000Y-90375000D01*
X81620000Y-90625000D01*
G37*
X81620000Y-90625000D02*
X81320000Y-90625000D01*
X81320000Y-90375000D01*
X81620000Y-90375000D01*
X81620000Y-90625000D01*
G36*
X82135000Y-89865000D02*
G01*
X81865000Y-89865000D01*
X81865000Y-89435000D01*
X82135000Y-89435000D01*
X82135000Y-89865000D01*
G37*
X82135000Y-89865000D02*
X81865000Y-89865000D01*
X81865000Y-89435000D01*
X82135000Y-89435000D01*
X82135000Y-89865000D01*
G36*
X82135000Y-90565000D02*
G01*
X81865000Y-90565000D01*
X81865000Y-90135000D01*
X82135000Y-90135000D01*
X82135000Y-90565000D01*
G37*
X82135000Y-90565000D02*
X81865000Y-90565000D01*
X81865000Y-90135000D01*
X82135000Y-90135000D01*
X82135000Y-90565000D01*
G36*
X81620000Y-89625000D02*
G01*
X81320000Y-89625000D01*
X81320000Y-89375000D01*
X81620000Y-89375000D01*
X81620000Y-89625000D01*
G37*
X81620000Y-89625000D02*
X81320000Y-89625000D01*
X81320000Y-89375000D01*
X81620000Y-89375000D01*
X81620000Y-89625000D01*
G36*
X82680000Y-90125000D02*
G01*
X82380000Y-90125000D01*
X82380000Y-89875000D01*
X82680000Y-89875000D01*
X82680000Y-90125000D01*
G37*
X82680000Y-90125000D02*
X82380000Y-90125000D01*
X82380000Y-89875000D01*
X82680000Y-89875000D01*
X82680000Y-90125000D01*
G36*
X81620000Y-90125000D02*
G01*
X81320000Y-90125000D01*
X81320000Y-89875000D01*
X81620000Y-89875000D01*
X81620000Y-90125000D01*
G37*
X81620000Y-90125000D02*
X81320000Y-90125000D01*
X81320000Y-89875000D01*
X81620000Y-89875000D01*
X81620000Y-90125000D01*
G36*
X82680000Y-90625000D02*
G01*
X82380000Y-90625000D01*
X82380000Y-90375000D01*
X82680000Y-90375000D01*
X82680000Y-90625000D01*
G37*
X82680000Y-90625000D02*
X82380000Y-90625000D01*
X82380000Y-90375000D01*
X82680000Y-90375000D01*
X82680000Y-90625000D01*
G36*
X82680000Y-89625000D02*
G01*
X82380000Y-89625000D01*
X82380000Y-89375000D01*
X82680000Y-89375000D01*
X82680000Y-89625000D01*
G37*
X82680000Y-89625000D02*
X82380000Y-89625000D01*
X82380000Y-89375000D01*
X82680000Y-89375000D01*
X82680000Y-89625000D01*
%TO.C,D43*%
G36*
X140680000Y-198625000D02*
G01*
X140380000Y-198625000D01*
X140380000Y-198375000D01*
X140680000Y-198375000D01*
X140680000Y-198625000D01*
G37*
X140680000Y-198625000D02*
X140380000Y-198625000D01*
X140380000Y-198375000D01*
X140680000Y-198375000D01*
X140680000Y-198625000D01*
G36*
X139620000Y-199125000D02*
G01*
X139320000Y-199125000D01*
X139320000Y-198875000D01*
X139620000Y-198875000D01*
X139620000Y-199125000D01*
G37*
X139620000Y-199125000D02*
X139320000Y-199125000D01*
X139320000Y-198875000D01*
X139620000Y-198875000D01*
X139620000Y-199125000D01*
G36*
X140680000Y-199125000D02*
G01*
X140380000Y-199125000D01*
X140380000Y-198875000D01*
X140680000Y-198875000D01*
X140680000Y-199125000D01*
G37*
X140680000Y-199125000D02*
X140380000Y-199125000D01*
X140380000Y-198875000D01*
X140680000Y-198875000D01*
X140680000Y-199125000D01*
G36*
X140135000Y-198865000D02*
G01*
X139865000Y-198865000D01*
X139865000Y-198435000D01*
X140135000Y-198435000D01*
X140135000Y-198865000D01*
G37*
X140135000Y-198865000D02*
X139865000Y-198865000D01*
X139865000Y-198435000D01*
X140135000Y-198435000D01*
X140135000Y-198865000D01*
G36*
X139620000Y-199625000D02*
G01*
X139320000Y-199625000D01*
X139320000Y-199375000D01*
X139620000Y-199375000D01*
X139620000Y-199625000D01*
G37*
X139620000Y-199625000D02*
X139320000Y-199625000D01*
X139320000Y-199375000D01*
X139620000Y-199375000D01*
X139620000Y-199625000D01*
G36*
X140680000Y-199625000D02*
G01*
X140380000Y-199625000D01*
X140380000Y-199375000D01*
X140680000Y-199375000D01*
X140680000Y-199625000D01*
G37*
X140680000Y-199625000D02*
X140380000Y-199625000D01*
X140380000Y-199375000D01*
X140680000Y-199375000D01*
X140680000Y-199625000D01*
G36*
X139620000Y-198625000D02*
G01*
X139320000Y-198625000D01*
X139320000Y-198375000D01*
X139620000Y-198375000D01*
X139620000Y-198625000D01*
G37*
X139620000Y-198625000D02*
X139320000Y-198625000D01*
X139320000Y-198375000D01*
X139620000Y-198375000D01*
X139620000Y-198625000D01*
G36*
X140135000Y-199565000D02*
G01*
X139865000Y-199565000D01*
X139865000Y-199135000D01*
X140135000Y-199135000D01*
X140135000Y-199565000D01*
G37*
X140135000Y-199565000D02*
X139865000Y-199565000D01*
X139865000Y-199135000D01*
X140135000Y-199135000D01*
X140135000Y-199565000D01*
%TO.C,D2*%
G36*
X138620000Y-101375000D02*
G01*
X138320000Y-101375000D01*
X138320000Y-101125000D01*
X138620000Y-101125000D01*
X138620000Y-101375000D01*
G37*
X138620000Y-101375000D02*
X138320000Y-101375000D01*
X138320000Y-101125000D01*
X138620000Y-101125000D01*
X138620000Y-101375000D01*
G36*
X139680000Y-101375000D02*
G01*
X139380000Y-101375000D01*
X139380000Y-101125000D01*
X139680000Y-101125000D01*
X139680000Y-101375000D01*
G37*
X139680000Y-101375000D02*
X139380000Y-101375000D01*
X139380000Y-101125000D01*
X139680000Y-101125000D01*
X139680000Y-101375000D01*
G36*
X139135000Y-101615000D02*
G01*
X138865000Y-101615000D01*
X138865000Y-101185000D01*
X139135000Y-101185000D01*
X139135000Y-101615000D01*
G37*
X139135000Y-101615000D02*
X138865000Y-101615000D01*
X138865000Y-101185000D01*
X139135000Y-101185000D01*
X139135000Y-101615000D01*
G36*
X139680000Y-102375000D02*
G01*
X139380000Y-102375000D01*
X139380000Y-102125000D01*
X139680000Y-102125000D01*
X139680000Y-102375000D01*
G37*
X139680000Y-102375000D02*
X139380000Y-102375000D01*
X139380000Y-102125000D01*
X139680000Y-102125000D01*
X139680000Y-102375000D01*
G36*
X139680000Y-101875000D02*
G01*
X139380000Y-101875000D01*
X139380000Y-101625000D01*
X139680000Y-101625000D01*
X139680000Y-101875000D01*
G37*
X139680000Y-101875000D02*
X139380000Y-101875000D01*
X139380000Y-101625000D01*
X139680000Y-101625000D01*
X139680000Y-101875000D01*
G36*
X138620000Y-101875000D02*
G01*
X138320000Y-101875000D01*
X138320000Y-101625000D01*
X138620000Y-101625000D01*
X138620000Y-101875000D01*
G37*
X138620000Y-101875000D02*
X138320000Y-101875000D01*
X138320000Y-101625000D01*
X138620000Y-101625000D01*
X138620000Y-101875000D01*
G36*
X138620000Y-102375000D02*
G01*
X138320000Y-102375000D01*
X138320000Y-102125000D01*
X138620000Y-102125000D01*
X138620000Y-102375000D01*
G37*
X138620000Y-102375000D02*
X138320000Y-102375000D01*
X138320000Y-102125000D01*
X138620000Y-102125000D01*
X138620000Y-102375000D01*
G36*
X139135000Y-102315000D02*
G01*
X138865000Y-102315000D01*
X138865000Y-101885000D01*
X139135000Y-101885000D01*
X139135000Y-102315000D01*
G37*
X139135000Y-102315000D02*
X138865000Y-102315000D01*
X138865000Y-101885000D01*
X139135000Y-101885000D01*
X139135000Y-102315000D01*
%TO.C,D4*%
G36*
X139135000Y-140315000D02*
G01*
X138865000Y-140315000D01*
X138865000Y-139885000D01*
X139135000Y-139885000D01*
X139135000Y-140315000D01*
G37*
X139135000Y-140315000D02*
X138865000Y-140315000D01*
X138865000Y-139885000D01*
X139135000Y-139885000D01*
X139135000Y-140315000D01*
G36*
X139680000Y-140375000D02*
G01*
X139380000Y-140375000D01*
X139380000Y-140125000D01*
X139680000Y-140125000D01*
X139680000Y-140375000D01*
G37*
X139680000Y-140375000D02*
X139380000Y-140375000D01*
X139380000Y-140125000D01*
X139680000Y-140125000D01*
X139680000Y-140375000D01*
G36*
X139680000Y-139375000D02*
G01*
X139380000Y-139375000D01*
X139380000Y-139125000D01*
X139680000Y-139125000D01*
X139680000Y-139375000D01*
G37*
X139680000Y-139375000D02*
X139380000Y-139375000D01*
X139380000Y-139125000D01*
X139680000Y-139125000D01*
X139680000Y-139375000D01*
G36*
X138620000Y-139375000D02*
G01*
X138320000Y-139375000D01*
X138320000Y-139125000D01*
X138620000Y-139125000D01*
X138620000Y-139375000D01*
G37*
X138620000Y-139375000D02*
X138320000Y-139375000D01*
X138320000Y-139125000D01*
X138620000Y-139125000D01*
X138620000Y-139375000D01*
G36*
X138620000Y-139875000D02*
G01*
X138320000Y-139875000D01*
X138320000Y-139625000D01*
X138620000Y-139625000D01*
X138620000Y-139875000D01*
G37*
X138620000Y-139875000D02*
X138320000Y-139875000D01*
X138320000Y-139625000D01*
X138620000Y-139625000D01*
X138620000Y-139875000D01*
G36*
X139680000Y-139875000D02*
G01*
X139380000Y-139875000D01*
X139380000Y-139625000D01*
X139680000Y-139625000D01*
X139680000Y-139875000D01*
G37*
X139680000Y-139875000D02*
X139380000Y-139875000D01*
X139380000Y-139625000D01*
X139680000Y-139625000D01*
X139680000Y-139875000D01*
G36*
X138620000Y-140375000D02*
G01*
X138320000Y-140375000D01*
X138320000Y-140125000D01*
X138620000Y-140125000D01*
X138620000Y-140375000D01*
G37*
X138620000Y-140375000D02*
X138320000Y-140375000D01*
X138320000Y-140125000D01*
X138620000Y-140125000D01*
X138620000Y-140375000D01*
G36*
X139135000Y-139615000D02*
G01*
X138865000Y-139615000D01*
X138865000Y-139185000D01*
X139135000Y-139185000D01*
X139135000Y-139615000D01*
G37*
X139135000Y-139615000D02*
X138865000Y-139615000D01*
X138865000Y-139185000D01*
X139135000Y-139185000D01*
X139135000Y-139615000D01*
%TO.C,D44*%
G36*
X139620000Y-218625000D02*
G01*
X139320000Y-218625000D01*
X139320000Y-218375000D01*
X139620000Y-218375000D01*
X139620000Y-218625000D01*
G37*
X139620000Y-218625000D02*
X139320000Y-218625000D01*
X139320000Y-218375000D01*
X139620000Y-218375000D01*
X139620000Y-218625000D01*
G36*
X140680000Y-218125000D02*
G01*
X140380000Y-218125000D01*
X140380000Y-217875000D01*
X140680000Y-217875000D01*
X140680000Y-218125000D01*
G37*
X140680000Y-218125000D02*
X140380000Y-218125000D01*
X140380000Y-217875000D01*
X140680000Y-217875000D01*
X140680000Y-218125000D01*
G36*
X140680000Y-218625000D02*
G01*
X140380000Y-218625000D01*
X140380000Y-218375000D01*
X140680000Y-218375000D01*
X140680000Y-218625000D01*
G37*
X140680000Y-218625000D02*
X140380000Y-218625000D01*
X140380000Y-218375000D01*
X140680000Y-218375000D01*
X140680000Y-218625000D01*
G36*
X140135000Y-218565000D02*
G01*
X139865000Y-218565000D01*
X139865000Y-218135000D01*
X140135000Y-218135000D01*
X140135000Y-218565000D01*
G37*
X140135000Y-218565000D02*
X139865000Y-218565000D01*
X139865000Y-218135000D01*
X140135000Y-218135000D01*
X140135000Y-218565000D01*
G36*
X140135000Y-217865000D02*
G01*
X139865000Y-217865000D01*
X139865000Y-217435000D01*
X140135000Y-217435000D01*
X140135000Y-217865000D01*
G37*
X140135000Y-217865000D02*
X139865000Y-217865000D01*
X139865000Y-217435000D01*
X140135000Y-217435000D01*
X140135000Y-217865000D01*
G36*
X140680000Y-217625000D02*
G01*
X140380000Y-217625000D01*
X140380000Y-217375000D01*
X140680000Y-217375000D01*
X140680000Y-217625000D01*
G37*
X140680000Y-217625000D02*
X140380000Y-217625000D01*
X140380000Y-217375000D01*
X140680000Y-217375000D01*
X140680000Y-217625000D01*
G36*
X139620000Y-217625000D02*
G01*
X139320000Y-217625000D01*
X139320000Y-217375000D01*
X139620000Y-217375000D01*
X139620000Y-217625000D01*
G37*
X139620000Y-217625000D02*
X139320000Y-217625000D01*
X139320000Y-217375000D01*
X139620000Y-217375000D01*
X139620000Y-217625000D01*
G36*
X139620000Y-218125000D02*
G01*
X139320000Y-218125000D01*
X139320000Y-217875000D01*
X139620000Y-217875000D01*
X139620000Y-218125000D01*
G37*
X139620000Y-218125000D02*
X139320000Y-218125000D01*
X139320000Y-217875000D01*
X139620000Y-217875000D01*
X139620000Y-218125000D01*
%TO.C,D1*%
G36*
X139135000Y-83315000D02*
G01*
X138865000Y-83315000D01*
X138865000Y-82885000D01*
X139135000Y-82885000D01*
X139135000Y-83315000D01*
G37*
X139135000Y-83315000D02*
X138865000Y-83315000D01*
X138865000Y-82885000D01*
X139135000Y-82885000D01*
X139135000Y-83315000D01*
G36*
X139135000Y-82615000D02*
G01*
X138865000Y-82615000D01*
X138865000Y-82185000D01*
X139135000Y-82185000D01*
X139135000Y-82615000D01*
G37*
X139135000Y-82615000D02*
X138865000Y-82615000D01*
X138865000Y-82185000D01*
X139135000Y-82185000D01*
X139135000Y-82615000D01*
G36*
X138620000Y-83375000D02*
G01*
X138320000Y-83375000D01*
X138320000Y-83125000D01*
X138620000Y-83125000D01*
X138620000Y-83375000D01*
G37*
X138620000Y-83375000D02*
X138320000Y-83375000D01*
X138320000Y-83125000D01*
X138620000Y-83125000D01*
X138620000Y-83375000D01*
G36*
X139680000Y-82375000D02*
G01*
X139380000Y-82375000D01*
X139380000Y-82125000D01*
X139680000Y-82125000D01*
X139680000Y-82375000D01*
G37*
X139680000Y-82375000D02*
X139380000Y-82375000D01*
X139380000Y-82125000D01*
X139680000Y-82125000D01*
X139680000Y-82375000D01*
G36*
X138620000Y-82875000D02*
G01*
X138320000Y-82875000D01*
X138320000Y-82625000D01*
X138620000Y-82625000D01*
X138620000Y-82875000D01*
G37*
X138620000Y-82875000D02*
X138320000Y-82875000D01*
X138320000Y-82625000D01*
X138620000Y-82625000D01*
X138620000Y-82875000D01*
G36*
X139680000Y-82875000D02*
G01*
X139380000Y-82875000D01*
X139380000Y-82625000D01*
X139680000Y-82625000D01*
X139680000Y-82875000D01*
G37*
X139680000Y-82875000D02*
X139380000Y-82875000D01*
X139380000Y-82625000D01*
X139680000Y-82625000D01*
X139680000Y-82875000D01*
G36*
X138620000Y-82375000D02*
G01*
X138320000Y-82375000D01*
X138320000Y-82125000D01*
X138620000Y-82125000D01*
X138620000Y-82375000D01*
G37*
X138620000Y-82375000D02*
X138320000Y-82375000D01*
X138320000Y-82125000D01*
X138620000Y-82125000D01*
X138620000Y-82375000D01*
G36*
X139680000Y-83375000D02*
G01*
X139380000Y-83375000D01*
X139380000Y-83125000D01*
X139680000Y-83125000D01*
X139680000Y-83375000D01*
G37*
X139680000Y-83375000D02*
X139380000Y-83375000D01*
X139380000Y-83125000D01*
X139680000Y-83125000D01*
X139680000Y-83375000D01*
%TO.C,D45*%
G36*
X135620000Y-231625000D02*
G01*
X135320000Y-231625000D01*
X135320000Y-231375000D01*
X135620000Y-231375000D01*
X135620000Y-231625000D01*
G37*
X135620000Y-231625000D02*
X135320000Y-231625000D01*
X135320000Y-231375000D01*
X135620000Y-231375000D01*
X135620000Y-231625000D01*
G36*
X136680000Y-231625000D02*
G01*
X136380000Y-231625000D01*
X136380000Y-231375000D01*
X136680000Y-231375000D01*
X136680000Y-231625000D01*
G37*
X136680000Y-231625000D02*
X136380000Y-231625000D01*
X136380000Y-231375000D01*
X136680000Y-231375000D01*
X136680000Y-231625000D01*
G36*
X136680000Y-232125000D02*
G01*
X136380000Y-232125000D01*
X136380000Y-231875000D01*
X136680000Y-231875000D01*
X136680000Y-232125000D01*
G37*
X136680000Y-232125000D02*
X136380000Y-232125000D01*
X136380000Y-231875000D01*
X136680000Y-231875000D01*
X136680000Y-232125000D01*
G36*
X135620000Y-232125000D02*
G01*
X135320000Y-232125000D01*
X135320000Y-231875000D01*
X135620000Y-231875000D01*
X135620000Y-232125000D01*
G37*
X135620000Y-232125000D02*
X135320000Y-232125000D01*
X135320000Y-231875000D01*
X135620000Y-231875000D01*
X135620000Y-232125000D01*
G36*
X136680000Y-232625000D02*
G01*
X136380000Y-232625000D01*
X136380000Y-232375000D01*
X136680000Y-232375000D01*
X136680000Y-232625000D01*
G37*
X136680000Y-232625000D02*
X136380000Y-232625000D01*
X136380000Y-232375000D01*
X136680000Y-232375000D01*
X136680000Y-232625000D01*
G36*
X136135000Y-231865000D02*
G01*
X135865000Y-231865000D01*
X135865000Y-231435000D01*
X136135000Y-231435000D01*
X136135000Y-231865000D01*
G37*
X136135000Y-231865000D02*
X135865000Y-231865000D01*
X135865000Y-231435000D01*
X136135000Y-231435000D01*
X136135000Y-231865000D01*
G36*
X136135000Y-232565000D02*
G01*
X135865000Y-232565000D01*
X135865000Y-232135000D01*
X136135000Y-232135000D01*
X136135000Y-232565000D01*
G37*
X136135000Y-232565000D02*
X135865000Y-232565000D01*
X135865000Y-232135000D01*
X136135000Y-232135000D01*
X136135000Y-232565000D01*
G36*
X135620000Y-232625000D02*
G01*
X135320000Y-232625000D01*
X135320000Y-232375000D01*
X135620000Y-232375000D01*
X135620000Y-232625000D01*
G37*
X135620000Y-232625000D02*
X135320000Y-232625000D01*
X135320000Y-232375000D01*
X135620000Y-232375000D01*
X135620000Y-232625000D01*
%TO.C,D6*%
G36*
X82680000Y-109125000D02*
G01*
X82380000Y-109125000D01*
X82380000Y-108875000D01*
X82680000Y-108875000D01*
X82680000Y-109125000D01*
G37*
X82680000Y-109125000D02*
X82380000Y-109125000D01*
X82380000Y-108875000D01*
X82680000Y-108875000D01*
X82680000Y-109125000D01*
G36*
X81620000Y-108625000D02*
G01*
X81320000Y-108625000D01*
X81320000Y-108375000D01*
X81620000Y-108375000D01*
X81620000Y-108625000D01*
G37*
X81620000Y-108625000D02*
X81320000Y-108625000D01*
X81320000Y-108375000D01*
X81620000Y-108375000D01*
X81620000Y-108625000D01*
G36*
X81620000Y-109125000D02*
G01*
X81320000Y-109125000D01*
X81320000Y-108875000D01*
X81620000Y-108875000D01*
X81620000Y-109125000D01*
G37*
X81620000Y-109125000D02*
X81320000Y-109125000D01*
X81320000Y-108875000D01*
X81620000Y-108875000D01*
X81620000Y-109125000D01*
G36*
X82135000Y-109565000D02*
G01*
X81865000Y-109565000D01*
X81865000Y-109135000D01*
X82135000Y-109135000D01*
X82135000Y-109565000D01*
G37*
X82135000Y-109565000D02*
X81865000Y-109565000D01*
X81865000Y-109135000D01*
X82135000Y-109135000D01*
X82135000Y-109565000D01*
G36*
X82135000Y-108865000D02*
G01*
X81865000Y-108865000D01*
X81865000Y-108435000D01*
X82135000Y-108435000D01*
X82135000Y-108865000D01*
G37*
X82135000Y-108865000D02*
X81865000Y-108865000D01*
X81865000Y-108435000D01*
X82135000Y-108435000D01*
X82135000Y-108865000D01*
G36*
X81620000Y-109625000D02*
G01*
X81320000Y-109625000D01*
X81320000Y-109375000D01*
X81620000Y-109375000D01*
X81620000Y-109625000D01*
G37*
X81620000Y-109625000D02*
X81320000Y-109625000D01*
X81320000Y-109375000D01*
X81620000Y-109375000D01*
X81620000Y-109625000D01*
G36*
X82680000Y-109625000D02*
G01*
X82380000Y-109625000D01*
X82380000Y-109375000D01*
X82680000Y-109375000D01*
X82680000Y-109625000D01*
G37*
X82680000Y-109625000D02*
X82380000Y-109625000D01*
X82380000Y-109375000D01*
X82680000Y-109375000D01*
X82680000Y-109625000D01*
G36*
X82680000Y-108625000D02*
G01*
X82380000Y-108625000D01*
X82380000Y-108375000D01*
X82680000Y-108375000D01*
X82680000Y-108625000D01*
G37*
X82680000Y-108625000D02*
X82380000Y-108625000D01*
X82380000Y-108375000D01*
X82680000Y-108375000D01*
X82680000Y-108625000D01*
%TO.C,D7*%
G36*
X82680000Y-128625000D02*
G01*
X82380000Y-128625000D01*
X82380000Y-128375000D01*
X82680000Y-128375000D01*
X82680000Y-128625000D01*
G37*
X82680000Y-128625000D02*
X82380000Y-128625000D01*
X82380000Y-128375000D01*
X82680000Y-128375000D01*
X82680000Y-128625000D01*
G36*
X82680000Y-127625000D02*
G01*
X82380000Y-127625000D01*
X82380000Y-127375000D01*
X82680000Y-127375000D01*
X82680000Y-127625000D01*
G37*
X82680000Y-127625000D02*
X82380000Y-127625000D01*
X82380000Y-127375000D01*
X82680000Y-127375000D01*
X82680000Y-127625000D01*
G36*
X82680000Y-128125000D02*
G01*
X82380000Y-128125000D01*
X82380000Y-127875000D01*
X82680000Y-127875000D01*
X82680000Y-128125000D01*
G37*
X82680000Y-128125000D02*
X82380000Y-128125000D01*
X82380000Y-127875000D01*
X82680000Y-127875000D01*
X82680000Y-128125000D01*
G36*
X81620000Y-127625000D02*
G01*
X81320000Y-127625000D01*
X81320000Y-127375000D01*
X81620000Y-127375000D01*
X81620000Y-127625000D01*
G37*
X81620000Y-127625000D02*
X81320000Y-127625000D01*
X81320000Y-127375000D01*
X81620000Y-127375000D01*
X81620000Y-127625000D01*
G36*
X81620000Y-128625000D02*
G01*
X81320000Y-128625000D01*
X81320000Y-128375000D01*
X81620000Y-128375000D01*
X81620000Y-128625000D01*
G37*
X81620000Y-128625000D02*
X81320000Y-128625000D01*
X81320000Y-128375000D01*
X81620000Y-128375000D01*
X81620000Y-128625000D01*
G36*
X82135000Y-128565000D02*
G01*
X81865000Y-128565000D01*
X81865000Y-128135000D01*
X82135000Y-128135000D01*
X82135000Y-128565000D01*
G37*
X82135000Y-128565000D02*
X81865000Y-128565000D01*
X81865000Y-128135000D01*
X82135000Y-128135000D01*
X82135000Y-128565000D01*
G36*
X82135000Y-127865000D02*
G01*
X81865000Y-127865000D01*
X81865000Y-127435000D01*
X82135000Y-127435000D01*
X82135000Y-127865000D01*
G37*
X82135000Y-127865000D02*
X81865000Y-127865000D01*
X81865000Y-127435000D01*
X82135000Y-127435000D01*
X82135000Y-127865000D01*
G36*
X81620000Y-128125000D02*
G01*
X81320000Y-128125000D01*
X81320000Y-127875000D01*
X81620000Y-127875000D01*
X81620000Y-128125000D01*
G37*
X81620000Y-128125000D02*
X81320000Y-128125000D01*
X81320000Y-127875000D01*
X81620000Y-127875000D01*
X81620000Y-128125000D01*
%TO.C,D8*%
G36*
X86680000Y-141625000D02*
G01*
X86380000Y-141625000D01*
X86380000Y-141375000D01*
X86680000Y-141375000D01*
X86680000Y-141625000D01*
G37*
X86680000Y-141625000D02*
X86380000Y-141625000D01*
X86380000Y-141375000D01*
X86680000Y-141375000D01*
X86680000Y-141625000D01*
G36*
X86135000Y-141865000D02*
G01*
X85865000Y-141865000D01*
X85865000Y-141435000D01*
X86135000Y-141435000D01*
X86135000Y-141865000D01*
G37*
X86135000Y-141865000D02*
X85865000Y-141865000D01*
X85865000Y-141435000D01*
X86135000Y-141435000D01*
X86135000Y-141865000D01*
G36*
X85620000Y-141625000D02*
G01*
X85320000Y-141625000D01*
X85320000Y-141375000D01*
X85620000Y-141375000D01*
X85620000Y-141625000D01*
G37*
X85620000Y-141625000D02*
X85320000Y-141625000D01*
X85320000Y-141375000D01*
X85620000Y-141375000D01*
X85620000Y-141625000D01*
G36*
X85620000Y-142625000D02*
G01*
X85320000Y-142625000D01*
X85320000Y-142375000D01*
X85620000Y-142375000D01*
X85620000Y-142625000D01*
G37*
X85620000Y-142625000D02*
X85320000Y-142625000D01*
X85320000Y-142375000D01*
X85620000Y-142375000D01*
X85620000Y-142625000D01*
G36*
X86135000Y-142565000D02*
G01*
X85865000Y-142565000D01*
X85865000Y-142135000D01*
X86135000Y-142135000D01*
X86135000Y-142565000D01*
G37*
X86135000Y-142565000D02*
X85865000Y-142565000D01*
X85865000Y-142135000D01*
X86135000Y-142135000D01*
X86135000Y-142565000D01*
G36*
X86680000Y-142125000D02*
G01*
X86380000Y-142125000D01*
X86380000Y-141875000D01*
X86680000Y-141875000D01*
X86680000Y-142125000D01*
G37*
X86680000Y-142125000D02*
X86380000Y-142125000D01*
X86380000Y-141875000D01*
X86680000Y-141875000D01*
X86680000Y-142125000D01*
G36*
X85620000Y-142125000D02*
G01*
X85320000Y-142125000D01*
X85320000Y-141875000D01*
X85620000Y-141875000D01*
X85620000Y-142125000D01*
G37*
X85620000Y-142125000D02*
X85320000Y-142125000D01*
X85320000Y-141875000D01*
X85620000Y-141875000D01*
X85620000Y-142125000D01*
G36*
X86680000Y-142625000D02*
G01*
X86380000Y-142625000D01*
X86380000Y-142375000D01*
X86680000Y-142375000D01*
X86680000Y-142625000D01*
G37*
X86680000Y-142625000D02*
X86380000Y-142625000D01*
X86380000Y-142375000D01*
X86680000Y-142375000D01*
X86680000Y-142625000D01*
%TO.C,D3*%
G36*
X138620000Y-120875000D02*
G01*
X138320000Y-120875000D01*
X138320000Y-120625000D01*
X138620000Y-120625000D01*
X138620000Y-120875000D01*
G37*
X138620000Y-120875000D02*
X138320000Y-120875000D01*
X138320000Y-120625000D01*
X138620000Y-120625000D01*
X138620000Y-120875000D01*
G36*
X139135000Y-120615000D02*
G01*
X138865000Y-120615000D01*
X138865000Y-120185000D01*
X139135000Y-120185000D01*
X139135000Y-120615000D01*
G37*
X139135000Y-120615000D02*
X138865000Y-120615000D01*
X138865000Y-120185000D01*
X139135000Y-120185000D01*
X139135000Y-120615000D01*
G36*
X139680000Y-121375000D02*
G01*
X139380000Y-121375000D01*
X139380000Y-121125000D01*
X139680000Y-121125000D01*
X139680000Y-121375000D01*
G37*
X139680000Y-121375000D02*
X139380000Y-121375000D01*
X139380000Y-121125000D01*
X139680000Y-121125000D01*
X139680000Y-121375000D01*
G36*
X139135000Y-121315000D02*
G01*
X138865000Y-121315000D01*
X138865000Y-120885000D01*
X139135000Y-120885000D01*
X139135000Y-121315000D01*
G37*
X139135000Y-121315000D02*
X138865000Y-121315000D01*
X138865000Y-120885000D01*
X139135000Y-120885000D01*
X139135000Y-121315000D01*
G36*
X138620000Y-120375000D02*
G01*
X138320000Y-120375000D01*
X138320000Y-120125000D01*
X138620000Y-120125000D01*
X138620000Y-120375000D01*
G37*
X138620000Y-120375000D02*
X138320000Y-120375000D01*
X138320000Y-120125000D01*
X138620000Y-120125000D01*
X138620000Y-120375000D01*
G36*
X139680000Y-120875000D02*
G01*
X139380000Y-120875000D01*
X139380000Y-120625000D01*
X139680000Y-120625000D01*
X139680000Y-120875000D01*
G37*
X139680000Y-120875000D02*
X139380000Y-120875000D01*
X139380000Y-120625000D01*
X139680000Y-120625000D01*
X139680000Y-120875000D01*
G36*
X139680000Y-120375000D02*
G01*
X139380000Y-120375000D01*
X139380000Y-120125000D01*
X139680000Y-120125000D01*
X139680000Y-120375000D01*
G37*
X139680000Y-120375000D02*
X139380000Y-120375000D01*
X139380000Y-120125000D01*
X139680000Y-120125000D01*
X139680000Y-120375000D01*
G36*
X138620000Y-121375000D02*
G01*
X138320000Y-121375000D01*
X138320000Y-121125000D01*
X138620000Y-121125000D01*
X138620000Y-121375000D01*
G37*
X138620000Y-121375000D02*
X138320000Y-121375000D01*
X138320000Y-121125000D01*
X138620000Y-121125000D01*
X138620000Y-121375000D01*
%TO.C,D48*%
G36*
X82620000Y-211375000D02*
G01*
X82320000Y-211375000D01*
X82320000Y-211125000D01*
X82620000Y-211125000D01*
X82620000Y-211375000D01*
G37*
X82620000Y-211375000D02*
X82320000Y-211375000D01*
X82320000Y-211125000D01*
X82620000Y-211125000D01*
X82620000Y-211375000D01*
G36*
X82620000Y-210375000D02*
G01*
X82320000Y-210375000D01*
X82320000Y-210125000D01*
X82620000Y-210125000D01*
X82620000Y-210375000D01*
G37*
X82620000Y-210375000D02*
X82320000Y-210375000D01*
X82320000Y-210125000D01*
X82620000Y-210125000D01*
X82620000Y-210375000D01*
G36*
X83135000Y-210615000D02*
G01*
X82865000Y-210615000D01*
X82865000Y-210185000D01*
X83135000Y-210185000D01*
X83135000Y-210615000D01*
G37*
X83135000Y-210615000D02*
X82865000Y-210615000D01*
X82865000Y-210185000D01*
X83135000Y-210185000D01*
X83135000Y-210615000D01*
G36*
X82620000Y-210875000D02*
G01*
X82320000Y-210875000D01*
X82320000Y-210625000D01*
X82620000Y-210625000D01*
X82620000Y-210875000D01*
G37*
X82620000Y-210875000D02*
X82320000Y-210875000D01*
X82320000Y-210625000D01*
X82620000Y-210625000D01*
X82620000Y-210875000D01*
G36*
X83135000Y-211315000D02*
G01*
X82865000Y-211315000D01*
X82865000Y-210885000D01*
X83135000Y-210885000D01*
X83135000Y-211315000D01*
G37*
X83135000Y-211315000D02*
X82865000Y-211315000D01*
X82865000Y-210885000D01*
X83135000Y-210885000D01*
X83135000Y-211315000D01*
G36*
X83680000Y-211375000D02*
G01*
X83380000Y-211375000D01*
X83380000Y-211125000D01*
X83680000Y-211125000D01*
X83680000Y-211375000D01*
G37*
X83680000Y-211375000D02*
X83380000Y-211375000D01*
X83380000Y-211125000D01*
X83680000Y-211125000D01*
X83680000Y-211375000D01*
G36*
X83680000Y-210375000D02*
G01*
X83380000Y-210375000D01*
X83380000Y-210125000D01*
X83680000Y-210125000D01*
X83680000Y-210375000D01*
G37*
X83680000Y-210375000D02*
X83380000Y-210375000D01*
X83380000Y-210125000D01*
X83680000Y-210125000D01*
X83680000Y-210375000D01*
G36*
X83680000Y-210875000D02*
G01*
X83380000Y-210875000D01*
X83380000Y-210625000D01*
X83680000Y-210625000D01*
X83680000Y-210875000D01*
G37*
X83680000Y-210875000D02*
X83380000Y-210875000D01*
X83380000Y-210625000D01*
X83680000Y-210625000D01*
X83680000Y-210875000D01*
%TO.C,D47*%
G36*
X82620000Y-191375000D02*
G01*
X82320000Y-191375000D01*
X82320000Y-191125000D01*
X82620000Y-191125000D01*
X82620000Y-191375000D01*
G37*
X82620000Y-191375000D02*
X82320000Y-191375000D01*
X82320000Y-191125000D01*
X82620000Y-191125000D01*
X82620000Y-191375000D01*
G36*
X83680000Y-191375000D02*
G01*
X83380000Y-191375000D01*
X83380000Y-191125000D01*
X83680000Y-191125000D01*
X83680000Y-191375000D01*
G37*
X83680000Y-191375000D02*
X83380000Y-191375000D01*
X83380000Y-191125000D01*
X83680000Y-191125000D01*
X83680000Y-191375000D01*
G36*
X83135000Y-192315000D02*
G01*
X82865000Y-192315000D01*
X82865000Y-191885000D01*
X83135000Y-191885000D01*
X83135000Y-192315000D01*
G37*
X83135000Y-192315000D02*
X82865000Y-192315000D01*
X82865000Y-191885000D01*
X83135000Y-191885000D01*
X83135000Y-192315000D01*
G36*
X83680000Y-192375000D02*
G01*
X83380000Y-192375000D01*
X83380000Y-192125000D01*
X83680000Y-192125000D01*
X83680000Y-192375000D01*
G37*
X83680000Y-192375000D02*
X83380000Y-192375000D01*
X83380000Y-192125000D01*
X83680000Y-192125000D01*
X83680000Y-192375000D01*
G36*
X82620000Y-192375000D02*
G01*
X82320000Y-192375000D01*
X82320000Y-192125000D01*
X82620000Y-192125000D01*
X82620000Y-192375000D01*
G37*
X82620000Y-192375000D02*
X82320000Y-192375000D01*
X82320000Y-192125000D01*
X82620000Y-192125000D01*
X82620000Y-192375000D01*
G36*
X83680000Y-191875000D02*
G01*
X83380000Y-191875000D01*
X83380000Y-191625000D01*
X83680000Y-191625000D01*
X83680000Y-191875000D01*
G37*
X83680000Y-191875000D02*
X83380000Y-191875000D01*
X83380000Y-191625000D01*
X83680000Y-191625000D01*
X83680000Y-191875000D01*
G36*
X83135000Y-191615000D02*
G01*
X82865000Y-191615000D01*
X82865000Y-191185000D01*
X83135000Y-191185000D01*
X83135000Y-191615000D01*
G37*
X83135000Y-191615000D02*
X82865000Y-191615000D01*
X82865000Y-191185000D01*
X83135000Y-191185000D01*
X83135000Y-191615000D01*
G36*
X82620000Y-191875000D02*
G01*
X82320000Y-191875000D01*
X82320000Y-191625000D01*
X82620000Y-191625000D01*
X82620000Y-191875000D01*
G37*
X82620000Y-191875000D02*
X82320000Y-191875000D01*
X82320000Y-191625000D01*
X82620000Y-191625000D01*
X82620000Y-191875000D01*
%TO.C,D42*%
G36*
X139620000Y-180625000D02*
G01*
X139320000Y-180625000D01*
X139320000Y-180375000D01*
X139620000Y-180375000D01*
X139620000Y-180625000D01*
G37*
X139620000Y-180625000D02*
X139320000Y-180625000D01*
X139320000Y-180375000D01*
X139620000Y-180375000D01*
X139620000Y-180625000D01*
G36*
X139620000Y-179625000D02*
G01*
X139320000Y-179625000D01*
X139320000Y-179375000D01*
X139620000Y-179375000D01*
X139620000Y-179625000D01*
G37*
X139620000Y-179625000D02*
X139320000Y-179625000D01*
X139320000Y-179375000D01*
X139620000Y-179375000D01*
X139620000Y-179625000D01*
G36*
X140680000Y-180625000D02*
G01*
X140380000Y-180625000D01*
X140380000Y-180375000D01*
X140680000Y-180375000D01*
X140680000Y-180625000D01*
G37*
X140680000Y-180625000D02*
X140380000Y-180625000D01*
X140380000Y-180375000D01*
X140680000Y-180375000D01*
X140680000Y-180625000D01*
G36*
X140135000Y-180565000D02*
G01*
X139865000Y-180565000D01*
X139865000Y-180135000D01*
X140135000Y-180135000D01*
X140135000Y-180565000D01*
G37*
X140135000Y-180565000D02*
X139865000Y-180565000D01*
X139865000Y-180135000D01*
X140135000Y-180135000D01*
X140135000Y-180565000D01*
G36*
X139620000Y-180125000D02*
G01*
X139320000Y-180125000D01*
X139320000Y-179875000D01*
X139620000Y-179875000D01*
X139620000Y-180125000D01*
G37*
X139620000Y-180125000D02*
X139320000Y-180125000D01*
X139320000Y-179875000D01*
X139620000Y-179875000D01*
X139620000Y-180125000D01*
G36*
X140680000Y-179625000D02*
G01*
X140380000Y-179625000D01*
X140380000Y-179375000D01*
X140680000Y-179375000D01*
X140680000Y-179625000D01*
G37*
X140680000Y-179625000D02*
X140380000Y-179625000D01*
X140380000Y-179375000D01*
X140680000Y-179375000D01*
X140680000Y-179625000D01*
G36*
X140680000Y-180125000D02*
G01*
X140380000Y-180125000D01*
X140380000Y-179875000D01*
X140680000Y-179875000D01*
X140680000Y-180125000D01*
G37*
X140680000Y-180125000D02*
X140380000Y-180125000D01*
X140380000Y-179875000D01*
X140680000Y-179875000D01*
X140680000Y-180125000D01*
G36*
X140135000Y-179865000D02*
G01*
X139865000Y-179865000D01*
X139865000Y-179435000D01*
X140135000Y-179435000D01*
X140135000Y-179865000D01*
G37*
X140135000Y-179865000D02*
X139865000Y-179865000D01*
X139865000Y-179435000D01*
X140135000Y-179435000D01*
X140135000Y-179865000D01*
%TD*%
D11*
%TO.C,D79*%
X120900000Y-182600000D03*
X120100000Y-183400000D03*
X120900000Y-183400000D03*
X120100000Y-182600000D03*
%TD*%
%TO.C,D34*%
X168400000Y-120100000D03*
X167600000Y-120900000D03*
X168400000Y-120900000D03*
X167600000Y-120100000D03*
%TD*%
%TO.C,D81*%
X158900000Y-182600000D03*
X158100000Y-183400000D03*
X158900000Y-183400000D03*
X158100000Y-182600000D03*
%TD*%
%TO.C,D80*%
X143400000Y-220600000D03*
X142600000Y-221400000D03*
X143400000Y-221400000D03*
X142600000Y-220600000D03*
%TD*%
%TO.C,D85*%
X82900000Y-180600000D03*
X82100000Y-181400000D03*
X82900000Y-181400000D03*
X82100000Y-180600000D03*
%TD*%
%TO.C,D84*%
X139900000Y-142100000D03*
X139100000Y-142900000D03*
X139900000Y-142900000D03*
X139100000Y-142100000D03*
%TD*%
%TO.C,D78*%
X82900000Y-232100000D03*
X82100000Y-232900000D03*
X82900000Y-232900000D03*
X82100000Y-232100000D03*
%TD*%
%TO.C,D82*%
X162400000Y-201600000D03*
X161600000Y-202400000D03*
X162400000Y-202400000D03*
X161600000Y-201600000D03*
%TD*%
%TO.C,D75*%
X54400000Y-210900000D03*
X53600000Y-210100000D03*
X53600000Y-210900000D03*
X54400000Y-210100000D03*
%TD*%
%TO.C,D76*%
X60400000Y-239600000D03*
X59600000Y-240400000D03*
X60400000Y-240400000D03*
X59600000Y-239600000D03*
%TD*%
%TO.C,D41*%
X60400000Y-111600000D03*
X59600000Y-112400000D03*
X60400000Y-112400000D03*
X59600000Y-111600000D03*
%TD*%
%TO.C,D39*%
X101900000Y-92600000D03*
X101100000Y-93400000D03*
X101900000Y-93400000D03*
X101100000Y-92600000D03*
%TD*%
%TO.C,D40*%
X63900000Y-92600000D03*
X63100000Y-93400000D03*
X63900000Y-93400000D03*
X63100000Y-92600000D03*
%TD*%
%TO.C,D37*%
X79400000Y-130600000D03*
X78600000Y-131400000D03*
X79400000Y-131400000D03*
X78600000Y-130600000D03*
%TD*%
%TO.C,D86*%
X120900000Y-234600000D03*
X120100000Y-235400000D03*
X120900000Y-235400000D03*
X120100000Y-234600000D03*
%TD*%
%TO.C,D77*%
X63900000Y-182600000D03*
X63100000Y-183400000D03*
X63900000Y-183400000D03*
X63100000Y-182600000D03*
%TD*%
%TO.C,D83*%
X139900000Y-90600000D03*
X139100000Y-91400000D03*
X139900000Y-91400000D03*
X139100000Y-90600000D03*
%TD*%
%TO.C,D38*%
X158900000Y-92600000D03*
X158100000Y-93400000D03*
X158900000Y-93400000D03*
X158100000Y-92600000D03*
%TD*%
%TO.C,D36*%
X101900000Y-144600000D03*
X101100000Y-145400000D03*
X101900000Y-145400000D03*
X101100000Y-144600000D03*
%TD*%
%TO.C,D35*%
X162400000Y-149600000D03*
X161600000Y-150400000D03*
X162400000Y-150400000D03*
X161600000Y-149600000D03*
%TD*%
M02*
