%TF.GenerationSoftware,KiCad,Pcbnew,(6.0.6)*%
%TF.CreationDate,2022-09-05T11:06:27-07:00*%
%TF.ProjectId,Nour-Valkyrie,4e6f7572-2d56-4616-9c6b-797269652e6b,rev?*%
%TF.SameCoordinates,Original*%
%TF.FileFunction,Paste,Bot*%
%TF.FilePolarity,Positive*%
%FSLAX46Y46*%
G04 Gerber Fmt 4.6, Leading zero omitted, Abs format (unit mm)*
G04 Created by KiCad (PCBNEW (6.0.6)) date 2022-09-05 11:06:27*
%MOMM*%
%LPD*%
G01*
G04 APERTURE LIST*
%ADD10R,0.600000X0.900000*%
%ADD11R,0.600000X0.550000*%
G04 APERTURE END LIST*
D10*
%TO.C,D53*%
X150467000Y-206517000D03*
D11*
X149517000Y-206192000D03*
X148617000Y-206192000D03*
D10*
X147667000Y-206517000D03*
%TD*%
%TO.C,D61*%
X112467000Y-220517000D03*
D11*
X111517000Y-220192000D03*
X110617000Y-220192000D03*
D10*
X109667000Y-220517000D03*
%TD*%
%TO.C,D71*%
X55467000Y-187517000D03*
D11*
X54517000Y-187192000D03*
X53617000Y-187192000D03*
D10*
X52667000Y-187517000D03*
%TD*%
%TO.C,D64*%
X93467000Y-198517000D03*
D11*
X92517000Y-198192000D03*
X91617000Y-198192000D03*
D10*
X90667000Y-198517000D03*
%TD*%
%TO.C,D55*%
X131467000Y-187517000D03*
D11*
X130517000Y-187192000D03*
X129617000Y-187192000D03*
D10*
X128667000Y-187517000D03*
%TD*%
%TO.C,D9*%
X169400000Y-97500000D03*
D11*
X168450000Y-97175000D03*
X167550000Y-97175000D03*
D10*
X166600000Y-97500000D03*
%TD*%
%TO.C,D59*%
X112467000Y-182517000D03*
D11*
X111517000Y-182192000D03*
X110617000Y-182192000D03*
D10*
X109667000Y-182517000D03*
%TD*%
%TO.C,D68*%
X74467000Y-204517000D03*
D11*
X73517000Y-204192000D03*
X72617000Y-204192000D03*
D10*
X71667000Y-204517000D03*
%TD*%
%TO.C,D72*%
X55467000Y-206517000D03*
D11*
X54517000Y-206192000D03*
X53617000Y-206192000D03*
D10*
X52667000Y-206517000D03*
%TD*%
%TO.C,D74*%
X51967000Y-244517000D03*
D11*
X51017000Y-244192000D03*
X50117000Y-244192000D03*
D10*
X49167000Y-244517000D03*
%TD*%
%TO.C,D23*%
X112400000Y-130549000D03*
D11*
X111450000Y-130224000D03*
X110550000Y-130224000D03*
D10*
X109600000Y-130549000D03*
%TD*%
%TO.C,D56*%
X131467000Y-206517000D03*
D11*
X130517000Y-206192000D03*
X129617000Y-206192000D03*
D10*
X128667000Y-206517000D03*
%TD*%
%TO.C,D12*%
X172900000Y-154549000D03*
D11*
X171950000Y-154224000D03*
X171050000Y-154224000D03*
D10*
X170100000Y-154549000D03*
%TD*%
%TO.C,D26*%
X93400000Y-116549000D03*
D11*
X92450000Y-116224000D03*
X91550000Y-116224000D03*
D10*
X90600000Y-116549000D03*
%TD*%
%TO.C,D20*%
X131400000Y-146549000D03*
D11*
X130450000Y-146224000D03*
X129550000Y-146224000D03*
D10*
X128600000Y-146549000D03*
%TD*%
%TO.C,D62*%
X112467000Y-239517000D03*
D11*
X111517000Y-239192000D03*
X110617000Y-239192000D03*
D10*
X109667000Y-239517000D03*
%TD*%
%TO.C,D28*%
X93400000Y-154549000D03*
D11*
X92450000Y-154224000D03*
X91550000Y-154224000D03*
D10*
X90600000Y-154549000D03*
%TD*%
%TO.C,D33*%
X51900000Y-116549000D03*
D11*
X50950000Y-116224000D03*
X50050000Y-116224000D03*
D10*
X49100000Y-116549000D03*
%TD*%
%TO.C,D65*%
X93467000Y-217517000D03*
D11*
X92517000Y-217192000D03*
X91617000Y-217192000D03*
D10*
X90667000Y-217517000D03*
%TD*%
%TO.C,D57*%
X131467000Y-225517000D03*
D11*
X130517000Y-225192000D03*
X129617000Y-225192000D03*
D10*
X128667000Y-225517000D03*
%TD*%
%TO.C,D69*%
X74467000Y-223517000D03*
D11*
X73517000Y-223192000D03*
X72617000Y-223192000D03*
D10*
X71667000Y-223517000D03*
%TD*%
%TO.C,D10*%
X169400000Y-116549000D03*
D11*
X168450000Y-116224000D03*
X167550000Y-116224000D03*
D10*
X166600000Y-116549000D03*
%TD*%
%TO.C,D31*%
X70900000Y-135549000D03*
D11*
X69950000Y-135224000D03*
X69050000Y-135224000D03*
D10*
X68100000Y-135549000D03*
%TD*%
%TO.C,D21*%
X112400000Y-92500000D03*
D11*
X111450000Y-92175000D03*
X110550000Y-92175000D03*
D10*
X109600000Y-92500000D03*
%TD*%
%TO.C,D25*%
X93400000Y-97500000D03*
D11*
X92450000Y-97175000D03*
X91550000Y-97175000D03*
D10*
X90600000Y-97500000D03*
%TD*%
%TO.C,D70*%
X74467000Y-242517000D03*
D11*
X73517000Y-242192000D03*
X72617000Y-242192000D03*
D10*
X71667000Y-242517000D03*
%TD*%
%TO.C,D18*%
X131400000Y-108549000D03*
D11*
X130450000Y-108224000D03*
X129550000Y-108224000D03*
D10*
X128600000Y-108549000D03*
%TD*%
%TO.C,D17*%
X131400000Y-89500000D03*
D11*
X130450000Y-89175000D03*
X129550000Y-89175000D03*
D10*
X128600000Y-89500000D03*
%TD*%
%TO.C,D60*%
X112467000Y-201517000D03*
D11*
X111517000Y-201192000D03*
X110617000Y-201192000D03*
D10*
X109667000Y-201517000D03*
%TD*%
%TO.C,D63*%
X93467000Y-179517000D03*
D11*
X92517000Y-179192000D03*
X91617000Y-179192000D03*
D10*
X90667000Y-179517000D03*
%TD*%
%TO.C,D13*%
X150400000Y-95500000D03*
D11*
X149450000Y-95175000D03*
X148550000Y-95175000D03*
D10*
X147600000Y-95500000D03*
%TD*%
%TO.C,D51*%
X172967000Y-206517000D03*
D11*
X172017000Y-206192000D03*
X171117000Y-206192000D03*
D10*
X170167000Y-206517000D03*
%TD*%
%TO.C,D22*%
X112400000Y-111549000D03*
D11*
X111450000Y-111224000D03*
X110550000Y-111224000D03*
D10*
X109600000Y-111549000D03*
%TD*%
%TO.C,D52*%
X150467000Y-187517000D03*
D11*
X149517000Y-187192000D03*
X148617000Y-187192000D03*
D10*
X147667000Y-187517000D03*
%TD*%
%TO.C,D32*%
X55400000Y-97500000D03*
D11*
X54450000Y-97175000D03*
X53550000Y-97175000D03*
D10*
X52600000Y-97500000D03*
%TD*%
%TO.C,D58*%
X131467000Y-244517000D03*
D11*
X130517000Y-244192000D03*
X129617000Y-244192000D03*
D10*
X128667000Y-244517000D03*
%TD*%
%TO.C,D24*%
X112400000Y-149549000D03*
D11*
X111450000Y-149224000D03*
X110550000Y-149224000D03*
D10*
X109600000Y-149549000D03*
%TD*%
%TO.C,D15*%
X150400000Y-133549000D03*
D11*
X149450000Y-133224000D03*
X148550000Y-133224000D03*
D10*
X147600000Y-133549000D03*
%TD*%
%TO.C,D67*%
X74467000Y-185517000D03*
D11*
X73517000Y-185192000D03*
X72617000Y-185192000D03*
D10*
X71667000Y-185517000D03*
%TD*%
%TO.C,D29*%
X74400000Y-97500000D03*
D11*
X73450000Y-97175000D03*
X72550000Y-97175000D03*
D10*
X71600000Y-97500000D03*
%TD*%
%TO.C,D16*%
X150400000Y-152549000D03*
D11*
X149450000Y-152224000D03*
X148550000Y-152224000D03*
D10*
X147600000Y-152549000D03*
%TD*%
%TO.C,D66*%
X93467000Y-236517000D03*
D11*
X92517000Y-236192000D03*
X91617000Y-236192000D03*
D10*
X90667000Y-236517000D03*
%TD*%
%TO.C,D11*%
X169400000Y-135549000D03*
D11*
X168450000Y-135224000D03*
X167550000Y-135224000D03*
D10*
X166600000Y-135549000D03*
%TD*%
%TO.C,D19*%
X131400000Y-127549000D03*
D11*
X130450000Y-127224000D03*
X129550000Y-127224000D03*
D10*
X128600000Y-127549000D03*
%TD*%
%TO.C,D14*%
X150400000Y-114549000D03*
D11*
X149450000Y-114224000D03*
X148550000Y-114224000D03*
D10*
X147600000Y-114549000D03*
%TD*%
%TO.C,D50*%
X169467000Y-187517000D03*
D11*
X168517000Y-187192000D03*
X167617000Y-187192000D03*
D10*
X166667000Y-187517000D03*
%TD*%
%TO.C,D54*%
X153967000Y-225517000D03*
D11*
X153017000Y-225192000D03*
X152117000Y-225192000D03*
D10*
X151167000Y-225517000D03*
%TD*%
%TO.C,D27*%
X93400000Y-135549000D03*
D11*
X92450000Y-135224000D03*
X91550000Y-135224000D03*
D10*
X90600000Y-135549000D03*
%TD*%
%TO.C,D30*%
X74400000Y-116549000D03*
D11*
X73450000Y-116224000D03*
X72550000Y-116224000D03*
D10*
X71600000Y-116549000D03*
%TD*%
%TO.C,D73*%
X55467000Y-225517000D03*
D11*
X54517000Y-225192000D03*
X53617000Y-225192000D03*
D10*
X52667000Y-225517000D03*
%TD*%
M02*
