<?xml version="1.0" encoding="UTF-8" standalone="no"?>
<!-- Created with Inkscape (http://www.inkscape.org/) -->

<svg
   width="210mm"
   height="297mm"
   viewBox="0 0 210 297"
   version="1.1"
   id="svg4178"
   sodipodi:docname="plexy.svg"
   inkscape:version="1.2.1 (9c6d41e410, 2022-07-14)"
   xmlns:inkscape="http://www.inkscape.org/namespaces/inkscape"
   xmlns:sodipodi="http://sodipodi.sourceforge.net/DTD/sodipodi-0.dtd"
   xmlns="http://www.w3.org/2000/svg"
   xmlns:svg="http://www.w3.org/2000/svg">
  <sodipodi:namedview
     id="namedview299"
     pagecolor="#ffffff"
     bordercolor="#666666"
     borderopacity="1.0"
     inkscape:showpageshadow="2"
     inkscape:pageopacity="0.0"
     inkscape:pagecheckerboard="0"
     inkscape:deskcolor="#d1d1d1"
     inkscape:document-units="mm"
     showgrid="false"
     inkscape:zoom="1.4142136"
     inkscape:cx="425.67829"
     inkscape:cy="421.7892"
     inkscape:window-width="1920"
     inkscape:window-height="1016"
     inkscape:window-x="1920"
     inkscape:window-y="0"
     inkscape:window-maximized="1"
     inkscape:current-layer="layer1-5" />
  <defs
     id="defs4175" />
  <g
     id="layer1"
     style="fill:#cccccc">
    <path
       id="path4021-6"
       style="display:inline;fill:#cccccc;fill-opacity:1;stroke:#000000;stroke-width:0.199999;stroke-linejoin:miter;stroke-miterlimit:4;stroke-dasharray:none;stop-color:#000000"
       d="m 99.656043,72.818703 c -0.1398,0.979001 -0.70667,1.525472 -2,1.490207 H 82.656162 c -1.104569,0 -2,0.895431 -2,2 v 1.499921 c 0,1.10457 -0.895432,2 -2,1.99999 l -50.49951,-2.2e-4 c -1.104568,-10e-6 -2,0.89542 -2,1.99999 v 15.50011 c 0,1.10457 -0.895431,2 -2,2 h -0.05608 c -1.104569,0 -2,0.895429 -2,1.999999 v 15.7998 c 0,1.10457 0.895431,2 2,2 h 14.74666 c 1.104569,0 2,0.89543 2,2 v 15.00039 c 0,1.10457 0.895431,2 2,2 h 16.80958 c 1.104569,0 2,0.89543 2,2 v 14.99974 c 0,1.10457 0.895429,2 2,2.00001 l 18.79936,7e-5 c 1.104568,1e-5 2,-0.89542 2,-1.99999 v -1.00021 c 0,-1.10457 0.895431,-2 2,-2 h 14.999868 c 1.10457,0 1.86012,-0.59172 2,-1.57066 0.13988,-0.97895 0.77224,-1.48703 1.68705,-1.42915 l 11.51302,1e-4 c 1.10457,1e-5 2,0.89545 2,2.00002 v 2.49987 c 0,1.10457 0.89543,2 2,2 h 18.20827 c 0.58121,0 1.14431,0.34482 1.29171,1.05237 0.1474,0.70755 0.70184,0.979 1.46961,0.94749 l 21.33127,-1.9e-4 c 1.10457,-1e-5 2,-0.89545 2,-2.00002 v -17.55707 c 0.003,-0.356 -0.24838,-0.63916 -0.45928,-0.74396 -0.321,-0.15951 -0.54066,-0.45711 -0.54066,-0.771 V 80.308421 c 0,-1.10457 -0.89543,-1.99999 -2,-1.99998 l -19.18483,1.8e-4 c -0.68661,1e-5 -1.10332,-0.22245 -1.3213,-1.02959 -0.21798,-0.80714 -0.71878,-0.989057 -1.72381,-0.970258 l -15.27099,3.3e-5 c -1.10457,2e-6 -2,-0.895427 -2,-1.999996 v -1.000215 c 0,-1.10457 -0.89543,-2.000001 -2,-2.000002 l -18.80006,-1.5e-5 c -1.22609,-10e-7 -1.860197,0.531124 -1.999997,1.510125 z"
       sodipodi:nodetypes="scsssccssssssssssssssccssssscsssssscsscsssscscssssss" />
  </g>
  <g
     id="layer1-6"
     style="fill:#f9f9f9"
     inkscape:export-filename="body/sound-insulation.svg"
     inkscape:export-xdpi="48.38"
     inkscape:export-ydpi="48.38">
    <path
       id="path4021-6-7"
       style="display:inline;fill:#f9f9f9;fill-opacity:1;stroke:#000000;stroke-width:0.199999;stroke-linejoin:miter;stroke-miterlimit:4;stroke-dasharray:none;stop-color:#000000"
       d="m 105.65594,79.819003 c -0.1398,0.979001 -0.70667,1.525472 -2,1.490208 H 88.656061 c -1.104569,0 -2,0.895431 -2,2 v 1.49992 c 0,1.10457 -0.895432,2.000001 -2,1.999991 l -49.499101,6.6e-5 c -1.104568,-1e-5 -2,0.89542 -2,1.99999 V 104.309 c 0,1.10457 -0.895431,2 -2,2 h -0.05608 c -1.104569,0 -2,0.89543 -2,2 v 2.79984 c 0,1.10457 0.895431,2 2,2 h 14.74666 c 1.104569,0 2,0.89543 2,2 v 15.00032 c 0,1.10457 0.895431,2 2,2 h 16.80958 c 1.104569,0 2,0.89543 2,2 v 14.00002 c 0,1.10457 0.895429,2 2,2.00001 l 4.799421,-1.8e-4 c 1.104568,10e-6 2,-0.89542 2,-1.99999 v -1.00022 c 0,-1.10457 0.895431,-1.99999 2,-1.99999 h 14.999868 c 1.10457,0 1.86012,-0.59173 2,-1.57068 0.13988,-0.97893 0.77224,-1.48702 1.68705,-1.42913 l 24.512751,1.3e-4 c 1.10456,0 2,0.89545 2,2.00002 v 2.49987 c 0,1.10456 0.89543,2 2,2 h 18.20826 c 0.58121,0 1.14432,0.34482 1.29171,1.05236 0.1474,0.70756 0.70184,0.979 1.46961,0.94749 l 8.33118,-5.4e-4 c 1.10457,-7e-5 2,-0.89545 2,-2.00002 v -3.55783 c 0.003,-0.356 -0.24838,-0.63916 -0.45928,-0.74396 -0.321,-0.15951 -0.54066,-0.45711 -0.54066,-0.771 V 87.308436 c 0,-1.10457 -0.89543,-2.000014 -2,-1.99998 l -18.18498,5.58e-4 c -0.68661,10e-6 -1.10332,-0.22245 -1.3213,-1.02959 -0.21798,-0.807141 -0.71878,-0.989057 -1.72381,-0.970258 l -15.27099,3.2e-5 c -1.10457,3e-6 -2,-0.895427 -2,-1.999996 v -1.000215 c 0,-1.104568 -0.89543,-1.999983 -2,-2 l -6.80001,-1.09e-4 c -1.22609,-1.9e-5 -1.8602,0.531125 -2,1.510125 z"
       sodipodi:nodetypes="scsssccssssssssssssssccssssscsssssscsscsssscscssssss" />
  </g>
  <g
     id="layer1-5"
     style="fill:#f9f9f9">
    <path
       id="path4021-6-3"
       style="display:inline;fill:#f9f9f9;fill-opacity:1;stroke:#000000;stroke-width:0.199999;stroke-linejoin:miter;stroke-miterlimit:4;stroke-dasharray:none;stop-color:#000000"
       d="M 157.34595,139.38994 V 79.581478 c -0.0261,-0.851078 -0.66172,-1.27308 -1.29725,-1.27308 h -13.27654 c -0.68661,1e-5 -1.10338,-0.222255 -1.32136,-1.029394 -0.21798,-0.807139 -0.7189,-0.989282 -1.72393,-0.970483 l -15.2709,5.16e-4 c -1.10457,2e-6 -1.99988,-0.895827 -1.99988,-2.000394 v -0.999939 c 0,-1.104569 -0.89531,-1.999877 -1.99988,-1.999878 h -18.8004 c -1.22609,-10e-7 -1.860078,0.530985 -1.999877,1.509985 -0.1398,0.979 -0.70655,1.525613 -1.999878,1.490348 H 82.655937 c -1.104568,0 -1.999878,0.89531 -1.999878,1.999878 v 1.49965 c 0,1.104569 -0.895311,1.999888 -1.999878,1.999878 h -50.49976 c -1.104567,-1e-5 -1.999878,0.895309 -1.999878,1.999878 v 15.500346 c 0,1.104569 -0.89531,1.999878 -1.999878,1.999878 h -0.05633 c -1.104568,0 -1.999878,0.895313 -1.999878,1.999873 v 15.80007 c 0,1.10457 0.89531,1.99988 1.999878,1.99988 h 14.746903 c 1.104568,0 1.999878,0.89531 1.999878,1.99988 V 136.109 c 0,1.10457 0.89531,1.99988 1.999878,1.99988 h 16.809827 c 1.104568,0 1.999878,0.89531 1.999878,1.99988 v 15.00012 c 0,1.10457 0.895308,1.99987 1.999878,1.99988 h 18.799369 c 1.104567,1e-5 2.000395,-0.89531 2.000395,-1.99988 v -1.00046 c 0,-1.10457 0.89531,-1.99988 1.999878,-1.99988 h 14.999601 c 1.10457,0 1.86052,-0.5915 2.0004,-1.57044 0.13988,-0.97895 0.77191,-1.48725 1.68672,-1.42937 h 11.51299 c 1.10457,1e-5 2.00039,0.89531 2.00039,1.99988 v 2.5001 c 0,1.10457 0.89531,1.99988 1.99988,1.99988 h 18.20819 c 0.58121,0 1.14451,0.3451 1.29191,1.05265 0.1474,0.70755 0.70139,0.97874 1.46916,0.94723 h 21.33152 c 1.10457,-1e-5 1.99988,-0.89531 1.99988,-1.99988 v -14.71937 c 0.0238,-0.80628 -0.70544,-1.49205 -1.74349,-1.49335 z"
       sodipodi:nodetypes="ccccsccssssscsssccssssssssssssssccsssssccsssssccsccc" />
  </g>
</svg>
